<svg width="24" height="24" viewBox="0 0 24 24" fill="none" xmlns="http://www.w3.org/2000/svg">
<path d="M3.68377 4.77208L11.6838 2.10541C11.889 2.03699 12.111 2.03699 12.3162 2.10541L20.3162 4.77208C20.7246 4.90819 21 5.29033 21 5.72076V8.53203C21 14.2895 17.6093 19.507 12.3481 21.8453C12.1265 21.9438 11.8735 21.9438 11.6519 21.8453C6.39068 19.507 3 14.2895 3 8.53203V5.72076C3 5.29033 3.27543 4.90819 3.68377 4.77208Z" stroke="#F2F2F2" stroke-width="2" stroke-linecap="round"/>
<circle cx="12" cy="9" r="3" stroke="#F2F2F2" stroke-width="2"/>
<path d="M8 19.5V17C8 14.7909 9.79086 13 12 13V13C14.2091 13 16 14.7909 16 17V19.5" stroke="#F2F2F2" stroke-width="2" stroke-linecap="round"/>
</svg>
