<svg width="24" height="24" viewBox="0 0 24 24" fill="none" xmlns="http://www.w3.org/2000/svg">
<circle cx="12" cy="12" r="4" stroke="#1C1C1C" stroke-width="2"/>
<path fill-rule="evenodd" clip-rule="evenodd" d="M12 20C7.58172 20 4 16.4183 4 12C4 7.58172 7.58172 4 12 4C16.4183 4 20 7.58172 20 12H22C22 6.47715 17.5228 2 12 2C6.47715 2 2 6.47715 2 12C2 17.5228 6.47715 22 12 22V20Z" fill="#1C1C1C"/>
<path d="M16 12V14C16 15.3807 17.1193 16.5 18.5 16.5V16.5C19.8807 16.5 21 15.3807 21 14V12" stroke="#1C1C1C" stroke-width="2"/>
<path d="M17 22C17.5523 22 18 21.5523 18 21C18 20.4477 17.5523 20 17 20V22ZM12 22H17V20H12L12 22Z" fill="#1C1C1C"/>
</svg>
