<svg width="24" height="24" viewBox="0 0 24 24" fill="none" xmlns="http://www.w3.org/2000/svg">
<g id="close">
<path id="Union" fill-rule="evenodd" clip-rule="evenodd" d="M5.70711 4.29286C5.31658 3.90234 4.68342 3.90234 4.29289 4.29286C3.90237 4.68339 3.90237 5.31655 4.29289 5.70708L10.5858 12L4.29294 18.2929C3.90242 18.6834 3.90241 19.3166 4.29294 19.7071C4.68346 20.0976 5.31663 20.0976 5.70715 19.7071L12 13.4142L18.2929 19.7071C18.6834 20.0976 19.3166 20.0976 19.7071 19.7071C20.0976 19.3166 20.0976 18.6834 19.7071 18.2929L13.4142 12L19.7072 5.70708C20.0977 5.31655 20.0977 4.68339 19.7072 4.29286C19.3166 3.90234 18.6835 3.90234 18.2929 4.29286L12 10.5858L5.70711 4.29286Z" fill="#1C1C1C"/>
</g>
</svg>
