<svg width="24" height="24" viewBox="0 0 24 24" fill="none" xmlns="http://www.w3.org/2000/svg">
    <g id="information">
        <circle id="Ellipse 236586" cx="12" cy="12" r="9" stroke="#1C1C1C" stroke-width="2"/>
        <path id="Union" fill-rule="evenodd" clip-rule="evenodd" d="M12 8.5C12.5523 8.5 13 8.05228 13 7.5C13 6.94772 12.5523 6.5 12 6.5C11.4477 6.5 11 6.94772 11 7.5C11 8.05228 11.4477 8.5 12 8.5ZM14.5 17.5C15.0523 17.5 15.5 17.0523 15.5 16.5C15.5 15.9477 15.0523 15.5 14.5 15.5H13.5L13.5 10.5C13.5 9.94772 13.0523 9.5 12.5 9.5L10.5 9.5C9.94772 9.5 9.5 9.94772 9.5 10.5C9.5 11.0523 9.94772 11.5 10.5 11.5H11.5L11.5 15.5H10.5C9.94772 15.5 9.5 15.9477 9.5 16.5C9.5 17.0523 9.94772 17.5 10.5 17.5H12.5H14.5Z" fill="#1C1C1C"/>
    </g>
</svg>
