<svg width="24" height="24" viewBox="0 0 24 24" fill="none" xmlns="http://www.w3.org/2000/svg">
<g id="reset">
<path id="Vector 1231" d="M6.53967 13L1.46033 13C1.05582 13 0.81874 12.5447 1.05071 12.2133L3.18077 9.17033C3.57887 8.60161 4.42113 8.60162 4.81923 9.17033L6.94929 12.2133C7.18126 12.5447 6.94418 13 6.53967 13Z" fill="#1C1C1C"/>
<path id="Subtract" fill-rule="evenodd" clip-rule="evenodd" d="M12 4C12 4.55229 12.4503 4.9925 12.997 5.07047C16.3908 5.55442 19 8.4725 19 12C19 15.866 15.866 19 12 19C8.134 19 5 15.866 5 12L3 12C3 16.9706 7.02944 21 12 21C16.9706 21 21 16.9706 21 12C21 7.3669 17.4991 3.55147 12.9984 3.05475C12.4494 2.99417 12 3.44772 12 4Z" fill="#1C1C1C"/>
</g>
</svg>
