<svg width="24" height="24" viewBox="0 0 24 24" fill="none" xmlns="http://www.w3.org/2000/svg">
<path d="M21.543 9C20.2687 4.94289 16.4784 2 12.0008 2C8.02539 2 4.59181 4.31971 2.97977 7.67937C2.67512 8.3143 3.17507 9 3.87931 9C4.30421 9 4.68099 8.73902 4.87454 8.36077C6.19922 5.77202 8.89305 4 12.0008 4C15.3581 4 18.2325 6.06817 19.4193 9L21.543 9Z" fill="#1C1C1C"/>
<path d="M4.58229 15C5.76906 17.9318 8.64339 20 12.0008 20C15.1085 20 17.8023 18.228 19.127 15.6392C19.3206 15.261 19.6973 15 20.1222 15C20.8265 15 21.3264 15.6857 21.0218 16.3206C19.4097 19.6803 15.9761 22 12.0008 22C7.52313 22 3.73283 19.0571 2.45857 15L4.58229 15Z" fill="#1C1C1C"/>
<path d="M17.4603 7.99829L22.5397 7.99829C22.9442 7.99829 23.1813 8.45363 22.9493 8.78502L20.8192 11.828C20.4211 12.3967 19.5789 12.3967 19.1808 11.828L17.0507 8.78502C16.8187 8.45363 17.0558 7.99829 17.4603 7.99829Z" fill="#1C1C1C"/>
<path d="M6.03967 15L0.960328 15C0.555816 15 0.31874 14.5447 0.550712 14.2133L2.68077 11.1703C3.07887 10.6016 3.92113 10.6016 4.31923 11.1703L6.44929 14.2133C6.68126 14.5447 6.44418 15 6.03967 15Z" fill="#1C1C1C"/>
</svg>
