<svg width="20" height="20" viewBox="0 0 20 20" fill="none" xmlns="http://www.w3.org/2000/svg">
<g clip-path="url(#clip0_7377_163717)">
<path d="M9.41162 2.90602C9.41162 3.28702 9.56297 3.65242 9.83239 3.92183C10.1018 4.19124 10.4672 4.3426 10.8482 4.3426C11.2292 4.3426 11.5946 4.19124 11.864 3.92183C12.1334 3.65242 12.2848 3.28702 12.2848 2.90602C12.2848 2.52501 12.1334 2.15961 11.864 1.8902C11.5946 1.62079 11.2292 1.46943 10.8482 1.46943C10.4672 1.46943 10.1018 1.62079 9.83239 1.8902C9.56297 2.15961 9.41162 2.52501 9.41162 2.90602Z" fill="white"/>
<path d="M15.3206 1.762V4.51913C15.3206 4.59533 15.2589 4.65704 15.1827 4.65704H3.87142C3.21114 4.75134 3.42887 5.88328 3.87142 5.9195H9.23147C9.3727 5.9195 9.48722 6.03402 9.48722 6.17525V8.44592C9.48722 8.54566 9.44633 8.64117 9.37391 8.70997L2.33148 15.4096C1.86902 16.2004 2.9572 16.9332 3.39266 16.6176L9.8065 10.6863C10.0168 10.5556 10.2999 10.7878 10.1403 11.0781L7.38418 13.7133C7.24537 13.8461 7.19241 14.0453 7.24703 14.2294L8.7254 19.2187C8.97572 19.8173 10.347 19.6431 10.2927 18.7181L9.0323 14.6014C9.01856 14.5566 9.01763 14.5087 9.02963 14.4634C9.04163 14.418 9.06607 14.3769 9.1002 14.3446L12.2842 11.3393C12.6356 11.0252 12.8318 10.6384 12.8174 10.153L12.8376 6.25371C12.8385 6.09211 12.9683 5.96084 13.1298 5.95827L16.1911 5.90863C16.4595 5.87604 16.6309 5.58574 16.6155 5.00528V1.762C16.4361 1.20146 15.3206 1.34842 15.3206 1.762Z" fill="white"/>
</g>
<defs>
<clipPath id="clip0_7377_163717">
<rect width="18.1731" height="18.1731" fill="white" transform="translate(1.20312 1.39453)"/>
</clipPath>
</defs>
</svg>
