<svg width="20" height="20" viewBox="0 0 20 20" fill="none" xmlns="http://www.w3.org/2000/svg">
<g clip-path="url(#clip0_7377_164039)">
<path d="M7.21997 3.15816C7.21997 3.49173 7.35283 3.81165 7.58931 4.04752C7.8258 4.28339 8.14654 4.4159 8.48098 4.4159C8.81542 4.4159 9.13617 4.28339 9.37265 4.04752C9.60914 3.81165 9.74199 3.49173 9.74199 3.15816C9.74199 2.82459 9.60914 2.50468 9.37265 2.2688C9.13617 2.03293 8.81542 1.90042 8.48098 1.90042C8.14654 1.90042 7.8258 2.03293 7.58931 2.2688C7.35283 2.50468 7.21997 2.82459 7.21997 3.15816Z" fill="white"/>
<path d="M4.10266 4.78342H15.6348C15.524 3.36616 15.035 2.12376 14.1677 1.05621H14.8782C15.6471 1.9305 16.1176 3.27566 16.336 4.78342H16.7328C17.1249 4.79876 17.1787 5.78961 16.7328 5.79268H16.3252C16.3437 7.86028 15.4472 9.55209 13.9509 10.9954C13.671 11.178 13.3496 10.7592 13.5233 10.5383C14.9997 9.10268 15.6763 7.51517 15.684 5.80188L10.8691 5.82182C10.7476 5.82182 10.6507 5.91999 10.6507 6.04116L10.6384 10.6595L12.6529 17.9774C12.8744 18.9023 11.6057 19.2474 11.2997 18.4345L9.4066 11.5369C9.27435 11.1488 8.76994 11.1733 8.62693 11.5369L6.65544 18.6324C6.2879 19.2352 5.22681 18.8916 5.33292 18.1446L7.38898 10.7577L7.45357 6.05956C7.45511 5.92305 7.34439 5.81108 7.20752 5.81108H4.10266C3.71975 5.81262 3.63824 4.82636 4.10266 4.78342Z" fill="white"/>
</g>
<defs>
<clipPath id="clip0_7377_164039">
<rect width="13.5577" height="17.8846" fill="white" transform="translate(3.70117 1.05469)"/>
</clipPath>
</defs>
</svg>
