<svg width="20" height="20" viewBox="0 0 20 20" fill="none" xmlns="http://www.w3.org/2000/svg">
<g clip-path="url(#clip0_7377_163837)">
<path d="M9.93506 2.5865C9.93506 2.94607 10.0779 3.29091 10.3321 3.54516C10.5864 3.79941 10.9312 3.94225 11.2908 3.94225C11.6504 3.94225 11.9952 3.79941 12.2495 3.54516C12.5037 3.29091 12.6466 2.94607 12.6466 2.5865C12.6466 2.22693 12.5037 1.88209 12.2495 1.62784C11.9952 1.37358 11.6504 1.23075 11.2908 1.23075C10.9312 1.23075 10.5864 1.37358 10.3321 1.62784C10.0779 1.88209 9.93506 2.22693 9.93506 2.5865Z" fill="white"/>
<path d="M6.8439 8.78484L7.5785 6.27383C7.59557 6.21545 7.62788 6.16268 7.67211 6.12093C7.71634 6.07918 7.77088 6.04997 7.83014 6.03628L8.65966 5.84481C8.71835 5.8312 8.77032 5.88497 8.75474 5.94317L7.69948 9.91469C7.70096 10.3183 7.77244 10.6693 8.03851 10.875L7.32833 13.7036L3.48698 13.7318C2.77681 13.8851 2.8514 15.1118 3.48698 15.2087H7.91752C8.28277 15.1505 8.54687 14.8803 8.69228 14.3613L9.29754 12.1824L11.2585 14.0385L12.4207 18.1946C12.8941 18.6735 13.8733 18.4368 13.825 17.6943L12.6951 13.3687L10.301 11.0058C10.2682 10.9735 10.2445 10.933 10.2324 10.8886C10.2203 10.8441 10.2201 10.7973 10.232 10.7527L10.8387 8.46205L13.8246 8.42975C14.2846 8.47008 14.5105 7.55007 13.8246 7.38056L11.1454 7.39663C11.3553 6.54121 11.6961 5.72431 11.5328 5.20152C11.3102 4.76578 10.981 4.43676 10.4536 4.30577C10.3292 4.27479 10.1987 4.27692 10.0748 4.30987L6.9821 5.13365C6.92294 5.14943 6.86896 5.18047 6.82555 5.22365C6.78214 5.26683 6.75082 5.32064 6.73472 5.37972L5.88373 8.51041C5.70602 9.03501 6.618 9.36599 6.8439 8.78484Z" fill="white"/>
<path d="M0.234863 11.3921H7.23166L6.99773 12.0377H0.234863V11.3921ZM0.234863 14.7009H2.35735L2.55915 15.2578H0.234863V14.7009ZM9.32726 14.7035H10.6776L10.9091 15.2523H9.09054L9.32726 14.7035ZM11.7832 11.3921L12.3563 12.0377H18.998V11.3921H11.7832ZM13.7335 14.7035L13.9273 15.2523H19.0115V14.7035H13.7335ZM14.4303 17.953H18.7143V18.5422H14.2124L14.4303 17.953ZM1.42367 17.945H11.5573L11.8237 18.4776H1.42367V17.945Z" fill="white"/>
</g>
<defs>
<clipPath id="clip0_7377_163837">
<rect width="19.6154" height="19.6154" fill="white" transform="translate(0.191406 0.195312)"/>
</clipPath>
</defs>
</svg>
