<svg width="20" height="20" viewBox="0 0 20 20" fill="none" xmlns="http://www.w3.org/2000/svg">
<path d="M7.09327 5.19825C6.37728 5.19825 5.79687 4.61785 5.79687 3.90186C5.79687 3.18588 6.37728 2.60547 7.09327 2.60547C7.80925 2.60547 8.38966 3.18588 8.38966 3.90186C8.38966 4.61785 7.80925 5.19825 7.09327 5.19825Z" fill="white"/>
<path d="M13.9288 5.55182V7.08392H8.0361V10.3838H15.8145V12.0338H7.99121L9.45034 14.3909L5.91473 18.0443L4.9719 16.8658L7.21112 14.3909L5.2076 12.0338V7.90889L4.50048 8.61602V11.5624H3.20409V7.90889L5.2076 5.43396L13.9288 5.55182Z" fill="white"/>
<circle cx="1.17854" cy="1.17854" r="1.17854" transform="matrix(-1 0 0 1 17.1104 7.32031)" fill="white"/>
</svg>
