<svg width="20" height="20" viewBox="0 0 20 20" fill="none" xmlns="http://www.w3.org/2000/svg">
<path d="M13.3411 2.16682L13.013 1.02344L12.2151 1.61092L12.2182 1.62198C12.1809 1.60461 12.1389 1.59513 12.0953 1.59513C11.9289 1.59513 11.7952 1.73095 11.7952 1.89993C11.7952 2.06891 11.9289 2.20472 12.0953 2.20472C12.2011 2.20472 12.2944 2.14945 12.3473 2.06575L12.3566 2.10049L13.3411 2.16682Z" fill="white"/>
<path d="M6.44518 5.15798C6.44518 5.48343 6.5725 5.79554 6.79913 6.02567C7.02576 6.25579 7.33313 6.38507 7.65363 6.38507C7.97414 6.38507 8.28151 6.25579 8.50814 6.02567C8.73477 5.79554 8.86209 5.48343 8.86209 5.15798C8.86209 4.83254 8.73477 4.52043 8.50814 4.2903C8.28151 4.06018 7.97414 3.9309 7.65363 3.9309C7.33313 3.9309 7.02576 4.06018 6.79913 4.2903C6.5725 4.52043 6.44518 4.83254 6.44518 5.15798Z" fill="white"/>
<path d="M4.40457 2.89493C3.69225 2.89493 3.11523 3.54558 3.11523 4.34785C3.11523 5.15011 3.69225 5.80077 4.40457 5.80077C5.11689 5.80077 5.6939 5.15011 5.6939 4.34785C5.69234 3.544 5.11533 2.89493 4.40457 2.89493ZM4.40457 5.49439C3.90065 5.49439 3.49161 5.00482 3.49161 4.39996C3.49161 3.7951 3.90065 3.30553 4.40457 3.30553C4.90848 3.30553 5.31752 3.7951 5.31752 4.39996C5.31752 5.00482 4.90848 5.49439 4.40457 5.49439Z" fill="white"/>
<path d="M4.21473 5.79925V8.37502C3.70926 8.6435 3.93789 9.12675 4.21473 9.27046L6.92249 10.0127C7.06402 10.0522 7.21488 9.9985 7.30353 9.88006L8.3238 8.49821C8.37823 8.42398 8.49021 8.4303 8.53687 8.51242L10.2166 11.5035V14.7363L8.42489 18.0417C8.1045 18.5486 8.99257 19.3762 9.49493 18.7523L11.6023 15.1848C11.6381 15.1232 11.6583 15.0537 11.6583 14.9811V12.0958C11.6583 11.8889 12.0223 11.8004 12.1311 12.0215L13.7409 14.8026L14.7456 18.6039C14.9789 19.2182 16.304 18.7555 16.0925 18.0748L15.0457 14.2136L10.778 6.75154C10.6785 6.57782 10.736 6.35515 10.9071 6.25408L14.6834 4.01942C14.9462 3.71462 14.4734 3.06713 14.0939 3.20926L8.14028 6.71522L6.94271 8.82195C6.90071 8.8946 6.81673 8.93092 6.73741 8.91197L4.61133 8.40187V5.79925H4.21473Z" fill="white"/>
</svg>
