<svg width="20" height="20" viewBox="0 0 20 20" fill="none" xmlns="http://www.w3.org/2000/svg">
<g clip-path="url(#clip0_7377_163977)">
<path d="M9.78815 2.11033C9.01181 2.13551 8.40486 2.78714 8.42995 3.56626C8.45504 4.34538 9.10435 4.95452 9.88069 4.92933C10.6555 4.90415 11.264 4.25252 11.2389 3.47497C11.2138 2.69585 10.5661 2.08514 9.78815 2.11033Z" fill="white"/>
<path d="M4.35412 11.1366C4.00846 11.1366 3.72803 10.8551 3.72803 10.5082C3.72803 10.3413 3.79324 10.1826 3.91064 10.0648L8.14821 6.63263L10.1918 5.5036L12.4921 4.82008C12.869 4.70807 13.2119 4.50347 13.4894 4.22493L14.8147 2.89497C15.0182 2.69073 15.344 2.67595 15.5652 2.86092C15.8106 3.06612 15.8326 3.43554 15.6134 3.66848L14.0351 5.34564C13.7679 5.62957 13.4372 5.8461 13.0701 5.97749L11.2397 6.63263L8.89006 7.66349L4.79596 10.9517C4.6802 11.0711 4.52042 11.1366 4.35412 11.1366Z" fill="white"/>
<path d="M11.4464 5.68112L10.1943 5.50276L8.19836 6.57341L7.58694 7.18701C7.55597 7.22792 7.51847 7.26392 7.47607 7.29501C7.79238 7.38337 8.09238 7.52736 8.35977 7.7188C8.35977 7.7188 8.3357 8.16503 8.31574 9.15774C8.28195 10.8384 9.5672 12.245 11.2405 12.405C11.2405 9.04035 11.4464 5.68112 11.4464 5.68112Z" fill="white"/>
<path d="M9.27265 11.841L11.0995 10.9948L10.1408 18.2411C10.0915 18.6138 9.77379 18.8923 9.39788 18.8923C8.95461 18.8923 8.60819 18.5096 8.65214 18.0685L9.27265 11.841Z" fill="white"/>
<path d="M2.33862 10.7604C2.33862 10.5021 2.54808 10.2926 2.80646 10.2926H7.23336V11.2283H2.80646C2.54808 11.2283 2.33862 11.0188 2.33862 10.7604Z" fill="white"/>
<path d="M12.1279 10.2926H17.4872C17.7455 10.2926 17.955 10.5021 17.955 10.7604C17.955 11.0188 17.7455 11.2283 17.4872 11.2283H12.1279V10.2926Z" fill="white"/>
<path d="M9.27246 11.5938L10.2433 10.3763L16.1557 14.2076C16.472 14.4126 16.563 14.8356 16.3591 15.1526C16.1589 15.4638 15.7476 15.5579 15.432 15.3647L9.27246 11.5938Z" fill="white"/>
</g>
<defs>
<clipPath id="clip0_7377_163977">
<rect width="16.3158" height="16.8421" fill="white" transform="translate(2.10547 2.10547)"/>
</clipPath>
</defs>
</svg>
