<svg width="20" height="20" viewBox="0 0 20 20" fill="none" xmlns="http://www.w3.org/2000/svg">
<g clip-path="url(#clip0_7377_163793)">
<path d="M17.7847 17.0091C17.7847 16.794 17.6103 16.6197 17.3953 16.6197H2.60639C2.39134 16.6197 2.217 16.794 2.217 17.0091C2.217 17.2241 2.39134 17.3985 2.60639 17.3985H17.3953C17.6103 17.3985 17.7847 17.2241 17.7847 17.0091ZM17.7847 15.0622C17.7847 14.8471 17.6103 14.6728 17.3953 14.6728H2.60639C2.39134 14.6728 2.217 14.8471 2.217 15.0622C2.217 15.2772 2.39134 15.4515 2.60639 15.4515H17.3953C17.6103 15.4515 17.7847 15.2772 17.7847 15.0622Z" fill="white"/>
<path d="M7.8608 12.3398C7.10789 12.3398 6.49796 12.9498 6.49796 13.7027C6.49796 14.4556 7.10789 15.0655 7.8608 15.0655C8.6137 15.0655 9.22363 14.4556 9.22363 13.7027C9.22363 12.9498 8.61218 12.3398 7.8608 12.3398Z" fill="white"/>
<path d="M2.73626 2.56535C2.97506 2.20791 3.45722 2.11056 3.81618 2.34936L9.80597 6.11085L15.7958 2.34936C16.1502 2.10448 16.6354 2.1927 16.8787 2.5471C17.1221 2.9015 17.0354 3.38518 16.681 3.63006C16.6734 3.63463 16.6658 3.64071 16.6582 3.64528L11.5567 7.44327V17.2037C11.5567 17.5261 11.295 17.7877 10.9726 17.7877C10.6501 17.7877 10.3885 17.5261 10.3885 17.2037L10.0007 12.3379L4.09605 9.16202C3.80706 9.01753 3.68994 8.66769 3.83443 8.3787C3.97893 8.0897 4.32877 7.97258 4.61776 8.11708L8.05375 9.59551V7.38243L2.95224 3.64528C2.5948 3.408 2.49746 2.92431 2.73626 2.56535Z" fill="white"/>
<path d="M10.1878 14.6738L10.0007 12.339L6.10839 10.2461V8.75851L8.05378 9.59811V7.3835L9.80448 6.11193L11.5552 7.44434V14.6753H10.1878V14.6738Z" fill="white"/>
</g>
<defs>
<clipPath id="clip0_7377_163793">
<rect width="15.5769" height="15.5769" fill="white" transform="matrix(-1 0 0 1 17.7891 2.21094)"/>
</clipPath>
</defs>
</svg>
