<svg width="20" height="20" viewBox="0 0 20 20" fill="none" xmlns="http://www.w3.org/2000/svg">
<path d="M8.47216 5.7873C8.47216 5.98728 8.51167 6.18531 8.58845 6.37006C8.66523 6.55482 8.77776 6.7227 8.91962 6.86411C9.06148 7.00551 9.2299 7.11768 9.41525 7.19421C9.6006 7.27074 9.79926 7.31013 9.99988 7.31013C10.2005 7.31013 10.3992 7.27074 10.5845 7.19421C10.7699 7.11768 10.9383 7.00551 11.0801 6.86411C11.222 6.7227 11.3345 6.55482 11.4113 6.37006C11.4881 6.18531 11.5276 5.98728 11.5276 5.7873C11.5276 5.58732 11.4881 5.3893 11.4113 5.20454C11.3345 5.01978 11.222 4.85191 11.0801 4.7105C10.9383 4.56909 10.7699 4.45692 10.5845 4.38039C10.3992 4.30386 10.2005 4.26447 9.99988 4.26447C9.79926 4.26447 9.6006 4.30386 9.41525 4.38039C9.2299 4.45692 9.06148 4.56909 8.91962 4.7105C8.77776 4.85191 8.66523 5.01978 8.58845 5.20454C8.51167 5.3893 8.47216 5.58732 8.47216 5.7873Z" fill="white"/>
<path d="M9.22581 13.8527L10.7732 13.8529C11.0955 13.8529 11.3569 13.5926 11.3569 13.2713L11.3577 8.34342C11.3577 8.02216 11.0965 7.7616 10.7742 7.7616L9.22682 7.7614C8.90452 7.7614 8.64312 8.02176 8.64312 8.34302L8.64231 13.2709C8.64211 13.5922 8.90351 13.8527 9.22581 13.8527Z" fill="white"/>
<path d="M9.12351 9.08168C9.0875 9.08168 9.05128 9.07866 9.01466 9.07261L5.96427 8.56742C5.64642 8.51478 5.41355 8.24071 5.41355 7.91964V4.21492C5.41355 3.85231 5.70853 3.55827 6.07231 3.55827C6.43608 3.55827 6.73107 3.85251 6.73107 4.21492V7.36303L9.23074 7.77726C9.58946 7.83676 9.83224 8.17496 9.77256 8.53273C9.71914 8.85399 9.43994 9.08168 9.12351 9.08168ZM10.8766 9.08168C10.5602 9.08168 10.281 8.85379 10.2276 8.53273C10.1677 8.17496 10.4105 7.83676 10.7694 7.77726L13.2691 7.36303V4.21492C13.2691 3.85231 13.5641 3.55827 13.9278 3.55827C14.2916 3.55827 14.5866 3.85251 14.5866 4.21492V7.91964C14.5866 8.24071 14.3537 8.51478 14.0359 8.56742L10.9855 9.07281C10.9489 9.07886 10.9126 9.08168 10.8766 9.08168ZM9.28962 18.5C8.92564 18.5 8.63086 18.2058 8.63086 17.8434V12.5886C8.63086 12.226 8.92584 11.9319 9.28962 11.9319C9.65339 11.9319 9.94837 12.2262 9.94837 12.5886V17.8432C9.94837 18.2058 9.65339 18.5 9.28962 18.5ZM10.7105 18.5C10.3465 18.5 10.0518 18.2058 10.0518 17.8434V12.5886C10.0518 12.226 10.3467 11.9319 10.7105 11.9319C11.0745 11.9319 11.3693 12.2262 11.3693 12.5886V17.8432C11.3695 18.2058 11.0745 18.5 10.7105 18.5Z" fill="white"/>
<path d="M16.9197 3.81329H3.08029C2.75967 3.81329 2.5 3.51905 2.5 3.15665C2.5 2.79404 2.75985 2.5 3.08029 2.5H16.9197C17.2403 2.5 17.5 2.79424 17.5 3.15665C17.5002 3.51925 17.2403 3.81329 16.9197 3.81329Z" fill="white"/>
</svg>
