<svg width="20" height="20" viewBox="0 0 20 20" fill="none" xmlns="http://www.w3.org/2000/svg">
<g clip-path="url(#clip0_7377_164172)">
<path d="M14.5984 5.31989C14.5984 5.47476 14.6599 5.62329 14.7694 5.73281C14.8789 5.84232 15.0275 5.90384 15.1823 5.90384C15.3372 5.90384 15.4858 5.84232 15.5953 5.73281C15.7048 5.62329 15.7663 5.47476 15.7663 5.31989C15.7663 5.16501 15.7048 5.01648 15.5953 4.90697C15.4858 4.79746 15.3372 4.73593 15.1823 4.73593C15.0275 4.73593 14.8789 4.79746 14.7694 4.90697C14.6599 5.01648 14.5984 5.16501 14.5984 5.31989Z" fill="white"/>
<path d="M7.74585 4.59235C7.74585 4.90065 7.86832 5.19632 8.08632 5.41432C8.30432 5.63233 8.6 5.7548 8.9083 5.7548C9.2166 5.7548 9.51227 5.63233 9.73027 5.41432C9.94827 5.19632 10.0707 4.90065 10.0707 4.59235C10.0707 4.28405 9.94827 3.98838 9.73027 3.77037C9.51227 3.55237 9.2166 3.4299 8.9083 3.4299C8.6 3.4299 8.30432 3.55237 8.08632 3.77037C7.86832 3.98838 7.74585 4.28405 7.74585 4.59235Z" fill="white"/>
<path d="M3.86008 4.24581L5.83466 6.22053H9.41768C9.89014 6.20457 10.1927 6.56553 10.3095 6.9849L11.4402 11.1093V14.9629L13.9881 17.5108C14.349 18.1159 13.3245 18.7794 13.0326 18.4822L10.1694 15.5575C10.1061 15.4929 10.0707 15.406 10.0707 15.3155V12.5265C10.0442 12.3035 9.79461 12.3142 9.69908 12.4575L6.19044 18.4822C5.80301 18.9174 4.8847 18.1584 5.06511 17.7391L8.61451 11.6469C8.64023 11.6027 8.65686 11.5539 8.6634 11.5032C8.66994 11.4525 8.66627 11.401 8.65261 11.3518L7.56118 7.41492C7.52868 7.29796 7.42419 7.21546 7.30289 7.21126L5.394 7.14416L3.19657 4.86157C3.02134 4.57498 3.53624 4.02296 3.86008 4.24581Z" fill="white"/>
<path d="M4.08643 4.47167C4.10239 4.48764 10.2889 1.41154 10.2889 1.41154C10.5968 1.23113 11.1064 1.92644 10.565 2.17591L4.41027 4.79551L4.08643 4.47167Z" fill="white"/>
</g>
<defs>
<clipPath id="clip0_7377_164172">
<rect width="17.2308" height="17.2308" fill="white" transform="translate(1.76953 1.38281)"/>
</clipPath>
</defs>
</svg>
