<svg width="20" height="20" viewBox="0 0 20 20" fill="none" xmlns="http://www.w3.org/2000/svg">
<g clip-path="url(#clip0_7377_164278)">
<path d="M11.3403 1.97085C11.3403 2.28112 11.4636 2.57868 11.683 2.79807C11.9024 3.01746 12.1999 3.14071 12.5102 3.14071C12.8205 3.14071 13.118 3.01746 13.3374 2.79807C13.5568 2.57868 13.68 2.28112 13.68 1.97085C13.68 1.66059 13.5568 1.36303 13.3374 1.14364C13.118 0.924247 12.8205 0.800995 12.5102 0.800995C12.1999 0.800995 11.9024 0.924247 11.683 1.14364C11.4636 1.36303 11.3403 1.66059 11.3403 1.97085Z" fill="white"/>
<path d="M5.44287 4.31125C5.44287 4.45391 5.47097 4.59517 5.52556 4.72697C5.58016 4.85878 5.66018 4.97853 5.76105 5.07941C5.86193 5.18028 5.98168 5.2603 6.11348 5.3149C6.24529 5.36949 6.38655 5.39759 6.52921 5.39759C6.67187 5.39759 6.81313 5.36949 6.94493 5.3149C7.07673 5.2603 7.19649 5.18028 7.29736 5.07941C7.39824 4.97853 7.47826 4.85878 7.53285 4.72697C7.58745 4.59517 7.61555 4.45391 7.61555 4.31125C7.61555 4.02314 7.50109 3.74682 7.29736 3.5431C7.09364 3.33937 6.81732 3.22491 6.52921 3.22491C6.24109 3.22491 5.96478 3.33937 5.76105 3.5431C5.55732 3.74682 5.44287 4.02314 5.44287 4.31125Z" fill="white"/>
<path d="M13.1689 3.55069H16.9197C17.2633 3.63421 17.2393 4.02735 17.0125 4.3492C16.4567 5.12198 16.3164 6.014 16.3255 6.94876H15.6756C15.7246 5.88253 15.906 4.91852 16.4183 4.20986L13.6701 4.21914C14.2094 4.85933 14.4688 5.74769 14.3757 6.94876H13.7537C13.742 5.77356 13.4675 4.88225 12.9087 4.29802C12.8161 4.12156 12.8996 3.55069 13.1689 3.55069ZM8.69618 5.41684L10.5902 3.55069C10.813 3.37662 11.3248 3.77004 11.1751 4.1217L9.27071 6.16305C9.25015 6.18514 9.22473 6.20213 9.19647 6.21268L8.26367 6.56251C8.20644 6.58389 8.19815 6.66136 8.24947 6.69455L9.26944 7.35259C9.3517 7.4056 9.46151 7.37917 9.51058 7.29452L10.5346 5.52806C10.7343 5.28664 11.4584 5.47702 11.3424 6.00627L9.93424 8.35527C9.82133 8.54368 9.58201 8.61272 9.38615 8.51345L8.31893 7.97253C8.26241 7.94385 8.19562 7.98533 8.19618 8.0486L8.22121 10.9551C8.22219 11.0741 8.26944 11.1881 8.35296 11.2729L10.7993 13.7588C11.0221 14.0374 10.7644 14.3577 10.479 14.5666L7.40104 16.3909C6.50972 16.8156 6.19645 15.7432 6.45405 15.4578L8.89781 13.9651C8.96573 13.9236 8.9774 13.8298 8.92186 13.773L7.22008 12.0319C7.02534 11.8256 6.76746 11.9552 6.70475 12.213L5.92634 15.4771C5.91622 15.5197 5.89949 15.5606 5.87699 15.5981L4.65754 17.5377C4.10747 18.0599 3.16976 17.3791 3.51552 16.7021L4.6575 14.9565L5.26868 11.6559L5.56273 6.57264C5.61841 6.2453 6.11982 6.06434 6.63852 5.97027L8.69618 5.41684Z" fill="white"/>
</g>
<defs>
<clipPath id="clip0_7377_164278">
<rect width="17.3684" height="17.6316" fill="white" transform="translate(2.36719 0.523438)"/>
</clipPath>
</defs>
</svg>
