<svg width="20" height="20" viewBox="0 0 20 20" fill="none" xmlns="http://www.w3.org/2000/svg">
<circle cx="3.1985" cy="3.62037" r="1.22193" fill="white"/>
<path d="M5.77624 6.46898L4.52494 5.69895C4.18906 5.49225 3.80241 5.38281 3.40803 5.38281C2.46643 5.38281 1.70312 6.14612 1.70312 7.08771V9.78977C1.70312 11.2565 2.12138 12.6928 2.90884 13.9303L3.60391 15.0225L2.74935 17.4794C2.61976 17.852 2.80606 18.2606 3.17231 18.4071C3.55768 18.5612 3.99432 18.3674 4.13848 17.9782L4.79538 16.2045C5.07606 15.4467 5.04945 14.6092 4.72124 13.8707L4.14699 12.5786L6.18355 14.751L6.07614 17.0066C6.05984 17.349 6.29632 17.6519 6.63245 17.7191C7.04234 17.8011 7.43097 17.5042 7.45972 17.0872L7.61273 14.8687C7.65369 14.2748 7.44281 13.691 7.03173 13.2603L4.82585 10.9494V9.86324L5.54726 10.5045C5.8747 10.7956 6.27548 10.9916 6.70626 11.0713L9.12446 11.5192C9.44407 11.5783 9.74758 11.3563 9.7879 11.0337C9.82306 10.7524 9.64426 10.4886 9.36993 10.417L6.72663 9.72747L4.96162 7.82668L8.43428 7.71093C8.76909 7.69977 9.03473 7.42512 9.03473 7.09012C9.03473 6.74707 8.75663 6.46898 8.41358 6.46898H5.77624Z" fill="white"/>
<path d="M8.90234 7.14844C9.53594 7.28421 10.8765 7.90936 11.7535 9.18499M18.8136 11.2216C18.542 11.5836 17.7274 12.2806 16.6413 12.1719C15.5176 12.0596 14.0648 11.6662 12.7039 10.2712" stroke="white" stroke-width="2" stroke-linecap="round"/>
<path d="M9.30859 11.0841C9.71591 11.0389 11.2637 10.6768 13.1102 9.04759C15.4183 7.01103 16.9117 7.1468 18.2694 7.68988" stroke="white" stroke-width="2" stroke-linecap="round"/>
</svg>
