<svg width="20" height="20" viewBox="0 0 20 20" fill="none" xmlns="http://www.w3.org/2000/svg">
<path d="M17.0441 5.79788C16.8441 5.55786 16.4441 5.47786 16.2041 5.71787L14.3641 7.43798L12.3241 6.07789L9.80406 4.83782C9.72406 4.79782 9.64406 4.75781 9.56406 4.75781H3.72406C3.40406 4.79781 3.16406 5.07783 3.16406 5.39785C3.16406 5.71787 3.44406 5.95789 3.76406 5.95789H3.80406L8.28406 6.35791L7.16406 9.15808L5.84406 12.2783C5.68406 12.5583 5.80406 12.9183 6.12406 13.0783C6.20406 13.1183 6.28406 13.1583 6.40406 13.1583C6.64406 13.1583 6.84406 13.0383 6.92406 12.8383L8.96406 9.99814L6.64406 16.3185C6.52406 16.6385 6.64406 16.9586 6.96406 17.1186C7.00406 17.1586 7.08406 17.1586 7.16406 17.1586C7.40406 17.1586 7.60406 17.0386 7.72406 16.7986L10.5641 10.7582L12.0841 7.798L14.1241 8.67805C14.2041 8.71806 14.3241 8.75806 14.4441 8.75806C14.5641 8.75806 14.7241 8.71806 14.8041 8.63805L16.9641 6.63793C17.2041 6.39791 17.2441 6.03789 17.0441 5.79788Z" fill="#F2F2F2"/>
<path d="M14.1241 7.27797L12.3241 6.1179L9.80406 4.87782C9.72406 4.79782 9.64406 4.75781 9.56406 4.75781H7.16406V6.2379L8.28406 6.31791L7.16406 9.15808L10.5641 10.7582L12.0841 7.798L13.5241 8.43804L14.1241 7.27797Z" fill="#F2F2F2"/>
<path d="M7.16789 9.16406L6.08789 11.6442L7.32789 12.2443L8.92789 10.0041L7.16789 9.16406Z" fill="#F2F2F2"/>
<path d="M10.5639 10.76L8.92391 10L8.00391 12.5602L9.44391 13.1602L10.5639 10.76Z" fill="#F2F2F2"/>
<path d="M17.9668 16.7572C17.5268 16.7572 17.1668 16.6372 16.9268 16.5172C16.5668 16.3172 16.1268 16.3172 15.8068 16.5172C15.5668 16.6372 15.2068 16.7572 14.7668 16.7572C14.3268 16.7572 13.9668 16.6372 13.7268 16.5172C13.3668 16.3172 12.9268 16.3172 12.6068 16.5172C12.3668 16.6372 12.0068 16.7572 11.5668 16.7572C11.1268 16.7572 10.7668 16.6372 10.5268 16.5172C10.1668 16.3172 9.7268 16.3172 9.4068 16.5172C9.1668 16.6372 8.8068 16.7572 8.3668 16.7572C7.9268 16.7572 7.5668 16.6372 7.3268 16.5172C6.9668 16.3172 6.5268 16.3172 6.2068 16.5172C5.9668 16.6372 5.6068 16.7572 5.1668 16.7572C4.7268 16.7572 4.3668 16.6372 4.1268 16.5172C3.7668 16.3172 3.3268 16.3172 3.0068 16.5172C2.7668 16.6372 2.4068 16.7572 1.9668 16.7572V18.3573H17.9668V16.7572Z" fill="#F2F2F2"/>
<path d="M10.6855 15.2265C10.6855 15.4492 10.7292 15.6696 10.8142 15.8753C10.8992 16.081 11.0238 16.2679 11.1808 16.4253C11.3379 16.5827 11.5243 16.7076 11.7295 16.7928C11.9347 16.878 12.1547 16.9218 12.3768 16.9218C12.5989 16.9218 12.8188 16.878 13.024 16.7928C13.2292 16.7076 13.4157 16.5827 13.5727 16.4253C13.7298 16.2679 13.8543 16.081 13.9393 15.8753C14.0243 15.6696 14.068 15.4492 14.068 15.2265C14.068 15.0039 14.0243 14.7835 13.9393 14.5778C13.8543 14.3721 13.7298 14.1852 13.5727 14.0278C13.4157 13.8704 13.2292 13.7455 13.024 13.6603C12.8188 13.5751 12.5989 13.5313 12.3768 13.5312C12.1547 13.5313 11.9347 13.5751 11.7295 13.6603C11.5243 13.7455 11.3379 13.8704 11.1808 14.0278C11.0238 14.1852 10.8992 14.3721 10.8142 14.5778C10.7292 14.7835 10.6855 15.0039 10.6855 15.2265Z" fill="white"/>
<path d="M10.6602 3.51286C10.6602 3.95242 10.8344 4.37399 11.1445 4.68481C11.4546 4.99563 11.8752 5.17024 12.3138 5.17024C12.7523 5.17024 13.1729 4.99563 13.483 4.68481C13.7931 4.37399 13.9674 3.95242 13.9674 3.51286C13.9674 3.07329 13.7931 2.65173 13.483 2.34091C13.1729 2.03009 12.7523 1.85547 12.3138 1.85547C11.8752 1.85547 11.4546 2.03009 11.1445 2.34091C10.8344 2.65173 10.6602 3.07329 10.6602 3.51286Z" fill="white"/>
</svg>
