<svg width="20" height="20" viewBox="0 0 20 20" fill="none" xmlns="http://www.w3.org/2000/svg">
<path d="M16.6429 9.89645C16.6934 10.0901 16.6934 10.2838 16.5503 10.469C16.4071 10.6122 16.2135 10.7132 16.0703 10.7132C15.9272 10.7132 15.8261 10.6627 15.683 10.5701L11.6495 7.63972L9.10645 10.0817V10.1322C9.10645 10.1827 9.10645 10.1827 9.15697 10.1827L11.4642 11.6227C11.8516 11.8669 11.9442 12.389 11.7084 12.7763L9.92325 15.6562H10.1674C10.3611 15.6562 10.5969 15.7067 10.7401 15.7993C10.9843 15.9425 11.3632 16.0435 11.7926 16.0435C12.2221 16.0435 12.6094 15.9004 12.8452 15.7993C13.182 15.6056 13.6115 15.6056 13.9988 15.7993C14.243 15.9425 14.622 16.0435 15.0514 16.0435C15.4809 16.0435 15.8682 15.9004 16.104 15.7993C16.4408 15.6056 16.8703 15.6056 17.2576 15.7993C17.5018 15.9425 17.8807 16.0435 18.3102 16.0435V17.7276H1.89839V16.094C2.32784 16.094 2.71519 15.9509 2.95097 15.8498C3.2878 15.6562 3.71725 15.6562 4.1046 15.8498C4.34879 15.993 4.72772 16.094 5.15718 16.094C5.58663 16.094 5.97398 15.9509 6.20975 15.8498C6.54658 15.6562 6.97603 15.6562 7.36338 15.8498C7.55705 15.9425 7.84336 16.0435 8.18018 16.094C8.03703 15.8498 8.03703 15.5214 8.2307 15.2267L9.81378 12.6331L7.46443 11.6227H7.42232C7.3718 11.6227 7.3718 11.6227 7.3718 11.6732L6.41185 14.6457C6.31922 14.8899 6.16765 15.0751 5.93187 15.1762C5.78872 15.2267 5.7382 15.2688 5.59505 15.2688C5.4519 15.2688 5.30875 15.2183 5.1656 15.1257L2.28574 13.4921C1.85629 13.2984 1.75524 12.7679 1.99944 12.389C2.19311 11.9595 2.72361 11.8585 3.10254 12.1026L5.12349 13.2058L5.60347 9.88802C5.65399 9.5512 5.79714 9.2649 6.03292 9.07122L9.35065 5.71139C9.88115 5.13879 10.7906 5.13879 11.3716 5.71139L14.243 7.87549V7.82497C14.243 6.67134 15.1525 5.76192 16.3061 5.76192C17.4092 5.76192 18.3691 6.67134 18.3691 7.82497C18.2765 8.83545 17.5102 9.70277 16.6429 9.89645ZM14.5293 4.07779C14.5293 4.98722 13.7631 5.80402 12.8031 5.80402C11.8432 5.80402 11.0769 5.03774 11.0769 4.07779C11.0769 3.16836 11.8432 2.35156 12.8031 2.35156C13.7631 2.35156 14.5293 3.11784 14.5293 4.07779Z" fill="#F2F2F2"/>
</svg>
