<svg width="20" height="20" viewBox="0 0 20 20" fill="none" xmlns="http://www.w3.org/2000/svg">
<g clip-path="url(#clip0_7377_163951)">
<path d="M9.4689 2.26889C8.80209 2.35684 8.33456 2.96819 8.42251 3.63501C8.51046 4.30182 9.12181 4.76935 9.78863 4.6814C10.4541 4.59358 10.923 3.9821 10.8352 3.31663C10.7472 2.64982 10.1371 2.18081 9.4689 2.26889Z" fill="white"/>
<path d="M15.8971 4.84968C15.7324 4.75081 15.5227 4.76894 15.3773 4.89464L13.9773 6.10525L10.7491 5.35197C10.1303 5.2076 9.48553 5.2145 8.87 5.37187C8.59119 5.44315 8.32575 5.55971 8.08464 5.71681L6.65354 6.64923C6.56231 6.70867 6.44643 6.71535 6.34898 6.6668L4.52081 5.75593C4.23107 5.61158 3.88117 5.76313 3.78827 6.07321C3.71769 6.30879 3.82117 6.56166 4.03665 6.68017L6.19153 7.86536C6.47707 8.0224 6.82605 8.00865 7.09835 7.82961L8.7476 6.74518L9.80733 6.74518L13.7529 7.29961C14.0841 7.34615 14.4171 7.22804 14.645 6.98323L15.9939 5.53419C16.1866 5.32716 16.1397 4.9952 15.8971 4.84968Z" fill="white"/>
<path d="M11.4731 6.63409C11.3997 5.57496 10.2823 4.91442 9.32262 5.36841L8.40251 6.15769C8.42244 6.35858 8.54838 6.6464 8.57444 6.90895C8.57444 6.90895 8.66906 7.92914 8.82972 9.59268C8.9764 11.1114 10.4093 12.166 11.9036 11.8573C11.7204 10.0101 11.5727 8.06979 11.4731 6.63409Z" fill="white"/>
<path d="M9.27258 11.592C8.79443 10.7552 8.79859 9.45089 8.8982 9.05243C9.79472 8.95282 11.3285 9.07267 11.5139 9.35069C11.7575 9.71607 13.987 11.4716 14.3171 15.1029C14.4811 16.9075 13.5713 18.97 11.7593 18.9895C11.7336 18.9898 11.7079 18.9898 11.6822 18.9895C9.66569 18.9702 8.94013 16.696 9.22222 14.6992C9.41501 13.3346 9.5313 12.0448 9.27258 11.592Z" fill="white"/>
</g>
<defs>
<clipPath id="clip0_7377_163951">
<rect width="14.1708" height="17.435" fill="white" transform="translate(2.10645 2.61719) rotate(-5.66251)"/>
</clipPath>
</defs>
</svg>
