<svg width="20" height="20" viewBox="0 0 20 20" fill="none" xmlns="http://www.w3.org/2000/svg">
<g clip-path="url(#clip0_7377_164134)">
<path d="M9.77351 4.2249C9.89815 4.34954 10.0461 4.4484 10.209 4.51585C10.3718 4.5833 10.5463 4.61801 10.7226 4.61801C10.8989 4.61801 11.0734 4.58329 11.2362 4.51583C11.3991 4.44838 11.547 4.34951 11.6717 4.22487C11.7963 4.10023 11.8952 3.95227 11.9626 3.78942C12.0301 3.62657 12.0648 3.45204 12.0648 3.27578C12.0648 3.09952 12.0301 2.92498 11.9626 2.76214C11.8952 2.5993 11.7963 2.45133 11.6716 2.3267C11.547 2.20207 11.399 2.1032 11.2362 2.03575C11.0734 1.9683 10.8988 1.93359 10.7226 1.93359C10.5463 1.9336 10.3718 1.96832 10.2089 2.03577C10.0461 2.10323 9.89811 2.2021 9.77348 2.32673C9.64884 2.45137 9.54998 2.59934 9.48253 2.76218C9.41508 2.92503 9.38037 3.09956 9.38037 3.27582C9.38037 3.45209 9.41509 3.62662 9.48255 3.78946C9.55 3.95231 9.64887 4.10027 9.77351 4.2249Z" fill="white"/>
<path d="M1.78027 8.14698C1.78027 8.30095 1.84144 8.44862 1.95032 8.5575C2.0592 8.66638 2.20687 8.72755 2.36084 8.72755C2.51482 8.72755 2.66249 8.66638 2.77137 8.5575C2.88025 8.44862 2.94141 8.30095 2.94141 8.14698C2.94141 8.07073 2.9264 7.99524 2.89722 7.9248C2.86804 7.85436 2.82528 7.79036 2.77137 7.73645C2.71746 7.68254 2.65346 7.63978 2.58302 7.6106C2.51258 7.58142 2.43708 7.56641 2.36084 7.56641C2.2846 7.56641 2.20911 7.58142 2.13867 7.6106C2.06823 7.63978 2.00423 7.68254 1.95032 7.73645C1.89641 7.79036 1.85364 7.85436 1.82447 7.9248C1.79529 7.99524 1.78027 8.07073 1.78027 8.14698Z" fill="white"/>
<path d="M0.500488 9.056V10.4499H10.1316C10.2753 10.4499 10.3932 10.3335 10.3932 10.1884V9.31754C10.3932 9.17384 10.2768 9.056 10.1316 9.056H0.500488ZM3.75541 8.08024C3.76978 8.23544 3.91493 8.31879 4.06294 8.28718L19.1965 5.62863C19.4739 5.54816 19.5529 5.46337 19.4682 5.23775C19.4452 5.11417 19.3273 5.03369 19.2037 5.05525L3.93505 7.81295C3.81002 7.83451 3.72811 7.95666 3.75541 8.08024Z" fill="white"/>
<path d="M6.59641 7.17893L15.6815 2.87064C15.9028 2.76573 16.1657 2.81891 16.3281 3.00285L18.4593 5.40129C18.5469 5.49901 18.5297 5.65134 18.4219 5.7275L17.9807 6.04222C17.8615 6.127 17.6962 6.10976 17.5985 5.9991L15.9373 4.14531C15.8395 4.03609 15.6786 4.00735 15.5492 4.07776L14.8537 4.45427C14.7043 4.53475 14.6755 4.73594 14.7948 4.85665L17.7192 7.81554C17.8342 7.93194 17.8988 8.09002 17.8988 8.25384V17.3087C17.8988 17.7269 17.5597 18.0646 17.1429 18.0646C16.7262 18.0646 16.3885 17.7269 16.3871 17.3102L16.3655 10.2212C16.3655 10.0559 16.1485 9.99411 16.0608 10.1349L14.2243 13.0924C14.1797 13.1628 14.1567 13.2462 14.1567 13.3295V17.2613C14.1567 17.7068 13.796 18.0675 13.3506 18.0675C12.9051 18.0675 12.5444 17.7068 12.5444 17.2613V13.17C12.5444 13.0047 12.5889 12.8409 12.6737 12.6986L14.6353 9.41498C14.733 9.24972 14.7086 9.03991 14.5735 8.90339L11.8445 6.15287C11.7138 6.0221 11.5154 5.98617 11.3473 6.06377L7.10944 8.04547C6.98297 8.10439 6.83065 8.06415 6.75017 7.94919L6.49007 7.57555C6.39666 7.43903 6.44695 7.25078 6.59641 7.17893Z" fill="white"/>
</g>
<defs>
<clipPath id="clip0_7377_164134">
<rect width="19.3846" height="19.3846" fill="white" transform="translate(0.308594 0.308594)"/>
</clipPath>
</defs>
</svg>
