<svg width="20" height="20" viewBox="0 0 20 20" fill="none" xmlns="http://www.w3.org/2000/svg">
<g clip-path="url(#clip0_7377_164373)">
<path d="M2.23657 4.93516C2.23606 4.64153 2.32267 4.35434 2.48543 4.10994C2.6482 3.86554 2.8798 3.67492 3.15094 3.5622C3.42208 3.44948 3.72056 3.41972 4.00861 3.47669C4.29667 3.53366 4.56135 3.6748 4.76916 3.88226C4.97698 4.08971 5.11858 4.35414 5.17605 4.6421C5.23353 4.93005 5.20429 5.22859 5.09204 5.49992C4.97979 5.77125 4.78957 6.00319 4.54545 6.16638C4.30134 6.32957 4.0143 6.41667 3.72067 6.41667C3.5259 6.41701 3.33297 6.37894 3.15293 6.30464C2.97288 6.23034 2.80926 6.12127 2.67141 5.98366C2.53357 5.84606 2.42421 5.68262 2.34959 5.50271C2.27498 5.32279 2.23657 5.12993 2.23657 4.93516ZM15.072 14.7224L10.6223 12.7428C10.3642 12.6292 9.44024 12.2266 8.58333 11.8368C2.73471 9.20161 2.91022 8.54344 2.53339 8.79122C1.84684 9.24032 2.10494 10.0508 7.84258 12.5776C8.69948 12.9544 9.66737 13.3855 9.99258 13.5326C10.3178 13.6797 11.5283 14.2191 12.6639 14.725C13.7996 15.2309 15.1934 15.84 15.7483 16.0981L16.7575 16.5524L17.0775 16.2323C17.2762 16.0336 17.3356 15.8633 17.2556 15.7832C17.1756 15.7032 15.072 14.7224 15.072 14.7224ZM4.5595 6.65155C4.53312 6.70249 4.51235 6.75615 4.49756 6.81157C4.40225 7.15559 4.43528 7.52252 4.59048 7.84398C4.73029 8.13099 4.91696 8.39267 5.14282 8.61829C5.6246 9.08516 6.15802 9.49561 6.73273 9.8417C7.24894 10.1618 7.78063 10.4586 8.32265 10.7347C8.56268 10.856 8.8053 10.9722 9.04792 11.0858H9.06082C9.21013 11.1513 9.37696 11.1656 9.53525 11.1264C9.69354 11.0872 9.83438 10.9967 9.93579 10.869C11.0405 11.4394 12.1452 11.9865 13.1105 12.4537C14.0758 12.9209 14.9946 13.3571 15.9496 13.7958L16.1225 13.8759L16.1819 13.9042C16.5561 14.072 16.6542 14.1391 17.1653 13.5352C17.6763 12.9312 17.9396 12.5027 17.5576 12.3376L17.5008 12.3118C16.5045 11.8523 15.5117 11.3834 14.5223 10.9051C12.7749 10.0585 10.5862 8.95899 8.79498 7.94206C8.22893 7.61284 7.68879 7.24095 7.17925 6.82964C6.9547 6.65155 6.73789 6.46829 6.52367 6.27988C6.44626 6.2118 6.3668 6.13239 6.23201 6.09663C5.308 5.85143 4.75308 6.2902 4.5595 6.65155Z" fill="#F2F2F2"/>
</g>
<defs>
<clipPath id="clip0_7377_164373">
<rect width="15.5" height="15.5" fill="white" transform="translate(2.25 2.25)"/>
</clipPath>
</defs>
</svg>
