<svg width="20" height="20" viewBox="0 0 20 20" fill="none" xmlns="http://www.w3.org/2000/svg">
<path fill-rule="evenodd" clip-rule="evenodd" d="M7.81234 3.55704C8.70687 3.55704 9.43228 2.83059 9.43228 1.93477C9.43228 1.03895 8.70687 0.3125 7.81234 0.3125C6.91781 0.3125 6.1924 1.03895 6.1924 1.93477C6.1924 2.83059 6.91781 3.55704 7.81234 3.55704ZM5.18406 12.713L4.93783 14.7344L1.19252 18.2742C0.881492 18.5694 0.849093 19.0626 1.12772 19.3968C1.41931 19.7407 1.93445 19.7861 2.27788 19.4941L6.50593 15.9251C6.65173 15.8018 6.76188 15.6299 6.804 15.4287L6.81696 15.3573L7.12475 13.8908C7.06969 13.8875 7.01463 13.8811 6.95957 13.8746L6.95951 13.8746C6.1949 13.7772 5.55664 13.3295 5.18406 12.713ZM11.0702 3.88518C11.4061 3.76254 11.7781 3.93612 11.9005 4.2729C11.9582 4.43124 12.0324 4.79657 12.0609 5.15185C12.105 5.26314 12.1186 5.38773 12.0927 5.51232L12.0531 5.70018C12.0483 5.73068 12.0421 5.75858 12.035 5.78551L11.5215 8.22346C11.445 8.58717 11.0886 8.81981 10.7251 8.74323C10.635 8.72409 10.5531 8.68775 10.4818 8.63844L10.4468 8.61378L9.50951 7.95805L9.03357 11.6886C9.03116 11.7085 9.02728 11.7279 9.02342 11.7471L9.02342 11.7471L9.02342 11.7471L9.02341 11.7472L9.02339 11.7473C9.02154 11.7565 9.01969 11.7657 9.01801 11.7749L10.9367 13.941L10.9869 13.9974C11.1427 14.1736 11.2153 14.3972 11.2079 14.6152L11.0459 18.8857C11.0287 19.3337 10.6522 19.6829 10.2051 19.666C9.77939 19.6498 9.44276 19.3045 9.42559 18.8857L9.28012 15.0441L7.40812 13.2405C7.28824 13.2499 7.16545 13.2476 7.04136 13.2317C6.10212 13.1117 5.42822 12.2739 5.49043 11.3402L5.87792 5.7151C5.95179 4.64213 6.88034 3.83197 7.95177 3.90627C8.67102 3.95591 9.2704 4.39198 9.56523 4.99741C9.90736 5.01558 10.2495 5.0305 10.5916 5.04348C10.5806 5.07109 10.5719 5.10341 10.5636 5.13442L10.5592 5.15055L10.2709 6.29263L9.75995 5.87571L9.75987 5.90422C9.75989 5.93033 9.7599 5.95645 9.758 5.9831C9.75574 6.01879 9.7512 6.06065 9.74699 6.09569L9.72528 6.26538L10.4598 6.86464L10.8741 5.22907C10.8829 5.19435 10.8962 5.16191 10.9101 5.13043C10.8009 4.96334 10.717 4.81085 10.6827 4.71676C10.5602 4.37997 10.7339 4.0075 11.0702 3.88518ZM14.3854 5.23729C14.2811 5.15942 14.1531 5.11205 14.0125 5.11205C13.4715 5.11529 12.9272 5.10556 12.3829 5.09583C12.4314 5.24507 12.4444 5.41055 12.4088 5.57926L12.2403 6.38391C12.827 6.37125 13.4102 6.36152 13.9937 6.36444C14.0407 6.42771 14.0864 6.48481 14.1266 6.52505C14.3796 6.77845 14.7898 6.77845 15.0431 6.52505C15.2962 6.27132 15.2962 5.86056 15.0431 5.60717C14.921 5.48517 14.6556 5.33397 14.3854 5.23729ZM18.4031 0.908561V2.57658C18.961 2.72129 19.375 3.22452 19.375 3.82865V11.2911C19.375 12.0078 18.7948 12.5889 18.0791 12.5889C17.3634 12.5889 16.7831 12.0078 16.7831 11.2911V3.82865C16.7831 3.22452 17.1972 2.72129 17.7551 2.57658V0.908561C17.7551 0.729138 17.9003 0.584106 18.0791 0.584106C18.2579 0.584106 18.4031 0.729138 18.4031 0.908561Z" fill="#F2F2F2"/>
</svg>
