<svg width="20" height="20" viewBox="0 0 20 20" fill="none" xmlns="http://www.w3.org/2000/svg">
<g clip-path="url(#clip0_7377_164143)">
<path d="M8.81519 3.93091C8.81519 4.27074 8.95018 4.59666 9.19048 4.83696C9.43078 5.07726 9.7567 5.21226 10.0965 5.21226C10.4364 5.21226 10.7623 5.07726 11.0026 4.83696C11.2429 4.59666 11.3779 4.27074 11.3779 3.93091C11.3779 3.59108 11.2429 3.26516 11.0026 3.02486C10.7623 2.78457 10.4364 2.64957 10.0965 2.64957C9.7567 2.64957 9.43078 2.78457 9.19048 3.02486C8.95018 3.26516 8.81519 3.59108 8.81519 3.93091Z" fill="white"/>
<path d="M1.76733 14.8229C1.76733 15.1492 1.89692 15.462 2.1276 15.6927C2.35827 15.9234 2.67113 16.053 2.99735 16.053C3.32357 16.053 3.63643 15.9234 3.8671 15.6927C4.09777 15.462 4.22736 15.1492 4.22736 14.8229C4.22736 14.4967 4.09777 14.1839 3.8671 13.9532C3.63643 13.7225 3.32357 13.5929 2.99735 13.5929C2.67113 13.5929 2.35827 13.7225 2.1276 13.9532C1.89692 14.1839 1.76733 14.4967 1.76733 14.8229Z" fill="white"/>
<path d="M1.06909 16.4706V17.3163H7.54605C7.93683 17.3163 7.98816 16.4706 7.54605 16.4706H1.06909ZM5.39346 3.15144C5.41912 2.62185 6.39289 2.66876 6.45057 3.15144V5.55393H10.9155C10.988 5.55393 11.0602 5.56345 11.1303 5.58235L16.5792 7.05302C17.002 7.20466 16.6988 8.07591 16.1948 7.99477L12.6789 7.02611C12.586 7.00058 12.5085 7.09979 12.5559 7.18369L13.9268 9.60922C14.3205 10.2596 14.1328 10.8875 13.5447 11.4624C13.466 11.5394 13.4482 11.6594 13.5027 11.7552L14.7496 13.9457C14.8025 14.0386 14.8783 14.1163 14.9699 14.1713L18.2513 16.1439C18.6518 16.5763 17.9823 17.5437 17.4441 17.3162L14.0621 15.3733C13.9108 15.2865 13.7864 15.1597 13.7023 15.0068L12.2415 12.351C12.1859 12.25 12.0571 12.2159 11.9589 12.2762L10.6029 13.1083C10.5554 13.1374 10.516 13.178 10.4883 13.2263C10.4606 13.2746 10.4454 13.3291 10.4442 13.3848L10.3712 16.7972C10.352 17.4636 9.07066 17.5574 8.92978 16.7972L8.96483 12.8378C8.96585 12.7207 8.99727 12.6059 9.056 12.5046C9.11472 12.4032 9.19875 12.3189 9.29986 12.2598L11.2648 11.1111C11.3766 11.0458 11.4145 10.9026 11.3499 10.7904L9.03865 6.7758C8.99969 6.70812 8.94366 6.65183 8.87616 6.61256C8.80866 6.57329 8.73204 6.5524 8.65394 6.55199L5.94306 6.53722C5.63907 6.53557 5.39346 6.28857 5.39346 5.98458V3.15144Z" fill="white"/>
</g>
<defs>
<clipPath id="clip0_7377_164143">
<rect width="18" height="18" fill="white" transform="translate(0.999023 1)"/>
</clipPath>
</defs>
</svg>
