<svg width="20" height="20" viewBox="0 0 20 20" fill="none" xmlns="http://www.w3.org/2000/svg">
<path d="M9.69501 3.40948C9.63042 3.25358 9.59719 3.0865 9.59721 2.91776C9.59719 2.74903 9.63042 2.58194 9.69501 2.42604C9.7596 2.27015 9.85428 2.12849 9.97364 2.00917C10.093 1.88985 10.2347 1.7952 10.3907 1.73063C10.5466 1.66605 10.7138 1.63281 10.8826 1.63281C11.0514 1.63281 11.2186 1.66605 11.3745 1.73063C11.5305 1.7952 11.6722 1.88985 11.7916 2.00917C11.9109 2.12849 12.0056 2.27015 12.0702 2.42604C12.1348 2.58194 12.168 2.74903 12.168 2.91776C12.168 3.0865 12.1348 3.25358 12.0702 3.40948C12.0056 3.56538 11.9109 3.70703 11.7916 3.82635C11.6722 3.94567 11.5305 4.04032 11.3745 4.1049C11.2186 4.16947 11.0514 4.20271 10.8826 4.20271C10.7138 4.20271 10.5466 4.16947 10.3907 4.1049C10.2347 4.04032 10.093 3.94567 9.97364 3.82635C9.85428 3.70703 9.7596 3.56538 9.69501 3.40948Z" fill="white"/>
<path d="M15.3299 4.79386C15.4975 4.4441 15.8549 4.20249 16.2689 4.20249C16.8436 4.20249 17.309 4.66832 17.309 5.24272C17.309 5.81712 16.8431 6.28281 16.2685 6.28281C15.8955 6.28281 15.5685 6.08644 15.3848 5.79167H11.2492L10.4744 7.14618C10.4295 7.22492 10.4863 7.32289 10.577 7.32289H10.9886C11.1531 6.99632 11.4912 6.77224 11.8819 6.77224C12.4341 6.77224 12.8817 7.21969 12.8817 7.77161C12.8817 8.32354 12.4341 8.77098 11.8819 8.77098C11.5368 8.77098 11.2325 8.59625 11.0529 8.33046H9.92579C9.8693 8.33046 9.81383 8.34547 9.76506 8.37397C9.7163 8.40246 9.67599 8.44341 9.64829 8.49262L8.81578 9.97096C8.74662 10.0937 8.76656 10.2475 8.865 10.3484L11.7188 13.2778L12.8819 17.683C12.9 18.3618 11.7574 18.5737 11.5149 18.1318L10.3737 14.1346L7.47494 11.191C7.29588 10.9915 7.00564 11.2046 7.00564 11.3881V14.42L4.70005 18.2405C4.36003 18.5464 3.25822 18.1725 3.49626 17.3771L5.53652 13.985L5.52973 9.709L8.17549 5.24937C8.30476 5.00465 8.63545 4.80489 9.12086 4.79386H15.3299Z" fill="white"/>
</svg>
