<svg width="20" height="20" viewBox="0 0 20 20" fill="none" xmlns="http://www.w3.org/2000/svg">
<path fill-rule="evenodd" clip-rule="evenodd" d="M8.60926 3.90141C9.40454 3.90141 10.0495 3.25747 10.0495 2.4634C10.0495 1.66933 9.40454 1.02539 8.60926 1.02539C7.81399 1.02539 7.16907 1.66933 7.16907 2.4634C7.16907 3.25747 7.81399 3.90141 8.60926 3.90141ZM15.4996 5.74473C15.4912 5.52184 15.3809 5.32915 15.2176 5.20203V5.16205C15.2176 4.92392 15.024 4.73065 14.7855 4.73065C14.5819 4.73065 14.4122 4.87215 14.3664 5.06139L11.0018 5.18851L8.34984 4.2446C8.32046 4.23425 8.28907 4.22476 8.25796 4.21699C8.25071 4.21534 8.24354 4.21463 8.23633 4.21391L8.23633 4.21391C8.22978 4.21326 8.2232 4.21261 8.21648 4.21124C8.03531 4.14337 7.8403 4.10282 7.6358 4.09994C6.68094 4.08527 5.89489 4.84627 5.8802 5.79967L5.87155 6.36595C5.86896 6.58482 5.87011 6.80397 5.8802 7.02255C5.89863 7.4597 5.94155 7.89513 6.01039 8.32567C6.07952 8.75621 6.17313 9.18244 6.29065 9.6009C6.40644 10.0156 6.55306 10.439 6.7109 10.8229C6.77859 10.9863 6.87508 11.1292 6.98684 11.2563L7.00096 13.9724L5.10134 16.6264C4.88416 16.9316 4.93341 17.3592 5.22548 17.6037C5.53282 17.8611 5.99109 17.8208 6.2486 17.514L8.54946 14.7748C8.65315 14.6515 8.71882 14.4944 8.72746 14.3213L8.73034 14.2655L8.85651 11.7199L10.2786 12.8859L11.8101 16.1896C11.9676 16.5269 12.3625 16.694 12.7174 16.5609C13.0898 16.4211 13.2785 16.0064 13.1388 15.6342L11.7766 12.0121C11.7409 11.919 11.6845 11.8287 11.6084 11.7542L11.5572 11.7036L9.7261 9.90489C9.71342 9.84363 9.69816 9.78237 9.67771 9.72169C9.57286 9.40935 9.49595 9.12146 9.43114 8.81402C9.36778 8.51089 9.32169 8.20459 9.29317 7.89743C9.26523 7.59027 9.25602 7.28196 9.2635 6.97509C9.26639 6.82151 9.27647 6.66822 9.28828 6.51579L9.29692 6.40909L10.6542 6.74156L10.7149 6.75652C10.782 6.77262 10.8526 6.77895 10.9249 6.77377L14.3534 6.5296V16.1162L11.2034 17.2272C10.9785 17.3063 10.8604 17.5528 10.9399 17.7777C11.0027 17.9546 11.1695 18.0653 11.3475 18.0653C11.395 18.0653 11.4437 18.0572 11.4912 18.0406L14.9292 16.828C15.1021 16.7671 15.2176 16.6043 15.2176 16.4214V6.34525C15.3964 6.20662 15.5088 5.98747 15.4996 5.74473ZM4.93206 18.1091H8.76759C9.00637 18.1091 9.19965 18.3024 9.19965 18.5405C9.19965 18.7787 9.00637 18.9719 8.76759 18.9719H4.93206C4.69327 18.9719 4.5 18.7787 4.5 18.5405C4.5 18.3024 4.69327 18.1091 4.93206 18.1091Z" fill="#F2F2F2"/>
</svg>
