<svg width="20" height="20" viewBox="0 0 20 20" fill="none" xmlns="http://www.w3.org/2000/svg">
<g clip-path="url(#clip0_7377_164067)">
<path d="M4.19922 16.5382V18.2696H18.0092V12.9074L14.059 12.9074V14.7132H10.2423V16.5382H4.19922Z" fill="white"/>
<path d="M9.88228 4.97775C10.6929 4.94981 11.342 4.22869 11.3131 3.39007C11.2842 2.55144 10.5852 1.87679 9.77635 1.90467C8.9657 1.93262 8.31482 2.6538 8.34372 3.49242C8.37444 4.33099 9.07344 5.00564 9.88228 4.97775ZM13.2578 8.77587L11.4116 8.14077L10.1898 6.01527C10.1204 5.94816 10.0493 5.88112 10.0468 5.80982L9.90634 5.67567C9.41718 5.20228 8.73985 5.15613 8.1415 5.45663L5.38072 6.53387C5.1135 6.61258 4.92047 6.89911 4.86315 7.18096L4.30988 9.92393C4.25735 10.3446 4.6084 10.7533 5.01612 10.8087L5.08307 10.8064C5.4884 10.7924 5.81533 10.5013 5.8009 10.0829L6.11029 8.14077L7.13353 7.59137C6.94775 8.08802 6.7619 8.5828 6.64003 8.93637C6.39208 9.57416 6.42099 10.4128 6.78161 11.0991L4.86315 16.1992C4.67737 16.6959 4.90661 17.3022 5.38115 17.5093C5.92375 17.7461 6.54432 17.2495 6.70937 16.8343L8.13677 13.1505C9.14153 14.8646 10.2916 16.8517 10.294 16.9211C10.5087 17.2631 10.8525 17.4616 11.1908 17.4499C11.3266 17.4453 11.525 17.3689 11.6583 17.2948C12.121 16.999 12.302 16.3635 12.0155 15.885C11.9438 15.7485 10.216 12.6618 9.07073 10.8136L9.94066 8.61598L10.2989 9.23288C10.3731 9.44069 10.5781 9.50312 10.7162 9.56786L12.8367 10.3288C12.9037 10.3264 13.0418 10.3912 13.1087 10.3889C13.4453 10.3773 13.7095 10.1578 13.8313 9.80422C13.8857 9.38348 13.6662 8.90267 13.2578 8.77587Z" fill="white"/>
</g>
<defs>
<clipPath id="clip0_7377_164067">
<rect width="16.5" height="16.5" fill="white" transform="translate(1.6543 1.84766)"/>
</clipPath>
</defs>
</svg>
