<svg width="20" height="20" viewBox="0 0 20 20" fill="none" xmlns="http://www.w3.org/2000/svg">
<g clip-path="url(#clip0_7377_164377)">
<path d="M6.55449 5.01084H12.279C12.4295 5.01084 12.5514 4.8889 12.5514 4.73848C12.5514 4.58806 12.4295 4.46613 12.279 4.46613H6.5545C6.40407 4.46613 6.28213 4.58806 6.28213 4.73848C6.28213 4.8889 6.40407 5.01084 6.5545 5.01084H6.55449ZM1.43473 7.67382H7.15926C7.30968 7.67382 7.43162 7.55188 7.43162 7.40146C7.43162 7.25104 7.30968 7.12914 7.15926 7.12914H1.43473C1.28431 7.12914 1.16238 7.25104 1.16238 7.40146C1.16238 7.55188 1.28431 7.67382 1.43473 7.67382ZM2.97151 10.476C2.97151 10.6265 3.09344 10.7485 3.24386 10.7485H8.96839C9.11879 10.7485 9.24073 10.6265 9.24073 10.476C9.24073 10.3256 9.11879 10.2037 8.96837 10.2037H3.24384C3.09344 10.2037 2.97151 10.3256 2.97151 10.476ZM6.24767 13.6414H1.10414C0.953724 13.6414 0.831787 13.7633 0.831787 13.9138C0.831787 14.0642 0.953724 14.1861 1.10414 14.1861H6.24767C6.39809 14.1861 6.52002 14.0642 6.52002 13.9138C6.52002 13.7634 6.39809 13.6414 6.24767 13.6414ZM15.5026 6.71843C16.3241 6.71843 16.9901 6.05236 16.9901 5.2308C16.9901 4.40924 16.3241 3.74316 15.5026 3.74316C14.6808 3.74316 14.0147 4.40925 14.0147 5.2308C14.0147 6.05236 14.6808 6.71845 15.5026 6.71845V6.71843Z" fill="#F2F2F2"/>
<path d="M17.9493 6.28896C17.0951 7.48547 15.9512 7.62402 14.7204 6.89332C14.6366 6.84364 14.2648 6.63883 14.1825 6.58993C12.2025 5.41444 10.2247 5.87541 8.89834 7.73284C8.33473 8.52284 9.6383 9.27164 10.1956 8.49086C10.8809 7.53118 11.7523 7.2535 12.7053 7.55747C12.2173 8.40447 11.7907 9.24637 11.1887 10.4425C10.5865 11.6385 9.25709 12.5937 7.97964 11.8467C7.05788 11.3079 6.22665 12.6321 7.14563 13.1692C8.88964 14.1885 10.9345 13.5626 11.9784 12.2376C12.0159 12.2578 12.0548 12.275 12.0949 12.2891C12.9477 12.5862 14.0656 13.3773 14.4062 13.6576C14.7467 13.938 15.3318 15.3661 15.6792 16.0837C16.1007 16.9544 17.4619 16.3203 17.0389 15.4459C16.6451 14.6317 15.984 13.0068 15.4683 12.5957C15.0547 12.266 14.2517 11.6523 13.5707 11.3042C14.0314 10.4117 14.5112 9.5288 15.0162 8.66118C16.6261 9.15443 18.1564 8.57339 19.2462 7.04679C19.8103 6.25689 18.507 5.50809 17.9493 6.28896Z" fill="#F2F2F2"/>
</g>
<defs>
<clipPath id="clip0_7377_164377">
<rect width="18.5714" height="18.5714" fill="white" transform="translate(0.832031 0.835938)"/>
</clipPath>
</defs>
</svg>
