<svg width="20" height="20" viewBox="0 0 20 20" fill="none" xmlns="http://www.w3.org/2000/svg">
<g clip-path="url(#clip0_7377_163802)">
<path d="M12.6288 4.03546C13.4626 4.03546 14.1389 3.36804 14.1389 2.54507C14.1389 1.7221 13.4626 1.05469 12.6288 1.05469C11.7949 1.05469 11.1187 1.7221 11.1187 2.54507C11.1187 3.36804 11.7936 4.03546 12.6288 4.03546Z" fill="white"/>
<path d="M17.5993 5.92271C17.5303 5.55619 17.1928 5.303 16.8216 5.33911L14.7189 5.5437C14.7189 5.5437 12.9646 5.16857 12.345 4.93975C12.1778 4.65465 11.9269 4.4127 11.6057 4.25515C11.2912 4.09995 10.9221 4.1324 10.5753 4.18436C9.67968 4.31851 7.87614 4.58143 7.12065 4.63965C7.12065 4.63965 6.46879 4.51586 6.15141 4.41645L6.06589 3.27044C6.03168 2.82029 5.63638 2.47705 5.18027 2.51644C4.72416 2.54833 4.38208 2.94033 4.41628 3.39048L4.43339 3.62494C4.10841 3.55179 3.75872 3.67558 3.56298 3.96442C3.31021 4.33955 3.41094 4.84597 3.79103 5.09543C4.04379 5.26236 4.30606 5.40865 4.57782 5.5437L4.83439 8.97234C4.85149 9.21054 4.97502 9.42999 5.17077 9.57066L7.00852 10.8949C7.09024 10.953 7.17956 10.9924 7.27078 11.0168L8.43387 11.5832V17.9303C8.43387 18.3804 8.80446 18.7462 9.26057 18.7462C9.71668 18.7462 10.0873 18.3804 10.0873 17.9303V11.0693L12.3602 6.66907L14.4662 6.9745C14.785 7.02074 15.1087 7.02245 15.4281 6.97956L16.9873 6.77016C17.3964 6.71522 17.6758 6.32838 17.5993 5.92271ZM6.27874 6.13827C6.48779 6.18329 6.90589 6.25644 6.90589 6.25644C6.90589 6.25644 8.02787 6.33424 8.58781 6.27332L7.17956 8.9986L6.45358 8.47717L6.27874 6.13827Z" fill="white"/>
</g>
<defs>
<clipPath id="clip0_7377_163802">
<rect width="14.7368" height="17.8947" fill="white" transform="translate(3.42188 1.05469)"/>
</clipPath>
</defs>
</svg>
