<svg width="20" height="20" viewBox="0 0 20 20" fill="none" xmlns="http://www.w3.org/2000/svg">
<path d="M6.2522 6.43137C6.98071 6.51348 7.63785 5.98947 7.71996 5.26096C7.80207 4.53246 7.27806 3.87532 6.54955 3.79321C5.82104 3.7111 5.1639 4.23511 5.08179 4.96361C4.99968 5.69212 5.52369 6.34926 6.2522 6.43137Z" fill="white"/>
<path d="M7.86779 12.8624L5.84237 9.06333C5.18605 7.98906 5.88002 6.83861 7.12784 6.672L10.2454 6.13404L12.6901 5.16121C12.9709 5.04948 13.2505 5.08459 13.4376 5.32186C13.6422 5.58126 13.5778 6.02324 13.2797 6.16561L10.5493 7.46954L8.85805 8.03032L10.5493 11.4034L13.4496 11.2865C13.6195 11.2796 13.7822 11.3556 13.8861 11.4903L16.5203 14.9066C16.7659 15.2251 16.6902 15.6849 16.3556 15.908C16.055 16.1084 15.6508 16.0446 15.4265 15.7613L13.3938 13.1937L10.5493 13.3216C9.34869 13.5339 8.46445 13.839 7.86779 12.8624Z" fill="white"/>
<rect x="3.29297" y="11.5312" width="4.09206" height="4.09206" rx="2.04603" fill="white"/>
</svg>
