<svg width="20" height="20" viewBox="0 0 20 20" fill="none" xmlns="http://www.w3.org/2000/svg">
<g clip-path="url(#clip0_7377_164187)">
<path d="M14.0176 5.05158C14.0176 5.21337 14.0818 5.36853 14.1963 5.48294C14.3107 5.59734 14.4658 5.66161 14.6276 5.66161C14.7894 5.66161 14.9446 5.59734 15.059 5.48294C15.1734 5.36853 15.2376 5.21337 15.2376 5.05158C15.2376 4.8898 15.1734 4.73463 15.059 4.62023C14.9446 4.50583 14.7894 4.44156 14.6276 4.44156C14.4658 4.44156 14.3107 4.50583 14.1963 4.62023C14.0818 4.73463 14.0176 4.8898 14.0176 5.05158Z" fill="white"/>
<path d="M7.81885 4.35317C7.81885 4.67523 7.94679 4.98411 8.17452 5.21184C8.40225 5.43957 8.71113 5.56751 9.03319 5.56751C9.35526 5.56751 9.66413 5.43957 9.89186 5.21184C10.1196 4.98411 10.2475 4.67523 10.2475 4.35317C10.2475 4.0311 10.1196 3.72223 9.89186 3.4945C9.66413 3.26676 9.35526 3.13882 9.03319 3.13882C8.71113 3.13882 8.40225 3.26676 8.17452 3.4945C7.94679 3.72223 7.81885 4.0311 7.81885 4.35317Z" fill="white"/>
<path d="M3.75994 3.99266L5.82267 6.05554H9.56564C10.0592 6.03886 10.3753 6.41593 10.4973 6.85403L11.7677 11.0596L11.6784 15.2949L14.0505 15.7327C14.3383 15.7858 14.5471 16.0368 14.5471 16.3294C14.5471 16.694 14.228 16.9762 13.8662 16.9317L10.8232 16.557C10.4946 16.5165 10.2478 16.2374 10.2478 15.9064V12.643C10.2201 12.4101 9.9594 12.4212 9.85961 12.5709L6.20891 14.1038V17.2141C6.20891 17.6161 5.88299 17.942 5.48096 17.942C5.07893 17.942 4.75302 17.6161 4.75302 17.2141V13.4558C4.75302 13.2077 4.90418 12.9846 5.1346 12.8927L8.72662 11.4594C8.75349 11.4133 8.77085 11.3622 8.77769 11.3093C8.78452 11.2564 8.78069 11.2026 8.76642 11.1511L7.62626 7.30324C7.59231 7.18106 7.48316 7.09488 7.35644 7.09049L5.36233 7.0204L3.0668 4.6359C2.88375 4.33652 3.42164 3.75986 3.75994 3.99266Z" fill="white"/>
<path d="M3.99512 4.22676C4.0118 4.24344 10.4745 1.03001 10.4745 1.03001C10.7961 0.841549 11.3284 1.5679 10.7629 1.8285L4.33342 4.56506L3.99512 4.22676Z" fill="white"/>
</g>
<defs>
<clipPath id="clip0_7377_164187">
<rect width="18" height="18" fill="white" transform="translate(1.57617 1)"/>
</clipPath>
</defs>
</svg>
