<svg width="20" height="20" viewBox="0 0 20 20" fill="none" xmlns="http://www.w3.org/2000/svg">
<path fill-rule="evenodd" clip-rule="evenodd" d="M11.4721 3.18138C11.4721 3.93523 10.861 4.54635 10.1072 4.54635C9.35331 4.54635 8.74219 3.93523 8.74219 3.18138C8.74219 2.42753 9.35331 1.81641 10.1072 1.81641C10.861 1.81641 11.4721 2.42753 11.4721 3.18138ZM15.7292 4.80436L8.43063 4.92214C8.12441 4.92708 7.8397 5.08061 7.66731 5.33375L5.93087 7.88364C5.66032 8.28093 5.51562 8.75046 5.51562 9.23113C5.51562 10.1431 6.32444 10.8429 7.2269 10.7118L10.2341 10.2751L9.42724 13.0433C9.29139 13.5095 9.641 13.9755 10.1265 13.9755C10.4337 13.9755 10.7078 13.7828 10.8119 13.4938L11.9917 10.2154C12.3121 9.32495 11.6319 8.39241 10.6861 8.42557L8.75112 8.4934L10.3689 6.4376L15.7718 6.19348C16.1431 6.17671 16.4354 5.87085 16.4354 5.49923C16.4354 5.11103 16.1174 4.7981 15.7292 4.80436ZM7.99896 14.2266C7.03951 14.2266 6.26172 15.0044 6.26172 15.9638C6.26172 16.9233 7.03951 17.701 7.99896 17.701H11.2253C12.1847 17.701 12.9625 16.9233 12.9625 15.9638C12.9625 15.0044 12.1847 14.2266 11.2253 14.2266H7.99896Z" fill="white"/>
</svg>
