<svg width="20" height="20" viewBox="0 0 20 20" fill="none" xmlns="http://www.w3.org/2000/svg">
<g clip-path="url(#clip0_7377_163613)">
<path d="M3.80407 18.1887L14.6153 18.5414L14.6285 18.1184L13.7226 17.5677L11.3181 17.0985L10.9609 16.3051L8.74501 15.4022L7.08914 15.9344L6.30035 15.7132L5.08877 16.8952L4.34351 16.8058L3.80407 18.1887Z" fill="white"/>
<g clip-path="url(#clip1_7377_163613)">
<path fill-rule="evenodd" clip-rule="evenodd" d="M11.4097 4.57838C12.2734 4.57838 12.9737 3.86945 12.9737 2.99511C12.9737 2.12077 12.2734 1.41231 11.4097 1.41231C10.5465 1.41231 9.8457 2.12077 9.8457 2.99511C9.8457 3.86945 10.5465 4.57838 11.4097 4.57838Z" fill="white"/>
<path fill-rule="evenodd" clip-rule="evenodd" d="M13.9934 13.0149L13.7828 12.8152L10.9664 10.144L12.1175 7.03601C12.3869 6.30927 12.0231 5.49866 11.3052 5.22642C10.867 5.06029 10.3717 5.19206 9.93701 5.27703C9.15618 5.43119 8.37951 5.61018 7.601 5.77792L7.53805 5.79151L7.50195 5.80604C7.30755 5.88335 7.12843 5.99768 6.98031 6.14387C6.80952 6.3177 6.77573 6.38893 6.68316 6.49951L6.19902 7.11848C5.84463 7.53714 5.5093 7.88623 5.19363 8.30513C5.04776 8.49863 5.11317 8.81139 5.27933 8.9796C5.45985 9.16328 5.802 9.22984 5.98344 9.04663C6.35187 8.67459 6.6665 8.23084 7.02613 7.85131L7.56813 7.28341C7.74772 7.08849 7.80697 7.03788 7.87963 7.00743C8.336 6.92918 8.79284 6.85233 9.24921 6.77408L8.22353 9.54281C7.95415 10.27 8.31795 11.0802 9.03584 11.3529C9.07657 11.3679 9.11822 11.3758 9.15942 11.3871L12.772 13.8175L13.419 16.5013C13.5054 16.8599 13.8263 17.0984 14.1862 17.0176C14.5351 16.9392 14.7748 16.5762 14.6973 16.227L14.024 13.191L13.9934 13.0149Z" fill="white"/>
<path d="M12.8991 8.75533C12.6137 8.64651 12.3587 8.4684 12.1565 8.2365L11.0803 7.00242C10.8229 6.70729 10.8523 6.25504 11.1457 5.99651C11.444 5.73356 11.8972 5.77468 12.1447 6.08717L12.9744 7.13474C13.1476 7.35348 13.3658 7.53106 13.6136 7.65503L14.6321 8.16448C14.8885 8.2927 15.0139 8.59237 14.9272 8.86932C14.8269 9.18958 14.4833 9.35927 14.174 9.24134L12.8991 8.75533Z" fill="white"/>
<path d="M6.45012 15.1381C6.86069 14.9735 7.21613 14.6949 7.4756 14.3341L8.78999 12.5065C9.07799 12.1061 8.95477 11.5385 8.52624 11.2916C8.14602 11.0726 7.66516 11.1902 7.43013 11.5597L6.43195 13.1293C6.20526 13.4857 5.88891 13.7744 5.51499 13.9662L4.20449 14.6383C3.92542 14.7815 3.79099 15.1083 3.88651 15.4115C4.00031 15.7727 4.39311 15.9622 4.73991 15.8233L6.45012 15.1381Z" fill="white"/>
</g>
</g>
<defs>
<clipPath id="clip0_7377_163613">
<rect width="14.5" height="17.337" fill="white" transform="translate(2.75 1.23438)"/>
</clipPath>
<clipPath id="clip1_7377_163613">
<rect width="14.4625" height="16.4659" fill="white" transform="translate(2.75 1.21585)"/>
</clipPath>
</defs>
</svg>
