<svg width="20" height="20" viewBox="0 0 20 20" fill="none" xmlns="http://www.w3.org/2000/svg">
<path fill-rule="evenodd" clip-rule="evenodd" d="M14.1124 3.26767C14.3785 3.39464 14.551 3.65934 14.3409 4.01153L12.0267 8.70163L11.8587 11.5936C11.8607 11.7598 11.8973 11.6739 12.0267 12.0593C12.0595 12.2211 13.404 13.2763 14.1268 13.8336C14.405 14.0481 14.5523 14.391 14.5141 14.7403L14.1814 17.7825C14.1421 18.1413 13.839 18.4131 13.4781 18.4131C13.0763 18.4131 12.7551 18.0788 12.7712 17.6773L12.883 14.8832L10.3968 13.1401H10.0647C10.0647 13.1401 8.45716 14.2034 7.79997 14.8832L7.91358 17.7235C7.92863 18.0998 7.62766 18.4131 7.25108 18.4131C6.91869 18.4131 6.63767 18.167 6.59383 17.8375L6.14261 14.446C6.10902 14.1935 6.21585 13.9437 6.42082 13.7925C7.08418 13.3031 8.5078 12.2324 8.50436 12.0593C8.49986 11.8336 8.49239 11.7598 8.49238 11.5857L8.31649 8.52857L6.08807 4.01153C5.87798 3.65934 5.94195 3.35217 6.20804 3.22521C6.44713 3.11118 6.7577 3.1335 7.01188 3.49297C7.70006 4.52839 8.6776 7.26335 10.2093 7.26335C11.839 7.26335 12.7516 4.66645 13.4425 3.62695C13.6971 3.26748 13.8729 3.15364 14.1124 3.26767ZM11.5179 5.1402C11.5665 5.85648 11.0373 6.4775 10.3354 6.52692C9.63348 6.57635 9.02538 6.03623 8.97676 5.31995C8.92815 4.60322 9.45736 3.9831 10.1593 3.93322C10.8612 3.88379 11.4693 4.42392 11.5179 5.1402Z" fill="white"/>
<rect x="3.4209" y="3.44531" width="12.9899" height="0.564778" rx="0.282389" fill="white"/>
<path d="M15.1373 5.07568V2.59634C15.1373 2.34596 15.7379 2.13718 15.8447 2.59634V5.07568C15.7755 5.47126 15.1608 5.38172 15.1373 5.07568ZM3.98438 5.1463C4.03362 5.49948 4.60372 5.52771 4.71632 5.1463V2.58921C4.64596 2.1866 3.98437 2.26425 3.98438 2.58921V5.1463Z" fill="white"/>
</svg>
