<svg width="20" height="20" viewBox="0 0 20 20" fill="none" xmlns="http://www.w3.org/2000/svg">
<g clip-path="url(#clip0_7377_163640)">
<path d="M17.2876 2.71568C17.2876 2.90248 17.2508 3.08745 17.1793 3.26004C17.1078 3.43262 17.0031 3.58943 16.871 3.72152C16.7389 3.85361 16.5821 3.95839 16.4095 4.02988C16.2369 4.10136 16.0519 4.13816 15.8651 4.13816C15.6783 4.13816 15.4933 4.10136 15.3208 4.02988C15.1482 3.95839 14.9914 3.85361 14.8593 3.72152C14.7272 3.58943 14.6224 3.43262 14.5509 3.26004C14.4794 3.08745 14.4426 2.90248 14.4426 2.71568C14.4426 2.52887 14.4794 2.3439 14.5509 2.17132C14.6224 1.99873 14.7272 1.84192 14.8593 1.70983C14.9914 1.57774 15.1482 1.47296 15.3208 1.40148C15.4933 1.32999 15.6783 1.2932 15.8651 1.2932C16.0519 1.2932 16.2369 1.32999 16.4095 1.40148C16.5821 1.47296 16.7389 1.57774 16.871 1.70983C17.0031 1.84192 17.1078 1.99873 17.1793 2.17132C17.2508 2.3439 17.2876 2.52887 17.2876 2.71568Z" fill="white"/>
<path d="M2.78997 11.0739C2.49637 10.9579 2.17488 11.3469 2.36572 11.6479L14.6219 18.7338C15.3046 19.299 16.5714 18.2685 16.3733 17.7488C15.7508 17.2497 15.6554 18.3228 15.0873 18.1452L2.78997 11.0739Z" fill="white"/>
<path d="M14.4991 7.5803C14.4051 7.52452 14.3464 7.42322 14.3464 7.31313V4.13934C14.3743 3.59765 13.3804 2.71539 12.6846 2.97522L7.71989 5.80697C6.9125 6.36921 7.04755 7.6581 7.71989 8.08382L11.0038 10.092C11.0757 10.1361 11.0992 10.23 11.0581 10.3019L9.2877 13.3715C9.01025 14.3066 10.2404 14.8175 10.8335 14.1789L13.0413 10.2682C13.2645 9.8733 13.1309 9.37124 12.7389 9.1393L10.4386 7.78141C10.3637 7.73737 10.3637 7.62874 10.4401 7.5847L13.0575 6.09323C13.1206 6.05653 13.1999 6.10204 13.2014 6.17544L13.2351 7.9884C13.2381 8.12052 13.3085 8.24089 13.423 8.30842L16.3928 10.048C16.8787 10.3357 17.5613 9.66484 17.1796 9.17307L14.4991 7.5803Z" fill="white"/>
<path d="M13.2261 7.4899L4.99065 2.71454L5.44279 2.12735C5.54261 1.98055 5.19323 1.63557 4.99212 1.81907L4.52676 2.45471L3.85589 1.97614C3.65038 1.86311 3.39495 2.09652 3.55496 2.32552L4.29335 2.84372L3.91021 3.3766C3.74873 3.66139 4.25665 3.96233 4.41226 3.72305L4.76751 3.11237L13.2349 7.99489L13.2261 7.4899Z" fill="white"/>
</g>
<defs>
<clipPath id="clip0_7377_163640">
<rect width="15.8654" height="18.1731" fill="white" transform="matrix(-1 0 0 1 17.8379 1.00781)"/>
</clipPath>
</defs>
</svg>
