<svg width="20" height="20" viewBox="0 0 20 20" fill="none" xmlns="http://www.w3.org/2000/svg">
<path d="M7.93432 7.51149C7.93432 8.40349 7.20611 9.12661 6.30782 9.12661C5.40952 9.12661 4.68131 8.40349 4.68131 7.51149C4.68131 6.61948 5.40952 5.89637 6.30782 5.89637C7.20611 5.89637 7.93432 6.61948 7.93432 7.51149Z" fill="white"/>
<path d="M4.18788 11.5574C3.5333 11.5009 3.01464 10.981 2.9597 10.3262L2.74484 7.766C2.71594 7.42168 2.96074 7.11464 3.30284 7.06611C3.66323 7.01499 3.99566 7.26893 4.04112 7.63007L4.31987 9.84444L7.03071 9.96806L8.47649 8.94715L8.65721 6.6142L6.99631 5.65212C6.7112 5.48697 6.60426 5.12817 6.75245 4.83388C6.90638 4.52817 7.27832 4.40419 7.58489 4.5564L9.35888 5.43719C9.92009 5.71583 10.2616 6.30175 10.2275 6.92739L10.0684 9.84444L11.1934 11.4596L12.9243 10.2095C13.5077 9.78819 14.3129 9.86377 14.8077 10.3863L17.0026 12.7041C17.3792 13.1018 17.3485 13.7333 16.935 14.0925C16.5493 14.4276 15.9691 14.403 15.6132 14.0365L13.9434 12.317C12.0937 14.0785 9.15564 13.9688 7.44258 12.0741L7.21143 11.8185L4.18788 11.5574Z" fill="white"/>
</svg>
