<svg width="20" height="20" viewBox="0 0 20 20" fill="none" xmlns="http://www.w3.org/2000/svg">
<g clip-path="url(#clip0_7377_164319)">
<path d="M7.68823 4.77911C7.68823 5.11833 7.82299 5.44366 8.06286 5.68353C8.30272 5.9234 8.62806 6.05816 8.96728 6.05816C9.3065 6.05816 9.63183 5.9234 9.8717 5.68353C10.1116 5.44366 10.2463 5.11833 10.2463 4.77911C10.2463 4.43988 10.1116 4.11455 9.8717 3.87469C9.63183 3.63482 9.3065 3.50006 8.96728 3.50006C8.62806 3.50006 8.30272 3.63482 8.06286 3.87469C7.82299 4.11455 7.68823 4.43988 7.68823 4.77911Z" fill="white"/>
<path d="M4.20092 9.59143L10.0509 6.23993C10.1187 6.20114 10.1954 6.18073 10.2735 6.18073H13.6193C13.7085 6.18073 13.7911 6.22754 13.8369 6.30396L15.4074 8.9215C15.651 9.43922 14.9506 9.95693 14.5396 9.46969L13.2781 7.36255C13.2542 7.32255 13.2203 7.28945 13.1797 7.26646C13.1392 7.24347 13.0934 7.23139 13.0467 7.23138H12.2376C12.164 7.23138 12.1178 7.31077 12.1541 7.37468L13.9457 10.5355C14.2199 11.2539 13.9791 11.8141 13.4515 12.286C13.369 12.3597 13.3502 12.4815 13.4072 12.5762L14.4349 14.2849C14.4621 14.3302 14.5006 14.3677 14.5466 14.3937C14.5927 14.4197 14.6446 14.4334 14.6975 14.4334H18.1633C18.945 14.54 18.9551 15.819 18.1633 15.9408H13.8969C13.795 15.9408 13.7006 15.8871 13.6486 15.7994L11.8653 12.7944C11.845 12.7603 11.8162 12.732 11.7817 12.7123C11.7472 12.6927 11.7082 12.6824 11.6685 12.6824H9.8181C9.72212 12.6824 9.66254 12.7868 9.71146 12.8694L11.007 15.0576C11.3014 15.9407 10.3371 16.3975 9.83458 15.9407L7.61163 12.1343C7.4365 11.746 7.79432 11.1903 8.25109 11.1903H10.7105C10.7949 11.1903 10.8478 11.0989 10.8057 11.0257L9.16167 8.16859C9.09628 8.05502 8.95075 8.0165 8.83779 8.08313L4.77957 10.4746C4.33035 10.6822 3.7974 10.033 4.20092 9.59143ZM0.886694 15.1897H5.16018C5.16575 15.5988 4.96733 16.0018 4.612 16.0728H1.46522C1.07954 16.022 0.781913 15.5932 0.886694 15.1897ZM0.865515 14.7126H5.1603C5.15857 14.3328 5.06382 13.8549 4.58153 13.8193H2.64283C2.38397 13.8701 2.29257 13.3727 2.64283 13.3219H4.22631C4.48009 13.3219 4.53087 12.7079 4.22631 12.6825H2.50064C1.98293 12.6825 1.82291 13.1436 1.79244 13.8034C1.15571 13.7838 0.865515 14.2253 0.865515 14.7126Z" fill="white"/>
</g>
<defs>
<clipPath id="clip0_7377_164319">
<rect width="17.8846" height="17.8846" fill="white" transform="translate(0.865234 0.867188)"/>
</clipPath>
</defs>
</svg>
