<svg width="20" height="20" viewBox="0 0 20 20" fill="none" xmlns="http://www.w3.org/2000/svg">
<g clip-path="url(#clip0_7377_164031)">
<path d="M15.4375 5.13497C15.4375 5.46658 15.4867 5.78462 15.5742 6.01911C15.6618 6.25359 15.7805 6.38533 15.9043 6.38533C16.0281 6.38533 16.1468 6.25359 16.2344 6.01911C16.3219 5.78462 16.3711 5.46658 16.3711 5.13497C16.3711 4.80335 16.3219 4.48532 16.2344 4.25083C16.1468 4.01635 16.0281 3.88461 15.9043 3.88461C15.7805 3.88461 15.6618 4.01635 15.5742 4.25083C15.4867 4.48532 15.4375 4.80335 15.4375 5.13497Z" fill="white"/>
<path d="M15.8828 2.36655C15.0039 2.36655 14.2915 3.58666 14.2915 5.09184C14.2915 6.59701 15.0039 7.81712 15.8828 7.81712C16.7617 7.81712 17.4741 6.59701 17.4741 5.09184C17.4741 3.58666 16.7617 2.36655 15.8828 2.36655ZM15.8828 7.2826C15.291 7.2826 14.8113 6.31369 14.8113 5.11846C14.8113 3.92323 15.291 2.95432 15.8828 2.95432C16.4746 2.95432 16.9543 3.92323 16.9543 5.11846C16.9543 6.31369 16.4746 7.2826 15.8828 7.2826Z" fill="white"/>
<path d="M6.17456 3.31183C6.17456 3.4713 6.20574 3.62921 6.26631 3.77654C6.32689 3.92387 6.41567 4.05773 6.5276 4.17049C6.63953 4.28326 6.77241 4.3727 6.91865 4.43373C7.06489 4.49475 7.22163 4.52616 7.37992 4.52616C7.53821 4.52616 7.69495 4.49475 7.84119 4.43373C7.98743 4.3727 8.12031 4.28326 8.23223 4.17049C8.34416 4.05773 8.43295 3.92387 8.49352 3.77654C8.5541 3.62921 8.58527 3.4713 8.58527 3.31183C8.58527 3.15237 8.5541 2.99446 8.49352 2.84713C8.43295 2.6998 8.34416 2.56593 8.23223 2.45317C8.12031 2.34041 7.98743 2.25096 7.84119 2.18994C7.69495 2.12891 7.53821 2.0975 7.37992 2.0975C7.22163 2.0975 7.06489 2.12891 6.91865 2.18994C6.77241 2.25096 6.63953 2.34041 6.5276 2.45317C6.41567 2.56593 6.32689 2.6998 6.26631 2.84713C6.20574 2.99446 6.17456 3.15237 6.17456 3.31183Z" fill="white"/>
<path d="M5.21833 4.828H10.0378C10.1055 4.828 10.1679 4.79198 10.2022 4.73327L11.5277 2.4605H10.7663C11.0484 2.23024 11.0616 2.01505 10.7663 1.82764H11.4685C11.5472 1.82764 11.6188 1.8735 11.6523 1.94539L11.7064 2.06202H13.3474C13.3634 2.06202 13.3787 2.06841 13.39 2.07978C13.4013 2.09115 13.4076 2.10657 13.4076 2.12264V2.23008C13.4076 2.24615 13.4013 2.26157 13.39 2.27294C13.3787 2.28431 13.3634 2.2907 13.3474 2.2907H12.6141C12.5804 2.2907 12.5611 2.33037 12.5827 2.35655C12.7003 2.49858 12.7201 2.729 12.5998 2.94704L10.8597 5.95312H8.70807C8.50866 5.95312 8.3468 6.11578 8.3468 6.31652V17.8113C8.3468 18.2239 8.01425 18.5584 7.60408 18.5584C7.19392 18.5584 6.86136 18.2239 6.86136 17.8113V11.0726C6.86136 10.9371 6.67379 10.904 6.62788 11.0314L4.02994 18.242C3.63571 18.9159 2.50948 18.3924 2.71914 17.7673L5.16595 10.6824L5.19892 6.52012C5.1994 6.46665 5.12604 6.45173 5.10569 6.50108L4.51552 7.93692C4.4718 8.04324 4.44928 8.15717 4.44926 8.27223V10.3835C4.44926 10.7038 4.19101 10.9636 3.8725 10.9636C3.55399 10.9636 3.29574 10.7038 3.29574 10.3835V8.2105C3.29574 8.03165 3.32903 7.8544 3.39387 7.68777L4.15205 5.74222C4.33299 5.24663 4.63005 4.828 5.21833 4.828Z" fill="white"/>
</g>
<defs>
<clipPath id="clip0_7377_164031">
<rect width="15" height="16.7308" fill="white" transform="translate(2.69336 1.82812)"/>
</clipPath>
</defs>
</svg>
