<svg width="20" height="20" viewBox="0 0 20 20" fill="none" xmlns="http://www.w3.org/2000/svg">
<g clip-path="url(#clip0_7377_164218)">
<path d="M8.82757 3.64175C8.80255 3.80373 8.80969 3.96904 8.84856 4.12826C8.88743 4.28748 8.95729 4.43749 9.05413 4.56971C9.15098 4.70193 9.27292 4.81379 9.41299 4.89888C9.55306 4.98398 9.70853 5.04066 9.8705 5.06567C10.0325 5.09069 10.1978 5.08356 10.357 5.04468C10.5162 5.00581 10.6662 4.93596 10.7985 4.83911C10.9307 4.74227 11.0425 4.62033 11.1276 4.48025C11.2127 4.34018 11.2694 4.18472 11.2944 4.02274C11.3194 3.86077 11.3123 3.69545 11.2734 3.53623C11.2346 3.37701 11.1647 3.22701 11.0679 3.09478C10.971 2.96256 10.8491 2.85071 10.709 2.76561C10.5689 2.68051 10.4135 2.62384 10.2515 2.59882C10.0895 2.5738 9.9242 2.58094 9.76498 2.61981C9.60576 2.65868 9.45576 2.72854 9.32353 2.82538C9.19131 2.92223 9.07946 3.04417 8.99436 3.18424C8.90926 3.32431 8.85259 3.47978 8.82757 3.64175Z" fill="white"/>
<path d="M8.7279 5.36544L8.90542 5.40304C10.4041 5.72049 13.311 6.7618 13.311 6.7618L15.4115 6.20648C15.6762 6.13651 15.9487 6.28875 16.0279 6.55082C16.107 6.81244 15.965 7.08975 15.7065 7.17853L13.6685 7.87846C13.4063 7.96852 13.1229 7.97705 12.8557 7.90292L11.053 7.40276C11.053 7.40276 10.8182 7.35787 10.7868 7.56177L10.3672 10.3894L12.8122 10.885C12.9691 10.9168 13.0996 11.025 13.16 11.1732L14.6722 14.884C14.8242 15.2568 14.6368 15.6814 14.2589 15.8204C13.9134 15.9474 13.5281 15.7901 13.3704 15.4575L11.8304 12.2117C11.4159 12.0844 8.4591 11.6507 8.38123 11.7928L7.88666 14.7897L5.99124 17.6554C5.78585 17.966 5.36899 18.0537 5.05583 17.8524C4.73529 17.6462 4.64655 17.2171 4.85907 16.9007L6.5063 14.4488L6.92963 11.069L7.73343 6.8865C7.73939 6.85009 6.84056 6.83888 6.30841 6.83543C6.07014 6.83389 5.84911 6.71162 5.72211 6.51001L4.28205 4.22386C4.1114 3.95293 4.19178 3.59503 4.4619 3.42311C4.71845 3.25982 5.05747 3.3217 5.23979 3.56509L6.6622 5.464L8.7279 5.36544Z" fill="white"/>
<ellipse cx="6.03177" cy="3.2187" rx="0.693361" ry="0.693361" transform="rotate(-2.73165 6.03177 3.2187)" fill="white"/>
</g>
<defs>
<clipPath id="clip0_7377_164218">
<rect width="14.7854" height="17.5988" fill="white" transform="translate(4.28711 0.273438) rotate(8.77964)"/>
</clipPath>
</defs>
</svg>
