<svg width="20" height="20" viewBox="0 0 20 20" fill="none" xmlns="http://www.w3.org/2000/svg">
<g clip-path="url(#clip0_7377_163934)">
<path d="M10.2646 1.97081C10.2646 2.16088 10.3021 2.34909 10.3748 2.52469C10.4476 2.70029 10.5542 2.85985 10.6886 2.99425C10.823 3.12865 10.9825 3.23526 11.1581 3.308C11.3337 3.38074 11.5219 3.41817 11.712 3.41817C11.9021 3.41817 12.0903 3.38074 12.2659 3.308C12.4415 3.23526 12.6011 3.12865 12.7355 2.99425C12.8699 2.85985 12.9765 2.70029 13.0492 2.52469C13.1219 2.34909 13.1594 2.16088 13.1594 1.97081C13.1594 1.78074 13.1219 1.59253 13.0492 1.41692C12.9765 1.24132 12.8699 1.08176 12.7355 0.947362C12.6011 0.812961 12.4415 0.706349 12.2659 0.633612C12.0903 0.560875 11.9021 0.523438 11.712 0.523438C11.5219 0.523438 11.3337 0.560875 11.1581 0.633612C10.9825 0.706349 10.823 0.812961 10.6886 0.947362C10.5542 1.08176 10.4476 1.24132 10.3748 1.41692C10.3021 1.59253 10.2646 1.78074 10.2646 1.97081Z" fill="white"/>
<path d="M10.7877 12.7062L13.0534 12.7065C13.5253 12.7065 13.9081 12.329 13.9081 11.8632L13.9095 4.71845C13.9095 4.25266 13.5271 3.87488 13.0552 3.87488L10.7895 3.87459C10.3175 3.87459 9.93478 4.25207 9.93478 4.71786L9.93359 11.8626C9.933 12.3284 10.3155 12.7062 10.7877 12.7062Z" fill="white"/>
<path d="M13.1953 19.8864C12.6765 19.8864 12.2482 19.4797 12.2319 18.9645L11.97 11.8761C11.9531 11.3504 12.3708 10.9109 12.9032 10.8943C13.4515 10.87 13.8817 11.2899 13.898 11.8153L14.1599 18.9037C14.1767 19.4294 13.759 19.8689 13.2267 19.8855C13.216 19.8864 13.2059 19.8864 13.1953 19.8864ZM10.6466 19.8864C10.636 19.8864 10.6259 19.8864 10.6152 19.8858C10.0826 19.8692 9.66488 19.4297 9.68206 18.904L9.94395 11.8156C9.96024 11.3004 10.3886 10.8937 10.9073 10.8937C10.918 10.8937 10.9281 10.8937 10.9387 10.8943C11.4714 10.9109 11.8891 11.3504 11.8719 11.8761L11.61 18.9645C11.5938 19.48 11.1654 19.8864 10.6466 19.8864ZM8.32465 10.6273C8.18732 10.6272 8.05159 10.5983 7.92649 10.5423C7.80139 10.4864 7.6898 10.4049 7.59914 10.303L5.12517 7.51971C4.77412 7.12409 4.81352 6.52292 5.21434 6.17585C5.61576 5.82994 6.22425 5.86912 6.5759 6.26386L8.03611 7.90713L9.51379 4.46912C9.72176 3.98491 10.2888 3.76006 10.7788 3.96444C11.2694 4.16971 11.4978 4.72877 11.2901 5.21298L9.21251 10.0469C9.08246 10.3487 8.80487 10.5633 8.47781 10.6153C8.42656 10.6235 8.37561 10.6273 8.32465 10.6273Z" fill="white"/>
<path d="M13.6784 11.1856C13.1916 11.1856 12.7733 10.823 12.7206 10.3344L12.1559 5.11306C12.0993 4.59054 12.4824 4.12125 13.0127 4.0654C13.5326 4.0078 14.0176 4.38762 14.0741 4.91101L14.6388 10.1324C14.6954 10.6549 14.3123 11.1242 13.782 11.18C13.7477 11.1835 13.713 11.1856 13.6784 11.1856Z" fill="white"/>
<path d="M4.19396 6.86658L4.00169 6.63618C3.7877 6.37977 3.40415 6.34268 3.145 6.55336C2.88586 6.76404 2.84925 7.1427 3.06324 7.39911L4.02752 8.5546C4.24151 8.81102 4.62506 8.8481 4.88421 8.63742C5.14335 8.42674 5.17996 8.04809 4.96597 7.79167L4.7737 7.56127L6.65059 6.03541L6.84287 6.26581C7.05685 6.52223 7.4404 6.55931 7.69955 6.34863C7.95869 6.13795 7.9953 5.7593 7.78131 5.50288L6.81703 4.34739C6.60304 4.09097 6.21949 4.05389 5.96035 4.26457C5.7012 4.47525 5.66459 4.8539 5.87858 5.11032L6.07086 5.34072L4.19396 6.86658Z" fill="white"/>
</g>
<defs>
<clipPath id="clip0_7377_163934">
<rect width="12.1053" height="19.4737" fill="white" transform="translate(2.63281 0.523438)"/>
</clipPath>
</defs>
</svg>
