<svg width="20" height="20" viewBox="0 0 20 20" fill="none" xmlns="http://www.w3.org/2000/svg">
<path fill-rule="evenodd" clip-rule="evenodd" d="M8.07168 3.00805C8.07168 3.71796 7.49619 4.29345 6.78628 4.29345C6.07637 4.29345 5.50088 3.71796 5.50088 3.00805C5.50088 2.29815 6.07637 1.72266 6.78628 1.72266C7.49619 1.72266 8.07168 2.29815 8.07168 3.00805ZM8.74741 3.2187C8.97527 2.89917 9.33079 2.69347 9.72314 2.70251C10.59 2.72249 12.2216 2.89946 13.6412 3.84152C14.7948 4.59134 15.838 6.41753 16.427 7.6042C16.7415 8.23774 16.5289 8.99015 15.9581 9.40773C15.8941 9.45456 15.8277 9.49568 15.7597 9.53125H16.1583C16.3875 9.53125 16.5732 9.71701 16.5732 9.94615C16.5732 10.1753 16.3875 10.361 16.1583 10.361H13.5802C13.555 10.361 13.5303 10.3588 13.5064 10.3545L11.2404 11.1978L13.5565 16.0129C13.6876 16.2856 13.5729 16.6129 13.3002 16.7441C13.0276 16.8753 12.7002 16.7605 12.569 16.4879L10.2091 11.5816L10.1999 11.5625C9.93938 11.0208 10.1759 10.3708 10.7236 10.1233L13.5425 8.78604C12.9597 7.89273 12.206 6.85102 11.5134 6.2414C11.4325 6.17013 11.344 6.10842 11.2476 6.05991C10.8568 5.86312 10.3678 5.72588 9.86572 5.63029C9.77032 5.61212 9.67814 5.58565 9.58976 5.55185V7.90379C9.58976 8.24011 9.31712 8.51275 8.9808 8.51275L4.28225 8.51275C3.97967 8.51275 3.73438 8.26746 3.73438 7.96488C3.73438 7.66229 3.97967 7.417 4.28225 7.417L8.49401 7.417V4.02462H8.49487C8.49174 3.74686 8.56969 3.46792 8.74741 3.2187Z" fill="white"/>
<circle cx="6.18029" cy="14.61" r="1.94592" stroke="white" stroke-linecap="round"/>
<path d="M3.66016 9.64453H4.96112C6.23626 9.64453 7.43572 10.2497 8.19338 11.2753L9.79378 13.4418" stroke="white" stroke-linecap="round"/>
<line x1="8.17937" y1="11.9228" x2="7.60045" y2="12.9068" stroke="white" stroke-linecap="round"/>
<path d="M5.20733 16.3477L4.32273 17.8513C4.23365 18.0027 4.34282 18.1936 4.5185 18.1936L14.9939 18.1936" stroke="white" stroke-linecap="round"/>
</svg>
