<svg width="20" height="20" viewBox="0 0 20 20" fill="none" xmlns="http://www.w3.org/2000/svg">
<g clip-path="url(#clip0_7377_163648)">
<path d="M6.81934 3.34643C6.81934 3.84428 7.01879 4.32173 7.37381 4.67376C7.72884 5.02579 8.21036 5.22356 8.71244 5.22356C9.21452 5.22356 9.69604 5.02579 10.0511 4.67376C10.4061 4.32173 10.6055 3.84428 10.6055 3.34643C10.6055 2.84858 10.4061 2.37113 10.0511 2.0191C9.69604 1.66707 9.21452 1.4693 8.71244 1.4693C8.21036 1.4693 7.72884 1.66707 7.37381 2.0191C7.01879 2.37113 6.81934 2.84858 6.81934 3.34643Z" fill="white"/>
<path d="M12.499 16.4871C12.499 16.9849 12.6985 17.4624 13.0535 17.8144C13.4085 18.1664 13.89 18.3642 14.3921 18.3642C14.8942 18.3642 15.3757 18.1664 15.7307 17.8144C16.0858 17.4624 16.2852 16.9849 16.2852 16.4871C16.2852 15.9892 16.0858 15.5118 15.7307 15.1597C15.3757 14.8077 14.8942 14.6099 14.3921 14.6099C13.89 14.6099 13.4085 14.8077 13.0535 15.1597C12.6985 15.5118 12.499 15.9892 12.499 16.4871Z" fill="white"/>
<path d="M6.81934 3.34643C6.81934 3.84428 7.01879 4.32173 7.37381 4.67376C7.72884 5.02579 8.21036 5.22356 8.71244 5.22356C9.21452 5.22356 9.69604 5.02579 10.0511 4.67376C10.4061 4.32173 10.6055 3.84428 10.6055 3.34643C10.6055 2.84858 10.4061 2.37113 10.0511 2.0191C9.69604 1.66707 9.21452 1.4693 8.71244 1.4693C8.21036 1.4693 7.72884 1.66707 7.37381 2.0191C7.01879 2.37113 6.81934 2.84858 6.81934 3.34643Z" fill="white"/>
<path d="M13.0136 3.33842C12.9908 3.0921 13.1847 2.8795 13.4321 2.8795C13.6576 2.8795 13.843 3.05757 13.852 3.28295L13.9412 5.51748C13.9412 5.51748 14.449 6.65725 14.5748 6.81215C14.6585 6.91537 14.7005 9.37454 14.7005 14.1896L14.5748 15.7623L13.9412 14.7888V7.46657L13.8358 6.81211L13.2302 5.68047L13.0136 3.33842Z" fill="white"/>
<path d="M10.1012 7.19022H14.0084C14.5802 7.20347 14.8661 6.96059 14.8661 6.46149C14.8661 5.96238 14.5802 5.70687 14.0084 5.69494H7.96614C7.74824 5.69196 7.54349 5.81582 7.35181 6.06651C7.16018 6.31723 6.67301 8.08364 5.89031 11.3658C5.81248 12.0192 6.0136 12.4098 6.49369 12.5376C6.97374 12.6655 8.17626 12.9451 10.1012 13.3767L9.46569 16.7324C9.39871 17.0535 9.45811 17.2594 9.64375 17.3503C9.82944 17.4411 10.3467 17.4411 11.1957 17.3503L12.2552 14.1873C12.6814 12.9631 12.48 12.1869 11.6512 11.8585C10.934 11.59 10.161 11.3786 9.33224 11.2241L10.1012 7.19018V7.19022Z" fill="white"/>
<path d="M5.68302 14.5858C5.81985 14.075 6.33463 13.7626 6.85089 13.8769C7.39965 13.9985 7.73654 14.5528 7.59174 15.0959L6.94729 17.513C6.8919 17.7207 7.04848 17.9245 7.26349 17.9245H7.27761C7.45055 17.9245 7.59074 18.0647 7.59074 18.2377C7.59074 18.4106 7.45055 18.5508 7.27761 18.5508H3.8195C3.64655 18.5508 3.50635 18.4106 3.50635 18.2377C3.50635 18.0647 3.64655 17.9245 3.8195 17.9245H4.23189C4.56029 17.9245 4.84775 17.7039 4.93272 17.3867L5.68302 14.5858ZM8.23916 17.6613C8.23916 17.5317 8.34422 17.4267 8.47381 17.4267H11.7908C11.9203 17.4267 12.0254 17.5317 12.0254 17.6613C12.0254 17.7909 11.9203 17.896 11.7908 17.896H8.47381C8.34422 17.896 8.23916 17.7909 8.23916 17.6613Z" fill="white"/>
</g>
<defs>
<clipPath id="clip0_7377_163648">
<rect width="13" height="17.122" fill="white" transform="translate(3.4043 1.4375)"/>
</clipPath>
</defs>
</svg>
