<svg width="20" height="20" viewBox="0 0 20 20" fill="none" xmlns="http://www.w3.org/2000/svg">
<path d="M11.5743 13.1734H13.0521L11.1681 17.7849C10.988 18.139 10.4107 17.9983 10.4107 17.6033L11.5743 13.1734ZM7.10887 12.5789V15.2341L8.79893 17.4399C9.01285 17.8999 8.50802 18.0936 8.2448 17.8756L6.2446 15.5973C6.18433 15.5287 6.14146 15.447 6.1195 15.3589L5.72363 13.777L7.10887 12.5789Z" fill="#F2F2F2"/>
<path fill-rule="evenodd" clip-rule="evenodd" d="M18.7236 5.56951L19.2223 5.06108C19.3216 4.89432 19.2814 4.79304 19.1114 4.75244H16.4147C15.2283 4.86696 14.1923 5.25942 13.3669 6.04156C13.3289 6.09855 13.2932 6.15216 13.2593 6.2028L14.1742 6.77995C14.5172 6.99633 14.6281 7.44502 14.4253 7.79625C14.2196 8.15245 13.7668 8.27857 13.4066 8.07994L12.2832 7.4604C12.1393 7.61413 11.9624 7.79869 11.7322 8.03875C11.3553 8.03875 10.9787 8.04171 10.6021 8.04594L10.5061 10.4933C10.4902 10.8985 10.1571 11.2189 9.75152 11.2189C9.34022 11.2189 9.00455 10.8897 8.99649 10.4785L8.94921 8.06739C8.34991 8.07429 7.74995 8.07817 7.14838 8.07222L5.59067 8.0568C5.02352 8.20551 4.67473 8.47151 4.43623 8.79659L3.36958 8.83748C3.08948 8.94997 2.90428 9.19036 2.77386 9.50467L1.03169 13.1831C0.95367 13.348 1.02458 13.544 1.19098 13.6233C1.97724 13.9983 2.67348 13.5935 2.92989 12.7527C2.93685 12.73 2.9407 12.7064 2.94218 12.6827L3.09245 10.0767C3.19371 9.59227 3.50238 9.39859 3.93747 9.38229C3.45811 10.1371 3.56337 10.8641 3.89425 11.5804C3.91379 11.6228 3.92385 11.6688 3.92445 11.7153L3.93747 12.8682L2.71834 14.3116L2.1919 17.6749C2.24727 18.0698 2.70916 18.097 2.81531 17.7293L3.60497 15.0332L6.94852 12.1849C7.0631 12.0874 7.22595 12.0669 7.36171 12.133L8.45352 12.6639L12.9334 12.7025C13.1013 12.704 13.2553 12.7945 13.3361 12.9391L16.073 17.8385C16.3223 18.2152 16.9037 18.0371 16.7657 17.4981L14.9113 11.82C14.8736 11.7046 14.9159 11.5788 15.0157 11.5075C15.1343 11.4228 15.2321 11.3002 15.2972 11.1251L16.2878 7.2943C16.3079 7.2163 16.4172 7.20801 16.4493 7.28193L17.3111 9.26224C17.3496 9.35057 17.44 9.40601 17.5376 9.40092L18.5566 9.34824C18.593 9.34636 18.6273 9.33088 18.6525 9.30497C18.6777 9.27907 18.6919 9.24468 18.6922 9.20884L18.7236 5.56951Z" fill="#F2F2F2"/>
<path fill-rule="evenodd" clip-rule="evenodd" d="M12.2922 5.94121L12.3232 5.95818C12.7736 6.22809 13.1296 6.4182 13.4124 6.56921C13.6981 6.72175 13.909 6.83438 14.0669 6.94903C14.2765 7.10113 14.3472 7.3861 14.2194 7.61891C14.09 7.85482 13.8038 7.94898 13.5593 7.84903C13.5294 7.83681 13.5059 7.82837 13.4845 7.82068C13.4196 7.79742 13.3737 7.78096 13.2285 7.6874L12.3401 7.22754L12.3458 7.22126L11.5998 6.84827L11.5945 6.85208L11.405 6.75706C11.2018 6.65504 11.0886 6.44603 11.0996 6.2337L11.1017 6.1979L11.1579 5.14539L8.71295 5.57686L10.2306 7.14881L10.2564 7.17571C10.3698 7.29325 10.4231 7.44805 10.4173 7.59891L10.3322 8.71359C10.3333 8.71285 10.3343 8.7121 10.3353 8.71135L10.3316 8.71878L10.3154 9.31629C10.3141 9.31706 10.3128 9.31782 10.3115 9.31859L10.2707 10.5055C10.2584 10.7911 10.0156 11.0128 9.72852 11.0008C9.45266 10.989 9.23629 10.764 9.23046 10.4933C9.20862 9.61755 9.19054 8.7417 9.1736 7.86579L6.65251 5.53933C6.44613 5.37315 6.29613 5.13579 6.2462 4.85538C6.13948 4.25731 6.52665 3.68511 7.11396 3.54853L11.056 2.64046C11.7278 2.48567 12.3987 2.90204 12.5541 3.57026C12.5651 3.61724 12.5726 3.66442 12.578 3.71119C12.5839 3.74533 12.5853 3.78051 12.5859 3.8159L12.5862 3.82128C12.5862 3.82713 12.5868 3.83287 12.5873 3.83859C12.588 3.84664 12.5887 3.85465 12.5882 3.86288C12.5878 3.87286 12.5866 3.88308 12.5854 3.89326C12.585 3.89659 12.5846 3.89992 12.5843 3.90323C12.581 3.98311 12.5697 4.06154 12.5514 4.13791L12.2922 5.94121ZM10.8605 8.85025C10.8748 8.83483 10.889 8.81924 10.9031 8.80351L10.8605 8.85025Z" fill="#F2F2F2"/>
<path d="M13.4113 3.06993C13.9857 3.06993 14.4515 2.60658 14.4515 2.03521C14.4515 1.46384 13.9857 1.00049 13.4113 1.00049C12.8369 1.00049 12.3711 1.46384 12.3711 2.03521C12.3711 2.60658 12.8369 3.06993 13.4113 3.06993Z" fill="#F2F2F2"/>
</svg>
