<svg width="20" height="20" viewBox="0 0 20 20" fill="none" xmlns="http://www.w3.org/2000/svg">
<g clip-path="url(#clip0_7377_163771)">
<path d="M9.55273 4.39228C9.55273 4.5519 9.58417 4.70995 9.64525 4.85741C9.70634 5.00488 9.79587 5.13886 9.90873 5.25173C10.0216 5.36459 10.1556 5.45412 10.303 5.5152C10.4505 5.57629 10.6086 5.60772 10.7682 5.60772C10.9278 5.60772 11.0858 5.57629 11.2333 5.5152C11.3808 5.45412 11.5148 5.36459 11.6276 5.25173C11.7405 5.13886 11.83 5.00488 11.8911 4.85741C11.9522 4.70995 11.9836 4.5519 11.9836 4.39228C11.9836 4.23267 11.9522 4.07462 11.8911 3.92715C11.83 3.77969 11.7405 3.6457 11.6276 3.53283C11.5148 3.41997 11.3808 3.33044 11.2333 3.26936C11.0858 3.20828 10.9278 3.17684 10.7682 3.17684C10.6086 3.17684 10.4505 3.20828 10.303 3.26936C10.1556 3.33044 10.0216 3.41997 9.90873 3.53283C9.79587 3.6457 9.70634 3.77969 9.64525 3.92715C9.58417 4.07462 9.55273 4.23267 9.55273 4.39228Z" fill="white"/>
<path d="M14.248 7.88719C15.7825 7.84923 15.8737 10.0218 14.248 10.075V7.88719Z" fill="white"/>
<path d="M15.4022 8.71104H19.7218V9.25914H15.3361L15.4022 8.71104ZM14.2473 8.46398H11.7693C11.6653 8.46398 11.5697 8.40762 11.5192 8.31672L10.3275 6.16982C10.1245 5.85024 9.80344 5.6837 9.37042 5.7141H6.35391C6.29398 5.71411 6.23466 5.7022 6.17938 5.67906C6.12411 5.65591 6.07399 5.622 6.03195 5.5793L4.18966 3.70868C3.72638 3.54912 3.31604 4.1644 3.47561 4.39233L5.54035 6.54249C5.62886 6.63471 5.75038 6.688 5.87817 6.69064L7.52605 6.72564C7.65862 6.72846 7.73974 6.87245 7.67345 6.98738L5.72424 10.3631L4.74088 13.9734C4.71812 14.0567 4.67448 14.1329 4.61409 14.1948L1.94118 16.9264C1.54612 17.4886 2.24504 18.2633 2.88316 17.8684L5.87713 14.9337C5.92634 14.8855 5.96274 14.8258 5.98302 14.7599L6.7764 12.1844C6.82875 12.0146 7.02569 11.9381 7.17888 12.0278L10.0891 13.733C10.1616 13.7755 10.2218 13.8363 10.2634 13.9094C10.3051 13.9824 10.3269 14.0651 10.3265 14.1492L10.3125 17.4279C10.3581 17.8872 11.5127 18.2028 11.7406 17.3671L11.7549 13.429C11.7552 13.3506 11.736 13.2734 11.699 13.2043C11.662 13.1352 11.6085 13.0764 11.5431 13.0332L8.84025 11.244C8.68632 11.1421 8.63931 10.9371 8.73363 10.7784L10.1207 8.44173C10.1825 8.33748 10.3309 8.33095 10.4018 8.42927L11.0264 9.29563C11.0781 9.36722 11.1462 9.4253 11.2251 9.46493C11.304 9.50456 11.3912 9.52457 11.4795 9.52326L14.2473 9.48189V8.46398Z" fill="white"/>
</g>
<defs>
<clipPath id="clip0_7377_163771">
<rect width="17.8846" height="17.8846" fill="white" transform="translate(1.82617 1.44141)"/>
</clipPath>
</defs>
</svg>
