<svg width="20" height="20" viewBox="0 0 20 20" fill="none" xmlns="http://www.w3.org/2000/svg">
<g clip-path="url(#clip0_7377_164073)">
<path d="M1.79921 14.4355H5.30455C5.4857 14.4355 5.63257 14.5824 5.63257 14.7636V17.5705C5.63257 17.7516 5.4857 17.8985 5.30455 17.8985H1.79921C1.61806 17.8985 1.47119 17.7516 1.47119 17.5705V14.7636C1.47119 14.5824 1.61806 14.4355 1.79921 14.4355Z" fill="white"/>
<path d="M3.81348 5.27546C3.81348 5.44091 3.84606 5.60473 3.90938 5.75758C3.97269 5.91043 4.06549 6.04931 4.18247 6.1663C4.29946 6.28329 4.43834 6.37609 4.59119 6.4394C4.74405 6.50271 4.90787 6.5353 5.07331 6.5353C5.23876 6.5353 5.40258 6.50271 5.55543 6.4394C5.70828 6.37609 5.84717 6.28329 5.96415 6.1663C6.08114 6.04931 6.17394 5.91043 6.23725 5.75758C6.30056 5.60473 6.33315 5.44091 6.33315 5.27546C6.33315 4.94133 6.20042 4.62089 5.96415 4.38462C5.72789 4.14836 5.40744 4.01563 5.07331 4.01562C4.73918 4.01563 4.41874 4.14836 4.18247 4.38462C3.94621 4.62089 3.81348 4.94133 3.81348 5.27546Z" fill="white"/>
<path d="M2.97584 7.67708L1.7568 12.3166C1.67194 13.1293 2.03422 13.8571 2.74084 13.8571H6.18744C6.33921 13.8571 6.4616 13.9795 6.4616 14.1313V17.1177C6.4616 17.5485 6.81083 17.8977 7.24165 17.8977C7.67248 17.8977 8.02171 17.5485 8.02171 17.1177V13.0901C8.02171 12.6985 7.70349 12.3803 7.31183 12.3803H4.72851C4.56858 12.3803 4.45108 12.2269 4.49515 12.0718L5.24093 9.39222C5.28826 9.22087 5.5053 9.16865 5.62606 9.29757L6.45018 10.1804C6.52524 10.2604 6.62969 10.3061 6.74066 10.3061H9.86251C10.2901 10.2473 10.4125 9.59458 10.0339 9.30083C12.0819 6.30627 14.3682 4.03465 16.9417 2.6312C17.0951 2.54798 17.1359 2.34562 17.0282 2.20854C16.9385 2.0943 16.7769 2.06819 16.6545 2.14652C13.6143 4.08197 11.0897 6.3487 9.49859 9.21108H7.00666L4.81011 7.02921C4.18671 6.63592 3.20267 6.96393 2.97584 7.67708ZM9.75806 15.5037C10.2395 15.4923 10.5691 15.6735 10.8009 15.6637C11.6511 15.6637 11.811 15.241 12.4524 15.2785C13.252 15.2916 13.6959 15.6718 14.4417 15.6637C15.3164 15.6441 15.3882 15.2769 16.2857 15.2785C16.865 15.2769 17.2991 15.6686 17.9372 15.6637C18.3566 15.6751 18.6504 15.4841 19.011 15.4711V16.1663C18.7613 16.1663 18.5198 16.3964 17.9372 16.4029C17.4264 16.3948 16.9238 15.9623 16.2204 16.0178C15.3539 16.0945 15.3408 16.4078 14.3845 16.4029C13.7938 16.3833 13.2699 16.0765 12.4524 16.0667C11.8355 16.0733 11.4275 16.3703 10.8172 16.4029C10.3162 16.4405 10.1089 16.2414 9.75806 16.2593V15.5037ZM9.75806 16.8142C10.2395 16.8027 10.5691 16.9839 10.8009 16.9741C11.6511 16.9741 11.811 16.5514 12.4524 16.589C13.252 16.602 13.6959 16.9822 14.4417 16.9741C15.3164 16.9545 15.3882 16.5873 16.2857 16.589C16.865 16.5873 17.2991 16.979 17.9372 16.9741C18.3566 16.9855 18.6504 16.7946 19.011 16.7815V17.4767C18.7613 17.4767 18.5198 17.7068 17.9372 17.7133C17.4264 17.7052 16.9238 17.2727 16.2204 17.3282C15.3539 17.4049 15.3408 17.7182 14.3845 17.7133C13.7938 17.6938 13.2699 17.387 12.4524 17.3772C11.8355 17.3837 11.4275 17.6807 10.8172 17.7133C10.3162 17.7509 10.1089 17.5518 9.75806 17.5697V16.8142Z" fill="white"/>
<path d="M16.0308 3.17463V15.4776H16.4273V2.87109L16.0308 3.17463Z" fill="white"/>
</g>
<defs>
<clipPath id="clip0_7377_164073">
<rect width="18" height="18" fill="white" transform="translate(1 1)"/>
</clipPath>
</defs>
</svg>
