<svg width="20" height="20" viewBox="0 0 20 20" fill="none" xmlns="http://www.w3.org/2000/svg">
<g clip-path="url(#clip0_7377_163827)">
<path d="M11.4079 11.8261C11.3557 11.3877 11.1323 10.9866 10.7864 10.708C10.2639 10.2821 10.0009 9.6201 10.091 8.95636C10.091 8.12047 10.1756 7.6058 9.82793 7.26151C9.74867 7.18342 9.66039 7.11598 9.5649 7.05919L7.04451 4.90291H5.69873V5.11943C5.69873 5.27383 5.75458 5.42468 5.85727 5.54181L7.53273 7.46915C7.16341 7.98204 6.98145 8.60319 7.01568 9.22966C7.12738 10.4347 7.64983 11.5652 8.49837 12.4401C8.51459 12.4028 8.95057 11.393 9.65138 11.393C11.1449 11.393 11.4584 12.394 11.2079 12.7986C11.3827 12.5058 11.453 12.1633 11.4079 11.8261Z" fill="white"/>
<path d="M7.99016 7.99373L2.93675 11.0569C2.62688 11.245 2.53139 11.6443 2.72236 11.9496C2.84306 12.1412 3.05385 12.2584 3.28265 12.2584C3.40516 12.2584 3.52406 12.2246 3.62675 12.1625L9.21163 9.23071L7.99016 7.99373ZM13.3751 13.9816C10.1376 13.9816 8.84591 13.0765 8.66755 12.9381L10.089 11.3923C10.1412 11.426 10.8583 12.2939 13.6021 12.2584C14.8758 12.2264 16.1441 12.0862 17.3926 11.8395C17.87 11.7508 18.3294 12.0614 18.4177 12.5299C18.5077 13.0002 18.1925 13.4527 17.7169 13.5397C16.2882 13.8201 14.8343 13.9674 13.3751 13.9816Z" fill="white"/>
<path d="M11.417 12.0398C11.4405 12.3397 11.3468 12.6379 11.154 12.8721L10.3613 13.6512C10.7036 13.7364 11.0495 13.8038 11.399 13.8535L11.7738 13.4844C12.1034 13.1348 12.2854 12.6751 12.2854 12.1977C11.9918 12.164 11.7017 12.1125 11.417 12.0398Z" fill="white"/>
<path d="M10.3111 3.17289C9.46261 3.17289 8.77441 3.85083 8.77441 4.68672C8.77441 5.52261 9.46261 6.20055 10.3111 6.20055C11.1597 6.20055 11.8479 5.52261 11.8479 4.68672C11.8479 3.85083 11.1597 3.17289 10.3111 3.17289ZM5.25954 19.1826C4.77492 19.1826 4.38037 18.7957 4.38037 18.3165C4.38037 18.1284 4.44162 17.9474 4.55693 17.7965L7.19263 14.3358C7.21785 14.3039 7.24487 14.2719 7.2737 14.2435L8.49696 12.444V12.4404C7.64842 11.5655 7.12597 10.4332 7.01607 9.22998C6.98184 8.60173 7.1638 7.98236 7.53312 7.46947L5.85766 5.54213C5.75497 5.425 5.69912 5.27415 5.69912 5.11975V1.65906C5.69912 1.30056 5.99458 1.00951 6.3585 1.00951C6.72241 1.00951 7.01787 1.30056 7.01787 1.65906V4.88016L9.5653 7.05951C9.66078 7.1163 9.74906 7.18551 9.82833 7.26183C10.1166 7.54578 10.1094 7.94509 10.0986 8.55027C10.0968 8.67982 10.0932 8.80937 10.0932 8.95668C10.0031 9.61864 10.2661 10.2806 10.7886 10.7083C11.1363 10.9869 11.3579 11.388 11.4101 11.8264V11.869C11.4497 12.1902 11.3795 12.5132 11.2137 12.7918C11.2642 12.7226 11.2876 12.6392 11.2822 12.554C11.2768 12.6374 11.2534 12.7191 11.2137 12.7918L11.2083 12.7989C11.1921 12.8255 11.1741 12.8504 11.1507 12.8717L8.55822 15.4255L5.96395 18.8365C5.79641 19.0548 5.53698 19.1843 5.25954 19.1826Z" fill="white"/>
<path d="M11.4079 11.8261C11.3557 11.3877 11.1323 10.9866 10.7864 10.708C10.2639 10.2821 10.0009 9.6201 10.091 8.95636C10.091 8.12047 10.1756 7.6058 9.82793 7.26151C9.74867 7.18342 9.66039 7.11598 9.5649 7.05919L7.04451 4.90291H5.69873V5.11943C5.69873 5.27383 5.75458 5.42468 5.85727 5.54181L7.53273 7.46915C7.16341 7.98204 6.98145 8.60319 7.01568 9.22966C7.12738 10.4347 7.64983 11.5652 8.49837 12.4401C8.51459 12.4028 8.95057 11.393 9.65138 11.393C11.1449 11.393 11.4584 12.394 11.2079 12.7986C11.3827 12.5058 11.453 12.1633 11.4079 11.8261Z" fill="white"/>
<path d="M7.01582 9.22978C7.01042 9.00084 7.03204 8.77191 7.07708 8.54652L4.91699 9.85626L5.56916 11.1429L7.2158 10.2769C7.1023 9.93967 7.03564 9.5865 7.01582 9.22978Z" fill="white"/>
</g>
<defs>
<clipPath id="clip0_7377_163827">
<rect width="15.8654" height="18.1731" fill="white" transform="translate(2.61914 1.00781)"/>
</clipPath>
</defs>
</svg>
