<svg width="20" height="20" viewBox="0 0 20 20" fill="none" xmlns="http://www.w3.org/2000/svg">
<g clip-path="url(#clip0_7377_164271)">
<path d="M11.9453 14.4683C11.9453 14.6564 11.9822 14.8426 12.054 15.0164C12.1258 15.1901 12.2311 15.348 12.3638 15.481C12.4964 15.614 12.654 15.7195 12.8273 15.7915C13.0007 15.8634 13.1865 15.9005 13.3742 15.9005C13.5618 15.9005 13.7476 15.8634 13.921 15.7915C14.0944 15.7195 14.2519 15.614 14.3846 15.481C14.5173 15.348 14.6225 15.1901 14.6943 15.0164C14.7661 14.8426 14.8031 14.6564 14.803 14.4683C14.8031 14.2802 14.7661 14.094 14.6943 13.9202C14.6225 13.7464 14.5173 13.5886 14.3846 13.4556C14.2519 13.3226 14.0944 13.2171 13.921 13.1451C13.7476 13.0731 13.5618 13.0361 13.3742 13.0361C13.1865 13.0361 13.0007 13.0731 12.8273 13.1451C12.654 13.2171 12.4964 13.3226 12.3638 13.4556C12.2311 13.5886 12.1258 13.7464 12.054 13.9202C11.9822 14.094 11.9453 14.2802 11.9453 14.4683Z" fill="white"/>
<path d="M10.5703 2.66575C10.5703 3.0371 10.7175 3.39325 10.9795 3.65583C11.2415 3.91842 11.5969 4.06594 11.9674 4.06594C12.3379 4.06594 12.6933 3.91842 12.9553 3.65583C13.2173 3.39325 13.3645 3.0371 13.3645 2.66575C13.3645 2.2944 13.2173 1.93826 12.9553 1.67567C12.6933 1.41308 12.3379 1.26556 11.9674 1.26556C11.5969 1.26556 11.2415 1.41308 10.9795 1.67567C10.7175 1.93826 10.5703 2.2944 10.5703 2.66575Z" fill="white"/>
<path d="M9.79446 4.06599L13.3649 5.23309C13.8217 5.43599 14.1262 5.72945 14.1446 6.19562L14.2082 8.19445C14.2116 8.29506 14.322 8.3571 14.409 8.30512L16.3649 7.15814C16.7782 7.01728 17.419 7.5673 17.081 8.10389L13.7247 10.153C13.2244 10.252 12.8714 9.91995 12.868 9.43533L12.9199 7.299C12.8931 7.0961 12.6438 7.10113 12.5535 7.26378L7.57911 18.0826C6.88643 18.9932 5.89425 18.2771 6.11176 17.4354L8.85081 11.6069C9.04991 11.0133 8.50112 11.0468 8.33213 11.3788L6.4214 15.4234C5.886 15.9013 4.70141 15.5106 4.98919 14.6538L8.95454 5.91725C9.14695 5.59194 8.85917 5.3119 8.51785 5.44438L2.78901 6.91332C2.24189 7.07597 1.65964 6.14363 2.49119 5.73951L8.32544 4.21691C8.70357 4.09785 9.3745 3.96035 9.79446 4.06599Z" fill="white"/>
</g>
<defs>
<clipPath id="clip0_7377_164271">
<rect width="16.5" height="17.6579" fill="white" transform="translate(1.84766 1.26562)"/>
</clipPath>
</defs>
</svg>
