<svg width="20" height="20" viewBox="0 0 20 20" fill="none" xmlns="http://www.w3.org/2000/svg">
<path d="M4.97741 6.56348C4.80402 6.42102 4.58115 6.35327 4.35781 6.37512C4.13447 6.39697 3.92895 6.50664 3.78647 6.68L1.94251 9.06775C1.84068 9.19163 1.77614 9.34189 1.75642 9.50104C1.7367 9.66018 1.76262 9.82165 1.83114 9.96663C1.89966 10.1116 2.00798 10.2341 2.14346 10.3199C2.27894 10.4057 2.43602 10.4513 2.59639 10.4512C2.72146 10.4515 2.84502 10.4239 2.95811 10.3705C3.0712 10.317 3.17099 10.2391 3.25026 10.1424L5.09365 7.75493C5.16429 7.66908 5.21733 7.57016 5.24972 7.46381C5.28211 7.35746 5.29323 7.24576 5.28243 7.13511C5.27164 7.02447 5.23914 6.91703 5.1868 6.81894C5.13447 6.72086 5.06331 6.63405 4.97741 6.56348Z" fill="#F2F2F2"/>
<path fill-rule="evenodd" clip-rule="evenodd" d="M6.5474 5.55986C7.44292 5.55986 8.16903 4.8371 8.16903 3.94571C8.16903 3.05432 7.44292 2.33203 6.5474 2.33203C5.65237 2.33203 4.92578 3.05432 4.92578 3.94571C4.92578 4.8371 5.65237 5.55986 6.5474 5.55986Z" fill="white"/>
<path d="M18.0576 15.5817L13.7723 10.6233L10.7849 6.972L14.8629 4.59422C15.2883 4.40134 15.4775 3.89992 15.2846 3.47399C15.0917 3.04806 14.59 2.85918 14.1646 3.05234L5.91606 7.36117L3.53419 10.2592C3.52336 10.2723 3.5114 10.284 3.5 10.2965C3.85073 10.1424 5.65195 9.34864 7.04489 8.70534L8.76035 10.4207L9.73447 11.5136C9.23042 11.8817 8.72393 12.2465 8.21503 12.6079C8.00391 12.7566 7.90761 12.9612 7.89364 13.1683C7.87964 13.2273 7.87257 13.2877 7.87256 13.3484V17.0902C7.87256 18.0341 9.33673 18.0341 9.33673 17.0902C9.33673 15.9261 9.53332 14.762 9.53332 13.5985C10.4656 12.9316 12.4708 11.9025 12.4708 11.9025C13.9609 13.6264 15.2886 14.7914 17.0223 16.617C17.6736 17.3028 18.6716 16.292 18.0576 15.5817Z" fill="#F2F2F2"/>
</svg>
