<svg width="20" height="20" viewBox="0 0 20 20" fill="none" xmlns="http://www.w3.org/2000/svg">
<path fill-rule="evenodd" clip-rule="evenodd" d="M14.3647 0.921054C14.6518 1.05886 14.6595 1.34633 14.4328 1.7286L11.9355 6.8192L11.7543 10.5711C12.3579 10.5309 12.9226 10.4705 13.4326 10.3935C13.4166 10.4688 13.4084 10.5473 13.4084 10.6278C13.4084 10.8627 13.4781 11.0809 13.5977 11.2627C13.0972 11.3465 12.5608 11.4133 11.9978 11.4606C12.0463 11.7011 12.2008 12.4595 12.6709 14.7129C12.8702 15.8615 13.2328 17.6306 13.4034 18.6115C13.5011 19.1724 13.2834 19.3159 12.8891 19.3124C12.6307 19.3102 12.4438 18.8183 12.3204 18.4808C12.1982 18.1451 12.0283 17.5976 11.8582 17.0244L11.7564 16.6788C11.6891 16.4484 11.6233 16.2198 11.5619 16.0048L11.4737 15.6943C11.3194 15.1492 11.2108 14.7529 11.2108 14.7529L10.5187 12.8262C10.5212 12.8051 10.5251 12.7845 10.5251 12.763C10.5251 12.6146 10.4612 12.4812 10.3605 12.386L10.1929 11.9199C10.1814 11.8782 10.1775 11.8343 10.1767 11.79H9.81837C9.82094 11.8484 9.8158 11.9054 9.80123 11.959L8.97494 14.7529C8.97494 14.7529 8.8663 15.1492 8.71206 15.6943L8.62379 16.0048C8.37836 16.8645 8.06073 17.9437 7.86494 18.4808C7.74194 18.8183 7.55509 19.3102 7.29666 19.3124C6.90237 19.3159 6.68466 19.1724 6.78237 18.6115C6.95294 17.6306 7.24609 15.8615 7.44537 14.7129C7.97121 12.4706 8.03014 11.7077 8.02531 11.4627C4.84127 11.1984 2.5 10.3108 2.5 9.25645C2.5 8.24833 4.642 7.39471 7.61157 7.09056L7.65529 7.98895C5.43014 8.19479 3.86371 8.68458 3.86371 9.25645C3.86371 9.86751 5.65136 10.3852 8.12161 10.5625L7.9318 6.63136L5.52709 1.7286C5.30037 1.34633 5.30809 1.05886 5.59523 0.921054C5.85323 0.797289 6.0388 0.921493 6.31309 1.31166L8.3098 4.33337H8.45166C8.73323 4.88153 9.30837 5.25809 9.97437 5.25809C10.6404 5.25809 11.2155 4.88153 11.4971 4.33337H11.6094C11.6227 4.33337 11.6351 4.33512 11.6475 4.33644L13.6464 1.31166C13.9211 0.921493 14.1062 0.797289 14.3647 0.921054ZM14.5455 9.80476C14.9977 9.80476 15.3638 10.173 15.3638 10.6278C15.3638 11.0826 14.9977 11.4512 14.5455 11.4512C14.0937 11.4512 13.7271 11.0826 13.7271 10.6278C13.7271 10.173 14.0937 9.80476 14.5455 9.80476ZM12.2899 7.07959C15.3113 7.37452 17.5 8.23736 17.5 9.25645C17.5 9.82782 16.8124 10.3502 15.6757 10.751C15.6804 10.7107 15.6826 10.6695 15.6826 10.6278C15.6826 10.3503 15.5854 10.0963 15.4237 9.89808C15.8786 9.70696 16.1363 9.48843 16.1363 9.25645C16.1363 8.67624 14.5227 8.18118 12.2457 7.98061L12.2899 7.07959ZM11.3865 2.95365C11.439 3.73109 10.8679 4.40514 10.1104 4.45879C9.35299 4.51244 8.69677 3.92619 8.64431 3.14874C8.59185 2.37081 9.16294 1.69774 9.92039 1.6436C10.6778 1.58995 11.3341 2.17621 11.3865 2.95365Z" fill="white"/>
</svg>
