<svg width="20" height="20" viewBox="0 0 20 20" fill="none" xmlns="http://www.w3.org/2000/svg">
<g clip-path="url(#clip0_7377_164024)">
<path d="M16.2085 4.93642C15.8835 5.01459 15.5835 5.13812 15.3745 5.27983C15.1654 5.42154 15.0645 5.56982 15.0939 5.69206C15.1233 5.81429 15.2806 5.90046 15.5312 5.93162C15.7818 5.96277 16.1052 5.93636 16.4302 5.85818C16.7552 5.78001 17.0552 5.65648 17.2642 5.51477C17.4732 5.37306 17.5741 5.22478 17.5447 5.10254C17.5153 4.98031 17.358 4.89414 17.1074 4.86298C16.8568 4.83183 16.5334 4.85824 16.2085 4.93642Z" fill="white"/>
<path d="M9.67859 3.41867C9.64651 3.57617 9.64577 3.73846 9.67641 3.89625C9.70705 4.05404 9.76847 4.20426 9.85716 4.33831C9.94585 4.47237 10.0601 4.58764 10.1933 4.67755C10.3266 4.76746 10.4762 4.83025 10.6337 4.86233C10.7912 4.89441 10.9535 4.89515 11.1113 4.86451C11.2691 4.83387 11.4193 4.77245 11.5534 4.68376C11.6874 4.59506 11.8027 4.48084 11.8926 4.34759C11.9825 4.21435 12.0453 4.06471 12.0774 3.9072C12.1095 3.74969 12.1102 3.58741 12.0796 3.42962C12.0489 3.27182 11.9875 3.12161 11.8988 2.98755C11.8101 2.8535 11.6959 2.73822 11.5626 2.64831C11.4294 2.5584 11.2798 2.49561 11.1222 2.46354C10.9647 2.43146 10.8025 2.43072 10.6447 2.46136C10.4869 2.492 10.3367 2.55342 10.2026 2.64211C10.0685 2.7308 9.95327 2.84503 9.86336 2.97827C9.77345 3.11151 9.71066 3.26116 9.67859 3.41867Z" fill="white"/>
<path d="M9.49945 5.101L9.6716 5.14613C11.1249 5.52716 13.9239 6.68313 13.9239 6.68313L15.8622 6.22666C16.1045 6.16959 16.3534 6.29102 16.4577 6.51708C16.5917 6.80777 16.4358 7.1496 16.1285 7.23903L13.9092 7.88476C13.8518 7.90145 13.7907 7.90037 13.734 7.88168L11.6819 7.20549C11.6819 7.20549 11.4541 7.15054 11.4137 7.34881L10.8705 10.0992L13.2423 10.6577C13.6217 10.747 13.8611 11.1222 13.7822 11.5039L13.1197 14.7087C13.0481 15.0548 12.7116 15.279 12.3646 15.2117C12.026 15.1461 11.7989 14.8259 11.8487 14.4847L12.2187 11.9528C11.8186 11.8087 8.94234 11.2457 8.85942 11.3812L8.23485 14.2939L6.24409 17.0127C6.02837 17.3073 5.6159 17.3738 5.31853 17.1619C5.01415 16.945 4.94728 16.5204 5.17026 16.2205L6.89854 13.8955L7.47122 10.6043L8.38956 6.2629C8.40026 6.21264 7.10321 6.01372 6.96251 5.97227L4.84782 6.54102C4.55419 6.62 4.25127 6.44981 4.16598 6.15795C4.07893 5.86005 4.25118 5.54826 4.5497 5.46338L6.73629 4.84162C6.95858 4.77841 7.19174 4.76305 7.4204 4.79653L9.49945 5.101Z" fill="white"/>
</g>
<defs>
<clipPath id="clip0_7377_164024">
<rect width="14.1442" height="15.9763" fill="white" transform="translate(4.91211 1.04688) rotate(11.5113)"/>
</clipPath>
</defs>
</svg>
