<svg width="20" height="20" viewBox="0 0 20 20" fill="none" xmlns="http://www.w3.org/2000/svg">
<g clip-path="url(#clip0_23534_27514)">
<g clip-path="url(#clip1_23534_27514)">
<path d="M9.07316 4.2873C9.73623 4.77691 10.6707 4.63638 11.1605 3.97344C11.6502 3.31049 11.5096 2.37617 10.8466 1.88657C10.1835 1.39696 9.249 1.53748 8.75929 2.20043C8.26957 2.86338 8.4101 3.7977 9.07316 4.2873Z" fill="#F2F2F2"/>
<path d="M7.92266 11.8327L8.08769 6.99578C8.08771 5.1929 9.48437 4.59753 10.7929 5.13706C11.7684 5.62412 11.6047 6.48664 11.6047 7.68614L11.3942 11.4375L12.0996 11.4474C13.9288 11.4733 15.4007 12.9582 15.4101 14.7872L15.4168 16.0941C15.416 16.8128 15.3786 17.5316 14.586 17.5316C13.5951 17.5316 13.639 16.4738 13.639 16.0941L13.5952 13.5065L10.2368 13.5066C8.96345 13.6919 7.95422 13.1189 7.92266 11.8327Z" fill="#F2F2F2"/>
<path d="M7.02573 14.9456L8.14683 11.2558L10.0159 13.1247L8.36437 16.3003C8.22582 16.5667 7.98133 16.7624 7.69101 16.8391L4.25094 17.748C3.79723 17.8678 3.33174 17.5994 3.20825 17.1466C3.09074 16.7158 3.32475 16.2672 3.74528 16.117L7.02573 14.9456Z" fill="#F2F2F2"/>
<path d="M8.74687 7.63797V5.33783L6.40935 7.20762C5.40101 8.0142 5.40988 9.55067 6.42746 10.3456L9.03442 12.382V10.2256L7.16534 8.9318L8.74687 7.63797Z" fill="#F2F2F2"/>
</g>
</g>
<defs>
<clipPath id="clip0_23534_27514">
<rect width="20" height="20" fill="white"/>
</clipPath>
<clipPath id="clip1_23534_27514">
<rect width="20" height="20" fill="white"/>
</clipPath>
</defs>
</svg>
