<svg width="20" height="20" viewBox="0 0 20 20" fill="none" xmlns="http://www.w3.org/2000/svg">
<path d="M6.2655 7.71524C1.19866 7.50844 0.819554 11.7481 0.88849 13.9196H2.54297C2.54297 12.8856 3.24434 10.8174 5.23142 10.8174C6.88588 10.8174 7.91997 12.2651 7.91997 13.9196C10.2983 13.9196 11.4357 13.9196 13.814 13.8162C13.814 10.6861 15.4685 9.36975 17.9502 9.88678V8.54247C17.9502 7.91428 17.4409 7.40503 16.8127 7.40503C16.73 6.16416 15.4685 5.64712 14.848 5.54372V4.97497C14.848 4.66088 14.5934 4.40625 14.2793 4.40625C13.9652 4.40625 13.7106 4.66039 13.7106 4.97449V8.33569C13.7106 9.36975 13.1936 9.67997 12.6766 9.67997H9.16082C8.0027 9.67997 7.36848 8.78378 7.19615 8.33569L8.95401 6.68119L9.22449 6.99675C9.41326 7.21699 9.74956 7.2299 9.95466 7.0248C10.1458 6.83368 10.1495 6.52502 9.96314 6.3293L8.58863 4.88603C8.38827 4.67565 8.05768 4.6606 7.83904 4.85191C7.60304 5.05842 7.59095 5.4215 7.81269 5.64325L8.12678 5.95734C7.71317 6.37097 6.98934 7.09481 6.2655 7.71524Z" fill="white"/>
<mask id="path-2-inside-1_7377_164115" fill="white">
<ellipse cx="16.9178" cy="13.5194" rx="1.96468" ry="1.96472"/>
</mask>
<path d="M15.8825 13.5194C15.8825 12.9477 16.3459 12.4841 16.9178 12.4841V18.4841C19.6598 18.4841 21.8825 16.2613 21.8825 13.5194H15.8825ZM16.9178 12.4841C17.4897 12.4841 17.9531 12.9477 17.9531 13.5194H11.9531C11.9531 16.2613 14.1758 18.4841 16.9178 18.4841V12.4841ZM17.9531 13.5194C17.9531 14.0911 17.4897 14.5547 16.9178 14.5547V8.55469C14.1758 8.55469 11.9531 10.7775 11.9531 13.5194H17.9531ZM16.9178 14.5547C16.3459 14.5547 15.8825 14.0911 15.8825 13.5194H21.8825C21.8825 10.7775 19.6598 8.55469 16.9178 8.55469V14.5547Z" fill="white" mask="url(#path-2-inside-1_7377_164115)"/>
<mask id="path-4-inside-2_7377_164115" fill="white">
<ellipse cx="5.12776" cy="13.5038" rx="1.96468" ry="1.96472"/>
</mask>
<path d="M4.09244 13.5038C4.09244 12.9321 4.55591 12.4685 5.12776 12.4685V18.4685C7.86974 18.4685 10.0924 16.2457 10.0924 13.5038H4.09244ZM5.12776 12.4685C5.69962 12.4685 6.16309 12.9321 6.16309 13.5038H0.163086C0.163086 16.2457 2.38579 18.4685 5.12776 18.4685V12.4685ZM6.16309 13.5038C6.16309 14.0755 5.69962 14.5391 5.12776 14.5391V8.53906C2.38579 8.53906 0.163086 10.7619 0.163086 13.5038H6.16309ZM5.12776 14.5391C4.55591 14.5391 4.09244 14.0755 4.09244 13.5038H10.0924C10.0924 10.7619 7.86974 8.53906 5.12776 8.53906V14.5391Z" fill="white" mask="url(#path-4-inside-2_7377_164115)"/>
</svg>
