<svg width="20" height="20" viewBox="0 0 20 20" fill="none" xmlns="http://www.w3.org/2000/svg">
<path d="M7.82695 3.55321C7.82695 4.26639 8.3974 4.8447 9.10098 4.8447C9.80455 4.8447 10.375 4.26639 10.375 3.55277C10.375 2.84003 9.80455 2.26172 9.10054 2.26172C8.3974 2.26172 7.82695 2.84003 7.82695 3.55321ZM11.4365 17.3284C11.4365 17.6854 11.7219 17.9743 12.0737 17.9743C12.158 17.9738 12.2413 17.9566 12.3189 17.9238C12.3965 17.8911 12.467 17.8433 12.5261 17.7833C12.5853 17.7233 12.6321 17.6523 12.6638 17.5742C12.6955 17.4962 12.7115 17.4126 12.711 17.3284C12.712 17.1583 12.6455 16.9947 12.526 16.8737C12.4065 16.7526 12.2438 16.684 12.0737 16.6828C11.9895 16.6834 11.9061 16.7006 11.8285 16.7333C11.7509 16.7661 11.6805 16.8139 11.6213 16.8738C11.5621 16.9338 11.5154 17.0049 11.4836 17.0829C11.4519 17.161 11.4359 17.2446 11.4365 17.3288V17.3284ZM14.5297 17.8748V15.5441C14.5297 15.2242 14.785 14.9654 15.1001 14.9654H17.2357C17.5513 14.9654 17.8066 15.2242 17.8066 15.5441V17.8748H17.1218V15.7506C17.1219 15.7322 17.1184 15.714 17.1115 15.697C17.1046 15.6801 17.0944 15.6646 17.0815 15.6515C17.0687 15.6385 17.0533 15.6281 17.0364 15.621C17.0195 15.6139 17.0014 15.6101 16.983 15.61H15.369C15.332 15.6104 15.2967 15.6254 15.2708 15.6517C15.2448 15.678 15.2304 15.7136 15.2306 15.7506V17.8753H14.5297V17.8748ZM10.3501 16.9604H9.51649V11.5099C9.77051 11.427 9.76309 10.9643 9.51649 10.7588V8.24561C10.0167 8.22378 10.0821 7.26095 9.51649 7.20246V6.54472C9.51672 6.50319 9.50051 6.46327 9.4714 6.43366C9.44228 6.40405 9.40263 6.38718 9.36111 6.38672H9.15816C9.11656 6.38706 9.0768 6.40389 9.04759 6.43351C9.01838 6.46313 9.00211 6.50312 9.00234 6.54472V7.10382C9.00234 7.1418 8.97179 7.17278 8.93425 7.17278H8.21714C8.20889 7.17273 8.20073 7.17104 8.19313 7.16783C8.18552 7.16462 8.17863 7.15994 8.17283 7.15407C8.16703 7.14819 8.16245 7.14123 8.15935 7.13358C8.15624 7.12593 8.15467 7.11775 8.15473 7.1095V5.45356C8.16913 4.48331 6.5791 4.16382 6.15486 4.61556L2.63349 8.0767C2.22016 8.52843 2.22016 9.04651 2.5139 9.56503L4.46794 13.206C4.50504 13.2758 4.52468 13.3535 4.52468 13.433V17.1752C4.52468 17.6164 4.87734 17.9743 5.31293 17.9743C5.74808 17.9743 6.10074 17.6164 6.10074 17.1756V12.9354C6.10075 12.8789 6.08616 12.8235 6.05841 12.7743L4.57793 10.1625C4.55932 10.1298 4.55154 10.0919 4.55569 10.0545C4.55985 10.017 4.57572 9.98182 4.60106 9.95392L6.11384 8.29973C6.15399 8.25608 6.21029 8.23077 6.26922 8.23077H6.97017C7.03608 8.23077 7.08976 8.28532 7.08976 8.3521V8.68076C7.08976 8.75408 7.11028 8.82566 7.14956 8.8872L8.94822 11.7246V16.96H8.13291C8.09814 16.9603 8.06493 16.9745 8.04055 16.9992C8.01617 17.024 8.00261 17.0575 8.00284 17.0922V17.8421C8.00284 17.915 8.06089 17.9743 8.13291 17.9743H10.3501C10.3674 17.9743 10.3845 17.9708 10.4005 17.9641C10.4164 17.9574 10.4309 17.9477 10.4431 17.9354C10.4552 17.9231 10.4648 17.9085 10.4714 17.8925C10.4779 17.8765 10.4812 17.8594 10.4811 17.8421V17.0922C10.4812 17.075 10.4779 17.0579 10.4714 17.042C10.4649 17.026 10.4553 17.0115 10.4432 16.9992C10.4311 16.987 10.4166 16.9773 10.4007 16.9706C10.3849 16.9639 10.3678 16.9605 10.3506 16.9604H10.3501ZM9.01674 9.59864C9.01674 9.65407 8.94429 9.67371 8.91723 9.62526L8.2429 8.42194C8.23531 8.40854 8.23135 8.3934 8.2314 8.37801C8.23144 8.36262 8.2355 8.34751 8.24316 8.33416C8.25083 8.32081 8.26184 8.30969 8.27511 8.30189C8.28838 8.2941 8.30345 8.28989 8.31884 8.28969H8.91897C8.9731 8.28969 9.01674 8.33421 9.01674 8.38877V9.59864Z" fill="#F2F2F2"/>
</svg>
