<svg width="20" height="20" viewBox="0 0 20 20" fill="none" xmlns="http://www.w3.org/2000/svg">
<g clip-path="url(#clip0_7377_164231)">
<path d="M7.34131 3.9217C7.34131 4.08452 7.37338 4.24575 7.43569 4.39618C7.498 4.5466 7.58932 4.68328 7.70445 4.79841C7.81958 4.91354 7.95626 5.00487 8.10669 5.06718C8.25711 5.12949 8.41834 5.16156 8.58116 5.16156C8.74398 5.16156 8.9052 5.12949 9.05563 5.06718C9.20606 5.00487 9.34274 4.91354 9.45787 4.79841C9.573 4.68328 9.66432 4.5466 9.72663 4.39618C9.78894 4.24575 9.82101 4.08452 9.82101 3.9217C9.82101 3.75889 9.78894 3.59766 9.72663 3.44723C9.66432 3.29681 9.573 3.16013 9.45787 3.045C9.34274 2.92987 9.20606 2.83854 9.05563 2.77623C8.9052 2.71392 8.74398 2.68185 8.58116 2.68185C8.41834 2.68185 8.25711 2.71392 8.10669 2.77623C7.95626 2.83854 7.81958 2.92987 7.70445 3.045C7.58932 3.16013 7.498 3.29681 7.43569 3.44723C7.37338 3.59766 7.34131 3.75889 7.34131 3.9217Z" fill="white"/>
<path d="M14.4403 17.9754L11.4087 6.43119C11.3667 6.27145 11.4873 6.11514 11.6525 6.11514H13.2114C13.5111 6.11514 13.7539 5.87231 13.7539 5.57268V2.80129C13.7908 2.64388 13.7023 2.57982 13.5546 2.58722V2.43227C14.1597 2.01903 13.284 1.12836 12.787 1.85656H4.21615C4.0983 1.85656 3.98633 1.90857 3.91036 1.99877L3.28346 2.74326C3.17532 2.87165 3.17956 3.06041 3.29317 3.18401C3.41773 3.31938 3.60307 3.4512 3.77992 3.51621C3.96895 3.58561 4.17782 3.4835 4.24092 3.29228L4.4936 2.52685C4.53412 2.40435 4.64855 2.32153 4.77763 2.32153H12.3109L8.86812 5.8088C8.59354 6.10405 8.48924 6.39067 8.58026 6.80514L9.65299 10.6796C9.69719 10.8394 9.69898 11.008 9.65819 11.1687L8.83185 14.4214C8.80571 14.5244 8.76408 14.6229 8.70838 14.7135L6.78674 17.8427C6.53584 18.374 7.39927 19.1343 7.97129 18.6619L10.0342 15.3056C10.083 15.2261 10.1187 15.1393 10.1397 15.0484L10.8811 11.8521C10.9394 11.6004 11.2954 11.5939 11.3632 11.8431L13.1412 18.3887C13.3259 18.9054 14.5215 18.8316 14.4403 17.9754ZM11.0615 5.03461L12.5708 3.46105C12.609 3.42122 12.6764 3.44832 12.6764 3.50348V4.91567C12.6764 5.05227 12.5656 5.16287 12.4292 5.16287H11.1162C11.0493 5.16301 11.0152 5.08279 11.0615 5.03461Z" fill="white"/>
</g>
<defs>
<clipPath id="clip0_7377_164231">
<rect width="17.2308" height="17.2308" fill="white" transform="translate(1.19336 1.57812)"/>
</clipPath>
</defs>
</svg>
