<svg width="20" height="20" viewBox="0 0 20 20" fill="none" xmlns="http://www.w3.org/2000/svg">
<path d="M11.8447 13.005C11.8447 13.1987 11.8829 13.3905 11.957 13.5695C12.0311 13.7485 12.1398 13.9111 12.2768 14.048C12.4137 14.185 12.5764 14.2937 12.7553 14.3678C12.9343 14.4419 13.1261 14.4801 13.3198 14.4801C13.5135 14.4801 13.7053 14.4419 13.8843 14.3678C14.0633 14.2937 14.2259 14.185 14.3628 14.048C14.4998 13.9111 14.6085 13.7485 14.6826 13.5695C14.7567 13.3905 14.7949 13.1987 14.7949 13.005C14.7949 12.6138 14.6395 12.2386 14.3628 11.962C14.0862 11.6853 13.711 11.5299 13.3198 11.5299C12.9286 11.5299 12.5534 11.6853 12.2768 11.962C12.0001 12.2386 11.8447 12.6138 11.8447 13.005Z" fill="white"/>
<path d="M9.4473 7.23702C9.34781 7.71846 8.70801 9.99066 9.07909 11.2984C9.20402 11.7386 9.37181 12.0042 9.41468 12.07C9.79909 12.6623 10.3246 12.8969 10.589 12.9896C11.0877 11.9224 11.5864 10.8551 12.085 9.78759C11.8621 9.55846 11.3636 8.98041 11.1761 8.04708C11.0898 7.61713 11.0949 7.23887 11.1203 6.96338C11.2973 6.52543 11.4746 6.08769 11.6516 5.64974C10.8128 6.36133 10.2863 6.52543 9.4473 7.23702ZM7.97099 8.44215H2.23027C1.88094 8.44215 1.59766 8.15887 1.59766 7.80954C1.59766 7.4602 1.88094 7.17692 2.23027 7.17692H7.97099C8.32032 7.17692 8.6036 7.4602 8.6036 7.80954C8.6036 8.15887 8.32012 8.44215 7.97099 8.44215Z" fill="white"/>
<path d="M10.9168 18.2279C10.5675 18.2279 10.2842 17.9446 10.2842 17.5953V11.8542C10.2842 11.5048 10.5675 11.2215 10.9168 11.2215C11.2661 11.2215 11.5494 11.5048 11.5494 11.8542V17.5953C11.5494 17.9446 11.2661 18.2279 10.9168 18.2279Z" fill="white"/>
<path d="M11.2166 12.1627C11.0547 12.1627 10.8929 12.101 10.7694 11.9775C10.5222 11.7303 10.5222 11.3301 10.7694 11.0829L14.8289 7.02345C15.076 6.77627 15.4762 6.77627 15.7234 7.02345C15.9706 7.27063 15.9706 7.67083 15.7234 7.91801L11.6639 11.9775C11.6052 12.0363 11.5355 12.0829 11.4587 12.1147C11.3819 12.1465 11.2996 12.1628 11.2166 12.1627ZM10.0531 8.19124C9.85573 8.19124 9.66148 8.09894 9.53778 7.92601C9.33471 7.64191 9.40055 7.24683 9.68527 7.04376L16.2998 2.32273C16.5831 2.12006 16.979 2.1855 17.1821 2.47022C17.3852 2.75432 17.3193 3.1494 17.0346 3.35247L10.42 8.0735C10.3131 8.1502 10.1847 8.19138 10.0531 8.19124Z" fill="white"/>
</svg>
