<svg width="20" height="20" viewBox="0 0 20 20" fill="none" xmlns="http://www.w3.org/2000/svg">
<g clip-path="url(#clip0_7377_163709)">
<path d="M8.39005 3.72168C8.4553 4.12268 8.67716 4.48133 9.00684 4.71874C9.33652 4.95615 9.74701 5.05287 10.148 4.98763C10.549 4.92238 10.9077 4.70052 11.1451 4.37083C11.3825 4.04115 11.4792 3.63066 11.4139 3.22967C11.3487 2.82868 11.1268 2.47002 10.7972 2.23261C10.4675 1.9952 10.057 1.89848 9.65599 1.96373C9.255 2.02897 8.89635 2.25084 8.65894 2.58052C8.42153 2.9102 8.3248 3.32069 8.39005 3.72168Z" fill="white"/>
<path d="M11.3227 7.43547L12.933 8.75277C13.3604 9.10244 13.9904 9.03941 14.3401 8.612L15.0856 7.70087C15.5451 7.08814 15.7787 6.83358 15.6983 6.33942C15.5646 5.9591 15.1463 5.80844 14.7274 6.09532L13.4992 7.45832L13.2055 7.19554C12.2264 6.31934 10.9532 5.84404 9.63942 5.86429L9.11895 5.87231C8.90218 5.90456 8.7189 6.06026 8.56902 6.33942C8.41919 6.61861 8.59371 7.84805 8.34552 11.2241C8.37353 11.8836 8.63609 12.2379 9.13324 12.2869C9.63034 12.3359 10.8826 11.9726 12.8111 11.814L12.0502 14.5744C12.0355 14.9031 12.0317 15.0956 12.195 15.2997C12.3904 15.544 13.1686 15.8834 13.4992 15.0537L14.5536 12.0313C14.7795 10.7505 14.3553 10.2246 13.4796 10.0333C12.7245 9.88329 12.1015 10.1041 11.254 10.085L11.3227 7.43547Z" fill="white"/>
<path d="M8.37604 11.4754C8.36172 10.8657 8.99226 10.4527 9.54545 10.7095C9.82723 10.8402 10.0114 11.1185 10.0216 11.429L10.1358 14.8976L9.92606 18.0017C9.89833 18.412 9.55746 18.7306 9.14628 18.7306C8.707 18.7306 8.35401 18.3686 8.365 17.9295L8.44889 14.577L8.37604 11.4754Z" fill="white"/>
<path d="M8.98987 5.91494L6.26422 7.02419C5.91236 7.16739 5.67202 7.4976 5.64391 7.87645L5.49394 9.89802C5.43457 10.918 5.58775 11.2244 6.0473 11.2244C6.50685 11.2244 6.60056 11.1119 6.81322 10.6117L6.98675 8.45164L8.45801 7.83817C9.341 7.46999 9.92523 6.11574 8.98987 5.91494Z" fill="white"/>
</g>
<defs>
<clipPath id="clip0_7377_163709">
<rect width="13.1738" height="17.1565" fill="white" transform="translate(1.99805 2.58984) rotate(-9.24152)"/>
</clipPath>
</defs>
</svg>
