<svg width="20" height="20" viewBox="0 0 20 20" fill="none" xmlns="http://www.w3.org/2000/svg">
<g clip-path="url(#clip0_7377_164158)">
<path d="M10.0603 4.03707C10.0603 4.36963 10.1924 4.68857 10.4276 4.92373C10.6627 5.15888 10.9817 5.29099 11.3142 5.29099C11.6468 5.29099 11.9657 5.15888 12.2009 4.92373C12.436 4.68857 12.5682 4.36963 12.5682 4.03707C12.5682 3.70451 12.436 3.38556 12.2009 3.15041C11.9657 2.91525 11.6468 2.78314 11.3142 2.78314C10.9817 2.78314 10.6627 2.91525 10.4276 3.15041C10.1924 3.38556 10.0603 3.70451 10.0603 4.03707Z" fill="white"/>
<path d="M6.28784 2.5221C6.28784 2.80303 6.39944 3.07246 6.59809 3.27112C6.79675 3.46977 7.06618 3.58137 7.34711 3.58137C7.62805 3.58137 7.89748 3.46977 8.09613 3.27112C8.29478 3.07246 8.40638 2.80303 8.40638 2.5221C8.40638 2.24116 8.29478 1.97173 8.09613 1.77308C7.89748 1.57443 7.62805 1.46283 7.34711 1.46283C7.06618 1.46283 6.79675 1.57443 6.59809 1.77308C6.39944 1.97173 6.28784 2.24116 6.28784 2.5221Z" fill="white"/>
<path d="M6.14493 3.38861C6.43801 3.80117 6.77818 4.05184 7.20844 3.99276V5.73705H17.5124C18.0889 5.78604 17.9677 6.77511 17.5124 6.80919H12.3204C12.176 6.80919 12.0497 6.9063 12.0128 7.04596L10.9838 10.9299C10.9582 11.0266 10.9711 11.1294 11.0198 11.2168L13.0412 14.8414C13.1706 15.4202 12.8667 15.8879 12.3223 15.8879H8.22105C7.65946 15.9475 7.37867 14.5947 8.22105 14.3649H10.9317C10.9863 14.3649 11.0205 14.306 10.9933 14.2586L9.67592 11.9654C9.41107 11.745 9.15323 11.7671 8.90169 11.9995L3.00514 17.9044C2.34147 18.2021 1.62676 17.3002 1.94163 16.9174L7.88922 10.9613L8.96297 7.04787C9.0007 6.91054 8.8973 6.77497 8.75486 6.77497H6.73781C6.42382 6.77497 6.16847 6.52167 6.16613 6.20753L6.14493 3.38861Z" fill="white"/>
</g>
<defs>
<clipPath id="clip0_7377_164158">
<rect width="16.5" height="17.6579" fill="white" transform="translate(1.8457 0.882812)"/>
</clipPath>
</defs>
</svg>
