<svg width="20" height="20" viewBox="0 0 20 20" fill="none" xmlns="http://www.w3.org/2000/svg">
<path d="M18.8707 13.5969C18.8707 14.7982 17.897 15.7719 16.6961 15.7719C15.4952 15.7719 14.5215 14.7982 14.5215 13.5969C14.5215 12.3955 15.4952 11.4219 16.6961 11.4219C17.897 11.4219 18.8707 12.3955 18.8707 13.5969Z" stroke="white" stroke-width="2"/>
<ellipse cx="4.95255" cy="4.07579" rx="1.58731" ry="1.58751" fill="white"/>
<path d="M5.34925 13.5969C5.34925 14.7982 4.37552 15.7719 3.17463 15.7719C1.97373 15.7719 1 14.7982 1 13.5969C1 12.3955 1.97373 11.4219 3.17463 11.4219C4.37552 11.4219 5.34925 12.3955 5.34925 13.5969Z" stroke="white" stroke-width="2"/>
<path d="M13.6797 7.57031L15.9015 11.0632" stroke="white" stroke-width="2" stroke-linecap="round"/>
<line x1="14.2051" y1="6.97656" x2="14.2051" y2="8.15157" stroke="white" stroke-width="2" stroke-linecap="round"/>
<path d="M9.2337 10.7388L7.78116 7.05111C7.44606 6.20037 6.47645 5.79214 5.63376 6.147C4.81324 6.49252 4.42224 7.43289 4.75588 8.25831L6.7107 13.0945C6.96831 13.7318 7.67963 14.0561 8.32972 13.8326L12.2496 12.485L16.27 14.6295C16.6816 14.849 17.1931 14.6981 17.4196 14.2904C17.637 13.899 17.5157 13.4063 17.1414 13.1606L13.1373 10.5326C12.8719 10.3584 12.5526 10.2861 12.2381 10.329L9.2337 10.7388Z" fill="white"/>
<path d="M9.359 7.40532L6.53711 5.97656L7.10149 8.04032L9.359 8.83407L12.4243 8.70206C12.7714 8.68711 13.0451 8.40138 13.0451 8.05399C13.0451 7.69574 12.7547 7.40532 12.3964 7.40532H9.359Z" fill="white"/>
</svg>
