<svg width="20" height="20" viewBox="0 0 20 20" fill="none" xmlns="http://www.w3.org/2000/svg">
<circle cx="4.38201" cy="10.0168" r="1.22771" fill="white"/>
<path d="M10.4173 5.30986C8.53701 5.23484 7.20861 5.99002 6.17542 6.69473C5.49615 7.15804 5.32834 8.14166 5.82168 8.79943C6.18163 9.27936 6.81245 9.4685 7.37708 9.26581L9.23764 8.59791C10.0083 8.32127 10.8415 8.26862 11.6408 8.44605C12.009 8.52776 12.282 8.83814 12.3162 9.21368L12.4635 10.8341L12.113 11.8859C12.0183 12.1699 12.1291 12.4819 12.3816 12.6426C12.7368 12.8686 13.2099 12.7041 13.3482 12.3065L13.8958 10.7317L13.9981 8.89016L15.0212 10.0161L13.7316 13.111C13.5913 13.4478 13.7218 13.8364 14.0369 14.0202C14.4026 14.2336 14.8726 14.0912 15.0584 13.7107L15.9618 11.8608C16.5413 10.6742 16.687 9.27625 15.9184 8.20247C15.005 6.92641 13.321 5.4257 10.4173 5.30986Z" fill="white"/>
<rect x="6.42578" y="3.0625" width="1.43233" height="4.09237" rx="0.716165" fill="white"/>
<rect x="11.1641" y="3.26562" width="1.43233" height="4.09237" rx="0.716165" transform="rotate(45 11.1641 3.26562)" fill="white"/>
<line x1="2.41211" y1="7.35547" x2="2.41211" y2="16.466" stroke="white" stroke-linecap="round"/>
<line x1="18.084" y1="7.35547" x2="18.084" y2="16.466" stroke="white" stroke-linecap="round"/>
<line x1="1.91211" y1="10.9062" x2="18.089" y2="10.9062" stroke="white"/>
</svg>
