<svg width="20" height="20" viewBox="0 0 20 20" fill="none" xmlns="http://www.w3.org/2000/svg">
<mask id="mask0_7377_163597" style="mask-type:alpha" maskUnits="userSpaceOnUse" x="8" y="1" width="4" height="3">
<path d="M8.86548 1.14627H11.6357V3.93704H8.86548V1.14627Z" fill="white"/>
</mask>
<g mask="url(#mask0_7377_163597)">
<path fill-rule="evenodd" clip-rule="evenodd" d="M10.2506 3.93738C11.0155 3.93738 11.6357 3.31255 11.6357 2.54199C11.6357 1.7711 11.0155 1.14627 10.2506 1.14627C9.48571 1.14627 8.86548 1.7711 8.86548 2.54199C8.86548 3.31255 9.48571 3.93738 10.2506 3.93738Z" fill="white"/>
</g>
<mask id="mask1_7377_163597" style="mask-type:alpha" maskUnits="userSpaceOnUse" x="3" y="2" width="13" height="17">
<path d="M3.95532 2.3093H15.5357V18.8057H3.95532V2.3093Z" fill="white"/>
</mask>
<g mask="url(#mask1_7377_163597)">
<path fill-rule="evenodd" clip-rule="evenodd" d="M9.82801 13.882C9.82504 13.8523 9.82537 13.8224 9.82735 13.7935C9.82867 13.7642 9.83032 13.8028 9.83197 13.8154L9.83594 13.8673L9.84188 13.9355C9.83858 13.9172 9.82966 13.9003 9.82801 13.882ZM15.5353 8.65275C15.5492 8.28876 15.2675 7.98267 14.9061 7.9687L13.0514 7.89716L12.124 7.86422L12.0504 7.86156L11.9764 7.76375L9.70879 4.77268C9.69954 4.7607 9.68831 4.7464 9.67873 4.73509C9.58725 4.62662 9.4743 4.54943 9.35276 4.49687C9.10341 4.34149 8.81311 4.24733 8.50002 4.24733C8.40094 4.24733 8.30549 4.25998 8.21104 4.27694V2.9654C8.21104 2.60441 7.91843 2.3093 7.56009 2.3093H6.44545C6.14689 2.3093 5.9025 2.5555 5.9025 2.85627V9.38338C5.9025 9.82056 6.2572 10.1782 6.6915 10.1782H6.86422V11.3993C6.86422 11.4079 6.86687 11.4159 6.86687 11.4249C6.83516 11.4918 6.80841 11.5626 6.79223 11.6385L6.78727 11.6598C6.74632 11.8461 6.67531 12.1 6.60629 12.3229C6.53396 12.5531 6.45536 12.7827 6.37015 13.0109C6.20072 13.4671 6.00389 13.9149 5.78426 14.3484C5.56695 14.7839 5.3242 15.2058 5.0557 15.6067C4.79479 16.0146 4.49326 16.3883 4.18545 16.7559L4.1587 16.7878C3.86113 17.1448 3.89251 17.6778 4.23698 17.9959C4.59102 18.3226 5.14058 18.2987 5.4649 17.9423C5.84305 17.5271 6.21129 17.1009 6.53099 16.6425C6.85927 16.1896 7.15552 15.7165 7.42303 15.2288C7.69286 14.7423 7.93593 14.2419 8.14928 13.7279C8.22788 13.5393 8.29922 13.3466 8.37089 13.154L9.50567 13.9066L9.85278 14.1368L9.85972 14.1411L9.87194 14.2842L10.156 17.6203C10.1896 18.0179 10.5027 18.3456 10.9106 18.3809C11.3667 18.4205 11.768 18.0798 11.8073 17.6203L12.0916 14.2842L12.127 13.8673L12.1316 13.8154C12.1326 13.7928 12.1349 13.7968 12.1349 13.7329C12.1356 13.6344 12.1276 13.5353 12.1118 13.4375C12.0804 13.2415 12.0163 13.0502 11.9229 12.8735C11.8294 12.6968 11.7056 12.5351 11.5589 12.3971L11.4347 12.2839L11.3591 12.2121L11.0563 11.926L10.1352 11.0559V8.02659L10.721 8.71929L10.8736 8.90062C10.9694 9.03104 11.1441 9.18741 11.3178 9.26893C11.4955 9.35776 11.699 9.40268 11.8918 9.39902L12.124 9.3907L13.0514 9.35809L14.3454 9.30819V18.473C14.3454 18.657 14.493 18.8057 14.6756 18.8057C14.8579 18.8057 15.0059 18.657 15.0059 18.473V9.27259C15.2972 9.21503 15.5234 8.96416 15.5353 8.65275Z" fill="white"/>
</g>
</svg>
