<svg width="20" height="20" viewBox="0 0 20 20" fill="none" xmlns="http://www.w3.org/2000/svg">
<g clip-path="url(#clip0_7377_163590)">
<path d="M5.6355 18.0381V18.8082H17.3273V0.750275H16.6488L15.8137 2.29049L15.1874 6.32693L13.9346 6.96423L12.6036 10.7086L13.5431 13.444L13.2299 14.7716L10.2808 15.5949L10.1765 16.8431L5.6355 18.0381Z" fill="white"/>
<path d="M7.25537 2.98015C7.25537 3.32527 7.39011 3.65626 7.62994 3.9003C7.86977 4.14434 8.19505 4.28144 8.53422 4.28144C8.8734 4.28144 9.19868 4.14434 9.43851 3.9003C9.67834 3.65626 9.81307 3.32527 9.81307 2.98015C9.81307 2.63503 9.67834 2.30404 9.43851 2.06C9.19868 1.81596 8.8734 1.67886 8.53422 1.67886C8.19505 1.67886 7.86977 1.81596 7.62994 2.06C7.39011 2.30404 7.25537 2.63503 7.25537 2.98015Z" fill="white"/>
<path d="M3.14161 8.43495L5.38988 4.59792C5.45434 4.48787 5.42234 4.34571 5.31707 4.27518L4.68803 3.85412C4.32232 3.60933 3.8298 3.72355 3.60455 4.10555L1.61233 7.48449C1.54604 7.597 1.58093 7.74286 1.69075 7.81154L2.81609 8.51613C2.92789 8.58636 3.07441 8.54978 3.14161 8.43495ZM9.41983 7.44852L12.3558 8.3249C12.6939 8.48989 12.4167 9.38942 11.9643 9.34064L8.85496 8.42044C8.79854 8.40376 8.75012 8.36657 8.71889 8.31594L7.98444 7.12687C7.90177 6.99305 7.70883 6.99737 7.63192 7.13458L6.28724 9.53744C6.24067 9.62063 6.28133 9.72635 6.37097 9.75537L8.87634 10.5655C9.11449 10.6425 9.27633 10.8676 9.27633 11.1219V15.3289C9.27633 15.769 8.92579 16.1257 8.49334 16.1257C8.06089 16.1257 7.71034 15.769 7.71034 15.3289V11.9772C7.71034 11.9332 7.68243 11.8943 7.64133 11.8807L5.31692 11.1209C5.07452 11.0417 4.82667 11.2255 4.82667 11.4847V14.528C4.82667 14.6179 4.80286 14.706 4.75781 14.7832L2.69202 18.3223C2.461 18.7182 1.95316 18.8398 1.57274 18.5906C1.20612 18.3503 1.09675 17.855 1.32716 17.4782L3.22079 14.38C3.25552 14.3232 3.27403 14.2579 3.27433 14.1911L3.29936 9.54376C3.29966 9.4802 3.31635 9.41782 3.34775 9.36287L5.85752 4.95878C6.20336 4.40437 7.21464 4.02931 7.86703 4.85259L9.41983 7.44852Z" fill="white"/>
</g>
<defs>
<clipPath id="clip0_7377_163590">
<rect width="19" height="19" fill="white" transform="translate(0 0.5)"/>
</clipPath>
</defs>
</svg>
