<svg width="20" height="20" viewBox="0 0 20 20" fill="none" xmlns="http://www.w3.org/2000/svg">
<g clip-path="url(#clip0_7377_164202)">
<path d="M6.5998 12.0973L7.08968 12.3814L4.52276 16.7411C4.3176 17.0874 3.81002 17.2487 3.56268 17.0155L3.03367 16.4865C2.91552 16.2641 3.18375 15.9299 3.4255 16.0554C3.65395 16.2385 3.81254 16.8931 4.11124 16.413L6.5998 12.0973Z" fill="white"/>
<path d="M1.26855 16.4801C1.26855 16.6477 1.33512 16.8084 1.45362 16.9269C1.57212 17.0454 1.73283 17.112 1.90041 17.112C2.06798 17.112 2.2287 17.0454 2.34719 16.9269C2.46569 16.8084 2.53226 16.6477 2.53226 16.4801C2.53226 16.3125 2.46569 16.1518 2.34719 16.0333C2.2287 15.9148 2.06798 15.8483 1.90041 15.8483C1.73283 15.8483 1.57212 15.9148 1.45362 16.0333C1.33512 16.1518 1.26855 16.3125 1.26855 16.4801Z" fill="white"/>
<path d="M8.04395 3.95159C8.04393 4.11853 8.07679 4.28384 8.14067 4.43808C8.20454 4.59232 8.29817 4.73246 8.41621 4.85052C8.53425 4.96857 8.67439 5.06221 8.82862 5.1261C8.98285 5.18999 9.14816 5.22288 9.3151 5.22288C9.48204 5.22288 9.64735 5.18999 9.80158 5.1261C9.95581 5.06221 10.0959 4.96857 10.214 4.85052C10.332 4.73246 10.4257 4.59232 10.4895 4.43808C10.5534 4.28384 10.5863 4.11853 10.5863 3.95159C10.5863 3.78464 10.5534 3.61933 10.4895 3.4651C10.4257 3.31086 10.332 3.17071 10.214 3.05266C10.0959 2.93461 9.95581 2.84096 9.80158 2.77707C9.64735 2.71318 9.48204 2.6803 9.3151 2.6803C9.14816 2.6803 8.98285 2.71318 8.82862 2.77707C8.67439 2.84096 8.53425 2.93461 8.41621 3.05266C8.29817 3.17071 8.20454 3.31086 8.14067 3.4651C8.07679 3.61933 8.04393 3.78464 8.04395 3.95159Z" fill="white"/>
<path d="M15.3534 9.07924V13.0324L18.1602 15.9568C18.5619 16.6133 17.5185 17.2108 17.1168 16.9562L13.9894 13.7998C13.9405 13.7506 13.9133 13.6841 13.9133 13.6148V11.3276C13.9084 11.1464 13.7615 11.0436 13.5361 11.2248L10.9521 12.7016V16.3976C10.7867 17.1728 9.52304 16.9928 9.4311 16.3976V12.2377C9.4311 12.0239 9.54247 11.8255 9.72501 11.7141L12.2468 10.175C12.339 10.1188 12.3534 9.99049 12.2757 9.91532L10.1995 7.90321C10.1222 7.82831 9.99537 7.84507 9.94015 7.93741L7.63094 11.7978C7.34436 12.1652 6.46756 11.7047 6.72714 11.21L9.96011 5.77269C10.2907 5.2216 11.2423 4.9571 11.8852 5.40534L15.1917 8.7192C15.2832 8.81553 15.338 8.93501 15.3534 9.07924Z" fill="white"/>
</g>
<defs>
<clipPath id="clip0_7377_164202">
<rect width="18" height="18" fill="white" transform="translate(1.09473 0.902344)"/>
</clipPath>
</defs>
</svg>
