<svg width="20" height="20" viewBox="0 0 20 20" fill="none" xmlns="http://www.w3.org/2000/svg">
<g clip-path="url(#clip0_7377_164045)">
<path d="M9.94336 2.57985C9.94336 2.69787 9.96701 2.81473 10.013 2.92377C10.0589 3.0328 10.1263 3.13188 10.2112 3.21533C10.2961 3.29878 10.3968 3.36498 10.5078 3.41014C10.6187 3.4553 10.7376 3.47855 10.8577 3.47855C10.9777 3.47855 11.0966 3.4553 11.2076 3.41014C11.3185 3.36498 11.4193 3.29878 11.5042 3.21533C11.5891 3.13188 11.6564 3.0328 11.7024 2.92377C11.7483 2.81473 11.772 2.69787 11.772 2.57985C11.772 2.46183 11.7483 2.34497 11.7024 2.23593C11.6564 2.1269 11.5891 2.02783 11.5042 1.94438C11.4193 1.86092 11.3185 1.79473 11.2076 1.74956C11.0966 1.7044 10.9777 1.68115 10.8577 1.68115C10.7376 1.68115 10.6187 1.7044 10.5078 1.74956C10.3968 1.79473 10.2961 1.86092 10.2112 1.94438C10.1263 2.02783 10.0589 2.1269 10.013 2.23593C9.96701 2.34497 9.94336 2.46183 9.94336 2.57985Z" fill="white"/>
<path d="M11.347 13.1741H12.8247L10.9408 17.7856C10.7607 18.1397 10.1834 17.999 10.1834 17.604L11.347 13.1741ZM6.88157 12.5796V15.2348L8.57163 17.4406C8.78555 17.9006 8.28072 18.0943 8.0175 17.8763L6.0173 15.598C5.95703 15.5293 5.91416 15.4477 5.8922 15.3596L5.49634 13.7777L6.88157 12.5796Z" fill="white"/>
<path d="M18.496 5.5681L18.9947 5.05967C19.0941 4.89291 19.0538 4.79164 18.8838 4.75104H16.1871C15.0007 4.86556 13.9647 5.25801 13.1394 6.04015C13.39 7.10939 12.7731 7.30176 11.9572 7.29289L11.5047 8.03734H10.9967C11.5794 8.42005 11.5593 8.81832 11.5047 9.21747L9.79611 12.0678C9.15893 12.6704 7.74586 12.0224 8.11523 10.9603L9.07218 9.35789C9.09483 9.31991 9.08298 9.27116 9.04538 9.2473L7.41943 8.21778C7.27067 8.12351 7.09781 8.07256 6.92082 8.07081L5.36312 8.05539C4.79597 8.2041 4.44718 8.4701 4.20868 8.79518L3.14204 8.83607C2.86194 8.94855 2.67674 9.18894 2.54631 9.50326L0.804149 13.1817C0.726131 13.3466 0.797043 13.5426 0.963443 13.6219C1.7497 13.9969 2.44594 13.5921 2.70235 12.7513C2.70931 12.7286 2.71316 12.705 2.71464 12.6813L2.8649 10.0753C2.96616 9.59086 3.27483 9.39718 3.70993 9.38088C3.23057 10.1357 3.33582 10.8627 3.6667 11.579C3.68624 11.6214 3.69631 11.6674 3.6969 11.7139L3.70993 12.8668L2.4908 14.3102L1.96436 17.6735C2.01973 18.0684 2.48162 18.0956 2.58777 17.7279L3.37742 15.0318L6.72097 12.1835C6.83555 12.086 6.9984 12.0655 7.13415 12.1315L8.22597 12.6625L12.7059 12.7011C12.8738 12.7025 13.0277 12.7931 13.1086 12.9377L15.8454 17.837C16.0947 18.2138 16.6761 18.0357 16.5381 17.4967L14.6837 11.8185C14.646 11.7031 14.6883 11.5774 14.7881 11.5061C14.9067 11.4214 15.0045 11.2988 15.0697 11.1237L16.0602 7.29289C16.0804 7.21489 16.1896 7.2066 16.2217 7.28052L17.0835 9.26083C17.122 9.34916 17.2124 9.4046 17.31 9.3995L18.329 9.34683C18.3654 9.34494 18.3997 9.32947 18.4249 9.30356C18.4501 9.27765 18.4643 9.24327 18.4646 9.20743L18.496 5.5681Z" fill="white"/>
<path d="M10.8299 6.04344H12.4652C12.7945 6.1175 12.7669 6.74394 12.4652 6.80593H10.1838C9.96116 6.78003 9.83784 6.59232 9.86612 6.27873C9.87026 6.2329 9.80868 6.21325 9.78514 6.25283L9.10903 7.38625C9.08031 7.43441 9.096 7.49655 9.14441 7.52579L10.8582 8.56244C11.2059 8.73138 11.1722 8.96639 10.8582 9.32494L9.43132 11.7895C9.00185 11.9998 8.39235 11.5398 8.55861 11.204L9.70475 9.24869C9.73777 9.19237 9.71956 9.12064 9.6636 9.08615L7.35339 7.66374C7.10557 7.52157 7.12585 7.12359 7.35339 6.76504L8.98808 3.98717C9.28357 3.61494 9.67337 3.40889 10.1841 3.68755C10.3894 3.82928 10.5483 3.9863 10.6438 4.16411C10.6571 4.18914 10.6645 4.21679 10.6647 4.24502L10.6771 5.89399C10.6774 5.97679 10.7458 6.04344 10.8299 6.04344Z" fill="white"/>
</g>
<defs>
<clipPath id="clip0_7377_164045">
<rect width="18.5317" height="19.7083" fill="white" transform="translate(0.603516)"/>
</clipPath>
</defs>
</svg>
