<svg width="20" height="20" viewBox="0 0 20 20" fill="none" xmlns="http://www.w3.org/2000/svg">
<path fill-rule="evenodd" clip-rule="evenodd" d="M14.3647 1.1737C14.6518 1.30776 14.6595 1.58739 14.4328 1.95923L11.9355 6.91103L11.7543 10.5606C12.3579 10.5215 14.354 10.171 14.8797 10.0444C15.4054 9.91768 15.4237 9.79364 15.6155 10.2367C15.6457 10.7356 15.9926 10.7041 14.7162 11.0646C14.1885 11.2137 12.5608 11.3799 11.9978 11.4259C12.0463 11.6598 12.2008 12.3976 12.6709 14.5895C12.8702 15.7068 13.2328 17.4277 13.4034 18.3818C13.5011 18.9274 13.2834 19.067 12.8891 19.0636C12.6307 19.0615 12.4438 18.5829 12.3204 18.2546C12.1982 17.9281 12.0283 17.3956 11.8582 16.838L11.7564 16.5018C11.6891 16.2777 11.6233 16.0553 11.5619 15.8462L11.4737 15.5441C11.3194 15.0139 11.2108 14.6284 11.2108 14.6284L10.5187 12.7542C10.5212 12.7337 10.5251 12.7137 10.5251 12.6928C10.5251 12.5485 10.4612 12.4187 10.3605 12.326L10.1929 11.8726C10.1814 11.8321 10.1775 11.7894 10.1767 11.7463H9.81837C9.82094 11.8031 9.8158 11.8586 9.80123 11.9106L8.97494 14.6284C8.97494 14.6284 8.8663 15.0139 8.71206 15.5441L8.62379 15.8462C8.37836 16.6824 8.06073 17.7322 7.86494 18.2546C7.74194 18.5829 7.55509 19.0615 7.29666 19.0636C6.90237 19.067 6.68466 18.9274 6.78237 18.3818C6.95294 17.4277 7.24609 15.7068 7.44537 14.5895C7.97121 12.4083 8.03014 11.6662 8.02531 11.4279C4.84127 11.1708 2.5 10.3074 2.5 9.28182C2.5 8.3012 4.642 7.47084 7.61157 7.17499L7.65529 8.04889C5.43014 8.24911 3.86371 8.72555 3.86371 9.28182C3.86371 9.87623 5.65136 10.3798 8.12161 10.5523L7.9318 6.72831L5.52709 1.95923C5.30037 1.58739 5.30809 1.30776 5.59523 1.1737C5.85323 1.05331 6.0388 1.17413 6.31309 1.55366L8.3098 4.49298C8.59137 5.0262 9.30837 5.39249 9.97437 5.39249C10.6404 5.39249 11.3659 5.02918 11.6475 4.49597L11.5955 4.45419C11.6088 4.45419 11.6351 4.49468 11.6475 4.49597L13.6464 1.55366C13.9211 1.17413 14.1062 1.05331 14.3647 1.1737ZM12.2899 7.16432C15.3113 7.45121 17.5 8.29052 17.5 9.28182C17.5 9.83762 16.8124 10.3458 15.6757 10.7356C15.6804 10.6964 15.6826 10.6564 15.6826 10.6158C15.6327 10.3744 15.5854 10.0988 15.4237 9.90596C15.8786 9.72005 16.1363 9.50749 16.1363 9.28182C16.1363 8.71744 14.5227 8.23588 12.2457 8.04078L12.2899 7.16432ZM11.3865 3.15088C11.439 3.90713 10.8679 4.56279 10.1104 4.61498C9.35299 4.66717 8.69677 4.0969 8.64431 3.34065C8.59185 2.58393 9.16294 1.92921 9.92039 1.87655C10.6778 1.82437 11.3341 2.39463 11.3865 3.15088Z" fill="white"/>
</svg>
