<svg width="20" height="20" viewBox="0 0 20 20" fill="none" xmlns="http://www.w3.org/2000/svg">
<g clip-path="url(#clip0_7377_164356)">
<path d="M5.4375 2.76016C5.43748 2.91946 5.46935 3.07721 5.53128 3.22439C5.59321 3.37157 5.684 3.5053 5.79845 3.61795C5.9129 3.7306 6.04878 3.81996 6.19833 3.88092C6.34787 3.94189 6.50816 3.97327 6.67003 3.97327C6.8319 3.97327 6.99218 3.94189 7.14173 3.88092C7.29128 3.81996 7.42715 3.7306 7.54161 3.61795C7.65606 3.5053 7.74684 3.37157 7.80878 3.22439C7.87071 3.07721 7.90257 2.91946 7.90256 2.76016C7.90257 2.60086 7.87071 2.44312 7.80878 2.29594C7.74684 2.14876 7.65606 2.01503 7.54161 1.90238C7.42715 1.78973 7.29128 1.70037 7.14173 1.6394C6.99218 1.57844 6.8319 1.54706 6.67003 1.54706C6.50816 1.54706 6.34787 1.57844 6.19833 1.6394C6.04878 1.70037 5.9129 1.78973 5.79845 1.90238C5.684 2.01503 5.59321 2.14876 5.53128 2.29594C5.46935 2.44312 5.43748 2.60086 5.4375 2.76016Z" fill="white"/>
<path d="M17.6987 4.04706H7.68999C7.46655 4.05841 7.37285 4.17758 7.32672 4.33505L3.64067 4.301C2.89539 4.43436 3.12459 5.40331 3.64067 5.42175H5.16295C5.25809 5.42175 5.33594 5.49836 5.33594 5.59199V10.2481L3.2774 17.7018C3.19956 18.3927 4.16107 18.77 4.54452 18.1004L6.51513 11.2014C6.62036 10.9035 7.14941 10.7687 7.39447 11.2014L9.23678 17.9458C9.62744 18.8325 10.8484 18.509 10.6509 17.5826L8.6097 10.2906L8.67602 6.33963C8.67746 6.26019 8.7726 6.21904 8.83315 6.27012L10.3684 7.58097C10.465 7.66325 10.6091 7.659 10.7014 7.57246L12.956 5.42317C13.0425 5.31535 13.0237 5.10822 12.956 4.97913L14.0126 4.96778C14.177 4.95643 14.262 4.76349 14.2361 4.43152L17.6973 4.39747C17.8688 4.40456 17.951 4.08252 17.6987 4.04706ZM11.8705 5.08553L10.5875 6.2914C10.5457 6.33112 10.478 6.33112 10.4347 6.29281L9.12001 5.08553C9.08686 5.05573 9.10848 5.00041 9.15461 5.00041H11.8359C11.8806 5.00041 11.9022 5.05431 11.8705 5.08553Z" fill="white"/>
</g>
<defs>
<clipPath id="clip0_7377_164356">
<rect width="16.8421" height="18.1579" fill="white" transform="translate(2.36914 1.05469)"/>
</clipPath>
</defs>
</svg>
