<svg width="20" height="20" viewBox="0 0 20 20" fill="none" xmlns="http://www.w3.org/2000/svg">
<path d="M4.06665 3.66306C4.06663 3.82661 4.09883 3.98857 4.1614 4.13967C4.22398 4.29078 4.3157 4.42808 4.43135 4.54373C4.54699 4.65938 4.68428 4.75113 4.83537 4.81372C4.98647 4.87631 5.14842 4.90853 5.31197 4.90853C5.47552 4.90853 5.63747 4.87631 5.78857 4.81372C5.93967 4.75113 6.07696 4.65938 6.1926 4.54373C6.30824 4.42808 6.39997 4.29078 6.46254 4.13967C6.52512 3.98857 6.55732 3.82661 6.5573 3.66306C6.55732 3.49951 6.52512 3.33756 6.46254 3.18646C6.39997 3.03535 6.30824 2.89805 6.1926 2.7824C6.07696 2.66674 5.93967 2.575 5.78857 2.51241C5.63747 2.44982 5.47552 2.4176 5.31197 2.4176C5.14842 2.4176 4.98647 2.44982 4.83537 2.51241C4.68428 2.575 4.54699 2.66674 4.43135 2.7824C4.3157 2.89805 4.22398 3.03535 4.1614 3.18646C4.09883 3.33756 4.06663 3.49951 4.06665 3.66306Z" fill="#F2F2F2"/>
<path d="M4.48137 6.88988L6.8211 4.70856C6.95234 4.58624 7.12505 4.51826 7.30445 4.51826H10.6184C10.7261 4.51826 10.8295 4.56104 10.9058 4.63729L12.9741 6.70562C13.2194 7.24737 12.5856 7.61537 12.2791 7.38019L10.4806 5.60138C10.4281 5.5494 10.3561 5.52198 10.2824 5.52552L9.32159 5.57276C9.25558 5.57605 9.22434 5.65571 9.27067 5.70295L11.1954 7.66629C11.7101 8.29637 11.739 8.82539 11.2881 9.4594C11.2251 9.54799 11.2348 9.66899 11.3109 9.74642L16.2242 14.7393C16.582 15.1788 15.7337 16.0067 15.2276 15.6898L10.3085 10.6962C10.2312 10.6179 10.1048 10.6176 10.0274 10.6958L8.72406 12.0121C8.65717 12.0797 8.61967 12.1709 8.61973 12.2659V15.5136C8.61973 15.9073 8.30055 16.2265 7.90684 16.2265C7.51312 16.2265 7.19395 15.9073 7.19395 15.5136V11.7021C7.19395 11.5855 7.2408 11.4737 7.32387 11.3919L9.00491 9.73763C9.07171 9.67188 9.07263 9.56453 9.00714 9.4976L6.38026 6.81599C6.27107 6.70457 6.09193 6.70365 5.98169 6.81389L4.62455 8.17103C4.44173 8.35385 4.14553 8.35385 3.96271 8.17103L1.90187 6.11019C1.64884 5.73458 2.25188 5.10083 2.6557 5.44835L4.13477 6.8862C4.23083 6.97965 4.38333 6.98122 4.48137 6.88988Z" fill="#F2F2F2"/>
<path fill-rule="evenodd" clip-rule="evenodd" d="M6.42188 17.002C6.42188 16.6706 6.6905 16.402 7.02188 16.402H9.1289C9.46027 16.402 9.7289 16.6706 9.7289 17.002C9.7289 17.3333 9.46027 17.602 9.1289 17.602H7.02188C6.6905 17.602 6.42188 17.3333 6.42188 17.002Z" fill="#F2F2F2"/>
<path fill-rule="evenodd" clip-rule="evenodd" d="M15.1012 17.1773C14.8711 16.9389 14.8779 16.5591 15.1163 16.329L16.8307 14.6744C17.0692 14.4443 17.449 14.4511 17.6791 14.6895C17.9093 14.9279 17.9025 15.3078 17.6641 15.5379L15.9496 17.1924C15.7112 17.4225 15.3313 17.4158 15.1012 17.1773Z" fill="#F2F2F2"/>
</svg>
