<svg width="20" height="20" viewBox="0 0 20 20" fill="none" xmlns="http://www.w3.org/2000/svg">
<g clip-path="url(#clip0_7377_164312)">
<path d="M1.00583 15.892H2.0449C2.44517 15.9686 2.33443 16.5222 2.0449 16.5648H1.00583C0.782436 16.5648 0.612356 16.066 1.00583 15.892ZM16.5036 15.381L18.7391 13.1517C18.9436 12.992 19.3715 13.2922 19.199 13.5669L16.676 16.0387C16.2225 16.307 15.6732 15.8216 15.9479 15.3616C16.1427 15.2213 16.3024 15.3746 16.5036 15.381Z" fill="white"/>
<path d="M5.3728 5.59743C5.3728 5.76038 5.4049 5.92172 5.46725 6.07226C5.52961 6.22281 5.62101 6.35959 5.73623 6.47481C5.85144 6.59003 5.98823 6.68143 6.13877 6.74378C6.28931 6.80614 6.45066 6.83823 6.61361 6.83823C6.77655 6.83823 6.9379 6.80614 7.08844 6.74378C7.23898 6.68143 7.37577 6.59003 7.49098 6.47481C7.6062 6.35959 7.6976 6.22281 7.75996 6.07226C7.82231 5.92172 7.85441 5.76038 7.85441 5.59743C7.85441 5.26835 7.72368 4.95275 7.49098 4.72005C7.25829 4.48736 6.94269 4.35663 6.61361 4.35663C6.28452 4.35663 5.96892 4.48736 5.73623 4.72005C5.50353 4.95275 5.3728 5.26835 5.3728 5.59743Z" fill="white"/>
<path d="M3.98991 14.5196C4.27906 14.2218 5.45962 13.0545 5.45962 13.0545L5.84285 13.4206L3.78804 15.459C3.74599 15.5008 3.68913 15.5242 3.62988 15.5241H1.59341C1.55073 15.5241 1.53022 15.4718 1.5615 15.4429L2.40151 14.6613C2.43497 14.6302 2.4788 14.6125 2.52456 14.6117L3.82919 14.589C3.88981 14.588 3.94762 14.5631 3.98991 14.5196ZM9.22394 15.7882H12.4261C12.7752 15.7797 12.7156 16.4099 12.4261 16.4099H8.9685C8.66192 16.3758 8.26165 15.7031 8.57669 15.4306C8.88763 15.3241 9.14371 15.466 9.22394 15.7882ZM17.4552 13.1885L14.8663 10.5443C14.8062 10.4828 14.7725 10.4003 14.7725 10.3143V6.9226C14.8108 6.27112 14.3893 5.87508 13.7378 5.84957H12.7802C12.7072 5.84957 12.6369 5.82112 12.5845 5.77024L10.8733 4.11135C10.7567 3.9983 10.5711 3.99958 10.4562 4.11429L8.0603 6.50272C8.00801 6.55481 7.96653 6.61671 7.93822 6.68487C7.90991 6.75303 7.89534 6.82611 7.89534 6.89992V10.2209C7.89534 10.3011 7.86368 10.378 7.80716 10.4351L5.84298 12.4157C5.68969 12.7734 6.18147 13.278 6.57533 13.0545L8.82136 10.8166C8.86648 10.7716 8.89198 10.7108 8.8925 10.6471L8.908 8.4978C8.90823 8.46617 8.92096 8.43591 8.94341 8.41363C8.96586 8.39134 8.99621 8.37884 9.02784 8.37886H10.0099C10.0438 8.37886 10.0611 8.41987 10.0373 8.44409L9.28367 9.21349V9.92893L10.8213 8.45742C10.851 8.42897 10.8906 8.41308 10.9319 8.41308H11.7348C11.7891 8.41308 11.8164 8.47857 11.7783 8.51715L9.99218 10.3263C9.93105 10.3882 9.89668 10.4717 9.89644 10.5588L9.88824 14.7408C10.0245 15.5754 11.3276 15.5668 11.3615 14.7408V11.114C11.3615 11.0436 11.3894 10.9761 11.4388 10.9261L13.0996 9.24899C13.1792 9.16863 13.3161 9.22503 13.3161 9.33807V10.9047C13.3161 11.0173 13.3614 11.1251 13.4417 11.2041L16.4587 14.1658C16.9314 14.5278 17.8767 13.8379 17.4552 13.1885ZM10.2508 5.70384L10.6655 5.351C10.6911 5.32908 10.7289 5.32933 10.7544 5.35151L11.1602 5.70436C11.2077 5.74576 11.1785 5.82407 11.1155 5.82407H10.2952C10.2316 5.82394 10.2025 5.74499 10.2508 5.70384Z" fill="white"/>
</g>
<defs>
<clipPath id="clip0_7377_164312">
<rect width="18.4615" height="18.4615" fill="white" transform="translate(0.768555 0.769531)"/>
</clipPath>
</defs>
</svg>
