<svg width="20" height="20" viewBox="0 0 20 20" fill="none" xmlns="http://www.w3.org/2000/svg">
<path fill-rule="evenodd" clip-rule="evenodd" d="M13.7548 5.03907C14.6086 5.19374 15.4296 4.64502 15.5877 3.81273C15.7469 2.98097 15.1835 2.18077 14.3301 2.0261C13.4763 1.87142 12.6559 2.42015 12.4972 3.25243C12.3386 4.0842 12.9015 4.8844 13.7548 5.03907Z" fill="white"/>
<mask id="mask0_7377_163558" style="mask-type:alpha" maskUnits="userSpaceOnUse" x="4" y="4" width="13" height="14">
<path d="M4.75269 4.15752H16.5981V17.0459H4.75269V4.15752Z" fill="white"/>
</mask>
<g mask="url(#mask0_7377_163558)">
<path fill-rule="evenodd" clip-rule="evenodd" d="M9.57479 10.8652C9.52244 10.8089 9.44688 10.74 9.40424 10.7032L9.30601 10.6159L8.52232 9.91719L8.08082 9.51998L10.4184 7.36613L12.5347 8.59195L12.8509 8.77503L13.0371 8.76924L15.9296 8.67717C16.2896 8.66455 16.5859 8.38203 16.5977 8.02586C16.6101 7.65391 16.3111 7.34298 15.9296 7.33088L13.3912 7.24987L11.2506 4.85874C11.1805 4.78088 11.0936 4.70986 11.0018 4.64725C10.3871 4.01961 9.36592 3.99226 8.71824 4.58885L5.25966 7.77596C4.60983 8.37519 4.58069 9.37426 5.19544 10.0077C5.37463 10.1923 5.58998 10.3197 5.81936 10.4012L7.23561 11.4287L8.0846 12.0505L8.19093 12.1284C8.21576 12.1468 8.2055 12.1358 8.21468 12.141C8.22439 12.1442 8.23303 12.1494 8.24166 12.1557C8.25893 12.1721 8.27135 12.1805 8.27836 12.2189L8.51207 16.353C8.5342 16.7323 8.85371 17.0395 9.24988 17.047C9.66601 17.0543 10.0093 16.7318 10.0168 16.3261L10.0978 12.1894C10.1032 11.8832 10.0201 11.5481 9.86355 11.2645C9.78529 11.1209 9.68813 10.9862 9.57479 10.8652Z" fill="white"/>
</g>
<line x1="2.2666" y1="18.1956" x2="17.0756" y2="18.1956" stroke="white" stroke-linecap="round"/>
<path d="M6.89362 14.2872C6.89362 15.6826 5.8315 16.7648 4.58011 16.7648C3.32872 16.7648 2.2666 15.6826 2.2666 14.2872C2.2666 12.8917 3.32872 11.8096 4.58011 11.8096C5.8315 11.8096 6.89362 12.8917 6.89362 14.2872Z" stroke="white"/>
<path d="M17.9436 13.545C17.9436 15.351 16.567 16.766 14.9277 16.766C13.2884 16.766 11.9119 15.351 11.9119 13.545C11.9119 11.7391 13.2884 10.3241 14.9277 10.3241C16.567 10.3241 17.9436 11.7391 17.9436 13.545Z" stroke="white"/>
</svg>
