<svg width="20" height="20" viewBox="0 0 20 20" fill="none" xmlns="http://www.w3.org/2000/svg">
<g clip-path="url(#clip0_7377_163504)">
<path d="M15.297 9.20508L13.8408 9.34046L16.4682 18.0439L17.4096 17.2037L18.4464 16.5538L15.297 9.20508Z" fill="white"/>
<path d="M17.7988 15.4453L2.36843 16.3305C1.40752 16.419 0.896221 16.8575 0.888742 17.3927C0.881366 17.989 1.46038 18.2779 2.36843 18.2779H17.7988C18.7069 18.2779 19.4899 17.6296 19.4899 16.8746C19.4899 16.1198 18.7069 15.4453 17.7988 15.4453Z" fill="white"/>
<path d="M16.6698 5.7067C16.4176 5.50045 16.0545 5.146 15.9435 5.17557C15.8325 5.20514 15.6074 5.47657 15.5399 5.56614C15.4782 5.64463 13.8862 7.71637 13.7645 7.83117C13.3558 7.83117 11.23 7.83722 11.0408 7.83117C10.8516 7.82511 10.6747 8.05158 10.6777 8.18523C10.6887 8.46461 10.6747 8.62956 10.6777 8.71636C10.6807 8.80298 10.8133 9.05401 11.0408 9.07044C11.1265 9.05366 12.7254 9.02703 12.7355 9.06266C12.7421 9.08513 13.2904 9.55728 13.583 9.7786C13.6354 9.80521 13.7847 9.95564 13.9461 9.95564H15.8121C16.0221 9.95072 16.0168 9.81159 15.9575 9.66591C15.7987 9.30104 15.4352 8.44532 15.3583 8.28154C15.2175 8.05609 16.3456 6.48106 16.4882 6.23781C16.6024 6.04437 16.8141 5.84657 16.6698 5.7067Z" fill="white"/>
<g clip-path="url(#clip1_7377_163504)">
<path fill-rule="evenodd" clip-rule="evenodd" d="M8.81416 3.54578C9.64208 3.54578 10.3134 2.88957 10.3134 2.08025C10.3134 1.27094 9.64208 0.615158 8.81416 0.615158C7.98668 0.615158 7.31494 1.27094 7.31494 2.08025C7.31494 2.88957 7.98668 3.54578 8.81416 3.54578Z" fill="white"/>
<path fill-rule="evenodd" clip-rule="evenodd" d="M11.2908 11.3562L11.0889 11.1715L8.38905 8.69883L9.4925 5.82199C9.75072 5.1493 9.40198 4.39897 8.71383 4.14698C8.29379 3.9932 7.81903 4.11517 7.40229 4.19382C6.65379 4.33651 5.90929 4.50219 5.16301 4.65746L5.10267 4.67004L5.06806 4.68349C4.88171 4.75505 4.71 4.86088 4.56802 4.99619C4.4043 5.1571 4.37191 5.22303 4.28318 5.32539L3.81908 5.89833C3.47937 6.28585 3.15792 6.60899 2.85532 6.99673C2.71549 7.17584 2.77819 7.46534 2.93748 7.62105C3.11051 7.79107 3.4385 7.85268 3.61243 7.68309C3.9656 7.33872 4.2672 6.92797 4.61195 6.57666L5.1315 6.05099C5.30366 5.87057 5.36045 5.82373 5.43011 5.79553C5.86758 5.7231 6.3055 5.65197 6.74297 5.57954L5.75976 8.14238C5.50154 8.8155 5.85028 9.5654 6.53843 9.81782C6.57748 9.8317 6.61741 9.83908 6.6569 9.84948L10.1199 12.0992L10.7378 14.5742C10.8223 14.9127 11.1257 15.1368 11.4667 15.0632C11.8051 14.9902 12.0366 14.6389 11.9591 14.3015L11.32 11.5193L11.2908 11.3562Z" fill="white"/>
<path d="M10.3788 6.9078C10.0942 6.84776 9.82904 6.72036 9.60635 6.53664L8.41413 5.55303C8.13027 5.31884 8.09674 4.90098 8.33956 4.6237C8.58644 4.34177 9.02109 4.31636 9.29786 4.56768L10.2298 5.41393C10.4239 5.59021 10.655 5.72261 10.907 5.80189L11.9446 6.12843C12.2043 6.21019 12.3636 6.46647 12.3194 6.73159C12.2681 7.03905 11.9651 7.24246 11.6557 7.17719L10.3788 6.9078Z" fill="white"/>
<path d="M4.03139 13.3539C4.43523 13.1977 4.78651 12.9311 5.04388 12.5855L6.27833 10.9281C6.56045 10.5493 6.44666 10.0149 6.03513 9.78597C5.67174 9.5838 5.20942 9.69757 4.98021 10.0456L4.03104 11.4867C3.81317 11.8175 3.50998 12.0852 3.15307 12.262L1.90681 12.8792C1.63367 13.0145 1.50038 13.3262 1.59358 13.6119C1.70142 13.9424 2.06876 14.1132 2.39778 13.9859L4.03139 13.3539Z" fill="white"/>
</g>
</g>
<defs>
<clipPath id="clip0_7377_163504">
<rect width="19.5" height="18.5" fill="white" transform="translate(0.5 0.5)"/>
</clipPath>
<clipPath id="clip1_7377_163504">
<rect width="13.8636" height="15.2414" fill="white" transform="translate(0.5 0.458984)"/>
</clipPath>
</defs>
</svg>
