<svg width="20" height="20" viewBox="0 0 20 20" fill="none" xmlns="http://www.w3.org/2000/svg">
<path d="M11.0135 5.21146C11.8406 5.21146 12.5275 4.51354 12.5275 3.67491C12.5275 2.83629 11.8388 2.13837 11.0135 2.13837C10.1863 2.13837 9.49763 2.83629 9.49763 3.67491C9.49948 4.51354 10.1882 5.21146 11.0135 5.21146ZM14.3203 9.12131L12.461 8.42339L11.2904 6.25834C11.2221 6.18892 11.152 6.11951 11.152 6.04821L11.0135 5.90938C10.5316 5.41971 9.8429 5.3503 9.22253 5.62984L5.98588 6.74801C5.71077 6.81743 5.50398 7.09697 5.43567 7.37651L5.16056 9.95994C5.09225 10.3783 5.43567 10.7986 5.84925 10.868H5.91756C6.33115 10.868 6.67457 10.5884 6.67457 10.1701L6.88136 8.14572L8.12026 7.72735C7.91347 8.21702 7.70668 8.70481 7.57005 9.05377C7.29494 9.68227 7.29494 10.5209 7.63836 11.2188L5.50398 16.2468C5.29719 16.7365 5.50952 17.35 5.98588 17.5733C6.53055 17.8284 7.18047 17.3538 7.36325 16.9448L8.94742 13.3145C9.91121 15.0611 11.0135 17.0855 11.0135 17.1549C11.2203 17.5038 11.5637 17.714 11.909 17.714C12.0474 17.714 12.2524 17.6446 12.3909 17.5751C12.8728 17.2956 13.0795 16.6671 12.8044 16.1793C12.7361 16.0405 11.0836 12.898 9.98138 11.0124L10.9452 8.8474L11.2886 9.4759C11.3569 9.68602 11.5637 9.75544 11.7022 9.82486L13.8365 10.6579C13.9049 10.6579 14.0433 10.7273 14.1117 10.7273C14.4551 10.7273 14.732 10.5171 14.8687 10.1682C14.9388 9.74981 14.732 9.26202 14.3203 9.12131Z" fill="white"/>
</svg>
