<svg width="20" height="20" viewBox="0 0 20 20" fill="none" xmlns="http://www.w3.org/2000/svg">
<g clip-path="url(#clip0_23529_19559)">
<path d="M10.4594 3.83291C10.2451 4.00712 10.2127 4.32201 10.3869 4.53625C10.5612 4.75048 10.8761 4.78293 11.0903 4.60873L14.773 1.61451C14.9872 1.44031 15.0197 1.12541 14.8454 0.911179C14.6712 0.696943 14.3563 0.664493 14.142 0.838698L10.4594 3.83291Z" fill="#F2F2F2"/>
<path d="M3.15043 8.99619C2.93106 9.1639 2.8892 9.47768 3.05694 9.69704C3.22469 9.91639 3.53851 9.95825 3.75789 9.79054L4.98868 8.84961L6.13089 9.89651C6.61704 10.3421 7.36388 10.3397 7.84716 9.89099L8.69972 9.09942L9.67581 11.9053L9.45815 14.8434C9.44073 15.0785 9.37915 15.3083 9.27662 15.5206L8.04184 18.0781C7.86361 18.4472 8.00627 18.8913 8.36615 19.0876C8.74843 19.2961 9.22741 19.1459 9.42217 18.7564L10.8668 15.8674C10.9668 15.6674 11.0315 15.4518 11.0582 15.2299L11.384 12.5153L12.704 14.3065C12.9561 14.6487 13.0921 15.0625 13.0921 15.4876V18.7371C13.0921 19.1414 13.4199 19.4691 13.8242 19.4691C14.2285 19.4691 14.5562 19.1414 14.5562 18.7371V14.9993C14.5562 14.5722 14.4339 14.1541 14.2037 13.7944L12.6041 11.2954L11.384 8.00145L12.8872 7.46463C13.0232 7.41607 13.1521 7.3495 13.2704 7.26671L15.0742 6.00415C15.331 5.82443 15.4021 5.47511 15.2359 5.20934C15.0629 4.93258 14.6979 4.84924 14.4219 5.02351L12.6041 6.1715L12.2406 6.21426C11.1047 6.34787 9.99043 6.62525 8.92449 7.03973L8.33369 7.26947L6.86956 8.61143L6.16288 7.95194L7.54299 6.89685C7.76237 6.72914 7.80423 6.41536 7.63648 6.196C7.46874 5.97665 7.15491 5.93478 6.93553 6.1025L5.39096 7.28331C5.1073 7.15424 4.76051 7.21719 4.54175 7.46326C4.38982 7.63417 4.33251 7.85676 4.36652 8.06649L3.15043 8.99619Z" fill="#F2F2F2"/>
<path d="M10.0404 5.15014C10.0404 5.8239 9.49417 6.37009 8.82039 6.37009C8.14662 6.37009 7.60042 5.8239 7.60042 5.15014C7.60042 4.47638 8.14662 3.93019 8.82039 3.93019C9.49417 3.93019 10.0404 4.47638 10.0404 5.15014Z" fill="#F2F2F2"/>
</g>
<defs>
<clipPath id="clip0_23529_19559">
<rect width="20" height="20" fill="white"/>
</clipPath>
</defs>
</svg>
