<svg width="20" height="20" viewBox="0 0 20 20" fill="none" xmlns="http://www.w3.org/2000/svg">
<path d="M10.0853 0.908854C9.23419 1.02112 8.63743 1.80145 8.74969 2.65257C8.86195 3.5037 9.64228 4.10045 10.4934 3.98819C11.3428 3.8761 11.9413 3.0956 11.8292 2.2462C11.7169 1.39507 10.9382 0.796421 10.0853 0.908854Z" fill="white"/>
<path d="M11.8115 1.4392C11.7426 1.6207 11.7788 1.82537 11.9059 1.97214L13.6272 3.96021L10.8629 4.31405L9.64535 4.62722L6.28756 5.392L3.92049 6.01012C3.63015 6.08594 3.45446 6.38083 3.526 6.67226C3.59904 6.96981 3.90149 7.15001 4.19794 7.0726L6.54939 6.45855L8.92937 6.05572L11.4491 5.50451L13.9715 5.02896C14.8592 4.86159 15.1965 3.76818 14.5573 3.12984L12.678 1.25307C12.4071 0.982552 11.9474 1.0813 11.8115 1.4392Z" fill="white"/>
<path d="M12.6498 5.83157C12.5735 4.73068 11.4121 4.0441 10.4145 4.51599L9.45817 5.33638C9.47889 5.5452 9.60979 5.84436 9.63687 6.11726C9.63687 6.11726 9.73522 7.17767 9.90222 8.90679C10.0547 10.4854 11.5441 11.5815 13.0972 11.2607C12.9069 9.34072 12.7533 7.32387 12.6498 5.83157Z" fill="white"/>
<path d="M11.3984 11.285L13.2057 12.1983L14.2185 17.9336C14.2853 18.3118 14.0404 18.6749 13.6648 18.7548C13.2778 18.8371 12.8979 18.5885 12.8183 18.2009L11.3984 11.285Z" fill="white"/>
<path d="M10.5015 10.2604L12.9405 10.0163L14.0683 12.9411C14.3102 13.5687 14.2218 14.2757 13.8327 14.8243L11.4163 18.2311C11.1894 18.5511 10.7467 18.628 10.425 18.4033C10.0989 18.1755 10.0219 17.7251 10.2538 17.4018L12.6011 14.1298L10.5015 10.2604Z" fill="white"/>
</svg>
