<svg width="20" height="20" viewBox="0 0 20 20" fill="none" xmlns="http://www.w3.org/2000/svg">
<path fill-rule="evenodd" clip-rule="evenodd" d="M4.67889 5.66248C5.32674 5.66248 5.85193 5.13729 5.85193 4.48944C5.85193 3.84159 5.32674 3.31641 4.67889 3.31641C4.03105 3.31641 3.50586 3.84159 3.50586 4.48944C3.50586 5.13729 4.03105 5.66248 4.67889 5.66248ZM7.93913 6.49963L9.5549 8.46163C9.80253 8.76232 9.86654 9.1741 9.72187 9.53578L10.6603 11.6472L12.4132 13.6923C12.6155 13.9284 12.602 14.2803 12.3822 14.5002C12.1457 14.7367 11.7607 14.7318 11.5303 14.4892L9.72187 12.5857L8.31422 10.1223L5.85085 11.8818V14.4039C5.85085 14.7602 5.562 15.049 5.20568 15.049C4.84936 15.049 4.56051 14.7602 4.56051 14.4039V11.489C4.56051 11.22 4.68967 10.9674 4.90773 10.81L6.67197 9.53578L5.38164 8.01083L4.39635 9.68581C4.27513 9.8919 4.08476 10.0483 3.85908 10.1273L2.01025 10.7742C1.74148 10.8683 1.44682 10.7304 1.34684 10.4638C1.25003 10.2056 1.36995 9.91657 1.62109 9.80277L3.50478 8.94926L4.18855 7.58173C4.43427 7.09029 4.7715 6.65025 5.18216 6.28522C5.99571 5.56206 7.24717 5.65938 7.93913 6.49963Z" fill="white"/>
<path fill-rule="evenodd" clip-rule="evenodd" d="M10.6093 7.72801C11.2188 7.50857 11.5351 6.83654 11.3157 6.22699C11.0962 5.61743 10.4242 5.30119 9.81463 5.52063C9.20507 5.74007 8.88883 6.41211 9.10827 7.02166C9.32771 7.63121 9.99974 7.94746 10.6093 7.72801ZM14.1368 7.50454L16.9077 9.13896C17.2894 9.36409 17.4317 9.84621 17.2335 10.2426L16.1778 12.5317L16.3556 14.7085C16.3862 15.0831 16.0905 15.4039 15.7147 15.4039C15.3799 15.4039 15.1011 15.147 15.0738 14.8132L14.8875 12.5317L15.1221 11.5329L13.4626 12.9334L13.4626 16.074C13.4626 16.4166 13.1849 16.6943 12.8424 16.6943C12.5103 16.6943 12.2372 16.4327 12.2228 16.101L12.0846 12.9231C12.0737 12.6729 12.1645 12.4289 12.3362 12.2466L13.7982 10.6952L12.0676 9.69746L11.5348 11.2749C11.4297 11.5859 11.1878 11.8316 10.8784 11.9414L8.61569 12.7447C8.33118 12.8457 8.02173 12.6785 7.95023 12.3852C7.8918 12.1455 8.01347 11.8984 8.23905 11.7986L10.43 10.829L10.7506 9.48741C10.8482 9.07887 10.9994 8.68502 11.2003 8.31611C11.7733 7.26365 13.1046 6.89572 14.1368 7.50454Z" fill="white"/>
</svg>
