<svg width="20" height="20" viewBox="0 0 20 20" fill="none" xmlns="http://www.w3.org/2000/svg">
<g clip-path="url(#clip0_7377_163765)">
<path d="M8.74658 2.65453C8.74658 2.98857 8.87928 3.30894 9.11549 3.54514C9.35169 3.78135 9.67206 3.91405 10.0061 3.91405C10.3401 3.91405 10.6605 3.78135 10.8967 3.54514C11.1329 3.30894 11.2656 2.98857 11.2656 2.65453C11.2656 2.32048 11.1329 2.00012 10.8967 1.76391C10.6605 1.52771 10.3401 1.39501 10.0061 1.39501C9.67206 1.39501 9.35169 1.52771 9.11549 1.76391C8.87928 2.00012 8.74658 2.32048 8.74658 2.65453Z" fill="white"/>
<path d="M15.5685 5.0904H10.7336C9.7202 4.04854 8.45004 4.15147 7.61107 5.23013L5.45548 7.34179C5.20086 7.56129 5.22494 7.96277 5.50392 8.15026L7.63847 9.99536L7.60321 14.2555C7.6021 14.389 7.55532 14.5179 7.47066 14.6211L5.31458 17.2457C4.95955 17.9657 5.76208 18.7289 6.43319 18.1655L9.09781 15.1738C9.20683 15.0514 9.26706 14.8933 9.26704 14.7294V11.3752C9.26704 11.2797 9.38444 11.2339 9.44915 11.3043L11.6606 13.7129C11.7359 13.7948 11.7777 13.9021 11.7777 14.0134V17.6311C11.7777 18.0636 12.1284 18.4141 12.5607 18.4141C12.9932 18.4141 13.3437 18.0634 13.3437 17.6311V13.4023C13.3437 13.2844 13.2991 13.1708 13.2189 13.0843L10.9252 10.6088C10.8659 10.5449 10.833 10.4609 10.833 10.3738V6.51971C10.833 6.41676 10.9164 6.33335 11.0194 6.33335H15.5685C15.9117 6.33335 16.1899 6.05508 16.1899 5.71194C16.1899 5.36867 15.9116 5.0904 15.5685 5.0904ZM7.63861 8.5608L6.90887 7.95271C6.88409 7.93218 6.88409 7.89422 6.90887 7.87355L7.63861 7.26546C7.67218 7.23756 7.72316 7.26135 7.72316 7.30497V8.52115C7.72316 8.56491 7.67218 8.58884 7.63861 8.5608Z" fill="white"/>
</g>
<defs>
<clipPath id="clip0_7377_163765">
<rect width="17.0192" height="17.0192" fill="white" transform="translate(2.35645 1.39453)"/>
</clipPath>
</defs>
</svg>
