<svg width="20" height="20" viewBox="0 0 20 20" fill="none" xmlns="http://www.w3.org/2000/svg">
<path fill-rule="evenodd" clip-rule="evenodd" d="M12.9012 6.55827L13.2191 5.77091L13.3892 5.3508L12.1064 6.08808L11.0494 6.6946L10.3745 7.0841L8.66217 8.06621H8.65938L7.85899 8.53084L7.03628 9.00103C7.03628 9.05389 7.02513 9.10397 7.01118 9.15405C7.03071 9.20969 7.03907 9.26534 7.04186 9.32098L7.8813 8.83966L9.12791 8.12186L10.6757 7.23156L11.0466 7.01733L12.3825 6.25223L12.9012 6.55827ZM9.57129 11.5161C10.4191 11.5161 11.1051 10.8289 11.1051 9.98591C11.1051 9.81897 11.0773 9.65761 11.0271 9.50737L11.0243 9.81619C11.0187 10.6592 10.3271 11.3408 9.47926 11.3353C8.88524 11.3325 8.3721 10.9875 8.12668 10.4923C8.33305 11.0877 8.90197 11.5161 9.57129 11.5161ZM18.5681 1.48916L19.0059 2.24591C19.1621 2.513 19.0701 2.85243 18.8023 3.00545L15.9019 4.71371C15.8155 4.76101 15.7179 4.78605 15.6203 4.78605C15.5868 4.78605 15.5533 4.78326 15.5199 4.7777L14.6637 4.61912L14.4211 4.75822C14.5187 4.80274 14.5996 4.86673 14.6609 4.94185C14.8199 5.12826 14.8784 5.387 14.7948 5.62905L13.9916 7.93548C13.8577 8.32777 13.431 8.53365 13.0406 8.39732C13.0155 8.39049 12.9923 8.37993 12.9709 8.37022C12.9661 8.36807 12.9615 8.36596 12.9569 8.36394L12.9095 8.3389L11.0438 7.41521L11.0354 8.56704C12.8928 9.19859 14.686 10.4728 15.5924 12.9518C15.7988 13.511 15.4223 14.1203 14.8255 14.162C10.4665 14.4736 7.63864 11.8973 6.18008 10.0277C6.102 10.0138 6.02949 9.98317 5.96534 9.93865H5.96255C5.88168 9.88858 5.81196 9.81902 5.75618 9.73834L5.46893 9.90249L5.21236 10.6704C5.17053 10.8011 5.08128 10.9096 4.96136 10.9764L2.19206 12.5066C2.15022 12.5317 2.10281 12.5511 2.0554 12.5623C1.96337 12.5873 1.87134 12.5873 1.78489 12.565C1.77931 12.5636 1.77443 12.5623 1.76955 12.5609C1.76467 12.5595 1.75979 12.5581 1.75421 12.5567C1.71517 12.5456 1.67612 12.5289 1.63987 12.5094L1.63708 12.5066C1.59804 12.4844 1.55899 12.4538 1.52274 12.4204C1.48648 12.387 1.45581 12.3452 1.43071 12.3007L0.992859 11.544C0.839474 11.2797 0.928716 10.9375 1.19644 10.7844L3.97133 9.25424C3.99084 9.24312 4.01313 9.232 4.03542 9.22088L4.03547 9.22085C4.1024 9.19303 4.1777 9.17912 4.25021 9.17912C4.28368 9.17912 4.31714 9.1819 4.3534 9.18747L5.29324 9.36274L5.5275 9.2292L5.41873 8.97045L4.62113 7.08135C4.45938 6.70297 4.63786 6.26617 5.01714 6.10758C5.03059 6.10088 5.04585 6.09596 5.06 6.0914C5.06346 6.09029 5.06685 6.0892 5.07013 6.08811L5.12591 6.06863L8.75975 4.86395C8.79601 4.85282 8.83226 4.84169 8.86852 4.83613C8.8713 4.83334 8.87409 4.83334 8.87688 4.83334C9.00517 4.79161 9.14182 4.76657 9.28405 4.75822C9.60198 4.73875 9.90596 4.81109 10.1681 4.95298C10.1793 4.95576 10.1904 4.96132 10.2016 4.96688L10.2016 4.96689C10.2211 4.97524 10.2434 4.98636 10.2601 4.99749L11.2809 5.60123L10.9295 5.80154L9.66054 6.53326L9.65218 6.53882L9.64102 6.54717C9.59361 6.58334 9.54062 6.61394 9.48485 6.64176C9.46254 6.65289 9.44302 6.66124 9.4207 6.66959L7.78924 7.60718L7.74741 7.05075L6.4004 7.34566L6.69044 8.00782C6.8243 8.00225 6.96374 7.99947 7.10876 7.99947L6.77132 8.19144L6.6765 8.24709L6.7741 8.51139L6.88566 8.4474L7.66095 8.00225L7.81155 7.91601L9.77767 6.78644L11.0131 6.0742L11.5569 5.76259L14.3737 4.14336L14.6581 3.29479C14.7027 3.16403 14.792 3.05553 14.9091 2.98875L17.8067 1.28606C17.8216 1.27678 17.8365 1.26998 17.8513 1.26318C17.8588 1.25978 17.8662 1.25638 17.8736 1.25267C17.9211 1.23319 17.9685 1.22207 18.0159 1.2165C18.0382 1.21372 18.0633 1.21094 18.0856 1.21094C18.278 1.21094 18.4649 1.3111 18.5681 1.48916ZM9.4918 4.33938C10.2618 4.33938 10.8862 3.71645 10.8862 2.94829C10.8862 2.18013 10.2618 1.5572 9.4918 1.5572C8.7218 1.5572 8.09738 2.18013 8.09738 2.94829C8.09738 3.71645 8.7218 4.33938 9.4918 4.33938ZM13.1009 14.8563C11.7569 14.9164 10.582 14.8274 8.73773 13.1656C6.6461 11.2806 3.8595 12.2964 3.74182 12.3404C3.52568 12.4216 3.41636 12.6623 3.49779 12.8782C3.57923 13.0941 3.82074 13.2031 4.0366 13.1219C4.0603 13.1127 6.45953 12.2366 8.17717 13.7849C10.2504 15.6528 11.7059 15.7519 13.1371 15.6904C14.6891 15.6217 16.2349 15.7199 17.032 16.8742C17.1131 16.9916 17.2437 17.0545 17.377 17.0545C17.4587 17.0545 17.5412 17.0306 17.6137 16.9811C17.8039 16.85 17.8519 16.5902 17.7208 16.4004C16.5531 14.7096 14.228 14.8084 13.1062 14.8561L13.1009 14.8563ZM3.13808 13.8619C3.13 13.8647 3.11019 13.8719 3.10267 13.8753C2.89378 13.9613 2.79701 14.1955 2.87733 14.4064C2.94036 14.5725 3.10211 14.6741 3.27223 14.6741C3.31824 14.6741 3.36509 14.6668 3.41083 14.651C3.6292 14.5758 3.74521 14.3382 3.66991 14.1204C3.59461 13.9026 3.35589 13.7865 3.13808 13.8619ZM4.60436 13.5749H4.62667C4.8442 13.5749 5.0422 13.7419 5.05894 13.9617C5.07567 14.187 4.9195 14.3846 4.6936 14.4068C4.69033 14.4068 4.67845 14.4078 4.66861 14.4086L4.65456 14.4096H4.62946C4.40914 14.4096 4.22508 14.2399 4.21113 14.0173C4.19719 13.7864 4.37289 13.5889 4.60436 13.5749ZM11.0382 16.3208L11.0104 16.3152C10.7845 16.2763 10.5809 16.4293 10.539 16.6547C10.4972 16.8828 10.6618 17.0998 10.8904 17.1415C10.9155 17.1471 10.9406 17.1499 10.9657 17.1499C11.1637 17.1499 11.3394 17.008 11.3757 16.8049C11.4175 16.5795 11.2669 16.3625 11.0382 16.3208ZM12.3528 16.256L12.3807 16.2616C12.6094 16.3033 12.76 16.5203 12.7182 16.7457C12.6819 16.9488 12.5062 17.0907 12.3082 17.0907C12.2831 17.0907 12.258 17.0879 12.2329 17.0823C12.0042 17.0406 11.8397 16.8236 11.8815 16.5954C11.9233 16.3701 12.1269 16.2171 12.3528 16.256ZM7.56888 14.279L7.56885 14.2789C7.56118 14.2741 7.55351 14.2692 7.55211 14.2678C7.35968 14.1482 7.11427 14.2094 6.99156 14.4014C6.86606 14.5933 6.9302 14.8576 7.11984 14.9828C7.19235 15.0301 7.27323 15.0524 7.35132 15.0524C7.48797 15.0524 7.61905 14.9884 7.69992 14.8688C7.82821 14.6768 7.77801 14.418 7.58558 14.2901C7.58419 14.2887 7.57654 14.2838 7.56888 14.279ZM8.76713 15.0724L8.76716 15.0724C8.77481 15.0773 8.78246 15.0821 8.78385 15.0835C8.97628 15.2115 9.02648 15.4702 8.89819 15.6622C8.81732 15.7819 8.68624 15.8458 8.54959 15.8458C8.4715 15.8458 8.39063 15.8236 8.31812 15.7763C8.12848 15.6511 8.06433 15.3868 8.18983 15.1948C8.31254 15.0028 8.55796 14.9416 8.75039 15.0613C8.75178 15.0627 8.75945 15.0675 8.76713 15.0724ZM6.15779 13.6862C6.15453 13.6862 6.14264 13.6833 6.1328 13.681C6.12584 13.6793 6.1199 13.6779 6.11875 13.6779C5.89564 13.6306 5.68927 13.7752 5.63628 13.9978C5.58608 14.2204 5.73668 14.4457 5.95979 14.4986C5.99325 14.507 6.02672 14.5097 6.06018 14.5097C6.24704 14.5097 6.41994 14.3818 6.46456 14.1898C6.52034 13.9672 6.3809 13.7419 6.15779 13.6862ZM9.79167 15.898C9.79446 15.898 9.82235 15.9119 9.82514 15.9147C10.0315 16.0204 10.1096 16.2736 10.0036 16.4767C9.92833 16.6186 9.78331 16.7021 9.63271 16.7021C9.56578 16.7021 9.49885 16.6854 9.43749 16.652C9.23391 16.5463 9.14188 16.2931 9.24785 16.0872C9.35104 15.8841 9.5853 15.7951 9.79167 15.898ZM16.6828 17.3086C16.68 17.3058 16.6549 17.2864 16.6521 17.2864C16.4681 17.1472 16.2199 17.1945 16.0804 17.3754C15.9438 17.559 15.9884 17.8261 16.1697 17.9652C16.245 18.0264 16.337 18.0542 16.4262 18.0542C16.549 18.0542 16.6744 17.9986 16.7553 17.8929C16.8976 17.712 16.8641 17.4505 16.6828 17.3086ZM13.7867 16.3696C13.7957 16.3703 13.8048 16.371 13.8076 16.371C14.0363 16.3849 14.212 16.5824 14.198 16.8133C14.1869 17.0331 14.0028 17.2056 13.7825 17.2056C13.7783 17.2056 13.7741 17.2049 13.7699 17.2042C13.7658 17.2035 13.7616 17.2028 13.7574 17.2028C13.5287 17.1889 13.3391 16.997 13.3502 16.7688C13.3614 16.5407 13.5427 16.3543 13.7658 16.3682C13.7686 16.3682 13.7776 16.3689 13.7867 16.3696ZM15.1332 16.5652L15.1244 16.5646L15.1124 16.5637L15.1035 16.5632C14.8804 16.5493 14.6991 16.7357 14.688 16.9638C14.6768 17.192 14.8665 17.3839 15.0951 17.3979C15.0993 17.3979 15.1035 17.3985 15.1077 17.3992C15.1119 17.3999 15.1161 17.4006 15.1202 17.4006C15.3406 17.4006 15.5246 17.2281 15.5358 17.0083C15.5497 16.7774 15.374 16.5799 15.1453 16.566C15.1435 16.566 15.1388 16.5657 15.1332 16.5652ZM17.1378 18.3153C17.3288 18.1859 17.5851 18.2299 17.7148 18.4207C17.7159 18.4224 17.7212 18.4302 17.7223 18.4321C17.8483 18.6235 17.7976 18.8837 17.6066 19.0108C17.5346 19.059 17.4532 19.0821 17.3726 19.0821C17.2401 19.0821 17.1104 19.0189 17.0301 18.9009C16.9004 18.7104 16.9464 18.4449 17.1378 18.3153Z" fill="#F2F2F2"/>
</svg>
