<svg width="20" height="20" viewBox="0 0 20 20" fill="none" xmlns="http://www.w3.org/2000/svg">
<path d="M9.23598 3.12638C9.28921 3.2926 9.37449 3.44665 9.48692 3.57973C9.59936 3.71281 9.73676 3.82232 9.89127 3.90199C10.0458 3.98167 10.2144 4.02996 10.3875 4.0441C10.5605 4.05825 10.7347 4.03797 10.9 3.98442C11.0652 3.93088 11.2184 3.84512 11.3507 3.73204C11.4831 3.61897 11.592 3.48078 11.6712 3.32538C11.7504 3.16999 11.7984 3.00042 11.8125 2.82636C11.8265 2.6523 11.8064 2.47715 11.7531 2.31093C11.6999 2.14471 11.6146 1.99066 11.5022 1.85758C11.3898 1.7245 11.2524 1.61499 11.0978 1.53532C10.9433 1.45564 10.7747 1.40735 10.6016 1.39321C10.4286 1.37906 10.2544 1.39934 10.0891 1.45288C9.92387 1.50643 9.77069 1.59219 9.63837 1.70527C9.50605 1.81834 9.39716 1.95653 9.31794 2.11192C9.23871 2.26732 9.1907 2.43689 9.17664 2.61095C9.16257 2.78501 9.18274 2.96016 9.23598 3.12638Z" fill="white"/>
<path d="M16.2888 7.57192C16.312 7.28342 16.0982 7.03067 15.8114 7.00737L13.1468 6.79096C12.4582 6.29553 11.8782 5.5509 11.1187 4.83581C10.8019 4.5711 9.39237 4.4043 8.95411 4.58122L6.36392 5.57576C6.30187 5.59587 6.23647 5.60336 6.17151 5.5978C6.10656 5.59224 6.04335 5.57374 5.98558 5.54337L3.45395 4.2133C2.92101 4.20254 2.70133 4.98095 2.94259 5.16479L5.79779 6.71136C5.92021 6.7777 6.06381 6.79244 6.19702 6.75232L7.91506 6.23598C8.05328 6.19444 8.18531 6.31719 8.155 6.45911L7.26256 10.6284L7.4485 14.7181C7.45275 14.8126 7.43298 14.9066 7.39106 14.9912L5.91391 18.2798C5.69235 18.9978 6.67448 19.5701 7.20353 18.9448L8.94542 15.3371C8.98029 15.2704 8.99805 15.1959 8.99709 15.1206L8.95959 12.1723C8.95716 11.9779 9.13556 11.8321 9.32412 11.8742C10.0985 12.6118 11.1385 13.66 11.8037 14.4465L12.1023 18.2798C12.165 19.0174 13.4676 19.1232 13.4047 18.0926L13.1835 14.1584C13.1712 13.9402 13.0984 13.7299 12.9734 13.551C12.3161 12.6096 11.3699 11.2538 10.6603 10.5446C10.5437 10.428 10.4726 10.2484 10.5173 10.0515L11.1742 7.15276C11.2034 7.02345 11.355 6.96686 11.4611 7.04547L12.3969 7.73816C12.4743 7.7954 12.5642 7.83303 12.6591 7.84784C13.7474 7.93623 14.7565 8.00967 15.754 8.05076C16.0313 8.06218 16.2665 7.85011 16.2888 7.57192Z" fill="white"/>
<path d="M17.3114 2.25022C17.3648 2.09891 17.5307 2.02005 17.6818 2.07408C17.8329 2.12811 17.9121 2.29456 17.8586 2.44587L15.9584 7.82176L15.4111 7.62611L17.3114 2.25022Z" fill="white"/>
</svg>
