<svg width="20" height="20" viewBox="0 0 20 20" fill="none" xmlns="http://www.w3.org/2000/svg">
<path fill-rule="evenodd" clip-rule="evenodd" d="M16.0815 5.87022C16.0815 3.73276 14.3488 2 12.2113 2H7.78819C5.65073 2 3.91797 3.73276 3.91797 5.87022V7.85862L3.91981 7.9956C3.93946 8.72543 4.11596 9.44307 4.43794 10.0995L4.8236 10.8863L4.76737 11.2346C4.63668 12.0447 4.55871 12.5512 4.5323 12.7623L4.51669 12.9018C4.49713 13.0974 4.4825 13.3317 4.47251 13.6059L4.46589 13.819L4.4707 13.8191C4.47042 13.8421 4.47028 13.8651 4.47028 13.8881C4.47028 18.3802 7.41497 18.3242 9.47353 18.2851L9.47464 18.2851C9.5453 18.2838 9.61491 18.2824 9.68332 18.2813L9.99916 18.2783C10.1688 18.2783 10.3485 18.2819 10.5354 18.2856L10.5359 18.2856C10.708 18.289 10.8863 18.2926 11.0684 18.2936L11.2117 18.2938C13.1801 18.2882 15.5281 17.9108 15.5281 13.8881C15.5281 13.8597 15.5278 13.8314 15.5274 13.8031L15.528 13.8031C15.5277 13.7981 15.5274 13.7931 15.5272 13.7882C15.5232 13.5624 15.5056 13.3399 15.4753 13.1215C15.4473 12.8558 15.4127 12.6315 15.3707 12.4469L15.3602 12.4022C15.3342 12.2941 15.2971 12.1585 15.2487 11.9941L15.1545 11.684C14.9944 11.1694 15.0732 10.6101 15.3693 10.1598L15.4342 10.0581C15.8569 9.37433 16.0815 8.58566 16.0815 7.7802V5.87022ZM14.1244 10.2068C14.1928 10.0071 14.2833 9.81385 14.3955 9.63083L14.4453 9.55229C14.7914 9.02605 14.9757 8.41001 14.9757 7.7802V5.87022C14.9757 4.34346 13.7381 3.10578 12.2113 3.10578H7.78819C6.26143 3.10578 5.02375 4.34346 5.02375 5.87022V7.85862C5.02375 8.46668 5.16296 9.06666 5.43073 9.61258L5.77694 10.3184C6.79113 9.12008 8.3063 8.35925 9.99916 8.35925C11.6389 8.35925 13.1118 9.07304 14.1244 10.2068ZM8.13554 13.7795L9.12127 15.3255H9.99957L8.73898 13.4738L8.80217 13.381L9.90163 11.787H9.07388L8.14186 13.2677L8.13424 13.2814C8.1172 13.312 8.09871 13.3452 8.08499 13.381C8.07376 13.3981 8.06572 13.417 8.05747 13.4363L8.05746 13.4363C8.05411 13.4442 8.05073 13.4521 8.04708 13.46H8.0376V13.381V11.787H7.3457V13.381V15.3255H8.0376V13.594H8.04708C8.08184 13.6765 8.11027 13.7383 8.13554 13.7795ZM11.5624 15.3255C11.9949 15.3255 12.3568 15.2292 12.6539 15.0367V13.3869V13.3372H11.3947V13.3869V13.9214H12.0096V14.6218C11.9007 14.6815 11.7624 14.7114 11.5947 14.7114C11.3123 14.7114 11.0887 14.6118 10.9239 14.4126C10.7621 14.2102 10.6797 13.9313 10.6797 13.5761C10.6797 13.5098 10.6827 13.4467 10.6885 13.3869C10.718 13.1214 10.8033 12.899 10.9504 12.7231C11.1328 12.5106 11.3682 12.4011 11.6624 12.4011C12.0008 12.4011 12.2891 12.4807 12.5215 12.6334V11.943C12.2803 11.8401 11.9978 11.787 11.6742 11.787C11.174 11.787 10.768 11.9563 10.462 12.2949C10.1972 12.5836 10.0471 12.9488 10.0089 13.3869C10.003 13.4566 10.0001 13.533 10.0001 13.6093C10.0001 14.1404 10.1383 14.5587 10.4179 14.8674C10.6974 15.1728 11.0798 15.3255 11.5624 15.3255Z" fill="#F2F2F2"/>
</svg>
