<svg width="20" height="20" viewBox="0 0 20 20" fill="none" xmlns="http://www.w3.org/2000/svg">
<path d="M5.78691 2.12109C6.65803 2.12109 7.36275 2.82581 7.36275 3.69693C7.36275 4.56806 6.65803 5.27277 5.78691 5.27277C4.9161 5.27277 4.21107 4.56806 4.21107 3.69693C4.21107 2.82581 4.9161 2.12109 5.78691 2.12109ZM16.4238 6.06069C16.423 5.85191 16.3395 5.65195 16.1916 5.50458C16.0437 5.35721 15.8434 5.27443 15.6346 5.27435C15.4329 5.27435 15.2391 5.35283 15.0944 5.49118L10.2314 8.5064L9.0697 6.76289C9.03001 6.70787 8.98685 6.65544 8.94048 6.60593L12.5643 4.41741C12.6344 4.38406 12.6972 4.33721 12.7492 4.27953C12.8012 4.22185 12.8413 4.15448 12.8671 4.08128C12.893 4.00808 12.9042 3.9305 12.9 3.85297C12.8959 3.77544 12.8765 3.69949 12.8429 3.62949C12.8078 3.55562 12.7578 3.48986 12.6959 3.43638C12.634 3.38291 12.5617 3.34289 12.4835 3.31888C12.4054 3.29487 12.3231 3.28739 12.2418 3.29691C12.1606 3.30644 12.0823 3.33276 12.0118 3.3742L5.31321 6.91795C5.21456 6.97027 5.13294 7.05032 5.07621 7.14708L3.50163 9.9048C3.35728 10.1572 3.41874 10.4775 3.64503 10.659L5.61483 12.2348C5.87011 12.4397 6.24107 12.3978 6.44561 12.1425C6.65047 11.8872 6.60887 11.5162 6.35327 11.3114L4.77743 10.051L6.33341 8.30122C6.36556 8.37371 6.40275 8.44431 6.44403 8.51049L8.15067 11.0003V17.0916C8.15067 17.5271 8.50334 17.8795 8.93859 17.8795C9.37415 17.8795 9.72651 17.5271 9.72651 17.0916L10.5144 10.7882L16.0009 6.75469C16.1279 6.68853 16.2345 6.58891 16.309 6.4666C16.3835 6.34429 16.4233 6.20393 16.4238 6.06069Z" fill="#F2F2F2"/>
<path d="M10.4449 10.6991L9.74851 16.2706V11.0473L10.4449 10.6991ZM6.73047 8.51735L8.35315 10.8852C9.13389 10.3241 9.7782 9.59424 10.2382 8.74996L9.05208 6.98438C9.05208 6.98438 7.93278 7.69027 6.73047 8.51735Z" fill="#F2F2F2"/>
</svg>
