<svg width="20" height="20" viewBox="0 0 20 20" fill="none" xmlns="http://www.w3.org/2000/svg">
<g clip-path="url(#clip0_28808_33618)">
<path d="M6.97363 3.50937L13.5682 10.1318L6.97363 3.50937Z" fill="#F2F2F2"/>
<path fill-rule="evenodd" clip-rule="evenodd" d="M6.73527 10.6083C6.67584 10.6083 6.61485 10.5848 6.5695 10.5392C6.47724 10.4466 6.47724 10.2974 6.5695 10.2063L9.9383 6.82328L7.45277 4.32726L7.28563 4.3607L6.25902 10.712C6.24651 10.7874 6.27153 10.8659 6.32782 10.9193C6.37317 10.9617 6.43103 10.9852 6.49046 10.9852C6.5061 10.9852 6.52174 10.9837 6.53894 10.9789L12.7106 9.68549V9.60724L10.2698 7.1562L6.90103 10.5392C6.85568 10.5848 6.79469 10.6083 6.73527 10.6083ZM13.1512 9.28489L14.2799 3.12922L10.6014 6.82328L13.0689 9.3012L13.1512 9.28489ZM13.9547 2.78995L7.8096 3.78724V4.01975L10.2698 6.49035L13.9547 2.78995Z" fill="#F2F2F2"/>
<path d="M14.7034 3.34074H13.8887C13.7761 3.34074 13.6807 3.26065 13.6588 3.15072L13.4915 2.30742C13.4665 2.18021 13.5493 2.05615 13.676 2.03103C13.8027 2.0059 13.9262 2.08913 13.9512 2.21633L14.0795 2.86962H14.7019C14.8317 2.86962 14.9364 2.97484 14.9364 3.10518C14.9364 3.23552 14.8317 3.34074 14.7034 3.34074ZM6.40745 17.8937C6.30112 17.8937 6.20416 17.8199 6.17914 17.7115C6.14943 17.5843 6.22918 17.4587 6.35429 17.4288C7.20812 17.231 9.56478 16.6044 10.1981 16.0956C10.8643 15.56 11.3334 15.0921 11.5915 14.7042C11.7322 14.4937 11.8792 14.1985 11.7869 13.9912C11.7166 13.8326 11.4288 13.5562 10.306 13.5012C9.48346 13.4604 8.37628 13.5531 7.10491 13.7651C5.943 13.9598 5.25493 13.8232 5.00003 13.3442C4.78266 12.9359 4.93591 12.3344 5.4551 11.5555C5.81321 11.0169 6.21823 10.585 6.23544 10.5677C6.32457 10.4735 6.47313 10.4688 6.56696 10.5583C6.66079 10.6478 6.66548 10.797 6.57635 10.8912C6.57165 10.8959 6.17914 11.3168 5.84136 11.8225C5.44571 12.4161 5.2909 12.8904 5.41287 13.1228C5.55205 13.385 6.14004 13.4494 7.02672 13.3002C8.33093 13.082 9.47251 12.9877 10.3279 13.0301C11.3897 13.0819 12.0074 13.3332 12.2139 13.7981C12.3577 14.1231 12.2795 14.5157 11.9793 14.9649C11.6947 15.392 11.1927 15.8961 10.489 16.4615C9.64297 17.1414 6.58729 17.856 6.4575 17.8858C6.44186 17.8921 6.42466 17.8937 6.40745 17.8937Z" fill="#F2F2F2"/>
</g>
<defs>
<clipPath id="clip0_28808_33618">
<rect width="10.3125" height="16.0417" fill="white" transform="translate(4.84375 1.94446)"/>
</clipPath>
</defs>
</svg>
