<svg width="20" height="20" viewBox="0 0 20 20" fill="none" xmlns="http://www.w3.org/2000/svg">
<g clip-path="url(#clip0_7377_163968)">
<path d="M10.0828 1.62337C9.27929 1.6494 8.65107 2.32305 8.67705 3.12849C8.70302 3.93393 9.37506 4.56364 10.1786 4.53761C10.9805 4.51158 11.6103 3.83793 11.5844 3.03411C11.5584 2.22867 10.888 1.59733 10.0828 1.62337Z" fill="white"/>
<path d="M8.57751 3.02281C8.6369 3.23119 8.55503 3.45408 8.37488 3.57446L6.93184 4.53878L8.67717 5.12194L11.0452 5.37181C11.3064 5.39936 11.56 5.47623 11.7925 5.59832L14.0731 6.79572C14.2942 6.91181 14.3586 7.19839 14.2085 7.39796L12.3489 9.86984C12.1804 10.0937 11.8488 10.1063 11.6639 9.89575C11.5321 9.74569 11.5174 9.5259 11.628 9.35962L12.895 7.45458L11.1497 6.87142L8.67717 6.43405L6.38171 5.61229C5.63797 5.34604 5.50635 4.35047 6.15535 3.90009L7.81316 2.74965C8.09421 2.55461 8.48373 2.69381 8.57751 3.02281Z" fill="white"/>
<path d="M11.6505 6.97486C11.6823 5.78881 10.537 4.91287 9.4048 5.26754L8.43774 5.9453C8.43776 6.14228 8.5321 6.43386 8.53213 6.69128C8.53213 6.69128 8.53215 7.2918 8.53217 8.47767C8.5322 10.1423 9.92373 11.4701 11.5865 11.3907C11.5865 9.79054 11.6173 8.21249 11.6505 6.97486Z" fill="white"/>
<path d="M9.69531 11.6825L11.4406 12.703L11.312 18.2462C11.3026 18.6497 10.9728 18.972 10.5691 18.972C10.1645 18.972 9.83428 18.6483 9.82621 18.2438L9.69531 11.6825Z" fill="white"/>
<path d="M9.8402 11.3915L10.5542 9.87641L14.142 12.521C14.4606 12.7559 14.46 13.2331 14.1408 13.4666L9.81998 16.6271C9.57616 16.8055 9.24179 16.7922 9.01242 16.5952C8.69284 16.3206 8.71307 15.8192 9.0537 15.5719L12.6036 12.9952L9.8402 11.3915Z" fill="white"/>
</g>
<defs>
<clipPath id="clip0_7377_163968">
<rect width="10" height="17.3684" fill="white" transform="translate(5 1.57812)"/>
</clipPath>
</defs>
</svg>
