<svg width="20" height="20" viewBox="0 0 20 20" fill="none" xmlns="http://www.w3.org/2000/svg">
<path d="M12.116 4.68708C12.116 5.4182 11.5233 6.01089 10.7922 6.01089C10.0611 6.01089 9.4684 5.4182 9.4684 4.68708C9.4684 3.95597 10.0611 3.36328 10.7922 3.36328C11.5233 3.36328 12.116 3.95597 12.116 4.68708Z" fill="white"/>
<path d="M3.66143 5.03982C3.80076 4.6915 4.18496 4.50938 4.5428 4.62203L8.17085 5.7642C9.79207 6.27458 10.7353 7.95929 10.3231 9.60819L10.1303 10.3794L12.3223 10.7255C12.5358 10.7592 12.7408 10.8337 12.9261 10.9449L15.3098 12.3752C15.6611 12.5859 15.7649 13.0475 15.5377 13.3883C15.3263 13.7054 14.9038 13.8019 14.5757 13.608L12.2484 12.2328H11.7189L13.484 14.4132C13.7505 14.7424 13.6948 15.2263 13.3605 15.4863C13.0364 15.7383 12.5705 15.6859 12.3106 15.3682L10.3951 13.027L9.22852 12.5688C7.77556 11.9979 6.9717 10.4377 7.35031 8.92325L4.83379 11.0021C4.53967 11.2451 4.10561 11.21 3.85439 10.9228C3.59366 10.6249 3.62944 10.1707 3.93362 9.91718L7.35031 7.06993L4.10058 5.98668C3.70906 5.85618 3.50815 5.42301 3.66143 5.03982Z" fill="white"/>
<rect x="2.32227" y="15.5781" width="15.3561" height="1.05904" rx="0.529521" fill="white"/>
</svg>
