<svg width="20" height="20" viewBox="0 0 20 20" fill="none" xmlns="http://www.w3.org/2000/svg">
<path d="M9.93191 4.29741C10.6556 4.29741 11.2423 3.70529 11.2423 2.97488C11.2423 2.24446 10.6556 1.65234 9.93191 1.65234C9.20823 1.65234 8.62157 2.24446 8.62157 2.97488C8.62157 3.70529 9.20823 4.29741 9.93191 4.29741Z" fill="white"/>
<path fill-rule="evenodd" clip-rule="evenodd" d="M9.59033 4.95867C8.66729 4.95867 7.79413 5.37766 7.21661 6.09771C6.17809 7.39252 6.3688 9.28071 7.64527 10.3417L8.13019 10.7448L8.29398 10.9101L7.43527 17.4103C7.36956 17.9077 7.75664 18.3493 8.25837 18.3493C8.65867 18.3493 9.00198 18.0637 9.07478 17.67L10.0957 12.1499L11.1166 17.67C11.1894 18.0637 11.5327 18.3493 11.933 18.3493C12.4348 18.3493 12.8219 17.9077 12.7561 17.4103L11.8974 10.9101L12.0612 10.7448L12.5461 10.3417C13.8226 9.28071 14.0133 7.39252 12.9748 6.09771C12.3973 5.37766 11.5241 4.95867 10.6011 4.95867H9.59033ZM12.8802 8.43032L12.0612 9.09159V7.43842L12.8802 8.43032ZM8.13019 7.43842L7.31122 8.43032L8.13019 9.09159V7.43842Z" fill="white"/>
</svg>
