<svg width="20" height="20" viewBox="0 0 20 20" fill="none" xmlns="http://www.w3.org/2000/svg">
<path fill-rule="evenodd" clip-rule="evenodd" d="M11.2018 2.90995C11.2018 3.67558 10.5806 4.29646 9.8146 4.29646C9.0486 4.29646 8.42743 3.67558 8.42743 2.90995C8.42743 2.14432 9.0486 1.52344 9.8146 1.52344C10.5806 1.52344 11.2018 2.14432 11.2018 2.90995ZM13.0312 4.8976C14.1259 4.84658 15.2201 4.78751 16.3124 4.70155C16.7194 4.66966 17.075 4.9733 17.1072 5.37983C17.1391 5.78663 16.8353 6.14241 16.4283 6.1743L16.4247 6.17458C15.3322 6.25527 14.2416 6.36259 13.1518 6.47822C12.7884 6.51372 12.4255 6.55685 12.0625 6.59999C11.881 6.62156 11.6996 6.64312 11.518 6.66374C11.4902 6.66738 11.4624 6.67108 11.4345 6.67478C11.403 6.67898 11.3713 6.68318 11.3397 6.68731L11.2484 10.2609L14.1437 17.5262C14.2854 17.8823 14.1118 18.2857 13.7558 18.4274C13.4132 18.5639 13.0259 18.4064 12.8705 18.0775L10.0632 12.0914C9.96996 12.0098 9.849 11.9594 9.715 11.9594C9.58156 11.9594 9.46088 12.0098 9.36794 12.0911L6.62606 18.0719C6.46626 18.4199 6.05455 18.573 5.70609 18.4136C5.37095 18.2599 5.21726 17.8712 5.34821 17.532L8.15694 10.2967L8.06455 6.74776L6.499 6.60994C5.42173 6.51344 4.34445 6.42221 3.26635 6.349C2.88266 6.32293 2.59274 5.99072 2.61882 5.60722C2.64406 5.23535 2.95867 4.95167 3.32766 4.95861C4.40798 4.98024 5.48914 4.98384 6.57058 4.98245L9.8146 4.98301L9.8196 4.98329C10.3431 4.98551 10.8655 4.97414 11.3882 4.96193C11.5687 4.9549 11.7494 4.94876 11.93 4.94262C12.2972 4.93015 12.6644 4.91768 13.0312 4.8976Z" fill="#F2F2F2"/>
</svg>
