<svg width="20" height="20" viewBox="0 0 20 20" fill="none" xmlns="http://www.w3.org/2000/svg">
<path fill-rule="evenodd" clip-rule="evenodd" d="M10.7008 4.61114C11.4205 4.61114 12.0041 4.02651 12.0041 3.30557C12.0041 2.58463 11.4205 2 10.7008 2C9.9811 2 9.39748 2.58463 9.39748 3.30557C9.39748 4.02651 9.9811 4.61114 10.7008 4.61114ZM16.8254 5.24247C15.8185 5.24482 14.8115 5.22314 13.8046 5.19442C13.465 5.18738 13.1254 5.17344 12.7858 5.1595L12.7857 5.1595C12.6219 5.15278 12.4581 5.14606 12.2943 5.14011C11.7907 5.1153 11.2873 5.08658 10.7837 5.04794C10.7697 5.04707 10.7549 5.04735 10.7398 5.04764L10.7167 5.04794C10.5327 5.0166 10.3502 5.01869 10.1759 5.05055L10.1735 5.05029L10.1712 5.05002L6.66418 5.18398C5.49536 5.23019 4.32654 5.27171 3.15746 5.29599C2.80895 5.30357 2.52405 5.58531 2.51675 5.93781C2.50919 6.29998 2.79618 6.59948 3.15746 6.60705C4.32654 6.63133 5.49536 6.67259 6.66418 6.71881L8.81753 6.80106L8.18177 9.9903C8.06994 10.5588 8.31471 11.1256 8.77035 11.4452C8.7769 11.4505 8.78312 11.4561 8.78934 11.4617L8.78935 11.4617C8.79997 11.4712 8.81058 11.4808 8.82274 11.4888L12.3112 13.8438L11.9997 17.2036C11.969 17.542 12.2046 17.8538 12.545 17.9089C12.9006 17.9663 13.2353 17.7242 13.2926 17.3681L13.908 13.5527C13.9492 13.2929 13.8507 13.0182 13.6273 12.8474L13.5882 12.8174L10.926 10.7828C10.9425 10.7397 10.9571 10.6956 10.9696 10.6501L11.9645 7.00551C11.9737 6.97182 11.9828 6.9337 11.9898 6.89897C12.0044 6.82534 12.012 6.75197 12.0159 6.67912C12.0581 6.67686 12.1002 6.67407 12.1424 6.67127C12.193 6.66792 12.2437 6.66457 12.2943 6.66214C12.4581 6.6562 12.6219 6.64947 12.7857 6.64275C13.1253 6.62882 13.465 6.61488 13.8046 6.60783C14.8115 6.57911 15.8185 6.55744 16.8254 6.55979H16.8285C17.1916 6.559 17.4854 6.26342 17.4844 5.89969C17.4836 5.5357 17.1885 5.24168 16.8254 5.24247ZM7.77564 10.996C7.91118 11.3354 8.14057 11.6383 8.45076 11.8603C8.47422 11.8811 8.50029 11.902 8.53157 11.9229L9.02161 12.2519L8.35171 13.0588L7.68701 13.8578L7.00928 14.6411L4.29577 17.7745C4.05856 18.0487 3.64411 18.0774 3.3678 17.8398C3.10453 17.6074 3.06804 17.2105 3.28439 16.9363L5.82587 13.6933C5.89625 13.6028 5.96721 13.5128 6.03817 13.4229C6.18009 13.243 6.322 13.0631 6.45928 12.8786L7.04838 12.0352L7.77564 10.996Z" fill="#F2F2F2"/>
</svg>
