<svg width="20" height="20" viewBox="0 0 20 20" fill="none" xmlns="http://www.w3.org/2000/svg">
<g clip-path="url(#clip0_7377_164298)">
<path d="M19.0071 15.7138C18.6269 15.8396 18.2947 15.8396 17.9108 15.8679C17.1506 15.9247 16.5784 15.4454 16.0223 15.4461C15.3099 15.4298 14.6179 15.8275 14.0216 15.8679C13.2253 15.9044 12.4958 15.5361 12.037 15.4864C11.1968 15.4133 10.6726 15.7948 10.0237 15.8679C9.2682 15.9286 8.7505 15.4972 8.05182 15.4461C7.29162 15.4664 6.75943 15.7992 6.13122 15.8679C5.31504 15.9734 4.659 15.5349 4.0425 15.4864C3.26017 15.4459 2.71399 15.8516 2.02589 15.8679C1.69372 15.8578 1.14753 15.8152 0.999919 15.657V16.4989C1.11156 16.5801 1.57182 16.6733 2.042 16.6794C2.94428 16.6834 3.63807 16.3117 4.03469 16.2736C4.85088 16.2168 5.48706 16.6185 6.12341 16.6794C6.93178 16.6753 7.72437 16.2453 8.06012 16.2818C8.75636 16.2211 9.34062 16.7454 10.0038 16.7443C10.785 16.7726 11.6134 16.3041 12.0532 16.2655C12.7574 16.2331 13.2855 16.6916 14.0058 16.7038C14.834 16.7282 15.5163 16.3138 16.0306 16.2655C16.5387 16.229 17.3189 16.6794 17.9272 16.6794C18.2568 16.6706 18.6067 16.6354 19.0077 16.5332V15.7138H19.0071ZM19.0071 17.186C18.6269 17.3118 18.2947 17.3118 17.9108 17.3401C17.1506 17.3969 16.5784 16.9176 16.0223 16.9183C15.3099 16.902 14.6179 17.2998 14.0216 17.3401C13.2253 17.3766 12.4958 17.0083 12.037 16.9586C11.1968 16.8856 10.6726 17.2671 10.0237 17.3401C9.2682 17.4008 8.7505 16.9694 8.05182 16.9183C7.29162 16.9386 6.75943 17.2714 6.13122 17.3401C5.31504 17.4456 4.659 17.0071 4.0425 16.9586C3.26001 16.9181 2.71382 17.3239 2.02572 17.3401C1.69355 17.33 1.14737 17.2874 0.999756 17.1292V17.9711C1.1114 18.0523 1.57165 18.1456 2.04184 18.1516C2.94411 18.1557 3.63791 17.7839 4.03453 17.7459C4.85071 17.6891 5.4869 18.0907 6.12325 18.1516C6.93162 18.1475 7.7242 17.7175 8.05995 17.754C8.75619 17.6933 9.34046 18.2177 10.0037 18.2165C10.7849 18.2448 11.6132 17.7763 12.053 17.7377C12.7572 17.7053 13.2853 18.1638 14.0056 18.176C14.8339 18.2004 15.5161 17.7861 16.0304 17.7377C16.5385 17.7013 17.3187 18.1516 17.9271 18.1516C18.2566 18.1428 18.6066 18.1076 19.0076 18.0054V17.1858L19.0071 17.186ZM1.29514 12.8074C2.58444 13.8404 4.0373 14.6663 5.68464 15.246C6.71142 15.3487 6.94236 14.7711 7.99485 14.8353C8.66587 14.8691 8.94465 15.4454 10.0037 15.246C10.8698 15.1948 11.1393 14.7134 11.871 14.8097C12.5891 14.8812 13.0069 15.2885 13.9503 15.246C14.913 15.1562 14.7782 14.8675 15.6445 14.861L1.7829 12.3454C1.20921 12.2427 1.09269 12.4254 1.29514 12.8074Z" fill="white"/>
<path d="M13.6936 2.71827C13.6936 2.99741 13.8045 3.26511 14.0019 3.46249C14.1993 3.65987 14.467 3.77076 14.7461 3.77076C15.0252 3.77076 15.2929 3.65987 15.4903 3.46249C15.6877 3.26511 15.7986 2.99741 15.7986 2.71827C15.7986 2.43913 15.6877 2.17142 15.4903 1.97404C15.2929 1.77666 15.0252 1.66577 14.7461 1.66577C14.467 1.66577 14.1993 1.77666 14.0019 1.97404C13.8045 2.17142 13.6936 2.43913 13.6936 2.71827Z" fill="white"/>
<path d="M2.03198 11.8052L17.7994 14.6545C17.9449 13.6363 17.8803 12.8519 16.6442 12.6716L14.95 12.37L14.9308 10.0726L17.5683 8.49396C17.7937 8.2142 17.9447 7.87356 17.7223 7.47353L15.7971 4.22002C15.3543 3.73226 14.5457 3.86702 14.3532 4.39335L13.8295 6.30792C13.8195 6.34446 13.798 6.37682 13.7683 6.40023C13.7385 6.42365 13.702 6.43687 13.6641 6.43796L11.7927 6.49199C11.2878 6.54326 11.4462 7.18514 11.7927 7.20434L14.1327 7.22631C14.1821 7.22677 14.2305 7.21249 14.2717 7.1853C14.313 7.15811 14.3452 7.11924 14.3643 7.07365L14.6541 6.38002C14.6876 6.29978 14.7985 6.29295 14.8416 6.36846L15.7398 7.9385C15.8054 8.05324 15.7694 8.19922 15.6581 8.27018L14.0563 9.29241C13.9867 9.33684 13.9294 9.3981 13.8897 9.47051C13.85 9.54293 13.8292 9.62418 13.8291 9.70677V12.0792C11.3734 12.0279 11.3306 10.7615 10.0558 9.89718C8.79631 9.88237 7.62614 9.89181 6.72728 9.97416C7.69417 8.69919 9.32735 7.51584 11.3135 7.44993C11.0055 7.0564 10.9283 6.60412 11.3135 6.2521C8.52191 6.44561 6.365 7.78422 4.87911 10.3335C3.50388 10.6969 2.1324 11.1207 2.03198 11.8052Z" fill="white"/>
</g>
<defs>
<clipPath id="clip0_7377_164298">
<rect width="18" height="18" fill="white" transform="translate(1 1)"/>
</clipPath>
</defs>
</svg>
