<svg width="20" height="20" viewBox="0 0 20 20" fill="none" xmlns="http://www.w3.org/2000/svg">
<path d="M16.1778 7.23384C15.9143 7.23384 15.8484 7.39864 15.8484 7.56325V9.86948C15.8484 10.2318 15.8484 10.5285 15.1894 10.5285C14.2339 10.5285 13.8716 10.9239 13.8716 11.5169C13.8716 11.7805 14.0693 12.5053 15.1894 12.5053C16.4414 12.5053 16.5072 11.6488 16.5072 11.1875V8.88106C16.5072 8.65042 16.5401 8.55166 16.672 8.55166C17.2979 8.55166 17.5266 8.88106 18.1856 8.88106C18.1856 8.88106 18.517 8.87908 18.484 8.5826V7.89265C18.484 7.62909 18.3522 7.56325 18.1546 7.56325C16.9685 7.56325 17.2979 7.23384 16.1778 7.23384Z" fill="white"/>
<path d="M6.36987 3.42782C6.36987 3.82498 6.52764 4.20588 6.80848 4.48671C7.08931 4.76754 7.47021 4.92532 7.86737 4.92532C8.26453 4.92532 8.64542 4.76754 8.92625 4.48671C9.20709 4.20588 9.36486 3.82498 9.36486 3.42782C9.36486 3.03066 9.20709 2.64977 8.92625 2.36893C8.64542 2.0881 8.26453 1.93033 7.86737 1.93033C7.47021 1.93033 7.08931 2.0881 6.80848 2.36893C6.52764 2.64977 6.36987 3.03066 6.36987 3.42782Z" fill="white"/>
<path d="M7.78174 11.5133L9.2959 11.4253C9.61142 11.407 9.85218 11.1363 9.83373 10.821L9.55252 5.98324C9.53427 5.66792 9.26357 5.42696 8.94825 5.4454L7.43409 5.53346C7.11857 5.5517 6.87781 5.82241 6.89626 6.13773L7.17747 10.9755C7.19572 11.2908 7.46622 11.5316 7.78174 11.5133Z" fill="white"/>
<path d="M5.93475 9.92683C5.88596 9.92683 5.83639 9.92128 5.78681 9.90958L2.83148 9.21408C2.48423 9.13257 2.26886 8.78472 2.35056 8.43787C2.43167 8.09061 2.77813 7.87445 3.12678 7.95695L5.59384 8.53723L6.95152 5.92796C7.11672 5.61145 7.50602 5.48988 7.82273 5.6529C8.13885 5.8177 8.262 6.20739 8.0978 6.52411L6.50769 9.57899C6.39465 9.79614 6.17134 9.92683 5.93475 9.92683ZM11.8343 8.44739C11.7242 8.44739 11.614 8.41923 11.5148 8.3629L8.74491 6.78489C8.43513 6.60839 8.32705 6.21394 8.50395 5.90397C8.68045 5.5936 9.0753 5.48611 9.38488 5.66301L11.7936 7.03497L13.8542 5.55096C14.1435 5.34372 14.5471 5.40837 14.7555 5.69811C14.9635 5.98746 14.8981 6.39104 14.6084 6.59947L12.2119 8.32542C12.102 8.40481 11.9699 8.44749 11.8343 8.44739ZM7.69462 18.4573C7.43224 18.4573 7.18554 18.2962 7.08876 18.0356L5.74754 14.4088C5.6934 14.2613 5.69419 14.099 5.75091 13.9523L6.95965 10.8224C7.08876 10.4899 7.46417 10.3262 7.79517 10.4528C8.12774 10.5815 8.29334 10.9557 8.16483 11.2883L7.04374 14.1897L8.30048 17.5872C8.42403 17.9214 8.25348 18.2932 7.91872 18.4172C7.84699 18.4438 7.7711 18.4573 7.69462 18.4573ZM11.5204 17.4468C11.3203 17.4468 11.1225 17.3538 10.9964 17.1791L8.84367 14.1986C8.77318 14.101 8.73141 13.9857 8.72309 13.8656L8.50792 10.7687C8.48313 10.4129 8.75185 10.1043 9.10743 10.0799C9.46063 10.0518 9.7714 10.3235 9.79619 10.6794L9.99887 13.5919L12.0435 16.4231C12.2525 16.7119 12.1873 17.1156 11.898 17.3245C11.7839 17.4074 11.6514 17.4468 11.5204 17.4468Z" fill="white"/>
</svg>
