<svg width="20" height="20" viewBox="0 0 20 20" fill="none" xmlns="http://www.w3.org/2000/svg">
<path d="M11.6733 5.59576C12.439 5.59576 13.0747 4.94185 13.0747 4.15611C13.0747 3.37037 12.4373 2.71646 11.6733 2.71646C10.9077 2.71646 10.2703 3.37037 10.2703 4.15611C10.272 4.94185 10.9094 5.59576 11.6733 5.59576ZM14.7341 9.25904L13.0132 8.60513L11.9297 6.57662C11.8665 6.51158 11.8015 6.44654 11.8015 6.37974L11.6733 6.24966C11.2273 5.79088 10.5898 5.72584 10.0156 5.98775L7.01978 7.03541C6.76514 7.10045 6.57373 7.36236 6.5105 7.62427L6.25586 10.0448C6.19263 10.4368 6.5105 10.8305 6.89331 10.8956H6.95655C7.33936 10.8956 7.65723 10.6336 7.65723 10.2417L7.84864 8.34498L8.99536 7.95299C8.80396 8.41177 8.61255 8.86881 8.48609 9.19576C8.23145 9.78463 8.23145 10.5704 8.54932 11.2243L6.57373 15.9352C6.38233 16.394 6.57886 16.9688 7.01978 17.178C7.52393 17.417 8.12549 16.9723 8.29468 16.5891L9.76099 13.1878C10.6531 14.8243 11.6733 16.721 11.6733 16.786C11.8647 17.1129 12.1826 17.3098 12.5022 17.3098C12.6304 17.3098 12.8201 17.2448 12.9482 17.1797C13.3943 16.9178 13.5857 16.329 13.3311 15.8719C13.2678 15.7419 11.7383 12.7975 10.718 11.0309L11.6101 9.0024L11.928 9.59127C11.9912 9.78814 12.1826 9.85318 12.3108 9.91822L14.2864 10.6987C14.3496 10.6987 14.4778 10.7637 14.541 10.7637C14.8589 10.7637 15.1152 10.5669 15.2417 10.2399C15.3066 9.84791 15.1152 9.39088 14.7341 9.25904Z" fill="white"/>
<path d="M6.11469 3.84291C6.11469 4.49693 5.59374 5.02712 4.95113 5.02712C4.30851 5.02712 3.78756 4.49693 3.78756 3.84291C3.78756 3.18889 4.30851 2.6587 4.95113 2.6587C5.59374 2.6587 6.11469 3.18889 6.11469 3.84291Z" fill="white"/>
<path fill-rule="evenodd" clip-rule="evenodd" d="M4.95113 1.29686C5.04752 1.29686 5.12566 1.37639 5.12566 1.47449V1.94818C5.12566 2.04628 5.04752 2.12581 4.95113 2.12581C4.85473 2.12581 4.77659 2.04628 4.77659 1.94818V1.47449C4.77659 1.37639 4.85473 1.29686 4.95113 1.29686ZM3.01231 1.88093C3.07736 1.80853 3.18776 1.8035 3.2589 1.8697L3.77599 2.35086C3.84713 2.41706 3.85207 2.52942 3.78703 2.60182C3.72198 2.67422 3.61158 2.67925 3.54044 2.61306L3.02335 2.13189C2.95221 2.06569 2.94727 1.95334 3.01231 1.88093ZM6.88994 1.88093C6.95498 1.95334 6.95004 2.06569 6.8789 2.13189L6.36181 2.61306C6.29067 2.67925 6.18027 2.67422 6.11522 2.60182C6.05018 2.52942 6.05512 2.41706 6.12626 2.35086L6.64335 1.8697C6.7145 1.8035 6.82489 1.80853 6.88994 1.88093ZM2.44946 3.84291C2.44946 3.74481 2.5276 3.66528 2.624 3.66528H3.08942C3.18582 3.66528 3.26396 3.74481 3.26396 3.84291C3.26396 3.94102 3.18582 4.02054 3.08942 4.02054H2.624C2.5276 4.02054 2.44946 3.94102 2.44946 3.84291ZM6.63829 3.84291C6.63829 3.74481 6.71643 3.66528 6.81283 3.66528H7.27825C7.37465 3.66528 7.45279 3.74481 7.45279 3.84291C7.45279 3.94102 7.37465 4.02054 7.27825 4.02054H6.81283C6.71643 4.02054 6.63829 3.94102 6.63829 3.84291ZM6.12063 5.03309C6.18879 4.96372 6.2993 4.96373 6.36746 5.0331L6.88455 5.55943C6.9527 5.62881 6.9527 5.74128 6.88453 5.81064C6.81637 5.88001 6.70586 5.88 6.6377 5.81063L6.12061 5.2843C6.05246 5.21492 6.05246 5.10245 6.12063 5.03309ZM3.78167 5.03312C3.84983 5.10249 3.84983 5.21496 3.78167 5.28433L3.26453 5.81065C3.19637 5.88002 3.08586 5.88002 3.0177 5.81065C2.94954 5.74128 2.94954 5.62881 3.0177 5.55944L3.53484 5.03312C3.603 4.96375 3.71351 4.96375 3.78167 5.03312ZM4.95113 5.56002C5.04752 5.56002 5.12566 5.63955 5.12566 5.73765V6.21133C5.12566 6.30944 5.04752 6.38896 4.95113 6.38896C4.85473 6.38896 4.77659 6.30944 4.77659 6.21133V5.73765C4.77659 5.63955 4.85473 5.56002 4.95113 5.56002Z" fill="white"/>
</svg>
