<svg width="20" height="20" viewBox="0 0 20 20" fill="none" xmlns="http://www.w3.org/2000/svg">
<path d="M13.0941 3.2537C13.0941 4.15199 12.3742 4.87787 11.4894 4.87787C10.6051 4.87787 9.88469 4.15196 9.88469 3.2537C9.88469 2.35549 10.605 1.63005 11.4894 1.63005C12.3742 1.63005 13.0941 2.35546 13.0941 3.2537Z" fill="white" stroke="white" stroke-width="0.260097"/>
<path d="M9.85415 5.78585L9.87907 5.91349C9.93318 5.90293 9.9873 5.89191 10.0414 5.88088C10.2349 5.8415 10.4287 5.80203 10.6242 5.78292C10.8721 5.75869 11.1086 5.76918 11.3257 5.8514C12.0541 6.12733 12.4251 6.95032 12.1508 7.68951L12.1508 7.68954L10.874 11.1331L10.8441 11.2136L10.9065 11.2727L14.0305 14.2324L14.0305 14.2324L14.2328 14.4239L14.2593 14.5766L14.2591 14.5766L14.2604 14.5825L15.0071 17.9453C15.0769 18.26 14.8584 18.5955 14.5386 18.6672C14.2203 18.7386 13.9249 18.5318 13.8427 18.1912L13.1251 15.2179L13.1132 15.1688L13.0712 15.1405L9.0642 12.4477L9.04647 12.4358L9.02587 12.4301C9.0039 12.4242 8.98613 12.4198 8.97047 12.416C8.94431 12.4096 8.92408 12.4047 8.90006 12.3959C8.17197 12.1192 7.80129 11.2969 8.07551 10.5574L9.21319 7.48977L9.29162 7.27829L9.0693 7.31637C8.81632 7.35969 8.5632 7.40264 8.30995 7.4456L8.30994 7.4456L8.30988 7.44561C8.05669 7.48857 7.80338 7.53154 7.55018 7.5749L7.53557 7.57741L7.52191 7.58313C7.41075 7.62966 7.32648 7.70882 7.1318 7.91985L6.53141 8.54824L6.53109 8.54858C6.34264 8.74724 6.16543 8.96118 5.99128 9.17141C5.97774 9.18776 5.96421 9.20409 5.9507 9.22039C5.76229 9.44766 5.57627 9.66944 5.37654 9.87091C5.31237 9.93562 5.21219 9.96378 5.09446 9.94877C4.97657 9.93373 4.85904 9.87672 4.7806 9.797L4.78037 9.79676C4.70915 9.72474 4.65629 9.61737 4.63913 9.50536C4.62197 9.39338 4.64225 9.29132 4.69665 9.21924L4.69666 9.21922C4.92416 8.91765 5.15818 8.65237 5.40492 8.37267C5.53517 8.22502 5.66897 8.07335 5.80722 7.9102L5.8073 7.91027L5.8104 7.9063L6.3461 7.22218C6.38607 7.17438 6.41455 7.13632 6.44229 7.09924C6.49505 7.02872 6.54514 6.96177 6.66662 6.83821C6.81767 6.68948 7.00113 6.57233 7.20122 6.49284L7.2017 6.49265L7.23148 6.48068L7.29043 6.46797C7.29045 6.46796 7.29047 6.46796 7.29048 6.46796C7.56073 6.40979 7.8302 6.35053 8.09936 6.29135C8.69271 6.16088 9.28447 6.03076 9.87932 5.91345L9.85415 5.78585ZM9.85415 5.78585C9.90596 5.77574 9.95854 5.76503 10.0117 5.75419C10.4537 5.66415 10.9379 5.56549 11.3717 5.72979L6.24501 7.14032C6.27866 7.10017 6.30531 7.06471 6.3326 7.02839C6.38858 6.95388 6.44725 6.87577 6.57461 6.74629C6.7389 6.58431 6.93758 6.45764 7.1532 6.37198L7.19325 6.35588L7.26307 6.34083C7.5321 6.28293 7.80093 6.22381 8.06976 6.1647C8.66382 6.03407 9.25789 5.90344 9.85415 5.78585Z" fill="white" stroke="white" stroke-width="0.260097"/>
<path d="M12.4833 9.10992L11.2027 7.64318C10.9649 7.37075 10.992 6.95329 11.2631 6.71466C11.5388 6.47194 11.9576 6.50991 12.1863 6.79837L13.1835 8.0561C13.3368 8.24938 13.5297 8.40628 13.749 8.51582L14.9888 9.13529C15.2159 9.24874 15.327 9.5139 15.2502 9.75894C15.1613 10.0423 14.857 10.1924 14.583 10.0881L13.0464 9.50293C12.83 9.4205 12.6366 9.28559 12.4833 9.10992Z" fill="white" stroke="white" stroke-width="0.260097"/>
<path d="M6.82323 16.0209L8.45906 13.7489C8.73341 13.3678 8.61625 12.8278 8.20827 12.593C7.84634 12.3847 7.38854 12.4967 7.16467 12.8483L5.8993 14.8358C5.73933 15.087 5.51612 15.2906 5.25232 15.4257L3.53774 16.3041C3.28418 16.434 3.16199 16.7307 3.24877 17.0058C3.35207 17.3333 3.70843 17.5051 4.02321 17.3791L6.20286 16.5067C6.45121 16.4073 6.66624 16.239 6.82323 16.0209Z" fill="white" stroke="white" stroke-width="0.260097"/>
</svg>
