<svg width="20" height="20" viewBox="0 0 20 20" fill="none" xmlns="http://www.w3.org/2000/svg">
<path fill-rule="evenodd" clip-rule="evenodd" d="M14.2089 5.16931C15.0856 5.33061 15.9285 4.75837 16.0909 3.89042C16.2544 3.02301 15.6758 2.18852 14.7996 2.02721C13.9229 1.86591 13.0806 2.43815 12.9176 3.30611C12.7547 4.17352 13.3327 5.00801 14.2089 5.16931Z" fill="white"/>
<mask id="mask0_7377_163539" style="mask-type:alpha" maskUnits="userSpaceOnUse" x="4" y="4" width="14" height="14">
<path d="M4.96558 4.25339H17.1283V17.6941H4.96558V4.25339Z" fill="white"/>
</mask>
<g mask="url(#mask0_7377_163539)">
<path fill-rule="evenodd" clip-rule="evenodd" d="M9.91662 11.2472C9.86287 11.1885 9.78528 11.1166 9.7415 11.0782L9.64064 10.9871L8.83596 10.2585L8.38263 9.84427L10.7828 7.59812L12.9558 8.87646L13.2805 9.06739L13.4717 9.06135L16.4416 8.96534C16.8113 8.95217 17.1155 8.65755 17.1277 8.28612C17.1405 7.89822 16.8334 7.57397 16.4416 7.56136L13.8353 7.47686L11.6374 4.98327C11.5653 4.90207 11.4761 4.828 11.3819 4.76271C10.7507 4.10818 9.70215 4.07965 9.03713 4.70181L5.48589 8.02551C4.81865 8.65042 4.78872 9.6923 5.41994 10.3529C5.60393 10.5454 5.82506 10.6782 6.06059 10.7633L7.51477 11.8348L8.38651 12.4833L8.49569 12.5645C8.52118 12.5837 8.51065 12.5721 8.52007 12.5776C8.53005 12.5809 8.53891 12.5864 8.54778 12.593C8.56551 12.61 8.57826 12.6188 8.58546 12.6588L8.82543 16.9701C8.84815 17.3657 9.17623 17.6861 9.583 17.6939C10.0103 17.7014 10.3627 17.3651 10.3705 16.9421L10.4536 12.6281C10.4592 12.3088 10.3738 11.9593 10.2131 11.6636C10.1328 11.5138 10.033 11.3733 9.91662 11.2472Z" fill="white"/>
</g>
<path d="M7.09488 14.7909C7.09488 16.4684 5.71022 17.8422 3.98482 17.8422C2.25941 17.8422 0.874756 16.4684 0.874756 14.7909C0.874756 13.1134 2.25941 11.7396 3.98482 11.7396C5.71022 11.7396 7.09488 13.1134 7.09488 14.7909Z" stroke="white"/>
<path d="M18.5233 14.7909C18.5233 16.4684 17.1387 17.8422 15.4133 17.8422C13.6879 17.8422 12.3032 16.4684 12.3032 14.7909C12.3032 13.1134 13.6879 11.7396 15.4133 11.7396C17.1387 11.7396 18.5233 13.1134 18.5233 14.7909Z" stroke="white"/>
</svg>
