<svg width="20" height="20" viewBox="0 0 20 20" fill="none" xmlns="http://www.w3.org/2000/svg">
<path d="M7.47755 3.69343C2.60225 2.20634 0.333264 7.58757 3.5374 7.58757C4.16604 7.58757 4.32957 6.92839 4.44187 6.11581C4.46748 5.48718 5.95556 4.20414 7.47755 3.69343Z" fill="#F2F2F2"/>
<path d="M3.31743 7.57999L7.20101 12.817V14.069C7.20101 14.1884 7.27672 14.2945 7.38945 14.3333L8.24973 14.63C8.33163 14.6583 8.38666 14.7354 8.38666 14.8221V16.1082H7.12445C6.91842 16.1082 6.75138 16.2753 6.75138 16.4813V18.183C6.75813 18.4249 7.22156 18.4794 7.31345 18.2545C7.37819 18.6225 7.88242 18.5883 7.88073 18.2545V17.0024C7.88073 16.9347 7.93562 16.8797 8.00345 16.8797H9.24271C9.49251 16.8797 9.69502 16.6772 9.69502 16.4274V15.1975C9.69502 15.1021 9.78818 15.0346 9.87881 15.0643L10.5075 15.27C10.6613 15.3204 10.8193 15.2057 10.8193 15.044V13.8595L17.4601 10.3597C17.5709 10.3012 17.6551 10.2025 17.6952 10.0839C19.8839 3.60916 3.53627 -2.33287 1.89648 5.32001C3.92552 1.01213 10.725 2.14093 16.4046 10.2743C16.4265 10.3056 16.4163 10.3493 16.3826 10.3677L11.7386 12.8983C11.6755 12.9326 11.6087 12.8595 11.6486 12.7998L14.7593 8.14094L14.3301 7.589L11.1831 12.532C11.1414 12.5974 11.04 12.5556 11.0567 12.4798L12.5669 5.61132L12.0763 5.1054L10.3545 13.1657C10.3474 13.1988 10.3441 13.2325 10.3443 13.2663L10.3567 14.4562C10.358 14.5716 10.2478 14.6556 10.1369 14.6239L7.88031 13.9811C7.83502 13.9682 7.79529 13.9406 7.76733 13.9027C7.73938 13.8648 7.72476 13.8188 7.72579 13.7717L7.75281 12.5409L9.68461 3.52627L9.16334 3.43508L7.51667 11.3831C7.50864 11.4219 7.45277 11.4205 7.44658 11.3814L6.26586 3.83278L5.69858 4.36938L6.92208 11.4122C6.93024 11.4595 6.86889 11.4854 6.84074 11.4464L3.65955 7.03705L3.31743 7.57999Z" fill="#F2F2F2"/>
<path d="M8.44531 13.5207C8.44531 13.6671 8.50346 13.8075 8.60697 13.911C8.71048 14.0145 8.85087 14.0726 8.99725 14.0726C9.14364 14.0726 9.28403 14.0145 9.38754 13.911C9.49105 13.8075 9.5492 13.6671 9.5492 13.5207C9.5492 13.3743 9.49105 13.2339 9.38754 13.1304C9.28403 13.0269 9.14364 12.9688 8.99725 12.9688C8.85087 12.9688 8.71048 13.0269 8.60697 13.1304C8.50346 13.2339 8.44531 13.3743 8.44531 13.5207Z" fill="#F2F2F2"/>
</svg>
