<svg width="20" height="20" viewBox="0 0 20 20" fill="none" xmlns="http://www.w3.org/2000/svg">
<path fill-rule="evenodd" clip-rule="evenodd" d="M13.9986 1.16226C14.2704 1.29408 14.4466 1.56891 14.232 1.93457L11.868 6.80407L11.6964 10.393C11.6985 10.5656 11.7948 10.8437 11.927 11.2439C11.9729 11.4739 12.1191 12.1994 12.5642 14.355C12.7528 15.4536 13.096 17.1459 13.2575 18.0842C13.35 18.6208 13.2575 18.8303 12.9037 18.9201C12.3563 19.0592 12.1995 18.4071 12.0826 18.0842C11.3387 16.0196 10.9551 13.7536 10.2185 11.6832C10.2075 11.6433 10.2039 11.6014 10.203 11.559H9.86388C9.86632 11.6148 9.86145 11.6694 9.84766 11.7206C9.24066 13.7946 8.89936 15.9152 8.16655 17.9466C8.05011 18.2694 7.97704 18.9549 7.29277 18.781C6.98997 18.7041 6.93135 18.4249 6.98997 18.0842C7.15143 17.1459 7.42893 15.4536 7.61757 14.355C8.11534 12.21 8.17112 11.4802 8.16655 11.2459C8.16195 11.0116 8.25771 10.5656 8.25771 10.3848L8.07803 6.62439L5.8017 1.93457C5.58709 1.56891 5.65244 1.24999 5.92425 1.11817C6.16848 0.99978 6.48573 1.02296 6.74537 1.39618C7.44834 2.4712 8.44691 5.31077 10.0116 5.31077C11.6763 5.31077 12.6085 2.61454 13.3143 1.53528C13.5744 1.16206 13.7539 1.04387 13.9986 1.16226ZM11.3483 3.10642C11.398 3.85009 10.8574 4.49486 10.1404 4.54618C9.42335 4.5975 8.80217 4.03671 8.75251 3.29304C8.70285 2.54889 9.24344 1.90506 9.96046 1.85327C10.6775 1.80195 11.2987 2.36274 11.3483 3.10642Z" fill="white"/>
</svg>
