<svg width="20" height="20" viewBox="0 0 20 20" fill="none" xmlns="http://www.w3.org/2000/svg">
<path d="M12.1351 3.90437C12.2911 4.18239 12.3156 4.51528 12.2021 4.81317L11.0266 7.89918L11.8373 10.6725L15.6386 17.3516C15.8741 17.7655 15.7597 18.2903 15.3733 18.5686C14.9329 18.8858 14.3157 18.761 14.0332 18.2976L10.2055 12.0192L7.07789 15.1166L8.34896 17.6342C8.55348 18.0392 8.41647 18.5334 8.03257 18.7754C7.59352 19.052 7.01162 18.8907 6.77773 18.4275L5.47676 15.8506C5.13422 15.1722 5.268 14.3503 5.80802 13.8155L8.16575 11.4805L7.21387 8.58637L5.23844 10.4231L6.18491 12.5999C6.36952 13.0246 5.97391 13.4714 5.53007 13.3395C5.37852 13.2945 5.25401 13.1858 5.18884 13.0418L3.68431 9.71665L6.1734 7.25739C6.5889 6.84687 7.0976 6.54302 7.65604 6.3718L9.96625 5.66349L10.6772 4.34253C10.7222 4.25896 10.7215 4.15824 10.6755 4.07527L9.54001 2.03074C9.37608 1.73557 9.45611 1.36463 9.72716 1.16331C10.053 0.921301 10.5173 1.02044 10.7159 1.37442L12.1351 3.90437Z" fill="#F2F2F2"/>
<path d="M8.16575 5.82444C7.41474 5.82444 6.80592 5.22151 6.80592 4.47775C6.80592 3.734 7.41474 3.13107 8.16575 3.13107C8.91676 3.13107 9.52557 3.734 9.52557 4.47775C9.52557 5.22151 8.91676 5.82444 8.16575 5.82444Z" fill="#F2F2F2"/>
</svg>
