<svg width="20" height="20" viewBox="0 0 20 20" fill="none" xmlns="http://www.w3.org/2000/svg">
<ellipse cx="10.7183" cy="3.06013" rx="1.38431" ry="1.38435" fill="white"/>
<path d="M8.42803 4.44531L5.73521 6.52181L3.38167 5.41434L2.68945 6.79867L5.89315 8.60026L7.39653 7.21397L6.65361 10.7547L8.42803 11.8954L8.17454 13.9231L3.48502 15.3172L3.7385 16.838L9.69547 15.3172L10.0757 12.529L11.5498 13.5819L11.7234 18.5655L13.1371 18.197L12.9908 12.6558L10.7094 10.5013L11.0564 8.11512L11.7234 9.61414L13.878 11.3884L14.6385 10.3745L12.7373 8.60026L11.7234 5.27591L8.42803 4.44531Z" fill="white"/>
<path d="M15.0093 9.28749L13.4867 10.1164" stroke="white" stroke-width="2.1272" stroke-linecap="round"/>
<path d="M16.955 6.78595L18.1888 8.87545L15.7702 10.2234L14.3758 9.63775L14.5364 8.13391L16.955 6.78595Z" fill="white"/>
<ellipse cx="15.4229" cy="6.10843" rx="0.553725" ry="0.553739" fill="white"/>
</svg>
