<svg width="20" height="20" viewBox="0 0 20 20" fill="none" xmlns="http://www.w3.org/2000/svg">
<path d="M3.78038 8.33869C4.594 8.19939 5.14065 7.42689 5.00135 6.61327C4.86205 5.79965 4.08955 5.253 3.27593 5.3923C2.46231 5.53161 1.91566 6.3041 2.05496 7.11773C2.19426 7.93135 2.96676 8.47799 3.78038 8.33869Z" fill="white"/>
<path d="M7.79053 15.0646L4.41042 11.59C3.36422 10.6336 3.64647 8.91743 4.94387 8.34652L8.00542 6.99929L10.4208 4.99084C10.7669 4.72215 11.2706 4.92561 11.5249 5.28234C11.7556 5.60599 11.7024 6.052 11.4021 6.31232L9.00213 8.39241L7.34855 9.52848L9.91281 12.2828L12.9136 10.4747L16.3241 8.73441C16.6125 8.49637 17.1139 8.33789 17.4377 8.73441C17.908 9.31034 17.62 9.88628 17.188 10.0303L14.5693 11.5654L10.9881 14.7281C10.2389 15.7765 8.74164 15.934 7.79053 15.0646Z" fill="white"/>
<rect x="1.63672" y="15.7891" width="16.4141" height="0.575934" rx="0.287967" fill="white"/>
</svg>
