<svg width="20" height="20" viewBox="0 0 20 20" fill="none" xmlns="http://www.w3.org/2000/svg">
<path fill-rule="evenodd" clip-rule="evenodd" d="M18.1827 7.22861C18.9361 7.22861 19.547 6.61779 19.547 5.8643C19.547 5.11082 18.9361 4.5 18.1827 4.5C17.4292 4.5 16.8184 5.11082 16.8184 5.8643C16.8184 6.61779 17.4292 7.22861 18.1827 7.22861ZM3.39743 12.9986L8.90717 10.3635C9.36391 11.2008 10.4016 11.5263 11.2547 11.0997L14.6372 9.40845V12.2735C14.6372 12.7256 15.0037 13.0921 15.4558 13.0921C15.9079 13.0921 16.2744 12.7256 16.2744 12.2735V8.58987L16.5019 8.22582C16.7852 7.77257 16.8182 7.20626 16.5894 6.72322C16.1176 5.72724 14.9178 5.31572 13.934 5.81248L2.66275 11.5039C2.26404 11.7052 2.09516 12.1853 2.27999 12.5919C2.47293 13.0164 2.97678 13.1997 3.39743 12.9986Z" fill="white"/>
<rect y="13.3047" width="20" height="1.05263" rx="0.526316" fill="white"/>
</svg>
