<svg width="20" height="20" viewBox="0 0 20 20" fill="none" xmlns="http://www.w3.org/2000/svg">
<path d="M11.3358 12.7231H12.7104L10.9579 17.0133C10.7905 17.3427 10.2534 17.2118 10.2534 16.8444L11.3358 12.7231ZM7.18209 12.1699V14.6401L8.75417 16.6923C8.95316 17.1203 8.48358 17.3004 8.23873 17.0976L6.37815 14.978C6.32209 14.9142 6.28221 14.8382 6.26179 14.7563L5.89355 13.2846L7.18209 12.1699Z" fill="#F2F2F2"/>
<path fill-rule="evenodd" clip-rule="evenodd" d="M17.9863 5.64491L18.4503 5.1719C18.5427 5.01676 18.5052 4.92254 18.3471 4.88477H15.8386C14.735 4.99131 13.7713 5.35642 13.0036 6.08407L13.0036 6.08409C12.9683 6.13708 12.9351 6.18693 12.9036 6.23401L13.7549 6.7711C14.0739 6.97243 14.1771 7.38986 13.9885 7.71662C13.7972 8.04801 13.3759 8.16533 13.0408 7.98053L11.9956 7.40401C11.8617 7.54705 11.6971 7.71876 11.483 7.94212C11.1323 7.94212 10.7819 7.94488 10.4315 7.94881L10.3423 10.2245C10.3275 10.6015 10.0176 10.8995 9.64037 10.8995C9.25777 10.8995 8.94554 10.5933 8.93804 10.2108L8.89408 7.96877C8.33669 7.97519 7.77868 7.97879 7.21918 7.97326L5.77021 7.95891C5.24265 8.09726 4.91821 8.34473 4.69636 8.64717L3.70417 8.68521C3.44362 8.78985 3.27135 9.0135 3.15003 9.30591L1.52948 12.7281C1.4569 12.8815 1.52287 13.0638 1.67765 13.1376C2.40902 13.4865 3.05666 13.1099 3.29517 12.3277C3.30165 12.3065 3.30523 12.2846 3.3066 12.2625L3.44638 9.83808C3.54057 9.38741 3.82769 9.20722 4.23242 9.19206C3.78652 9.89426 3.88443 10.5706 4.19221 11.2371C4.21038 11.2765 4.21975 11.3192 4.2203 11.3626L4.23242 12.4352L3.09839 13.778L2.6087 16.9069C2.6602 17.2743 3.08985 17.2997 3.18859 16.9576L3.92313 14.4493L7.03327 11.7994C7.13986 11.7087 7.29134 11.6896 7.41761 11.7511L8.43321 12.2451L12.6004 12.281C12.7566 12.2823 12.8998 12.3665 12.975 12.5011L15 14L14.7 15.4C14.6 15.9 15.4 16 15.5 15.6L16.1651 13.3949L14.4402 11.4599C14.4051 11.3525 14.4445 11.2356 14.5373 11.1692C14.6476 11.0905 14.7386 10.9763 14.7992 10.8135L15.7206 7.24953C15.7393 7.17697 15.841 7.16925 15.8708 7.23803L16.6725 9.08037C16.7083 9.16255 16.7924 9.21413 16.8831 9.20939L17.831 9.16038C17.8649 9.15863 17.8968 9.14423 17.9202 9.12013C17.9437 9.09602 17.9569 9.06404 17.9571 9.03069L17.9863 5.64491Z" fill="#F2F2F2"/>
<path fill-rule="evenodd" clip-rule="evenodd" d="M12.0037 5.9861L12.0325 6.00189C12.4514 6.25299 12.7826 6.42986 13.0457 6.57034C13.3114 6.71226 13.5076 6.81704 13.6545 6.9237C13.8494 7.06521 13.9152 7.33032 13.7964 7.54691C13.676 7.76639 13.4097 7.85399 13.1823 7.761C13.1545 7.74963 13.1327 7.74178 13.1127 7.73463C13.0524 7.71299 13.0097 7.69768 12.8746 7.61064L12.0484 7.18292L12.0533 7.17757L11.3594 6.83057L11.354 6.8344L11.178 6.7461C10.9889 6.65118 10.8837 6.45673 10.8939 6.2592L10.8959 6.22589L10.9481 5.2467L8.67384 5.64812L10.0856 7.11055L10.1096 7.13558C10.215 7.24493 10.2646 7.38894 10.2592 7.52929L10.1801 8.56632C10.1811 8.56562 10.182 8.56491 10.183 8.5642L10.1797 8.57076L10.1647 9.12617C10.1636 9.12684 10.1624 9.12751 10.1613 9.12818L10.1233 10.2324C10.1119 10.4981 9.88602 10.7043 9.61896 10.6931C9.36235 10.6822 9.16109 10.4729 9.15567 10.2211C9.13535 9.40631 9.11853 8.59148 9.10278 7.7766L6.75768 5.61222C6.56571 5.45762 6.42618 5.23679 6.37973 4.97592C6.28046 4.41952 6.6406 3.88718 7.18691 3.76011L10.8538 2.91531C11.4786 2.7713 12.1027 3.15866 12.2473 3.78033C12.2576 3.82403 12.2645 3.86793 12.2696 3.91144C12.275 3.94321 12.2763 3.97594 12.2769 4.00886L12.2771 4.01386C12.2772 4.0193 12.2777 4.02464 12.2782 4.02996C12.2788 4.03745 12.2795 4.04491 12.279 4.05256C12.2786 4.06185 12.2775 4.07135 12.2764 4.08083C12.2761 4.08393 12.2757 4.08702 12.2754 4.0901C12.2723 4.16442 12.2618 4.23739 12.2448 4.30843L12.0037 5.9861Z" fill="#F2F2F2"/>
<path d="M13.0448 3.3237C13.5791 3.3237 14.0124 2.89263 14.0124 2.36107C14.0124 1.8295 13.5791 1.39844 13.0448 1.39844C12.5104 1.39844 12.0771 1.8295 12.0771 2.36107C12.0771 2.89263 12.5104 3.3237 13.0448 3.3237Z" fill="#F2F2F2"/>
<rect width="0.422395" height="5.38569" transform="matrix(0.774386 0.632713 -0.632585 0.774491 16.8848 2.2207)" fill="#F2F2F2"/>
<rect width="2.01112" height="0.689661" rx="0.186058" transform="matrix(0.774386 0.632713 -0.632585 0.774491 16.4248 1.57422)" fill="#F2F2F2"/>
</svg>
