<svg width="20" height="20" viewBox="0 0 20 20" fill="none" xmlns="http://www.w3.org/2000/svg">
<g clip-path="url(#clip0_7377_163884)">
<path d="M1.31068 4.53209L18.8389 4.59246C19.056 4.58454 19.0642 4.99746 18.8389 4.99746H1.31068C1.05004 4.99746 1.06588 4.53627 1.31068 4.53209Z" fill="white"/>
<path d="M3.60596 4.94095L3.53111 18.0077C3.54093 18.1695 3.02903 18.1756 3.02903 18.0077L3.02903 4.94095C3.02903 4.74665 3.60077 4.75845 3.60596 4.94095Z" fill="white"/>
<path d="M16.5884 4.94095L16.5135 18.0077C16.5233 18.1695 16.0115 18.1756 16.0115 18.0077L16.0115 4.94095C16.0115 4.74665 16.5832 4.75845 16.5884 4.94095Z" fill="white"/>
<path d="M8.84424 2.61875C8.84424 2.7775 8.87609 2.9347 8.93798 3.08137C8.99987 3.22803 9.09058 3.3613 9.20493 3.47355C9.31929 3.58581 9.45504 3.67485 9.60445 3.7356C9.75386 3.79636 9.914 3.82763 10.0757 3.82763C10.2374 3.82763 10.3976 3.79636 10.547 3.7356C10.6964 3.67485 10.8322 3.58581 10.9465 3.47355C11.0609 3.3613 11.1516 3.22803 11.2135 3.08137C11.2754 2.9347 11.3072 2.7775 11.3072 2.61875C11.3072 2.29814 11.1775 1.99065 10.9465 1.76395C10.7156 1.53724 10.4023 1.40988 10.0757 1.40988C9.74911 1.40988 9.43588 1.53724 9.20493 1.76395C8.97398 1.99065 8.84424 2.29814 8.84424 2.61875Z" fill="white"/>
<path d="M8.45267 6.577L8.39147 10.3145L6.11134 17.6316C6.01361 18.2445 7.13197 18.8094 7.56084 17.9994L9.89516 10.9006C9.9521 10.6901 10.207 10.6822 10.2752 10.9006L12.4848 17.9992C12.9109 18.684 14.1378 18.4148 13.9614 17.5303L11.7464 10.5596L11.767 6.55488C11.7674 6.47926 11.8627 6.44429 11.9134 6.50108L13.042 7.76002C13.4727 8.17743 14.1133 8.05488 14.3015 7.50417L15.1991 4.43095C15.4651 3.63096 14.24 3.51962 14.1496 3.77368L13.4497 5.98504C13.4256 6.06081 13.3226 6.07501 13.2784 6.00851L12.5716 4.94609C12.3708 4.68142 12.0667 4.64944 11.7029 4.64047H8.40943C7.918 4.66379 7.67213 4.85 7.50466 5.08807L6.88854 6.02046C6.85733 6.06754 6.78425 6.05753 6.76766 6.00373L6.11119 3.88741C5.79088 3.35448 4.81912 3.7275 4.95659 4.32081L5.80351 7.36205C5.97539 7.90558 6.56457 8.26067 7.14994 7.69606L8.28992 6.51199C8.34899 6.45057 8.45404 6.49257 8.45267 6.577Z" fill="white"/>
</g>
<defs>
<clipPath id="clip0_7377_163884">
<rect width="18.1731" height="17.0192" fill="white" transform="translate(1.00977 1.39453)"/>
</clipPath>
</defs>
</svg>
