<svg width="20" height="20" viewBox="0 0 20 20" fill="none" xmlns="http://www.w3.org/2000/svg">
<path fill-rule="evenodd" clip-rule="evenodd" d="M17.7649 7.70289C18.5103 7.74096 19.1454 7.16754 19.1835 6.42212C19.2215 5.6767 18.6482 5.04156 17.9028 5.00349C17.1574 4.96542 16.5223 5.53884 16.4843 6.28426C16.4462 7.02968 17.0196 7.66482 17.7649 7.70289ZM3.12377 12.1478L8.72715 9.811L8.99138 10.3604C9.26162 10.9223 9.90135 11.203 10.4978 11.0214L14.4092 9.83057L14.6318 10.8211C14.7712 11.4412 15.3218 11.8818 15.9573 11.8818L17.8111 11.8818C18.1629 11.8818 18.448 11.5966 18.448 11.2449C18.448 10.8931 18.1629 10.6079 17.8111 10.6079L16.5712 10.6079C16.4865 10.6079 16.4146 10.5458 16.4023 10.4619L16.205 9.11035L16.2514 9.02831C16.5038 8.58195 16.537 8.04432 16.3414 7.5703C15.9106 6.52613 14.727 6.01452 13.6713 6.41614L2.52868 10.6549C2.11028 10.8141 1.90258 11.2844 2.06678 11.7009C2.23184 12.1195 2.70845 12.321 3.12377 12.1478Z" fill="white"/>
<rect y="12.2035" width="20" height="1.08117" rx="0.540583" fill="white"/>
</svg>
