<svg width="20" height="20" viewBox="0 0 20 20" fill="none" xmlns="http://www.w3.org/2000/svg">
<path d="M15.1701 13.7074C13.9625 13.7074 13.1827 12.8516 12.4958 12.0943C11.8455 11.3793 11.2346 10.7064 10.3366 10.7571C10.1874 10.7656 10.0495 10.6952 9.96502 10.5741C9.88338 10.4531 9.87212 10.2954 9.93405 10.1631L12.7942 4.16677C12.8589 4.02883 12.9941 3.93874 13.1461 3.9303C14.4382 3.85429 15.2546 4.75233 15.9696 5.53777C16.6199 6.25282 17.228 6.92565 18.1288 6.87498C18.2752 6.86653 18.416 6.93691 18.5004 7.05796C18.5821 7.17902 18.5933 7.33667 18.5314 7.46898L15.6712 13.4653C15.6065 13.6033 15.4714 13.6933 15.3193 13.7018C15.2715 13.7046 15.2208 13.7074 15.1701 13.7074ZM10.9531 9.97449C11.8793 10.1744 12.5296 10.8894 13.1151 11.5341C13.7063 12.1844 14.2693 12.8009 15.035 12.8685L17.5179 7.66041C16.5918 7.46054 15.9415 6.74548 15.3559 6.1008C14.7648 5.45049 14.2018 4.83397 13.436 4.76641L10.9531 9.97449Z" fill="#F2F2F2"/>
<path d="M14.0532 6.28997C13.6816 6.00282 13.2706 5.7945 12.7836 5.74946C12.9525 5.39193 13.1242 5.03722 13.2931 4.67969C13.7801 4.72473 14.1912 4.93305 14.5627 5.2202C14.3938 5.57773 14.2221 5.93526 14.0532 6.28997ZM14.5881 8.37039C14.2503 8.01286 13.9153 7.64689 13.5409 7.35974C13.7098 7.00221 13.8815 6.6475 14.0504 6.28997C14.422 6.57712 14.757 6.94309 15.0976 7.30062C14.9287 7.65815 14.757 8.01286 14.5881 8.37039ZM16.1674 8.26342C15.7789 8.00723 15.4382 7.65815 15.1004 7.30062C15.2693 6.94309 15.4411 6.58838 15.61 6.23085C15.9478 6.58838 16.2912 6.93746 16.6769 7.19365C16.508 7.55117 16.3363 7.90589 16.1674 8.26342ZM16.9922 9.73294C16.4742 9.74983 16.0435 9.58937 15.655 9.33319C15.8239 8.97566 15.9956 8.62094 16.1645 8.26342C16.553 8.5196 16.9837 8.68006 17.5017 8.66317C17.3328 9.0207 17.1639 9.37541 16.9922 9.73294ZM13.0313 8.43233C12.6597 8.14518 12.2487 7.93685 11.7617 7.89181C11.9306 7.53428 12.1023 7.17957 12.2713 6.82204C12.7583 6.86708 13.1693 7.07541 13.5409 7.36256C13.372 7.71727 13.2031 8.0748 13.0313 8.43233ZM13.5662 10.5127C13.2284 10.1552 12.8934 9.78925 12.519 9.5021C12.6879 9.14457 12.8596 8.78704 13.0285 8.43233C13.4001 8.71948 13.7351 9.08545 14.0757 9.44298C13.9068 9.79769 13.7379 10.1552 13.5662 10.5127ZM15.1455 10.403C14.757 10.1468 14.4164 9.79769 14.0757 9.44016C14.2446 9.08263 14.4164 8.72792 14.5853 8.37039C14.9231 8.72792 15.2665 9.077 15.655 9.33319C15.4861 9.69071 15.3172 10.0482 15.1455 10.403Z" fill="#F2F2F2"/>
<path d="M15.9716 11.8718C15.4536 11.8915 15.0229 11.7283 14.6344 11.4721C14.8033 11.1146 14.975 10.7598 15.1439 10.4023C15.5296 10.6585 15.9631 10.819 16.4811 10.8021C16.3122 11.1596 16.1405 11.5171 15.9716 11.8718ZM12.0079 10.5712C11.6363 10.2841 11.2253 10.0757 10.7383 10.0307C10.9072 9.67318 11.0789 9.31847 11.2478 8.96094C11.7348 9.00598 12.1458 9.2143 12.5174 9.50145C12.3485 9.85898 12.1796 10.2137 12.0079 10.5712ZM14.1249 12.5447C13.7364 12.2885 13.3957 11.9394 13.0579 11.5819C13.2268 11.2243 13.3986 10.8696 13.5675 10.5121C13.9053 10.8696 14.2487 11.2187 14.6344 11.4749C14.4627 11.8296 14.2938 12.1871 14.1249 12.5447Z" fill="#F2F2F2"/>
<path d="M7.77318 16.0827C7.71406 16.0827 7.65213 16.0686 7.59301 16.0433C7.3847 15.9448 7.29743 15.6942 7.39596 15.4859L10.6333 8.69849C10.7319 8.49016 10.9824 8.40289 11.1907 8.50143C11.399 8.59996 11.4863 8.85051 11.3878 9.05883L8.1504 15.8462C8.08003 15.9954 7.93083 16.0827 7.77318 16.0827Z" fill="#F2F2F2"/>
<path d="M4.83249 13.7074C4.78182 13.7074 4.73115 13.7074 4.68048 13.7018C4.52846 13.6934 4.39333 13.6033 4.32859 13.4653L1.46844 7.46899C1.40369 7.33668 1.41777 7.17903 1.49941 7.05798C1.58104 6.93411 1.7218 6.86655 1.871 6.87499C1.90478 6.87781 1.93856 6.87781 1.97234 6.87781C2.81125 6.87781 3.40242 6.2275 4.02737 5.53778C4.74241 4.74953 5.55879 3.8543 6.85092 3.93031C7.00294 3.93876 7.13806 4.02884 7.20281 4.16678L10.0433 10.1209C10.0827 10.1856 10.1052 10.2617 10.1052 10.3405C10.1052 10.5713 9.91939 10.7571 9.68855 10.7571H9.6604C8.76238 10.7036 8.15432 11.3765 7.50121 12.0943C6.81996 12.8516 6.04017 13.7074 4.83249 13.7074ZM2.48188 7.65761L4.96762 12.8657C5.73614 12.801 6.29635 12.1844 6.88752 11.5313C7.47306 10.8866 8.12335 10.1716 9.04952 9.97169L6.5666 4.7636C5.79807 4.82835 5.23787 5.44488 4.64669 6.098C4.06115 6.74268 3.40805 7.45773 2.48188 7.65761Z" fill="#F2F2F2"/>
<path fill-rule="evenodd" clip-rule="evenodd" d="M7.21812 5.74946C6.7311 5.7945 6.3201 6.00282 5.9485 6.28997C5.89411 6.17573 5.83971 6.0612 5.78522 5.94648C5.67051 5.70497 5.55539 5.46259 5.43897 5.2202C5.81056 4.93305 6.22157 4.72473 6.70858 4.67969C6.79304 4.85845 6.87819 5.03651 6.96335 5.21457C7.04851 5.39263 7.13366 5.57069 7.21812 5.74946ZM5.50132 8.27742C5.4721 8.30843 5.44288 8.33945 5.41363 8.37039C5.32918 8.19163 5.24402 8.01357 5.15887 7.83551C5.07371 7.65745 4.98855 7.47939 4.9041 7.30062C4.94127 7.26161 4.97837 7.22249 5.01546 7.18339C5.31827 6.86416 5.62027 6.54579 5.95132 6.28997C6.03577 6.46874 6.12093 6.6468 6.20609 6.82486C6.29124 7.00292 6.3764 7.18098 6.46085 7.35974C6.11885 7.62204 5.80974 7.9501 5.50132 8.27742ZM4.90128 7.30062C4.56347 7.65815 4.22284 8.00723 3.83436 8.26342C3.66545 7.90589 3.49655 7.55117 3.32483 7.19365C3.7105 6.93746 4.05394 6.58838 4.39175 6.23085C4.47621 6.40962 4.56137 6.58769 4.64653 6.76576C4.73168 6.94381 4.81683 7.12187 4.90128 7.30062ZM4.34671 9.33319C3.95822 9.58937 3.52751 9.74983 3.00953 9.73294C2.83781 9.37541 2.66891 9.0207 2.5 8.66317C3.01798 8.68006 3.44869 8.5196 3.83718 8.26342C3.92163 8.44218 4.00679 8.62024 4.09194 8.7983C4.1771 8.97636 4.26226 9.15442 4.34671 9.33319ZM4.85683 10.4026C5.24507 10.1464 5.58553 9.79751 5.92598 9.44016C5.84153 9.2614 5.75637 9.08334 5.67122 8.90528C5.58606 8.72722 5.5009 8.54916 5.41645 8.37039C5.07864 8.72792 4.73519 9.077 4.34671 9.33319C4.45766 9.56804 4.56982 9.80289 4.68161 10.0369C4.73996 10.1591 4.7982 10.2811 4.85612 10.4027C4.4706 10.6587 4.03725 10.8189 3.51953 10.8021C3.63597 11.0445 3.75111 11.2869 3.86583 11.5284C3.9203 11.6431 3.97468 11.7576 4.02907 11.8718C4.54704 11.8915 4.97776 11.7283 5.36624 11.4721C5.28179 11.2933 5.19664 11.1153 5.11148 10.9372C5.02636 10.7592 4.94124 10.5813 4.85683 10.4026ZM8.24 7.89181C7.75299 7.93685 7.34198 8.14518 6.97039 8.43233C6.85943 8.19746 6.74725 7.96258 6.63546 7.72851C6.57708 7.60627 6.5188 7.48425 6.46085 7.36256C6.83245 7.07541 7.24345 6.86708 7.73047 6.82204C7.81492 7.00081 7.90008 7.17887 7.98523 7.35693C8.07039 7.53499 8.15555 7.71305 8.24 7.89181ZM6.43603 10.5122C6.4651 10.4814 6.49415 10.4506 6.5232 10.4198C6.83162 10.0925 7.14074 9.76439 7.48274 9.5021C7.37179 9.26725 7.25962 9.0324 7.14784 8.79834C7.08945 8.67608 7.03116 8.55404 6.9732 8.43233C6.64216 8.68814 6.34016 9.00651 6.03735 9.32574C6.00026 9.36485 5.96315 9.40396 5.92598 9.44298C5.98038 9.55721 6.03478 9.67174 6.08927 9.78647C6.20396 10.0279 6.31907 10.2703 6.43547 10.5126C6.09782 10.87 5.75453 11.2188 5.36906 11.4749C5.42346 11.5891 5.47786 11.7037 5.53236 11.8184C5.64706 12.0599 5.76218 12.3023 5.87859 12.5447C6.26707 12.2885 6.6077 11.9394 6.94551 11.5819C6.86106 11.4031 6.77591 11.2251 6.69075 11.047C6.60561 10.869 6.52047 10.6909 6.43603 10.5122ZM9.26235 10.0307C8.77533 10.0757 8.36433 10.2841 7.99273 10.5712C7.82101 10.2137 7.65211 9.85898 7.4832 9.50145C7.85479 9.2143 8.2658 9.00598 8.75281 8.96094C8.83726 9.13969 8.92241 9.31774 9.00756 9.49579C9.09273 9.67386 9.17789 9.85193 9.26235 10.0307Z" fill="#F2F2F2"/>
<path d="M12.2293 16.0827C12.0745 16.0827 11.9253 15.9954 11.8521 15.8462L8.61471 9.05883C8.51618 8.85051 8.60345 8.60277 8.81176 8.50143C9.02008 8.40289 9.26781 8.49016 9.36915 8.69849L12.6065 15.4859C12.7051 15.6942 12.6178 15.942 12.4095 16.0433C12.3503 16.0715 12.2884 16.0827 12.2293 16.0827Z" fill="#F2F2F2"/>
</svg>
