<svg width="20" height="20" viewBox="0 0 20 20" fill="none" xmlns="http://www.w3.org/2000/svg">
<path fill-rule="evenodd" clip-rule="evenodd" d="M5.30118 7.25441L7.02095 7.50799L7.65723 7.90702C7.65553 7.92751 7.65507 7.94832 7.6546 7.9691V7.96913L7.65402 7.99252L6.20468 8.7324L5.30118 7.25441ZM6.20261 2.25364C6.59529 1.78263 7.11312 1.50642 7.52126 1.50642C7.68696 1.50642 7.83429 1.55167 7.94806 1.64776C8.1867 1.84962 8.18699 2.19458 8.1657 2.38205C8.12427 2.75022 7.94456 3.14161 7.65895 3.48422C7.37364 3.82654 7.02181 4.07307 6.66939 4.17855C6.4891 4.23144 6.15273 4.29168 5.9138 4.09011C5.51908 3.75631 5.65124 2.91565 6.20261 2.25364ZM15.0196 17.7364L11.7023 15.5079L10.802 12.5123L10.867 8.07245C10.8676 8.00369 10.8641 7.92495 10.8557 7.85472C10.7495 6.96675 9.94867 6.33354 9.06675 6.44049C8.86021 6.46547 8.66824 6.53041 8.49554 6.62414L7.58299 6.22129L7.51385 6.19044C7.46251 6.16811 7.40678 6.15283 7.34815 6.14637L4.88999 5.87339L5.79816 4.70041C5.96095 4.77592 6.14124 4.81853 6.33612 4.81853C6.49482 4.81853 6.66198 4.79326 6.8344 4.74213C7.29592 4.60462 7.74753 4.29198 8.10549 3.8621C8.46403 3.43222 8.69129 2.93006 8.74555 2.44817C8.80478 1.9222 8.65453 1.47793 8.32283 1.1979C7.66497 0.641381 6.53683 0.938741 5.75586 1.87607C5.06328 2.70733 4.91129 3.72135 5.34568 4.32841L4.20762 5.79876C3.87242 5.76673 3.56639 6.00386 3.51709 6.34324C3.51465 6.35959 3.51447 6.37552 3.5143 6.39152C3.51422 6.39852 3.51414 6.40552 3.51388 6.41258C3.44357 6.59623 3.44999 6.80837 3.55414 6.9929L5.299 10.0802C5.47638 10.3949 5.86292 10.5342 6.20309 10.392L6.24072 10.3761L7.83797 9.70823L8.20964 12.8158C8.21059 12.8239 8.21256 12.8317 8.21454 12.8395C8.21622 12.8461 8.2179 12.8527 8.21897 12.8596C8.23852 13.0359 8.2922 13.2113 8.38701 13.3744L10.1613 16.4235L10.2404 16.5599C10.302 16.6648 10.3904 16.7553 10.5027 16.8202L14.2518 18.9855C14.5817 19.175 15.0079 19.0789 15.2221 18.7557C15.4455 18.4181 15.3551 17.9614 15.0196 17.7364ZM17.1797 1.21407C16.9381 1.21407 16.7421 1.41152 16.7421 1.65482V18.4034C16.7421 18.6467 16.9381 18.8441 17.1797 18.8441C17.4213 18.8441 17.6173 18.6467 17.6173 18.4034V1.65482C17.6173 1.41152 17.4213 1.21407 17.1797 1.21407ZM10.9634 5.84774C11.7689 5.84774 12.422 5.18984 12.422 4.37856C12.422 3.56729 11.7689 2.90939 10.9634 2.90939C10.1579 2.90939 9.5047 3.56729 9.5047 4.37856C9.5047 5.18984 10.1579 5.84774 10.9634 5.84774ZM7.45029 11.3778L7.63117 12.894C7.63408 12.9175 7.637 12.9381 7.64284 12.9616C7.66034 13.0967 7.69243 13.2289 7.73911 13.3582L5.5015 14.181L3.78027 17.7775C3.60523 18.1477 3.16471 18.3005 2.80004 18.1242C2.44996 17.9538 2.29242 17.5395 2.43537 17.1781L4.06617 13.1202C4.14785 12.9175 4.30247 12.7647 4.48918 12.6824L4.5417 12.6589L7.45029 11.3778ZM13.6789 7.97219C13.6789 7.4853 14.0707 7.09068 14.5541 7.09068C15.0375 7.09068 15.4293 7.4853 15.4293 7.97219C15.4293 8.45907 15.0375 8.85369 14.5541 8.85369C14.0707 8.85369 13.6789 8.45907 13.6789 7.97219Z" fill="#F2F2F2"/>
</svg>
