<svg width="20" height="20" viewBox="0 0 20 20" fill="none" xmlns="http://www.w3.org/2000/svg">
<path d="M13.3359 5.33325C13.3359 5.4837 13.3655 5.63269 13.4231 5.7717C13.4807 5.9107 13.5651 6.03701 13.6714 6.1434C13.7778 6.2498 13.9041 6.3342 14.0431 6.39178C14.1821 6.44936 14.3311 6.47899 14.4816 6.47899C14.632 6.47899 14.781 6.44936 14.92 6.39178C15.059 6.3342 15.1853 6.2498 15.2917 6.1434C15.3981 6.03701 15.4824 5.9107 15.54 5.7717C15.5976 5.63269 15.6272 5.4837 15.6272 5.33325C15.6272 5.18279 15.5976 5.03381 15.54 4.8948C15.4824 4.75579 15.3981 4.62948 15.2917 4.52309C15.1853 4.4167 15.059 4.3323 14.92 4.27472C14.781 4.21714 14.632 4.1875 14.4816 4.1875C14.3311 4.1875 14.1821 4.21714 14.0431 4.27472C13.9041 4.3323 13.7778 4.4167 13.6714 4.52309C13.5651 4.62948 13.4807 4.75579 13.4231 4.8948C13.3655 5.03381 13.3359 5.18279 13.3359 5.33325Z" fill="#F2F2F2"/>
<path d="M5.87109 3.34811C5.87108 3.43588 5.88836 3.5228 5.92194 3.60389C5.95552 3.68499 6.00475 3.75867 6.06681 3.82074C6.12887 3.88281 6.20255 3.93205 6.28364 3.96564C6.36473 3.99923 6.45164 4.01652 6.53941 4.01652C6.62719 4.01652 6.7141 3.99923 6.79519 3.96564C6.87628 3.93205 6.94996 3.88281 7.01202 3.82074C7.07408 3.75867 7.12331 3.68499 7.15689 3.60389C7.19047 3.5228 7.20775 3.43588 7.20774 3.34811C7.20775 3.26033 7.19047 3.17342 7.15689 3.09232C7.12331 3.01123 7.07408 2.93754 7.01202 2.87547C6.94996 2.8134 6.87628 2.76416 6.79519 2.73057C6.7141 2.69698 6.62719 2.67969 6.53941 2.67969C6.45164 2.67969 6.36473 2.69698 6.28364 2.73057C6.20255 2.76416 6.12887 2.8134 6.06681 2.87547C6.00475 2.93754 5.95552 3.01123 5.92194 3.09232C5.88836 3.17342 5.87108 3.26033 5.87109 3.34811Z" fill="#F2F2F2"/>
<path d="M2.11914 6.74609H5.03088L5.39359 7.20432H2.11914V6.74609ZM8.02846 6.79701H10.6441L10.9942 7.20432H8.3467L8.02846 6.79701ZM14.7015 6.79701L15.0737 7.20432H18.1191L18.0809 6.79701H14.7015Z" fill="#F2F2F2"/>
<path d="M9.95504 9.03915L11.4535 7.53302C11.5711 7.41469 11.5731 7.22418 11.4578 7.10341L9.97825 5.55409C9.78967 5.35662 9.7898 5.0456 9.97863 4.84839L11.9992 2.73812C12.2665 2.44695 13.0207 2.91471 12.7343 3.42552L11.2481 5.08556C11.166 5.17733 11.1695 5.31718 11.2562 5.4047L12.1805 6.33726C12.4923 6.71273 13.1511 6.10499 14.0325 6.74779L16.5529 9.39374C16.6034 9.44666 16.6409 9.5105 16.6626 9.58031C16.6843 9.65011 16.6895 9.72398 16.678 9.79615L16.2753 12.3149C16.2279 12.6112 15.9524 12.8153 15.6552 12.7743C15.3434 12.7312 15.1307 12.4366 15.1882 12.1271L15.5628 10.111C15.5766 10.0364 15.5723 9.95961 15.5502 9.88702C15.5282 9.81442 15.489 9.74821 15.4359 9.69394L14.5884 8.82738C14.4457 8.68147 14.211 8.68147 14.0683 8.82712L11.5697 11.3777C11.1003 11.7722 10.2521 11.6899 9.8625 11.3499C9.79405 11.29 9.69171 11.2911 9.62353 11.3513L7.92546 12.8506C7.88567 12.8857 7.8538 12.9289 7.83198 12.9773C7.81016 13.0257 7.79888 13.0782 7.79889 13.1313V16.571C7.79889 16.9506 7.49122 17.2584 7.11149 17.2584C6.7319 17.2584 6.42409 16.9506 6.42409 16.571V12.6277C6.42409 12.4941 6.47926 12.3662 6.57645 12.2745L8.61067 10.3561C8.69999 10.2718 8.70425 10.131 8.61995 10.0416L4.12332 5.26794C3.83691 4.94339 4.56246 3.96004 5.09712 4.33242L9.63539 9.03671C9.72252 9.12693 9.86662 9.12809 9.95504 9.03915Z" fill="#F2F2F2"/>
</svg>
