<svg width="20" height="20" viewBox="0 0 20 20" fill="none" xmlns="http://www.w3.org/2000/svg">
<path d="M16.5335 1.82031C16.0409 3.89508 14.3931 8.51928 11.7422 10.4179" stroke="white" stroke-linecap="round"/>
<path d="M10.5781 12.5664V17.4921" stroke="white" stroke-linecap="round"/>
<path d="M9.90677 3.56683C9.90677 4.50661 9.14494 5.26844 8.20518 5.26844C7.26542 5.26844 6.50359 4.50661 6.50359 3.56683C6.50359 2.62706 7.26542 1.86523 8.20518 1.86523C9.14494 1.86523 9.90677 2.62706 9.90677 3.56683Z" fill="white"/>
<path d="M5.78713 7.23873L3.91867 5.29974C3.632 5.00225 3.16666 4.9701 2.84181 5.22534C2.47376 5.51453 2.42915 6.05556 2.74485 6.40113L5.03413 8.90699C5.29733 9.1951 5.714 9.28513 6.07267 9.13142L7.04093 8.71644L7.80217 11.9405L5.08719 17.8034C4.87776 18.2556 5.06231 18.7926 5.50552 19.0205C5.94103 19.2445 6.47563 19.0921 6.72759 18.6722L9.6381 13.8213L12.1905 12.3883L12.6756 15.2021C12.7738 15.7714 13.3558 16.1196 13.9038 15.9369C14.3172 15.7991 14.5825 15.396 14.5455 14.9618L14.1347 10.1343C14.1031 9.76253 13.7219 9.52654 13.375 9.66397L11.6979 10.3285V7.49741L14.1347 3.09777C14.3568 2.68325 14.2233 2.23128 13.8375 1.96239C13.4019 1.65881 12.8953 1.84046 12.6147 2.29117L10.4314 6.07817L7.5335 6.56704L5.78713 7.23873Z" fill="white"/>
</svg>
