<svg width="20" height="20" viewBox="0 0 20 20" fill="none" xmlns="http://www.w3.org/2000/svg">
<path d="M3.94419 8.00155C4.76333 7.86131 5.31368 7.08357 5.17344 6.26443C5.03319 5.44529 4.25545 4.89493 3.43631 5.03518C2.61717 5.17542 2.06682 5.95316 2.20706 6.7723C2.34731 7.59144 3.12505 8.1418 3.94419 8.00155Z" fill="white"/>
<path d="M7.98153 14.7731L4.5785 11.2749C3.5252 10.312 3.80937 8.58421 5.11556 8.00943L8.19788 6.65307L10.6297 4.63099C10.978 4.36048 11.4852 4.56532 11.7412 4.92447C11.9735 5.25031 11.92 5.69935 11.6176 5.96144L9.20135 8.05563L7.53656 9.19941L10.1182 11.9725L13.1393 10.152L16.573 8.39995C16.8634 8.1603 17.3681 8.00075 17.6941 8.39995C18.1676 8.97979 17.8777 9.55963 17.4428 9.70459L14.8063 11.2501L11.2008 14.4343C10.4465 15.4898 8.9391 15.6484 7.98153 14.7731Z" fill="white"/>
<rect x="1.78711" y="15.5039" width="16.5254" height="0.57984" rx="0.28992" fill="white"/>
<rect x="3.81641" y="12.879" width="2.8992" height="2.8992" rx="1.4496" fill="white"/>
</svg>
