<svg width="20" height="20" viewBox="0 0 20 20" fill="none" xmlns="http://www.w3.org/2000/svg">
<path d="M3.55403 3.29555C3.55401 3.47081 3.58851 3.64435 3.65557 3.80628C3.72262 3.9682 3.82092 4.11532 3.94483 4.23926C4.06875 4.36319 4.21587 4.4615 4.37778 4.52857C4.5397 4.59564 4.71324 4.63017 4.8885 4.63017C5.06375 4.63017 5.2373 4.59564 5.39921 4.52857C5.56112 4.4615 5.70824 4.36319 5.83216 4.23926C5.95608 4.11532 6.05437 3.9682 6.12143 3.80628C6.18848 3.64435 6.22299 3.47081 6.22297 3.29555C6.22299 3.12029 6.18848 2.94675 6.12143 2.78483C6.05437 2.62291 5.95608 2.47578 5.83216 2.35185C5.70824 2.22791 5.56112 2.1296 5.39921 2.06253C5.2373 1.99546 5.06375 1.96094 4.8885 1.96094C4.71324 1.96094 4.5397 1.99546 4.37778 2.06253C4.21587 2.1296 4.06875 2.22791 3.94483 2.35185C3.82092 2.47578 3.72262 2.62291 3.65557 2.78483C3.58851 2.94675 3.55401 3.12029 3.55403 3.29555Z" fill="white"/>
<path d="M3.99844 6.75335L6.50565 4.41588C6.64628 4.28481 6.83135 4.21196 7.0236 4.21196H10.5747C10.6902 4.21196 10.801 4.25781 10.8827 4.33952L13.0991 6.5559C13.3619 7.13643 12.6828 7.53077 12.3543 7.27875L10.4271 5.37261C10.3708 5.31692 10.2937 5.28753 10.2147 5.29132L9.18513 5.34195C9.11439 5.34547 9.08092 5.43083 9.13057 5.48146L11.1931 7.58533C11.7447 8.26051 11.7756 8.8274 11.2924 9.5068C11.2249 9.60173 11.2353 9.73139 11.3168 9.81437L16.5819 15.1646C16.9652 15.6356 16.0562 16.5227 15.5139 16.1832L10.2427 10.8321C10.1599 10.7482 10.0244 10.7479 9.94146 10.8317L8.54483 12.2423C8.47315 12.3146 8.43297 12.4124 8.43303 12.5142V15.9944C8.43303 16.4163 8.09101 16.7583 7.66911 16.7583C7.24721 16.7583 6.90519 16.4163 6.90519 15.9944V11.9101C6.90519 11.7851 6.95539 11.6652 7.04441 11.5776L8.84578 9.80495C8.91737 9.73449 8.91835 9.61945 8.84817 9.54773L6.03326 6.67417C5.91625 6.55477 5.72429 6.55379 5.60616 6.67192L4.15187 8.12621C3.95597 8.32211 3.63856 8.32211 3.44266 8.12621L1.23429 5.91784C0.963152 5.51535 1.60936 4.83623 2.04209 5.20863L3.62703 6.74941C3.72997 6.84954 3.89339 6.85123 3.99844 6.75335Z" fill="white"/>
<path d="M9.02444 17.7845C9.02444 17.8977 9.06944 18.0064 9.14954 18.0865C9.22964 18.1666 9.33827 18.2116 9.45155 18.2116C9.56482 18.2116 9.67346 18.1666 9.75355 18.0865C9.83365 18.0064 9.87865 17.8977 9.87865 17.7845C9.87865 17.6712 9.83365 17.5626 9.75355 17.4825C9.67346 17.4024 9.56482 17.3574 9.45155 17.3574C9.33827 17.3574 9.22964 17.4024 9.14954 17.4825C9.06944 17.5626 9.02444 17.6712 9.02444 17.7845Z" fill="white"/>
<path d="M7.83432 17.7816C7.83432 17.8377 7.84537 17.8932 7.86683 17.945C7.8883 17.9968 7.91976 18.0439 7.95942 18.0836C7.99908 18.1232 8.04616 18.1547 8.09798 18.1762C8.1498 18.1976 8.20534 18.2087 8.26142 18.2087C8.31751 18.2087 8.37305 18.1976 8.42487 18.1762C8.47669 18.1547 8.52377 18.1232 8.56343 18.0836C8.60309 18.0439 8.63455 17.9968 8.65602 17.945C8.67748 17.8932 8.68853 17.8377 8.68853 17.7816C8.68853 17.7255 8.67748 17.67 8.65602 17.6181C8.63455 17.5663 8.60309 17.5192 8.56343 17.4796C8.52377 17.4399 8.47669 17.4084 8.42487 17.387C8.37305 17.3655 8.31751 17.3545 8.26142 17.3545C8.20534 17.3545 8.1498 17.3655 8.09798 17.387C8.04616 17.4084 7.99908 17.4399 7.95942 17.4796C7.91976 17.5192 7.8883 17.5663 7.86683 17.6181C7.84537 17.67 7.83432 17.7255 7.83432 17.7816Z" fill="white"/>
<path d="M6.67509 17.783C6.67509 17.8963 6.72008 18.0049 6.80018 18.085C6.88028 18.1651 6.98891 18.2101 7.10219 18.2101C7.21546 18.2101 7.3241 18.1651 7.4042 18.085C7.48429 18.0049 7.52929 17.8963 7.52929 17.783C7.52929 17.6697 7.48429 17.5611 7.4042 17.481C7.3241 17.4009 7.21546 17.3559 7.10219 17.3559C6.98891 17.3559 6.88028 17.4009 6.80018 17.481C6.72008 17.5611 6.67509 17.6697 6.67509 17.783Z" fill="white"/>
<path d="M5.48496 17.7802C5.48496 17.8935 5.52996 18.0022 5.61006 18.0823C5.69016 18.1624 5.79879 18.2074 5.91207 18.2074C6.02534 18.2074 6.13398 18.1624 6.21407 18.0823C6.29417 18.0022 6.33917 17.8935 6.33917 17.7802C6.33917 17.667 6.29417 17.5583 6.21407 17.4782C6.13398 17.3981 6.02534 17.3531 5.91207 17.3531C5.79879 17.3531 5.69016 17.3981 5.61006 17.4782C5.52996 17.5583 5.48496 17.667 5.48496 17.7802Z" fill="white"/>
<path d="M16.1068 16.9553C16.1068 17.0686 16.1518 17.1773 16.2319 17.2574C16.312 17.3374 16.4206 17.3824 16.5339 17.3824C16.6472 17.3824 16.7558 17.3374 16.8359 17.2574C16.916 17.1773 16.961 17.0686 16.961 16.9553C16.961 16.8421 16.916 16.7334 16.8359 16.6533C16.7558 16.5732 16.6472 16.5282 16.5339 16.5282C16.4206 16.5282 16.312 16.5732 16.2319 16.6533C16.1518 16.7334 16.1068 16.8421 16.1068 16.9553Z" fill="white"/>
<path d="M16.9615 16.1505C16.9615 16.2637 17.0065 16.3724 17.0866 16.4525C17.1667 16.5326 17.2753 16.5776 17.3886 16.5776C17.5019 16.5776 17.6105 16.5326 17.6906 16.4525C17.7707 16.3724 17.8157 16.2637 17.8157 16.1505C17.8157 16.0372 17.7707 15.9286 17.6906 15.8485C17.6105 15.7684 17.5019 15.7234 17.3886 15.7234C17.2753 15.7234 17.1667 15.7684 17.0866 15.8485C17.0065 15.9286 16.9615 16.0372 16.9615 16.1505Z" fill="white"/>
<path d="M17.8157 15.2961C17.8157 15.4094 17.8607 15.518 17.9408 15.5981C18.0209 15.6782 18.1295 15.7232 18.2428 15.7232C18.3561 15.7232 18.4647 15.6782 18.5448 15.5981C18.6249 15.518 18.6699 15.4094 18.6699 15.2961C18.6699 15.1828 18.6249 15.0742 18.5448 14.9941C18.4647 14.914 18.3561 14.869 18.2428 14.869C18.1295 14.869 18.0209 14.914 17.9408 14.9941C17.8607 15.0742 17.8157 15.1828 17.8157 15.2961Z" fill="white"/>
<path d="M15.2767 17.783C15.2767 17.8963 15.3217 18.0049 15.4018 18.085C15.4819 18.1651 15.5905 18.2101 15.7038 18.2101C15.8171 18.2101 15.9257 18.1651 16.0058 18.085C16.0859 18.0049 16.1309 17.8963 16.1309 17.783C16.1309 17.6697 16.0859 17.5611 16.0058 17.481C15.9257 17.4009 15.8171 17.3559 15.7038 17.3559C15.5905 17.3559 15.4819 17.4009 15.4018 17.481C15.3217 17.5611 15.2767 17.6697 15.2767 17.783Z" fill="white"/>
</svg>
