<svg width="20" height="20" viewBox="0 0 20 20" fill="none" xmlns="http://www.w3.org/2000/svg">
<g clip-path="url(#clip0_28643_132632)">
<g clip-path="url(#clip1_28643_132632)">
<path fill-rule="evenodd" clip-rule="evenodd" d="M10.035 4.06798C10.9847 4.06798 11.754 3.2987 11.754 2.34893C11.754 1.39985 10.9847 0.629883 10.035 0.629883C9.08554 0.629883 8.31592 1.39985 8.31592 2.34893C8.31592 3.2987 9.08554 4.06798 10.035 4.06798Z" fill="#F2F2F2"/>
<path fill-rule="evenodd" clip-rule="evenodd" d="M14.2832 10.2427L13.9602 9.44816C13.8775 9.21636 13.8239 8.97059 13.7965 8.71869C13.792 8.66211 13.7825 8.58473 13.7713 8.50053L13.7394 8.25817C13.7202 8.0966 13.6984 7.93503 13.6553 7.77073C13.5187 7.12444 13.258 6.43281 12.6932 5.85367C12.4091 5.57109 12.0409 5.33725 11.6337 5.21658C11.5549 5.19374 11.4747 5.17704 11.3948 5.16034C11.2126 5.08944 11.0157 5.04785 10.8086 5.04785H9.56169C9.5277 5.04785 9.49582 5.05535 9.46218 5.05774C9.44011 5.05842 9.41699 5.05569 9.39491 5.0574C9.18539 5.06694 8.97833 5.10682 8.77477 5.16545C8.36764 5.28612 7.99941 5.51996 7.71526 5.80254C7.15048 6.38168 6.8898 7.07297 6.75351 7.7196C6.71007 7.8839 6.68834 8.04581 6.66907 8.2067L6.63719 8.44906C6.62598 8.53326 6.61687 8.61132 6.61197 8.66756C6.58499 8.91946 6.53103 9.16523 6.4487 9.39737L6.12531 10.1916C6.02125 10.4728 5.91544 10.7534 5.8317 11.0438C5.77179 11.2514 5.85413 11.4818 6.04998 11.6048C6.29103 11.7562 6.61267 11.6887 6.76823 11.4545C6.93605 11.2009 7.08215 10.9384 7.23001 10.676L7.43918 10.2778L7.54113 10.0771C7.57932 9.99696 7.61506 9.91651 7.64869 9.83504C7.78078 9.50883 7.86872 9.17035 7.91988 8.83118C7.93214 8.73948 7.94335 8.66961 7.95561 8.60654L7.97348 8.50462V9.49588V11.2827V14.6979C7.97348 15.1915 8.38446 15.5913 8.89179 15.5913C9.39912 15.5913 9.81044 15.1915 9.81044 14.6979V11.2827H10.5599V17.7657C10.5599 18.2593 10.9712 18.6592 11.4785 18.6592C11.9855 18.6592 12.3968 18.2593 12.3968 17.7657V11.2827V9.49588V8.33794C12.4042 8.37782 12.4116 8.41736 12.4179 8.45758L12.4529 8.65767C12.4652 8.72074 12.4764 8.79062 12.4886 8.88231C12.5398 9.22148 12.6281 9.55962 12.7602 9.88583C12.7934 9.9673 12.8295 10.0484 12.8677 10.1279L12.9693 10.3286L13.1785 10.7274C13.3264 10.9892 13.4725 11.2524 13.6403 11.5057C13.7608 11.6867 13.9927 11.7794 14.2177 11.718C14.4938 11.6423 14.6546 11.3632 14.5768 11.0946C14.4931 10.8045 14.3873 10.5239 14.2832 10.2427Z" fill="#F2F2F2"/>
<path d="M14.0204 12.1777C14.0204 12.4342 14.0204 12.7212 14.0204 13.0387C14.0204 14.8223 12.3311 16.2682 10.2471 16.2682H9.91047C7.82656 16.2682 6.13721 14.8223 6.13721 13.0387C6.13721 12.6926 6.13721 12.4222 6.13721 12.1958" stroke="#F2F2F2" stroke-width="0.8" stroke-linecap="round"/>
</g>
</g>
<defs>
<clipPath id="clip0_28643_132632">
<rect width="20" height="20" fill="white"/>
</clipPath>
<clipPath id="clip1_28643_132632">
<rect width="9.5" height="19.4524" fill="white" transform="translate(5.11816 0.499878)"/>
</clipPath>
</defs>
</svg>
