<svg width="20" height="20" viewBox="0 0 20 20" fill="none" xmlns="http://www.w3.org/2000/svg">
<path d="M6.54867 3.85095C4.9672 5.49303 1.83697 9.76242 1.96785 13.7034H18.0468L18.9466 15.3455" stroke="white" stroke-width="2"/>
<path d="M2.04492 13.7058L1.14511 15.3478" stroke="white" stroke-width="2"/>
<path d="M5.23438 2.86703L7.77022 5.65841" stroke="white" stroke-width="2" stroke-linecap="round"/>
<ellipse cx="18.9484" cy="15.8356" rx="0.981617" ry="0.985191" fill="white"/>
<ellipse cx="12.6613" cy="8.85412" rx="0.981617" ry="0.985191" fill="white"/>
<ellipse cx="0.981617" cy="15.8356" rx="0.981617" ry="0.985191" fill="white"/>
<ellipse cx="16.7427" cy="4.26185" rx="1.58743" ry="1.59321" fill="white"/>
<path d="M16.8708 6.32995C16.1375 6.08023 15.3488 6.51607 15.1669 7.27148L14.7574 8.97149C14.7462 9.01839 14.7328 9.06471 14.7173 9.11035C14.7007 9.15946 14.6816 9.20772 14.6602 9.25501L14.0654 10.5718C14.0314 10.6472 14.005 10.7239 13.9859 10.8011C12.8326 10.4103 11.6141 10.2212 10.384 10.2491C8.28101 10.2967 6.24059 10.9762 4.52637 12.1997L5.5901 13.7009C7.00514 12.691 8.68946 12.1301 10.4254 12.0907C12.1614 12.0514 13.8692 12.5354 15.3282 13.4803L16.3233 11.9325C16.3183 11.9292 16.3133 11.926 16.3083 11.9227C16.3686 11.8439 16.4209 11.757 16.4634 11.6629L17.1657 10.1081C17.2069 10.0169 17.2394 9.92199 17.2629 9.82462L17.7281 7.89282C17.8883 7.22768 17.5164 6.54978 16.8708 6.32995Z" fill="white"/>
<path d="M16.771 6.92966L15.5834 7.5145L16.6038 9.60183L13.684 8.45062L13.2764 9.70685L17.0218 11.2105L17.9477 9.64975L16.771 6.92966Z" fill="white" stroke="white" stroke-width="1.1629"/>
<path d="M2.97266 8.90381H11.6814" stroke="white" stroke-width="2"/>
</svg>
