<svg width="20" height="20" viewBox="0 0 20 20" fill="none" xmlns="http://www.w3.org/2000/svg">
<path d="M13.3442 3.88983C13.3442 4.26258 13.4923 4.62006 13.7559 4.88364C14.0195 5.14721 14.3769 5.29529 14.7497 5.29529C15.1224 5.29529 15.4799 5.14721 15.7435 4.88364C16.0071 4.62006 16.1551 4.26258 16.1551 3.88983C16.1551 3.51708 16.0071 3.1596 15.7435 2.89602C15.4799 2.63245 15.1224 2.48438 14.7497 2.48438C14.3769 2.48438 14.0195 2.63245 13.7559 2.89602C13.4923 3.1596 13.3442 3.51708 13.3442 3.88983Z" fill="white"/>
<path d="M13.8108 10.6652C14.0165 10.8538 14.3705 10.8637 14.7948 10.6928C15.2192 10.5219 15.6791 10.1841 16.0735 9.75384C16.468 9.32356 16.7645 8.83599 16.8979 8.39839C17.0313 7.96079 16.9907 7.60902 16.785 7.42045C16.6831 7.32707 16.5438 7.27658 16.3749 7.27185C16.2061 7.26712 16.011 7.30824 15.8009 7.39287C15.5908 7.4775 15.3697 7.60398 15.1503 7.76508C14.9309 7.92619 14.7175 8.11877 14.5222 8.33182C14.3269 8.54488 14.1536 8.77423 14.0121 9.0068C13.8707 9.23937 13.7639 9.47059 13.6978 9.68727C13.6318 9.90394 13.6077 10.1018 13.6271 10.2696C13.6465 10.4374 13.7089 10.5718 13.8108 10.6652Z" fill="white"/>
<path d="M8.25136 4.70579C8.32878 4.63199 8.43159 4.59082 8.53853 4.59082H12.5088C13.0966 4.59082 13.7242 5.1521 13.7419 5.92999V8.56196C13.7419 8.69739 13.8517 8.80732 13.9873 8.80732H16.7315C17.1275 8.9443 17.1275 9.77528 16.7315 9.89452H13.1718C12.8643 9.89452 12.6149 9.64515 12.6149 9.33765V8.48182C12.6149 8.35299 12.4589 8.2889 12.3683 8.38044L10.4913 10.2785C10.3605 10.4109 10.361 10.624 10.4926 10.7555L12.3034 12.5663C12.567 12.8299 12.567 13.2573 12.3034 13.5209L9.20067 16.6236C8.88216 16.9421 8.36568 16.9421 8.04704 16.6236C7.72854 16.3051 7.72854 15.7886 8.04704 15.47L10.2415 13.2755C10.3513 13.1657 10.3513 12.9876 10.2415 12.8778L9.24042 11.8767C9.12687 11.7631 8.94289 11.7631 8.82934 11.8767L3.4306 17.2755C3.11079 17.5953 2.59237 17.5953 2.27257 17.2755C1.95276 16.9557 1.95276 16.4373 2.27257 16.1175L7.71352 10.6768C7.82357 10.5668 7.83872 10.3929 7.7477 10.2666C7.36652 9.7376 7.26009 9.08181 7.63389 8.52882L10.0812 6.01622C10.1592 5.9362 10.1025 5.8018 9.99073 5.8018H8.92968C8.79891 5.8018 8.67358 5.85372 8.58113 5.94617L6.74608 7.78135C6.51444 8.01299 6.13896 8.01299 5.90746 7.78135C5.67208 7.54597 5.67648 7.16285 5.91743 6.93303L8.25136 4.70579Z" fill="white"/>
</svg>
