<svg width="20" height="20" viewBox="0 0 20 20" fill="none" xmlns="http://www.w3.org/2000/svg">
<path d="M17.8618 15.413C17.5064 15.5305 17.1959 15.5305 16.8368 15.5571C16.126 15.6102 15.591 15.162 15.0709 15.1626C14.405 15.1473 13.7578 15.5193 13.2003 15.5571C12.4558 15.5911 11.7737 15.2468 11.3446 15.2004C10.559 15.132 10.0688 15.4887 9.46208 15.5571C8.75571 15.6139 8.27166 15.2104 7.61841 15.1626C6.90761 15.1816 6.40999 15.4927 5.82271 15.5571C5.05951 15.6558 4.44624 15.2457 3.8698 15.2004C3.1383 15.1624 2.62769 15.5418 1.98429 15.5571C1.67373 15.5477 1.16312 15.5078 1.0249 15.3599V16.1471C1.12928 16.2229 1.55964 16.3102 1.99928 16.3159C2.84287 16.3196 3.4917 15.972 3.86238 15.9365C4.62558 15.8834 5.22043 16.2589 5.81528 16.3159C6.57106 16.3121 7.31227 15.9099 7.62612 15.9442C8.27709 15.8874 8.82339 16.3777 9.44352 16.3765C10.1739 16.4031 10.9484 15.9649 11.3597 15.9288C12.0181 15.8985 12.5119 16.3271 13.1854 16.3386C13.9597 16.3614 14.5977 15.9739 15.0785 15.9288C15.5535 15.8948 16.283 16.3157 16.8519 16.3157C17.16 16.3076 17.4872 16.2746 17.8621 16.1791V15.413H17.8618ZM17.8618 16.7895C17.5064 16.907 17.1959 16.907 16.8368 16.9336C16.126 16.9867 15.591 16.5385 15.0709 16.539C14.405 16.5238 13.7578 16.8957 13.2003 16.9336C12.4558 16.9675 11.7737 16.6233 11.3446 16.5769C10.559 16.5085 10.0688 16.8652 9.46208 16.9336C8.75571 16.9904 8.27166 16.5869 7.61841 16.539C6.90761 16.558 6.40999 16.8692 5.82271 16.9336C5.05951 17.0322 4.44624 16.6221 3.8698 16.5769C3.1383 16.5389 2.62769 16.9183 1.98429 16.9336C1.67373 16.9241 1.16312 16.8843 1.0249 16.7364V17.5236C1.12928 17.5994 1.55964 17.6868 1.99928 17.6923C2.84287 17.696 3.4917 17.3485 3.86238 17.3129C4.62558 17.2598 5.22043 17.6354 5.81528 17.6923C6.57106 17.6886 7.31227 17.2864 7.62612 17.3207C8.27709 17.2638 8.82339 17.7542 9.44352 17.753C10.1739 17.7796 10.9484 17.3414 11.3597 17.3052C12.0181 17.275 12.5119 17.7036 13.1854 17.715C13.9597 17.7379 14.5977 17.3504 15.0785 17.3052C15.5535 17.2713 16.283 17.6922 16.8519 17.6922C17.16 17.6841 17.4872 17.6511 17.8621 17.5555V16.7895H17.8618Z" fill="white"/>
<path d="M14.1875 6.98729C14.1875 7.21754 14.279 7.43835 14.4418 7.60116C14.6046 7.76397 14.8254 7.85544 15.0556 7.85544C15.2859 7.85544 15.5067 7.76397 15.6695 7.60116C15.8323 7.43835 15.9238 7.21754 15.9238 6.98729C15.9238 6.75704 15.8323 6.53623 15.6695 6.37342C15.5067 6.21061 15.2859 6.11914 15.0556 6.11914C14.8254 6.11914 14.6046 6.21061 14.4418 6.37342C14.279 6.53623 14.1875 6.75704 14.1875 6.98729Z" fill="white"/>
<path d="M7.46142 13.6975C7.53496 13.7514 7.63948 13.7217 7.67403 13.6375C8.99781 10.4033 10.3407 6.13157 11.6905 1.48998C11.7339 1.35932 11.6208 1.22953 11.4856 1.25523C8.04728 1.90891 5.01533 4.74853 2.34877 9.5549C2.25995 9.71497 2.3045 9.9163 2.45215 10.0245L7.46142 13.6975ZM11.0181 7.63484L12.8354 8.14973H15.2583C15.6891 8.19014 15.9583 8.64106 15.8489 9.08856L15.0564 12.208C14.9202 12.7179 14.6375 12.9198 14.3801 12.9047H11.4723L9.57953 14.8128C9.14032 15.162 8.4388 14.5251 8.82233 14.101L10.9878 11.9506H13.1031C13.1955 11.9506 13.2764 11.8891 13.3011 11.8001L14.0535 9.09142C14.0733 9.01988 14.0221 8.94834 13.948 8.94406L12.7747 8.87666L10.7909 8.3315C10.3653 8.23726 10.6076 7.55074 11.0181 7.63484Z" fill="white"/>
</svg>
