<svg width="20" height="20" viewBox="0 0 20 20" fill="none" xmlns="http://www.w3.org/2000/svg">
<g clip-path="url(#clip0_22248_205918)">
<path d="M18.5599 16.8075C18.4603 17.7782 17.5926 18.4843 16.622 18.3847C15.6512 18.2851 14.9451 17.4175 15.0447 16.4469C15.1103 15.8075 15.5178 15.2542 16.1089 15.0021L15.9737 14.1099L12.3849 17.9527H5.28015C5.28015 17.9527 4.96285 17.9527 4.96285 17.639V15.6186C4.96285 15.3076 5.2789 15.3025 5.2789 15.3025H12.3849L15.6271 11.8346L14.2136 2.49287H11.9432L11.8915 2.48976C11.6694 2.46336 11.5022 2.27525 11.5019 2.05164C11.5017 1.80774 11.6993 1.60969 11.9432 1.60938L14.5934 1.60939L14.6437 1.61166C14.7403 1.62263 14.8306 1.66515 14.9006 1.73265C14.9705 1.80014 15.0163 1.88883 15.0307 1.98497L16.8475 13.9773L16.9826 14.8695C17.9533 14.9691 18.6595 15.8368 18.5599 16.8075ZM3.19763 14.8606C2.22182 14.8606 1.43066 15.6516 1.43066 16.6276C1.43066 17.6034 2.22179 18.3944 3.19763 18.3945C4.17347 18.3945 4.96461 17.6034 4.96461 16.6276C4.96461 15.6516 4.17347 14.8606 3.19763 14.8606Z" fill="#F2F2F2"/>
</g>
<defs>
<clipPath id="clip0_22248_205918">
<rect width="18" height="18" fill="white" transform="translate(1 0.999756)"/>
</clipPath>
</defs>
</svg>
