<svg width="20" height="20" viewBox="0 0 20 20" fill="none" xmlns="http://www.w3.org/2000/svg">
<g clip-path="url(#clip0_7377_164150)">
<path d="M0.781982 6.89725V7.27292H4.30439L3.9411 6.89725H0.781982ZM7.22738 6.89725L7.627 7.27292H10.4592L10.0595 6.89725H7.22738ZM14.5719 6.89725L14.9352 7.27292H18.276V6.89725H14.5719Z" fill="white"/>
<path d="M13.0457 5.30591C13.0457 5.6404 13.1806 5.96119 13.4207 6.19771C13.6609 6.43423 13.9866 6.56711 14.3263 6.56711C14.6659 6.56711 14.9916 6.43423 15.2318 6.19771C15.4719 5.96119 15.6069 5.6404 15.6069 5.30591C15.6069 4.97142 15.4719 4.65063 15.2318 4.4141C14.9916 4.17758 14.6659 4.04471 14.3263 4.04471C13.9866 4.04471 13.6609 4.17758 13.4207 4.4141C13.1806 4.65063 13.0457 4.97142 13.0457 5.30591Z" fill="white"/>
<path d="M6.11069 4.56486H6.48306C6.54967 3.60181 5.92147 2.85642 4.50464 2.35701C5.43103 2.20495 6.06831 2.40919 6.40284 2.99208C6.42857 2.40024 6.46187 1.63249 6.70255 1.60566C6.93566 1.58777 7.028 2.1647 7.02951 3.03681C7.29744 2.55678 7.84086 2.23775 8.90803 2.35701C7.60927 2.83853 6.87663 3.53622 7.00227 4.56486H7.2929V4.92264H6.13037L6.11069 4.56486Z" fill="white"/>
<path d="M9.35942 9.28742L10.9957 7.66396C11.1002 7.5611 11.1032 7.39562 11.0033 7.28828L9.37305 5.53065C9.16567 5.30704 9.1687 4.96267 9.38062 4.74203L11.577 2.46412C11.9993 2.22262 12.7532 2.82638 12.408 3.26467L10.7551 5.0715C10.6885 5.14454 10.6915 5.25486 10.7596 5.32493L11.9252 6.50413C12.022 6.60253 12.1734 6.63234 12.2991 6.5742C12.7804 6.35058 13.4964 6.44897 14.0005 6.95733L16.5844 9.60048C16.6903 9.70931 16.7388 9.85988 16.7146 10.0075L16.2468 12.9905C16.1151 13.5674 15.1252 13.4691 15.0888 12.8563L15.5641 10.404C15.5899 10.2684 15.546 10.1282 15.4446 10.0328L14.3441 8.97883C14.2381 8.87596 14.0671 8.87894 13.9626 8.9833L11.1274 11.8381C10.4826 12.3361 9.76056 12.2809 9.24287 11.8128C9.1475 11.7263 9.00067 11.7248 8.90531 11.8113L7.11459 13.402C7.03285 13.4735 6.98743 13.5764 6.98743 13.6837V17.4375C6.98743 17.8564 6.64231 18.1948 6.21847 18.1948C5.79311 18.1948 5.4495 17.8549 5.4495 17.4375V13.0829C5.4495 12.9741 5.49491 12.8698 5.57665 12.7952L7.85479 10.7051C7.93956 10.6276 7.9441 10.4949 7.86539 10.4115L2.91554 5.18629C2.65821 4.84192 3.20315 3.91763 4.03267 4.20684L8.97797 9.28295C9.0809 9.39028 9.25346 9.39177 9.35942 9.28742Z" fill="white"/>
</g>
<defs>
<clipPath id="clip0_7377_164150">
<rect width="19" height="18.7121" fill="white" transform="translate(0.691406 0.546875)"/>
</clipPath>
</defs>
</svg>
