<svg width="20" height="20" viewBox="0 0 20 20" fill="none" xmlns="http://www.w3.org/2000/svg">
<circle cx="14.8112" cy="3.7087" r="1.24385" fill="white"/>
<path d="M11.6004 4.66922C12.1836 4.11409 13.1063 4.13676 13.6614 4.71986C14.2165 5.30297 14.1939 6.22569 13.6108 6.78082L9.5571 10.64L8.19 9.20408C7.83476 8.83093 7.84927 8.24046 8.22241 7.88522L11.6004 4.66922Z" fill="white"/>
<path d="M9.5503 5.81187L7.41618 6.64729C7.07232 6.7819 6.68332 6.62308 6.53194 6.28627C6.37325 5.93319 6.53473 5.51859 6.89043 5.36587L9.14014 4.39992L12.4624 4.26172L11.7652 5.81187H9.5503Z" fill="white"/>
<path d="M14.8126 6.88672H12.542L11.3574 8.26878H14.8126C15.1942 8.26878 15.5036 7.95939 15.5036 7.57775C15.5036 7.1961 15.1942 6.88672 14.8126 6.88672Z" fill="white"/>
<path d="M5.82423 10.9648L7.99806 8.83203L9.1465 10.1856L6.48048 12.5529H3.5831C3.14457 12.5529 2.78906 12.1974 2.78906 11.7589C2.78906 11.3204 3.14457 10.9648 3.5831 10.9648H5.82423Z" fill="white"/>
<path d="M11.9106 10.6317L10.4432 9.09766L9.14648 10.1757L10.3409 11.5439L10.4255 15.007C10.4354 15.41 10.7649 15.7315 11.1679 15.7315C11.5781 15.7315 11.9106 15.399 11.9106 14.9889V10.6317Z" fill="white"/>
<path d="M5.66016 15.1797L7.42383 16.082H13.4942L15.1758 15.1797" stroke="white" stroke-linecap="round"/>
<circle cx="13.0039" cy="16.9414" r="0.738283" fill="white"/>
<circle cx="7.75196" cy="16.9414" r="0.738283" fill="white"/>
</svg>
