<svg width="20" height="20" viewBox="0 0 20 20" fill="none" xmlns="http://www.w3.org/2000/svg">
<g clip-path="url(#clip0_7377_163630)">
<path d="M14.9526 4.06237C14.9526 4.9332 14.2401 5.6457 13.3693 5.6457C12.4985 5.6457 11.786 4.9332 11.786 4.06237C11.786 3.19153 12.4985 2.47903 13.3693 2.47903C14.2401 2.47903 14.9526 3.19153 14.9526 4.06237ZM12.7993 17.0457L13.401 17.2595C13.8918 17.4257 14.4064 17.5207 14.9526 17.5207C15.4695 17.5207 15.972 17.4346 16.4416 17.2773C16.6837 17.1962 16.9554 17.2445 17.1351 17.4258C17.4275 17.7208 17.3498 18.215 16.959 18.3559C16.3307 18.5825 15.6554 18.7082 14.9526 18.7082C14.2718 18.7082 13.6226 18.5974 13.0131 18.3836L2.44185 14.5313C2.13638 14.42 1.97773 14.0833 2.08639 13.7768C2.19635 13.4668 2.53796 13.3057 2.84714 13.4182L7.74847 15.2011L9.11014 11.6861L6.28389 8.7332C5.5793 7.98903 5.75347 6.77778 6.64014 6.2632L9.39514 4.67195C10.266 4.16528 11.3901 4.59278 11.6989 5.5507L11.9601 6.4057C12.3085 7.52987 13.1318 8.44029 14.2006 8.89154L14.429 8.18875C14.5303 7.87705 14.8647 7.70607 15.1767 7.80643C15.4899 7.9072 15.6618 8.24321 15.5602 8.55619L14.8576 10.7203C12.9181 10.4036 11.311 9.08153 10.5985 7.30028L8.59555 8.4482L10.9943 11.1874L9.2368 15.7474L11.6831 16.634L13.3456 11.5357C13.7097 11.6782 14.0897 11.7811 14.4856 11.8603L12.7993 17.0457Z" fill="white"/>
</g>
<defs>
<clipPath id="clip0_7377_163630">
<rect width="19" height="19" fill="white" transform="translate(0.307617 0.5)"/>
</clipPath>
</defs>
</svg>
