<svg width="20" height="20" viewBox="0 0 20 20" fill="none" xmlns="http://www.w3.org/2000/svg">
<g clip-path="url(#clip0_7377_163873)">
<path d="M17.3486 2.29376V6.09827C17.3486 6.48247 18.2752 6.80284 18.4399 6.09827V2.29376C18.3332 1.68675 17.3849 1.82414 17.3486 2.29376ZM1.62646 2.18539C1.70243 1.64343 2.58193 1.60012 2.75564 2.18539V6.10921C2.64709 6.72701 1.62646 6.60785 1.62646 6.10921V2.18539Z" fill="white"/>
<path d="M1.30922 3.95748L18.8374 4.01888C19.0545 4.01082 19.0627 4.43074 18.8374 4.43074H1.30922C1.04858 4.43074 1.06441 3.96173 1.30922 3.95748Z" fill="white"/>
<path d="M3.60596 4.37336L3.53111 17.6615C3.54093 17.8261 3.02903 17.8324 3.02903 17.6615L3.02903 4.37336C3.02903 4.17577 3.60077 4.18777 3.60596 4.37336Z" fill="white"/>
<path d="M16.5859 4.37336L16.5111 17.6615C16.5209 17.8261 16.009 17.8324 16.009 17.6615L16.009 4.37336C16.009 4.17577 16.5808 4.18777 16.5859 4.37336Z" fill="white"/>
<path d="M8.84424 2.58779C8.84424 2.74923 8.87609 2.90909 8.93798 3.05824C8.99987 3.2074 9.09058 3.34292 9.20493 3.45708C9.31929 3.57123 9.45504 3.66179 9.60445 3.72357C9.75386 3.78535 9.914 3.81715 10.0757 3.81715C10.2374 3.81715 10.3976 3.78535 10.547 3.72357C10.6964 3.66179 10.8322 3.57123 10.9465 3.45708C11.0609 3.34292 11.1516 3.2074 11.2135 3.05824C11.2754 2.90909 11.3072 2.74923 11.3072 2.58779C11.3072 2.26174 11.1775 1.94904 10.9465 1.71849C10.7156 1.48794 10.4023 1.35842 10.0757 1.35842C9.74911 1.35842 9.43588 1.48794 9.20493 1.71849C8.97398 1.94904 8.84424 2.26174 8.84424 2.58779Z" fill="white"/>
<path d="M8.45267 6.61249L8.39147 10.4133L6.11134 17.8544C6.01361 18.4777 7.13197 19.0522 7.56084 18.2284L9.89516 11.0094C9.9521 10.7953 10.207 10.7872 10.2752 11.0094L12.4848 18.2283C12.9109 18.9247 14.1378 18.651 13.9614 17.7514L11.7464 10.6626L11.767 6.58999C11.7674 6.51309 11.8627 6.47753 11.9134 6.53528L13.042 7.81556C13.4727 8.24004 14.1133 8.11541 14.3015 7.55537L15.1991 4.43006C15.4651 3.61651 14.24 3.50328 14.1496 3.76165L13.4497 6.01049C13.4256 6.08755 13.3226 6.10199 13.2784 6.03436L12.5716 4.95393C12.3708 4.68478 12.0667 4.65225 11.7029 4.64313H8.40943C7.918 4.66684 7.67213 4.85621 7.50466 5.09831L6.88854 6.04651C6.85733 6.09439 6.78425 6.08421 6.76766 6.02949L6.11119 3.87731C5.79088 3.33535 4.81912 3.71469 4.95659 4.31805L5.80351 7.41084C5.97539 7.96359 6.56457 8.32469 7.14994 7.75051L8.28992 6.54638C8.34899 6.48391 8.45404 6.52662 8.45267 6.61249Z" fill="white"/>
</g>
<defs>
<clipPath id="clip0_7377_163873">
<rect width="18.1731" height="17.3077" fill="white" transform="translate(1.00977 1.34375)"/>
</clipPath>
</defs>
</svg>
