<svg width="20" height="20" viewBox="0 0 20 20" fill="none" xmlns="http://www.w3.org/2000/svg">
<path d="M13.0462 5.66632L12.9997 5.68337L11.1587 6.46464L8.76228 5.21764C8.33147 4.99974 7.90361 5.18713 7.62005 5.34765L7.55894 5.38898L4.48007 8.14971C3.88365 8.52903 3.61045 9.16522 3.77262 9.75235C3.83325 9.97179 3.95055 10.1717 4.11291 10.3324C4.27527 10.4931 4.47709 10.609 4.69842 10.6686L7.04545 11.5662L6.52459 13.7171C6.44627 14.0291 6.49255 14.3591 6.65377 14.638C6.81498 14.9169 7.07864 15.1232 7.38962 15.2137C7.70059 15.3042 8.0348 15.272 8.32236 15.1237C8.60991 14.9754 8.82855 14.7225 8.93254 14.418L10.0093 10.7957C10.1031 10.4802 10.0673 10.1407 9.9098 9.85128C9.75226 9.56185 9.48575 9.34598 9.1684 9.25075L8.03775 8.84924L8.73881 8.03051L10.4373 8.66433C10.7161 8.78926 11.0302 8.81378 11.3253 8.73364L11.3669 8.72145L13.7435 7.78179C13.8927 7.73549 14.0711 7.61636 14.2275 7.46084C14.5524 7.13767 14.684 6.7492 14.5906 6.39498C14.4604 5.91702 14.1544 5.72566 13.9219 5.65071C13.6894 5.57575 13.391 5.57611 13.0462 5.66632Z" fill="white"/>
<path d="M11.5433 4.90122C11.7727 4.67393 11.9266 4.38239 11.9841 4.06579C12.0416 3.74918 12.0001 3.4227 11.865 3.13023C11.73 2.83775 11.5079 2.5933 11.2287 2.42975C10.9495 2.26619 10.6265 2.19136 10.3031 2.21531C9.97975 2.23927 9.67153 2.36087 9.4199 2.56376C9.16826 2.76665 8.98526 3.04111 8.8955 3.35024C8.80574 3.65938 8.81353 3.98836 8.91781 4.29297C9.02209 4.59758 9.21787 4.86322 9.47882 5.05418C9.78476 5.27717 10.161 5.38431 10.5395 5.35626C10.9181 5.32821 11.2741 5.16682 11.5433 4.90122Z" fill="white"/>
<path d="M16.1838 12.9167L15.7103 13.825C15.5834 14.0727 15.2144 14.3571 14.9405 14.4253L3.8012 17.1108C3.71686 17.1374 3.64584 17.1948 3.60247 17.2713C3.5591 17.3478 3.5466 17.4378 3.56751 17.5231C3.58842 17.6084 3.64117 17.6827 3.71512 17.7309C3.78906 17.7791 3.87869 17.7977 3.96592 17.7829L15.1052 15.0974C15.4207 15.0218 15.7556 14.8151 16.0121 14.56C16.1381 14.4369 16.245 14.2961 16.3296 14.1421L16.8006 13.2363C16.8337 13.1563 16.8356 13.067 16.8057 12.9858C16.7758 12.9045 16.7164 12.8373 16.6392 12.7973C16.5619 12.7573 16.4724 12.7473 16.3882 12.7694C16.3039 12.7915 16.231 12.844 16.1838 12.9167Z" fill="white"/>
</svg>
