<svg width="20" height="20" viewBox="0 0 20 20" fill="none" xmlns="http://www.w3.org/2000/svg">
<g clip-path="url(#clip0_7377_164325)">
<path d="M3.39893 3.56739C3.39893 3.74233 3.43338 3.91556 3.50033 4.07719C3.56728 4.23882 3.6654 4.38567 3.78911 4.50937C3.91281 4.63308 4.05967 4.7312 4.22129 4.79815C4.38292 4.8651 4.55615 4.89956 4.73109 4.89956C4.90603 4.89956 5.07926 4.8651 5.24089 4.79815C5.40251 4.7312 5.54937 4.63308 5.67307 4.50937C5.79677 4.38567 5.8949 4.23882 5.96185 4.07719C6.0288 3.91556 6.06325 3.74233 6.06325 3.56739C6.06325 3.39245 6.0288 3.21922 5.96185 3.0576C5.8949 2.89597 5.79677 2.74911 5.67307 2.62541C5.54937 2.50171 5.40251 2.40358 5.24089 2.33663C5.07926 2.26969 4.90603 2.23523 4.73109 2.23523C4.55615 2.23523 4.38292 2.26969 4.22129 2.33663C4.05967 2.40358 3.91281 2.50171 3.78911 2.62541C3.6654 2.74911 3.56728 2.89597 3.50033 3.0576C3.43338 3.21922 3.39893 3.39245 3.39893 3.56739Z" fill="white"/>
<path d="M16.9774 11.3955C17.2523 11.2869 17.5534 11.6512 17.3747 11.933L5.89664 18.5691C5.25737 19.0984 4.07093 18.1333 4.25653 17.6466C4.83944 17.1792 4.9288 18.1842 5.46084 18.0178L16.9774 11.3955Z" fill="white"/>
<path d="M6.0102 8.12367C6.09819 8.07143 6.15318 7.97657 6.15318 7.87346V4.90118C6.12706 4.39389 7.05779 3.56765 7.70943 3.81098L12.3589 6.46294C13.1151 6.98948 12.9886 8.19653 12.3589 8.59522L9.28356 10.4759C9.21619 10.5172 9.1942 10.6052 9.23269 10.6725L10.8907 13.5472C11.1505 14.4229 9.99844 14.9013 9.44303 14.3033L7.37536 10.6409C7.16639 10.2711 7.2915 9.8009 7.65857 9.58369L9.81285 8.31202C9.88296 8.27077 9.88296 8.16904 9.81147 8.1278L7.36024 6.73102C7.30112 6.69665 7.22688 6.73927 7.22551 6.80801L7.19389 8.50586C7.19114 8.62959 7.12515 8.74232 7.01792 8.80556L4.23673 10.4347C3.78168 10.7041 3.14241 10.0759 3.49985 9.61531L6.0102 8.12367Z" fill="white"/>
<path d="M7.20283 8.04L14.9154 3.56783L14.4919 3.01792C14.3984 2.88044 14.7256 2.55737 14.914 2.72922L15.3498 3.3245L15.9781 2.87632C16.1705 2.77046 16.4097 2.98905 16.2599 3.20352L15.5684 3.68882L15.9272 4.18786C16.0784 4.45457 15.6027 4.7364 15.457 4.51231L15.1243 3.9404L7.19458 8.51292L7.20283 8.04Z" fill="white"/>
</g>
<defs>
<clipPath id="clip0_7377_164325">
<rect width="15" height="17.0192" fill="white" transform="translate(2.88477 1.96875)"/>
</clipPath>
</defs>
</svg>
