<svg width="20" height="20" viewBox="0 0 20 20" fill="none" xmlns="http://www.w3.org/2000/svg">
<path d="M8.48074 15.876L7.57324 15.4102L7.83741 17.3093C8.02508 17.3808 8.23299 17.3779 8.41854 17.301C8.60409 17.2242 8.75322 17.0793 8.83537 16.896C8.91752 16.7127 8.92647 16.505 8.86038 16.3153C8.79429 16.1257 8.65816 15.9685 8.47991 15.876H8.48074Z" fill="#F2F2F2"/>
<path d="M8.70815 6.46828L9.08565 6.38494L11.3681 5.00911C11.5324 4.91057 11.7192 4.85577 11.9106 4.84995C11.7908 4.72218 11.6897 4.57794 11.6106 4.42161L10.384 5.27828H8.11732C8.06915 5.2783 8.02111 5.28333 7.97398 5.29328H7.94565C7.90875 5.29322 7.87193 5.29657 7.83565 5.30328L6.09232 5.62745L4.85565 4.19994L6.06398 1.84245C6.14573 1.67922 6.15972 1.49033 6.10291 1.31685C6.0461 1.14336 5.9231 0.999327 5.76064 0.916068C5.59819 0.832809 5.40943 0.817062 5.23543 0.872253C5.06142 0.927443 4.91625 1.04911 4.83148 1.21078L3.40898 3.98578C3.34602 4.10886 3.32135 4.24797 3.33813 4.3852C3.35491 4.52243 3.41238 4.65149 3.50315 4.75578L5.12398 6.61911L6.02648 11.4708L4.00148 14.3349C3.93639 14.4269 3.89181 14.5318 3.87076 14.6424C3.84971 14.7531 3.85268 14.867 3.87946 14.9765C3.90625 15.0859 3.95622 15.1883 4.02602 15.2767C4.09581 15.3652 4.18378 15.4376 4.28398 15.4891L5.14232 15.9299L4.97565 14.7241C4.93951 14.5618 4.94275 14.3933 4.98508 14.2325C5.02741 14.0717 5.10761 13.9234 5.21898 13.7999L7.22648 11.8616L5.56815 14.0849C5.44701 14.2499 5.39498 14.4556 5.42315 14.6583L5.95648 18.4858C5.97071 18.588 6.00494 18.6865 6.05722 18.7755C6.1095 18.8646 6.1788 18.9425 6.26118 19.0047C6.34355 19.067 6.43738 19.1124 6.5373 19.1384C6.63723 19.1644 6.7413 19.1704 6.84357 19.1562C6.94583 19.142 7.0443 19.1077 7.13333 19.0555C7.22237 19.0032 7.30024 18.9339 7.3625 18.8515C7.42475 18.7691 7.47017 18.6753 7.49616 18.5754C7.52215 18.4754 7.52821 18.3714 7.51398 18.2691L7.02482 14.7574L9.28982 11.6833C9.42857 11.495 9.52542 11.2792 9.57386 11.0503C9.62229 10.8215 9.6212 10.585 9.57065 10.3566L8.70815 6.46828Z" fill="#F2F2F2"/>
<path d="M11.2491 16.9352C11.3376 17.1082 11.4871 17.2422 11.6688 17.3114C11.8504 17.3805 12.0513 17.3797 12.2324 17.3093L12.4966 15.4102L11.5891 15.876C11.4036 15.9714 11.2635 16.1365 11.1998 16.3352C11.136 16.5338 11.1537 16.7496 11.2491 16.9352Z" fill="#F2F2F2"/>
<path d="M13.2519 4.99911C13.5467 4.99924 13.8341 4.90708 14.0738 4.73557C14.3136 4.56405 14.4936 4.32178 14.5887 4.04275C14.6838 3.76372 14.6891 3.46193 14.604 3.17971C14.5188 2.89749 14.3475 2.649 14.114 2.46911C13.8804 2.28922 13.5964 2.18695 13.3018 2.17664C13.0072 2.16634 12.7168 2.24852 12.4713 2.41166C12.2257 2.57479 12.0374 2.8107 11.9328 3.08628C11.8281 3.36186 11.8124 3.66329 11.8877 3.94828C11.9681 4.24897 12.1452 4.51482 12.3918 4.70475C12.6384 4.89469 12.9406 4.99814 13.2519 4.99911Z" fill="#F2F2F2"/>
<path d="M17.7797 2.45025C17.6022 2.41306 17.4172 2.44588 17.2633 2.54184C17.1094 2.6378 16.9985 2.78949 16.9538 2.96525L16.283 5.51108L14.5238 5.72941C14.5238 5.72941 12.1905 5.27775 11.9455 5.27775C11.8201 5.27768 11.697 5.31198 11.5897 5.37691L9.20801 6.79358L9.51134 8.14525L9.65967 8.11191C9.73233 8.0954 9.80183 8.06726 9.86551 8.02858L11.2047 7.22108L10.4963 10.3636C10.4456 10.5886 10.4438 10.8218 10.4911 11.0476C10.5384 11.2733 10.6337 11.4862 10.7705 11.6719L13.043 14.7552L12.5563 18.2486C12.5374 18.3615 12.5434 18.4771 12.5738 18.5874C12.6041 18.6978 12.6582 18.8002 12.7323 18.8874C12.8063 18.9747 12.8985 19.0448 13.0024 19.0928C13.1063 19.1408 13.2194 19.1655 13.3338 19.1652C13.5233 19.1649 13.7063 19.0961 13.8491 18.9717C13.9919 18.8472 14.0851 18.6754 14.1113 18.4877L14.6447 14.6602C14.6727 14.4576 14.6207 14.2519 14.4997 14.0869L12.7247 11.6636L14.8522 13.7977C14.9528 13.902 15.0286 14.0277 15.0738 14.1653C15.1189 14.303 15.1323 14.4491 15.113 14.5927L15.0947 14.7219L14.928 15.9277L15.7863 15.4869C15.8865 15.4354 15.9745 15.363 16.0443 15.2746C16.1141 15.1861 16.1641 15.0837 16.1909 14.9743C16.2176 14.8648 16.2206 14.7509 16.1996 14.6403C16.1785 14.5296 16.1339 14.4247 16.0688 14.3327L14.0288 11.2227L14.8455 7.08358L16.9197 6.82608C17.0568 6.80885 17.1856 6.751 17.2895 6.65996C17.3935 6.56893 17.4678 6.44888 17.503 6.31525L18.2972 3.30025C18.3206 3.21041 18.3257 3.11678 18.3122 3.02493C18.2986 2.93309 18.2668 2.84489 18.2185 2.7656C18.1703 2.6863 18.1065 2.61752 18.0311 2.56335C17.9557 2.50917 17.8702 2.47071 17.7797 2.45025Z" fill="#F2F2F2"/>
<path d="M7.12728 4.99572C7.39444 5.01428 7.66137 4.95647 7.8969 4.82904C8.13244 4.7016 8.32687 4.50979 8.4575 4.276C8.58812 4.04221 8.64955 3.77609 8.63461 3.5087C8.61967 3.24132 8.52898 2.98369 8.37313 2.76591C8.21728 2.54813 8.0027 2.37917 7.75443 2.27876C7.50616 2.17835 7.23445 2.15063 6.97102 2.19884C6.70759 2.24705 6.46331 2.3692 6.26669 2.55103C6.07007 2.73285 5.92923 2.96686 5.86061 3.22572C5.80732 3.42672 5.7991 3.63702 5.83654 3.84157C5.87397 4.04612 5.95614 4.23988 6.07715 4.40899C6.19817 4.57809 6.35506 4.71837 6.53659 4.8198C6.71813 4.92123 6.91983 4.9813 7.12728 4.99572Z" fill="#F2F2F2"/>
</svg>
