<svg width="20" height="20" viewBox="0 0 20 20" fill="none" xmlns="http://www.w3.org/2000/svg">
<g clip-path="url(#clip0_7377_164180)">
<path d="M8.55179 3.53692C8.54332 3.70976 8.56899 3.88256 8.62731 4.04548C8.68564 4.20839 8.77548 4.35822 8.89171 4.48642C9.00793 4.61461 9.14827 4.71866 9.30471 4.79261C9.46115 4.86657 9.63063 4.90899 9.80346 4.91745C9.97629 4.92591 10.1491 4.90025 10.312 4.84192C10.4749 4.7836 10.6248 4.69376 10.753 4.57753C10.8811 4.4613 10.9852 4.32096 11.0591 4.16452C11.1331 4.00808 11.1755 3.83861 11.184 3.66578C11.1924 3.49294 11.1668 3.32014 11.1085 3.15722C11.0501 2.99431 10.9603 2.84448 10.8441 2.71628C10.7278 2.58809 10.5875 2.48404 10.4311 2.41009C10.2746 2.33613 10.1051 2.29371 9.93231 2.28525C9.75948 2.27679 9.58667 2.30245 9.42376 2.36078C9.26084 2.4191 9.11101 2.50894 8.98282 2.62517C8.85462 2.7414 8.75058 2.88174 8.67662 3.03818C8.60267 3.19462 8.56025 3.36409 8.55179 3.53692Z" fill="white"/>
<path d="M8.63416 5.35858L8.82471 5.37854C10.4333 5.54711 13.6002 6.32095 13.6002 6.32095L15.7447 5.50691C16.015 5.40433 16.3179 5.53424 16.4298 5.80071C16.5416 6.06674 16.423 6.37353 16.1613 6.49517L14.0983 7.45419C13.8328 7.57759 13.5362 7.6177 13.2475 7.56924L11.2996 7.24224C11.2996 7.24224 11.0482 7.2209 11.0375 7.43847L10.9078 10.4537L13.5297 10.7054C13.6979 10.7215 13.8469 10.8207 13.9266 10.9697L15.9225 14.7C16.123 15.0748 15.9729 15.5412 15.5914 15.7287C15.2426 15.9001 14.8207 15.7772 14.6185 15.4454L12.6446 12.2064L9.13907 12.1457L8.82116 16.038C8.80182 16.2748 8.60399 16.4571 8.36639 16.4571L4.30756 16.4571C3.90328 16.4571 3.57554 16.1294 3.57552 15.7251C3.5755 15.3208 3.90325 14.993 4.30756 14.993L7.15224 14.993L7.37295 11.5453L7.75716 7.0651C7.75941 7.0262 6.81436 7.11325 6.2552 7.16814C6.00483 7.19272 5.7593 7.08863 5.60378 6.89088L3.84031 4.64864C3.63133 4.38292 3.67638 3.99827 3.94112 3.78804C4.19255 3.58838 4.55535 3.61608 4.77355 3.85161L6.47592 5.68917L8.63416 5.35858Z" fill="white"/>
<circle cx="4.99606" cy="3.08749" r="0.732042" transform="rotate(-8.70878 4.99606 3.08749)" fill="white"/>
</g>
<defs>
<clipPath id="clip0_7377_164180">
<rect width="15.6102" height="18.5806" fill="white" transform="translate(3.4082 0.5) rotate(2.8025)"/>
</clipPath>
</defs>
</svg>
