<svg width="20" height="20" viewBox="0 0 20 20" fill="none" xmlns="http://www.w3.org/2000/svg">
<g clip-path="url(#clip0_7377_164210)">
<path d="M14.6133 4.88543C14.6133 5.00169 14.6595 5.11319 14.7417 5.1954C14.8239 5.27762 14.9354 5.3238 15.0517 5.3238C15.1679 5.3238 15.2794 5.27762 15.3616 5.1954C15.4438 5.11319 15.49 5.00169 15.49 4.88543C15.49 4.76916 15.4438 4.65766 15.3616 4.57545C15.2794 4.49324 15.1679 4.44705 15.0517 4.44705C14.9354 4.44705 14.8239 4.49324 14.7417 4.57545C14.6595 4.65766 14.6133 4.76916 14.6133 4.88543Z" fill="white"/>
<path d="M9.37402 4.88587C9.37402 5.02403 9.40124 5.16084 9.45411 5.28849C9.50698 5.41614 9.58448 5.53212 9.68218 5.62981C9.77987 5.72751 9.89585 5.80501 10.0235 5.85788C10.1511 5.91075 10.288 5.93797 10.4261 5.93797C10.5643 5.93797 10.7011 5.91075 10.8287 5.85788C10.9564 5.80501 11.0724 5.72751 11.1701 5.62981C11.2678 5.53212 11.3453 5.41614 11.3981 5.28849C11.451 5.16084 11.4782 5.02403 11.4782 4.88587C11.4782 4.74771 11.451 4.61089 11.3981 4.48325C11.3453 4.3556 11.2678 4.23962 11.1701 4.14192C11.0724 4.04423 10.9564 3.96673 10.8287 3.91386C10.7011 3.86098 10.5643 3.83377 10.4261 3.83377C10.288 3.83377 10.1511 3.86098 10.0235 3.91386C9.89585 3.96673 9.77987 4.04423 9.68218 4.14192C9.58448 4.23962 9.50698 4.3556 9.45411 4.48325C9.40124 4.61089 9.37402 4.74771 9.37402 4.88587Z" fill="white"/>
<path d="M4.85178 2.00565H5.4509V5.13272L4.85178 5.38113V2.00565ZM15.5922 7.0763C14.4817 6.43335 13.5683 7.06893 13.5465 7.83615L13.4734 10.0062L13.035 10.7989L11.8488 10.1284C11.783 10.0913 11.7283 10.0374 11.6901 9.9722C11.652 9.90702 11.6317 9.83291 11.6315 9.75738L11.6249 7.77033C11.6102 7.4014 11.4897 7.25153 11.1791 7.05432L8.24925 5.38113C7.8963 5.22326 7.56246 5.22039 7.17517 5.33729L2.72573 6.51366C2.23615 6.79866 2.66004 7.50006 3.01074 7.37579L7.27771 6.17757C7.59556 6.08628 7.93165 6.36029 7.71608 6.71099L2.33856 15.9462C2.03657 16.5599 3.03996 17.1298 3.41989 16.6768L6.44942 11.4655C6.53559 11.3172 6.72568 11.2667 6.87418 11.3526L9.96828 13.1426C10.021 13.1731 10.0648 13.217 10.0953 13.2697C10.1257 13.3225 10.1418 13.3824 10.1418 13.4433V16.2166C10.1418 16.5596 10.4198 16.8377 10.7628 16.8377C11.1058 16.8377 11.3839 16.5597 11.3839 16.2166V12.8181C11.3839 12.6464 11.2941 12.4872 11.1471 12.3985L8.86797 11.0222C8.72884 10.9381 8.68275 10.7581 8.76431 10.6176L10.3026 7.96779C10.4146 7.73149 10.702 7.63657 10.7337 7.95318V10.181C10.7337 10.351 10.8243 10.5081 10.9713 10.5933L12.8708 11.694C13.1487 11.8664 13.4053 11.8742 13.5612 11.694C13.7706 11.3384 13.6524 11.2315 13.4187 11.0328L13.9055 10.1889C14.6054 9.74139 15.2093 9.35035 15.6654 9.0345C16.3277 8.61061 16.279 7.427 15.5922 7.0763ZM15.7091 8.25991C15.5309 8.77972 14.8382 9.22296 13.9264 9.63349C13.9111 8.85915 13.8624 7.98228 13.9994 7.67541C14.2917 6.8425 15.9283 7.24778 15.7091 8.25991Z" fill="white"/>
<path d="M4.85171 7.39547L5.45082 7.24197V7.92152L6.15222 8.43658L5.84536 8.82012L5.22077 8.41472L1.62598 8.38175V7.92152H4.85171V7.39547ZM9.26481 10.8038L16.7173 15.1V14.4973L9.53145 10.3728L9.26481 10.8038Z" fill="white"/>
</g>
<defs>
<clipPath id="clip0_7377_164210">
<rect width="17.5" height="17.5" fill="white" transform="translate(1.44238 0.671875)"/>
</clipPath>
</defs>
</svg>
