<svg width="20" height="20" viewBox="0 0 20 20" fill="none" xmlns="http://www.w3.org/2000/svg">
<ellipse cx="9.24739" cy="2.37404" rx="1.22396" ry="1.22401" fill="#F2F2F2"/>
<path d="M9.61872 3.99951H8.56378C8.05628 3.99951 7.61774 4.35404 7.51141 4.85027L6.79991 8.17078C6.74056 8.44776 6.7928 8.73696 6.94529 8.97567L7.29719 9.52654L7.37878 12.0562L7.19003 14.9667C7.16234 15.3937 7.56268 15.7214 7.97578 15.6099C8.20566 15.5478 8.38021 15.3604 8.42579 15.1266L8.92913 12.5458L9.09232 9.93455L11.6399 10.5793V12.327C11.6399 12.9592 12.4449 13.227 12.8236 12.7209C12.9087 12.6072 12.9547 12.469 12.9547 12.327V10.0552C12.9547 9.58292 12.6468 9.16583 12.1955 9.02669L9.5819 8.22093L10.105 5.86286L10.5609 6.98379L12.7484 8.07758C12.9931 8.19992 13.2906 8.10075 13.4129 7.85608C13.5335 7.61501 13.4391 7.32183 13.2006 7.1963L11.5474 6.32613L11.1542 5.11528C10.9381 4.44999 10.3182 3.99951 9.61872 3.99951Z" fill="#F2F2F2"/>
<path fill-rule="evenodd" clip-rule="evenodd" d="M13.2265 6.49804C13.3592 6.40616 13.5413 6.43926 13.6331 6.57199L14.661 8.05679L15.3274 13.7213L15.8016 18.0184H4.51493C4.35351 18.0184 4.22266 17.8875 4.22266 17.7261C4.22266 17.5647 4.35351 17.4338 4.51493 17.4338H15.149L14.7466 13.7875L14.7464 13.7854L14.0975 8.26977L13.1525 6.90474C13.0606 6.77201 13.0937 6.58993 13.2265 6.49804Z" fill="#F2F2F2"/>
<path fill-rule="evenodd" clip-rule="evenodd" d="M10.8005 13.132H14.1617V13.7165H11.3851V15.178H10.8005V13.132Z" fill="#F2F2F2"/>
<path fill-rule="evenodd" clip-rule="evenodd" d="M6.63672 15.7615H9.9979V16.3461H7.22127V17.5883H6.63672V15.7615Z" fill="#F2F2F2"/>
<path fill-rule="evenodd" clip-rule="evenodd" d="M7.42578 17.4504L14.55 12.7372L14.8725 13.2247L7.7483 17.9379L7.42578 17.4504Z" fill="#F2F2F2"/>
</svg>
