<svg width="20" height="20" viewBox="0 0 20 20" fill="none" xmlns="http://www.w3.org/2000/svg">
<ellipse cx="8.0619" cy="2.39677" rx="1.39589" ry="1.39677" fill="white"/>
<path d="M10.8539 5.47099L9.84158 4.8632C9.28612 4.5297 8.65042 4.35352 8.00254 4.35352C6.81071 4.35352 5.80236 5.23445 5.64233 6.41548L5.34542 8.60674C5.2402 9.38321 5.52561 10.1615 6.10785 10.6859L6.20091 13.5727L4.41201 16.6081C4.21127 16.9487 4.29578 17.3855 4.60909 17.6267C4.96734 17.9025 5.484 17.8186 5.73667 17.4437L7.96903 14.1314L8.15515 11.1515L10.2955 11.8965L9.56587 14.452C9.45235 14.8495 9.66309 15.2676 10.0502 15.4129C10.4835 15.5755 10.9634 15.3344 11.0916 14.8897L11.7699 12.5367C12.0466 11.5769 11.587 10.5579 10.6843 10.1301L8.71351 9.1959L8.99268 6.30909L10.7608 6.86783L13.9709 6.78948C14.3076 6.78127 14.5762 6.50599 14.5762 6.16923C14.5762 5.83261 14.3078 5.5574 13.9713 5.54898L10.8539 5.47099Z" fill="white"/>
<path d="M6.57129 18H9.17695V16.458H12.1548V14.1299H14.1091V7.51822L16.6217 5.00391" stroke="white" stroke-width="2" stroke-linecap="round"/>
</svg>
