<svg width="20" height="20" viewBox="0 0 20 20" fill="none" xmlns="http://www.w3.org/2000/svg">
<ellipse cx="13.4859" cy="3.56747" rx="1.35311" ry="1.35312" fill="white"/>
<path d="M11.2454 4.92126L8.61355 6.95094L6.31327 5.86845L5.63672 7.22156L8.76792 8.98253L10.2373 7.6275L9.51117 11.0884L11.2454 12.2033L10.9977 14.1854L6.41428 15.548L6.66203 17.0345L12.4842 15.548L12.8558 12.8227L14.2966 13.8518L14.4662 18.7231L15.8479 18.3629L15.705 12.9466L13.4752 10.8407L13.8143 8.50832L14.4662 9.97355L16.5721 11.7078L17.3153 10.7168L15.4572 8.98253L14.4662 5.73313L11.2454 4.92126Z" fill="white"/>
<path d="M18.5739 12.0673L5.89062 6.54297" stroke="white" stroke-width="0.5" stroke-linecap="round"/>
<path d="M5.19329 7.1953L1.04555 5.70464L1.36955 4.0907L2.48714 3.04448L6.0627 5.46397L6.02702 6.54587L5.19329 7.1953Z" stroke="white" stroke-width="0.6"/>
<path d="M3.0113 3.59943C2.80868 4.26967 2.34192 5.88253 1.79741 5.97288" stroke="white" stroke-width="0.3"/>
<path d="M4.21241 4.18034C4.15395 4.58456 3.59941 6.09547 3.15237 6.51395" stroke="white" stroke-width="0.3"/>
<path d="M1.65234 3.82385L6.04826 5.99962" stroke="white" stroke-width="0.3"/>
<path d="M1.25781 4.89014L5.61513 6.79884" stroke="white" stroke-width="0.3"/>
<path d="M5.26624 5.02705L4.3688 6.78417" stroke="white" stroke-width="0.3"/>
</svg>
