<svg width="20" height="20" viewBox="0 0 20 20" fill="none" xmlns="http://www.w3.org/2000/svg">
<path d="M15.8585 2.10664C15.7237 1.53366 15.1499 1.17845 14.5769 1.31327C14.0039 1.44809 13.6487 2.02188 13.7836 2.59487L14.2764 4.6896L11.7474 5.60004C11.6533 5.48956 11.5438 5.39206 11.4219 5.31103L10.7174 3.46169C10.392 2.60763 9.4717 2.13982 8.58998 2.38029L7.22906 2.75145L5.60229 3.29371C5.04386 3.47985 4.74206 4.08344 4.92821 4.64187C5.11435 5.2003 5.71794 5.5021 6.27637 5.31596L7.84701 4.79241L8.84005 4.52158L9.28908 5.70027C9.13333 5.91608 9.03066 6.1746 9.00227 6.45849C8.84135 8.06766 8.5491 8.95347 7.77214 9.85992C7.74841 9.8876 7.72583 9.91587 7.70437 9.94468L4.52151 8.80794C3.96716 8.60996 3.35729 8.89885 3.15931 9.45319C2.96133 10.0075 3.25022 10.6174 3.80456 10.8154L8.55923 12.5135L8.96207 17.8847C9.00609 18.4717 9.51763 18.9118 10.1046 18.8678C10.6916 18.8238 11.1318 18.3123 11.0877 17.7253L10.6064 11.3073C11.3978 10.1976 11.7761 9.05847 11.9834 7.78064L15.5945 6.48064C16.2739 6.23607 16.6619 5.52092 16.4965 4.81806L15.8585 2.10664Z" fill="white"/>
<path d="M5.88832 12.7775C6.73562 12.5272 7.62539 13.0112 7.8757 13.8585C8.126 14.7058 7.64204 15.5956 6.79474 15.8459C6.62518 15.896 6.45392 15.9166 6.28642 15.9109L5.42626 12.9992C5.56375 12.9033 5.71876 12.8276 5.88832 12.7775Z" fill="white"/>
<path d="M5.05847 13.3561C5.16002 13.2196 5.28372 13.0985 5.42626 12.9992L5.27037 12.4715L4.83511 12.6L5.05847 13.3561Z" fill="white"/>
<path d="M5.78369 15.8111L5.05847 13.3561C5.01642 13.4127 4.97818 13.4719 4.94396 13.5333C4.74218 13.8957 4.834 14.2904 4.96078 14.7196C5.07989 15.1228 5.19039 15.489 5.52563 15.6877C5.60773 15.7364 5.69412 15.7777 5.78369 15.8111Z" fill="white"/>
<path d="M5.78369 15.8111C5.80157 15.8178 5.81957 15.8241 5.83769 15.8301L5.86328 15.8392C5.99959 15.8863 6.14264 15.9111 6.28687 15.9124L6.28642 15.9109C6.13223 15.9056 5.98124 15.8779 5.83769 15.8301L5.78369 15.8111Z" fill="white"/>
</svg>
