<svg width="20" height="20" viewBox="0 0 20 20" fill="none" xmlns="http://www.w3.org/2000/svg">
<g clip-path="url(#clip0_7377_163677)">
<path d="M8.84692 2.78321C8.84692 2.94466 8.87878 3.10452 8.94066 3.25367C9.00255 3.40282 9.09326 3.53835 9.20762 3.65251C9.32197 3.76666 9.45773 3.85722 9.60714 3.919C9.75655 3.98078 9.91669 4.01258 10.0784 4.01258C10.2401 4.01258 10.4003 3.98078 10.5497 3.919C10.6991 3.85722 10.8348 3.76666 10.9492 3.65251C11.0636 3.53835 11.1543 3.40282 11.2162 3.25367C11.278 3.10452 11.3099 2.94466 11.3099 2.78321C11.3099 2.45717 11.1801 2.14447 10.9492 1.91392C10.7182 1.68337 10.405 1.55385 10.0784 1.55385C9.7518 1.55385 9.43856 1.68337 9.20762 1.91392C8.97667 2.14447 8.84692 2.45717 8.84692 2.78321Z" fill="white"/>
<path d="M17.3503 2.49061V6.29512C17.3503 6.67933 18.2769 6.9997 18.4416 6.29512V2.49061C18.3349 1.8836 17.3866 2.02099 17.3503 2.49061ZM1.62817 2.38225C1.70414 1.84029 2.58364 1.79698 2.75735 2.38225V6.30606C2.6488 6.92386 1.62817 6.80471 1.62817 6.30606V2.38225Z" fill="white"/>
<path d="M1.31019 4.15202L18.8384 4.21342C19.0555 4.20536 19.0637 4.62528 18.8384 4.62528H1.31019C1.04956 4.62528 1.06539 4.15627 1.31019 4.15202Z" fill="white"/>
<path d="M8.45316 6.80792L8.39196 10.6088L6.11183 18.0499C6.01409 18.6731 7.13246 19.2476 7.56133 18.4239L9.89565 11.2048C9.95259 10.9907 10.2074 10.9826 10.2756 11.2048L12.4853 18.4237C12.9114 19.1201 14.1383 18.8464 13.9619 17.9468L11.7469 10.858L11.7675 6.78542C11.7679 6.70852 11.8632 6.67296 11.9139 6.73071L13.0425 8.01099C13.4732 8.43547 14.1138 8.31084 14.302 7.7508L15.1996 4.62549C15.4656 3.81194 14.2405 3.69872 14.15 3.95708L13.4502 6.20593C13.4261 6.28298 13.3231 6.29742 13.2789 6.22979L12.5721 5.14936C12.3713 4.88021 12.0672 4.84768 11.7034 4.83856H8.40992C7.91849 4.86227 7.67262 5.05164 7.50515 5.29374L6.88903 6.24194C6.85782 6.28982 6.78474 6.27964 6.76815 6.22492L6.11168 4.07274C5.79136 3.53078 4.81961 3.91012 4.95708 4.51348L5.804 7.60627C5.97588 8.15902 6.56506 8.52012 7.15043 7.94594L8.29041 6.74181C8.34948 6.67934 8.45453 6.72205 8.45316 6.80792Z" fill="white"/>
</g>
<defs>
<clipPath id="clip0_7377_163677">
<rect width="18.1731" height="17.3077" fill="white" transform="translate(1.00977 1.53906)"/>
</clipPath>
</defs>
</svg>
