<svg width="20" height="20" viewBox="0 0 20 20" fill="none" xmlns="http://www.w3.org/2000/svg">
<path fill-rule="evenodd" clip-rule="evenodd" d="M10.7812 4.0625C11.5578 4.0625 12.1875 3.43278 12.1875 2.65625C12.1875 1.87972 11.5578 1.25 10.7812 1.25C10.0047 1.25 9.375 1.87972 9.375 2.65625C9.375 3.43278 10.0047 4.0625 10.7812 4.0625ZM17.2315 4.95919C16.1645 4.96168 15.0976 4.93871 14.0307 4.90828C13.6709 4.90081 13.311 4.88605 12.9512 4.87128L12.9512 4.87128C12.7776 4.86416 12.604 4.85703 12.4304 4.85073C11.8968 4.82445 11.3635 4.79401 10.8299 4.75307C10.815 4.75215 10.7993 4.75245 10.7834 4.75276L10.7833 4.75276C10.7752 4.75291 10.7671 4.75307 10.7589 4.75307C10.5639 4.71987 10.3706 4.72208 10.1858 4.75583L10.1844 4.75573C10.1832 4.75557 10.182 4.75528 10.1808 4.75528L6.46496 4.89721C5.22651 4.94618 3.98807 4.99017 2.74935 5.0159C2.38008 5.02393 2.0782 5.32245 2.07047 5.69595C2.06246 6.07969 2.36654 6.39703 2.74935 6.40505C3.98807 6.43078 5.22651 6.4745 6.46496 6.52347L8.74658 6.61062L8.07295 9.98985C7.95446 10.5922 8.2138 11.1928 8.69659 11.5314C8.70352 11.5371 8.71012 11.543 8.71671 11.5489C8.72797 11.559 8.73921 11.5691 8.7521 11.5776L12.4484 14.0729L12.1183 17.6328C12.0857 17.9914 12.3354 18.3217 12.6961 18.3801C13.0728 18.441 13.4275 18.1845 13.4882 17.8071L14.1403 13.7644C14.184 13.4891 14.0796 13.1981 13.8429 13.0172L13.8014 12.9853L10.9807 10.8295C10.9981 10.7839 11.0136 10.7371 11.0268 10.689L12.081 6.82725C12.0907 6.79156 12.1004 6.75117 12.1078 6.71437C12.1233 6.63635 12.1313 6.55861 12.1355 6.48142C12.1801 6.47903 12.2248 6.47606 12.2695 6.4731H12.2695C12.3232 6.46955 12.3768 6.466 12.4304 6.46343C12.604 6.45713 12.7776 6.45001 12.9511 6.44288H12.9512C13.311 6.42812 13.6709 6.41335 14.0307 6.40588C15.0976 6.37545 16.1645 6.35249 17.2315 6.35498H17.2348C17.6195 6.35415 17.9308 6.04096 17.9297 5.65556C17.9289 5.26988 17.6162 4.95836 17.2315 4.95919ZM7.64282 11.0547C7.78644 11.4144 8.02949 11.7353 8.35816 11.9705C8.38301 11.9926 8.41063 12.0147 8.44378 12.0369L8.96302 12.3855L8.2532 13.2404L7.54891 14.087L6.83082 14.917L3.95566 18.237C3.70432 18.5275 3.26518 18.5579 2.97241 18.3062C2.69346 18.0599 2.65479 17.6394 2.88403 17.3489L5.5769 13.9127C5.65148 13.8168 5.72666 13.7215 5.80185 13.6262C5.95222 13.4356 6.10259 13.245 6.24805 13.0495L6.87224 12.1558L7.64282 11.0547Z" fill="white"/>
</svg>
