<svg width="20" height="20" viewBox="0 0 20 20" fill="none" xmlns="http://www.w3.org/2000/svg">
<path d="M8.7168 2.02906C8.7168 2.19805 8.75014 2.36539 8.81492 2.52152C8.87971 2.67765 8.97466 2.81951 9.09436 2.93901C9.21406 3.05851 9.35617 3.1533 9.51257 3.21797C9.66897 3.28264 9.8366 3.31592 10.0059 3.31592C10.1752 3.31592 10.3428 3.28264 10.4992 3.21797C10.6556 3.1533 10.7977 3.05851 10.9174 2.93901C11.0371 2.81951 11.1321 2.67765 11.1968 2.52152C11.2616 2.36539 11.295 2.19805 11.295 2.02906C11.295 1.68776 11.1592 1.36044 10.9174 1.1191C10.6757 0.877768 10.3478 0.742188 10.0059 0.742188C9.664 0.742188 9.33611 0.877768 9.09436 1.1191C8.85261 1.36044 8.7168 1.68776 8.7168 2.02906Z" fill="white"/>
<path d="M8.30628 6.24116L8.24221 10.2198L6.23596 18.0089C6.13365 18.6614 7.30433 19.2627 7.75325 18.4005L9.81624 10.8438C9.87584 10.6196 10.1426 10.6112 10.214 10.8438L12.1465 18.4003C12.5925 19.1293 13.8768 18.8427 13.6921 17.9011L11.7541 10.4807L11.7756 6.21761C11.7761 6.13711 11.8758 6.09989 11.9289 6.16034L13.1103 7.50051C13.5611 7.94484 14.2317 7.81439 14.4287 7.22815C13.9557 6.44936 13.4354 5.75498 13.3578 5.63599L12.6178 4.50502C12.4076 4.22328 12.0894 4.18923 11.7085 4.17969H8.26102C7.74659 4.20451 7.48922 4.40273 7.31393 4.65616L6.53542 5.68828C6.48321 5.76838 5.96464 6.44933 5.5332 7.07685C5.71312 7.65546 6.32986 8.03345 6.94261 7.43242L8.13592 6.17196C8.19775 6.10657 8.30771 6.15127 8.30628 6.24116Z" fill="white"/>
<path d="M3.74902 9.12847H7.04314V9.64086H3.74902V9.12847ZM6.03222 18.2554H8.21272V18.8485H6.03222V18.2554ZM11.5812 18.2554H13.7617V18.8485H11.5812V18.2554ZM12.7287 9.12109H16.0302V9.64086H12.7287V9.12109Z" fill="white"/>
<path d="M5.52288 9.80661H6.06893V18.8478H5.52288V9.80661ZM13.7431 9.80661H14.2892V18.8478H13.7431V9.80661ZM1.35742 7.3125H18.4546V7.85855H1.35742V7.3125Z" fill="white"/>
<path d="M3.94603 9.4146L3.56232 9.802L1.18474 7.78015C1.07774 7.67315 1.07774 7.49974 1.18474 7.39275C1.29173 7.28575 1.46514 7.28575 1.57214 7.39275L3.94603 9.4146ZM15.9228 9.35188L16.3102 9.73928L18.6214 7.78015C18.7284 7.67315 18.7284 7.49974 18.6214 7.39275C18.5144 7.28575 18.341 7.28575 18.234 7.39275L15.9228 9.35188Z" fill="white"/>
<path d="M15.7354 6.30885C15.7354 6.11239 15.8946 5.95312 16.0911 5.95312C16.2875 5.95312 16.4468 6.11239 16.4468 6.30885V19.1226H15.7354V6.30885Z" fill="white"/>
<path d="M3.28516 6.30885C3.28516 6.11239 3.44442 5.95312 3.64089 5.95312C3.83735 5.95312 3.99661 6.11239 3.99661 6.30885V19.1226H3.28516V6.30885Z" fill="white"/>
</svg>
