<svg width="20" height="20" viewBox="0 0 20 20" fill="none" xmlns="http://www.w3.org/2000/svg">
<path d="M10.7877 11.8575L9.10149 11.3438L7.81514 13.6332C7.62088 13.979 7.73597 14.4165 8.0752 14.6219C8.4101 14.8246 8.84516 14.7293 9.06452 14.405L10.7877 11.8575Z" fill="white"/>
<path d="M12.5239 4.53923C12.5545 5.2406 12.0107 5.83395 11.3093 5.86453C10.608 5.89511 10.0146 5.35133 9.98406 4.64997C9.95347 3.9486 10.4972 3.35525 11.1986 3.32467C11.9 3.29409 12.4933 3.83786 12.5239 4.53923Z" fill="white"/>
<path d="M7.28464 11.4946C6.64976 11.1022 6.44622 10.2735 6.82707 9.63161L9.24091 5.56323L11.9508 7.10891L8.65565 12.342L7.28464 11.4946Z" fill="white"/>
<path d="M11.1185 8.22181L11.8489 7.01549L14.0491 8.09403L16.4324 8.06773C16.7726 8.1027 17.0277 8.39498 17.0164 8.73677C17.0042 9.10251 16.6931 9.38634 16.3277 9.3649L13.5226 9.48721L11.1185 8.22181Z" fill="white"/>
<path d="M8.07418 2.74297C8.31848 2.47638 8.7287 2.44767 9.00775 2.67763C9.29465 2.91406 9.33845 3.33709 9.10607 3.62727L8.22573 4.7266L9.85245 5.96635L8.92258 7.24097L6.92152 5.47528C6.51119 5.11322 6.47786 4.4849 6.84757 4.08146L8.07418 2.74297Z" fill="white"/>
<path d="M13.2883 12.3263C13.551 11.8162 13.2761 11.1937 12.7221 11.0443L9.73843 10.2394L9.02084 11.7388L11.3994 12.4181L10.5702 14.2746C10.3912 14.6754 10.5864 15.1442 10.997 15.2993C11.3596 15.4364 11.7674 15.2797 11.9448 14.935L13.2883 12.3263Z" fill="white"/>
<path d="M2.81641 13.0859C5.33377 14.7052 11.1273 17.2286 16.3529 16.7659" stroke="white" stroke-linecap="round"/>
<path d="M5.0288 14.4588L3.39798 15.215" stroke="white" stroke-linecap="round"/>
</svg>
