<svg width="20" height="20" viewBox="0 0 20 20" fill="none" xmlns="http://www.w3.org/2000/svg">
<path d="M1.94777 14.0277H3.49978V3.69758C3.49978 3.45862 3.699 3.26562 3.94565 3.26562C4.1923 3.26562 4.39152 3.45862 4.39152 3.69758V14.0277H6.99654C7.24319 14.0277 7.44241 14.2207 7.44241 14.4596C7.44241 14.6986 7.24319 14.8916 6.99654 14.8916H6.59431V16.0606H13.4057V14.8916H8.89766C8.65101 14.8916 8.45179 14.6986 8.45179 14.4596C8.45179 14.2207 8.65101 14.0277 8.89766 14.0277H15.6123V3.69758C15.6123 3.45862 15.8115 3.26562 16.0581 3.26562C16.3048 3.26562 16.504 3.45862 16.504 3.69758V14.0277H18.0541C18.3008 14.0277 18.5 14.2207 18.5 14.4596V16.4944C18.5 16.7333 18.3008 16.9263 18.0541 16.9263H1.94587C1.69922 16.9263 1.5 16.7333 1.5 16.4944V14.4615C1.5019 14.2225 1.70112 14.0277 1.94777 14.0277Z" fill="white"/>
<path d="M8.89939 14.8934H13.4074V16.0624H6.59604V14.8934H6.99637C7.24302 14.8934 7.44224 14.7004 7.44224 14.4615H8.45541C8.45541 14.7004 8.65463 14.8934 8.89939 14.8934Z" fill="white"/>
<path d="M17.6101 14.8932H14.2974V16.0623H17.6101V14.8932ZM5.70439 14.8932H2.39167V16.0623H5.70439V14.8932Z" fill="white"/>
</svg>
