<svg width="20" height="20" viewBox="0 0 20 20" fill="none" xmlns="http://www.w3.org/2000/svg">
<path d="M16.4223 5.0368C16.4223 5.14996 16.4679 5.25848 16.5491 5.33849C16.6303 5.41851 16.7404 5.46346 16.8552 5.46346C16.97 5.46346 17.0801 5.41851 17.1613 5.33849C17.2425 5.25848 17.2881 5.14996 17.2881 5.0368C17.2881 4.92364 17.2425 4.81511 17.1613 4.7351C17.0801 4.65508 16.97 4.61013 16.8552 4.61013C16.7404 4.61013 16.6303 4.65508 16.5491 4.7351C16.4679 4.81511 16.4223 4.92364 16.4223 5.0368Z" fill="white"/>
<path d="M6.96189 3.26839C6.96189 3.60893 7.09914 3.93553 7.34345 4.17632C7.58776 4.41712 7.91912 4.5524 8.26463 4.5524C8.61014 4.5524 8.94149 4.41712 9.1858 4.17632C9.43011 3.93553 9.56737 3.60893 9.56737 3.26839C9.56737 2.92785 9.43011 2.60125 9.1858 2.36045C8.94149 2.11965 8.61014 1.98438 8.26463 1.98438C7.91912 1.98438 7.58776 2.11965 7.34345 2.36045C7.09914 2.60125 6.96189 2.92785 6.96189 3.26839Z" fill="white"/>
<path d="M11.914 10.0528V10.8098C11.914 10.9676 12.043 11.0947 12.2031 11.0947H18.8457V9.76788H12.2044C12.0443 9.76654 11.914 9.89494 11.914 10.0528Z" fill="white"/>
<path d="M13.5299 6.71903C13.6308 6.81411 13.7515 6.88675 13.8852 6.93281C14.0189 6.97887 14.163 6.99744 14.3092 6.98747C14.4554 6.9775 14.6009 6.93917 14.7374 6.87468C14.8738 6.8102 14.9986 6.72081 15.1045 6.61163C15.2105 6.50245 15.2955 6.37561 15.3548 6.23836C15.414 6.10111 15.4464 5.95613 15.45 5.81171C15.4535 5.66729 15.4283 5.52625 15.3756 5.39665C15.323 5.26705 15.2439 5.15143 15.1431 5.05639C15.0422 4.96131 14.9215 4.88866 14.7878 4.84261C14.6541 4.79655 14.51 4.77798 14.3638 4.78795C14.2176 4.79792 14.0721 4.83625 13.9356 4.90074C13.7991 4.96522 13.6744 5.05461 13.5684 5.16379C13.4625 5.27297 13.3775 5.39981 13.3182 5.53706C13.259 5.67431 13.2266 5.81929 13.223 5.96371C13.2194 6.10813 13.2447 6.24917 13.2974 6.37877C13.35 6.50837 13.429 6.62399 13.5299 6.71903Z" fill="white"/>
<path d="M13.5673 6.75194L13.1236 7.41267L13.5673 7.62132L14.0586 6.97664L13.5673 6.75194Z" fill="white"/>
<path d="M4.23905 4.86724H7.78224C8.17848 4.86724 8.62902 5.05583 8.86921 5.34474L10.7582 7.18649H13.4152C14.281 7.33362 14.0585 8.28058 13.4152 8.26587H10.4271L9.04834 7.02198C8.94792 6.93103 8.78643 6.97918 8.75251 7.10892L7.91115 10.2989C7.86908 10.4607 7.91522 10.6333 8.03328 10.7523L10.4515 13.1973C10.5221 13.2682 10.5723 13.3565 10.5994 13.4528L11.6687 17.2874C11.7515 18.2705 10.4406 18.4216 10.2045 17.7301L9.32653 14.2392C9.29803 14.1228 9.23696 14.0172 9.15147 13.9329L6.69526 11.4906C6.48628 11.3234 6.2108 11.4786 6.2108 11.619V14.7849C6.2108 14.904 6.16331 15.019 6.07782 15.1032L3.09237 18.0899C2.39622 18.5433 1.62814 17.6191 2.0054 17.1349L4.65023 14.5616C4.74929 14.4653 4.80357 14.3355 4.80357 14.1991V10.2802C4.80357 10.2414 4.809 10.2039 4.8185 10.1665L5.9394 6.09241C5.9679 5.98942 5.88919 5.88777 5.78063 5.88777H4.02329C3.88216 5.88777 3.74645 5.83159 3.64739 5.73262L1.40424 3.56317C1.1464 3.24216 1.80456 2.65098 2.1316 2.869L4.23905 4.86724Z" fill="white"/>
</svg>
