<svg width="20" height="20" viewBox="0 0 20 20" fill="none" xmlns="http://www.w3.org/2000/svg">
<path fill-rule="evenodd" clip-rule="evenodd" d="M14.562 1.12806L10.8009 7.53605C10.7199 7.67397 10.544 7.72265 10.4037 7.64549L8.69651 6.71044C8.63471 6.6766 8.65404 6.58322 8.72413 6.57666L9.35607 6.51728C9.42123 6.51118 9.48398 6.48952 9.53904 6.45414C9.59409 6.41876 9.63985 6.37068 9.67247 6.31394L11.2205 3.62218C11.5327 2.95157 10.5958 2.58407 10.311 2.98833L8.83201 5.44102L6.2414 5.46864C5.71458 5.35472 5.17585 5.58792 4.88188 6.02895L2.86953 9.3801C2.7525 9.57499 2.81343 9.82752 3.00624 9.94766L5.73616 11.6486C6.2666 11.9724 7.02456 11.1596 6.37 10.7186L4.4229 9.53528C4.31519 9.46986 4.28204 9.32918 4.34885 9.22251L4.89448 8.35235C4.94851 8.26622 5.06175 8.23963 5.1484 8.2928L8.96147 10.6305C9.05089 10.6852 9.10526 10.7824 9.10526 10.8872V19.1724C9.08472 19.8109 10.5109 20.2542 10.6555 19.1724L10.7574 11.007C10.7584 10.9264 10.78 10.8473 10.8202 10.7774L15.8849 1.97543C16.227 1.18778 15.0879 0.498876 14.562 1.12806ZM3.71908 4.42482C3.64982 4.25763 3.61418 4.07843 3.61418 3.89746C3.61418 3.53199 3.75937 3.18148 4.0178 2.92304C4.27623 2.66461 4.62674 2.51943 4.99222 2.51943C5.3577 2.51943 5.70821 2.66461 5.96664 2.92304C6.22507 3.18148 6.37026 3.53199 6.37026 3.89746C6.37026 4.07843 6.33461 4.25763 6.26536 4.42482C6.19611 4.59201 6.0946 4.74392 5.96664 4.87189C5.83868 4.99985 5.68676 5.10135 5.51957 5.17061C5.35238 5.23986 5.17319 5.2755 4.99222 5.2755C4.81125 5.2755 4.63206 5.23986 4.46487 5.17061C4.29768 5.10135 4.14576 4.99985 4.0178 4.87189C3.88984 4.74392 3.78833 4.59201 3.71908 4.42482Z" fill="white"/>
</svg>
