<svg width="20" height="20" viewBox="0 0 20 20" fill="none" xmlns="http://www.w3.org/2000/svg">
<g clip-path="url(#clip0_7377_164010)">
<path d="M9.76913 1.34679C8.9992 1.44834 8.45938 2.15422 8.56093 2.92415C8.66248 3.69408 9.36836 4.2339 10.1383 4.13235C10.9067 4.03095 11.448 3.32491 11.3466 2.55655C11.2451 1.78662 10.5406 1.24508 9.76913 1.34679Z" fill="white"/>
<path fill-rule="evenodd" clip-rule="evenodd" d="M14.8678 3.20602C14.9287 2.91383 15.1863 2.70445 15.4848 2.70444C15.8841 2.70442 16.1827 3.07093 16.1021 3.46199L15.582 5.98538C15.4367 6.69065 14.7684 7.16167 14.0553 7.06146L12.2683 6.81035C12.4198 8.14045 12.6011 9.78858 12.7715 11.4852L14.7134 13.9981C14.9327 14.282 15.0517 14.6306 15.0517 14.9894L15.0517 17.4552C15.0517 17.884 14.7041 18.2316 14.2754 18.2316C13.8466 18.2316 13.499 17.884 13.499 17.4552L13.499 14.9536L10.9429 11.7585L10.591 11.7418L6.62903 18.1419C6.41554 18.4867 5.9743 18.6119 5.61152 18.4305C5.20952 18.2295 5.05836 17.7325 5.28039 17.3417L9.08391 10.6475C8.79611 7.67681 8.73414 6.70057 8.73414 6.70057C8.73245 6.68354 8.7304 6.66641 8.72802 6.64921L7.02975 7.76587C6.71535 7.9726 6.3124 7.98849 5.98271 7.80715L3.49461 6.4387C3.24581 6.30186 3.12633 6.00988 3.20782 5.73788C3.31509 5.37984 3.7191 5.20486 4.05363 5.37154L6.1645 6.42326C6.27703 6.47932 6.41083 6.4716 6.51616 6.40297L8.16868 5.32629C8.447 5.14495 8.75316 5.01046 9.07499 4.92818C9.36737 4.85343 9.66539 4.80816 9.96466 4.79241C10.337 4.70327 10.714 4.73576 11.0508 4.8654C11.116 4.87771 11.1809 4.89145 11.2456 4.90662L14.3605 5.63741L14.8678 3.20602Z" fill="white"/>
</g>
<defs>
<clipPath id="clip0_7377_164010">
<rect width="14.7503" height="18.4622" fill="white" transform="translate(1.4541 1.48828) rotate(-5.66251)"/>
</clipPath>
</defs>
</svg>
