<svg width="20" height="20" viewBox="0 0 20 20" fill="none" xmlns="http://www.w3.org/2000/svg">
<path d="M8.39765 3.05195C8.39765 3.22805 8.43158 3.40243 8.49751 3.56513C8.56344 3.72783 8.66008 3.87566 8.7819 4.00019C8.90372 4.12471 9.04835 4.22349 9.20752 4.29088C9.36668 4.35827 9.53728 4.39296 9.70956 4.39296C9.88184 4.39296 10.0524 4.35827 10.2116 4.29088C10.3708 4.22349 10.5154 4.12471 10.6372 4.00019C10.759 3.87566 10.8557 3.72783 10.9216 3.56513C10.9875 3.40243 11.0215 3.22805 11.0215 3.05195C11.0215 2.69629 10.8833 2.3552 10.6372 2.10371C10.3912 1.85222 10.0575 1.71094 9.70956 1.71094C9.36162 1.71094 9.02793 1.85222 8.7819 2.10371C8.53587 2.3552 8.39765 2.69629 8.39765 3.05195Z" fill="white"/>
<path d="M17.8247 10.1433C17.8247 10.3077 17.8886 10.4653 18.0022 10.5815C18.1159 10.6977 18.2701 10.763 18.4309 10.763C18.5917 10.763 18.7459 10.6977 18.8596 10.5815C18.9732 10.4653 19.0371 10.3077 19.0371 10.1433C19.0371 9.97898 18.9732 9.82137 18.8596 9.70516C18.7459 9.58895 18.5917 9.52366 18.4309 9.52366C18.2701 9.52366 18.1159 9.58895 18.0022 9.70516C17.8886 9.82137 17.8247 9.97898 17.8247 10.1433Z" fill="white"/>
<path d="M17.7651 3.3774C17.3343 2.63235 16.6916 2.27006 15.9165 2.36151C14.0513 2.83222 14.8398 4.8403 14.5549 6.41498L13.9188 7.51222V7.89821L14.5549 7.57309L15.1711 6.61807C16.4433 5.74455 18.431 5.01295 17.7651 3.3774ZM17.3278 4.4745C17.0594 4.98252 15.9602 5.58638 15.171 5.90696C15.1445 5.15854 15.1172 4.32526 15.171 3.71262C15.2505 3.07262 15.976 2.63571 16.8308 3.05228C17.4451 3.42276 17.5316 4.10885 17.3278 4.4745Z" fill="white"/>
<path d="M9.25062 7.06614L7.63167 9.96647C7.57341 10.0708 7.59073 10.2022 7.6739 10.2872L10.2407 12.9063C10.2933 12.9599 10.3314 13.0264 10.3514 13.0993L11.4985 17.2853C11.6029 18.4434 10.2015 18.303 10.0077 17.6816L9.1467 14.012C9.13453 13.9602 9.10848 13.913 9.07126 13.8757L6.42984 11.2201C6.20625 11.0508 5.94787 11.0982 5.93456 11.3353V14.6792C5.93456 14.7574 5.9045 14.8324 5.85082 14.888L2.64312 18.2147C1.9921 18.5144 1.35612 17.8643 1.58457 17.209L4.34037 14.3478C4.38976 14.2966 4.41753 14.2277 4.41795 14.1559L4.44572 9.39758C4.44673 9.23385 4.4901 9.07349 4.57155 8.93243L6.77295 5.12274C7.15557 4.57097 8.10476 4.23063 8.79056 4.6573L11.4632 7.37926C11.5147 7.43179 11.5844 7.4612 11.6572 7.4612H14.5153C15.0255 7.60342 14.9327 8.54484 14.5153 8.56854H11.2785C11.2 8.56854 11.1244 8.53752 11.0675 8.48192L9.57255 7.01829C9.47565 6.92333 9.31719 6.94689 9.25062 7.06614Z" fill="white"/>
</svg>
