<svg width="20" height="20" viewBox="0 0 20 20" fill="none" xmlns="http://www.w3.org/2000/svg">
<path fill-rule="evenodd" clip-rule="evenodd" d="M17.4239 6.19414C18.2943 6.19414 19.0001 5.48684 19.0001 4.61465C19.0001 3.74245 18.2943 3.03516 17.4239 3.03516C16.5535 3.03516 15.8476 3.74245 15.8476 4.61465C15.8476 5.48684 16.5535 6.19414 17.4239 6.19414ZM17.393 10.964H15.2398C15.2808 10.866 15.2997 10.7586 15.2934 10.6449C15.2587 9.85201 15.2556 9.0591 15.2587 8.26304C15.2566 8.00015 15.2629 7.73585 15.2692 7.47109C15.2724 7.33817 15.2756 7.20514 15.2777 7.07211C15.2871 6.76568 15.2997 6.45611 15.3249 6.14968V6.14021C15.3281 6.05807 15.3344 5.97278 15.3407 5.89065V5.87801C15.347 5.79904 15.3439 5.71374 15.3313 5.63477C15.3218 5.57791 15.3092 5.52105 15.2903 5.46734C15.2871 5.46419 15.2871 5.46103 15.2871 5.45787C15.2871 5.45471 15.2871 5.45471 15.284 5.45155L15.2811 5.4384L15.2811 5.43838C15.2757 5.41358 15.2699 5.3872 15.2619 5.3631C14.9624 4.35854 13.9063 3.78993 12.907 4.09003L12.0716 4.33959L13.7897 4.52281C14.0167 4.54808 14.2247 4.63022 14.3981 4.75973H14.4013C14.7449 5.01877 14.9498 5.44207 14.8994 5.90012C14.8332 6.5414 14.3004 7.02156 13.6573 7.02156C13.6131 7.02156 13.569 7.0184 13.5249 7.01524C13.4902 7.01209 13.4555 7.00577 13.4209 6.99945L13.4208 6.99945L13.383 6.98997L11.0186 6.45611L11.1983 7.92503C11.2235 7.91555 11.2519 7.90924 11.2803 7.90292L11.2882 7.90212C11.3166 7.89925 11.3428 7.8966 11.3717 7.8966C11.5483 7.8966 11.7059 7.98505 11.8005 8.12405H11.8194C11.9202 8.12405 12.0148 8.15248 12.0936 8.19986L13.5091 7.84606C13.528 8.00716 13.5406 8.16827 13.5532 8.33254C13.6194 9.12228 13.6762 9.91519 13.7046 10.7081V10.7144C13.7077 10.8029 13.7266 10.8882 13.7582 10.964H8.39891C8.4125 10.9581 8.42489 10.9499 8.43755 10.9415C8.44546 10.9362 8.45348 10.9309 8.46196 10.9261C8.72047 10.7492 8.86548 10.4617 8.87179 10.1711C8.74884 10.0984 8.66057 9.97205 8.63535 9.82042L8.56284 9.41291V9.40659L8.37684 9.13492L8.52501 9.09701C8.53762 8.88852 8.67948 8.7053 8.88124 8.63896C8.89701 8.57894 8.92223 8.52208 8.96006 8.46837C9.03887 8.35465 9.15866 8.27884 9.29422 8.25356C9.3025 8.25191 9.31077 8.25112 9.3195 8.25029L9.31951 8.25029C9.32741 8.24953 9.33568 8.24875 9.34466 8.24725L8.81819 5.31887L6.2962 6.07703C5.50807 6.31711 5.00367 7.07842 5.06987 7.8808V7.88396C5.07058 7.89505 5.07275 7.90585 5.07491 7.91662C5.07664 7.92518 5.07835 7.93373 5.07933 7.9424C5.07987 7.95421 5.07997 7.96598 5.08006 7.97775C5.08025 8.00031 5.08043 8.02287 5.08375 8.0457L5.26627 9.28655L2.45645 9.38764C2.04032 9.40343 1.69985 9.7446 1.6904 10.1679C1.68409 10.5628 1.95836 10.8945 2.33035 10.964H2.261C1.91107 10.964 1.59582 11.1061 1.36884 11.3336C1.14186 11.5642 1 11.8801 1 12.2276H2.37575C2.00848 12.745 1.78749 13.4049 1.78749 14.1236V16.3349C1.78749 16.5967 1.99903 16.8087 2.26037 16.8087C2.5214 16.8087 2.73324 16.5967 2.73324 16.3349V14.1236C2.73324 13.27 3.15694 12.5368 3.7578 12.2276H5.69848L5.81008 12.9867L5.7174 16.1558C5.70699 16.5569 6.00207 16.9123 6.40779 16.9635C6.84032 17.0178 7.23501 16.7105 7.28923 16.2774L7.69969 13.0009C7.70379 12.9658 7.70505 12.9273 7.70221 12.8913L7.69654 12.8205L7.64862 12.2276H15.8946C16.4958 12.5368 16.9195 13.27 16.9195 14.1236V16.3349C16.9195 16.5967 17.131 16.8087 17.3924 16.8087C17.6534 16.8087 17.8652 16.5967 17.8652 16.3349V14.1236C17.8652 13.4049 17.6442 12.745 17.2767 12.2276H18.654C18.654 11.5294 18.0897 10.964 17.393 10.964ZM9.76104 8.79125L9.12424 5.24371V5.23108C9.06434 4.85516 9.31023 4.50451 9.68538 4.43501C9.72636 4.4287 9.76734 4.42554 9.80833 4.42554C9.83039 4.42554 9.85561 4.42554 9.87768 4.4287L9.94388 4.43501L11.2932 4.58033L13.7553 4.84252C13.7931 4.84568 13.8278 4.852 13.8624 4.86148H13.8656C14.3227 4.96572 14.638 5.39534 14.5875 5.87235C14.5718 6.02082 14.5213 6.15982 14.4457 6.27986C14.4141 6.32724 14.3794 6.37147 14.3416 6.41253C14.1682 6.59576 13.9223 6.70948 13.6575 6.70948C13.626 6.70948 13.5913 6.70948 13.5598 6.70316C13.522 6.7 13.4873 6.69368 13.4526 6.68737L13.3801 6.67157L10.6532 6.05241L10.9495 8.49114L10.9968 8.89549L11.2427 8.85127L11.1734 8.45324C11.1734 8.451 11.173 8.44916 11.1726 8.44743C11.1719 8.44428 11.1713 8.44152 11.1734 8.43744C11.1576 8.33319 11.2333 8.23842 11.3341 8.21947C11.3467 8.21631 11.3594 8.21631 11.372 8.21631C11.4193 8.21631 11.4602 8.23211 11.4981 8.2637C11.5075 8.27001 11.517 8.27949 11.5233 8.28897C11.5359 8.3016 11.5485 8.32056 11.558 8.33951C11.5592 8.34463 11.561 8.35027 11.5629 8.35622C11.5657 8.36495 11.5687 8.37434 11.5706 8.38374L11.6209 8.68019C11.6023 8.56981 11.6748 8.46584 11.7849 8.44692C11.7976 8.44376 11.8102 8.44376 11.8196 8.44376C11.9173 8.44376 12.0025 8.51326 12.0182 8.61118L12.1254 9.20823C12.1443 9.3188 12.0718 9.42304 11.9615 9.442C11.9489 9.44515 11.9363 9.44515 11.9268 9.44515C11.83 9.44515 11.7456 9.37696 11.7287 9.28049L11.7786 9.57783C11.7976 9.6884 11.725 9.79264 11.6147 9.8116C11.6053 9.81475 11.5926 9.81475 11.58 9.81475C11.5327 9.81475 11.4886 9.79896 11.4508 9.76737C11.435 9.75158 11.4193 9.73578 11.4066 9.71367C11.394 9.69471 11.3877 9.6726 11.3814 9.64733L11.3121 9.2493L11.0094 9.303C10.9558 9.54308 10.7604 9.73262 10.505 9.76421C10.4798 9.76737 10.4577 9.76737 10.4325 9.76737C10.278 9.76737 10.1362 9.70735 10.029 9.60626C10.0101 9.59047 9.99432 9.57151 9.97856 9.55256L9.97856 9.55255C9.9628 9.5336 9.94704 9.51465 9.93443 9.49254L9.72321 9.53045L9.79256 9.92848C9.81148 10.039 9.73897 10.1433 9.62864 10.1622C9.61602 10.1654 9.60657 10.1654 9.59396 10.1654C9.49623 10.1654 9.41111 10.0959 9.39535 9.99798L9.34176 9.70103C9.36067 9.80844 9.28817 9.91584 9.17783 9.9348C9.17344 9.9348 9.16837 9.93548 9.16294 9.93621C9.15667 9.93705 9.14991 9.93795 9.14315 9.93795C9.09586 9.93795 9.04858 9.919 9.0139 9.89057C8.99814 9.87478 8.98237 9.85898 8.96976 9.83687C8.95715 9.81791 8.9477 9.7958 8.94454 9.77053L8.84051 9.17348C8.83105 9.11346 8.84682 9.0566 8.88465 9.01237V9.00922C8.91302 8.97131 8.954 8.94604 9.00444 8.93972C9.01705 8.93656 9.02651 8.93656 9.03912 8.93656C9.06434 8.93656 9.08956 8.94288 9.11478 8.95235C9.14315 8.96499 9.17152 8.98394 9.19044 9.00922C9.19989 9.01553 9.2062 9.02501 9.21251 9.03765C9.22512 9.0566 9.23142 9.07871 9.23773 9.10398L9.2062 8.93024L9.18413 8.80388C9.16522 8.69332 9.23773 8.58907 9.34806 8.57012C9.36067 8.56696 9.37328 8.56696 9.38274 8.56696C9.48047 8.56696 9.56559 8.63646 9.58135 8.73438L9.60026 8.83231L9.65386 9.13242L9.81779 9.10398L9.76104 8.79125Z" fill="#F2F2F2"/>
</svg>
