<svg width="20" height="20" viewBox="0 0 20 20" fill="none" xmlns="http://www.w3.org/2000/svg">
<circle cx="7.43902" cy="3.29449" r="1.34136" fill="white"/>
<path d="M3.29146 4.28991L5.15873 6.37685L6.01361 6.02065C7.57442 5.37031 9.24855 5.03548 10.9394 5.03548H11.0607L13.2603 3.38578C13.5253 3.18704 13.9019 3.24532 14.0945 3.51485C14.2745 3.76694 14.229 4.11536 13.9901 4.31267L11.9051 6.03508L15.9247 4.40811C16.3453 4.23787 16.8232 4.45055 16.9783 4.877C17.121 5.26952 16.9383 5.70586 16.5584 5.87951L12.5362 7.71821L17.4427 8.51693C17.9196 8.59458 18.2449 9.04217 18.1714 9.5198C18.0968 10.0046 17.6403 10.335 17.1564 10.2544L13.2069 9.59612L12.1353 10.3721C10.651 11.447 8.55829 10.951 7.71418 9.32442L7.70732 9.32785L6.9025 7.3158L5.54934 7.94728C5.16193 8.12807 4.70122 8.02251 4.43117 7.69109L2.32933 5.11156C2.11245 4.84539 2.14739 4.45484 2.40808 4.2314C2.66944 4.00738 3.06193 4.03337 3.29146 4.28991Z" fill="white"/>
<path fill-rule="evenodd" clip-rule="evenodd" d="M13.6248 14.7307C12.7147 14.7937 11.7117 14.8285 10.6581 14.8285C9.42291 14.8285 8.25733 14.7806 7.22943 14.6957L5.4186 17.8321C5.27044 18.0888 4.94229 18.1767 4.68567 18.0285C4.42904 17.8804 4.34111 17.5522 4.48928 17.2956L6.05949 14.5759C4.28722 14.3551 3.14648 14.0096 3.14648 13.6213C3.14648 12.9546 6.50956 12.4141 10.6581 12.4141C14.8067 12.4141 18.1698 12.9546 18.1698 13.6213C18.1698 14.0417 16.8326 14.4119 14.8046 14.6281L16.3447 17.2956C16.4929 17.5522 16.4049 17.8804 16.1483 18.0285C15.8917 18.1767 15.5635 18.0888 15.4154 17.8321L13.6248 14.7307Z" fill="white"/>
</svg>
