<svg width="20" height="20" viewBox="0 0 20 20" fill="none" xmlns="http://www.w3.org/2000/svg">
<path d="M6.77734 5.37793L8.85645 5.68262L11.2275 6.30371C11.5723 6.39225 13.4007 6.69812 13.4307 6.70312L15.875 6.38477C16.2158 6.34046 16.5294 6.57796 16.5791 6.91797C16.6303 7.27032 16.3793 7.59576 16.0254 7.63477L13.3604 7.92676C13.339 7.92908 13.3174 7.92907 13.2959 7.92773L11.0391 7.78711C11.0391 7.78711 10.811 7.73174 10.7705 7.92969L10.2275 10.6807L12.5986 11.2393C12.978 11.3286 13.2175 11.7032 13.1387 12.085L12.4766 15.29C12.405 15.6359 12.0685 15.86 11.7217 15.793C11.3831 15.7273 11.1552 15.4067 11.2051 15.0654L11.5752 12.5342C11.1747 12.3901 8.3012 11.8271 8.21582 11.9619L7.5918 14.875L5.60059 17.5938C5.38486 17.8883 4.97216 17.9551 4.6748 17.7432C4.37064 17.5262 4.30443 17.1016 4.52734 16.8018L6.25488 14.4766L6.82812 11.1855L7.74609 6.84375C7.75219 6.79308 6.46068 6.5952 6.31934 6.55371L4.2041 7.12207C3.91061 7.20078 3.60775 7.03094 3.52246 6.73926C3.43543 6.44145 3.60789 6.12992 3.90625 6.04492L6.09277 5.42285C6.31506 5.35964 6.54869 5.34444 6.77734 5.37793ZM15.126 3.88477C15.4068 3.88482 15.6764 3.99671 15.875 4.19531C16.0735 4.39394 16.1846 4.6635 16.1846 4.94434C16.1845 5.22519 16.0736 5.49476 15.875 5.69336C15.6764 5.89195 15.4068 6.00288 15.126 6.00293C14.8451 6.00293 14.5756 5.89188 14.377 5.69336C14.1784 5.49476 14.0665 5.22519 14.0664 4.94434C14.0664 4.66341 14.1783 4.39396 14.377 4.19531C14.5756 3.99666 14.845 3.88477 15.126 3.88477ZM10.0068 3.02246C10.1645 2.99184 10.327 2.9924 10.4844 3.02441C10.6417 3.05646 10.7917 3.1192 10.9248 3.20898C11.058 3.29888 11.1721 3.41481 11.2607 3.54883C11.3494 3.68278 11.4117 3.83257 11.4424 3.99023C11.473 4.14803 11.4715 4.31124 11.4395 4.46875C11.4074 4.62596 11.3446 4.77517 11.2549 4.9082C11.165 5.04143 11.0501 5.15643 10.916 5.24512C10.782 5.33381 10.6314 5.39514 10.4736 5.42578C10.3159 5.45639 10.1535 5.45589 9.99609 5.42383C9.83859 5.39175 9.68891 5.32819 9.55566 5.23828C9.42254 5.14841 9.30836 5.03336 9.21973 4.89941C9.13103 4.76536 9.0697 4.61482 9.03906 4.45703C9.00847 4.29931 9.00895 4.13692 9.04102 3.97949C9.07311 3.82207 9.13572 3.67224 9.22559 3.53906C9.31549 3.40587 9.43141 3.29179 9.56543 3.20312C9.69934 3.11459 9.84925 3.05309 10.0068 3.02246Z" fill="#F2F2F2"/>
</svg>
