<svg width="20" height="20" viewBox="0 0 20 20" fill="none" xmlns="http://www.w3.org/2000/svg">
<path fill-rule="evenodd" clip-rule="evenodd" d="M2.87043 5.43197C3.56785 5.43197 4.13322 4.86657 4.13322 4.16911C4.13322 3.47165 3.56785 2.90625 2.87043 2.90625C2.17301 2.90625 1.60763 3.47165 1.60763 4.16911C1.60763 4.86657 2.17301 5.43197 2.87043 5.43197ZM3.87506 5.54788L3.46698 5.81997C3.07324 6.08249 2.73916 6.42495 2.48648 6.82507L1.27815 8.73846C1.10553 9.01181 1.16445 9.37104 1.41535 9.57491L3.07893 10.9267C3.31882 11.1216 3.66724 11.1037 3.8858 10.8851C4.11261 10.6583 4.1222 10.2936 3.90763 10.0552L2.86975 8.90184L3.50114 7.95466L6.02669 13.1642L6.28473 17.1643C6.31632 17.654 6.74549 18.0213 7.2342 17.9769C7.70441 17.9341 8.05526 17.525 8.02581 17.0537L7.763 12.8484L6.97377 10.6383L9.49932 8.11252L11.5041 6.88727C11.9304 6.62674 12.0006 6.03606 11.6474 5.68278C11.4037 5.43903 11.0279 5.3864 10.7266 5.55381L8.39439 6.84961L6.97377 8.42825L5.86884 6.69175L7.13162 6.0603L8.56912 4.50284C8.8175 4.23373 8.78988 3.81147 8.50856 3.57701C8.26239 3.37184 7.90244 3.38034 7.66622 3.59689L6.18453 4.95525L4.76391 5.42884C4.46513 5.32924 4.1371 5.37317 3.87506 5.54788Z" fill="white"/>
<path fill-rule="evenodd" clip-rule="evenodd" d="M17.0723 5.11947C16.3749 5.11947 15.8096 4.55407 15.8096 3.85661C15.8096 3.15915 16.3749 2.59375 17.0723 2.59375C17.7698 2.59375 18.3351 3.15915 18.3351 3.85661C18.3351 4.55407 17.7698 5.11947 17.0723 5.11947ZM16.0693 5.23515L16.6965 5.65327C16.9458 5.81946 17.1573 6.03626 17.3173 6.28957L18.5395 8.22486C18.7844 8.61258 18.7008 9.12214 18.3449 9.41131L16.8654 10.6135C16.6255 10.8084 16.2771 10.7904 16.0586 10.5718C15.8318 10.345 15.8222 9.98034 16.0368 9.74191L17.0746 8.58876L16.4432 7.64167L13.9177 12.8506L13.7861 17.0603C13.7715 17.5292 13.3871 17.9018 12.918 17.9018C12.4283 17.9018 12.0354 17.4971 12.0498 17.0077L12.1813 12.5349L12.8127 11.1143L10.1293 10.3251H7.99842C7.51894 10.3251 7.13026 9.93639 7.13026 9.45692C7.13026 8.97744 7.51894 8.58876 7.99842 8.58876H10.2872L12.3392 9.0623L14.0755 6.37889L12.8127 5.7475L11.3753 4.19025C11.1269 3.92115 11.1545 3.49888 11.4358 3.26443C11.682 3.0593 12.0419 3.0678 12.2781 3.28431L13.7598 4.64257L15.1804 5.11611C15.4792 5.01652 15.8072 5.06045 16.0693 5.23515Z" fill="white"/>
</svg>
