<svg width="20" height="20" viewBox="0 0 20 20" fill="none" xmlns="http://www.w3.org/2000/svg">
<path d="M7.25563 3.76148C7.25563 3.95784 7.29472 4.15227 7.37067 4.33367C7.44663 4.51508 7.55795 4.67991 7.69829 4.81875C7.83863 4.9576 8.00525 5.06773 8.18861 5.14287C8.37198 5.21801 8.56851 5.25669 8.76698 5.25669C8.96545 5.25669 9.16198 5.21801 9.34535 5.14287C9.52872 5.06773 9.69533 4.9576 9.83567 4.81875C9.97601 4.67991 10.0873 4.51508 10.1633 4.33367C10.2392 4.15227 10.2783 3.95784 10.2783 3.76148C10.2783 3.56513 10.2392 3.3707 10.1633 3.18929C10.0873 3.00788 9.97601 2.84305 9.83567 2.70421C9.69533 2.56537 9.52872 2.45523 9.34535 2.38009C9.16198 2.30495 8.96545 2.26627 8.76698 2.26627C8.56851 2.26627 8.37198 2.30495 8.18861 2.38009C8.00525 2.45523 7.83863 2.56537 7.69829 2.70421C7.55795 2.84305 7.44663 3.00788 7.37067 3.18929C7.29472 3.3707 7.25563 3.56513 7.25563 3.76148Z" fill="white"/>
<path d="M7.16345 5.70129H16.7391C17.0883 5.70129 17.3728 5.98115 17.3728 6.32816C17.3728 6.67358 17.0899 6.95503 16.7391 6.95503H10.9216C10.7729 6.95503 10.6533 7.07337 10.6533 7.22049V11.7861C10.6533 11.9108 10.7196 12.0243 10.8279 12.0867L16.6262 15.4272C17.8544 16.1347 18.771 18.5824 17.536 17.8868L9.94208 13.5259C9.84509 13.47 9.73679 13.4412 9.62526 13.4412L4.05507 13.422C3.91929 13.422 3.80938 13.5307 3.80938 13.6635V17.0585C3.80938 17.5158 3.43437 17.8868 2.97207 17.8868C2.50978 17.8868 2.13477 17.5158 2.13477 17.0585V12.5665C2.13477 12.1395 2.48391 11.7941 2.9155 11.7941H6.54759C6.7157 11.7941 6.85148 11.6597 6.85148 11.4934V7.12934C6.85148 6.99501 6.78036 6.87187 6.66398 6.80311L3.57823 5.00886C3.27757 4.83455 3.17897 4.45076 3.3584 4.15491L4.36372 2.49305C4.87609 1.64608 6.46796 0.982337 6.0562 1.88252L4.83742 4.00139C4.76468 4.12773 4.80509 4.28924 4.92956 4.3676L6.92907 5.63413C7.00019 5.67731 7.08101 5.70129 7.16345 5.70129Z" fill="white"/>
</svg>
