<svg width="20" height="20" viewBox="0 0 20 20" fill="none" xmlns="http://www.w3.org/2000/svg">
<path fill-rule="evenodd" clip-rule="evenodd" d="M17.0024 7.16265C17.7843 7.16265 18.4185 6.52855 18.4185 5.74661C18.4185 4.96467 17.7843 4.33057 17.0024 4.33057C16.2205 4.33057 15.5864 4.96467 15.5864 5.74661C15.5864 6.52855 16.2205 7.16265 17.0024 7.16265ZM18.6376 14.7004H1.36182C1.12733 14.7004 0.937012 14.8908 0.937012 15.1253C0.937012 15.3597 1.12733 15.5501 1.36182 15.5501H18.6376C18.8721 15.5501 19.0624 15.3597 19.0624 15.1253C19.0624 14.8908 18.8721 14.7004 18.6376 14.7004ZM10.6273 11.6969C10.6273 12.6341 11.3894 13.3962 12.3265 13.3962C13.2636 13.3962 14.0258 12.6341 14.0258 11.6969C14.0258 10.7598 13.2636 9.99768 12.3265 9.99768C11.3894 9.99768 10.6273 10.7598 10.6273 11.6969ZM7.05558 13.7435L1.92525 13.6073C1.53131 13.5968 1.22006 13.2689 1.23054 12.8749C1.24074 12.494 1.54915 12.191 1.92525 12.1802L6.18273 12.0672L6.07681 8.29574C6.07313 8.1649 6.09635 8.04029 6.13912 7.92474C6.23654 7.44243 6.59565 7.03971 7.08589 6.90292L13.2918 5.16033C14.1967 4.9063 15.1364 5.43391 15.3907 6.33877C15.4074 6.39881 15.4204 6.45913 15.4304 6.51945L15.4312 6.52144C15.4428 6.56845 15.4513 6.62084 15.4556 6.66786C15.5 7.18953 15.5547 7.7095 15.6139 8.22862C15.6357 8.39953 15.6567 8.5706 15.6777 8.74169C15.7204 9.0891 15.7631 9.43655 15.813 9.78287C15.9534 10.8174 16.1018 11.8511 16.2757 12.8803C16.3414 13.2692 16.0795 13.6379 15.6903 13.7036C15.3012 13.7693 14.9328 13.5073 14.867 13.1182L14.8665 13.1148C14.7778 12.5756 14.6821 12.0375 14.5821 11.5C14.5878 11.5645 14.5921 11.6297 14.5921 11.6957C14.5921 12.9449 13.5756 13.9613 12.3264 13.9613C11.0771 13.9613 10.0607 12.9449 10.0607 11.6957C10.0607 10.4464 11.0771 9.42999 12.3264 9.42999C13.3442 9.42999 14.2069 10.1046 14.4921 11.0301C14.475 10.9408 14.458 10.8515 14.441 10.7622C14.3949 10.5195 14.3487 10.2768 14.3009 10.0344C14.2363 9.69202 14.1643 9.35082 14.0923 9.00966C14.0565 8.83969 14.0206 8.66973 13.9857 8.49965C13.9849 8.49512 13.9834 8.4903 13.9826 8.48577L8.02104 9.4484L7.90521 12.8962L7.90351 12.9449C7.88822 13.3992 7.509 13.7554 7.05558 13.7435Z" fill="#F2F2F2"/>
</svg>
