<svg width="20" height="20" viewBox="0 0 20 20" fill="none" xmlns="http://www.w3.org/2000/svg">
<path fill-rule="evenodd" clip-rule="evenodd" d="M8.7761 6.40845C8.45152 6.08387 8.26917 5.64364 8.26917 5.18462C8.26917 4.72559 8.45152 4.28536 8.7761 3.96078C9.10068 3.63619 9.54091 3.45385 9.99994 3.45385C10.459 3.45385 10.8992 3.63619 11.2238 3.96078C11.5484 4.28536 11.7307 4.72559 11.7307 5.18462C11.7307 5.64364 11.5484 6.08387 11.2238 6.40845C10.8992 6.73304 10.459 6.91538 9.99994 6.91538C9.54091 6.91538 9.10068 6.73304 8.7761 6.40845ZM13.9159 10.9556L14.9179 11.8081C15.2454 12.0875 15.2845 12.5787 15.0087 12.9044C14.7293 13.2319 14.238 13.2711 13.9106 12.9934L12.6612 11.9309L12.5828 11.8312L12.1984 11.0463V12.8635C12.1984 12.956 12.234 13.045 12.2999 13.1109L13.7397 14.5543C14.3466 15.163 13.9159 16.2006 13.0563 16.2006H9.64799C9.16923 16.1596 8.78836 15.7681 8.78836 15.2804C8.78836 14.7661 9.20839 14.346 9.72274 14.346H11.0967C11.2178 14.346 11.3156 14.2482 11.3156 14.1271C11.3156 14.0061 11.2178 13.9082 11.0967 13.9082H9.7708C9.16389 13.9082 8.59081 14.2802 8.41461 14.8622C8.25799 15.3801 8.40571 15.8624 8.71183 16.1988H6.94451C6.08488 16.1988 5.65417 15.1612 6.26108 14.5525L7.70092 13.1091C7.76499 13.0433 7.80236 12.9543 7.80236 12.8617V11.0481L7.41793 11.833L7.33962 11.9327L6.09022 12.9952C5.76274 13.2728 5.27152 13.2337 4.9921 12.9062C4.71445 12.5787 4.75361 12.0875 5.08108 11.8081L6.0831 10.9556C6.09644 10.9387 6.10934 10.9222 6.12224 10.9058C6.13515 10.8893 6.14805 10.8728 6.16141 10.8559L7.70626 7.7057C7.76677 7.58645 7.88779 7.50992 8.02128 7.50992H11.9777C12.113 7.50992 12.234 7.58645 12.2927 7.7057L13.8376 10.8559L13.9159 10.9556Z" fill="white"/>
</svg>
