<svg width="20" height="20" viewBox="0 0 20 20" fill="none" xmlns="http://www.w3.org/2000/svg">
<path d="M8.07236 4.32145C7.92711 4.58038 7.90424 4.8904 8.00992 5.16783L9.10467 8.04186L8.34972 10.6247L4.80952 16.845C4.59016 17.2304 4.6967 17.7192 5.05655 17.9784C5.4667 18.2738 6.04153 18.1575 6.30465 17.726L9.86942 11.8789L12.7822 14.7635L11.5984 17.1081C11.4079 17.4854 11.5355 17.9456 11.8931 18.1709C12.302 18.4286 12.8439 18.2784 13.0617 17.8469L14.2733 15.4471C14.5923 14.8153 14.4677 14.0498 13.9648 13.5518L11.769 11.3772L12.2756 9.49592L13.2129 12.3838C13.3255 12.7308 13.6943 12.9247 14.0441 12.8208C14.3974 12.7159 14.6004 12.3461 14.4992 11.9916L13.3585 7.99402C13.157 7.28815 12.6119 6.73228 11.9101 6.51711L10.0922 5.95974L9.43008 4.72952C9.38819 4.65169 9.38881 4.55789 9.43172 4.48061L10.4892 2.57653C10.6418 2.30164 10.5673 1.95618 10.3149 1.76869C10.0114 1.5433 9.57904 1.63563 9.39411 1.96529L8.07236 4.32145Z" fill="white"/>
<path d="M11.769 6.10964C12.4685 6.10964 13.0355 5.54812 13.0355 4.85546C13.0355 4.16279 12.4685 3.60127 11.769 3.60127C11.0696 3.60127 10.5026 4.16279 10.5026 4.85546C10.5026 5.54812 11.0696 6.10964 11.769 6.10964Z" fill="white"/>
</svg>
