<svg width="16" height="20" viewBox="0 0 16 20" fill="none" xmlns="http://www.w3.org/2000/svg">
<path d="M11.4688 5.34766C11.6406 5.34766 11.9336 5.375 12.3477 5.42969C12.7617 5.48438 13.2148 5.64062 13.707 5.89844C14.207 6.14844 14.6602 6.56641 15.0664 7.15234C15.043 7.17578 14.9297 7.26172 14.7266 7.41016C14.5234 7.55078 14.2969 7.76172 14.0469 8.04297C13.7969 8.31641 13.5781 8.66797 13.3906 9.09766C13.2031 9.51953 13.1094 10.0234 13.1094 10.6094C13.1094 11.2812 13.2266 11.8516 13.4609 12.3203C13.7031 12.7891 13.9805 13.168 14.293 13.457C14.6133 13.7383 14.8945 13.9453 15.1367 14.0781C15.3867 14.2109 15.5195 14.2812 15.5352 14.2891C15.5273 14.3203 15.4258 14.5977 15.2305 15.1211C15.043 15.6445 14.7305 16.2266 14.293 16.8672C13.9102 17.4219 13.4961 17.9336 13.0508 18.4023C12.6133 18.8711 12.0859 19.1055 11.4688 19.1055C11.0547 19.1055 10.7148 19.0469 10.4492 18.9297C10.1836 18.8047 9.91016 18.6836 9.62891 18.5664C9.34766 18.4414 8.96875 18.3789 8.49219 18.3789C8.03125 18.3789 7.64453 18.4414 7.33203 18.5664C7.02734 18.6914 6.73438 18.8164 6.45312 18.9414C6.17969 19.0664 5.85547 19.1289 5.48047 19.1289C4.91016 19.1289 4.41016 18.9023 3.98047 18.4492C3.55078 17.9961 3.10938 17.4531 2.65625 16.8203C2.13281 16.0703 1.68359 15.1562 1.30859 14.0781C0.941406 12.9922 0.757812 11.8984 0.757812 10.7969C0.757812 9.61719 0.980469 8.62891 1.42578 7.83203C1.87109 7.02734 2.44141 6.42188 3.13672 6.01562C3.83984 5.60156 4.56641 5.39453 5.31641 5.39453C5.71484 5.39453 6.08984 5.46094 6.44141 5.59375C6.79297 5.71875 7.12109 5.84766 7.42578 5.98047C7.73828 6.11328 8.01953 6.17969 8.26953 6.17969C8.51172 6.17969 8.79297 6.10938 9.11328 5.96875C9.43359 5.82812 9.79297 5.69141 10.1914 5.55859C10.5898 5.41797 11.0156 5.34766 11.4688 5.34766ZM10.8242 3.85938C10.5195 4.22656 10.1367 4.53516 9.67578 4.78516C9.21484 5.02734 8.77734 5.14844 8.36328 5.14844C8.27734 5.14844 8.19531 5.14062 8.11719 5.125C8.10938 5.10156 8.10156 5.05859 8.09375 4.99609C8.08594 4.93359 8.08203 4.86719 8.08203 4.79688C8.08203 4.32812 8.18359 3.875 8.38672 3.4375C8.58984 2.99219 8.82031 2.625 9.07812 2.33594C9.40625 1.94531 9.82031 1.62109 10.3203 1.36328C10.8203 1.10547 11.2969 0.96875 11.75 0.953125C11.7734 1.05469 11.7852 1.17578 11.7852 1.31641C11.7852 1.78516 11.6953 2.24219 11.5156 2.6875C11.3359 3.125 11.1055 3.51563 10.8242 3.85938Z" fill="black"/>
</svg>
