<svg width="24" height="24" viewBox="0 0 24 24" fill="none" xmlns="http://www.w3.org/2000/svg">
<g clip-path="url(#clip0_1299_16441)">
<path fill-rule="evenodd" clip-rule="evenodd" d="M11.9999 5.25333C14.0654 5.25333 15.4588 6.14556 16.2532 6.89111L19.3577 3.86C17.451 2.08778 14.9699 1 11.9999 1C7.69766 1 3.98211 3.46889 2.17322 7.06222L5.72988 9.82444C6.62211 7.17222 9.091 5.25333 11.9999 5.25333Z" fill="#EA4335"/>
<path fill-rule="evenodd" clip-rule="evenodd" d="M22.56 12.2444C22.56 11.34 22.4867 10.68 22.3278 9.99556H12V14.0778H18.0622C17.94 15.0922 17.28 16.62 15.8133 17.6467L19.2844 20.3356C21.3622 18.4167 22.56 15.5933 22.56 12.2444Z" fill="#4285F4"/>
<path fill-rule="evenodd" clip-rule="evenodd" d="M5.74222 14.1755C5.51 13.4911 5.37556 12.7577 5.37556 12C5.37556 11.2422 5.51 10.5088 5.73 9.8244L2.17333 7.06218C1.42778 8.55329 1 10.2277 1 12C1 13.7722 1.42778 15.4466 2.17333 16.9377L5.74222 14.1755Z" fill="#FBBC05"/>
<path fill-rule="evenodd" clip-rule="evenodd" d="M12.0001 23C14.9701 23 17.4634 22.0222 19.2846 20.3356L15.8134 17.6467C14.8846 18.2945 13.6379 18.7467 12.0001 18.7467C9.09122 18.7467 6.62234 16.8278 5.74234 14.1756L2.18567 16.9378C3.99456 20.5311 7.69789 23 12.0001 23Z" fill="#34A853"/>
</g>
<defs>
<clipPath id="clip0_1299_16441">
<rect width="22" height="22" fill="white" transform="translate(1 1)"/>
</clipPath>
</defs>
</svg>
