<svg width="24" height="24" viewBox="0 0 24 24" fill="none" xmlns="http://www.w3.org/2000/svg">
<path d="M11.627 9.40649C10.6603 9.40649 9.83529 9.06483 9.15195 8.38149C8.46862 7.69816 8.12695 6.87316 8.12695 5.90649C8.12695 4.93983 8.46862 4.11483 9.15195 3.43149C9.83529 2.74816 10.6603 2.40649 11.627 2.40649C12.5936 2.40649 13.4186 2.74816 14.102 3.43149C14.7853 4.11483 15.127 4.93983 15.127 5.90649C15.127 6.87316 14.7853 7.69816 14.102 8.38149C13.4186 9.06483 12.5936 9.40649 11.627 9.40649ZM11.627 7.40649C12.0436 7.40649 12.3978 7.26066 12.6895 6.96899C12.9811 6.67733 13.127 6.32316 13.127 5.90649C13.127 5.48983 12.9811 5.13566 12.6895 4.84399C12.3978 4.55233 12.0436 4.40649 11.627 4.40649C11.2103 4.40649 10.8561 4.55233 10.5645 4.84399C10.2728 5.13566 10.127 5.48983 10.127 5.90649C10.127 6.32316 10.2728 6.67733 10.5645 6.96899C10.8561 7.26066 11.2103 7.40649 11.627 7.40649ZM11.627 22.4065L5.62695 16.4065C5.29362 16.0732 5.04362 15.6982 4.87695 15.2815C4.71029 14.8648 4.62695 14.4065 4.62695 13.9065C4.62695 12.9232 4.96445 12.094 5.63945 11.419C6.31445 10.744 7.14362 10.4065 8.12695 10.4065C8.61029 10.4065 9.05612 10.4982 9.46445 10.6815C9.87279 10.8648 10.2436 11.1232 10.577 11.4565L11.627 12.5065L12.677 11.4565C13.0103 11.1232 13.3811 10.8648 13.7895 10.6815C14.1978 10.4982 14.6436 10.4065 15.127 10.4065C16.1103 10.4065 16.9395 10.744 17.6145 11.419C18.2895 12.094 18.627 12.9232 18.627 13.9065C18.627 14.4065 18.5436 14.8648 18.377 15.2815C18.2103 15.6982 17.9603 16.0732 17.627 16.4065L11.627 22.4065ZM11.627 19.5565L16.177 15.0065C16.327 14.8565 16.4395 14.6857 16.5145 14.494C16.5895 14.3023 16.627 14.1065 16.627 13.9065C16.627 13.5065 16.4853 13.1565 16.202 12.8565C15.9186 12.5565 15.5603 12.4065 15.127 12.4065C14.927 12.4065 14.7478 12.4357 14.5895 12.494C14.4311 12.5523 14.277 12.6565 14.127 12.8065L11.627 15.3065L9.12695 12.8065C9.02695 12.7065 8.89779 12.6148 8.73945 12.5315C8.58112 12.4482 8.37695 12.4065 8.12695 12.4065C7.69362 12.4065 7.33529 12.5565 7.05195 12.8565C6.76862 13.1565 6.62695 13.5065 6.62695 13.9065C6.62695 14.1065 6.66862 14.294 6.75195 14.469C6.83529 14.644 6.94362 14.8065 7.07695 14.9565L11.627 19.5565Z" fill="#1C1C1C"/>
</svg>
