<svg width="24" height="24" viewBox="0 0 24 24" fill="none" xmlns="http://www.w3.org/2000/svg">
<path fill-rule="evenodd" clip-rule="evenodd" d="M13.8932 8C13.8932 9.10457 12.9978 10 11.8932 10C10.7886 10 9.89321 9.10457 9.89321 8C9.89321 6.89543 10.7886 6 11.8932 6C12.9978 6 13.8932 6.89543 13.8932 8ZM15.8932 8C15.8932 10.2091 14.1023 12 11.8932 12C9.68407 12 7.89321 10.2091 7.89321 8C7.89321 5.79086 9.68407 4 11.8932 4C14.1023 4 15.8932 5.79086 15.8932 8ZM8.40444 15H11.8932H15.382C16.4566 15 17.4083 15.6937 17.7371 16.7168C17.941 17.351 17.4679 18 16.8017 18H6.98471C6.31851 18 5.84544 17.351 6.0493 16.7168C6.37814 15.6937 7.32984 15 8.40444 15ZM4.14524 16.1048C4.73994 14.2546 6.46105 13 8.40444 13H11.8932H15.382C17.3254 13 19.0465 14.2546 19.6412 16.1048C20.26 18.03 18.824 20 16.8017 20H6.98471C4.96242 20 3.52641 18.03 4.14524 16.1048Z" fill="#1C1C1C"/>
</svg>
