<svg width="318" height="318" viewBox="0 0 318 318" fill="none" xmlns="http://www.w3.org/2000/svg">
<rect x="127.5" y="127.5" width="95" height="95" rx="15.5" stroke="#323232"/>
<rect x="143.5" y="143.5" width="95" height="95" rx="15.5" stroke="#323232"/>
<rect x="111.5" y="111.5" width="95" height="95" rx="15.5" stroke="#323232"/>
<rect x="94.5" y="95.5" width="95" height="95" rx="15.5" stroke="#323232"/>
<rect x="78.5" y="79.5" width="95" height="95" rx="15.5" stroke="#323232"/>
<rect x="63.5" y="63.5" width="95" height="95" rx="15.5" fill="#1C1C1C"/>
<rect x="63.5" y="63.5" width="95" height="95" rx="15.5" stroke="#484848"/>
<path fill-rule="evenodd" clip-rule="evenodd" d="M100.482 100.124C94.5742 106.032 94.5742 115.61 100.482 121.518C106.39 127.426 115.968 127.426 121.876 121.518C124.066 119.328 125.44 116.642 126.008 113.823C126.337 112.185 127.933 111.124 129.571 111.454C131.209 111.784 132.27 113.379 131.94 115.017C131.145 118.968 129.213 122.738 126.155 125.797C117.884 134.068 104.474 134.068 96.2031 125.797C87.9323 117.526 87.9323 104.116 96.2031 95.8454C99.262 92.7866 103.032 90.8554 106.983 90.0601C108.621 89.7304 110.216 90.791 110.546 92.4291C110.876 94.0672 109.815 95.6625 108.177 95.9922C105.358 96.5595 102.672 97.9341 100.482 100.124Z" fill="white"/>
<path d="M113.818 96.3452C112.558 95.0849 112.558 93.0415 113.818 91.7812C115.079 90.5209 117.122 90.5209 118.382 91.7812L130.22 103.619C131.481 104.879 131.481 106.923 130.22 108.183C128.96 109.443 126.917 109.443 125.656 108.183L113.818 96.3452Z" fill="#FB471F"/>
<path d="M159.5 175C159.5 166.44 166.44 159.5 175 159.5H239C247.56 159.5 254.5 166.44 254.5 175V239C254.5 247.56 247.56 254.5 239 254.5H175C166.44 254.5 159.5 247.56 159.5 239V175Z" fill="#1C1C1C"/>
<path d="M159.5 175C159.5 166.44 166.44 159.5 175 159.5H239C247.56 159.5 254.5 166.44 254.5 175V239C254.5 247.56 247.56 254.5 239 254.5H175C166.44 254.5 159.5 247.56 159.5 239V175Z" stroke="#484848"/>
<rect opacity="0.2" x="240.941" y="193.211" width="67.5" height="28.5" rx="14.25" transform="rotate(135 240.941 193.211)" fill="white"/>
<rect x="193.028" y="172.875" width="67.5" height="28.5" rx="14.25" transform="rotate(45 193.028 172.875)" fill="white"/>
<circle cx="220.789" cy="220.789" r="10.5" transform="rotate(45 220.789 220.789)" fill="#D71921"/>
</svg>
