<svg width="48" height="48" viewBox="0 0 48 48" fill="none" xmlns="http://www.w3.org/2000/svg">
<path d="M0 24C0 10.7452 10.7452 0 24 0C37.2548 0 48 10.7452 48 24C48 37.2548 37.2548 48 24 48C10.7452 48 0 37.2548 0 24Z" fill="white"/>
<rect x="21" y="22" width="2" height="6" rx="1" fill="#1C1C1C"/>
<rect x="25" y="22" width="2" height="6" rx="1" fill="#1C1C1C"/>
<rect x="21" y="14" width="6" height="4" rx="1" fill="#1C1C1C"/>
<rect x="14" y="16" width="20" height="2" rx="1" fill="#1C1C1C"/>
<path d="M17 18V30C17 31.6569 18.3431 33 20 33H28C29.6569 33 31 31.6569 31 30V18" stroke="#1C1C1C" stroke-width="2"/>
</svg>
