<svg width="48" height="48" viewBox="0 0 48 48" fill="none" xmlns="http://www.w3.org/2000/svg">
<path d="M0 24C0 10.7452 10.7452 0 24 0C37.2548 0 48 10.7452 48 24C48 37.2548 37.2548 48 24 48C10.7452 48 0 37.2548 0 24Z" fill="#1C1C1C"/>
<g clip-path="url(#clip0_32394_85066)">
<mask id="mask0_32394_85066" style="mask-type:alpha" maskUnits="userSpaceOnUse" x="12" y="12" width="24" height="24">
<rect x="12" y="12" width="24" height="24" fill="#D9D9D9"/>
</mask>
<g mask="url(#mask0_32394_85066)">
<rect x="14.8076" y="31.7781" width="24" height="2" rx="1" transform="rotate(-45 14.8076 31.7781)" fill="#F2F2F2"/>
<path d="M18.3431 24L16.9289 22.5858C15.3668 21.0237 15.3668 18.491 16.9289 16.9289V16.9289C18.491 15.3668 21.0237 15.3668 22.5858 16.9289L24 18.3431" stroke="#F2F2F2" stroke-width="2" stroke-linecap="round"/>
<path d="M29.6569 24L31.0711 25.4142C32.6332 26.9763 32.6332 29.509 31.0711 31.0711V31.0711C29.509 32.6332 26.9763 32.6332 25.4142 31.0711L24 29.6569" stroke="#F2F2F2" stroke-width="2" stroke-linecap="round"/>
</g>
</g>
<defs>
<clipPath id="clip0_32394_85066">
<rect width="24" height="24" fill="white" transform="translate(12 12)"/>
</clipPath>
</defs>
</svg>
