<svg width="48" height="48" viewBox="0 0 48 48" fill="none" xmlns="http://www.w3.org/2000/svg">
<path d="M0 24C0 10.7452 10.7452 0 24 0C37.2548 0 48 10.7452 48 24C48 37.2548 37.2548 48 24 48C10.7452 48 0 37.2548 0 24Z" fill="white"/>
<path fill-rule="evenodd" clip-rule="evenodd" d="M27 15H17C15.8954 15 15 15.8954 15 17V27C15 28.1046 15.8954 29 17 29L17 21C17 18.7909 18.7909 17 21 17H29C29 15.8954 28.1046 15 27 15ZM21 33C19.8954 33 19 32.1046 19 31H27C29.2091 31 31 29.2091 31 27V19C32.1046 19 33 19.8954 33 21V31C33 32.1046 32.1046 33 31 33H21ZM27 29C28.1046 29 29 28.1046 29 27V19H21C19.8954 19 19 19.8954 19 21V29H27ZM27 13C29.2091 13 31 14.7909 31 17C33.2091 17 35 18.7909 35 21V31C35 33.2091 33.2091 35 31 35H21C18.7909 35 17 33.2091 17 31C14.7909 31 13 29.2091 13 27V17C13 14.7909 14.7909 13 17 13H27ZM22 21C21.4477 21 21 21.4477 21 22C21 22.5523 21.4477 23 22 23C22.5523 23 23 22.5523 23 22C23 21.4477 22.5523 21 22 21ZM25 22C25 21.4477 25.4477 21 26 21C26.5523 21 27 21.4477 27 22C27 22.5523 26.5523 23 26 23C25.4477 23 25 22.5523 25 22ZM24 23C23.4477 23 23 23.4477 23 24C23 24.5523 23.4477 25 24 25C24.5523 25 25 24.5523 25 24C25 23.4477 24.5523 23 24 23ZM25 26C25 25.4477 25.4477 25 26 25C26.5523 25 27 25.4477 27 26C27 26.5523 26.5523 27 26 27C25.4477 27 25 26.5523 25 26ZM22 25C21.4477 25 21 25.4477 21 26C21 26.5523 21.4477 27 22 27C22.5523 27 23 26.5523 23 26C23 25.4477 22.5523 25 22 25Z" fill="#1C1C1C"/>
</svg>
