<svg width="24" height="24" viewBox="0 0 24 24" fill="none" xmlns="http://www.w3.org/2000/svg">
<g id="data migration">
<path id="Union" fill-rule="evenodd" clip-rule="evenodd" d="M15 3H5C3.89543 3 3 3.89543 3 5V15C3 16.1046 3.89543 17 5 17L5 9C5 6.79086 6.79086 5 9 5H17C17 3.89543 16.1046 3 15 3ZM9 21C7.89543 21 7 20.1046 7 19H15C17.2091 19 19 17.2091 19 15V7C20.1046 7 21 7.89543 21 9V19C21 20.1046 20.1046 21 19 21H9ZM15 17C16.1046 17 17 16.1046 17 15V7H9C7.89543 7 7 7.89543 7 9V17H15ZM15 1C17.2091 1 19 2.79086 19 5C21.2091 5 23 6.79086 23 9V19C23 21.2091 21.2091 23 19 23H9C6.79086 23 5 21.2091 5 19C2.79086 19 1 17.2091 1 15V5C1 2.79086 2.79086 1 5 1H15ZM10 9C9.44771 9 9 9.44771 9 10C9 10.5523 9.44771 11 10 11C10.5523 11 11 10.5523 11 10C11 9.44771 10.5523 9 10 9ZM13 10C13 9.44771 13.4477 9 14 9C14.5523 9 15 9.44771 15 10C15 10.5523 14.5523 11 14 11C13.4477 11 13 10.5523 13 10ZM12 11C11.4477 11 11 11.4477 11 12C11 12.5523 11.4477 13 12 13C12.5523 13 13 12.5523 13 12C13 11.4477 12.5523 11 12 11ZM13 14C13 13.4477 13.4477 13 14 13C14.5523 13 15 13.4477 15 14C15 14.5523 14.5523 15 14 15C13.4477 15 13 14.5523 13 14ZM10 13C9.44771 13 9 13.4477 9 14C9 14.5523 9.44771 15 10 15C10.5523 15 11 14.5523 11 14C11 13.4477 10.5523 13 10 13Z" fill="#1C1C1C"/>
</g>
</svg>
