<svg width="22" height="16" viewBox="0 0 22 16" fill="none" xmlns="http://www.w3.org/2000/svg">
<path d="M12.0264 0C15.0563 8.51995e-05 17.5589 2.25594 17.9473 5.17969C20.3035 5.865 22 8.07121 22 10.5459C21.9998 13.6015 19.4181 16 16.333 16H16C15.4477 16 15 15.5523 15 15C15 14.4477 15.4477 14 16 14H16.333C18.4022 14 19.9997 12.4103 20 10.5459C20 8.80178 18.6539 7.23703 16.8896 6.99414C16.3875 6.925 16 6.49585 16 5.97363C15.9999 3.7791 14.2209 2.00009 12.0264 2H11C8.76642 2 6.90567 3.3785 6.25293 5.2373C6.13154 5.58276 5.8354 5.83074 5.48438 5.89648C3.46494 6.27485 2 7.95711 2 9.90918C2.00005 12.0231 3.72512 13.8266 6 13.9883V14C6.55228 14 7 14.4477 7 15C7 15.5523 6.55228 16 6 16C5.92762 16 5.85708 15.9921 5.78906 15.9775C2.58277 15.713 4.73234e-05 13.1355 0 9.90918C0 7.10371 1.95772 4.78414 4.57324 4.05664C5.65544 1.65251 8.14127 0 11 0H12.0264ZM8.5 10C9.05229 10 9.5 10.4477 9.5 11C9.5 11.5523 9.05229 12 8.5 12C7.94772 12 7.5 11.5523 7.5 11C7.5 10.4477 7.94772 10 8.5 10ZM12.5 10C13.0523 10 13.5 10.4477 13.5 11C13.5 11.5523 13.0523 12 12.5 12C11.9477 12 11.5 11.5523 11.5 11C11.5 10.4477 11.9477 10 12.5 10ZM6.5 7C7.05228 7 7.5 7.44772 7.5 8C7.5 8.55229 7.05228 9 6.5 9C5.94772 9 5.5 8.55229 5.5 8C5.5 7.44772 5.94772 7 6.5 7ZM10.5 7C11.0523 7 11.5 7.44772 11.5 8C11.5 8.55229 11.0523 9 10.5 9C9.94771 9 9.5 8.55229 9.5 8C9.5 7.44772 9.94771 7 10.5 7ZM14.5 7C15.0523 7 15.5 7.44772 15.5 8C15.5 8.55229 15.0523 9 14.5 9C13.9477 9 13.5 8.55229 13.5 8C13.5 7.44772 13.9477 7 14.5 7Z" fill="#1C1C1C"/>
</svg>
