<svg width="24" height="24" viewBox="0 0 24 24" fill="none" xmlns="http://www.w3.org/2000/svg">
<rect x="3" y="3" width="18" height="18" rx="3.75" fill="black"/>
<path d="M10.5803 4.5C11.1091 4.5 11.3735 4.5 11.4904 4.53957C11.7999 4.64428 11.8557 4.70015 11.9604 5.0096C12 5.12655 12 5.5427 12 6.375C12 8.23896 13.511 9.75 15.375 9.75H18.3C18.72 9.75 18.9301 9.75 19.0905 9.83175C19.2316 9.90365 19.3463 10.0184 19.4183 10.1595C19.5 10.3199 19.5 10.53 19.5 10.95V15.9004C19.5 17.1602 19.5001 17.7902 19.2549 18.2715C19.0392 18.6948 18.6948 19.0392 18.2715 19.2549C17.7902 19.5001 17.1602 19.5 15.9004 19.5H10.95C10.53 19.5 10.3199 19.5 10.1595 19.4183C10.0184 19.3463 9.90365 19.2316 9.83175 19.0905C9.75 18.9301 9.75 18.72 9.75 18.3V13.9971C9.75 13.8136 9.75 13.7219 9.72928 13.6356C9.7109 13.559 9.6806 13.4859 9.63948 13.4188C9.5931 13.3431 9.52824 13.2782 9.39853 13.1485L4.60634 8.35634C4.53825 8.28825 4.5 8.1959 4.5 8.09961C4.5 6.83979 4.49993 6.20976 4.74512 5.72852C4.96083 5.30515 5.30515 4.96083 5.72852 4.74512C6.20976 4.49993 6.83979 4.5 8.09961 4.5H10.5803Z" fill="#E3E3E3"/>
<circle cx="15" cy="15" r="3" fill="black"/>
</svg>
