<svg width="24" height="24" viewBox="0 0 24 24" fill="none" xmlns="http://www.w3.org/2000/svg">
<path d="M15 2C16.8458 2 18.496 2.83433 19.5967 4.14551C21.2865 4.61328 22.5273 6.16131 22.5273 8C22.5273 9.8386 21.2864 11.3857 19.5967 11.8535C18.496 13.165 16.8461 14 15 14H14.2803L15.3486 18.2725C15.822 20.1659 14.3902 22 12.4385 22H12.3857C11.1354 21.9999 10.0163 21.2244 9.57715 20.0537L7.20312 13.7256C4.76735 12.9619 3 10.6877 3 8C3 4.78979 5.52111 2.16843 8.69141 2.00781L9 2H15ZM11.4492 19.3516C11.5956 19.7417 11.9691 19.9999 12.3857 20H12.4385C13.089 20 13.5658 19.3889 13.4082 18.7578L12.2197 14H9.44336L11.4492 19.3516ZM9 4C6.79086 4 5 5.79086 5 8C5 10.2091 6.79086 12 9 12H15C17.2091 12 19 10.2091 19 8C19 5.79086 17.2091 4 15 4H9ZM9 9C9.55228 9 10 9.44772 10 10C10 10.5523 9.55228 11 9 11C8.44772 11 8 10.5523 8 10C8 9.44772 8.44772 9 9 9ZM15 6C16.1046 6 17 6.89543 17 8C17 9.10457 16.1046 10 15 10C13.8954 10 13 9.10457 13 8C13 6.89543 13.8954 6 15 6ZM7 7C7.55228 7 8 7.44772 8 8C8 8.55228 7.55228 9 7 9C6.44772 9 6 8.55228 6 8C6 7.44772 6.44772 7 7 7ZM9 5C9.55228 5 10 5.44772 10 6C10 6.55228 9.55228 7 9 7C8.44772 7 8 6.55228 8 6C8 5.44772 8.44772 5 9 5Z" fill="#1C1C1C"/>
</svg>
