<svg width="24" height="24" viewBox="0 0 24 24" fill="none" xmlns="http://www.w3.org/2000/svg">
<path d="M9 2C7.15416 2 5.50395 2.83433 4.40332 4.14551C2.71351 4.61328 1.47266 6.16131 1.47266 8C1.47266 9.8386 2.71364 11.3857 4.40332 11.8535C5.50395 13.165 7.15389 14 9 14H9.71973L8.65137 18.2725C8.17801 20.1659 9.60983 22 11.5615 22H11.6143C12.8646 21.9999 13.9837 21.2244 14.4229 20.0537L16.7969 13.7256C19.2326 12.9619 21 10.6877 21 8C21 4.78979 18.4789 2.16843 15.3086 2.00781L15 2H9ZM12.5508 19.3516C12.4044 19.7417 12.0309 19.9999 11.6143 20H11.5615C10.911 20 10.4342 19.3889 10.5918 18.7578L11.7803 14H14.5566L12.5508 19.3516ZM15 4C17.2091 4 19 5.79086 19 8C19 10.2091 17.2091 12 15 12H9C6.79086 12 5 10.2091 5 8C5 5.79086 6.79086 4 9 4H15ZM15 9C14.4477 9 14 9.44772 14 10C14 10.5523 14.4477 11 15 11C15.5523 11 16 10.5523 16 10C16 9.44772 15.5523 9 15 9ZM9 6C7.89543 6 7 6.89543 7 8C7 9.10457 7.89543 10 9 10C10.1046 10 11 9.10457 11 8C11 6.89543 10.1046 6 9 6ZM17 7C16.4477 7 16 7.44772 16 8C16 8.55228 16.4477 9 17 9C17.5523 9 18 8.55228 18 8C18 7.44772 17.5523 7 17 7ZM15 5C14.4477 5 14 5.44772 14 6C14 6.55228 14.4477 7 15 7C15.5523 7 16 6.55228 16 6C16 5.44772 15.5523 5 15 5Z" fill="#1C1C1C"/>
</svg>
