<svg width="16" height="16" viewBox="0 0 16 16" fill="none" xmlns="http://www.w3.org/2000/svg">
<path d="M9.10254 3C10.3345 3 11.3328 3.99859 11.333 5.23047V10.7695L11.3223 10.9971C11.2082 12.1221 10.2577 13 9.10254 13H2.23047C1.07551 12.9998 0.125845 12.122 0.0117188 10.9971L0 10.7695V5.23047C0.000162452 3.99869 0.998687 3.00016 2.23047 3H9.10254ZM2.23047 4.33301C1.73507 4.33317 1.33317 4.73507 1.33301 5.23047V10.7695C1.33317 11.2649 1.73507 11.6668 2.23047 11.667H9.10254C9.59808 11.667 9.99984 11.265 10 10.7695V5.23047C9.99984 4.73497 9.59808 4.33301 9.10254 4.33301H2.23047ZM14.1709 5.35645C14.9012 4.77292 15.9823 5.2927 15.9824 6.22754V9.77344C15.9824 10.7086 14.9002 11.2286 14.1699 10.6445L12.8174 9.5625C12.5528 9.35088 12.3985 9.03022 12.3984 8.69141V7.30957C12.3984 6.97062 12.5526 6.65014 12.8174 6.43848L14.1709 5.35645ZM5.6709 5.66406C6.03894 5.66424 6.33691 5.96297 6.33691 6.33105V9.66406C6.33691 10.0321 6.03894 10.3309 5.6709 10.3311C5.30271 10.3311 5.00391 10.0323 5.00391 9.66406V6.33105C5.00391 5.96286 5.30271 5.66406 5.6709 5.66406ZM3.00293 6.66406C3.37097 6.66424 3.66895 6.96297 3.66895 7.33105V8.66406C3.66895 9.03214 3.37097 9.33088 3.00293 9.33105C2.63474 9.33105 2.33594 9.03225 2.33594 8.66406V7.33105C2.33594 6.96286 2.63474 6.66406 3.00293 6.66406ZM8.33496 6.66406C8.703 6.66424 9.00098 6.96297 9.00098 7.33105V8.66406C9.00098 9.03214 8.703 9.33088 8.33496 9.33105C7.96677 9.33105 7.66797 9.03225 7.66797 8.66406V7.33105C7.66797 6.96286 7.96677 6.66406 8.33496 6.66406Z" fill="#1C1C1C"/>
</svg>
