<svg width="24" height="24" viewBox="0 0 24 24" fill="none" xmlns="http://www.w3.org/2000/svg">
<path fill-rule="evenodd" clip-rule="evenodd" d="M3.02746 3.32233C4.50566 1.68083 7.03523 1.54835 8.67687 3.02643C10.0624 4.27398 10.3724 6.27021 9.54699 7.84967L12.838 10.8145L20.1329 4.24713C20.5433 3.8776 21.1755 3.91098 21.545 4.32135C21.9145 4.73172 21.8821 5.36389 21.4718 5.73346L9.54699 16.4698C10.373 18.0494 10.0627 20.0462 8.67687 21.294C7.03519 22.7722 4.50567 22.6397 3.02746 20.9981C1.5493 19.3564 1.68179 16.8269 3.32335 15.3487C4.70763 14.1023 6.723 14.0013 8.20714 14.9844L11.3439 12.1602L8.20714 9.33502C6.72295 10.3185 4.7078 10.2183 3.32335 8.97174C1.68188 7.49351 1.54933 4.96395 3.02746 3.32233ZM15.1085 14.2042C15.478 13.7938 16.1112 13.7607 16.5216 14.1299L21.4718 18.587C21.8821 18.9565 21.9145 19.5887 21.545 19.9991C21.1755 20.4095 20.5434 20.4429 20.1329 20.0733L15.1827 15.6163C14.7729 15.2467 14.7394 14.6144 15.1085 14.2042ZM7.48644 16.9835C6.74739 16.1627 5.48308 16.0961 4.66222 16.835C3.84144 17.5741 3.77489 18.8384 4.51378 19.6592C5.2528 20.48 6.51714 20.5465 7.338 19.8077C8.15878 19.0686 8.22532 17.8043 7.48644 16.9835ZM7.338 4.51276C6.51714 3.77402 5.25277 3.84046 4.51378 4.66119C3.77479 5.48205 3.8414 6.74634 4.66222 7.48541C5.48301 8.22439 6.74733 8.15859 7.48644 7.33795C8.22554 6.5171 8.15886 5.25186 7.338 4.51276Z" fill="#1C1C1C"/>
</svg>
