<svg width="44" height="24" viewBox="0 0 44 24" fill="none" xmlns="http://www.w3.org/2000/svg">
<path d="M25.4639 3.76025C25.9186 3.76025 26.2871 4.12872 26.2871 4.5835C26.2871 5.03827 25.9186 5.40674 25.4639 5.40674H20.2637L19.7686 9.5542H19.7803C20.0786 9.32054 20.4492 9.12682 20.8916 8.97314C21.3422 8.81663 21.8117 8.73781 22.2998 8.73779C23.1894 8.73779 23.984 8.9513 24.6816 9.37842C25.383 9.80029 25.9332 10.3787 26.3311 11.1128H26.3301C26.733 11.8476 26.9345 12.6854 26.9346 13.6255C26.9346 14.5519 26.7258 15.3807 26.3086 16.1108L26.3096 16.1118C25.8974 16.8366 25.3282 17.41 24.6035 17.8315C23.878 18.2489 23.0527 18.4565 22.1309 18.4565C21.2992 18.4565 20.5484 18.2914 19.8799 17.9595C19.212 17.6279 18.6759 17.1724 18.2725 16.5933C18.0412 16.2614 17.8692 15.9031 17.7578 15.5181C17.6091 15.0035 18.0498 14.5601 18.5674 14.5601C19.0379 14.5602 19.4037 14.9285 19.5918 15.3394C19.7382 15.6592 19.9622 15.9422 20.2646 16.188H20.2637C20.7836 16.6021 21.4054 16.81 22.1309 16.8101C22.7133 16.8101 23.2299 16.6742 23.6807 16.4028V16.4019C24.1366 16.1301 24.4937 15.7575 24.752 15.2827V15.2817C25.0146 14.8024 25.1465 14.2603 25.1465 13.6538C25.1465 13.1107 25.0424 12.6204 24.834 12.1821L24.7383 11.9976C24.4707 11.5085 24.102 11.1235 23.6318 10.8423C23.1622 10.5614 22.6246 10.4182 22.0186 10.4136C21.6922 10.4101 21.3587 10.4465 21.0186 10.5239L20.6758 10.6147C20.356 10.7084 20.0764 10.8208 19.8369 10.9517C19.6328 11.0633 19.3982 11.1306 19.1611 11.1021L18.7744 11.0552C18.2527 10.9922 17.8802 10.5172 17.9443 9.99561L18.6094 4.59424C18.668 4.11798 19.073 3.76025 19.5527 3.76025H25.4639ZM15.29 15.7417C15.6501 15.7417 15.9602 15.871 16.2178 16.1284C16.4755 16.3861 16.6055 16.6968 16.6055 17.0571C16.6054 17.236 16.5715 17.4046 16.5029 17.562L16.4229 17.7153C16.3061 17.9146 16.1473 18.0754 15.9482 18.1968C15.7525 18.3142 15.5327 18.3725 15.29 18.3726C14.9297 18.3726 14.619 18.2425 14.3613 17.9849C14.1039 17.7273 13.9747 17.4172 13.9746 17.0571C13.9746 16.6968 14.1036 16.3861 14.3613 16.1284C14.619 15.8707 14.9297 15.7417 15.29 15.7417ZM11.0039 3.76025C11.7713 3.76028 12.3935 4.38254 12.3936 5.1499V17.3384C12.3934 17.8474 11.9808 18.2603 11.4717 18.2603C10.9627 18.2601 10.5499 17.8474 10.5498 17.3384V5.68799H10.5312L8.17383 7.25342C7.65002 7.60093 6.9502 7.22481 6.9502 6.59619L6.95605 6.49854C6.98435 6.27258 7.10944 6.06774 7.30176 5.93994L10.2354 3.9917C10.463 3.84059 10.7307 3.76033 11.0039 3.76025ZM36.334 6.7124C37.086 6.71277 37.5265 7.56011 37.0938 8.17529L34.1348 12.3774L37.2979 16.8257C37.6985 17.3894 37.3458 18.1567 36.6924 18.2505L36.5576 18.2603C36.2576 18.2602 35.9768 18.1115 35.8076 17.8638L32.9502 13.6763L30.0771 17.8599C29.905 18.1103 29.6203 18.2601 29.3164 18.2603C28.5649 18.2603 28.1279 17.4102 28.5654 16.7993L31.7656 12.3345L28.7637 8.14795C28.3334 7.54783 28.7627 6.7124 29.501 6.7124C29.7977 6.71257 30.0757 6.85744 30.2451 7.10107L32.9492 10.9937L35.5645 7.12061C35.737 6.86537 36.0249 6.71268 36.333 6.7124H36.334Z" fill="#1C1C1C" stroke="#1C1C1C" stroke-width="0.1"/>
</svg>
