<svg width="24" height="24" viewBox="0 0 24 24" fill="none" xmlns="http://www.w3.org/2000/svg">
<path d="M19 11C19.5523 11 20 11.4477 20 12C20 16.0795 16.9462 19.4433 13 19.9355V21C13 21.5523 12.5523 22 12 22C11.4477 22 11 21.5523 11 21V19.9355C7.05384 19.4433 4 16.0795 4 12C4 11.4477 4.44772 11 5 11C5.55228 11 6 11.4477 6 12C6 15.3137 8.68629 18 12 18C15.3137 18 18 15.3137 18 12C18 11.4477 18.4477 11 19 11ZM12 2C14.2091 2 16 3.79086 16 6V12C16 14.2091 14.2091 16 12 16C9.79086 16 8 14.2091 8 12V6C8 3.79086 9.79086 2 12 2ZM5 4C5.55228 4 6 4.44772 6 5V8C6 8.55228 5.55228 9 5 9C4.44772 9 4 8.55228 4 8V5C4 4.96539 4.00145 4.93116 4.00488 4.89746C4.05621 4.39333 4.48232 4 5 4ZM19 4C19.5523 4 20 4.44772 20 5V8C20 8.55228 19.5523 9 19 9C18.4477 9 18 8.55228 18 8V5C18 4.44772 18.4477 4 19 4ZM2 5C2.55228 5 3 5.44772 3 6V7C3 7.55228 2.55228 8 2 8C1.44772 8 1 7.55228 1 7V6C1 5.44772 1.44772 5 2 5ZM22 5C22.5523 5 23 5.44772 23 6V7C23 7.55228 22.5523 8 22 8C21.4477 8 21 7.55228 21 7V6C21 5.44772 21.4477 5 22 5Z" fill="#1C1C1C"/>
</svg>
