<svg width="44" height="24" viewBox="0 0 44 24" fill="none" xmlns="http://www.w3.org/2000/svg">
<path d="M6.00586 3.55017C7.06579 3.55017 7.97539 3.84621 8.73047 4.43982H8.72949C9.48866 5.02818 10.0657 5.88042 10.4619 6.99353L10.6025 7.41931C10.9094 8.4387 11.0625 9.63132 11.0625 10.9965C11.0625 12.566 10.8649 13.9088 10.4688 15.0219C10.0726 16.13 9.49844 16.9805 8.74414 17.5687C7.98899 18.1529 7.07486 18.4437 6.00586 18.4437C5.00378 18.4437 4.13854 18.1875 3.41211 17.6742L3.26855 17.5687C2.51427 16.9805 1.94012 16.13 1.54395 15.0219C1.14776 13.9088 0.950195 12.566 0.950195 10.9965C0.950228 9.43646 1.1478 8.10184 1.54395 6.99353C1.94476 5.88068 2.52113 5.02814 3.27539 4.43982C4.035 3.84637 4.94609 3.55024 6.00586 3.55017ZM31.9482 3.74646C32.4029 3.74656 32.7715 4.11597 32.7715 4.57068C32.7713 5.02521 32.4028 5.39382 31.9482 5.39392H26.7471L26.2529 9.54041H26.2646C26.5628 9.30697 26.933 9.11292 27.375 8.95935C27.8257 8.80279 28.2959 8.72498 28.7842 8.72498C29.6734 8.72501 30.4676 8.93779 31.165 9.36462C31.8664 9.78641 32.4166 10.365 32.8145 11.099C33.2174 11.8338 33.418 12.6725 33.418 13.6127C33.4179 14.5391 33.2102 15.3679 32.793 16.098C32.3808 16.8229 31.8117 17.3961 31.0869 17.8177V17.8187C30.3614 18.2359 29.537 18.4437 28.6152 18.4437C27.7835 18.4437 27.0328 18.2785 26.3643 17.9467C25.6963 17.615 25.1594 17.1596 24.7559 16.5804C24.5246 16.2485 24.3535 15.8893 24.2422 15.5043C24.0937 14.9899 24.5342 14.5472 25.0518 14.5472L25.1387 14.5511C25.5673 14.5934 25.8999 14.9413 26.0762 15.3265C26.2225 15.6463 26.4457 15.9294 26.748 16.1752L26.9473 16.3207C27.4246 16.638 27.9802 16.7972 28.6152 16.7972C29.1976 16.7972 29.7133 16.6604 30.1641 16.389H30.165C30.6211 16.1172 30.9781 15.7439 31.2363 15.2689L31.3291 15.0863C31.5303 14.6532 31.6308 14.1715 31.6309 13.641C31.6309 13.0205 31.4945 12.4686 31.2227 11.9847L31.2217 11.9838C30.954 11.4948 30.5854 11.1097 30.1152 10.8285C29.6456 10.5477 29.1079 10.4044 28.502 10.3998C28.1758 10.3963 27.8429 10.4337 27.5029 10.5111L27.1602 10.6019C26.8403 10.6956 26.5599 10.8079 26.3203 10.9388C26.1162 11.0504 25.8825 11.1168 25.6455 11.0883L25.2578 11.0424C24.7362 10.9793 24.3646 10.5043 24.4287 9.98279L25.0928 4.58044C25.1515 4.10451 25.5567 3.74665 26.0361 3.74646H31.9482ZM12.6367 15.7279C12.997 15.7279 13.3078 15.8579 13.5654 16.1156C13.8228 16.3731 13.9521 16.6833 13.9521 17.0433C13.9521 17.2819 13.8915 17.5024 13.7695 17.7025L13.7686 17.7015C13.6519 17.9007 13.4948 18.0616 13.2959 18.183L13.2949 18.184C13.0992 18.3013 12.8793 18.3597 12.6367 18.3597C12.2764 18.3597 11.9657 18.2297 11.708 17.972C11.4505 17.7144 11.3213 17.4036 11.3213 17.0433C11.3214 16.6833 11.4506 16.3731 11.708 16.1156C11.9657 15.8579 12.2764 15.7279 12.6367 15.7279ZM22.1504 3.74646C22.9058 3.74686 23.5184 4.3601 23.5186 5.1156C23.5185 5.32881 23.4677 5.53939 23.3721 5.72986L17.3262 17.7699C17.1793 18.0622 16.8798 18.2464 16.5527 18.2465C15.9082 18.2462 15.4905 17.5669 15.7812 16.9916L21.6182 5.4447V5.39392H15.0166C14.562 5.39382 14.1936 5.02521 14.1934 4.57068C14.1934 4.11597 14.5619 3.74657 15.0166 3.74646H22.1504ZM42.6211 6.69861C43.3732 6.69897 43.8139 7.54727 43.3809 8.16248L40.4209 12.3646L43.585 16.8129C43.9855 17.3766 43.6329 18.1439 42.9795 18.2377L42.8447 18.2465C42.5447 18.2464 42.2639 18.0987 42.0947 17.851L39.2373 13.6635L36.3643 17.8461C36.1921 18.0967 35.9075 18.2463 35.6035 18.2465C34.8522 18.2465 34.4153 17.3974 34.8525 16.7865L38.0527 12.3217L35.0508 8.13416C34.6205 7.53403 35.0498 6.69861 35.7881 6.69861C36.0848 6.69878 36.3628 6.84462 36.5322 7.08826L39.2363 10.9808L41.8516 7.10779C42.0241 6.85239 42.3119 6.69889 42.6201 6.69861H42.6211ZM6.00586 5.16833C4.98616 5.16846 4.18779 5.66965 3.60938 6.68298C3.02966 7.69401 2.73735 9.13042 2.7373 10.9965C2.7373 12.2401 2.86824 13.2947 3.12891 14.1605C3.38972 15.0268 3.76339 15.6815 4.24707 16.1283L4.43457 16.2845C4.88236 16.6259 5.4054 16.7972 6.00586 16.7972C7.03565 16.7972 7.83661 16.3022 8.41016 15.3031C8.98508 14.3015 9.27539 12.8673 9.27539 10.9965C9.27536 9.7531 9.14126 8.6969 8.87598 7.82654V7.82556C8.61518 6.95492 8.23926 6.29555 7.75098 5.84412C7.26838 5.39376 6.6873 5.16833 6.00586 5.16833Z" fill="#1C1C1C" stroke="#1C1C1C" stroke-width="0.1"/>
</svg>
