<svg width="24" height="24" viewBox="0 0 24 24" fill="none" xmlns="http://www.w3.org/2000/svg">
<path d="M7.25 3.75024C8.01736 3.75027 8.63962 4.37253 8.63965 5.13989V17.3284C8.63954 17.8374 8.22685 18.2502 7.71777 18.2502C7.20879 18.2501 6.796 17.8374 6.7959 17.3284V5.67798H6.77734L4.41992 7.24341C3.89612 7.59092 3.19629 7.2148 3.19629 6.58618L3.20215 6.48853C3.23044 6.26257 3.35553 6.05773 3.54785 5.92993L6.48145 3.98169C6.70912 3.83058 6.97682 3.75032 7.25 3.75024ZM18.9922 6.70239C19.7442 6.70276 20.1847 7.5501 19.752 8.16528L16.793 12.3674L19.9561 16.8157C20.3567 17.3794 20.004 18.1467 19.3506 18.2405L19.2158 18.2502C18.9158 18.2502 18.635 18.1015 18.4658 17.8538L15.6084 13.6663L12.7354 17.8499C12.5632 18.1003 12.2785 18.2501 11.9746 18.2502C11.2231 18.2502 10.7861 17.4002 11.2236 16.7893L14.4238 12.3245L11.4219 8.13794C10.9916 7.53782 11.4209 6.70239 12.1592 6.70239C12.4559 6.70256 12.7339 6.84743 12.9033 7.09106L15.6074 10.9836L18.2227 7.1106C18.3952 6.85536 18.6831 6.70267 18.9912 6.70239H18.9922Z" fill="#1C1C1C" stroke="#1C1C1C" stroke-width="0.1"/>
</svg>
