<svg width="24" height="24" viewBox="0 0 24 24" fill="none" xmlns="http://www.w3.org/2000/svg">
<path d="M6.65234 3.54016C7.50315 3.54016 8.25917 3.71955 8.91895 4.0802C9.57766 4.44036 10.0956 4.92686 10.4707 5.53918C10.846 6.15209 11.0332 6.8347 11.0332 7.58411C11.0332 8.11985 10.9364 8.64374 10.7422 9.1554C10.5524 9.66298 10.2214 10.2278 9.75098 10.8488L9.75 10.8478C9.28451 11.4637 8.639 12.2152 7.81348 13.1017V13.1027L4.59277 16.547V16.59H10.4629C10.9176 16.59 11.287 16.9585 11.2871 17.4132C11.2871 17.868 10.9177 18.2365 10.4629 18.2365H3.05273C2.52819 18.2365 2.10275 17.8117 2.10254 17.2872V17.2697C2.10273 17.0329 2.19106 16.8048 2.35059 16.63L6.86816 11.6847C7.42543 11.0759 7.88413 10.5466 8.24414 10.0978L8.49609 9.76379C8.72991 9.43571 8.91068 9.12416 9.03906 8.82922L9.10059 8.67981C9.23486 8.32864 9.30269 7.96358 9.30273 7.58411C9.30273 7.0862 9.18296 6.65706 8.94531 6.29602H8.94434C8.71052 5.9339 8.38977 5.65393 7.98047 5.45618C7.57087 5.25829 7.10939 5.15833 6.5957 5.15833C6.11815 5.15837 5.69578 5.24587 5.32715 5.41809L5.17188 5.49719C4.77234 5.71763 4.46263 6.02734 4.24219 6.42688C4.14233 6.61184 4.06548 6.81238 4.01172 7.02747C3.89682 7.48621 3.52622 7.88684 3.03809 7.88684C2.55534 7.88673 2.14298 7.49018 2.22656 7.00208C2.31494 6.48622 2.4891 6.01496 2.74902 5.58899C3.14278 4.9438 3.67947 4.44057 4.35742 4.0802H4.3584C5.0412 3.71991 5.80612 3.54016 6.65234 3.54016ZM20.4014 6.68958C21.1536 6.6898 21.5942 7.53721 21.1611 8.15247L18.2021 12.3546L21.3652 16.8029C21.7926 17.4042 21.3628 18.2365 20.625 18.2365C20.3252 18.2363 20.0451 18.0884 19.876 17.8409L17.0176 13.6534L14.1445 17.8361C13.9724 18.0867 13.6878 18.2364 13.3838 18.2365C12.6325 18.2364 12.1957 17.3873 12.6328 16.7765L15.833 12.3116L12.8311 8.12415C12.4008 7.52405 12.8301 6.68965 13.5684 6.68958C13.8651 6.68972 14.143 6.83459 14.3125 7.07825L17.0176 10.9698L19.6318 7.09778C19.8045 6.8422 20.093 6.6897 20.4014 6.68958Z" fill="#1C1C1C" stroke="#1C1C1C" stroke-width="0.1"/>
</svg>
