<svg width="20" height="20" viewBox="0 0 20 20" fill="none" xmlns="http://www.w3.org/2000/svg">
<path d="M5.44908 10.8333L1.21629 10.8333C0.879196 10.8333 0.681633 10.4539 0.874943 10.1777L2.64999 7.64192C2.98174 7.16799 3.68363 7.16799 4.01538 7.64192L5.79042 10.1777C5.98373 10.4539 5.78617 10.8333 5.44908 10.8333Z" fill="#1C1C1C"/>
<path fill-rule="evenodd" clip-rule="evenodd" d="M10 3.33333C10 3.79357 10.3752 4.16041 10.8309 4.22539C13.659 4.62868 15.8333 7.06042 15.8333 10C15.8333 13.2217 13.2217 15.8333 10 15.8333C6.77834 15.8333 4.16666 13.2217 4.16666 10L2.5 10C2.5 14.1421 5.85786 17.5 10 17.5C14.1421 17.5 17.5 14.1421 17.5 10C17.5 6.13908 14.5826 2.95956 10.832 2.54563C10.3745 2.49514 10 2.87309 10 3.33333Z" fill="#1C1C1C"/>
</svg>
