<svg width="24" height="18" viewBox="0 0 24 18" fill="none" xmlns="http://www.w3.org/2000/svg">
<path d="M9.00195 0C9.55424 0 10.002 0.447715 10.002 1C10.002 1.55228 9.55424 2 9.00195 2H7C5.89543 2 5 2.89543 5 4V14C5 15.1046 5.89543 16 7 16H8.5V16.002H9.00195C9.55424 16.002 10.002 16.4497 10.002 17.002C10.002 17.5542 9.55424 18.002 9.00195 18.002H8.00195C7.9882 18.002 7.97456 18.0005 7.96094 18H7L6.79395 17.9951C4.7488 17.8913 3.10865 16.2512 3.00488 14.2061L3 14V4C3 1.79086 4.79086 1.61064e-08 7 0H9.00195ZM17 0C19.2091 0 21 1.79086 21 4V14C21 16.14 19.3194 17.8879 17.2061 17.9951L17 18H16.0391C16.0254 18.0005 16.0118 18.002 15.998 18.002H14.998C14.4458 18.002 13.998 17.5542 13.998 17.002C13.998 16.4497 14.4458 16.002 14.998 16.002H15.5V16H17C18.1046 16 19 15.1046 19 14V4C19 2.89543 18.1046 2 17 2H14.998C14.4458 2 13.998 1.55228 13.998 1C13.998 0.447715 14.4458 1.61064e-08 14.998 0H17ZM11.998 4.99805C12.5503 4.99805 12.998 5.44576 12.998 5.99805V11.998C12.998 12.5503 12.5503 12.998 11.998 12.998C11.4458 12.998 10.998 12.5503 10.998 11.998V5.99805C10.998 5.44576 11.4458 4.99805 11.998 4.99805ZM1 7.00195C1.55228 7.00195 2 7.44967 2 8.00195V10.002C2 10.5542 1.55228 11.002 1 11.002C0.447715 11.002 0 10.5542 0 10.002V8.00195C0 7.44967 0.447715 7.00195 1 7.00195ZM8.00195 7.00195C8.55424 7.00195 9.00195 7.44967 9.00195 8.00195V10.002C9.00195 10.5542 8.55424 11.002 8.00195 11.002C7.44967 11.002 7.00195 10.5542 7.00195 10.002V8.00195C7.00195 7.44967 7.44967 7.00195 8.00195 7.00195ZM16 7.00195C16.5523 7.00195 17 7.44967 17 8.00195V10.002C17 10.5542 16.5523 11.002 16 11.002C15.4477 11.002 15 10.5542 15 10.002V8.00195C15 7.44967 15.4477 7.00195 16 7.00195ZM23.002 7.00195C23.5542 7.00195 24.002 7.44967 24.002 8.00195V10.002C24.002 10.5542 23.5542 11.002 23.002 11.002C22.4497 11.002 22.002 10.5542 22.002 10.002V8.00195C22.002 7.44967 22.4497 7.00195 23.002 7.00195Z" fill="#1C1C1C"/>
</svg>
