<svg width="24" height="24" viewBox="0 0 24 24" fill="none" xmlns="http://www.w3.org/2000/svg">
<path d="M7.5 2C10.8137 2 13.5 4.68629 13.5 8C13.5 8.55228 13.0523 9 12.5 9C11.9477 9 11.5 8.55228 11.5 8C11.5 5.79086 9.70914 4 7.5 4H6.75C4.12665 4 2 6.12665 2 8.75V9.53711C2 11.334 2.9427 12.9993 4.4834 13.9238L4.98242 14.2236C6.18166 14.9433 7.06974 16.0842 7.47168 17.4238L7.84473 18.6699C8.0817 19.4593 8.80858 19.9999 9.63281 20C10.6639 20 11.5 19.1639 11.5 18.1328V17C11.5 16.4477 11.9477 16 12.5 16C13.0523 16 13.5 16.4477 13.5 17V18.1328C13.5 20.2685 11.7685 22 9.63281 22C7.92527 21.9999 6.42037 20.8797 5.92969 19.2441L5.55566 17.999C5.29691 17.1365 4.72529 16.4018 3.95312 15.9385L3.45508 15.6387C1.31178 14.3527 0 12.0366 0 9.53711V8.75C0 5.02208 3.02208 2 6.75 2H7.5ZM18.5527 5.10547C19.0467 4.85848 19.6475 5.05876 19.8945 5.55273C21.9238 9.61135 21.9238 14.3887 19.8945 18.4473C19.6475 18.9412 19.0467 19.1415 18.5527 18.8945C18.0588 18.6475 17.8585 18.0467 18.1055 17.5527C19.8532 14.0572 19.8532 9.94283 18.1055 6.44727C17.8585 5.95329 18.0588 5.35246 18.5527 5.10547ZM15.5527 9.10547C16.0467 8.85848 16.6475 9.05876 16.8945 9.55273C17.6648 11.0933 17.6648 12.9067 16.8945 14.4473C16.6475 14.9412 16.0467 15.1415 15.5527 14.8945C15.0588 14.6475 14.8585 14.0467 15.1055 13.5527C15.5942 12.5752 15.5942 11.4248 15.1055 10.4473C14.8585 9.95329 15.0588 9.35246 15.5527 9.10547ZM12.5 11C13.0523 11 13.5 11.4477 13.5 12C13.5 12.5523 13.0523 13 12.5 13C11.9477 13 11.5 12.5523 11.5 12C11.5 11.4477 11.9477 11 12.5 11ZM7 6C8.65685 6 10 7.34315 10 9C10 10.6569 8.65685 12 7 12C5.34315 12 4 10.6569 4 9C4 7.34315 5.34315 6 7 6Z" fill="#1C1C1C"/>
</svg>
