<svg width="16" height="16" viewBox="0 0 16 16" fill="none" xmlns="http://www.w3.org/2000/svg">
<path fill-rule="evenodd" clip-rule="evenodd" d="M2.78068 1.44808C3.82203 0.406753 5.50979 0.406831 6.55119 1.44808C7.59258 2.48948 7.59258 4.17817 6.55119 5.21957C6.2918 5.47991 6.29136 5.90188 6.55119 6.16195L9.38029 8.99007C9.6405 9.25028 10.0623 9.25 10.3227 8.99007C11.364 7.94874 13.0528 7.94881 14.0942 8.99007C15.1355 10.0315 15.1355 11.7202 14.0942 12.7616L13.1518 13.7039L13.0024 13.8465C11.4829 15.219 9.16338 15.2191 7.64396 13.8465L7.49455 13.7039L1.83732 8.04769C0.275454 6.48574 0.275707 3.95257 1.83732 2.39046L2.78068 1.44808ZM5.60881 2.39046C5.0881 1.86991 4.24372 1.86984 3.72306 2.39046L2.78068 3.33382C1.73977 4.37523 1.73951 6.06308 2.78068 7.10433L8.43693 12.7616C9.47818 13.8028 11.167 13.8025 12.2084 12.7616L13.1518 11.8192C13.6723 11.2986 13.6721 10.4542 13.1518 9.93343C12.6311 9.41274 11.7867 9.41276 11.266 9.93343C10.485 10.7141 9.21784 10.7143 8.43693 9.93343L5.60881 7.10433C4.87707 6.37236 4.83123 5.214 5.47111 4.42855L5.7006 4.17464C6.12744 3.65095 6.09685 2.87851 5.60881 2.39046ZM12.8285 6.04964C13.1966 6.04964 13.4954 6.34757 13.4955 6.71566C13.4955 7.08385 13.1967 7.38265 12.8285 7.38265C12.4604 7.38261 12.1615 7.08382 12.1615 6.71566C12.1617 6.3476 12.4605 6.04969 12.8285 6.04964ZM10.8285 4.04964C11.1966 4.04964 11.4954 4.34757 11.4955 4.71566C11.4955 5.08385 11.1967 5.38265 10.8285 5.38265C10.4604 5.38261 10.1615 5.08382 10.1615 4.71566C10.1617 4.3476 10.4605 4.04969 10.8285 4.04964ZM12.8285 4.04964C13.1966 4.04964 13.4954 4.34757 13.4955 4.71566C13.4955 5.08385 13.1967 5.38265 12.8285 5.38265C12.4604 5.38261 12.1615 5.08382 12.1615 4.71566C12.1617 4.3476 12.4605 4.04969 12.8285 4.04964ZM8.82853 2.04964C9.19665 2.04964 9.4954 2.34757 9.49552 2.71566C9.49552 3.08385 9.19672 3.38265 8.82853 3.38265C8.46038 3.38261 8.16154 3.08382 8.16154 2.71566C8.16166 2.3476 8.46046 2.04969 8.82853 2.04964ZM10.8285 2.04964C11.1966 2.04964 11.4954 2.34757 11.4955 2.71566C11.4955 3.08385 11.1967 3.38265 10.8285 3.38265C10.4604 3.38261 10.1615 3.08382 10.1615 2.71566C10.1617 2.3476 10.4605 2.04969 10.8285 2.04964ZM12.8285 2.04964C13.1966 2.04964 13.4954 2.34757 13.4955 2.71566C13.4955 3.08385 13.1967 3.38265 12.8285 3.38265C12.4604 3.38261 12.1615 3.08382 12.1615 2.71566C12.1617 2.3476 12.4605 2.04969 12.8285 2.04964Z" fill="#1C1C1C"/>
</svg>
