<svg width="16" height="16" viewBox="0 0 16 16" fill="none" xmlns="http://www.w3.org/2000/svg">
<g clip-path="url(#clip0_57850_35701)">
<path d="M7.99902 0.666687C12.049 0.666687 15.3328 3.94976 15.333 7.99969L15.3232 8.37762C15.1267 12.2522 11.9225 15.3337 7.99902 15.3337L7.62207 15.3239C3.74731 15.1276 0.666016 11.9233 0.666016 7.99969C0.666192 3.94986 3.94919 0.666863 7.99902 0.666687ZM7.99902 1.99969C4.68557 1.99987 1.9992 4.68624 1.99902 7.99969C1.99902 11.3133 4.68546 13.9995 7.99902 13.9997C11.3127 13.9997 13.999 11.3134 13.999 7.99969C13.9988 4.68614 11.3126 1.99969 7.99902 1.99969ZM4.77734 9.08856C5.09616 8.90461 5.50439 9.01395 5.68848 9.3327C5.87254 9.65151 5.76308 10.0597 5.44434 10.2438L4.28906 10.9108C3.97038 11.0945 3.56301 10.9851 3.37891 10.6667C3.19481 10.3478 3.30419 9.93965 3.62305 9.75555L4.77734 9.08856ZM10.3076 9.3327C10.4917 9.01394 10.8999 8.90547 11.2188 9.08954L12.373 9.75555C12.6919 9.93965 12.8013 10.3478 12.6172 10.6667C12.4331 10.9852 12.0257 11.0945 11.707 10.9108L10.5518 10.2438C10.233 10.0597 10.1235 9.65152 10.3076 9.3327ZM7.99902 5.99969C9.10348 5.99969 9.99885 6.89528 9.99902 7.99969C9.99902 9.10426 9.10359 9.99969 7.99902 9.99969C6.8946 9.99952 5.99902 9.10416 5.99902 7.99969C5.9992 6.89538 6.89471 5.99987 7.99902 5.99969ZM7.99902 7.3327C7.63109 7.33288 7.33221 7.63176 7.33203 7.99969C7.33203 8.36778 7.63098 8.66651 7.99902 8.66669C8.36721 8.66669 8.66602 8.36788 8.66602 7.99969C8.66584 7.63165 8.3671 7.3327 7.99902 7.3327ZM7.99805 2.66571C8.36613 2.66571 8.66486 2.96369 8.66504 3.33173V4.66571C8.66486 5.03375 8.36613 5.33173 7.99805 5.33173C7.62997 5.33173 7.33123 5.03375 7.33105 4.66571V3.33173C7.33123 2.96369 7.62997 2.66571 7.99805 2.66571Z" fill="#1C1C1C"/>
</g>
<defs>
<clipPath id="clip0_57850_35701">
<rect width="16" height="16" fill="white"/>
</clipPath>
</defs>
</svg>
