<svg width="24" height="24" viewBox="0 0 24 24" fill="none" xmlns="http://www.w3.org/2000/svg">
<path d="M12 7C12.5523 7 13 7.44772 13 8V16C13 16.5523 12.5523 17 12 17C11.4477 17 11 16.5523 11 16V8C11 7.44772 11.4477 7 12 7ZM8 9C8.55228 9 9 9.44772 9 10V14C9 14.5523 8.55228 15 8 15C7.44772 15 7 14.5523 7 14V10C7 9.44772 7.44772 9 8 9ZM16 9C16.5523 9 17 9.44772 17 10V14C17 14.5523 16.5523 15 16 15C15.4477 15 15 14.5523 15 14V10C15 9.44772 15.4477 9 16 9Z" fill="#1C1C1C"/>
<path fill-rule="evenodd" clip-rule="evenodd" d="M2.00001 11.0039C2.55229 11.0039 3.00001 11.4516 3.00001 12.0039C3.00001 12.0144 2.99837 12.0248 2.99805 12.0352C2.99834 12.0439 2.99994 12.0527 3.00001 12.0615C3.0108 13.6706 3.44617 15.1781 4.1963 16.4814C4.20032 16.4881 4.2051 16.4942 4.20899 16.501C4.21286 16.5077 4.21604 16.5147 4.21973 16.5215C5.7792 19.1989 8.6783 21 12 21C12.5522 21.0001 13 21.4478 13 22C13 22.5522 12.5522 22.9999 12 23C10.0111 23 8.14706 22.4692 6.53712 21.5459C6.52518 21.5396 6.51276 21.5341 6.50098 21.5273C6.49181 21.522 6.48356 21.5153 6.47462 21.5098C3.22181 19.6158 1.02704 16.1042 1.00001 12.0752C0.999925 12.0631 1.00064 12.0511 1.00098 12.0391C1.00058 12.0274 1.00001 12.0157 1.00001 12.0039C1.00001 11.4516 1.44772 11.0039 2.00001 11.0039ZM16.499 19.8008C16.9773 19.5248 17.5891 19.6887 17.8652 20.167C18.1411 20.6452 17.9772 21.2571 17.499 21.5332C17.0208 21.8093 16.409 21.6452 16.1328 21.167C15.8567 20.6887 16.0207 20.0769 16.499 19.8008ZM19.7969 16.5049C20.0731 16.0267 20.6848 15.8626 21.1631 16.1387C21.6413 16.4148 21.8052 17.0266 21.5293 17.5049C21.2532 17.9831 20.6414 18.1471 20.1631 17.8711C19.6848 17.5949 19.5207 16.9832 19.7969 16.5049ZM22 11.0039C22.5523 11.0039 23 11.4516 23 12.0039C23 12.5562 22.5523 13.0039 22 13.0039C21.4477 13.0039 21 12.5562 21 12.0039C21 11.4516 21.4477 11.0039 22 11.0039ZM12 1C12.5522 1.00012 13 1.44779 13 2C13 2.55221 12.5522 2.99988 12 3C10.3968 3 8.89114 3.41912 7.58692 4.1543C7.5587 4.17479 7.5299 4.19507 7.49903 4.21289C7.46776 4.23094 7.43561 4.24642 7.40333 4.26074C6.1104 5.03033 5.02722 6.11546 4.25782 7.41016C4.24355 7.44229 4.22695 7.47376 4.20899 7.50488C3.93287 7.98313 3.32105 8.14712 2.84278 7.87109C2.39316 7.6115 2.22027 7.05488 2.43067 6.5918C2.44876 6.54671 2.4699 6.5022 2.49512 6.45898C4.40125 3.19606 7.94397 1 12 1ZM20.1631 6.13477C20.6413 5.85887 21.2532 6.02279 21.5293 6.50098C21.8054 6.97922 21.6413 7.59101 21.1631 7.86719C20.6848 8.14333 20.073 7.97927 19.7969 7.50098C19.5209 7.02271 19.6849 6.41088 20.1631 6.13477ZM16.1348 2.84082C16.4109 2.36263 17.0227 2.19871 17.501 2.47461C17.9792 2.75073 18.1432 3.36255 17.8672 3.84082C17.591 4.31911 16.9793 4.48317 16.501 4.20703C16.0228 3.93085 15.8587 3.31906 16.1348 2.84082Z" fill="#1C1C1C"/>
</svg>
