<svg width="20" height="20" viewBox="0 0 20 20" fill="none" xmlns="http://www.w3.org/2000/svg">
<path d="M8.82129 6.2525C9.47213 5.60172 10.5279 5.60175 11.1787 6.2525L15.5889 10.6636C15.9143 10.9891 15.9142 11.5159 15.5889 11.8414C15.2634 12.1668 14.7366 12.1668 14.4111 11.8414L10.833 8.26324V17.5025C10.833 17.9627 10.4602 18.3355 10 18.3355C9.53978 18.3355 9.16699 17.9627 9.16699 17.5025V8.26324L5.58887 11.8414C5.26343 12.1668 4.73657 12.1668 4.41113 11.8414C4.0858 11.5159 4.08573 10.989 4.41113 10.6636L8.82129 6.2525ZM15.834 1.66852C16.2941 1.66852 16.6668 2.04245 16.667 2.5025C16.6668 2.96259 16.2941 3.33551 15.834 3.33551H4.16699C3.70703 3.33531 3.33416 2.96247 3.33398 2.5025C3.3342 2.04257 3.70706 1.66872 4.16699 1.66852H15.834Z" fill="#1C1C1C"/>
</svg>
