<svg width="24" height="24" viewBox="0 0 24 24" fill="none" xmlns="http://www.w3.org/2000/svg">
<g id="exercise-detection">
<path id="Vector 1316" d="M5 3H2C1.44772 3 1 3.44772 1 4V7" stroke="#1C1C1C" stroke-width="2" stroke-linecap="round"/>
<path id="Vector 1318" d="M19 21L22 21C22.5523 21 23 20.5523 23 20L23 17" stroke="#1C1C1C" stroke-width="2" stroke-linecap="round"/>
<path id="Vector 1317" d="M23 7L23 4C23 3.44772 22.5523 3 22 3L19 3" stroke="#1C1C1C" stroke-width="2" stroke-linecap="round"/>
<path id="Vector 1319" d="M1 17L1 20C1 20.5523 1.44772 21 2 21L5 21" stroke="#1C1C1C" stroke-width="2" stroke-linecap="round"/>
<rect id="Rectangle 34627921" x="5" y="11" width="14" height="2" fill="#1C1C1C"/>
<rect id="Rectangle 34627922" x="5" y="7" width="2" height="10" rx="1" fill="#1C1C1C"/>
<rect id="Rectangle 34627924" x="3" y="9" width="2" height="6" rx="1" fill="#1C1C1C"/>
<rect id="Rectangle 34627925" x="19" y="9" width="2" height="6" rx="1" fill="#1C1C1C"/>
<rect id="Rectangle 34627923" x="17" y="7" width="2" height="10" rx="1" fill="#1C1C1C"/>
</g>
</svg>
