<svg width="24" height="24" viewBox="0 0 24 24" fill="none" xmlns="http://www.w3.org/2000/svg">
<g id="wake on wasit wake">
<circle id="Ellipse 236786" cx="4" cy="12" r="3" stroke="#1C1C1C" stroke-width="2"/>
<path id="Vector 1276" d="M18 6.5L19.25 6.5C20.2165 6.5 21 7.2835 21 8.25V8.25C21 9.2165 20.2165 10 19.25 10L18 10" stroke="#1C1C1C" stroke-width="2" stroke-linecap="round"/>
<path id="Vector 1288" d="M16 3L17.25 3C18.2165 3 19 3.7835 19 4.75V4.75C19 5.7165 18.2165 6.5 17.25 6.5L16 6.5" stroke="#1C1C1C" stroke-width="2" stroke-linecap="round"/>
<path id="Vector 1286" d="M19 10L20.25 10C21.2165 10 22 10.7835 22 11.75V11.75C22 12.7165 21.2165 13.5 20.25 13.5L19 13.5" stroke="#1C1C1C" stroke-width="2" stroke-linecap="round"/>
<path id="Vector 1287" d="M20 13.5L21.25 13.5C22.2165 13.5 23 14.2835 23 15.25V15.25C23 16.2165 22.2165 17 21.25 17L15 17" stroke="#1C1C1C" stroke-width="2" stroke-linecap="round"/>
<path id="Vector 1289" d="M16 3H14.4737H13.5L13.1213 3C11.7631 3 10.4604 3.53957 9.5 4.5V4.5C8.53957 5.46043 7.23694 6 5.87868 6H1" stroke="#1C1C1C" stroke-width="2" stroke-linecap="round"/>
<path id="Vector 1290" d="M1 19H7.17997C8.38743 19 9.589 19.1683 10.75 19.5L11.2981 19.6566C12.0955 19.8844 12.9207 20 13.75 20V20C14.5793 20 15.4045 19.8844 16.2019 19.6566L16.5096 19.5687C17.8254 19.1927 19.0613 18.5791 20.156 17.758L20.5 17.5" stroke="#1C1C1C" stroke-width="2" stroke-linecap="round"/>
<path id="Vector 1291" d="M2 6V9" stroke="#1C1C1C" stroke-width="2" stroke-linecap="round"/>
<path id="Vector 1293" d="M2 15V18" stroke="#1C1C1C" stroke-width="2" stroke-linecap="round"/>
<path id="Vector 1292" d="M6 6V9" stroke="#1C1C1C" stroke-width="2" stroke-linecap="round"/>
<path id="Vector 1294" d="M6 15V18" stroke="#1C1C1C" stroke-width="2" stroke-linecap="round"/>
</g>
</svg>
