<svg width="24" height="24" viewBox="0 0 24 24" fill="none" xmlns="http://www.w3.org/2000/svg">
<g id="system_calendar">
<path id="Union" fill-rule="evenodd" clip-rule="evenodd" d="M6 3C6 2.44772 6.44772 2 7 2C7.55228 2 8 2.44772 8 3V4H16V3C16 2.44772 16.4477 2 17 2C17.5523 2 18 2.44772 18 3V4H20C21.1046 4 22 4.89543 22 6V11C22 11.5523 21.5523 12 21 12C20.4477 12 20 11.5523 20 11V10H4V20H7C7.55228 20 8 20.4477 8 21C8 21.5523 7.55228 22 7 22H4C2.89543 22 2 21.1046 2 20V6C2 4.89543 2.89543 4 4 4H6V3ZM7 6H17H20V8H4V6H7ZM18 17C18 18.1046 17.1046 19 16 19C15.4512 19 14.9541 18.779 14.5927 18.4211L14.5859 18.4142L14.5789 18.4073C14.221 18.046 14 17.5488 14 17C14 16.4519 14.2205 15.9553 14.5775 15.5941C14.5803 15.5913 14.5831 15.5886 14.5859 15.5858C14.5887 15.583 14.5914 15.5802 14.5942 15.5774C14.9554 15.2204 15.452 15 16 15C17.1046 15 18 15.8954 18 17ZM13.9681 13.5538C14.2864 13.3657 14.633 13.2205 15 13.126V12C15 11.4477 15.4477 11 16 11C16.5523 11 17 11.4477 17 12V13.126C17.3671 13.2205 17.7137 13.3658 18.032 13.5539L18.8285 12.7574C19.2191 12.3668 19.8522 12.3668 20.2428 12.7574C20.6333 13.1479 20.6333 13.7811 20.2428 14.1716L19.4462 14.9681C19.6343 15.2864 19.7795 15.633 19.874 16L21 16C21.5523 16 22 16.4477 22 17C22 17.5523 21.5523 18 21 18L19.874 18C19.7795 18.367 19.6343 18.7136 19.4462 19.0319L20.2428 19.8284C20.6333 20.219 20.6333 20.8521 20.2428 21.2427C19.8522 21.6332 19.2191 21.6332 18.8286 21.2427L18.032 20.4461C17.7137 20.6343 17.3671 20.7795 17 20.874V22C17 22.5523 16.5523 23 16 23C15.4477 23 15 22.5523 15 22V20.874C14.633 20.7795 14.2864 20.6343 13.9681 20.4462L13.1717 21.2427C12.7812 21.6332 12.148 21.6332 11.7575 21.2427C11.3669 20.8521 11.3669 20.219 11.7575 19.8284L12.5539 19.032C12.3658 18.7137 12.2205 18.3671 12.126 18L11 18C10.4477 18 10 17.5523 10 17C10 16.4477 10.4477 16 11 16L12.126 16C12.2205 15.6329 12.3658 15.2863 12.5539 14.968L11.7575 14.1716C11.367 13.7811 11.367 13.1479 11.7575 12.7574C12.148 12.3668 12.7812 12.3668 13.1717 12.7574L13.9681 13.5538Z" fill="#F2F2F2"/>
</g>
</svg>
