<svg width="24" height="24" viewBox="0 0 24 24" fill="none" xmlns="http://www.w3.org/2000/svg">
<g id="weather-update">
<path id="Union" d="M1 18.6364C1 21.0463 3.02966 23 5.53336 23H14.0334C16.2242 23 18.0001 21.2905 18.0001 19.1818C18.0001 17.2518 16.5125 15.6563 14.5807 15.3997C14.5761 15.3991 14.5725 15.3954 14.572 15.3908C14.303 12.9232 12.1349 11 9.50006 11C7.2504 11 5.34095 12.402 4.66334 14.3479C4.66216 14.3513 4.65924 14.3538 4.65571 14.3544C2.57203 14.7479 1 16.5154 1 18.6364Z" stroke="#1C1C1C" stroke-width="2" stroke-linecap="round"/>
<path id="Subtract" d="M18.7946 15C18.0842 15 17.6222 14.2128 17.8023 13.5255C17.93 13.0384 17.998 12.5271 17.998 12C17.998 8.68629 15.3117 6 11.998 6C9.64768 6 7.61301 7.35135 6.62857 9.31944C6.43022 9.71599 6.04293 10 5.59954 10C4.91593 10 4.41573 9.35141 4.69564 8.72773C5.94636 5.94094 8.7455 4 11.998 4C16.4162 4 19.998 7.58172 19.998 12C19.998 12.8417 19.868 13.6531 19.627 14.4151C19.5136 14.7734 19.1705 15 18.7946 15Z" fill="#1C1C1C"/>
<rect id="Rectangle 34627866" x="11" y="1" width="2" height="2" rx="1" fill="#1C1C1C"/>
<rect id="Rectangle 34627866_2" x="16.6328" y="1.97363" width="2" height="2" rx="1" transform="rotate(30 16.6328 1.97363)" fill="#1C1C1C"/>
<rect id="Rectangle 34627866_3" x="21.0234" y="5.63379" width="2" height="2" rx="1" transform="rotate(60 21.0234 5.63379)" fill="#1C1C1C"/>
<rect id="Rectangle 34627866_4" x="23" y="11" width="2" height="2" rx="1" transform="rotate(90 23 11)" fill="#1C1C1C"/>
<rect id="Rectangle 34627867" x="8.36719" y="3.70605" width="2" height="2" rx="1" transform="rotate(150 8.36719 3.70605)" fill="#1C1C1C"/>
</g>
</svg>
