<svg width="24" height="24" viewBox="0 0 24 24" fill="none" xmlns="http://www.w3.org/2000/svg">
<g id="quick-reply">
<circle id="Ellipse 236812" cx="6.5" cy="10" r="1.5" fill="#1C1C1C"/>
<circle id="Ellipse 236813" cx="12" cy="10" r="1.5" fill="#1C1C1C"/>
<circle id="Ellipse 236814" cx="17.5" cy="10" r="1.5" fill="#1C1C1C"/>
<path id="Subtract" fill-rule="evenodd" clip-rule="evenodd" d="M2 7C2 5.34315 3.34315 4 5 4H19C20.6569 4 22 5.34315 22 7V11H24V7C24 4.23858 21.7614 2 19 2H5C2.23858 2 0 4.23858 0 7V13C0 15.4597 1.77612 17.5046 4.11581 17.9221L3.18491 20.1562C2.62142 21.5086 4.13183 22.7837 5.37052 22.0014L11.706 18H14V16H11.1273L5.63905 19.4663L7.08333 16H5C3.34315 16 2 14.6569 2 13V7Z" fill="#1C1C1C"/>
<circle id="Ellipse 236815" cx="23" cy="11" r="1" fill="#1C1C1C"/>
<circle id="Ellipse 236816" cx="14" cy="17" r="1" fill="#1C1C1C"/>
<rect id="Rectangle 34627913" x="17" y="16" width="7" height="2" rx="1" fill="#1C1C1C"/>
<rect id="Rectangle 34627914" x="21.5" y="13.5" width="7" height="2" rx="1" transform="rotate(90 21.5 13.5)" fill="#1C1C1C"/>
</g>
</svg>
