<svg width="318" height="318" viewBox="0 0 318 318" fill="none" xmlns="http://www.w3.org/2000/svg">
    <rect width="318" height="318" fill="#F2F2F2"/>
    <path d="M144.285 146.707L144.493 146.847L145.741 146.015C146.174 145.725 146.625 145.454 147.089 145.2L146.901 145.048C148.527 144.157 150.323 143.475 152.21 143.004L152.21 143.004L152.313 143.189C153.455 142.904 154.63 142.697 155.821 142.568L155.773 142.375C157.801 142.156 159.872 142.159 161.899 142.386L161.852 142.578C163.043 142.711 164.217 142.922 165.358 143.211L165.461 143.027L165.46 143.027C167.346 143.504 169.139 144.192 170.761 145.089L170.575 145.24C171.038 145.496 171.488 145.769 171.92 146.06L173.165 146.896L173.373 146.757L177.524 149.545L177.316 149.684L179.807 151.356L180.015 151.218L184.165 154.005L183.957 154.144L186.448 155.817L186.656 155.678L190.806 158.466L190.598 158.605L193.089 160.277L193.297 160.139L197.448 162.926L197.24 163.065L199.73 164.738L199.938 164.599L204.089 167.387L203.881 167.526L206.371 169.198L206.579 169.06L210.73 171.847L210.522 171.986L213.012 173.659L213.22 173.52L217.371 176.308L217.163 176.446L219.653 178.119L219.861 177.98L224.012 180.768L223.804 180.907L226.294 182.58L226.502 182.441L230.653 185.229L230.445 185.367L232.935 187.04L233.144 186.901L237.294 189.689L237.086 189.828L239.577 191.5L239.785 191.362L243.935 194.15L243.727 194.288L244.973 195.125C245.405 195.415 245.812 195.717 246.192 196.028L246.418 195.903C247.752 196.992 248.774 198.195 249.48 199.458L249.205 199.527C249.632 200.291 249.943 201.077 250.137 201.874L250.425 201.843C250.755 203.201 250.753 204.586 250.418 205.943L250.13 205.911C249.934 206.707 249.62 207.492 249.19 208.255L249.465 208.325C248.754 209.586 247.729 210.785 246.391 211.869L246.165 211.744C245.784 212.053 245.376 212.353 244.942 212.643L243.694 213.475L243.902 213.614L239.742 216.388L239.534 216.248L237.038 217.912L237.245 218.052L233.085 220.825L232.878 220.686L230.382 222.35L230.589 222.489L226.429 225.263L226.221 225.123L223.725 226.787L223.933 226.927L219.772 229.7L219.565 229.561L217.069 231.225L217.276 231.364L213.116 234.138L212.908 233.999L210.412 235.663L210.62 235.802L206.46 238.576L206.252 238.436L203.756 240.1L203.963 240.24L199.803 243.013L199.596 242.874L197.1 244.538L197.307 244.677L193.147 247.451L192.939 247.311L190.443 248.975L190.651 249.115L186.49 251.888L186.283 251.749L183.787 253.413L183.994 253.552L179.834 256.326L179.626 256.187L177.13 257.851L177.338 257.99L173.178 260.764L172.97 260.624L171.722 261.456C171.288 261.745 170.838 262.017 170.374 262.271L170.56 262.423C168.934 263.314 167.139 263.996 165.251 264.467L165.149 264.282C164.008 264.567 162.833 264.774 161.642 264.903L161.688 265.096C159.66 265.315 157.589 265.311 155.562 265.085L155.61 264.892C154.42 264.76 153.246 264.548 152.105 264.26L152.001 264.444C150.116 263.967 148.322 263.279 146.7 262.382L146.888 262.231C146.425 261.975 145.975 261.702 145.542 261.411L144.297 260.575L144.089 260.714L139.939 257.926L140.147 257.787L137.656 256.114L137.448 256.253L133.297 253.465L133.505 253.327L131.015 251.654L130.807 251.793L126.656 249.005L126.864 248.866L124.374 247.194L124.166 247.332L120.015 244.544L120.223 244.406L117.733 242.733L117.525 242.872L113.374 240.084L113.582 239.945L111.092 238.273L110.884 238.411L106.733 235.624L106.941 235.485L104.451 233.812L104.243 233.951L100.092 231.163L100.3 231.024L97.8095 229.352L97.6015 229.49L93.4508 226.703L93.6588 226.564L91.1684 224.891L90.9604 225.03L86.8097 222.242L87.0177 222.103L84.5273 220.431L84.3192 220.569L80.1685 217.782L80.3766 217.643L77.8861 215.97L77.6781 216.109L73.5274 213.321L73.7354 213.183L72.4902 212.346C72.0575 212.056 71.651 211.754 71.2703 211.443L71.0428 211.568C69.709 210.479 68.6874 209.276 67.981 208.013L67.9827 208.013L68.2579 207.944C67.8306 207.18 67.5195 206.393 67.3253 205.596L67.0363 205.627C66.7057 204.27 66.7081 202.884 67.0434 201.528L67.3323 201.56C67.5291 200.764 67.843 199.978 68.2729 199.216L67.9979 199.146L67.9963 199.146C68.7069 197.885 69.7327 196.686 71.0703 195.602L71.2973 195.727C71.6791 195.418 72.0866 195.117 72.5203 194.828L73.7684 193.996L73.5609 193.857L77.7211 191.083L77.9287 191.223L80.4248 189.559L80.2173 189.419L84.3775 186.646L84.5851 186.785L87.0812 185.121L86.8737 184.982L91.0339 182.208L91.2415 182.347L93.7376 180.683L93.5301 180.544L97.6903 177.77L97.8979 177.91L100.394 176.246L100.186 176.106L104.347 173.333L104.554 173.472L107.05 171.808L106.843 171.669L111.003 168.895L111.211 169.035L113.707 167.371L113.499 167.231L117.66 164.458L117.867 164.597L120.363 162.933L120.156 162.794L124.316 160.02L124.523 160.159L127.02 158.495L126.812 158.356L130.972 155.582L131.18 155.722L133.676 154.058L133.469 153.918L137.629 151.145L137.836 151.284L140.332 149.62L140.125 149.481L144.285 146.707Z" stroke="#C8C8C8" stroke-width="0.5" stroke-dasharray="3 5"/>
    <path d="M144.285 162.707L144.493 162.847L145.741 162.015C146.174 161.725 146.625 161.454 147.089 161.2L146.901 161.048C148.527 160.157 150.323 159.475 152.21 159.004L152.21 159.004L152.313 159.189C153.455 158.904 154.63 158.697 155.821 158.568L155.773 158.375C157.801 158.156 159.872 158.159 161.899 158.386L161.852 158.578C163.043 158.711 164.217 158.922 165.358 159.211L165.461 159.027L165.46 159.027C167.346 159.504 169.139 160.192 170.761 161.089L170.575 161.24C171.038 161.496 171.488 161.769 171.92 162.06L173.165 162.896L173.373 162.757L177.524 165.545L177.316 165.684L179.807 167.356L180.015 167.218L184.165 170.005L183.957 170.144L186.448 171.817L186.656 171.678L190.806 174.466L190.598 174.605L193.089 176.277L193.297 176.139L197.448 178.926L197.24 179.065L199.73 180.738L199.938 180.599L204.089 183.387L203.881 183.526L206.371 185.198L206.579 185.06L210.73 187.847L210.522 187.986L213.012 189.659L213.22 189.52L217.371 192.308L217.163 192.446L219.653 194.119L219.861 193.98L224.012 196.768L223.804 196.907L226.294 198.58L226.502 198.441L230.653 201.229L230.445 201.367L232.935 203.04L233.144 202.901L237.294 205.689L237.086 205.828L239.577 207.5L239.785 207.362L243.935 210.15L243.727 210.288L244.973 211.125C245.405 211.415 245.812 211.717 246.192 212.028L246.418 211.903C247.752 212.992 248.774 214.195 249.48 215.458L249.205 215.527C249.632 216.291 249.943 217.077 250.137 217.874L250.425 217.843C250.755 219.201 250.753 220.586 250.418 221.943L250.13 221.911C249.934 222.707 249.62 223.492 249.19 224.255L249.465 224.325C248.754 225.586 247.729 226.785 246.391 227.869L246.165 227.744C245.784 228.053 245.376 228.353 244.942 228.643L243.694 229.475L243.902 229.614L239.742 232.388L239.534 232.248L237.038 233.912L237.245 234.052L233.085 236.825L232.878 236.686L230.382 238.35L230.589 238.489L226.429 241.263L226.221 241.123L223.725 242.787L223.933 242.927L219.772 245.7L219.565 245.561L217.069 247.225L217.276 247.364L213.116 250.138L212.908 249.999L210.412 251.663L210.62 251.802L206.46 254.576L206.252 254.436L203.756 256.1L203.963 256.24L199.803 259.013L199.596 258.874L197.1 260.538L197.307 260.677L193.147 263.451L192.939 263.311L190.443 264.975L190.651 265.115L186.49 267.888L186.283 267.749L183.787 269.413L183.994 269.552L179.834 272.326L179.626 272.187L177.13 273.851L177.338 273.99L173.178 276.764L172.97 276.624L171.722 277.456C171.288 277.745 170.838 278.017 170.374 278.271L170.56 278.423C168.934 279.314 167.139 279.996 165.251 280.467L165.149 280.282C164.008 280.567 162.833 280.774 161.642 280.903L161.688 281.096C159.66 281.315 157.589 281.311 155.562 281.085L155.61 280.892C154.42 280.76 153.246 280.548 152.105 280.26L152.001 280.444C150.116 279.967 148.322 279.279 146.7 278.382L146.888 278.231C146.425 277.975 145.975 277.702 145.542 277.411L144.297 276.575L144.089 276.714L139.939 273.926L140.147 273.787L137.656 272.114L137.448 272.253L133.297 269.465L133.505 269.327L131.015 267.654L130.807 267.793L126.656 265.005L126.864 264.866L124.374 263.194L124.166 263.332L120.015 260.544L120.223 260.406L117.733 258.733L117.525 258.872L113.374 256.084L113.582 255.945L111.092 254.273L110.884 254.411L106.733 251.624L106.941 251.485L104.451 249.812L104.243 249.951L100.092 247.163L100.3 247.024L97.8095 245.352L97.6015 245.49L93.4508 242.703L93.6588 242.564L91.1684 240.891L90.9604 241.03L86.8097 238.242L87.0177 238.103L84.5273 236.431L84.3192 236.569L80.1685 233.782L80.3766 233.643L77.8861 231.97L77.6781 232.109L73.5274 229.321L73.7354 229.183L72.4902 228.346C72.0575 228.056 71.651 227.754 71.2703 227.443L71.0428 227.568C69.709 226.479 68.6874 225.276 67.981 224.013L67.9827 224.013L68.2579 223.944C67.8306 223.18 67.5195 222.393 67.3253 221.596L67.0363 221.627C66.7057 220.27 66.7081 218.884 67.0434 217.528L67.3323 217.56C67.5291 216.764 67.843 215.978 68.2729 215.216L67.9979 215.146L67.9963 215.146C68.7069 213.885 69.7327 212.686 71.0703 211.602L71.2973 211.727C71.6791 211.418 72.0866 211.117 72.5203 210.828L73.7684 209.996L73.5609 209.857L77.7211 207.083L77.9287 207.223L80.4248 205.559L80.2173 205.419L84.3775 202.646L84.5851 202.785L87.0812 201.121L86.8737 200.982L91.0339 198.208L91.2415 198.347L93.7376 196.683L93.5301 196.544L97.6903 193.77L97.8979 193.91L100.394 192.246L100.186 192.106L104.347 189.333L104.554 189.472L107.05 187.808L106.843 187.669L111.003 184.895L111.211 185.035L113.707 183.371L113.499 183.231L117.66 180.458L117.867 180.597L120.363 178.933L120.156 178.794L124.316 176.02L124.523 176.159L127.02 174.495L126.812 174.356L130.972 171.582L131.18 171.722L133.676 170.058L133.469 169.918L137.629 167.145L137.836 167.284L140.332 165.62L140.125 165.481L144.285 162.707Z" stroke="#C8C8C8" stroke-width="0.5" stroke-dasharray="3 5"/>
    <path d="M144.285 178.707L144.493 178.847L145.741 178.015C146.174 177.725 146.625 177.454 147.089 177.2L146.901 177.048C148.527 176.157 150.323 175.475 152.21 175.004L152.21 175.004L152.313 175.189C153.455 174.904 154.63 174.697 155.821 174.568L155.773 174.375C157.801 174.156 159.872 174.159 161.899 174.386L161.852 174.578C163.043 174.711 164.217 174.922 165.358 175.211L165.461 175.027L165.46 175.027C167.346 175.504 169.139 176.192 170.761 177.089L170.575 177.24C171.038 177.496 171.488 177.769 171.92 178.06L173.165 178.896L173.373 178.757L177.524 181.545L177.316 181.684L179.807 183.356L180.015 183.218L184.165 186.005L183.957 186.144L186.448 187.817L186.656 187.678L190.806 190.466L190.598 190.605L193.089 192.277L193.297 192.139L197.448 194.926L197.24 195.065L199.73 196.738L199.938 196.599L204.089 199.387L203.881 199.525L206.371 201.198L206.579 201.059L210.73 203.847L210.522 203.986L213.012 205.659L213.22 205.52L217.371 208.308L217.163 208.446L219.653 210.119L219.861 209.98L224.012 212.768L223.804 212.907L226.294 214.579L226.502 214.441L230.653 217.229L230.445 217.367L232.935 219.04L233.144 218.901L237.294 221.689L237.086 221.828L239.577 223.5L239.785 223.362L243.935 226.149L243.727 226.288L244.973 227.124C245.405 227.415 245.812 227.717 246.192 228.028L246.418 227.903C247.752 228.992 248.774 230.194 249.48 231.458L249.205 231.526C249.632 232.291 249.943 233.077 250.137 233.874L250.425 233.843C250.755 235.201 250.753 236.586 250.418 237.943L250.13 237.911C249.934 238.707 249.62 239.492 249.19 240.255L249.465 240.325C248.754 241.586 247.729 242.785 246.391 243.869L246.165 243.744C245.784 244.053 245.376 244.353 244.942 244.643L243.694 245.475L243.902 245.614L239.742 248.387L239.534 248.248L237.038 249.912L237.245 250.052L233.085 252.825L232.878 252.686L230.382 254.35L230.589 254.489L226.429 257.263L226.221 257.123L223.725 258.787L223.933 258.927L219.772 261.7L219.565 261.561L217.069 263.225L217.276 263.364L213.116 266.138L212.908 265.998L210.412 267.663L210.62 267.802L206.46 270.575L206.252 270.436L203.756 272.1L203.963 272.24L199.803 275.013L199.596 274.874L197.1 276.538L197.307 276.677L193.147 279.451L192.939 279.311L190.443 280.975L190.651 281.115L186.49 283.888L186.283 283.749L183.787 285.413L183.994 285.552L179.834 288.326L179.626 288.186L177.13 289.851L177.338 289.99L173.178 292.763L172.97 292.624L171.722 293.456C171.288 293.745 170.838 294.017 170.374 294.271L170.56 294.423C168.934 295.314 167.139 295.996 165.251 296.467L165.149 296.282C164.008 296.567 162.833 296.774 161.642 296.903L161.688 297.096C159.66 297.315 157.589 297.311 155.562 297.085L155.61 296.892C154.42 296.759 153.246 296.548 152.105 296.26L152.001 296.444C150.116 295.967 148.322 295.279 146.7 294.382L146.888 294.231C146.425 293.975 145.975 293.702 145.542 293.411L144.297 292.575L144.089 292.713L139.939 289.926L140.147 289.787L137.656 288.114L137.448 288.253L133.297 285.465L133.505 285.327L131.015 283.654L130.807 283.793L126.656 281.005L126.864 280.866L124.374 279.193L124.166 279.332L120.015 276.544L120.223 276.406L117.733 274.733L117.525 274.872L113.374 272.084L113.582 271.945L111.092 270.273L110.884 270.411L106.733 267.623L106.941 267.485L104.451 265.812L104.243 265.951L100.092 263.163L100.3 263.024L97.8095 261.352L97.6015 261.49L93.4508 258.703L93.6588 258.564L91.1684 256.891L90.9604 257.03L86.8097 254.242L87.0177 254.103L84.5273 252.431L84.3192 252.569L80.1685 249.782L80.3766 249.643L77.8861 247.97L77.6781 248.109L73.5274 245.321L73.7354 245.183L72.4902 244.346C72.0575 244.056 71.651 243.754 71.2703 243.443L71.0428 243.568C69.709 242.479 68.6874 241.276 67.981 240.013L67.9827 240.013L68.2579 239.944C67.8306 239.18 67.5195 238.393 67.3253 237.596L67.0363 237.627C66.7057 236.27 66.7081 234.884 67.0434 233.528L67.3323 233.56C67.5291 232.764 67.843 231.978 68.2729 231.216L67.9979 231.146L67.9963 231.146C68.7069 229.885 69.7327 228.686 71.0703 227.602L71.2973 227.727C71.6791 227.418 72.0866 227.117 72.5203 226.828L73.7684 225.996L73.5609 225.857L77.7211 223.083L77.9287 223.223L80.4248 221.559L80.2173 221.419L84.3775 218.646L84.5851 218.785L87.0812 217.121L86.8737 216.982L91.0339 214.208L91.2415 214.347L93.7376 212.683L93.5301 212.544L97.6903 209.77L97.8979 209.91L100.394 208.246L100.186 208.106L104.347 205.333L104.554 205.472L107.05 203.808L106.843 203.669L111.003 200.895L111.211 201.035L113.707 199.37L113.499 199.231L117.66 196.458L117.867 196.597L120.363 194.933L120.156 194.794L124.316 192.02L124.523 192.159L127.02 190.495L126.812 190.356L130.972 187.582L131.18 187.722L133.676 186.058L133.469 185.918L137.629 183.145L137.836 183.284L140.332 181.62L140.125 181.481L144.285 178.707Z" stroke="#C8C8C8" stroke-width="0.5" stroke-dasharray="3 5"/>
    <g clip-path="url(#clip0_36649_167745)">
        <path d="M72.5203 150.264L145.741 101.451C152.978 96.6255 164.699 96.6457 171.92 101.496L244.973 150.56C252.193 155.41 252.18 163.253 244.942 168.079L171.722 216.892C164.484 221.717 152.763 221.697 145.542 216.847L72.4902 167.782C65.2693 162.932 65.2828 155.089 72.5203 150.264Z" fill="white" stroke="#C8C8C8" stroke-width="0.5"/>
        <path d="M150.331 211.433C145.746 208.354 145.755 203.374 150.35 200.311C154.945 197.247 162.387 197.26 166.972 200.339C171.556 203.418 171.548 208.398 166.953 211.462C162.357 214.525 154.915 214.512 150.331 211.433Z" fill="#1C1C1C"/>
        <g clip-path="url(#clip1_36649_167745)">
            <rect width="1.25" height="6.25" rx="0.625" transform="matrix(0.83205 -0.5547 0.830139 0.557556 154.496 205.184)" fill="#F2F2F2"/>
            <rect width="1.25" height="6.25" rx="0.625" transform="matrix(0.83205 -0.5547 0.830139 0.557556 156.576 203.797)" fill="#F2F2F2"/>
        </g>
        <path d="M133.434 142.178L184.034 176.163" stroke="#484848" stroke-linecap="round"/>
        <path d="M168.043 136.031L149.421 182.305" stroke="#484848" stroke-linecap="round"/>
        <path d="M124.125 165.316L193.348 153.027" stroke="#484848" stroke-linecap="round"/>
        <path d="M124.145 152.908L193.325 165.434" stroke="#484848" stroke-linecap="round"/>
        <path d="M149.5 136L167.963 182.338" stroke="#484848" stroke-linecap="round"/>
        <path d="M133.379 176.076L184.096 142.264" stroke="#484848" stroke-linecap="round"/>
    </g>
    <path d="M173.178 170.763L172.97 170.624L171.722 171.456C171.288 171.745 170.838 172.017 170.374 172.271L170.561 172.423C168.936 173.314 167.14 173.996 165.253 174.467L165.252 174.466L165.15 174.282C164.008 174.567 162.833 174.774 161.642 174.903L161.69 175.096C159.662 175.315 157.591 175.311 155.564 175.085L155.61 174.892C154.42 174.759 153.246 174.548 152.105 174.26L152.002 174.443L152.003 174.444C150.117 173.967 148.324 173.279 146.702 172.382L146.888 172.231C146.425 171.975 145.975 171.702 145.543 171.411L144.297 170.575L144.089 170.713L139.939 167.926L140.147 167.787L137.656 166.114L137.448 166.253L133.298 163.465L133.506 163.327L131.015 161.654L130.807 161.793L126.656 159.005L126.864 158.866L124.374 157.193L124.166 157.332L120.015 154.544L120.223 154.406L117.733 152.733L117.525 152.872L113.374 150.084L113.582 149.945L111.092 148.273L110.884 148.411L106.733 145.623L106.941 145.485L104.451 143.812L104.243 143.951L100.092 141.163L100.3 141.024L97.8096 139.352L97.6016 139.49L93.4509 136.703L93.6589 136.564L91.1685 134.891L90.9605 135.03L86.8098 132.242L87.0178 132.103L84.5274 130.431L84.3194 130.569L80.1687 127.782L80.3767 127.643L77.8863 125.97L77.6783 126.109L73.5276 123.321L73.7356 123.183L72.4904 122.346C72.0577 122.056 71.6511 121.754 71.2705 121.443L71.0446 121.568C69.7106 120.479 68.6892 119.276 67.9828 118.013L68.2581 117.944C67.8308 117.18 67.5196 116.393 67.3255 115.596L67.0381 115.627C66.7075 114.27 66.7098 112.884 67.0452 111.528L67.3324 111.56C67.5293 110.764 67.8431 109.978 68.2731 109.216L67.998 109.146C68.7088 107.885 69.7343 106.686 71.072 105.602L71.2975 105.727C71.6792 105.418 72.0868 105.117 72.5205 104.828L73.7686 103.996L73.561 103.857L77.7213 101.083L77.9288 101.223L80.425 99.5585L80.2174 99.4191L84.3777 96.6456L84.5852 96.785L87.0814 95.1209L86.8738 94.9815L91.0341 92.208L91.2416 92.3474L93.7378 90.6833L93.5302 90.5439L97.6905 87.7704L97.898 87.9098L100.394 86.2457L100.187 86.1063L104.347 83.3328L104.554 83.4722L107.051 81.8081L106.843 81.6687L111.003 78.8952L111.211 79.0346L113.707 77.3705L113.499 77.2311L117.66 74.4576L117.867 74.597L120.363 72.9329L120.156 72.7935L124.316 70.02L124.524 70.1594L127.02 68.4953L126.812 68.3559L130.973 65.5824L131.18 65.7218L133.676 64.0577L133.469 63.9183L137.629 61.1448L137.836 61.2842L140.333 59.6201L140.125 59.4807L144.285 56.7072L144.493 56.8466L145.741 56.0145C146.175 55.7254 146.625 55.4538 147.089 55.1995L146.903 55.0476C148.529 54.1566 150.324 53.4747 152.211 53.0039L152.313 53.1887C153.455 52.9038 154.63 52.6968 155.821 52.568L155.775 52.3751C157.803 52.1558 159.874 52.1593 161.901 52.3856L161.853 52.5783C163.043 52.7112 164.217 52.9223 165.358 53.2111L165.462 53.0266C167.347 53.504 169.141 54.192 170.763 55.0886L170.575 55.2398C171.038 55.4957 171.488 55.7689 171.92 56.0595L173.166 56.8958L173.374 56.7572L177.524 59.5449L177.316 59.6836L179.807 61.3563L180.015 61.2176L184.165 64.0054L183.957 64.1441L186.448 65.8167L186.656 65.6781L190.807 68.4658L190.599 68.6045L193.089 70.2772L193.297 70.1385L197.448 72.9263L197.24 73.065L199.73 74.7376L199.938 74.599L204.089 77.3867L203.881 77.5254L206.371 79.1981L206.579 79.0594L210.73 81.8472L210.522 81.9859L213.012 83.6585L213.22 83.5199L217.371 86.3076L217.163 86.4463L219.653 88.119L219.861 87.9803L224.012 90.7681L223.804 90.9068L226.295 92.5794L226.503 92.4408L230.653 95.2285L230.445 95.3672L232.936 97.0399L233.144 96.9012L237.294 99.689L237.086 99.8277L239.577 101.5L239.785 101.362L243.935 104.149L243.727 104.288L244.973 105.124C245.405 105.415 245.812 105.717 246.193 106.028L246.42 105.903C247.754 106.992 248.776 108.195 249.482 109.458L249.48 109.458L249.205 109.526C249.632 110.291 249.943 111.077 250.138 111.874L250.427 111.843C250.757 113.2 250.755 114.586 250.42 115.942L250.131 115.911C249.934 116.707 249.62 117.492 249.19 118.255L249.465 118.325L249.467 118.325C248.756 119.585 247.73 120.785 246.393 121.869L246.166 121.744C245.784 122.053 245.376 122.353 244.943 122.642L243.694 123.475L243.902 123.614L239.742 126.387L239.534 126.248L237.038 127.912L237.246 128.052L233.085 130.825L232.878 130.686L230.382 132.35L230.589 132.489L226.429 135.263L226.221 135.123L223.725 136.787L223.933 136.927L219.773 139.7L219.565 139.561L217.069 141.225L217.276 141.364L213.116 144.138L212.909 143.998L210.412 145.663L210.62 145.802L206.46 148.575L206.252 148.436L203.756 150.1L203.964 150.24L199.803 153.013L199.596 152.874L197.1 154.538L197.307 154.677L193.147 157.451L192.939 157.311L190.443 158.975L190.651 159.115L186.491 161.888L186.283 161.749L183.787 163.413L183.994 163.552L179.834 166.326L179.627 166.186L177.13 167.851L177.338 167.99L173.178 170.763Z" stroke="#C8C8C8" stroke-width="0.5" stroke-dasharray="3 5"/>
    <path d="M173.178 154.763L172.97 154.624L171.722 155.456C171.288 155.745 170.838 156.017 170.374 156.271L170.561 156.423C168.936 157.314 167.14 157.996 165.253 158.467L165.252 158.466L165.15 158.282C164.008 158.567 162.833 158.774 161.642 158.903L161.69 159.096C159.662 159.315 157.591 159.311 155.564 159.085L155.61 158.892C154.42 158.759 153.246 158.548 152.105 158.26L152.002 158.443L152.003 158.444C150.117 157.967 148.324 157.279 146.702 156.382L146.888 156.231C146.425 155.975 145.975 155.702 145.543 155.411L144.297 154.575L144.089 154.713L139.939 151.926L140.147 151.787L137.656 150.114L137.448 150.253L133.298 147.465L133.506 147.327L131.015 145.654L130.807 145.793L126.656 143.005L126.864 142.866L124.374 141.193L124.166 141.332L120.015 138.544L120.223 138.406L117.733 136.733L117.525 136.872L113.374 134.084L113.582 133.945L111.092 132.273L110.884 132.411L106.733 129.623L106.941 129.485L104.451 127.812L104.243 127.951L100.092 125.163L100.3 125.024L97.8096 123.352L97.6016 123.49L93.4509 120.703L93.6589 120.564L91.1685 118.891L90.9605 119.03L86.8098 116.242L87.0178 116.103L84.5274 114.431L84.3194 114.569L80.1687 111.782L80.3767 111.643L77.8863 109.97L77.6783 110.109L73.5276 107.321L73.7356 107.183L72.4904 106.346C72.0577 106.056 71.6511 105.754 71.2705 105.443L71.0446 105.568C69.7106 104.479 68.6892 103.276 67.9828 102.013L68.2581 101.944C67.8308 101.18 67.5196 100.393 67.3255 99.5964L67.0381 99.6274C66.7075 98.2701 66.7098 96.8843 67.0452 95.5281L67.3324 95.5601C67.5293 94.764 67.8431 93.9783 68.2731 93.2156L67.998 93.1461C68.7088 91.8851 69.7343 90.686 71.072 89.6017L71.2975 89.727C71.6792 89.4176 72.0868 89.1173 72.5205 88.8281L73.7686 87.9961L73.561 87.8567L77.7213 85.0832L77.9288 85.2226L80.425 83.5585L80.2174 83.4191L84.3777 80.6456L84.5852 80.785L87.0814 79.1209L86.8738 78.9815L91.0341 76.208L91.2416 76.3474L93.7378 74.6833L93.5302 74.5439L97.6905 71.7704L97.898 71.9098L100.394 70.2457L100.187 70.1063L104.347 67.3328L104.554 67.4722L107.051 65.8081L106.843 65.6687L111.003 62.8952L111.211 63.0346L113.707 61.3705L113.499 61.2311L117.66 58.4576L117.867 58.597L120.363 56.9329L120.156 56.7935L124.316 54.02L124.524 54.1594L127.02 52.4953L126.812 52.3559L130.973 49.5824L131.18 49.7218L133.676 48.0577L133.469 47.9183L137.629 45.1448L137.836 45.2842L140.333 43.6201L140.125 43.4807L144.285 40.7072L144.493 40.8466L145.741 40.0145C146.175 39.7254 146.625 39.4538 147.089 39.1995L146.903 39.0476C148.529 38.1566 150.324 37.4747 152.211 37.0039L152.313 37.1887C153.455 36.9038 154.63 36.6968 155.821 36.568L155.775 36.3751C157.803 36.1558 159.874 36.1593 161.901 36.3856L161.853 36.5783C163.043 36.7112 164.217 36.9223 165.358 37.2111L165.462 37.0266C167.347 37.504 169.141 38.192 170.763 39.0886L170.575 39.2398C171.038 39.4957 171.488 39.7689 171.92 40.0595L173.166 40.8958L173.374 40.7572L177.524 43.5449L177.316 43.6836L179.807 45.3563L180.015 45.2176L184.165 48.0054L183.957 48.1441L186.448 49.8167L186.656 49.6781L190.807 52.4658L190.599 52.6045L193.089 54.2772L193.297 54.1385L197.448 56.9263L197.24 57.065L199.73 58.7376L199.938 58.599L204.089 61.3867L203.881 61.5254L206.371 63.1981L206.579 63.0594L210.73 65.8472L210.522 65.9859L213.012 67.6585L213.22 67.5199L217.371 70.3076L217.163 70.4463L219.653 72.119L219.861 71.9803L224.012 74.7681L223.804 74.9068L226.295 76.5794L226.503 76.4408L230.653 79.2285L230.445 79.3672L232.936 81.0399L233.144 80.9012L237.294 83.689L237.086 83.8277L239.577 85.5003L239.785 85.3617L243.935 88.1494L243.727 88.2881L244.973 89.1245C245.405 89.4151 245.812 89.7168 246.193 90.0275L246.42 89.903C247.754 90.9919 248.776 92.1945 249.482 93.458L249.48 93.458L249.205 93.5265C249.632 94.2906 249.943 95.0774 250.138 95.8742L250.427 95.8432C250.757 97.2004 250.755 98.5864 250.42 99.9425L250.131 99.9105C249.934 100.707 249.62 101.492 249.19 102.255L249.465 102.325L249.467 102.325C248.756 103.585 247.73 104.785 246.393 105.869L246.166 105.744C245.784 106.053 245.376 106.353 244.943 106.642L243.694 107.475L243.902 107.614L239.742 110.387L239.534 110.248L237.038 111.912L237.246 112.052L233.085 114.825L232.878 114.686L230.382 116.35L230.589 116.489L226.429 119.263L226.221 119.123L223.725 120.787L223.933 120.927L219.773 123.7L219.565 123.561L217.069 125.225L217.276 125.364L213.116 128.138L212.909 127.998L210.412 129.663L210.62 129.802L206.46 132.575L206.252 132.436L203.756 134.1L203.964 134.24L199.803 137.013L199.596 136.874L197.1 138.538L197.307 138.677L193.147 141.451L192.939 141.311L190.443 142.975L190.651 143.115L186.491 145.888L186.283 145.749L183.787 147.413L183.994 147.552L179.834 150.326L179.627 150.186L177.13 151.851L177.338 151.99L173.178 154.763Z" stroke="#C8C8C8" stroke-width="0.5" stroke-dasharray="3 5"/>
    <path d="M173.178 138.764L172.97 138.624L171.722 139.456C171.288 139.745 170.838 140.017 170.374 140.271L170.561 140.423C168.936 141.314 167.14 141.996 165.253 142.467L165.252 142.466L165.15 142.282C164.008 142.567 162.833 142.774 161.642 142.903L161.69 143.096C159.662 143.315 157.591 143.311 155.564 143.085L155.61 142.892C154.42 142.759 153.246 142.548 152.105 142.26L152.002 142.444L152.003 142.444C150.117 141.967 148.324 141.279 146.702 140.382L146.888 140.231C146.425 139.975 145.975 139.702 145.543 139.411L144.297 138.575L144.089 138.714L139.939 135.926L140.147 135.787L137.656 134.114L137.448 134.253L133.298 131.465L133.506 131.327L131.015 129.654L130.807 129.793L126.656 127.005L126.864 126.866L124.374 125.193L124.166 125.332L120.015 122.544L120.223 122.406L117.733 120.733L117.525 120.872L113.374 118.084L113.582 117.945L111.092 116.273L110.884 116.411L106.733 113.623L106.941 113.485L104.451 111.812L104.243 111.951L100.092 109.163L100.3 109.024L97.8096 107.352L97.6016 107.49L93.4509 104.703L93.6589 104.564L91.1685 102.891L90.9605 103.03L86.8098 100.242L87.0178 100.103L84.5274 98.4308L84.3194 98.5695L80.1687 95.7817L80.3767 95.643L77.8863 93.9703L77.6783 94.109L73.5276 91.3212L73.7356 91.1826L72.4904 90.3462C72.0577 90.0556 71.6511 89.7539 71.2705 89.4431L71.0446 89.5677C69.7106 88.4787 68.6892 87.2762 67.9828 86.0127L68.2581 85.9442C67.8308 85.18 67.5196 84.3933 67.3255 83.5965L67.0381 83.6275C66.7075 82.2701 66.7098 80.8844 67.0452 79.5282L67.3324 79.5602C67.5293 78.764 67.8431 77.9783 68.2731 77.2156L67.998 77.1462C68.7088 75.8851 69.7343 74.6861 71.072 73.6018L71.2975 73.7271C71.6792 73.4176 72.0868 73.1173 72.5205 72.8282L73.7686 71.9961L73.561 71.8567L77.7213 69.0832L77.9288 69.2226L80.425 67.5585L80.2174 67.4191L84.3777 64.6456L84.5852 64.785L87.0814 63.1209L86.8738 62.9815L91.0341 60.208L91.2416 60.3474L93.7378 58.6833L93.5302 58.5439L97.6905 55.7704L97.898 55.9098L100.394 54.2457L100.187 54.1063L104.347 51.3328L104.554 51.4722L107.051 49.8081L106.843 49.6687L111.003 46.8952L111.211 47.0346L113.707 45.3705L113.499 45.2311L117.66 42.4576L117.867 42.597L120.363 40.9329L120.156 40.7935L124.316 38.02L124.524 38.1594L127.02 36.4953L126.812 36.3559L130.973 33.5824L131.18 33.7218L133.676 32.0577L133.469 31.9183L137.629 29.1448L137.836 29.2842L140.333 27.6201L140.125 27.4807L144.285 24.7072L144.493 24.8466L145.741 24.0146C146.175 23.7254 146.625 23.4538 147.089 23.1995L146.903 23.0477C148.529 22.1566 150.324 21.4748 152.211 21.0039L152.313 21.1887C153.455 20.9039 154.63 20.6968 155.821 20.568L155.775 20.3752C157.803 20.1559 159.874 20.1593 161.901 20.3857L161.853 20.5784C163.043 20.7113 164.217 20.9224 165.358 21.2112L165.462 21.0267C167.347 21.5041 169.141 22.192 170.763 23.0887L170.575 23.2399C171.038 23.4958 171.488 23.7689 171.92 24.0596L173.166 24.8959L173.374 24.7572L177.524 27.545L177.316 27.6837L179.807 29.3563L180.015 29.2177L184.165 32.0055L183.957 32.1441L186.448 33.8168L186.656 33.6781L190.807 36.4659L190.599 36.6046L193.089 38.2772L193.297 38.1386L197.448 40.9264L197.24 41.065L199.73 42.7377L199.938 42.599L204.089 45.3868L203.881 45.5255L206.371 47.1981L206.579 47.0595L210.73 49.8473L210.522 49.9859L213.012 51.6586L213.22 51.5199L217.371 54.3077L217.163 54.4464L219.653 56.119L219.861 55.9804L224.012 58.7682L223.804 58.9068L226.295 60.5795L226.503 60.4408L230.653 63.2286L230.445 63.3673L232.936 65.0399L233.144 64.9013L237.294 67.6891L237.086 67.8277L239.577 69.5004L239.785 69.3617L243.935 72.1495L243.727 72.2882L244.973 73.1245C245.405 73.4151 245.812 73.7169 246.193 74.0276L246.42 73.9031C247.754 74.992 248.776 76.1946 249.482 77.458L249.48 77.458L249.205 77.5265C249.632 78.2907 249.943 79.0775 250.138 79.8743L250.427 79.8433C250.757 81.2005 250.755 82.5865 250.42 83.9426L250.131 83.9106C249.934 84.7067 249.62 85.4924 249.19 86.2551L249.465 86.3246L249.467 86.3246C248.756 87.5856 247.73 88.7847 246.393 89.869L246.166 89.7437C245.784 90.0531 245.376 90.3534 244.943 90.6426L243.694 91.4746L243.902 91.614L239.742 94.3875L239.534 94.2481L237.038 95.9122L237.246 96.0516L233.085 98.8251L232.878 98.6857L230.382 100.35L230.589 100.489L226.429 103.263L226.221 103.123L223.725 104.787L223.933 104.927L219.773 107.7L219.565 107.561L217.069 109.225L217.276 109.364L213.116 112.138L212.909 111.999L210.412 113.663L210.62 113.802L206.46 116.575L206.252 116.436L203.756 118.1L203.964 118.24L199.803 121.013L199.596 120.874L197.1 122.538L197.307 122.677L193.147 125.451L192.939 125.311L190.443 126.975L190.651 127.115L186.491 129.888L186.283 129.749L183.787 131.413L183.994 131.552L179.834 134.326L179.627 134.187L177.13 135.851L177.338 135.99L173.178 138.764Z" stroke="#C8C8C8" stroke-width="0.5" stroke-dasharray="3 5"/>
    <defs>
        <clipPath id="clip0_36649_167745">
            <rect width="120" height="120" fill="white" transform="matrix(0.83205 -0.5547 0.830139 0.557556 59 159)"/>
        </clipPath>
        <clipPath id="clip1_36649_167745">
            <rect width="7.5" height="7.5" fill="white" transform="matrix(0.83205 -0.5547 0.830139 0.557556 152.418 205.875)"/>
        </clipPath>
    </defs>
</svg>
