<svg width="29" height="28" viewBox="0 0 29 28" fill="none" xmlns="http://www.w3.org/2000/svg">
    <path d="M13.0955 2.07477C13.5445 0.692806 15.4996 0.692806 15.9487 2.07477L17.8484 7.92162C18.1831 8.95168 19.143 9.64908 20.2261 9.64908H26.3738C27.8269 9.64908 28.4311 11.5085 27.2555 12.3626L22.2819 15.9762C21.4056 16.6128 21.039 17.7412 21.3737 18.7712L23.2734 24.6181C23.7225 26.0001 22.1407 27.1492 20.9652 26.2951L15.9916 22.6816C15.1153 22.045 13.9288 22.045 13.0526 22.6816L8.079 26.2951C6.90343 27.1492 5.3217 26.0001 5.77073 24.6181L7.67049 18.7712C8.00518 17.7412 7.63853 16.6128 6.76231 15.9762L1.78868 12.3626C0.613113 11.5085 1.21728 9.64908 2.67036 9.64908H8.8181C9.90117 9.64908 10.8611 8.95168 11.1957 7.92162L13.0955 2.07477Z" stroke="black"/>
</svg>
