<svg xmlns="http://www.w3.org/2000/svg" width="24" height="24.705883" viewBox="0 0 34 35">
    <path d="M23.434,13.362L23.788,13.716L23.434,14.069L4.15,33.354L3.796,33.707L3.443,33.354L1.11,31.022L0.757,30.668L1.11,30.315L20.395,11.03L20.748,10.677L21.102,11.03L23.434,13.362Z" fill="none" stroke="#ffffff" stroke-width="1"/>
    <path d="M23.08,13.716l-2.332,-2.332l-3.767,3.767l2.332,2.332z" fill="#ffffff"/>
    <path d="M7.563,29.233l-2.332,-2.332l-3.767,3.767l2.332,2.332z" fill="#ffffff"/>
    <path d="M29.4,5.069L30.377,8.697L34.006,9.674L30.377,10.651L29.4,14.28L28.424,10.651L24.795,9.674L28.424,8.697L29.4,5.069Z" fill="#ffffff"/>
    <path d="M24.22,1.615L24.83,3.883L27.098,4.493L24.83,5.104L24.22,7.372L23.609,5.104L21.341,4.493L23.609,3.883L24.22,1.615Z" fill="#ffffff"/>
    <path d="M31.703,0.464L32.069,1.824L33.43,2.191L32.069,2.557L31.703,3.918L31.337,2.557L29.976,2.191L31.337,1.824L31.703,0.464Z" fill="#ffffff"/>
</svg>
