<svg width="29" height="27" viewBox="0 0 29 27" fill="none" xmlns="http://www.w3.org/2000/svg">
    <path d="M12.62 1.62949C13.2187 -0.21313 15.8255 -0.213129 16.4242 1.62949L18.324 7.47634C18.5917 8.30039 19.3596 8.85831 20.2261 8.85831H26.3738C28.3113 8.85831 29.1168 11.3375 27.5494 12.4763L22.5758 16.0899C21.8748 16.5992 21.5815 17.5019 21.8492 18.326L23.749 24.1728C24.3477 26.0154 22.2387 27.5477 20.6713 26.4089L15.6977 22.7953C14.9967 22.286 14.0475 22.286 13.3465 22.7953L8.37289 26.4089C6.80546 27.5477 4.6965 26.0154 5.29521 24.1728L7.19496 18.326C7.46271 17.5019 7.16939 16.5992 6.46842 16.0899L1.49479 12.4763C-0.0726357 11.3375 0.732915 8.85831 2.67036 8.85831H8.8181C9.68456 8.85831 10.4525 8.30039 10.7202 7.47634L12.62 1.62949Z" fill="black"/>
</svg>
