<svg width="32" height="32" viewBox="0 0 32 32" fill="none" xmlns="http://www.w3.org/2000/svg">
<g id="active-score">
<circle id="Ellipse 236838" cx="13.3346" cy="5.33317" r="2.66667" fill="#1C1C1C"/>
<path id="Vector 1384" d="M2.86344 8.25523L6.05432 8.78705C8.23573 9.15062 10.4435 9.33333 12.655 9.33333H14.0091C16.2206 9.33333 18.4283 9.15062 20.6097 8.78705L23.8006 8.25523C24.6023 8.12163 25.332 8.73982 25.332 9.55253C25.332 10.1954 24.8672 10.7441 24.2331 10.8498L17.332 12V28C17.332 28.7364 16.7351 29.3333 15.9987 29.3333C15.2623 29.3333 14.6654 28.7364 14.6654 28V20H11.9987V28C11.9987 28.7364 11.4017 29.3333 10.6654 29.3333C9.92899 29.3333 9.33203 28.7364 9.33203 28V12L2.43101 10.8498C1.79684 10.7441 1.33203 10.1954 1.33203 9.55253C1.33203 8.73982 2.06179 8.12163 2.86344 8.25523Z" fill="#1C1C1C"/>
<path id="Vector 1385" d="M25.332 28L25.332 20" stroke="#1C1C1C" stroke-width="2.66667" stroke-linecap="round"/>
<path id="Vector 1386" d="M21.332 22.6665L24.3892 19.6093C24.9099 19.0886 25.7541 19.0886 26.2748 19.6093L29.332 22.6665" stroke="#1C1C1C" stroke-width="2.66667" stroke-linecap="round"/>
</g>
</svg>
