<svg width="16" height="16" viewBox="0 0 16 16" fill="none" xmlns="http://www.w3.org/2000/svg">
<g id="ai running coach">
<circle id="Ellipse 5" cx="8" cy="8" r="7.5" stroke="#1C1C1C"/>
<path id="Ellipse 6" d="M15.5 8.00037C15.4997 11.1603 12.2518 13.8998 8 13.8998C3.74816 13.8998 0.500267 11.1603 0.5 8.00037C0.5 4.84024 3.74798 2.09998 8 2.09998C12.252 2.09998 15.5 4.84024 15.5 8.00037Z" stroke="#1C1C1C"/>
<path id="Ellipse 7" d="M15.5 8.00024C15.4999 8.26024 15.3698 8.55822 15.0273 8.88208C14.6837 9.20699 14.1596 9.52252 13.4707 9.7981C12.0955 10.3481 10.1617 10.7004 8 10.7004C5.83831 10.7004 3.9045 10.3481 2.5293 9.7981C1.84036 9.52252 1.31625 9.20699 0.972656 8.88208C0.630205 8.55822 0.500065 8.26024 0.5 8.00024C0.5 7.7402 0.630119 7.44137 0.972656 7.11743C1.31626 6.79262 1.84055 6.47691 2.5293 6.20142C3.90449 5.65143 5.83842 5.30005 8 5.30005C10.1616 5.30005 12.0955 5.65143 13.4707 6.20142C14.1594 6.47691 14.6837 6.79262 15.0273 7.11743C15.3699 7.44137 15.5 7.7402 15.5 8.00024Z" stroke="#1C1C1C"/>
</g>
</svg>
