<svg width="16" height="16" viewBox="0 0 16 16" fill="none" xmlns="http://www.w3.org/2000/svg">
<g id="calories" clip-path="url(#clip0_36097_133539)">
<path id="Subtract" fill-rule="evenodd" clip-rule="evenodd" d="M7.99967 0.327828V2.53677C7.99967 3.0228 8.17102 3.43021 8.51371 3.759C8.85641 4.08779 9.27566 4.25218 9.77147 4.25218C10.034 4.25218 10.2782 4.19857 10.5042 4.09136C10.7303 3.98415 10.9308 3.82333 11.1058 3.6089L11.3006 3.37553C11.416 3.23724 11.6141 3.19962 11.7675 3.29398C12.7208 3.88018 13.4846 4.66417 14.0588 5.64595C14.6858 6.71808 14.9993 7.88312 14.9993 9.14109C14.9993 11.0566 14.3213 12.6791 12.9651 14.0086C11.6089 15.338 9.95375 16.0027 7.99967 16.0027C6.0456 16.0027 4.39047 15.338 3.03428 14.0086C1.67809 12.6791 1 11.0566 1 9.14109C1 7.29703 1.6307 5.54588 2.8921 3.88765C4.04461 2.37257 5.56537 1.07827 7.45438 0.00472628C7.6998 -0.134749 7.99967 0.0455412 7.99967 0.327828ZM8.99902 8C8.99902 8.55228 8.55131 9 7.99902 9C7.44674 9 6.99902 8.55228 6.99902 8C6.99902 7.44772 7.44674 7 7.99902 7C8.55131 7 8.99902 7.44772 8.99902 8ZM8.99902 12C8.99902 12.5523 8.55131 13 7.99902 13C7.44674 13 6.99902 12.5523 6.99902 12C6.99902 11.4477 7.44674 11 7.99902 11C8.55131 11 8.99902 11.4477 8.99902 12Z" fill="#484848"/>
</g>
<defs>
<clipPath id="clip0_36097_133539">
<rect width="16" height="16" fill="white"/>
</clipPath>
</defs>
</svg>
