<svg width="16" height="16" viewBox="0 0 16 16" fill="none" xmlns="http://www.w3.org/2000/svg">
<g id="average heart rate">
<path id="favorite" d="M14.0204 6.74392L14.7288 6.99046L14.0204 6.74392C13.8717 7.17108 13.5973 7.67413 13.1704 8.25581C12.744 8.83676 12.1581 9.508 11.404 10.2712C10.6464 11.038 9.68266 11.9552 8.51037 13.0242C8.51013 13.0244 8.50989 13.0246 8.50965 13.0248L8 13.4873L7.49035 13.0248C7.4901 13.0246 7.48986 13.0244 7.48961 13.0242C6.31733 11.9552 5.35361 11.038 4.596 10.2712C3.84187 9.508 3.25603 8.83676 2.82961 8.25581L2.225 8.69959L2.82961 8.25581C2.40266 7.67413 2.12825 7.17108 1.97957 6.74392C1.82597 6.30263 1.75 5.85458 1.75 5.39646C1.75 4.4705 2.04886 3.73717 2.636 3.14294C3.22263 2.54924 3.94292 2.25 4.85 2.25C5.34559 2.25 5.81342 2.35521 6.26141 2.56744C6.71061 2.78024 7.09721 3.07898 7.42568 3.47009L8 4.15391L8.57432 3.47009C8.90279 3.07898 9.28939 2.78024 9.73859 2.56744C10.1866 2.35521 10.6544 2.25 11.15 2.25C12.0571 2.25 12.7774 2.54924 13.364 3.14294C13.9511 3.73717 14.25 4.4705 14.25 5.39646C14.25 5.85458 14.174 6.30263 14.0204 6.74392ZM8.20999 13.6778L8.20966 13.6775L8.20999 13.6778Z" stroke="#FB471F" stroke-width="1.5"/>
</g>
</svg>
