<svg width="32" height="32" viewBox="0 0 32 32" fill="none" xmlns="http://www.w3.org/2000/svg">
<g id="calories" clip-path="url(#clip0_7953_265660)">
<path id="Subtract" fill-rule="evenodd" clip-rule="evenodd" d="M15.9993 0.65712V5.07501C15.9993 6.04707 16.342 6.86189 17.0274 7.51946C17.7128 8.17704 18.5513 8.50582 19.5429 8.50582C20.0679 8.50582 20.5564 8.39861 21.0085 8.18418C21.4606 7.96976 21.8616 7.64812 22.2116 7.21927L22.6011 6.75253C22.832 6.47594 23.2281 6.40071 23.535 6.58942C25.4416 7.76182 26.9691 9.3298 28.1175 11.2934C29.3716 13.4376 29.9987 15.7677 29.9987 18.2836C29.9987 22.1147 28.6425 25.3597 25.9301 28.0186C23.2178 30.6775 19.9075 32.0069 15.9993 32.0069C12.0912 32.0069 8.78093 30.6775 6.06856 28.0186C3.35619 25.3597 2 22.1147 2 18.2836C2 14.5955 3.2614 11.0932 5.7842 7.77677C8.08922 4.74661 11.1307 2.158 14.9088 0.0109174C15.3996 -0.268034 15.9993 0.0925472 15.9993 0.65712ZM18 16.0001C18 17.1047 17.1046 18.0001 16 18.0001C14.8954 18.0001 14 17.1047 14 16.0001C14 14.8955 14.8954 14.0001 16 14.0001C17.1046 14.0001 18 14.8955 18 16.0001ZM18 24.0001C18 25.1047 17.1046 26.0001 16 26.0001C14.8954 26.0001 14 25.1047 14 24.0001C14 22.8955 14.8954 22.0001 16 22.0001C17.1046 22.0001 18 22.8955 18 24.0001Z" fill="#FB471F"/>
</g>
<defs>
<clipPath id="clip0_7953_265660">
<rect width="32" height="32" fill="white"/>
</clipPath>
</defs>
</svg>
