<svg width="16" height="16" viewBox="0 0 16 16" fill="none" xmlns="http://www.w3.org/2000/svg">
<g id="lowest heart rate">
<path id="Union" fill-rule="evenodd" clip-rule="evenodd" d="M7.25 4C7.25 4.41421 7.58579 4.75 8 4.75C8.41421 4.75 8.75 4.41421 8.75 4V2C8.75 1.58579 8.41421 1.25 8 1.25C7.58579 1.25 7.25 1.58579 7.25 2V4ZM11.4697 8.96967L8.75 11.6893L8.75 6.5C8.75 6.08579 8.41421 5.75 8 5.75C7.58579 5.75 7.25 6.08579 7.25 6.5L7.25 11.6893L4.53033 8.96967C4.23744 8.67678 3.76256 8.67678 3.46967 8.96967C3.17678 9.26256 3.17678 9.73744 3.46967 10.0303L7.11612 13.6768C7.60427 14.1649 8.39573 14.1649 8.88388 13.6768L12.5303 10.0303C12.8232 9.73744 12.8232 9.26256 12.5303 8.96967C12.2374 8.67678 11.7626 8.67678 11.4697 8.96967Z" fill="#FB471F"/>
</g>
</svg>
