<svg width="16" height="16" viewBox="0 0 16 16" fill="none" xmlns="http://www.w3.org/2000/svg">
<g id="stride length">
<path id="Union" fill-rule="evenodd" clip-rule="evenodd" d="M11.4697 6.53025L8.75 3.81059V8.99992C8.75 9.41414 8.41421 9.74992 8 9.74992C7.58579 9.74992 7.25 9.41414 7.25 8.99992V3.81058L4.53033 6.53025C4.23744 6.82315 3.76256 6.82315 3.46967 6.53025C3.17678 6.23736 3.17678 5.76249 3.46967 5.46959L7.11612 1.82315C7.60427 1.33499 8.39573 1.33499 8.88388 1.82315L12.5303 5.46959C12.8232 5.76249 12.8232 6.23736 12.5303 6.53025C12.2374 6.82315 11.7626 6.82315 11.4697 6.53025ZM8.75 11.4999C8.75 11.0857 8.41421 10.7499 8 10.7499C7.58579 10.7499 7.25 11.0857 7.25 11.4999V13.4999C7.25 13.9141 7.58579 14.2499 8 14.2499C8.41421 14.2499 8.75 13.9141 8.75 13.4999V11.4999Z" fill="#FB471F"/>
</g>
</svg>
