<svg width="24" height="24" viewBox="0 0 24 24" fill="none" xmlns="http://www.w3.org/2000/svg">
<g id="filter">
<path id="Rectangle 34627277" d="M18 11C18.5523 11 19 11.4477 19 12C19 12.5523 18.5523 13 18 13L6 13C5.44772 13 5 12.5523 5 12C5 11.4477 5.44772 11 6 11L18 11Z" fill="#1C1C1C"/>
<path id="Rectangle 34627278" d="M21 6C21.5523 6 22 6.44772 22 7C22 7.55228 21.5523 8 21 8L3 8C2.44772 8 2 7.55228 2 7C2 6.44771 2.44772 6 3 6L21 6Z" fill="#1C1C1C"/>
<path id="Rectangle 34627279" d="M16 16C16.5523 16 17 16.4477 17 17C17 17.5523 16.5523 18 16 18L8 18C7.44772 18 7 17.5523 7 17C7 16.4477 7.44772 16 8 16L16 16Z" fill="#1C1C1C"/>
</g>
</svg>
