<svg width="32" height="32" viewBox="0 0 32 32" fill="none" xmlns="http://www.w3.org/2000/svg">
<path d="M11 13.999V6.99902C11 4.2376 13.2386 1.99902 16 1.99902V1.99902C18.7614 1.99902 21 4.2376 21 6.99902V13.999" stroke="#1C1C1C" stroke-width="3" stroke-linecap="round"/>
<path fill-rule="evenodd" clip-rule="evenodd" d="M7 11.999C5.89543 11.999 5 12.8945 5 13.999V29.999C5 31.1036 5.89543 31.999 7 31.999H25C26.1046 31.999 27 31.1036 27 29.999V13.999C27 12.8945 26.1046 11.999 25 11.999H7ZM16 25.999C18.2091 25.999 20 24.2082 20 21.999C20 19.7899 18.2091 17.999 16 17.999C13.7909 17.999 12 19.7899 12 21.999C12 24.2082 13.7909 25.999 16 25.999Z" fill="#1C1C1C"/>
</svg>
