<svg width="32" height="32" viewBox="0 0 32 32" fill="none" xmlns="http://www.w3.org/2000/svg">
<g id="Training load">
<path id="Subtract" fill-rule="evenodd" clip-rule="evenodd" d="M1.15309 14.0009C0.438555 15.2385 0.438555 16.7633 1.15309 18.0009L6.84369 27.8573C7.55822 29.0949 8.87872 29.8573 10.3078 29.8573H21.689C23.118 29.8573 24.4386 29.0949 25.1531 27.8573L30.8437 18.0009C31.5582 16.7633 31.5582 15.2385 30.8437 14.0009L25.1531 4.14453C24.4386 2.90693 23.118 2.14453 21.689 2.14453H10.3078C8.87872 2.14453 7.55822 2.90693 6.84368 4.14453L1.15309 14.0009ZM15.998 22.001C19.3118 22.001 21.998 19.3147 21.998 16.001C21.998 12.6873 19.3118 10.001 15.998 10.001C12.6843 10.001 9.99805 12.6873 9.99805 16.001C9.99805 19.3147 12.6843 22.001 15.998 22.001Z" fill="#1C1C1C"/>
</g>
</svg>
