<svg width="32" height="32" viewBox="0 0 32 32" fill="none" xmlns="http://www.w3.org/2000/svg">
<path d="M11 13.999V6.99902C11 4.2376 13.2396 1.99902 16.001 1.99902V1.99902C18.7613 1.99902 21 4.23673 21 6.99707V6.99707" stroke="#1C1C1C" stroke-width="3" stroke-linecap="round"/>
<path fill-rule="evenodd" clip-rule="evenodd" d="M7 11.9971C5.89543 11.9971 5 12.8925 5 13.9971V29.9971C5 31.1016 5.89543 31.9971 7 31.9971H25C26.1046 31.9971 27 31.1016 27 29.9971V13.9971C27 12.8925 26.1046 11.9971 25 11.9971H7ZM16 25.9971C18.2091 25.9971 20 24.2062 20 21.9971C20 19.7879 18.2091 17.9971 16 17.9971C13.7909 17.9971 12 19.7879 12 21.9971C12 24.2062 13.7909 25.9971 16 25.9971Z" fill="#1C1C1C"/>
</svg>
