<svg width="24" height="24" viewBox="0 0 24 24" fill="none" xmlns="http://www.w3.org/2000/svg">
<g id="voice announcement">
<path id="watch" d="M10.4928 22C9.60731 22 8.82725 21.4178 8.57539 20.5689L7.65 17.45C6.85 16.8167 6.20833 16.025 5.725 15.075C5.24167 14.125 5 13.1 5 12C5 10.9 5.24167 9.875 5.725 8.925C6.20833 7.975 6.85 7.18333 7.65 6.55L8.57539 3.43111C8.82725 2.58223 9.60731 2 10.4928 2H13.5072C14.3927 2 15.1727 2.58223 15.4246 3.43111L16.35 6.55C17.15 7.18333 17.7917 7.975 18.275 8.925C18.7583 9.875 19 10.9 19 12C19 13.1 18.7583 14.125 18.275 15.075C17.7917 16.025 17.15 16.8167 16.35 17.45L15.4246 20.5689C15.1727 21.4178 14.3927 22 13.5072 22H10.4928ZM12 17C13.3833 17 14.5625 16.5125 15.5375 15.5375C16.5125 14.5625 17 13.3833 17 12C17 10.6167 16.5125 9.4375 15.5375 8.4625C14.5625 7.4875 13.3833 7 12 7C10.6167 7 9.4375 7.4875 8.4625 8.4625C7.4875 9.4375 7 10.6167 7 12C7 13.3833 7.4875 14.5625 8.4625 15.5375C9.4375 16.5125 10.6167 17 12 17ZM10.1 5.25C10.4333 5.16667 10.7542 5.1 11.0625 5.05C11.3708 5 11.6833 4.975 12 4.975C12.3167 4.975 12.6292 5 12.9375 5.05C13.2458 5.1 13.5667 5.16667 13.9 5.25L13.5 4H10.5L10.1 5.25ZM10.5 20H13.5L13.9 18.75C13.5667 18.8333 13.2458 18.8958 12.9375 18.9375C12.6292 18.9792 12.3167 19 12 19C11.6833 19 11.3708 18.9792 11.0625 18.9375C10.7542 18.8958 10.4333 18.8333 10.1 18.75L10.5 20Z" fill="#F2F2F2"/>
<circle id="Ellipse 236677" cx="12" cy="12" r="2" fill="#F2F2F2"/>
<circle id="Ellipse 236678" cx="23" cy="12" r="1" fill="#F2F2F2"/>
<circle id="Ellipse 236679" cx="1" cy="12" r="1" fill="#F2F2F2"/>
</g>
</svg>
