<svg width="16" height="16" viewBox="0 0 16 16" fill="none" xmlns="http://www.w3.org/2000/svg">
<g id="workout 45deg">
<path id="Union" fill-rule="evenodd" clip-rule="evenodd" d="M3.33447 4.66667C3.33447 4.29848 3.63295 4 4.00114 4C4.36933 4 4.66781 4.29848 4.66781 4.66667V5.979C4.66802 5.98599 4.66813 5.993 4.66813 6.00004V7.33337H11.3345V6.00004V4.66667C11.3345 4.29848 11.6329 4 12.0011 4C12.3693 4 12.6678 4.29848 12.6678 4.66667V5.33337H13.3345C13.7027 5.33337 14.0011 5.63185 14.0011 6.00004V7.33337H14.668C15.0362 7.33337 15.3346 7.63185 15.3346 8.00004C15.3346 8.36823 15.0362 8.66671 14.668 8.66671H14.0011V10C14.0011 10.3682 13.7027 10.6667 13.3345 10.6667H12.6678V11.3333C12.6678 11.7015 12.3693 12 12.0011 12C11.6329 12 11.3345 11.7015 11.3345 11.3333V10V8.66671H4.66813V10C4.66813 10.0071 4.66802 10.0141 4.66781 10.0211V11.3333C4.66781 11.7015 4.36933 12 4.00114 12C3.63295 12 3.33447 11.7015 3.33447 11.3333V10.6667H2.66813C2.29994 10.6667 2.00146 10.3682 2.00146 10L2.00146 8.66671H1.33464C0.966446 8.66671 0.667969 8.36823 0.667969 8.00004C0.667969 7.63185 0.966446 7.33337 1.33464 7.33337H2.00146V6.00004C2.00146 5.63185 2.29994 5.33337 2.66813 5.33337H3.33447V4.66667Z" fill="#FB471F"/>
</g>
</svg>
