<svg width="24" height="24" viewBox="0 0 24 24" fill="none" xmlns="http://www.w3.org/2000/svg">
<rect x="2.75" y="3.75" width="18.5" height="17.5" rx="1.25" stroke="#1C1C1C" stroke-width="1.5"/>
<path d="M6 2C6 1.44772 6.44772 1 7 1C7.55228 1 8 1.44772 8 2V4H6V2Z" fill="#1C1C1C"/>
<rect x="6" y="16" width="2" height="2" rx="0.5" fill="#1C1C1C"/>
<rect x="6" y="12" width="2" height="2" rx="0.5" fill="#1C1C1C"/>
<rect x="11" y="16" width="2" height="2" rx="0.5" fill="#1C1C1C"/>
<rect x="11" y="12" width="2" height="2" rx="0.5" fill="#1C1C1C"/>
<rect x="16" y="16" width="2" height="2" rx="0.5" fill="#1C1C1C"/>
<rect x="16" y="12" width="2" height="2" rx="0.5" fill="#1C1C1C"/>
<path d="M16 2C16 1.44772 16.4477 1 17 1C17.5523 1 18 1.44772 18 2V4H16V2Z" fill="#1C1C1C"/>
<rect x="3" y="7" width="18" height="1.5" fill="#1C1C1C"/>
</svg>
