<svg width="10" height="6" viewBox="0 0 10 6" fill="none" xmlns="http://www.w3.org/2000/svg">
<path id="Union" fill-rule="evenodd" clip-rule="evenodd" d="M8 1C8 1.55228 8.44772 2 9 2C9.55228 2 10 1.55228 10 1C10 0.447715 9.55228 -1.95703e-08 9 -4.37114e-08C8.44772 -6.78525e-08 8 0.447715 8 1ZM7 4C6.44772 4 6 3.55228 6 3C6 2.44772 6.44772 2 7 2C7.55228 2 8 2.44772 8 3C8 3.55228 7.55228 4 7 4ZM5 6C4.44772 6 4 5.55228 4 5C4 4.44772 4.44772 4 5 4C5.55228 4 6 4.44772 6 5C6 5.55228 5.55228 6 5 6ZM3 4C2.44772 4 2 3.55228 2 3C2 2.44771 2.44772 2 3 2C3.55228 2 4 2.44772 4 3C4 3.55228 3.55228 4 3 4ZM-4.37114e-08 1C-6.78525e-08 1.55228 0.447715 2 1 2C1.55229 2 2 1.55228 2 1C2 0.447715 1.55229 -3.69261e-07 1 -3.93402e-07C0.447715 -4.17543e-07 -1.95703e-08 0.447715 -4.37114e-08 1Z" fill="#1C1C1C"/>
</svg>
