<svg width="8" height="14" viewBox="0 0 8 14" fill="none" xmlns="http://www.w3.org/2000/svg">
<g id="chevron right">
<path id="Union" fill-rule="evenodd" clip-rule="evenodd" d="M1 2C1.55228 2 2 1.55228 2 1C2 0.447715 1.55228 0 1 0C0.447715 0 0 0.447715 0 1C0 1.55228 0.447715 2 1 2ZM4 3C4 3.55228 3.55228 4 3 4C2.44772 4 2 3.55228 2 3C2 2.44772 2.44772 2 3 2C3.55228 2 4 2.44772 4 3ZM5 6C5.55228 6 6 5.55228 6 5C6 4.44772 5.55228 4 5 4C4.44772 4 4 4.44772 4 5C4 5.55228 4.44772 6 5 6ZM8 7C8 7.55228 7.55228 8 7 8C6.44772 8 6 7.55228 6 7C6 6.44772 6.44772 6 7 6C7.55228 6 8 6.44772 8 7ZM6 9C6 9.55229 5.55228 10 5 10C4.44772 10 4 9.55229 4 9C4 8.44771 4.44772 8 5 8C5.55228 8 6 8.44771 6 9ZM3 12C3.55228 12 4 11.5523 4 11C4 10.4477 3.55228 10 3 10C2.44772 10 2 10.4477 2 11C2 11.5523 2.44772 12 3 12ZM2 13C2 13.5523 1.55228 14 1 14C0.447715 14 0 13.5523 0 13C0 12.4477 0.447715 12 1 12C1.55228 12 2 12.4477 2 13Z" fill="#1C1C1C"/>
</g>
</svg>
