<svg width="24" height="24" viewBox="0 0 24 24" fill="none" xmlns="http://www.w3.org/2000/svg">
<path d="M18.5397 4.39884C18.8326 4.10594 19.3074 4.10595 19.6003 4.39884C19.8931 4.69173 19.8931 5.1665 19.6003 5.45939L13.0592 11.9994L19.6003 18.5404C19.8931 18.8333 19.893 19.3081 19.6003 19.601C19.3074 19.8939 18.8326 19.8939 18.5397 19.601L11.9987 13.06L5.45866 19.601C5.16577 19.8939 4.69003 19.8939 4.39714 19.601C4.10473 19.3081 4.10447 18.8332 4.39714 18.5404L10.9372 11.9994L4.39714 5.45939C4.10455 5.16659 4.10465 4.69169 4.39714 4.39884C4.69003 4.10595 5.16577 4.10595 5.45866 4.39884L11.9987 10.9389L18.5397 4.39884Z" fill="#1C1C1C"/>
</svg>
