<svg width="16" height="16" viewBox="0 0 16 16" fill="none" xmlns="http://www.w3.org/2000/svg">
<path fill-rule="evenodd" clip-rule="evenodd" d="M1 4C0.447715 4 0 4.44772 0 5V11C0 11.5523 0.447715 12 1 12H3V6.5C3 6.22386 3.22386 6 3.5 6C3.77614 6 4 6.22386 4 6.5V12H12V6.5C12 6.22386 12.2239 6 12.5 6C12.7761 6 13 6.22386 13 6.5V12H15C15.5523 12 16 11.5523 16 11V5C16 4.44772 15.5523 4 15 4H1ZM6 6.5C6 6.22386 6.22386 6 6.5 6C6.77614 6 7 6.22386 7 6.5V8.5C7 8.77614 6.77614 9 6.5 9C6.22386 9 6 8.77614 6 8.5V6.5ZM9.5 6C9.22386 6 9 6.22386 9 6.5V8.5C9 8.77614 9.22386 9 9.5 9C9.77614 9 10 8.77614 10 8.5V6.5C10 6.22386 9.77614 6 9.5 6Z" fill="#484848"/>
</svg>
