<svg width="16" height="16" viewBox="0 0 16 16" fill="none" xmlns="http://www.w3.org/2000/svg">
<path fill-rule="evenodd" clip-rule="evenodd" d="M8 15C11.866 15 15 11.866 15 8C15 4.13401 11.866 1 8 1C4.13401 1 1 4.13401 1 8C1 11.866 4.13401 15 8 15ZM8 3.5C8.27614 3.5 8.5 3.72386 8.5 4L7.64433 8.35143C7.55509 8.26112 7.5 8.13699 7.5 8V7.99991V4C7.5 3.72386 7.72386 3.5 8 3.5ZM8.5 4L7.64671 8.35382L9.64645 10.3536C9.84171 10.5488 10.1583 10.5488 10.3536 10.3536C10.5488 10.1583 10.5488 9.84171 10.3536 9.64645L8.5 7.79289V4Z" fill="#484848"/>
</svg>
