<svg width="24" height="24" viewBox="0 0 24 24" fill="none" xmlns="http://www.w3.org/2000/svg">
<g id="flag">
<rect id="Rectangle 34627358" x="2" y="2.00003" width="2" height="20" rx="1" fill="#F2F2F2"/>
<path id="Vector 1270" d="M3 5.00003H11.5858C11.851 5.00003 12.1054 5.10539 12.2929 5.29292L13.7071 6.70714C13.8946 6.89467 14.149 7.00003 14.4142 7.00003H19C19.5523 7.00003 20 7.44775 20 8.00003V16C20 16.5523 19.5523 17 19 17H14.4142C14.149 17 13.8946 16.8947 13.7071 16.7071L12.2929 15.2929C12.1054 15.1054 11.851 15 11.5858 15H3" stroke="#F2F2F2" stroke-width="2"/>
<rect id="Rectangle 34627361" x="4" y="10" width="2" height="2" fill="#F2F2F2"/>
<rect id="Rectangle 34627360" x="6" y="8.00003" width="2" height="2" fill="#F2F2F2"/>
<rect id="Rectangle 34627365" x="8" y="6.00003" width="2" height="2" fill="#F2F2F2"/>
<rect id="Rectangle 34627366" x="4" y="6.00003" width="2" height="2" fill="#F2F2F2"/>
<rect id="Rectangle 34627362" x="10" y="8.00003" width="2" height="2" fill="#F2F2F2"/>
<rect id="Rectangle 34627363" x="8" y="10" width="2" height="2" fill="#F2F2F2"/>
<rect id="Rectangle 34627364" x="6" y="12" width="2" height="2" fill="#F2F2F2"/>
</g>
</svg>
