<svg width="24" height="24" viewBox="0 0 24 24" fill="none" xmlns="http://www.w3.org/2000/svg">
<path d="M12 1C18.9699 1 23 6.72966 23 12C23 17.2703 18.9699 23 12 23C5.03008 23 1 17.2703 1 12C1 6.72966 5.03008 1 12 1ZM12 2.5C6 2.5 2.5 7.40913 2.5 12C2.5 16.5909 6 21.5 12 21.5C18 21.5 21.5 16.5909 21.5 12C21.5 7.40913 18 2.5 12 2.5ZM11.5 10.25C12.1904 10.25 12.75 10.8096 12.75 11.5V16.25H14C14.4142 16.25 14.75 16.5858 14.75 17C14.75 17.4142 14.4142 17.75 14 17.75H12.5C11.8096 17.75 11.25 17.1904 11.25 16.5V11.75H10C9.58579 11.75 9.25 11.4142 9.25 11C9.25 10.5858 9.58579 10.25 10 10.25H11.5ZM12.0254 6.875C12.5775 6.8752 13.0254 7.32284 13.0254 7.875C13.0254 8.42716 12.5775 8.8748 12.0254 8.875C11.4731 8.875 11.0254 8.42728 11.0254 7.875C11.0254 7.32272 11.4731 6.875 12.0254 6.875Z" fill="#1C1C1C"/>
</svg>
