<svg width="24" height="24" viewBox="0 0 24 24" fill="none" xmlns="http://www.w3.org/2000/svg">
<path fill-rule="evenodd" clip-rule="evenodd" d="M12.0003 6C14.2093 6.0002 16.0003 7.79098 16.0003 10C16.0003 12.209 14.2093 13.9998 12.0003 14C9.79117 14 8.00031 12.2091 8.00031 10C8.00031 7.79086 9.79117 6 12.0003 6ZM12.0003 7.5C10.6196 7.5 9.50031 8.61929 9.50031 10C9.50031 11.3807 10.6196 12.5 12.0003 12.5C13.3809 12.4998 14.5003 11.3806 14.5003 10C14.5003 8.61941 13.3809 7.5002 12.0003 7.5Z" fill="#F2F2F2"/>
<path fill-rule="evenodd" clip-rule="evenodd" d="M12.0003 1C13.669 1.00008 15.3029 1.46407 16.72 2.33691L17.0003 2.5166C18.3876 3.4436 19.4876 4.73721 20.181 6.25L20.3148 6.55664C20.9532 8.0982 21.1501 9.78463 20.8861 11.4277L20.8275 11.7559C20.5019 13.3926 19.7276 14.9043 18.595 16.124L18.3636 16.3643L12.722 22.2471C12.3284 22.6575 11.6713 22.6575 11.2777 22.2471L5.63605 16.3643C4.37745 15.1056 3.52043 13.5016 3.17316 11.7559L3.11457 11.4277C2.85054 9.78463 3.0465 8.09821 3.68488 6.55664L3.81867 6.25C4.46585 4.83803 5.46729 3.6172 6.7259 2.70703L6.99933 2.5166C8.38695 1.58942 10.0039 1.0684 11.6673 1.00684L12.0003 1ZM12.0003 2.5C10.517 2.50005 9.06661 2.94059 7.83332 3.76465C6.60006 4.58875 5.63825 5.75952 5.07062 7.12988C4.50304 8.50019 4.35458 10.0082 4.64387 11.4629C4.93325 12.9177 5.64776 14.2548 6.6966 15.3037L6.71906 15.3252L12.0003 20.832L17.2816 15.3252L17.303 15.3037C18.3519 14.2548 19.0664 12.9177 19.3558 11.4629C19.6451 10.0081 19.4966 8.50023 18.929 7.12988C18.3614 5.75949 17.3996 4.58874 16.1663 3.76465C14.9331 2.94068 13.4834 2.50012 12.0003 2.5Z" fill="#F2F2F2"/>
</svg>
