<svg width="24" height="24" viewBox="0 0 24 24" fill="none" xmlns="http://www.w3.org/2000/svg">
<path d="M12 18.5C12.6904 18.5 13.25 19.0596 13.25 19.75C13.25 20.4404 12.6904 21 12 21C11.3096 21 10.75 20.4404 10.75 19.75C10.75 19.0596 11.3096 18.5 12 18.5Z" fill="#1C1C1C"/>
<path d="M12 10.75C12.6904 10.75 13.25 11.3096 13.25 12C13.25 12.6904 12.6904 13.25 12 13.25C11.3096 13.25 10.75 12.6904 10.75 12C10.75 11.3096 11.3096 10.75 12 10.75Z" fill="#1C1C1C"/>
<path d="M12 3C12.6904 3 13.25 3.55964 13.25 4.25C13.25 4.94036 12.6904 5.5 12 5.5C11.3096 5.5 10.75 4.94036 10.75 4.25C10.75 3.55964 11.3096 3 12 3Z" fill="#1C1C1C"/>
</svg>
