<svg xmlns="http://www.w3.org/2000/svg" width="24" height="24" viewBox="0 0 48 48">
    <path d="M15.642,11C15.206,11 14.789,11.147 14.481,11.408C14.173,11.669 14,12.023 14,12.393V35.607C14,36.376 14.736,37 15.642,37H18.925C19.361,37 19.778,36.853 20.086,36.592C20.394,36.331 20.567,35.977 20.567,35.607V12.393C20.567,12.023 20.394,11.669 20.086,11.408C19.778,11.147 19.361,11 18.925,11H15.642Z" fill="#000000"/>
    <path d="M27.914,11.408C28.222,11.147 28.639,11 29.075,11H32.358C32.794,11 33.211,11.147 33.519,11.408C33.827,11.669 34,12.023 34,12.393V35.607C34,35.977 33.827,36.331 33.519,36.592C33.211,36.853 32.794,37 32.358,37H29.075C28.168,37 27.433,36.376 27.433,35.607V12.393C27.433,12.023 27.606,11.669 27.914,11.408Z" fill="#000000"/>
</svg>
