<svg width="24" height="24" viewBox="0 0 24 24" fill="none" xmlns="http://www.w3.org/2000/svg">
<path d="M11 3C15.8689 3 19.832 6.86637 19.9922 11.6963L21.7197 9.96973C22.0126 9.67688 22.4874 9.67685 22.7803 9.96973C23.0731 10.2626 23.0731 10.7374 22.7803 11.0303L19.8857 13.9248C19.5344 14.2755 18.9656 14.2755 18.6143 13.9248L15.7197 11.0303C15.4268 10.7374 15.4268 10.2626 15.7197 9.96973C16.0126 9.67688 16.4874 9.67685 16.7803 9.96973L18.4912 11.6807C18.3239 7.68669 15.0351 4.5 11 4.5C6.85786 4.5 3.5 7.85786 3.5 12C3.5 16.1421 6.85786 19.5 11 19.5C12.1905 19.5 13.3159 19.2216 14.3154 18.7275C14.8296 18.4736 15.4999 18.8181 15.5 19.3916C15.5 19.6399 15.3687 19.8716 15.1484 19.9863C13.9069 20.633 12.4966 21 11 21C6.02944 21 2 16.9706 2 12C2 7.02944 6.02944 3 11 3Z" fill="#EC232B"/>
</svg>
