<svg width="24" height="24" viewBox="0 0 24 24" fill="none" xmlns="http://www.w3.org/2000/svg">
<path fill-rule="evenodd" clip-rule="evenodd" d="M9.75 2.25C13.8921 2.25 17.25 5.60786 17.25 9.75C17.25 11.5509 16.6136 13.2022 15.5557 14.4951L21.5303 20.4697C21.8232 20.7626 21.8232 21.2374 21.5303 21.5303C21.2374 21.8232 20.7626 21.8232 20.4697 21.5303L14.4951 15.5557C13.2022 16.6136 11.5509 17.25 9.75 17.25C5.60786 17.25 2.25 13.8921 2.25 9.75C2.25 5.60786 5.60786 2.25 9.75 2.25ZM9.75 3.75C6.43629 3.75 3.75 6.43629 3.75 9.75C3.75 13.0637 6.43629 15.75 9.75 15.75C13.0637 15.75 15.75 13.0637 15.75 9.75C15.75 6.43629 13.0637 3.75 9.75 3.75Z" fill="#1C1C1C"/>
</svg>
