<svg width="24" height="24" viewBox="0 0 24 24" fill="none" xmlns="http://www.w3.org/2000/svg">
<path fill-rule="evenodd" clip-rule="evenodd" d="M12 1C12.5523 1 13 1.44772 13 2V3.05664C13.9172 3.15806 14.7925 3.39701 15.6055 3.75293L16.1338 2.83984C16.4099 2.36156 17.0217 2.19752 17.5 2.47363C17.9783 2.74977 18.1423 3.36155 17.8662 3.83984L17.3379 4.75391C18.0651 5.29052 18.7084 5.93398 19.2451 6.66113L20.1602 6.13379C20.6384 5.85765 21.2502 6.02171 21.5264 6.5C21.8025 6.97829 21.6384 7.59008 21.1602 7.86621L20.2461 8.39355C20.6023 9.20686 20.8419 10.0823 20.9434 11H22C22.5523 11 23 11.4477 23 12C23 12.5523 22.5523 13 22 13H20.9434C20.8419 13.9174 20.6021 14.7924 20.2461 15.6055L21.1602 16.1338C21.6384 16.4099 21.8025 17.0217 21.5264 17.5C21.2502 17.9783 20.6384 18.1423 20.1602 17.8662L19.2451 17.3379C18.7084 18.0651 18.0651 18.7084 17.3379 19.2451L17.8662 20.1602C18.1423 20.6384 17.9783 21.2502 17.5 21.5264C17.0217 21.8025 16.4099 21.6384 16.1338 21.1602L15.6055 20.2461C14.7924 20.6021 13.9173 20.8409 13 20.9424V22C13 22.5523 12.5523 23 12 23C11.4477 23 11 22.5523 11 22V20.9424C10.0824 20.8409 9.20683 20.6023 8.39355 20.2461L7.86621 21.1602C7.59008 21.6384 6.97829 21.8025 6.5 21.5264C6.02171 21.2502 5.85766 20.6384 6.13379 20.1602L6.66113 19.2451C5.93398 18.7084 5.29052 18.0651 4.75391 17.3379L3.83984 17.8662C3.36155 18.1423 2.74977 17.9783 2.47363 17.5C2.19752 17.0217 2.36156 16.4099 2.83984 16.1338L3.75293 15.6055C3.39701 14.7925 3.15806 13.9172 3.05664 13H2C1.44772 13 1 12.5523 1 12C1 11.4477 1.44772 11 2 11H3.05664C3.15809 10.0825 3.39681 9.20676 3.75293 8.39355L2.83984 7.86621C2.36156 7.59008 2.19752 6.97829 2.47363 6.5C2.74977 6.02171 3.36155 5.85765 3.83984 6.13379L4.75391 6.66113C5.29055 5.934 5.934 5.29055 6.66113 4.75391L6.13379 3.83984C5.85766 3.36155 6.02171 2.74977 6.5 2.47363C6.97829 2.19752 7.59008 2.36156 7.86621 2.83984L8.39355 3.75293C9.20676 3.39681 10.0825 3.15809 11 3.05664V2C11 1.44772 11.4477 1 12 1ZM14.9033 12.7422C14.5727 14.0396 13.4003 15 12 15C11.7196 15 11.4489 14.9587 11.1914 14.8867C11.1792 14.916 11.1657 14.9454 11.1494 14.9736L8.91797 18.8369C9.8584 19.2615 10.9011 19.5 12 19.5C15.889 19.5 19.0856 16.5399 19.4619 12.75H15C14.9672 12.75 14.935 12.7463 14.9033 12.7422ZM7.62012 5.91309C5.73083 7.27493 4.5 9.49317 4.5 12C4.5 14.5066 5.7311 16.7241 7.62012 18.0859L9.85059 14.2236C9.86688 14.1954 9.88506 14.1688 9.9043 14.1436C9.34727 13.5989 9 12.8406 9 12C9 11.1591 9.34698 10.4002 9.9043 9.85547C9.88522 9.83037 9.86676 9.80438 9.85059 9.77637L7.62012 5.91309ZM12 10.5C11.1716 10.5 10.5 11.1716 10.5 12C10.5 12.8284 11.1716 13.5 12 13.5C12.8284 13.5 13.5 12.8284 13.5 12C13.5 11.1716 12.8284 10.5 12 10.5ZM12 4.5C10.9013 4.5 9.85831 4.73761 8.91797 5.16211L11.1494 9.02637C11.1656 9.05436 11.1792 9.08326 11.1914 9.1123C11.4488 9.04038 11.7196 9 12 9C13.4 9 14.5723 9.95992 14.9033 11.2568C14.935 11.2528 14.9672 11.25 15 11.25H19.4619C19.0856 7.46006 15.889 4.5 12 4.5Z" fill="#1C1C1C"/>
</svg>
