<svg width="24" height="24" viewBox="0 0 24 24" fill="none" xmlns="http://www.w3.org/2000/svg">
<g clip-path="url(#clip0_656_6263)">
<path d="M8.49682 19.7458C11.6268 21.1607 15.4377 20.5829 18.0103 18.0105C20.449 15.5718 21.0954 12.0201 19.9507 8.99074C19.837 8.6898 19.8965 8.34608 20.124 8.11859C20.4932 7.74964 21.1143 7.84629 21.3055 8.33197C22.7191 11.9234 21.9742 16.1679 19.071 19.0712C15.9048 22.2371 11.1438 22.8363 7.37401 20.8686L6.31542 21.9272C6.02939 22.2132 5.53913 22.059 5.46883 21.6607L4.82318 18.0029C4.70265 17.3194 5.29847 16.7239 5.9819 16.8442L9.63965 17.4898C10.038 17.5601 10.1928 18.0497 9.90689 18.3357L8.49682 19.7458Z" fill="#1C1C1C"/>
<path d="M4.92883 4.92902C8.09497 1.76288 12.856 1.16387 16.6258 3.13156L17.6851 2.07228C17.9711 1.78632 18.4607 1.94119 18.531 2.33951L19.1766 5.99727C19.2969 6.6807 18.7014 7.27652 18.0179 7.15599L14.3601 6.51034C13.9618 6.44004 13.8076 5.94978 14.0936 5.66375L15.503 4.25437C12.373 2.83946 8.56207 3.4171 5.98949 5.98968C3.551 8.42833 2.90521 11.9795 4.04978 15.0087C4.16348 15.3096 4.10385 15.6534 3.87646 15.8809C3.50729 16.2501 2.88616 16.1533 2.69495 15.6675C1.2815 12.0762 2.02574 7.83227 4.92883 4.92902Z" fill="#1C1C1C"/>
</g>
<defs>
<clipPath id="clip0_656_6263">
<rect width="24" height="24" fill="white"/>
</clipPath>
</defs>
</svg>
