<svg width="24" height="24" viewBox="0 0 24 24" fill="none" xmlns="http://www.w3.org/2000/svg">
<path d="M17.1263 11.4701C17.4192 11.1772 17.894 11.1772 18.1869 11.4701L19.601 12.8842C21.4559 14.7392 21.4559 17.746 19.601 19.601C17.746 21.4559 14.7391 21.4559 12.8842 19.601L11.4701 18.1869C11.1772 17.894 11.1772 17.4192 11.4701 17.1264C11.763 16.8338 12.2379 16.8336 12.5306 17.1264L13.9447 18.5404C15.2139 19.8096 17.2712 19.8096 18.5404 18.5404C19.8096 17.2712 19.8096 15.2139 18.5404 13.9447L17.1263 12.5306C16.8336 12.2379 16.8337 11.763 17.1263 11.4701Z" fill="#EC232B"/>
<path d="M19.2445 3.69276C19.5374 3.4001 20.0122 3.39997 20.3051 3.69276C20.5979 3.98558 20.5977 4.46039 20.3051 4.7533L4.74842 20.3099C4.45552 20.6028 3.98074 20.6028 3.68787 20.3099C3.39503 20.0171 3.39506 19.5423 3.68787 19.2494L19.2445 3.69276Z" fill="#EC232B"/>
<path d="M4.39881 4.39881C6.2538 2.54382 9.26159 2.54382 11.1166 4.39881L12.5306 5.81287C12.8233 6.10572 12.8233 6.58057 12.5306 6.87342C12.2378 7.16625 11.763 7.16613 11.4701 6.87342L10.0551 5.45936C8.78584 4.1903 6.72851 4.1902 5.45935 5.45936C4.19021 6.72851 4.1903 8.78585 5.45935 10.0551L6.87342 11.4701C7.16612 11.763 7.16625 12.2378 6.87342 12.5306C6.58057 12.8233 6.10571 12.8233 5.81287 12.5306L4.39881 11.1166C2.54382 9.2616 2.54382 6.2538 4.39881 4.39881Z" fill="#EC232B"/>
</svg>
