<svg width="24" height="24" viewBox="0 0 24 24" fill="none" xmlns="http://www.w3.org/2000/svg">
<g id="show password">
<rect id="Rectangle 34627958" x="7" y="7" width="10" height="10" rx="5" stroke="#1C1C1C" stroke-width="2"/>
<path id="Vector 1393" d="M22.6207 12.3793L22.6207 12.3793C21.951 13.049 21.6162 13.3838 21.3172 13.6504C16.0078 18.3845 7.99223 18.3845 2.68282 13.6504C2.38379 13.3838 2.04897 13.049 1.37931 12.3793C1.35539 12.3554 1.34344 12.3434 1.33391 12.3328C1.16484 12.1431 1.16484 11.8569 1.33391 11.6672C1.34344 11.6566 1.35539 11.6446 1.37931 11.6207C2.04897 10.951 2.38379 10.6162 2.68282 10.3496C7.99223 5.61546 16.0078 5.61546 21.3172 10.3496C21.6162 10.6162 21.951 10.951 22.6207 11.6207L22.6207 11.6207C22.6446 11.6446 22.6566 11.6566 22.6661 11.6672C22.8352 11.8569 22.8352 12.1431 22.6661 12.3328C22.6566 12.3434 22.6446 12.3554 22.6207 12.3793Z" stroke="#1C1C1C" stroke-width="2"/>
<circle id="Ellipse 236841" cx="12" cy="3" r="1" fill="#1C1C1C"/>
<circle id="Ellipse 236843" cx="18" cy="4" r="1" fill="#1C1C1C"/>
<circle id="Ellipse 236842" cx="6" cy="4" r="1" fill="#1C1C1C"/>
</g>
</svg>
