<svg width="134" height="59" viewBox="0 0 134 59" fill="none" xmlns="http://www.w3.org/2000/svg">
<rect x="0.544922" y="29.5402" width="1.59174" height="14.3256" fill="#323232"/>
<rect x="24.8193" y="29.5402" width="0.795869" height="14.3256" fill="#323232"/>
<rect x="34.7676" y="29.5401" width="6.36695" height="14.3256" fill="#323232"/>
<rect x="50.6855" y="29.5401" width="1.59174" height="14.3256" fill="#323232"/>
<rect x="68.1934" y="29.5402" width="14.7236" height="14.3256" fill="#323232"/>
<rect x="101.62" y="29.5401" width="15.1215" height="14.3256" fill="#323232"/>
<rect x="127.088" y="29.5401" width="6.36695" height="14.3256" fill="#323232"/>
<rect x="90.876" y="29.5401" width="1.59174" height="14.3256" fill="#323232"/>
<rect x="2.13672" y="43.866" width="22.6823" height="14.3256" fill="#D71921"/>
<rect x="41.1338" y="43.866" width="9.55042" height="14.3256" fill="#D71921"/>
<rect x="82.918" y="43.866" width="7.95869" height="14.3256" fill="#D71921"/>
<rect x="25.6143" y="15.2147" width="9.15249" height="14.3256" fill="#777777"/>
<rect x="52.2764" y="15.2147" width="12.336" height="14.3256" fill="#777777"/>
<rect x="92.4678" y="15.2146" width="9.15249" height="14.3256" fill="#777777"/>
<rect x="116.344" y="15.2147" width="10.7442" height="14.3256" fill="#777777"/>
<rect x="64.6123" y="0.888977" width="3.18347" height="14.3256" fill="#E3E3E3"/>
<rect x="21.6357" y="0.888916" width="3.97934" height="14.3256" fill="#E3E3E3"/>
</svg>
