<svg width="134" height="28" viewBox="0 0 134 28" fill="none" xmlns="http://www.w3.org/2000/svg">
<g clip-path="url(#clip0_1137_3041)">
<rect x="42.873" y="10.1268" width="1.69312" height="5.07936" rx="0.846561" fill="#F2F2F2"/>
<rect x="37.7939" y="12.6666" width="1.69312" height="5.07936" rx="0.846561" fill="#F2F2F2"/>
<rect x="47.9521" y="0.814697" width="1.69312" height="27.0899" rx="0.846561" fill="#F2F2F2"/>
<rect x="53.0322" y="6.7406" width="1.69312" height="11.0053" rx="0.846561" fill="#F2F2F2"/>
<rect x="58.1113" y="2.50781" width="1.69312" height="15.2381" rx="0.846561" fill="#F2F2F2"/>
<rect x="63.1904" y="0.814697" width="1.69312" height="20.3175" rx="0.846561" fill="#EC232B"/>
<rect x="7.31738" y="5.04749" width="1.69312" height="16.9312" rx="0.846561" fill="#F2F2F2"/>
<rect x="12.3965" y="8.43372" width="1.69312" height="13.545" rx="0.846561" fill="#F2F2F2"/>
<rect x="17.4766" y="8.43372" width="1.69312" height="16.0847" rx="0.846561" fill="#F2F2F2"/>
<rect x="22.5557" y="0.814697" width="1.69312" height="12.6984" rx="0.846561" fill="#F2F2F2"/>
<rect x="27.6348" y="10.9734" width="1.69312" height="16.9312" rx="0.846561" fill="#F2F2F2"/>
<rect x="32.7139" y="5.89404" width="1.69312" height="16.9312" rx="0.846561" fill="#F2F2F2"/>
<rect x="124.143" y="13.5131" width="1.69312" height="1.69312" rx="0.846561" fill="#484848"/>
<rect x="119.063" y="13.5131" width="1.69312" height="1.69312" rx="0.846561" fill="#484848"/>
<rect x="68.2695" y="13.5131" width="1.69312" height="1.69312" rx="0.846561" fill="#484848"/>
<rect x="73.3496" y="13.5131" width="1.69312" height="1.69312" rx="0.846561" fill="#484848"/>
<rect x="78.4287" y="13.5131" width="1.69312" height="1.69312" rx="0.846561" fill="#484848"/>
<rect x="83.5078" y="13.5131" width="1.69312" height="1.69312" rx="0.846561" fill="#484848"/>
<rect x="88.5869" y="13.5131" width="1.69312" height="1.69312" rx="0.846561" fill="#484848"/>
<rect x="93.667" y="13.5131" width="1.69312" height="1.69312" rx="0.846561" fill="#484848"/>
<rect x="98.7461" y="13.5131" width="1.69312" height="1.69312" rx="0.846561" fill="#484848"/>
<rect x="103.825" y="13.5131" width="1.69312" height="1.69312" rx="0.846561" fill="#484848"/>
<rect x="113.984" y="13.5131" width="1.69312" height="1.69312" rx="0.846561" fill="#484848"/>
<rect x="108.904" y="13.5131" width="1.69312" height="1.69312" rx="0.846561" fill="#484848"/>
</g>
<defs>
<clipPath id="clip0_1137_3041">
<rect width="132.91" height="27.0899" fill="white" transform="translate(0.544922 0.814819)"/>
</clipPath>
</defs>
</svg>
