<svg width="157" height="32" viewBox="0 0 157 32" fill="none" xmlns="http://www.w3.org/2000/svg">
<rect x="50" y="11" width="2" height="6" rx="1" fill="#F2F2F2"/>
<rect x="44" y="14" width="2" height="6" rx="1" fill="#F2F2F2"/>
<rect x="56" width="2" height="32" rx="1" fill="#F2F2F2"/>
<rect x="62" y="7" width="2" height="13" rx="1" fill="#F2F2F2"/>
<rect x="68" y="2" width="2" height="18" rx="1" fill="#F2F2F2"/>
<rect x="74" width="2" height="24" rx="1" fill="#EC232B"/>
<rect x="8" y="5" width="2" height="20" rx="1" fill="#F2F2F2"/>
<rect x="14" y="9" width="2" height="16" rx="1" fill="#F2F2F2"/>
<rect x="20" y="9" width="2" height="19" rx="1" fill="#F2F2F2"/>
<rect x="26" width="2" height="15" rx="1" fill="#F2F2F2"/>
<rect x="32" y="12" width="2" height="20" rx="1" fill="#F2F2F2"/>
<rect x="38" y="6" width="2" height="20" rx="1" fill="#F2F2F2"/>
<rect x="146" y="15" width="2" height="2" rx="1" fill="#484848"/>
<rect x="140" y="15" width="2" height="2" rx="1" fill="#484848"/>
<rect x="80" y="15" width="2" height="2" rx="1" fill="#484848"/>
<rect x="86" y="15" width="2" height="2" rx="1" fill="#484848"/>
<rect x="92" y="15" width="2" height="2" rx="1" fill="#484848"/>
<rect x="98" y="15" width="2" height="2" rx="1" fill="#484848"/>
<rect x="104" y="15" width="2" height="2" rx="1" fill="#484848"/>
<rect x="110" y="15" width="2" height="2" rx="1" fill="#484848"/>
<rect x="116" y="15" width="2" height="2" rx="1" fill="#484848"/>
<rect x="122" y="15" width="2" height="2" rx="1" fill="#484848"/>
<rect x="134" y="15" width="2" height="2" rx="1" fill="#484848"/>
<rect x="128" y="15" width="2" height="2" rx="1" fill="#484848"/>
</svg>
