<svg width="24" height="24" viewBox="0 0 24 24" fill="none" xmlns="http://www.w3.org/2000/svg">
    <circle cx="12" cy="12" r="9" stroke="#F2F2F2" stroke-width="2"/>
    <rect x="11" y="5" width="2" height="6" rx="1" fill="#F2F2F2"/>
    <path d="M9 8.89731C9 7.96684 8.0024 7.43048 7.40389 8.14291C6.52772 9.18585 6 10.5313 6 12C6 15.3137 8.68629 18 12 18C15.3137 18 18 15.3137 18 12C18 10.5313 17.4723 9.18585 16.5961 8.14291C15.9976 7.43048 15 7.96684 15 8.89731C15 9.19174 15.1137 9.47178 15.2823 9.71321C15.7347 10.3613 16 11.1497 16 12C16 14.2092 14.2091 16 12 16C9.79086 16 8 14.2092 8 12C8 11.1497 8.26534 10.3613 8.71775 9.71321C8.88627 9.47178 9 9.19174 9 8.89731Z" fill="#F2F2F2"/>
</svg>
