<svg width="24" height="24" viewBox="0 0 24 24" fill="none" xmlns="http://www.w3.org/2000/svg">
<g clip-path="url(#clip0_272_106)">
<path d="M9.75769 3.02807C10.9511 1.68541 13.0489 1.68541 14.2423 3.02807L14.9202 3.79075C15.6363 4.59642 16.5935 5.1491 17.6493 5.36642L18.6488 5.57214C20.4082 5.93431 21.4572 7.7511 20.8911 9.45593L20.5695 10.4243C20.2298 11.4473 20.2298 12.5527 20.5695 13.5757L20.8911 14.5441C21.4572 16.2489 20.4082 18.0657 18.6488 18.4279L17.6493 18.6336C16.5936 18.8509 15.6363 19.4036 14.9202 20.2092L14.2423 20.9719C13.0489 22.3146 10.9511 22.3146 9.75769 20.9719L9.07981 20.2092C8.36372 19.4036 7.40645 18.8509 6.35068 18.6336L5.35124 18.4279C3.59176 18.0657 2.54284 16.2489 3.10893 14.5441L3.43049 13.5757C3.77017 12.5527 3.77017 11.4473 3.43049 10.4243L3.10893 9.45593C2.54284 7.7511 3.59176 5.93431 5.35124 5.57214L6.35068 5.36642C7.40645 5.1491 8.36372 4.59642 9.07981 3.79075L9.75769 3.02807Z" stroke="#1C1C1C" stroke-width="2"/>
<path fill-rule="evenodd" clip-rule="evenodd" d="M12 1.02106C10.9029 1.02106 9.80582 1.46861 9.01023 2.36372L8.33234 3.12641C7.75948 3.77094 6.99366 4.21308 6.14904 4.38693L5.1496 4.59266C2.80363 5.07555 1.40507 7.49794 2.15985 9.77105L2.48141 10.7395C2.75316 11.5578 2.75316 12.4421 2.48141 13.2605L2.15985 14.2289C1.40507 16.502 2.80363 18.9244 5.1496 19.4073L6.14904 19.613C6.99366 19.7869 7.75948 20.229 8.33234 20.8736L9.01023 21.6362C9.80582 22.5314 10.9029 22.9789 12 22.9789V1.02106Z" fill="#1C1C1C"/>
</g>
<defs>
<clipPath id="clip0_272_106">
<rect width="24" height="24" fill="white"/>
</clipPath>
</defs>
</svg>
