<svg width="20" height="20" viewBox="0 0 20 20" fill="none" xmlns="http://www.w3.org/2000/svg">
<g id="thumb_up">
<mask id="mask0_1884_37412" style="mask-type:alpha" maskUnits="userSpaceOnUse" x="0" y="0" width="20" height="20">
<rect id="Bounding box" width="20" height="20" transform="matrix(1 0 0 -1 0 20)" fill="#D9D9D9"/>
</mask>
<g mask="url(#mask0_1884_37412)">
<path id="thumb_up_2" d="M15.0052 2.49984H5.83854V13.3332L11.6719 19.1665L12.7135 18.1248C12.8108 18.0276 12.8906 17.8957 12.9531 17.729C13.0156 17.5623 13.0469 17.4026 13.0469 17.2498V16.9582L12.1302 13.3332H17.5052C17.9497 13.3332 18.3385 13.1665 18.6719 12.8332C19.0052 12.4998 19.1719 12.1109 19.1719 11.6665V9.99984C19.1719 9.90262 19.158 9.79845 19.1302 9.68734C19.1024 9.57623 19.0747 9.47206 19.0469 9.37484L16.5469 3.49984C16.4219 3.22206 16.2135 2.98595 15.9219 2.7915C15.6302 2.59706 15.3247 2.49984 15.0052 2.49984ZM7.50521 4.1665H15.0052L17.5052 9.99984V11.6665H10.0052L11.1302 16.2498L7.50521 12.6248V4.1665ZM5.83854 13.3332V11.6665H3.33854V4.1665H5.83854V2.49984H1.67188V13.3332H5.83854Z" fill="#F2F2F2"/>
</g>
</g>
</svg>
