<svg width="24" height="24" viewBox="0 0 24 24" fill="none" xmlns="http://www.w3.org/2000/svg">
<g id="warranty" clip-path="url(#clip0_832_96)">
<path id="Star 4" d="M9.75781 3.02832C10.9139 1.72757 12.9188 1.68673 14.1279 2.90625L14.2422 3.02832L14.9199 3.79102C15.5911 4.54619 16.4746 5.0785 17.4521 5.32129L17.6494 5.36621L18.6484 5.57227C20.353 5.92312 21.391 7.63902 20.9395 9.2959L20.8906 9.45605L20.5693 10.4248C20.251 11.3837 20.2312 12.4149 20.5098 13.3828L20.5693 13.5752L20.8906 14.5439C21.439 16.1955 20.4722 17.9522 18.8115 18.3896L18.6484 18.4277L17.6494 18.6338C16.6596 18.8375 15.7567 19.3362 15.0576 20.0615L14.9199 20.209L14.2422 20.9717C13.0861 22.2724 11.0812 22.3133 9.87207 21.0938L9.75781 20.9717L9.08008 20.209C8.40886 19.4538 7.52537 18.9215 6.54785 18.6787L6.35059 18.6338L5.35156 18.4277C3.64705 18.0769 2.60903 16.361 3.06055 14.7041L3.10938 14.5439L3.43066 13.5752C3.74895 12.6163 3.7688 11.5851 3.49023 10.6172L3.43066 10.4248L3.10938 9.45605C2.56097 7.80448 3.52782 6.04776 5.18848 5.61035L5.35156 5.57227L6.35059 5.36621C7.34037 5.16248 8.24331 4.66384 8.94238 3.93848L9.08008 3.79102L9.75781 3.02832Z" stroke="#1C1C1C" stroke-width="2"/>
<path id="Vector 1307" d="M8 12.8621L10.1433 15.4612C10.57 15.9785 11.3749 15.9376 11.7469 15.3797L16 9" stroke="#1C1C1C" stroke-width="2" stroke-linecap="round"/>
</g>
<defs>
<clipPath id="clip0_832_96">
<rect width="24" height="24" fill="white"/>
</clipPath>
</defs>
</svg>
