<svg width="24" height="24" viewBox="0 0 24 24" fill="none" xmlns="http://www.w3.org/2000/svg">
<g id="send-feedback">
<path id="Subtract" fill-rule="evenodd" clip-rule="evenodd" d="M2 7C2 5.34315 3.34315 4 5 4H19C20.6569 4 22 5.34315 22 7V11H24V7C24 4.23858 21.7614 2 19 2H5C2.23858 2 0 4.23858 0 7V13C0 15.4597 1.77612 17.5046 4.11581 17.9221L3.18491 20.1562C2.62142 21.5086 4.13183 22.7837 5.37052 22.0014L11.706 18H13V16H11.1273L5.63905 19.4663L7.08333 16H5C3.34315 16 2 14.6569 2 13V7Z" fill="#1C1C1C"/>
<circle id="Ellipse 236815" cx="23" cy="11" r="1" fill="#1C1C1C"/>
<circle id="Ellipse 236816" cx="13" cy="17" r="1" fill="#1C1C1C"/>
<path id="Vector 1453" d="M19 13L22.6464 16.6464C22.8417 16.8417 22.8417 17.1583 22.6464 17.3536L19 21" stroke="#1C1C1C" stroke-width="2" stroke-linecap="round"/>
<rect id="Rectangle 34628057" x="16" y="16" width="6" height="2" rx="1" fill="#1C1C1C"/>
<rect id="Rectangle 34627857" x="8" y="8" width="2" height="2" rx="1" fill="#1C1C1C"/>
<rect id="Rectangle 34627859" x="12" y="8" width="2" height="2" rx="1" fill="#1C1C1C"/>
<rect id="Rectangle 34627858" x="4" y="8" width="2" height="2" rx="1" fill="#1C1C1C"/>
<rect id="Rectangle 34627861" x="6" y="6" width="2" height="2" rx="1" fill="#1C1C1C"/>
<rect id="Rectangle 34627862" x="10" y="6" width="2" height="2" rx="1" fill="#1C1C1C"/>
<rect id="Rectangle 34627863" x="14" y="6" width="2" height="2" rx="1" fill="#1C1C1C"/>
</g>
</svg>
