<svg width="20" height="20" viewBox="0 0 20 20" fill="none" xmlns="http://www.w3.org/2000/svg">
<g id="thumb_up">
<mask id="mask0_1884_37408" style="mask-type:alpha" maskUnits="userSpaceOnUse" x="0" y="0" width="20" height="20">
<rect id="Bounding box" width="20" height="20" fill="#D9D9D9"/>
</mask>
<g mask="url(#mask0_1884_37408)">
<path id="thumb_up_2" d="M14.9974 17.5002H5.83073V6.66683L11.6641 0.833496L12.7057 1.87516C12.803 1.97238 12.8828 2.10433 12.9453 2.271C13.0078 2.43766 13.0391 2.59738 13.0391 2.75016V3.04183L12.1224 6.66683H17.4974C17.9418 6.66683 18.3307 6.8335 18.6641 7.16683C18.9974 7.50016 19.1641 7.88905 19.1641 8.3335V10.0002C19.1641 10.0974 19.1502 10.2016 19.1224 10.3127C19.0946 10.4238 19.0668 10.5279 19.0391 10.6252L16.5391 16.5002C16.4141 16.7779 16.2057 17.0141 15.9141 17.2085C15.6224 17.4029 15.3168 17.5002 14.9974 17.5002ZM7.4974 15.8335H14.9974L17.4974 10.0002V8.3335H9.9974L11.1224 3.75016L7.4974 7.37516V15.8335ZM5.83073 6.66683V8.3335H3.33073V15.8335H5.83073V17.5002H1.66406V6.66683H5.83073Z" fill="white"/>
</g>
</g>
</svg>
