<svg width="24" height="24" viewBox="0 0 24 24" fill="none" xmlns="http://www.w3.org/2000/svg">
<g id="construction">
<mask id="mask0_1613_23127" style="mask-type:alpha" maskUnits="userSpaceOnUse" x="0" y="0" width="24" height="24">
<rect id="Bounding box" width="24" height="24" fill="#D9D9D9"/>
</mask>
<g mask="url(#mask0_1613_23127)">
<path id="construction_2" d="M18.9 21L13.425 15.525L15.525 13.425L21 18.9L18.9 21ZM5.1 21L3 18.9L9.9 12L8.2 10.3L7.5 11L6.225 9.72501V11.775L5.525 12.475L2.5 9.45001L3.2 8.75001H5.25L4 7.50001L7.55 3.95001C7.88333 3.61667 8.24167 3.37501 8.625 3.22501C9.00833 3.07501 9.4 3.00001 9.8 3.00001C10.2 3.00001 10.5917 3.07501 10.975 3.22501C11.3583 3.37501 11.7167 3.61667 12.05 3.95001L9.75 6.25001L11 7.50001L10.3 8.20001L12 9.90001L14.25 7.65001C14.1833 7.46667 14.1292 7.27501 14.0875 7.07501C14.0458 6.87501 14.025 6.67501 14.025 6.47501C14.025 5.49167 14.3625 4.66251 15.0375 3.98751C15.7125 3.31251 16.5417 2.97501 17.525 2.97501C17.775 2.97501 18.0125 3.00001 18.2375 3.05001C18.4625 3.10001 18.6917 3.17501 18.925 3.27501L16.45 5.75001L18.25 7.55001L20.725 5.07501C20.8417 5.30834 20.9208 5.53751 20.9625 5.76251C21.0042 5.98751 21.025 6.22501 21.025 6.47501C21.025 7.45834 20.6875 8.28751 20.0125 8.96251C19.3375 9.63751 18.5083 9.97501 17.525 9.97501C17.325 9.97501 17.125 9.95834 16.925 9.92501C16.725 9.89167 16.5333 9.83334 16.35 9.75001L5.1 21Z" fill="#1C1C1C"/>
</g>
</g>
</svg>
