<svg width="24" height="24" viewBox="0 0 24 24" fill="none" xmlns="http://www.w3.org/2000/svg">
<path d="M9.31805 2.55017C10.0403 2.91863 10.6682 3.43859 11.2046 4.12387L11.2046 4.1239C11.609 4.64059 12.391 4.64064 12.7954 4.12387C13.3318 3.43859 13.9597 2.91863 14.682 2.55017C15.405 2.18127 16.157 2 16.95 2C18.396 2 19.5669 2.51396 20.5307 3.56434C21.499 4.61976 22 5.93906 22 7.59401C22 8.4082 21.8744 9.20363 21.6222 9.98401C21.376 10.7457 20.9285 11.6233 20.2487 12.6207C19.5692 13.6176 18.6402 14.7631 17.4507 16.0596C16.2564 17.3612 14.739 18.9165 12.895 20.7273C12.8948 20.7275 12.8946 20.7277 12.8943 20.7279L12.6989 20.9189C12.3103 21.2986 11.6897 21.2986 11.3011 20.9189L11.1057 20.7279C11.1054 20.7276 11.1051 20.7274 11.1048 20.7271C9.26095 18.9164 7.74351 17.3612 6.54935 16.0596C5.35981 14.7631 4.43079 13.6176 3.75132 12.6207C3.0715 11.6233 2.62397 10.7457 2.37778 9.98401C2.12556 9.20363 2 8.4082 2 7.59401C2 5.93907 2.501 4.61976 3.46935 3.56434C4.43308 2.51396 5.60403 2 7.05 2C7.84296 2 8.59497 2.18127 9.31805 2.55017Z" stroke="#1C1C1C" stroke-width="2"/>
<rect x="11" y="15" width="2" height="2" rx="1" fill="#1C1C1C"/>
<rect x="11" y="11" width="2" height="2" rx="1" fill="#1C1C1C"/>
<rect x="15" y="11" width="2" height="2" rx="1" fill="#1C1C1C"/>
<rect x="7" y="11" width="2" height="2" rx="1" fill="#1C1C1C"/>
<rect x="5" y="9" width="2" height="2" rx="1" fill="#1C1C1C"/>
<rect x="9" y="9" width="2" height="2" rx="1" fill="#1C1C1C"/>
<rect x="13" y="9" width="2" height="2" rx="1" fill="#1C1C1C"/>
<rect x="17" y="9" width="2" height="2" rx="1" fill="#1C1C1C"/>
<rect x="9" y="13" width="2" height="2" rx="1" fill="#1C1C1C"/>
<rect x="13" y="13" width="2" height="2" rx="1" fill="#1C1C1C"/>
</svg>
