<svg width="34" height="34" viewBox="0 0 34 34" fill="none" xmlns="http://www.w3.org/2000/svg">
<path fill-rule="evenodd" clip-rule="evenodd" d="M18.0059 1.4979C18.0059 0.945613 17.5581 0.497898 17.0059 0.497898C16.4536 0.497898 16.0059 0.945613 16.0059 1.4979V15.9999H1.49805C0.945762 15.9999 0.498047 16.4476 0.498047 16.9999C0.498047 17.5521 0.945762 17.9999 1.49805 17.9999H16.0059V32.5021C16.0059 33.0544 16.4536 33.5021 17.0059 33.5021C17.5581 33.5021 18.0059 33.0544 18.0059 32.5021V17.9999H32.5023C33.0545 17.9999 33.5023 17.5521 33.5023 16.9999C33.5023 16.4476 33.0545 15.9999 32.5023 15.9999H18.0059V1.4979Z" fill="#1C1C1C"/>
</svg>
