<svg width="24" height="24" viewBox="0 0 24 24" fill="none" xmlns="http://www.w3.org/2000/svg">
<g id="blood-oxygen-monitoring">
<rect id="Rectangle 34627868" x="8" y="9" width="7" height="7" rx="3.5" stroke="#1C1C1C" stroke-width="2"/>
<path id="Subtract" d="M12.6471 0.238066C12.2703 -0.0689387 11.7297 -0.0689384 11.3529 0.238066L6.0305 4.57484C3.48011 6.65293 2 9.76819 2 13.058V14.0007C2 19.5236 6.47715 24.0007 12 24.0007C12.7995 24.0007 13.5772 23.9069 14.3224 23.7296C14.7294 23.6329 15 23.2583 15 22.84C15 22.1608 14.3074 21.6932 13.6425 21.832C13.1124 21.9426 12.563 22.0007 12 22.0007C7.58172 22.0007 4 18.419 4 14.0007V13.058C4 10.3695 5.20959 7.82359 7.29384 6.12531L12 2.29066L16.7062 6.12531C17.2269 6.54962 17.6931 7.02685 18.0994 7.54599C18.3169 7.82391 18.6436 8.00069 18.9966 8.00069C19.8001 8.00069 20.3043 7.15182 19.8234 6.50814C19.2922 5.79715 18.6714 5.14672 17.9695 4.57484L12.6471 0.238066Z" fill="#1C1C1C"/>
<path id="Vector 1083" d="M17 14L17.0257 13.923C17.3089 13.0732 18.1042 12.5 19 12.5V12.5H19.3715C20.2709 12.5 21 13.2291 21 14.1285V14.1285C21 14.673 20.7279 15.1814 20.2748 15.4834L17.3321 17.4453C17.0828 17.6115 17.2004 18 17.5 18V18H21" stroke="#1C1C1C" stroke-width="2" stroke-linecap="round"/>
</g>
</svg>
