<svg width="32" height="32" viewBox="0 0 32 32" fill="none" xmlns="http://www.w3.org/2000/svg">
<g id="_progress_flower_shape">
<path id="Subtract" fill-rule="evenodd" clip-rule="evenodd" d="M11.6693 13.5001C11.1944 14.3226 11.3268 15.329 11.9272 16.0003C11.3272 16.6716 11.195 17.6777 11.6697 18.5C12.1446 19.3225 13.0823 19.7111 13.9639 19.5266C14.245 20.3822 15.0503 21 15.9999 21C16.9494 21 17.7547 20.3823 18.0359 19.5268C18.9171 19.7107 19.8543 19.3221 20.3289 18.4999C20.8036 17.6777 20.6715 16.6715 20.0714 16.0002C20.6719 15.329 20.8042 14.3225 20.3294 13.5C19.8547 12.6777 18.9172 12.2891 18.0359 12.4733C17.7547 11.6177 16.9494 11 15.9999 11C15.0503 11 14.2449 11.6178 13.9639 12.4735C13.0822 12.2888 12.1442 12.6774 11.6693 13.5001ZM16 16.05C16.0276 16.05 16.05 16.0276 16.05 16C16.05 15.9724 16.0276 15.95 16 15.95C15.9724 15.95 15.95 15.9724 15.95 16C15.95 16.0276 15.9724 16.05 16 16.05Z" fill="#929292"/>
</g>
</svg>
