<svg width="38" height="40" viewBox="0 0 38 40" fill="none" xmlns="http://www.w3.org/2000/svg">
<path id="flower" fill-rule="evenodd" clip-rule="evenodd" d="M2.63802 20C0.236692 17.3149 -0.292444 13.2896 1.60682 10C3.50616 6.71025 7.25697 5.15588 10.7832 5.89317C11.9078 2.47094 15.1293 0 18.9279 0C22.7263 0 25.9477 2.47084 27.0725 5.89297C30.5984 5.15615 34.3487 6.71055 36.2479 10C38.1472 13.2896 37.618 17.3149 35.2167 20C37.618 22.6851 38.1471 26.7104 36.2479 30C34.3487 33.2895 30.5984 34.8439 27.0725 34.1071C25.9477 37.5292 22.7263 40 18.9279 40C15.1293 40 11.9079 37.5291 10.7832 34.1069C7.25698 34.8442 3.50617 33.2898 1.60682 30C-0.292443 26.7104 0.236692 22.6851 2.63802 20Z" fill="#EC232B"/>
</svg>
