<svg width="32" height="32" viewBox="0 0 32 32" fill="none" xmlns="http://www.w3.org/2000/svg">
<g id="Property 1=Final">
<path id="Subtract" fill-rule="evenodd" clip-rule="evenodd" d="M3.87516 9.00001C2.54568 11.3027 2.91608 14.1204 4.597 16C2.91608 17.8796 2.54568 20.6973 3.87516 23C5.20471 25.3029 7.83028 26.3909 10.2986 25.8748C11.0859 28.2704 13.3409 30 15.9999 30C18.6588 30 20.9138 28.2704 21.7011 25.8749C24.1693 26.3907 26.7945 25.3026 28.1239 23C29.4534 20.6973 29.083 17.8796 27.4021 16C29.083 14.1204 29.4534 11.3027 28.1239 9.00001C26.7945 6.69738 24.1693 5.60931 21.7011 6.12508C20.9138 3.72959 18.6588 2 15.9999 2C13.3409 2 11.0859 3.72966 10.2986 6.12522C7.83027 5.60911 5.20471 6.69718 3.87516 9.00001ZM16 20C18.2091 20 20 18.2091 20 16C20 13.7909 18.2091 12 16 12C13.7909 12 12 13.7909 12 16C12 18.2091 13.7909 20 16 20Z" fill="#EC232B"/>
</g>
</svg>
