<svg width="16" height="16" viewBox="0 0 16 16" fill="none" xmlns="http://www.w3.org/2000/svg">
<g id="night sleep">
<mask id="mask0_25257_255041" style="mask-type:alpha" maskUnits="userSpaceOnUse" x="0" y="0" width="16" height="16">
<rect id="Bounding box" width="16" height="16" fill="#D9D9D9"/>
</mask>
<g mask="url(#mask0_25257_255041)">
<path id="bedtime" d="M8.06927 14.6673C7.13594 14.6673 6.26094 14.4895 5.44427 14.134C4.6276 13.7784 3.91649 13.2979 3.31094 12.6923C2.70538 12.0868 2.22483 11.3757 1.86927 10.559C1.51372 9.74232 1.33594 8.86732 1.33594 7.93398C1.33594 6.31176 1.8526 4.88121 2.88594 3.64232C3.91927 2.40343 5.23594 1.63398 6.83594 1.33398C6.63594 2.43398 6.69705 3.50898 7.01927 4.55898C7.34149 5.60898 7.89705 6.52843 8.68594 7.31732C9.47483 8.10621 10.3943 8.66176 11.4443 8.98398C12.4943 9.30621 13.5693 9.36732 14.6693 9.16732C14.3804 10.7673 13.6137 12.084 12.3693 13.1173C11.1248 14.1507 9.69149 14.6673 8.06927 14.6673Z" fill="#484848"/>
</g>
</g>
</svg>
