<svg width="14" height="14" viewBox="0 0 14 14" fill="none" xmlns="http://www.w3.org/2000/svg">
<path id="Subtract" d="M7 0C10.866 0 14 3.13401 14 7C14 10.866 10.866 14 7 14C3.13401 14 0 10.866 0 7C0 3.13401 3.13401 0 7 0ZM5.91602 5.72266C5.7821 5.52187 5.52778 5.44893 5.3125 5.53613L5.22266 5.58398C4.52865 6.04665 3.63762 6.07561 2.91895 5.6709L2.77734 5.58398L2.6875 5.53613C2.47223 5.44889 2.21793 5.52189 2.08398 5.72266C1.94997 5.92367 1.98087 6.18638 2.14453 6.35156L2.22266 6.41602L2.42773 6.54199C3.4726 7.13076 4.76823 7.08875 5.77734 6.41602L5.85547 6.35156C6.01907 6.18638 6.05001 5.92365 5.91602 5.72266ZM11.916 5.72266C11.7821 5.52182 11.5278 5.44893 11.3125 5.53613L11.2227 5.58398C10.5287 6.04666 9.63762 6.07561 8.91895 5.6709L8.77734 5.58398L8.6875 5.53613C8.47221 5.44885 8.21794 5.52186 8.08398 5.72266C7.94996 5.92369 7.98083 6.18639 8.14453 6.35156L8.22266 6.41602L8.42773 6.54199C9.4726 7.13077 10.7682 7.08876 11.7773 6.41602L11.8555 6.35156C12.0191 6.18638 12.05 5.92365 11.916 5.72266Z" fill="#484848"/>
</svg>
