<svg width="24" height="24" viewBox="0 0 24 24" fill="none" xmlns="http://www.w3.org/2000/svg">
<g id="heart rate monitoring">
<path id="Vector 1267" d="M2.5 10H7.75969C7.91158 10 8.05524 10.069 8.15012 10.1877L11.4006 14.2508C11.6532 14.5665 12.1566 14.4674 12.2707 14.0795L14.0705 7.96014C14.2068 7.49705 14.8552 7.4767 15.0201 7.93035L16.3803 11.6709C16.4522 11.8685 16.64 12 16.8502 12H21" stroke="#1C1C1C" stroke-width="2" stroke-linecap="round"/>
<path id="Subtract" d="M9.7725 1.6594C10.0436 1.79772 10.3029 1.95385 10.5505 2.12778L10.5561 2.13172C11.079 2.50001 11.5492 2.94789 11.9667 3.47536L11.9921 3.50759C11.9961 3.51272 12.0039 3.51272 12.0079 3.50759L12.0333 3.47536C12.4508 2.94789 12.921 2.50001 13.4439 2.13172L13.4495 2.12778C13.6971 1.95385 13.9564 1.79772 14.2275 1.6594C15.0892 1.2198 15.9967 1 16.95 1C18.6733 1 20.1125 1.62943 21.2675 2.88828C22.4225 4.14714 23 5.71571 23 7.59401C23 7.72977 22.9969 7.8651 22.9907 8H21C21.008 7.86528 21 7.72996 21 7.59401C21 6.16242 20.5755 5.09238 19.7938 4.2404C19.0214 3.39849 18.1186 3 16.95 3C16.3174 3 15.7209 3.14275 15.1364 3.44095C14.55 3.74012 14.0339 4.16402 13.5829 4.74022C12.7781 5.76853 11.2218 5.76848 10.4171 4.74022C9.96614 4.16402 9.45003 3.74012 8.8636 3.44095C8.2791 3.14275 7.68258 3 7.05 3C5.88139 3 4.97865 3.39849 4.2062 4.2404C3.42451 5.09238 3 6.16242 3 7.59401C3 8.30323 3.10903 8.99491 3.32932 9.67646C3.53753 10.3207 3.93301 11.1117 4.57764 12.0575C5.22158 13.0023 6.11712 14.1094 7.2862 15.3836C8.46445 16.6678 9.96836 18.2095 11.8043 20.0124L11.8063 20.0144L12 20.2037L12.1937 20.0144L12.1955 20.0126C14.0315 18.2096 15.5355 16.6678 16.7138 15.3836C16.8887 15.193 17.0574 15.0062 17.2201 14.8231C17.6087 14.3856 18.2876 14.3558 18.7014 14.7695C19.0686 15.1367 19.0935 15.7248 18.749 16.1134C18.5682 16.3174 18.381 16.5248 18.1875 16.7357C16.9775 18.0545 15.4467 19.6231 13.595 21.4414L13.3978 21.6341C12.6206 22.3935 11.3794 22.3935 10.6022 21.6341L10.405 21.4414C8.55333 19.6231 7.0225 18.0545 5.8125 16.7357C4.6025 15.4169 3.64 14.233 2.925 13.1839C2.21 12.1349 1.71042 11.1708 1.42625 10.2916C1.14208 9.41235 1 8.51317 1 7.59401C1 5.71571 1.5775 4.14714 2.7325 2.88828C3.8875 1.62943 5.32667 1 7.05 1C8.00333 1 8.91083 1.2198 9.7725 1.6594Z" fill="#1C1C1C"/>
<circle id="Ellipse 236686" cx="22" cy="8" r="1" fill="#1C1C1C"/>
</g>
</svg>
