<svg width="32" height="32" viewBox="0 0 32 32" fill="none" xmlns="http://www.w3.org/2000/svg">
<g id="heart ">
<mask id="mask0_25257_123261" style="mask-type:alpha" maskUnits="userSpaceOnUse" x="0" y="0" width="32" height="32">
<rect id="Bounding box" width="32" height="32" fill="#D9D9D9"/>
</mask>
<g mask="url(#mask0_25257_123261)">
<path id="favorite" d="M15.9974 27.9999L14.0641 26.2665C11.8196 24.2443 9.96406 22.4999 8.4974 21.0332C7.03073 19.5665 5.86406 18.2499 4.9974 17.0832C4.13073 15.9165 3.52517 14.8443 3.18073 13.8665C2.83628 12.8888 2.66406 11.8888 2.66406 10.8665C2.66406 8.77765 3.36406 7.0332 4.76406 5.6332C6.16406 4.2332 7.90851 3.5332 9.9974 3.5332C11.153 3.5332 12.253 3.77765 13.2974 4.26654C14.3418 4.75543 15.2418 5.44431 15.9974 6.3332C16.753 5.44431 17.653 4.75543 18.6974 4.26654C19.7418 3.77765 20.8418 3.5332 21.9974 3.5332C24.0863 3.5332 25.8307 4.2332 27.2307 5.6332C28.6307 7.0332 29.3307 8.77765 29.3307 10.8665C29.3307 11.8888 29.1585 12.8888 28.8141 13.8665C28.4696 14.8443 27.8641 15.9165 26.9974 17.0832C26.1307 18.2499 24.9641 19.5665 23.4974 21.0332C22.0307 22.4999 20.1752 24.2443 17.9307 26.2665L15.9974 27.9999Z" fill="#1C1C1C"/>
</g>
</g>
</svg>
