<svg width="24" height="24" viewBox="0 0 24 24" fill="none" xmlns="http://www.w3.org/2000/svg">
<g id="advanced-sleep-monitoring" clip-path="url(#clip0_12638_146788)">
<rect id="Rectangle 34627929" x="22" y="10" width="2" height="2" rx="1" fill="#1C1C1C"/>
<rect id="Rectangle 34627931" x="17" y="10" width="2" height="2" rx="1" fill="#1C1C1C"/>
<rect id="Rectangle 34627930" y="10" width="2" height="2" rx="1" fill="#1C1C1C"/>
<path id="nightlight" d="M16.0009 18.5725C15.0972 18.9407 14.1723 19.1151 13.2263 19.0957C12.2803 19.0763 11.3847 18.8887 10.5393 18.5327C9.69392 18.1768 8.93376 17.6673 8.25881 17.0042C7.58386 16.341 7.06228 15.5576 6.69409 14.6539C6.32141 13.7391 6.14588 12.8115 6.16752 11.871C6.18915 10.9305 6.37794 10.0376 6.73388 9.19224C7.08982 8.34687 7.59935 7.58671 8.26246 6.91176C8.92557 6.23681 9.709 5.71524 10.6127 5.34705C11.2079 5.10458 11.8179 4.94599 12.4429 4.87129C12.7766 4.8314 13.107 4.81485 13.4341 4.82163C13.8158 4.82955 13.9988 5.26871 13.8014 5.59555C13.3128 6.40465 12.9937 7.2878 12.8439 8.24501C12.6496 9.48715 12.8039 10.7254 13.3068 11.9598C13.8097 13.1942 14.5647 14.1877 15.5717 14.9404C16.3477 15.5205 17.1932 15.9291 18.1081 16.1664C18.4777 16.2623 18.6537 16.7043 18.3862 16.9767C18.1569 17.2102 17.909 17.4292 17.6425 17.6339C17.1433 18.0172 16.5961 18.3301 16.0009 18.5725Z" stroke="#1C1C1C" stroke-width="2"/>
</g>
<defs>
<clipPath id="clip0_12638_146788">
<rect width="24" height="24" fill="white"/>
</clipPath>
</defs>
</svg>
