<svg width="32" height="32" viewBox="0 0 32 32" fill="none" xmlns="http://www.w3.org/2000/svg">
<g id="Frame 427322456">
<path id="Subtract" fill-rule="evenodd" clip-rule="evenodd" d="M32 16C32 24.8366 24.8366 32 16 32C7.16344 32 0 24.8366 0 16C0 7.16344 7.16344 0 16 0C24.8366 0 32 7.16344 32 16ZM10.2857 13.1429C10.2857 14.0896 9.5182 14.8571 8.57143 14.8571C7.62465 14.8571 6.85714 14.0896 6.85714 13.1429C6.85714 12.1961 7.62465 11.4286 8.57143 11.4286C9.5182 11.4286 10.2857 12.1961 10.2857 13.1429ZM23.4286 14.8571C24.3753 14.8571 25.1429 14.0896 25.1429 13.1429C25.1429 12.1961 24.3753 11.4286 23.4286 11.4286C22.4818 11.4286 21.7143 12.1961 21.7143 13.1429C21.7143 14.0896 22.4818 14.8571 23.4286 14.8571Z" fill="#1C1C1C"/>
</g>
</svg>
