<svg width="32" height="32" viewBox="0 0 32 32" fill="none" xmlns="http://www.w3.org/2000/svg">
<g id="Stress emojis">
<path id="Subtract" fill-rule="evenodd" clip-rule="evenodd" d="M16 32C24.8366 32 32 24.8366 32 16C32 7.16344 24.8366 0 16 0C7.16344 0 0 7.16344 0 16C0 24.8366 7.16344 32 16 32ZM10.6667 12C10.6667 12.7364 10.0697 13.3333 9.33335 13.3333C8.59697 13.3333 8.00002 12.7364 8.00002 12C8.00002 11.2636 8.59697 10.6667 9.33335 10.6667C10.0697 10.6667 10.6667 11.2636 10.6667 12ZM8.38463 22.2564C13.2585 20.2256 18.7416 20.2256 23.6154 22.2564C24.1252 22.4688 24.7107 22.2277 24.9231 21.7179C25.1355 21.2081 24.8944 20.6227 24.3846 20.4102C19.0185 18.1743 12.9816 18.1743 7.6154 20.4102C7.1056 20.6227 6.86452 21.2081 7.07694 21.7179C7.28936 22.2277 7.87483 22.4688 8.38463 22.2564ZM22.6667 13.3333C23.4031 13.3333 24 12.7364 24 12C24 11.2636 23.4031 10.6667 22.6667 10.6667C21.9303 10.6667 21.3334 11.2636 21.3334 12C21.3334 12.7364 21.9303 13.3333 22.6667 13.3333Z" fill="#1C1C1C"/>
</g>
</svg>
