<svg width="32" height="32" viewBox="0 0 32 32" fill="none" xmlns="http://www.w3.org/2000/svg">
<g id="Stress emojis">
<path id="Subtract" fill-rule="evenodd" clip-rule="evenodd" d="M16 32C24.8366 32 32 24.8366 32 16C32 7.16344 24.8366 0 16 0C7.16344 0 0 7.16344 0 16C0 24.8366 7.16344 32 16 32ZM10.6667 12C10.6667 12.7364 10.0697 13.3333 9.33336 13.3333C8.59698 13.3333 8.00003 12.7364 8.00003 12C8.00003 11.2636 8.59698 10.6667 9.33336 10.6667C10.0697 10.6667 10.6667 11.2636 10.6667 12ZM24 12C24 12.7364 23.403 13.3333 22.6667 13.3333C21.9303 13.3333 21.3333 12.7364 21.3333 12C21.3333 11.2636 21.9303 10.6667 22.6667 10.6667C23.403 10.6667 24 11.2636 24 12ZM7.05134 19.6838C7.22599 19.1598 7.79231 18.8767 8.31625 19.0513C13.3039 20.7139 18.6962 20.7139 23.6838 19.0513C24.2077 18.8767 24.7741 19.1598 24.9487 19.6838C25.1234 20.2077 24.8402 20.774 24.3163 20.9487C18.9181 22.7481 13.082 22.7481 7.6838 20.9487C7.15986 20.774 6.8767 20.2077 7.05134 19.6838Z" fill="#1C1C1C"/>
</g>
</svg>
