<svg width="32" height="32" viewBox="0 0 32 32" fill="none" xmlns="http://www.w3.org/2000/svg">
<g id="Stress emojis">
<path id="Subtract" fill-rule="evenodd" clip-rule="evenodd" d="M16 32C24.8366 32 32 24.8366 32 16C32 7.16344 24.8366 0 16 0C7.16344 0 0 7.16344 0 16C0 24.8366 7.16344 32 16 32ZM6.98276 10.3847C6.45882 10.21 5.8925 10.4932 5.71785 11.0171C5.5432 11.5411 5.82636 12.1074 6.3503 12.282L10.5556 13.6838C10.8595 13.7851 10.8595 14.2149 10.5556 14.3162L6.3503 15.718C5.82636 15.8926 5.5432 16.459 5.71785 16.9829C5.8925 17.5068 6.45882 17.79 6.98276 17.6154L11.188 16.2136C13.3153 15.5045 13.3153 12.4955 11.188 11.7864L6.98276 10.3847ZM25.017 10.3847C25.5409 10.21 26.1072 10.4932 26.2819 11.0171C26.4565 11.5411 26.1734 12.1074 25.6494 12.282L21.4442 13.6838C21.1403 13.7851 21.1403 14.2149 21.4442 14.3162L25.6494 15.718C26.1734 15.8926 26.4565 16.459 26.2819 16.9829C26.1072 17.5068 25.5409 17.79 25.017 17.6154L20.8117 16.2136C18.6844 15.5045 18.6844 12.4955 20.8117 11.7864L25.017 10.3847ZM6.99986 21.3333C6.99986 20.7811 7.44758 20.3333 7.99986 20.3333H15.9999H23.9999C24.5522 20.3333 24.9999 20.7811 24.9999 21.3333C24.9999 21.8856 24.5522 22.3333 23.9999 22.3333H15.9999H7.99986C7.44758 22.3333 6.99986 21.8856 6.99986 21.3333Z" fill="#1C1C1C"/>
</g>
</svg>
