<svg width="32" height="32" viewBox="0 0 32 32" fill="none" xmlns="http://www.w3.org/2000/svg">
<g id="Stress emojis">
<path id="Subtract" fill-rule="evenodd" clip-rule="evenodd" d="M16 32C24.8366 32 32 24.8366 32 16C32 7.16344 24.8366 0 16 0C7.16344 0 0 7.16344 0 16C0 24.8366 7.16344 32 16 32ZM7.37361 12.7071C8.45584 11.6249 10.2105 11.6249 11.2927 12.7071C11.6833 13.0976 12.3164 13.0976 12.7069 12.7071C13.0975 12.3166 13.0975 11.6834 12.7069 11.2929C10.8437 9.4296 7.82268 9.4296 5.9594 11.2929C5.56887 11.6834 5.56887 12.3166 5.9594 12.7071C6.34992 13.0976 6.98309 13.0976 7.37361 12.7071ZM20.7069 12.7071C21.7892 11.6249 23.5438 11.6249 24.6261 12.7071C25.0166 13.0976 25.6498 13.0976 26.0403 12.7071C26.4308 12.3166 26.4308 11.6834 26.0403 11.2929C24.177 9.4296 21.156 9.4296 19.2927 11.2929C18.9022 11.6834 18.9022 12.3166 19.2927 12.7071C19.6833 13.0976 20.3164 13.0976 20.7069 12.7071ZM7.05115 19.6838C7.2258 19.1598 7.79212 18.8767 8.31606 19.0513C13.3037 20.7138 18.696 20.7138 23.6836 19.0513C24.2076 18.8767 24.7739 19.1598 24.9485 19.6838C25.1232 20.2077 24.84 20.774 24.3161 20.9487C18.9179 22.7481 13.0818 22.7481 7.68361 20.9487C7.15967 20.774 6.87651 20.2077 7.05115 19.6838Z" fill="#1C1C1C"/>
</g>
</svg>
