<svg width="16" height="16" viewBox="0 0 16 16" fill="none" xmlns="http://www.w3.org/2000/svg">
<g id="cardio-fitness">
<path id="favorite" d="M8.33775 15.1906C8.14662 15.3657 7.85338 15.3657 7.66225 15.1906L6.84 14.4373C5.49333 13.1975 4.38 12.1281 3.5 11.2289C2.62 10.3297 1.92 9.52248 1.4 8.80722C0.88 8.09196 0.516667 7.4346 0.31 6.83515C0.103333 6.23569 0 5.62262 0 4.99591C0 3.71526 0.42 2.64578 1.26 1.78747C2.1 0.929155 3.14667 0.5 4.4 0.5C5.09333 0.5 5.75333 0.649864 6.38 0.949591C7.00667 1.24932 7.54667 1.67166 8 2.21662C8.45333 1.67166 8.99333 1.24932 9.62 0.949591C10.2467 0.649864 10.9067 0.5 11.6 0.5C12.8533 0.5 13.9 0.929155 14.74 1.78747C15.58 2.64578 16 3.71526 16 4.99591C16 5.62262 15.8967 6.23569 15.69 6.83515C15.4833 7.4346 15.12 8.09196 14.6 8.80722C14.08 9.52248 13.38 10.3297 12.5 11.2289C11.62 12.1281 10.5067 13.1975 9.16 14.4373L8.33775 15.1906Z" fill="#484848"/>
<path id="Subtract" fill-rule="evenodd" clip-rule="evenodd" d="M4.26953 11.9999C5.00267 12.7221 5.85952 13.5345 6.84008 14.4372L7.66233 15.1905C7.85346 15.3656 8.1467 15.3656 8.33783 15.1905L9.16008 14.4372C10.1406 13.5345 10.9975 12.7221 11.7306 11.9999H4.26953ZM16 5.02639C16.0001 5.0162 16.0001 5.00601 16.0001 4.99581C16.0001 4.98548 16.0001 4.97515 16 4.96484V5.02639Z" fill="#F2F2F2"/>
</g>
</svg>
