<svg width="24" height="24" viewBox="0 0 24 24" fill="none" xmlns="http://www.w3.org/2000/svg">
<g id="cardio-fitness">
<path id="favorite" d="M12.5066 22.7859C12.2199 23.0485 11.7801 23.0485 11.4934 22.7859L10.26 21.656C8.24 19.7963 6.57 18.1921 5.25 16.8433C3.93 15.4945 2.88 14.2837 2.1 13.2108C1.32 12.1379 0.775 11.1519 0.465 10.2527C0.155 9.35354 0 8.43392 0 7.49387C0 5.57289 0.63 3.96866 1.89 2.6812C3.15 1.39373 4.72 0.75 6.6 0.75C7.64 0.75 8.63 0.974796 9.57 1.42439C10.51 1.87398 11.32 2.50749 12 3.32493C12.68 2.50749 13.49 1.87398 14.43 1.42439C15.37 0.974796 16.36 0.75 17.4 0.75C19.28 0.75 20.85 1.39373 22.11 2.6812C23.37 3.96866 24 5.57289 24 7.49387C24 8.43392 23.845 9.35354 23.535 10.2527C23.225 11.1519 22.68 12.1379 21.9 13.2108C21.12 14.2837 20.07 15.4945 18.75 16.8433C17.43 18.1921 15.76 19.7963 13.74 21.656L12.5066 22.7859Z" fill="#E3E3E3"/>
</g>
</svg>
