<svg width="24" height="24" viewBox="0 0 24 24" fill="none" xmlns="http://www.w3.org/2000/svg">
<g id="water-reminder">
<path id="Vector 1296" d="M17.1529 21H6.84713C6.35829 21 5.9411 20.6466 5.86073 20.1644L3.52472 6.14832C3.50833 6.04999 3.47733 5.95467 3.43275 5.86551L2.72361 4.44721C2.39116 3.78231 2.87465 3 3.61803 3H20.382C21.1253 3 21.6088 3.78231 21.2764 4.44721L20.5672 5.86551C20.5227 5.95467 20.4917 6.04999 20.4753 6.14832L18.1393 20.1644C18.0589 20.6466 17.6417 21 17.1529 21Z" stroke="#1C1C1C" stroke-width="2" stroke-linecap="round"/>
<path id="Vector 1297" d="M4 8L9.57465 6.60634C11.1091 6.22273 12.7347 6.55101 14 7.5V7.5C15.2653 8.44899 16.8909 8.77727 18.4254 8.39366L20 8" stroke="#1C1C1C" stroke-width="2" stroke-linecap="round"/>
</g>
</svg>
