<svg width="24" height="24" viewBox="0 0 24 24" fill="none" xmlns="http://www.w3.org/2000/svg">
<g id="water-reminder">
<mask id="mask0_5967_31085" style="mask-type:alpha" maskUnits="userSpaceOnUse" x="0" y="0" width="24" height="24">
<rect id="Bounding box" width="24" height="24" fill="#D9D9D9"/>
</mask>
<g mask="url(#mask0_5967_31085)">
<path id="water_full" d="M11.1 9C10.1833 9 9.28333 9.12917 8.4 9.3875C7.51667 9.64583 6.7 10.0333 5.95 10.55L6.97529 19.7776C6.98936 19.9042 7.09637 20 7.22376 20H16.776C16.9035 20 17.0106 19.9041 17.0245 19.7773L18.1 10H17.4C16.7667 10 16.1917 9.95417 15.675 9.8625C15.1583 9.77083 14.45 9.59167 13.55 9.325C13.1667 9.20833 12.7667 9.125 12.35 9.075C11.9333 9.025 11.5167 9 11.1 9ZM5.7 8.375C6.55 7.925 7.42917 7.58333 8.3375 7.35C9.24583 7.11667 10.175 7 11.125 7C11.625 7 12.1208 7.03333 12.6125 7.1C13.1042 7.16667 13.5917 7.26667 14.075 7.4C14.9083 7.63333 15.5458 7.79167 15.9875 7.875C16.4292 7.95833 16.9 8 17.4 8H18.325L18.7206 4.27641C18.7363 4.12872 18.6206 4 18.472 4H5.52703C5.37884 4 5.26318 4.12817 5.27835 4.27558L5.7 8.375ZM6.975 22C6.45833 22 6.0125 21.8333 5.6375 21.5C5.2625 21.1667 5.05 20.7417 5 20.225L3.24342 4.21817C3.11351 3.03434 4.04055 2 5.23149 2H18.7685C19.9595 2 20.8865 3.03434 20.7566 4.21817L19 20.225C18.95 20.7417 18.7375 21.1667 18.3625 21.5C17.9875 21.8333 17.5417 22 17.025 22H6.975Z" fill="#F2F2F2"/>
</g>
</g>
</svg>
