<svg width="24" height="24" viewBox="0 0 24 24" fill="none" xmlns="http://www.w3.org/2000/svg">
<path d="M12 1C12.5523 1 13 1.44772 13 2C13 2.55228 12.5523 3 12 3C9.6129 3 7.32367 3.94781 5.63574 5.63574C3.94781 7.32367 2.99902 9.6129 2.99902 12C2.99902 14.3871 3.94781 16.6763 5.63574 18.3643C7.32045 20.049 9.60416 20.9964 11.9863 21C11.9909 20.9999 11.9954 21 12 21C12.5523 21 13 21.4477 13 22C13 22.5523 12.5523 23 12 23L11.4541 22.9863C8.73548 22.8513 6.15554 21.7122 4.22168 19.7783C2.15878 17.7154 1 14.9174 1 12C1 9.08262 2.15878 6.28458 4.22168 4.22168C6.28458 2.15878 9.08262 1 12 1ZM16.501 19.8008C16.9792 19.5247 17.591 19.6888 17.8672 20.167C18.1433 20.6453 17.9793 21.2571 17.501 21.5332C17.0227 21.8093 16.4109 21.6453 16.1348 21.167C15.8588 20.6887 16.0228 20.0769 16.501 19.8008ZM19.793 16.5049C20.0691 16.0266 20.6809 15.8626 21.1592 16.1387C21.6375 16.4148 21.8015 17.0266 21.5254 17.5049C21.2491 17.9829 20.6374 18.1462 20.1592 17.8701C19.6814 17.594 19.5173 16.983 19.793 16.5049ZM10.5859 7.28711C11.367 6.50616 12.633 6.50616 13.4141 7.28711L16.707 10.5801C17.0972 10.9706 17.0974 11.6037 16.707 11.9941C16.3166 12.3842 15.6834 12.3842 15.293 11.9941L13 9.70117V16.2871C12.9997 16.8391 12.552 17.287 12 17.2871C11.448 17.2871 11.0003 16.8391 11 16.2871V9.70117L8.70703 11.9941C8.3166 12.3842 7.68342 12.3842 7.29297 11.9941C6.90255 11.6037 6.90275 10.9706 7.29297 10.5801L10.5859 7.28711ZM22.0029 11.0039C22.5552 11.0039 23.0029 11.4516 23.0029 12.0039C23.0027 12.556 22.5551 13.0039 22.0029 13.0039C21.4508 13.0039 21.0031 12.556 21.0029 12.0039C21.0029 11.4516 21.4506 11.0039 22.0029 11.0039ZM20.1621 6.13672C20.6404 5.8606 21.2522 6.02465 21.5283 6.50293C21.804 6.98105 21.64 7.59203 21.1621 7.86816C20.6839 8.14425 20.0721 7.98098 19.7959 7.50293C19.5198 7.02464 19.6838 6.41286 20.1621 6.13672ZM16.1338 2.83984C16.4099 2.36155 17.0217 2.1975 17.5 2.47363C17.9783 2.74976 18.1423 3.36156 17.8662 3.83984C17.5901 4.31809 16.9783 4.48208 16.5 4.20605C16.0217 3.92993 15.8577 3.31812 16.1338 2.83984Z" fill="#1C1C1C"/>
</svg>
