<svg width="24" height="24" viewBox="0 0 24 24" fill="none" xmlns="http://www.w3.org/2000/svg">
<path d="M2 12C2 17.5228 6.47715 22 12 22C17.5228 22 22 17.5228 22 12C22 6.47715 17.5228 2 12 2C11.4477 2 11 2.44772 11 3C11 3.55228 11.4477 4 12 4C16.4183 4 20 7.58172 20 12C20 16.4183 16.4183 20 12 20C7.58172 20 4 16.4183 4 12C4 11.4477 3.55228 11 3 11C2.44772 11 2 11.4477 2 12Z" fill="#1C1C1C"/>
<path d="M11 6C11 6.55228 11.4477 7 12 7C14.7614 7 17 9.23858 17 12C17 14.7614 14.7614 17 12 17C9.23858 17 7 14.7614 7 12C7 11.4477 6.55228 11 6 11C5.44772 11 5 11.4477 5 12C5 15.866 8.13401 19 12 19C15.866 19 19 15.866 19 12C19 8.13401 15.866 5 12 5C11.4477 5 11 5.44772 11 6Z" fill="#1C1C1C"/>
<path d="M12 10C11.4477 10 11 9.55228 11 9C11 8.44772 11.4477 8 12 8C14.2091 8 16 9.79086 16 12C16 14.2091 14.2091 16 12 16C9.79086 16 8 14.2091 8 12C8 11.4477 8.44772 11 9 11C9.55228 11 10 11.4477 10 12C10 13.1046 10.8954 14 12 14C13.1046 14 14 13.1046 14 12C14 10.8954 13.1046 10 12 10Z" fill="#1C1C1C"/>
</svg>
