<svg width="24" height="24" viewBox="0 0 24 24" fill="none" xmlns="http://www.w3.org/2000/svg">
<path d="M12.6667 20.4077C12.2875 20.7453 11.7156 20.7453 11.3365 20.4077L8.80156 18.15C7.60156 17.0667 6.5724 16.1 5.71406 15.25C4.85573 14.4 4.1474 13.6 3.58906 12.85C3.03073 12.1 2.6224 11.375 2.36406 10.675C2.10573 9.975 1.97656 9.24167 1.97656 8.475C1.97656 6.90833 2.50156 5.60417 3.55156 4.5625C4.60156 3.52083 5.9099 3 7.47656 3C8.34323 3 9.16823 3.18333 9.95156 3.55C10.7349 3.91667 11.4182 4.43333 12.0016 5.1C12.5849 4.43333 13.2682 3.91667 14.0516 3.55C14.8349 3.18333 15.6599 3 16.5266 3C18.0932 3 19.4016 3.52083 20.4516 4.5625C21.5016 5.60417 22.0266 6.90833 22.0266 8.475C22.0266 9.24167 21.8974 9.975 21.6391 10.675C21.3807 11.375 20.9724 12.1 20.4141 12.85C19.8557 13.6 19.1474 14.4 18.2891 15.25C17.4307 16.1 16.4016 17.0667 15.2016 18.15L12.6667 20.4077ZM4.27656 10H19.7266C19.8266 9.73333 19.9016 9.475 19.9516 9.225C20.0016 8.975 20.0266 8.725 20.0266 8.475C20.0266 7.475 19.6807 6.64583 18.9891 5.9875C18.2974 5.32917 17.4766 5 16.5266 5C15.7432 5 15.0224 5.22917 14.3641 5.6875C13.7057 6.14583 13.1182 6.75 12.6016 7.5H11.4016C10.8849 6.75 10.2974 6.14583 9.63906 5.6875C8.98073 5.22917 8.2599 5 7.47656 5C6.52656 5 5.70573 5.32917 5.01406 5.9875C4.3224 6.64583 3.97656 7.475 3.97656 8.475C3.97656 8.725 4.00156 8.975 4.05156 9.225C4.10156 9.475 4.17656 9.73333 4.27656 10ZM6.82656 13.5H17.1766C17.4432 13.2167 17.6849 12.9542 17.9016 12.7125C18.1182 12.4708 18.3182 12.2333 18.5016 12H5.50156C5.6849 12.2333 5.8849 12.4708 6.10156 12.7125C6.31823 12.9542 6.5599 13.2167 6.82656 13.5ZM12.0016 18.3C12.6016 17.7667 13.1641 17.2708 13.6891 16.8125C14.2141 16.3542 14.6932 15.9167 15.1266 15.5H8.87656C9.3099 15.9167 9.78906 16.3542 10.3141 16.8125C10.8391 17.2708 11.4016 17.7667 12.0016 18.3Z" fill="#1C1C1C"/>
</svg>
