<svg width="24" height="24" viewBox="0 0 24 24" fill="none" xmlns="http://www.w3.org/2000/svg">
<path d="M12 9.98689L12.2072 10.3427C12.4898 10.8279 12.9634 11.1719 13.5122 11.2908L13.9146 11.3779L13.6402 11.6849L14.3859 12.3512L13.6402 11.6849C13.2661 12.1037 13.0852 12.6603 13.1418 13.219L13.1833 13.6286L12.8065 13.4626C12.2927 13.2362 11.7073 13.2362 11.1935 13.4626L10.8167 13.6286L10.8582 13.219C10.9148 12.6603 10.7339 12.1037 10.3598 11.6849L10.0854 11.3779L10.4878 11.2908C11.0366 11.1719 11.5102 10.8279 11.7928 10.3427L12 9.98689Z" fill="#1C1C1C" stroke="#1C1C1C" stroke-width="2"/>
<path d="M19.022 11.6822C19.4168 11.5587 19.7605 11.309 20 10.9716C20.2395 11.309 20.5832 11.5587 20.978 11.6822C20.7312 12.0143 20.6 12.4183 20.6045 12.832C20.2124 12.6998 19.7876 12.6998 19.3955 12.832C19.4 12.4183 19.2688 12.0143 19.022 11.6822Z" fill="#1C1C1C" stroke="#1C1C1C" stroke-width="2"/>
<path d="M4 7.5V7C4 5.89543 4.89543 5 6 5H18C19.1046 5 20 5.89543 20 7V7.5" stroke="#1C1C1C" stroke-width="2" stroke-linecap="round"/>
<path d="M20 16.5L20 17C20 18.1046 19.1046 19 18 19L6 19C4.89543 19 4 18.1046 4 17L4 16.5" stroke="#1C1C1C" stroke-width="2" stroke-linecap="round"/>
<path d="M3.02198 11.6822C3.4168 11.5587 3.76048 11.309 4 10.9716C4.23952 11.309 4.5832 11.5587 4.97802 11.6822C4.73123 12.0143 4.59996 12.4183 4.60445 12.832C4.2124 12.6998 3.7876 12.6998 3.39555 12.832C3.40004 12.4183 3.26877 12.0143 3.02198 11.6822Z" fill="#1C1C1C" stroke="#1C1C1C" stroke-width="2"/>
</svg>
