<svg width="24" height="24" viewBox="0 0 24 24" fill="none" xmlns="http://www.w3.org/2000/svg">
<circle cx="12" cy="12" r="9" stroke="#1C1C1C" stroke-width="2"/>
<path fill-rule="evenodd" clip-rule="evenodd" d="M10 9.57143C10 8.70355 10.7036 8 11.5714 8H12.8947C13.5052 8 14 8.49484 14 9.10526V10.0588C14 10.5786 13.5786 11 13.0588 11C11.9218 11 11 11.9218 11 13.0588V14C11 14.5523 11.4477 15 12 15C12.5523 15 13 14.5523 13 14V13.0588C13 13.0263 13.0263 13 13.0588 13C14.6832 13 16 11.6832 16 10.0588V9.10526C16 7.39027 14.6097 6 12.8947 6H11.5714C9.59898 6 8 7.59898 8 9.57143V10C8 10.5523 8.44772 11 9 11C9.55228 11 10 10.5523 10 10V9.57143ZM12 17.5C12.5523 17.5 13 17.0523 13 16.5C13 15.9477 12.5523 15.5 12 15.5C11.4477 15.5 11 15.9477 11 16.5C11 17.0523 11.4477 17.5 12 17.5Z" fill="#1C1C1C"/>
</svg>
