<svg width="318" height="318" viewBox="0 0 318 318" fill="none" xmlns="http://www.w3.org/2000/svg">
<path d="M226 0H225.5V318H226H226.5V0H226ZM163 318H163.5V0H163H162.5V318H163Z" fill="#E3E3E3"/>
<path d="M163 0H162.5V318H163H163.5V0H163ZM99 318H99.5V0H99H98.5V318H99Z" fill="#E3E3E3"/>
<path d="M99 0H98.5V318H99H99.5V0H99ZM35 318H35.5V0H35H34.5V318H35Z" fill="#E3E3E3"/>
<path d="M290 0H289.5V318H290H290.5V0H290ZM226 318H226.5V0H226H225.5V318H226Z" fill="#E3E3E3"/>
<path d="M114 40C114.552 40 115 40.4477 115 41V47C115 47.5523 114.552 48 114 48H108C107.448 48 107 47.5523 107 47V41C107 40.4477 107.448 40 108 40H114ZM130 40C130.552 40 131 40.4477 131 41V47C131 47.5523 130.552 48 130 48H124C123.448 48 123 47.5523 123 47V41C123 40.4477 123.448 40 124 40H130ZM146 40C146.552 40 147 40.4477 147 41V47C147 47.5523 146.552 48 146 48H140C139.448 48 139 47.5523 139 47V41C139 40.4477 139.448 40 140 40H146ZM162 40C162.552 40 163 40.4477 163 41V47C163 47.5523 162.552 48 162 48H156C155.448 48 155 47.5523 155 47V41C155 40.4477 155.448 40 156 40H162ZM106 32C106.552 32 107 32.4477 107 33V39C107 39.5523 106.552 40 106 40H100C99.4477 40 99 39.5523 99 39V33C99 32.4477 99.4477 32 100 32H106ZM122 32C122.552 32 123 32.4477 123 33V39C123 39.5523 122.552 40 122 40H116C115.448 40 115 39.5523 115 39V33C115 32.4477 115.448 32 116 32H122ZM138 32C138.552 32 139 32.4477 139 33V39C139 39.5523 138.552 40 138 40H132C131.448 40 131 39.5523 131 39V33C131 32.4477 131.448 32 132 32H138ZM154 32C154.552 32 155 32.4477 155 33V39C155 39.5523 154.552 40 154 40H148C147.448 40 147 39.5523 147 39V33C147 32.4477 147.448 32 148 32H154Z" fill="#1C1C1C"/>
<path d="M178 40C178.552 40 179 40.4477 179 41V47C179 47.5523 178.552 48 178 48H172C171.448 48 171 47.5523 171 47V41C171 40.4477 171.448 40 172 40H178ZM194 40C194.552 40 195 40.4477 195 41V47C195 47.5523 194.552 48 194 48H188C187.448 48 187 47.5523 187 47V41C187 40.4477 187.448 40 188 40H194ZM209 40C209.552 40 210 40.4477 210 41V47C210 47.5523 209.552 48 209 48H203C202.448 48 202 47.5523 202 47V41C202 40.4477 202.448 40 203 40H209ZM225 40C225.552 40 226 40.4477 226 41V47C226 47.5523 225.552 48 225 48H219C218.448 48 218 47.5523 218 47V41C218 40.4477 218.448 40 219 40H225ZM170 32C170.552 32 171 32.4477 171 33V39C171 39.5523 170.552 40 170 40H164C163.448 40 163 39.5523 163 39V33C163 32.4477 163.448 32 164 32H170ZM186 32C186.552 32 187 32.4477 187 33V39C187 39.5523 186.552 40 186 40H180C179.448 40 179 39.5523 179 39V33C179 32.4477 179.448 32 180 32H186ZM201 32C201.552 32 202 32.4477 202 33V39C202 39.5523 201.552 40 201 40H195C194.448 40 194 39.5523 194 39V33C194 32.4477 194.448 32 195 32H201ZM217 32C217.552 32 218 32.4477 218 33V39C218 39.5523 217.552 40 217 40H211C210.448 40 210 39.5523 210 39V33C210 32.4477 210.448 32 211 32H217Z" fill="#1C1C1C"/>
<circle cx="131" cy="280" r="24" fill="#1C1C1C"/>
<circle cx="195" cy="228" r="23.5" stroke="#1C1C1C"/>
<path d="M195 220.5C201.589 220.5 207.533 221.391 211.812 222.817C213.955 223.532 215.653 224.371 216.805 225.278C217.962 226.191 218.5 227.114 218.5 228C218.5 228.886 217.962 229.809 216.805 230.722C215.653 231.629 213.955 232.468 211.812 233.183C207.533 234.609 201.589 235.5 195 235.5C188.411 235.5 182.467 234.609 178.188 233.183C176.045 232.468 174.347 231.629 173.195 230.722C172.038 229.809 171.5 228.886 171.5 228C171.5 227.114 172.038 226.191 173.195 225.278C174.347 224.371 176.045 223.532 178.188 222.817C182.467 221.391 188.411 220.5 195 220.5Z" stroke="#1C1C1C"/>
<path d="M195 212.5C201.542 212.5 207.443 214.269 211.693 217.103C215.947 219.938 218.5 223.801 218.5 228C218.5 232.199 215.947 236.062 211.693 238.897C207.443 241.731 201.542 243.5 195 243.5C188.458 243.5 182.557 241.731 178.307 238.897C174.053 236.062 171.5 232.199 171.5 228C171.5 223.801 174.053 219.938 178.307 217.103C182.557 214.269 188.458 212.5 195 212.5Z" stroke="#1C1C1C"/>
</svg>
