<svg width="16" height="16" viewBox="0 0 16 16" fill="none" xmlns="http://www.w3.org/2000/svg">
<circle cx="8" cy="8" r="7.5" stroke="#1C1C1C"/>
<path d="M8 13.9C3.74798 13.9 0.500001 11.1601 0.500001 7.99997C0.500001 4.83984 3.74798 2.09998 8 2.09998C12.252 2.09998 15.5 4.83984 15.5 7.99998C15.5 11.1601 12.252 13.9 8 13.9Z" stroke="#1C1C1C"/>
<path d="M8 10.7C5.83819 10.7 3.90406 10.3486 2.52884 9.79855C1.83985 9.52295 1.31583 9.20729 0.972235 8.88236C0.629698 8.55842 0.500001 8.26009 0.500001 8.00005C0.500001 7.74 0.629698 7.44168 0.972235 7.11774C1.31583 6.7928 1.83985 6.47714 2.52884 6.20154C3.90406 5.65146 5.83819 5.30005 8 5.30005C10.1618 5.30005 12.0959 5.65146 13.4712 6.20155C14.1602 6.47714 14.6842 6.7928 15.0278 7.11774C15.3703 7.44168 15.5 7.74 15.5 8.00005C15.5 8.26009 15.3703 8.55842 15.0278 8.88236C14.6842 9.20729 14.1602 9.52295 13.4712 9.79855C12.0959 10.3486 10.1618 10.7 8 10.7Z" stroke="#1C1C1C"/>
</svg>
