<svg width="24" height="24" viewBox="0 0 24 24" fill="none" xmlns="http://www.w3.org/2000/svg">
<rect x="8" y="2" width="8" height="14" rx="4" fill="#F2F2F2"/>
<path fill-rule="evenodd" clip-rule="evenodd" d="M18 12C18 15.3137 15.3137 18 12 18C8.68629 18 6 15.3137 6 12H4C4 16.4183 7.58172 20 12 20C16.4183 20 20 16.4183 20 12H18Z" fill="#F2F2F2"/>
<circle cx="5" cy="12" r="1" fill="#F2F2F2"/>
<circle cx="19" cy="12" r="1" fill="#F2F2F2"/>
<rect x="11" y="18" width="2" height="4" rx="1" fill="#F2F2F2"/>
<circle cx="5" cy="8" r="1" fill="#F2F2F2"/>
<circle cx="2" cy="8" r="1" fill="#F2F2F2"/>
<circle cx="5" cy="5" r="1" fill="#F2F2F2"/>
<circle cx="19" cy="8" r="1" fill="#F2F2F2"/>
<circle cx="22" cy="8" r="1" fill="#F2F2F2"/>
<circle cx="19" cy="5" r="1" fill="#F2F2F2"/>
</svg>
