<svg width="8" height="32" viewBox="0 0 8 32" fill="none" xmlns="http://www.w3.org/2000/svg">
<path d="M4 7.5C4 7.77614 3.77614 8 3.5 8L0.5 8C0.223857 8 -3.39906e-07 7.77614 -3.27835e-07 7.5L-1.96701e-07 4.5C-1.84631e-07 4.22386 0.223857 4 0.5 4L3.5 4C3.77614 4 4 4.22386 4 4.5L4 7.5ZM4 15.5C4 15.7761 3.77614 16 3.5 16L0.499999 16C0.223857 16 -6.89597e-07 15.7761 -6.77527e-07 15.5L-5.46392e-07 12.5C-5.34322e-07 12.2239 0.223857 12 0.499999 12L3.5 12C3.77614 12 4 12.2239 4 12.5L4 15.5ZM4 23.5C4 23.7761 3.77614 24 3.5 24L0.499999 24C0.223857 24 -1.03929e-06 23.7761 -1.02722e-06 23.5L-8.96083e-07 20.5C-8.84013e-07 20.2239 0.223857 20 0.499999 20L3.5 20C3.77614 20 4 20.2239 4 20.5L4 23.5ZM4 31.5C4 31.7761 3.77614 32 3.5 32L0.499999 32C0.223856 32 -1.38898e-06 31.7761 -1.37691e-06 31.5L-1.24577e-06 28.5C-1.2337e-06 28.2239 0.223857 28 0.499999 28L3.5 28C3.77614 28 4 28.2239 4 28.5L4 31.5ZM8 3.5C8 3.77614 7.77614 4 7.5 4L4.5 4C4.22386 4 4 3.77614 4 3.5L4 0.5C4 0.223857 4.22386 -1.6506e-07 4.5 -1.5299e-07L7.5 -2.18557e-08C7.77614 -9.78513e-09 8 0.223858 8 0.5L8 3.5ZM8 11.5C8 11.7761 7.77614 12 7.5 12L4.5 12C4.22386 12 4 11.7761 4 11.5L4 8.5C4 8.22386 4.22386 8 4.5 8L7.5 8C7.77614 8 8 8.22386 8 8.5L8 11.5ZM8 19.5C8 19.7761 7.77614 20 7.5 20L4.5 20C4.22386 20 4 19.7761 4 19.5L4 16.5C4 16.2239 4.22386 16 4.5 16L7.5 16C7.77614 16 8 16.2239 8 16.5L8 19.5ZM8 27.5C8 27.7761 7.77614 28 7.5 28L4.5 28C4.22386 28 4 27.7761 4 27.5L4 24.5C4 24.2239 4.22386 24 4.5 24L7.5 24C7.77614 24 8 24.2239 8 24.5L8 27.5Z" fill="#929292"/>
</svg>
