<svg width="16" height="16" viewBox="0 0 16 16" fill="none" xmlns="http://www.w3.org/2000/svg">
<path d="M15 5C15.5523 5 16 5.44772 16 6V10C16 10.5523 15.5523 11 15 11H1C0.447715 11 1.61065e-08 10.5523 0 10V6C6.4426e-08 5.44772 0.447715 5 1 5H15ZM4.5 7.5C4.22386 7.5 4 7.72386 4 8C4 8.27614 4.22386 8.5 4.5 8.5H11.5C11.7761 8.5 12 8.27614 12 8C12 7.72386 11.7761 7.5 11.5 7.5H4.5Z" fill="#484848"/>
<rect x="4" y="2" width="8" height="1" rx="0.5" fill="#484848"/>
<rect x="4" y="13" width="8" height="1" rx="0.5" fill="#484848"/>
</svg>
