<svg width="36" height="40" viewBox="0 0 36 40" fill="none" xmlns="http://www.w3.org/2000/svg">
<g id="Selected=False, Position=Bottom Right">
<rect id="Rectangle 34624346" x="17" y="21" width="12" height="14" rx="3" fill="#C8C8C8"/>
<path id="Union" fill-rule="evenodd" clip-rule="evenodd" d="M10 2H24C28.4183 2 32 5.58172 32 10V18V22V30C32 34.4183 28.4183 38 24 38H10C5.58172 38 2 34.4183 2 30V10C2 5.58172 5.58172 2 10 2ZM34 24V30C34 35.5228 29.5228 40 24 40H10C4.47715 40 0 35.5228 0 30V10C0 4.47715 4.47715 0 10 0H24C29.5228 0 34 4.47715 34 10V16C35.1046 16 36 16.8954 36 18V22C36 23.1046 35.1046 24 34 24Z" fill="#C8C8C8"/>
</g>
</svg>
