<svg width="24" height="24" viewBox="0 0 24 24" fill="none" xmlns="http://www.w3.org/2000/svg">
<path d="M11.5311 9.26725C11.6922 8.83194 12.3078 8.83194 12.4689 9.26725L13.0006 10.704C13.0512 10.8409 13.1591 10.9488 13.296 10.9994L14.7327 11.5311C15.1681 11.6922 15.1681 12.3078 14.7327 12.4689L13.296 13.0006C13.1591 13.0512 13.0512 13.1591 13.0006 13.296L12.4689 14.7327C12.3078 15.1681 11.6922 15.1681 11.5311 14.7327L10.9994 13.296C10.9488 13.1591 10.8409 13.0512 10.704 13.0006L9.26725 12.4689C8.83194 12.3078 8.83194 11.6922 9.26725 11.5311L10.704 10.9994C10.8409 10.9488 10.9488 10.8409 10.9994 10.704L11.5311 9.26725Z" fill="#1C1C1C"/>
<circle cx="12" cy="6" r="1" fill="#1C1C1C"/>
<circle cx="12" cy="18" r="1" fill="#1C1C1C"/>
<circle cx="19" cy="12" r="1" fill="#1C1C1C"/>
<circle cx="5" cy="12" r="1" fill="#1C1C1C"/>
<rect x="8" y="11" width="8" height="2" rx="1" fill="#1C1C1C"/>
<rect x="1" y="3" width="22" height="18" rx="9" stroke="#1C1C1C" stroke-width="2"/>
</svg>
