<svg width="24" height="24" viewBox="0 0 24 24" fill="none" xmlns="http://www.w3.org/2000/svg">
<g id="call-reminder">
<path id="Union" d="M8.88004 8.05003C8.09899 8.83108 8.09899 10.0974 8.88004 10.8785L13.1227 15.1211C13.9037 15.9021 15.1701 15.9021 15.9511 15.1211C17.1227 13.9495 19.0222 13.9495 20.1937 15.1211C21.3653 16.2927 21.3653 18.1922 20.1937 19.3637L18.7795 20.778C16.8269 22.7306 13.6611 22.7306 11.7085 20.778L3.22319 12.2927C1.27056 10.34 1.27056 7.17423 3.22318 5.2216L4.6374 3.80739C5.80897 2.63582 7.70847 2.63582 8.88004 3.80739C10.0516 4.97896 10.0516 6.87846 8.88004 8.05003Z" stroke="#1C1C1C" stroke-width="2"/>
<path id="Vector 1299" d="M15 1V1C19.4183 1 23 4.58172 23 9V9" stroke="#1C1C1C" stroke-width="2" stroke-linecap="round"/>
<path id="Vector 1300" d="M14 5V5C16.7614 5 19 7.23858 19 10V10" stroke="#1C1C1C" stroke-width="2" stroke-linecap="round"/>
</g>
</svg>
