<svg width="24" height="24" viewBox="0 0 24 24" fill="none" xmlns="http://www.w3.org/2000/svg">
<path d="M16.9502 2C18.396 2.00005 19.5666 2.5142 20.5303 3.56445C21.4986 4.61981 21.9999 5.93893 22 7.59375C22 8.40794 21.8743 9.204 21.6221 9.98438C21.3759 10.746 20.9287 11.6238 20.249 12.6211C19.5696 13.618 18.6397 14.7631 17.4502 16.0596C16.5545 17.0358 15.4776 18.1555 14.2168 19.418L12.8945 20.7275L12.6992 20.9189C12.3106 21.2986 11.6894 21.2986 11.3008 20.9189L11.1045 20.7275H11.1055C9.26144 18.9167 7.74406 17.3612 6.5498 16.0596C5.3603 14.7631 4.43044 13.618 3.75098 12.6211C3.07127 11.6238 2.62415 10.746 2.37793 9.98438C2.1257 9.204 2 8.40794 2 7.59375C2.00005 5.93893 2.50143 4.61982 3.46973 3.56445C4.43339 2.5142 5.60398 2.00005 7.0498 2C7.84276 2 8.59527 2.18091 9.31836 2.5498C10.0405 2.91823 10.6678 3.43884 11.2041 4.12402C11.6085 4.64074 12.3905 4.63983 12.7949 4.12305C13.3312 3.43793 13.9596 2.91821 14.6816 2.5498C15.4047 2.18091 16.1572 2 16.9502 2Z" stroke="#1C1C1C" stroke-width="2"/>
<circle cx="12" cy="10.5" r="2.5" stroke="#1C1C1C" stroke-width="2"/>
<path d="M8 17.5V17.5C8 15.567 9.567 14 11.5 14H12.5C14.433 14 16 15.567 16 17.5V17.5" stroke="#1C1C1C" stroke-width="2" stroke-linecap="round"/>
</svg>
