<svg width="318" height="318" viewBox="0 0 318 318" fill="none" xmlns="http://www.w3.org/2000/svg">
    <circle cx="159.128" cy="159.129" r="86" transform="rotate(-69.8503 159.128 159.129)" stroke="url(#paint0_linear_11029_162129)" stroke-width="2"/>
    <circle cx="159.128" cy="159.127" r="89" transform="rotate(-109.85 159.128 159.127)" stroke="url(#paint1_linear_11029_162129)" stroke-width="2"/>
    <circle cx="159.128" cy="159.129" r="92" transform="rotate(-149.85 159.128 159.129)" stroke="url(#paint2_linear_11029_162129)" stroke-width="2"/>
    <circle cx="159.128" cy="159.128" r="95" transform="rotate(170.15 159.128 159.128)" stroke="url(#paint3_linear_11029_162129)" stroke-width="2"/>
    <circle cx="159.128" cy="159.13" r="83" transform="rotate(130.15 159.128 159.13)" stroke="url(#paint4_linear_11029_162129)" stroke-width="2"/>
    <path fill-rule="evenodd" clip-rule="evenodd" d="M159 318C246.813 318 318 246.813 318 159C318 71.1867 246.813 0 159 0C71.1867 0 0 71.1867 0 159C0 246.813 71.1867 318 159 318ZM159.908 20C162.118 20 163.908 21.7909 163.908 24V88C163.908 90.2091 162.118 92 159.908 92C157.699 92 155.908 90.2091 155.908 88V24C155.908 21.7909 157.699 20 159.908 20ZM101.884 192.5C102.989 194.413 102.333 196.86 100.42 197.964L44.9945 229.964C43.0813 231.069 40.6349 230.413 39.5304 228.5C38.4258 226.587 39.0813 224.14 40.9945 223.036L96.4201 191.036C98.3333 189.931 100.78 190.587 101.884 192.5ZM274.822 229.965C276.736 231.069 279.182 230.414 280.287 228.5C281.391 226.587 280.736 224.141 278.822 223.036L223.397 191.036C221.484 189.932 219.037 190.587 217.933 192.5C216.828 194.414 217.484 196.86 219.397 197.965L274.822 229.965ZM179 159C179 170.046 170.046 179 159 179C147.954 179 139 170.046 139 159C139 147.954 147.954 139 159 139C170.046 139 179 147.954 179 159Z" fill="white"/>
    <circle cx="159" cy="288" r="6" fill="#EC232B"/>
</svg>