<svg width="318" height="318" viewBox="0 0 318 318" fill="none" xmlns="http://www.w3.org/2000/svg">
<circle cx="159" cy="159" r="69" stroke="url(#paint0_linear_13528_283074)" stroke-width="4"/>
<circle cx="159" cy="159" r="75" transform="rotate(45 159 159)" stroke="url(#paint1_linear_13528_283074)" stroke-width="4"/>
<path d="M159 240C114.265 240 78 203.735 78 159C78 114.265 114.265 78 159 78C203.735 78 240 114.265 240 159C240 203.735 203.735 240 159 240Z" stroke="url(#paint2_linear_13528_283074)" stroke-width="4"/>
<path d="M97.4819 220.518C63.5063 186.543 63.5063 131.457 97.4819 97.4817C131.458 63.5061 186.543 63.5061 220.519 97.4817C254.494 131.457 254.494 186.543 220.519 220.518C186.543 254.494 131.458 254.494 97.4819 220.518Z" stroke="url(#paint3_linear_13528_283074)" stroke-width="4"/>
<path d="M66.0005 159C66.0005 107.638 107.638 66 159 66C210.363 66 252 107.638 252 159C252 210.362 210.363 252 159 252C107.638 252 66.0005 210.362 66.0005 159Z" stroke="url(#paint4_linear_13528_283074)" stroke-width="4"/>
<circle cx="159" cy="159" r="99" transform="rotate(-135 159 159)" stroke="url(#paint5_linear_13528_283074)" stroke-width="4"/>
<defs>
<linearGradient id="paint0_linear_13528_283074" x1="159" y1="88" x2="159" y2="230" gradientUnits="userSpaceOnUse">
<stop stop-color="white"/>
<stop offset="1" stop-color="white" stop-opacity="0.2"/>
</linearGradient>
<linearGradient id="paint1_linear_13528_283074" x1="159" y1="81.9999" x2="159" y2="236" gradientUnits="userSpaceOnUse">
<stop stop-color="white"/>
<stop offset="1" stop-color="white" stop-opacity="0.2"/>
</linearGradient>
<linearGradient id="paint2_linear_13528_283074" x1="242" y1="159" x2="76" y2="159" gradientUnits="userSpaceOnUse">
<stop stop-color="white"/>
<stop offset="1" stop-color="white" stop-opacity="0.2"/>
</linearGradient>
<linearGradient id="paint3_linear_13528_283074" x1="221.933" y1="221.933" x2="96.0677" y2="96.0675" gradientUnits="userSpaceOnUse">
<stop stop-color="white"/>
<stop offset="1" stop-color="white" stop-opacity="0.2"/>
</linearGradient>
<linearGradient id="paint4_linear_13528_283074" x1="159" y1="254" x2="159" y2="64" gradientUnits="userSpaceOnUse">
<stop stop-color="white"/>
<stop offset="1" stop-color="white" stop-opacity="0.2"/>
</linearGradient>
<linearGradient id="paint5_linear_13528_283074" x1="159" y1="57.9999" x2="159" y2="260" gradientUnits="userSpaceOnUse">
<stop stop-color="white"/>
<stop offset="1" stop-color="white" stop-opacity="0.2"/>
</linearGradient>
</defs>
</svg>
