<svg width="318" height="318" viewBox="0 0 318 318" fill="none" xmlns="http://www.w3.org/2000/svg">
    <circle cx="158.884" cy="158.884" r="48.6038" stroke="#484848" stroke-width="2.81761"/>
    <circle cx="158.883" cy="158.884" r="52.8302" transform="rotate(45 158.883 158.884)" stroke="#484848" stroke-width="2.81761"/>
    <path d="M215.942 158.884C215.942 190.395 190.397 215.941 158.886 215.941C127.375 215.941 101.83 190.395 101.83 158.884C101.83 127.373 127.374 101.828 158.886 101.828C190.397 101.828 215.942 127.373 215.942 158.884Z" stroke="#484848" stroke-width="2.81761"/>
    <path d="M202.217 202.217C178.285 226.149 139.483 226.15 115.55 202.218C91.6176 178.285 91.6176 139.482 115.55 115.55C139.483 91.6177 178.285 91.6182 202.217 115.551C226.149 139.483 226.149 178.284 202.217 202.217Z" stroke="#484848" stroke-width="2.81761"/>
    <path d="M158.883 224.393C122.703 224.393 93.3731 195.064 93.373 158.884C93.373 122.704 122.703 93.3742 158.883 93.3742C195.063 93.3743 224.392 122.704 224.392 158.884C224.391 195.064 195.062 224.393 158.883 224.393Z" stroke="#484848" stroke-width="2.81761"/>
    <circle cx="158.883" cy="158.884" r="69.7358" transform="rotate(-135 158.883 158.884)" stroke="#484848" stroke-width="2.81761"/>
    <circle cx="158.975" cy="158.975" r="60.5786" transform="rotate(-69.8503 158.975 158.975)" stroke="#484848" stroke-width="1.40881"/>
    <circle cx="158.973" cy="158.974" r="62.6918" transform="rotate(-109.85 158.973 158.974)" stroke="#484848" stroke-width="1.40881"/>
    <circle cx="158.975" cy="158.975" r="64.8051" transform="rotate(-149.85 158.975 158.975)" stroke="#484848" stroke-width="1.40881"/>
    <circle cx="158.974" cy="158.973" r="66.9183" transform="rotate(170.15 158.974 158.973)" stroke="#484848" stroke-width="1.40881"/>
    <circle cx="158.972" cy="158.975" r="58.4654" transform="rotate(130.15 158.972 158.975)" stroke="#484848" stroke-width="1.40881"/>
    <path d="M159 47C220.856 47 271 97.1441 271 159C271 220.856 220.856 271 159 271C97.1441 271 47 220.856 47 159C47 97.1441 97.1441 47 159 47ZM204.355 181.566C203.008 180.789 201.285 181.25 200.507 182.598C199.729 183.945 200.191 185.668 201.538 186.446L240.581 208.987C241.929 209.765 243.652 209.303 244.43 207.956C245.207 206.609 244.746 204.886 243.398 204.107L204.355 181.566ZM118.762 182.597C117.983 181.25 116.26 180.788 114.913 181.565L75.8711 204.106C74.524 204.884 74.0625 206.608 74.8398 207.955C75.6179 209.303 77.3409 209.764 78.6885 208.986L117.73 186.445C119.078 185.667 119.54 183.944 118.762 182.597ZM158.998 144.911C151.218 144.911 144.91 151.22 144.91 159C144.91 166.78 151.218 173.088 158.998 173.088C166.778 173.088 173.086 166.78 173.086 159C173.086 151.22 166.779 144.911 158.998 144.911ZM159.635 61.0879C158.079 61.0881 156.818 62.3494 156.817 63.9053V108.987C156.818 110.543 158.079 111.805 159.635 111.805C161.191 111.804 162.452 110.543 162.452 108.987V63.9053C162.452 62.3495 161.191 61.0881 159.635 61.0879Z" fill="#292929"/>
    <circle cx="159" cy="249.868" r="4.22642" fill="#F2F2F2"/>
    <circle cx="158.998" cy="159" r="14.088" fill="#F2F2F2"/>
</svg>
