<svg width="24" height="24" viewBox="0 0 24 24" fill="none" xmlns="http://www.w3.org/2000/svg">
<g clip-path="url(#clip0_10883_28017)">
<path fill-rule="evenodd" clip-rule="evenodd" d="M2 12C2 17.5228 6.47715 22 12 22C17.5228 22 22 17.5228 22 12C22 6.47715 17.5228 2 12 2V4C16.4183 4 20 7.58172 20 12C20 16.4183 16.4183 20 12 20C7.58172 20 4 16.4183 4 12H2Z" fill="#1C1C1C"/>
<path d="M12.5 5L12.5 1C12.5 0.587977 12.0296 0.352786 11.7 0.6L9.56667 2.2C9.03333 2.6 9.03333 3.4 9.56667 3.8L11.7 5.4C12.0296 5.64721 12.5 5.41202 12.5 5Z" fill="#1C1C1C"/>
<path d="M7.5 5L7.5 1C7.5 0.587977 7.02962 0.352786 6.7 0.6L4.56667 2.2C4.03333 2.6 4.03333 3.4 4.56667 3.8L6.7 5.4C7.02962 5.64721 7.5 5.41202 7.5 5Z" fill="#1C1C1C"/>
<circle cx="3" cy="12" r="1" fill="#1C1C1C"/>
<path d="M7 11L8.82929 9.17071C8.89229 9.10771 9 9.15233 9 9.24142V15" stroke="#1C1C1C" stroke-width="1.5" stroke-linecap="round"/>
<rect x="11.75" y="8.75" width="4.5" height="6.5" rx="2.25" stroke="#1C1C1C" stroke-width="1.5"/>
</g>
<defs>
<clipPath id="clip0_10883_28017">
<rect width="24" height="24" fill="white"/>
</clipPath>
</defs>
</svg>
