<svg width="32" height="32" viewBox="0 0 32 32" fill="none" xmlns="http://www.w3.org/2000/svg">
    <path d="M0 16C0 7.16344 7.16344 0 16 0C24.8366 0 32 7.16344 32 16C32 24.8366 24.8366 32 16 32C7.16344 32 0 24.8366 0 16Z" fill="#F2F2F2"/>
    <path d="M25.5449 13C24.2707 8.94291 20.4804 6.00001 16.0027 6.00001C12.0273 6.00001 8.59376 8.31972 6.98172 11.6794C6.67707 12.3143 7.17703 13 7.88127 13C8.30616 13 8.68294 12.739 8.87649 12.3608C10.2012 9.77203 12.895 8.00001 16.0027 8.00001C19.3601 8.00001 22.2344 10.0682 23.4212 13L25.5449 13Z" fill="#1C1C1C"/>
    <path d="M8.58424 19C9.77101 21.9318 12.6453 24 16.0027 24C19.1104 24 21.8043 22.228 23.129 19.6392C23.3225 19.261 23.6993 19 24.1242 19C24.8284 19 25.3284 19.6857 25.0237 20.3206C23.4117 23.6803 19.9781 26 16.0027 26C11.5251 26 7.73479 23.0571 6.46052 19L8.58424 19Z" fill="#1C1C1C"/>
    <path d="M21.4603 11.9983L26.5397 11.9983C26.9442 11.9983 27.1813 12.4536 26.9493 12.785L24.8192 15.828C24.4211 16.3967 23.5789 16.3967 23.1808 15.828L21.0507 12.785C20.8187 12.4536 21.0558 11.9983 21.4603 11.9983Z" fill="#1C1C1C"/>
    <path d="M10.0397 19L4.96033 19C4.55582 19 4.31874 18.5447 4.55071 18.2133L6.68077 15.1703C7.07887 14.6016 7.92113 14.6016 8.31923 15.1703L10.4493 18.2133C10.6813 18.5447 10.4442 19 10.0397 19Z" fill="#1C1C1C"/>
</svg>
