<svg width="16" height="16" viewBox="0 0 16 16" fill="none" xmlns="http://www.w3.org/2000/svg">
<path fill-rule="evenodd" clip-rule="evenodd" d="M6.99143 2.00004C6.44309 1.99542 6 1.54947 6 1.00004C6 0.447731 6.44773 0 7.00004 0C7.54947 0 7.99542 0.443089 8.00004 0.991433C8.00466 0.44309 8.4506 0 9.00004 0C9.55234 0 10.0001 0.447731 10.0001 1.00004C10.0001 1.54947 9.55698 1.99541 9.00864 2.00004C9.55698 2.00466 10.0001 2.4506 10.0001 3.00004C10.0001 3.54947 9.55698 3.99541 9.00864 4.00004C9.5542 4.00463 9.99558 4.44609 10 4.99169C10.0045 4.44323 10.4505 4 11 4C11.5523 4 12.0001 4.44773 12.0001 5.00004C12.0001 5.55234 11.5523 6.00007 11 6.00007C10.4505 6.00007 10.0045 5.55685 10 5.00839C9.99555 5.55685 9.54956 6.00007 9.00004 6.00007C8.4506 6.00007 8.00466 5.55698 8.00004 5.00864C7.99544 5.55412 7.55412 5.99544 7.00864 6.00004C7.55698 6.00466 8.00007 6.4506 8.00007 7.00004C8.00007 7.54956 7.55685 7.99555 7.00839 8.00004C7.55685 8.00452 8.00007 8.45052 8.00007 9.00004C8.00007 9.54956 7.55685 9.99555 7.00839 10C7.55407 10.0045 7.99557 10.446 8.00003 10.9917C8.00452 10.4432 8.45052 10 9.00004 10C9.55234 10 10.0001 10.4477 10.0001 11C10.0001 11.5523 9.55234 12.0001 9.00004 12.0001C8.45052 12.0001 8.00452 11.5568 8.00003 11.0084C7.99555 11.5568 7.54956 12.0001 7.00004 12.0001C6.44773 12.0001 6 11.5523 6 11C6 10.4505 6.44323 10.0045 6.99169 10C6.44323 9.99555 6 9.54956 6 9.00004C6 8.45052 6.44323 8.00452 6.99169 8.00004C6.44323 7.99555 6 7.54956 6 7.00004C6 6.4506 6.44309 6.00466 6.99143 6.00004C6.44595 5.99544 6.00463 5.55412 6.00004 5.00864C5.99541 5.55698 5.54947 6.00007 5.00004 6.00007C4.44773 6.00007 4 5.55234 4 5.00004C4 4.44773 4.44773 4 5.00004 4C5.54947 4 5.99541 4.44309 6.00004 4.99143C6.00463 4.44596 6.44595 4.00463 6.99143 4.00004C6.44309 3.99542 6 3.54947 6 3.00004C6 2.4506 6.44309 2.00466 6.99143 2.00004ZM7.00864 2.00004C7.55412 1.99544 7.99544 1.55412 8.00004 1.00864C8.00463 1.55412 8.44596 1.99544 8.99143 2.00004C8.44596 2.00463 8.00463 2.44596 8.00004 2.99143C7.99544 2.44595 7.55412 2.00463 7.00864 2.00004ZM7.00864 4.00004C7.55412 3.99544 7.99544 3.55412 8.00004 3.00864C8.00463 3.55412 8.44596 3.99544 8.99143 4.00004C8.44595 4.00463 8.00463 4.44595 8.00004 4.99143C7.99544 4.44595 7.55412 4.00463 7.00864 4.00004ZM10 13C10 13.5496 10.4432 13.9956 10.9917 14C10.4432 14.0045 10 14.4505 10 15C10 15.5523 10.4477 16.0001 11 16.0001C11.5496 16.0001 11.9956 15.5568 12 15.0084C12.0045 15.5568 12.4505 16.0001 13 16.0001C13.5523 16.0001 14.0001 15.5523 14.0001 15C14.0001 14.4477 13.5523 14 13 14C12.4505 14 12.0045 14.4432 12 14.9917C11.9956 14.446 11.5541 14.0045 11.0084 14C11.5568 13.9956 12.0001 13.5496 12.0001 13C12.0001 12.4477 11.5523 12 11 12C10.4477 12 10 12.4477 10 13ZM3.00004 8.00007C2.44773 8.00007 2 7.55234 2 7.00004C2 6.44773 2.44773 6 3.00004 6C3.55234 6 4.00007 6.44773 4.00007 7.00004C4.00007 7.55234 3.55234 8.00007 3.00004 8.00007ZM4 13C4 13.5523 4.44773 14.0001 5.00004 14.0001C5.55234 14.0001 6.00007 13.5523 6.00007 13C6.00007 12.4477 5.55234 12 5.00004 12C4.44773 12 4 12.4477 4 13ZM3.00004 16.0001C2.44773 16.0001 2 15.5523 2 15C2 14.4477 2.44773 14 3.00004 14C3.55234 14 4.00007 14.4477 4.00007 15C4.00007 15.5523 3.55234 16.0001 3.00004 16.0001Z" fill="#1C1C1C"/>
</svg>
