<svg width="17" height="16" viewBox="0 0 17 16" fill="none" xmlns="http://www.w3.org/2000/svg">
<g id="always on display">
<path id="Union" fill-rule="evenodd" clip-rule="evenodd" d="M9.0013 0.666626C9.0013 0.390484 8.77744 0.166626 8.5013 0.166626C8.22516 0.166626 8.0013 0.390484 8.0013 0.666626V1.99996C8.0013 2.2761 8.22516 2.49996 8.5013 2.49996C8.77744 2.49996 9.0013 2.2761 9.0013 1.99996V0.666626ZM12.168 7.99996C12.168 10.025 10.5264 11.6666 8.50131 11.6666C8.50131 11.6666 8.50131 11.6666 8.5013 11.6666L8.5013 4.3333C8.50131 4.3333 8.50131 4.3333 8.50131 4.3333C10.5264 4.3333 12.168 5.97492 12.168 7.99996ZM8.5013 3.3333C8.50131 3.3333 8.50131 3.3333 8.50131 3.3333C11.0786 3.3333 13.168 5.42264 13.168 7.99996C13.168 10.5773 11.0786 12.6666 8.50131 12.6666C8.17915 12.6666 7.8646 12.634 7.56082 12.5718C5.96225 12.2447 4.66142 11.1002 4.11403 9.59415C3.93325 9.09673 3.83464 8.55986 3.83464 7.99996C3.83464 5.42263 5.92397 3.33329 8.5013 3.33329V3.3333ZM8.5013 13.5C8.77744 13.5 9.0013 13.7238 9.0013 14V15.3333C9.0013 15.6094 8.77744 15.8333 8.5013 15.8333C8.22516 15.8333 8.0013 15.6094 8.0013 15.3333V14C8.0013 13.7238 8.22516 13.5 8.5013 13.5ZM2.5013 8.49997C2.77744 8.49997 3.0013 8.27611 3.0013 7.99997C3.0013 7.72383 2.77744 7.49997 2.5013 7.49997H1.16797C0.891826 7.49997 0.667969 7.72383 0.667969 7.99997C0.667969 8.27611 0.891826 8.49997 1.16797 8.49997H2.5013ZM4.61224 4.11088C4.41698 4.30614 4.1004 4.30614 3.90513 4.11088L2.96233 3.16807C2.76706 2.97281 2.76706 2.65622 2.96233 2.46096C3.15759 2.2657 3.47417 2.2657 3.66943 2.46096L4.61224 3.40377C4.8075 3.59903 4.8075 3.91562 4.61224 4.11088ZM4.61224 12.5962C4.8075 12.4009 4.8075 12.0843 4.61224 11.889C4.41698 11.6938 4.1004 11.6938 3.90513 11.889L2.96233 12.8319C2.76706 13.0271 2.76706 13.3437 2.96233 13.539C3.15759 13.7342 3.47417 13.7342 3.66943 13.539L4.61224 12.5962ZM14.0013 7.99997C14.0013 7.72383 14.2252 7.49997 14.5013 7.49997H15.8346C16.1108 7.49997 16.3346 7.72383 16.3346 7.99997C16.3346 8.27611 16.1108 8.49997 15.8346 8.49997H14.5013C14.2252 8.49997 14.0013 8.27611 14.0013 7.99997ZM13.0975 11.8891C12.9022 11.6938 12.5857 11.6938 12.3904 11.8891C12.1951 12.0843 12.1951 12.4009 12.3904 12.5962L13.3332 13.539C13.5285 13.7342 13.845 13.7342 14.0403 13.539C14.2356 13.3437 14.2356 13.0271 14.0403 12.8319L13.0975 11.8891ZM12.3904 4.11088C12.1951 3.91562 12.1951 3.59903 12.3904 3.40377L13.3332 2.46096C13.5285 2.2657 13.845 2.2657 14.0403 2.46096C14.2356 2.65622 14.2356 2.97281 14.0403 3.16807L13.0975 4.11088C12.9022 4.30614 12.5857 4.30614 12.3904 4.11088Z" fill="#F2F2F2"/>
</g>
</svg>
