<svg width="24" height="24" viewBox="0 0 24 24" fill="none" xmlns="http://www.w3.org/2000/svg">
<path d="M19.5311 1.26725C19.6922 0.831943 20.3078 0.831944 20.4689 1.26725L21.0006 2.70402C21.0512 2.84088 21.1591 2.94878 21.296 2.99942L22.7327 3.53107C23.1681 3.69215 23.1681 4.30785 22.7327 4.46893L21.296 5.00058C21.1591 5.05122 21.0512 5.15912 21.0006 5.29598L20.4689 6.73275C20.3078 7.16806 19.6922 7.16806 19.5311 6.73275L18.9994 5.29598C18.9488 5.15912 18.8409 5.05122 18.704 5.00058L17.2673 4.46893C16.8319 4.30785 16.8319 3.69215 17.2673 3.53107L18.704 2.99942C18.8409 2.94878 18.9488 2.84088 18.9994 2.70402L19.5311 1.26725Z" fill="#1C1C1C"/>
<circle cx="1" cy="14" r="1" fill="#1C1C1C"/>
<circle cx="10" cy="23" r="1" fill="#1C1C1C"/>
<circle cx="10" cy="5" r="1" fill="#1C1C1C"/>
<circle cx="19" cy="14" r="1" fill="#1C1C1C"/>
<circle cx="10" cy="14" r="9" stroke="#1C1C1C" stroke-width="2"/>
<path d="M19 14C19 15.3446 18.1606 16.6953 16.5261 17.7578C14.9011 18.814 12.5965 19.5 10 19.5C7.40346 19.5 5.09894 18.814 3.47392 17.7578C1.83941 16.6953 1 15.3446 1 14C1 12.6554 1.83941 11.3047 3.47392 10.2422C5.09894 9.18599 7.40346 8.5 10 8.5C12.5965 8.5 14.9011 9.18599 16.5261 10.2422C18.1606 11.3047 19 12.6554 19 14Z" stroke="#1C1C1C" stroke-width="2"/>
<circle cx="10" cy="11.5" r="1" fill="#1C1C1C"/>
<circle cx="10" cy="16.5" r="1" fill="#1C1C1C"/>
<circle cx="15" cy="14" r="1" fill="#1C1C1C"/>
<circle cx="5" cy="14" r="1" fill="#1C1C1C"/>
</svg>
