<svg width="224" height="224" viewBox="0 0 224 224" fill="none" xmlns="http://www.w3.org/2000/svg">
    <circle cx="111.884" cy="111.884" r="48.6038" stroke="#C8C8C8" stroke-width="2.81761"/>
    <circle cx="111.883" cy="111.884" r="52.8302" transform="rotate(45 111.883 111.884)" stroke="#C8C8C8" stroke-width="2.81761"/>
    <path d="M168.942 111.884C168.942 143.395 143.397 168.941 111.886 168.941C80.3746 168.941 54.8303 143.395 54.83 111.884C54.83 80.3728 80.3744 54.8278 111.886 54.8275C143.397 54.8275 168.942 80.3727 168.942 111.884Z" stroke="#C8C8C8" stroke-width="2.81761"/>
    <path d="M155.217 155.217C131.285 179.149 92.4826 179.15 68.5501 155.218C44.6176 131.285 44.6176 92.4825 68.5501 68.5499C92.4827 44.6177 131.285 44.6182 155.217 68.5506C179.149 92.4831 179.149 131.284 155.217 155.217Z" stroke="#C8C8C8" stroke-width="2.81761"/>
    <path d="M111.883 177.393C75.703 177.393 46.3731 148.064 46.373 111.884C46.373 75.7041 75.7029 46.3742 111.883 46.3742C148.063 46.3743 177.392 75.7042 177.392 111.884C177.391 148.064 148.062 177.393 111.883 177.393Z" stroke="#C8C8C8" stroke-width="2.81761"/>
    <circle cx="111.883" cy="111.884" r="69.7358" transform="rotate(-135 111.883 111.884)" stroke="#C8C8C8" stroke-width="2.81761"/>
    <circle cx="111.975" cy="111.975" r="60.5786" transform="rotate(-69.8503 111.975 111.975)" stroke="#C8C8C8" stroke-width="1.40881"/>
    <circle cx="111.973" cy="111.974" r="62.6918" transform="rotate(-109.85 111.973 111.974)" stroke="#C8C8C8" stroke-width="1.40881"/>
    <circle cx="111.975" cy="111.975" r="64.8051" transform="rotate(-149.85 111.975 111.975)" stroke="#C8C8C8" stroke-width="1.40881"/>
    <circle cx="111.974" cy="111.973" r="66.9183" transform="rotate(170.15 111.974 111.973)" stroke="#C8C8C8" stroke-width="1.40881"/>
    <circle cx="111.972" cy="111.975" r="58.4654" transform="rotate(130.15 111.972 111.975)" stroke="#C8C8C8" stroke-width="1.40881"/>
    <path d="M112 0C173.856 0 224 50.1441 224 112C224 173.856 173.856 224 112 224C50.1441 224 0 173.856 0 112C0 50.1441 50.1441 0 112 0ZM157.355 134.566C156.008 133.789 154.285 134.25 153.507 135.598C152.729 136.945 153.191 138.668 154.538 139.446L193.581 161.987C194.929 162.765 196.652 162.303 197.43 160.956C198.207 159.609 197.746 157.886 196.398 157.107L157.355 134.566ZM71.7617 135.597C70.9834 134.25 69.2604 133.788 67.9131 134.565L28.8711 157.106C27.524 157.884 27.0625 159.608 27.8398 160.955C28.6179 162.303 30.3409 162.764 31.6885 161.986L70.7305 139.445C72.078 138.667 72.5397 136.944 71.7617 135.597ZM111.998 97.9111C104.218 97.9113 97.9104 104.22 97.9102 112C97.9104 119.78 104.218 126.088 111.998 126.088C119.778 126.088 126.086 119.78 126.086 112C126.086 104.22 119.779 97.9112 111.998 97.9111ZM112.635 14.0879C111.079 14.0881 109.818 15.3494 109.817 16.9053V61.9873C109.818 63.5432 111.079 64.8045 112.635 64.8047C114.191 64.8045 115.452 63.5431 115.452 61.9873V16.9053C115.452 15.3495 114.191 14.0881 112.635 14.0879Z" fill="white"/>
    <circle cx="112" cy="202.868" r="4.22642" fill="#1C1C1C"/>
    <circle cx="111.998" cy="112" r="14.088" fill="#1C1C1C"/>
</svg>
