<svg width="24" height="24" viewBox="0 0 24 24" fill="none" xmlns="http://www.w3.org/2000/svg">
<rect width="24" height="24" rx="4" fill="#F2F2F2"/>
<path d="M6.64017 17.3598C6.40393 17.5961 6 17.4288 6 17.0947V7.2C6 6.87 6.1175 6.5875 6.3525 6.3525C6.5875 6.1175 6.87 6 7.2 6H16.8C17.13 6 17.4125 6.1175 17.6475 6.3525C17.8825 6.5875 18 6.87 18 7.2V14.4C18 14.73 17.8825 15.0125 17.6475 15.2475C17.4125 15.4825 17.13 15.6 16.8 15.6H8.4L6.64017 17.3598Z" fill="#1C1C1C"/>
<circle cx="9.59844" cy="10.8016" r="1.2" fill="white"/>
<circle cx="14.4031" cy="10.8016" r="1.2" fill="#FB471F"/>
</svg>
