<svg width="24" height="24" viewBox="0 0 24 24" fill="none" xmlns="http://www.w3.org/2000/svg">
<g id="quick-replies">
<mask id="mask0_5730_2475" style="mask-type:alpha" maskUnits="userSpaceOnUse" x="0" y="0" width="24" height="24">
<rect id="Bounding box" width="24" height="24" fill="#D9D9D9"/>
</mask>
<g mask="url(#mask0_5730_2475)">
<path id="chat_paste_go" d="M18.7028 20.2972C18.3146 20.6854 17.6854 20.6854 17.2972 20.2972C16.9113 19.9113 16.9088 19.2863 17.2917 18.8973L18.175 18H15C14.4477 18 14 17.5523 14 17C14 16.4477 14.4477 16 15 16H18.175L17.2917 15.1027C16.9088 14.7137 16.9113 14.0887 17.2972 13.7028C17.6854 13.3146 18.3146 13.3146 18.7028 13.7028L21.2929 16.2929C21.6834 16.6834 21.6834 17.3166 21.2929 17.7071L18.7028 20.2972ZM3.85355 20.1464C3.53857 20.4614 3 20.2383 3 19.7929V6C3 5.45 3.19583 4.97917 3.5875 4.5875C3.97917 4.19583 4.45 4 5 4H17C17.55 4 18.0208 4.19583 18.4125 4.5875C18.8042 4.97917 19 5.45 19 6V11.075C18.8333 11.0417 18.6667 11.0208 18.5 11.0125C18.3333 11.0042 18.1667 11 18 11C17.8333 11 17.6667 11.0042 17.5 11.0125C17.3333 11.0208 17.1667 11.0417 17 11.075V6H5V16H12.075C12.0417 16.1667 12.0208 16.3333 12.0125 16.5C12.0042 16.6667 12 16.8333 12 17C12 17.1667 12.0042 17.3333 12.0125 17.5C12.0208 17.6667 12.0417 17.8333 12.075 18H6L3.85355 20.1464ZM7 9C7 9.55228 7.44772 10 8 10H14C14.5523 10 15 9.55228 15 9C15 8.44772 14.5523 8 14 8H8C7.44772 8 7 8.44772 7 9ZM7 13C7 13.5523 7.44772 14 8 14H11C11.5523 14 12 13.5523 12 13C12 12.4477 11.5523 12 11 12H8C7.44772 12 7 12.4477 7 13Z" fill="#1C1B1F"/>
<circle id="Ellipse 236595" cx="12" cy="17" r="1" fill="#1C1C1C"/>
<circle id="Ellipse 236596" cx="18" cy="11" r="1" fill="#1C1C1C"/>
</g>
</g>
</svg>
