<svg width="24" height="24" viewBox="0 0 24 24" fill="none" xmlns="http://www.w3.org/2000/svg">
<rect width="24" height="24" rx="4" fill="#F2F2F2"/>
<path fill-rule="evenodd" clip-rule="evenodd" d="M8.24354 8.11578C6.13364 10.2257 6.13364 13.6465 8.24354 15.7565C10.3535 17.8664 13.7743 17.8664 15.8842 15.7565C16.6664 14.9743 17.1573 14.0149 17.3599 13.0082C17.4777 12.4232 18.0474 12.0444 18.6325 12.1621C19.2175 12.2799 19.5963 12.8496 19.4785 13.4346C19.1945 14.8457 18.5048 16.1921 17.4124 17.2846C14.4585 20.2385 9.66929 20.2385 6.71539 17.2846C3.76154 14.3307 3.76154 9.54153 6.71539 6.58763C7.80786 5.49521 9.15426 4.80549 10.5654 4.52145C11.1504 4.4037 11.7201 4.78249 11.8379 5.36753C11.9557 5.95256 11.5768 6.52231 10.9918 6.64006C9.98515 6.84267 9.02572 7.3336 8.24354 8.11578Z" fill="black"/>
<path d="M13.0055 6.76446C12.5554 6.31435 12.5554 5.58456 13.0055 5.13446C13.4557 4.68435 14.1855 4.68435 14.6356 5.13446L18.8634 9.36232C19.3135 9.81242 19.3135 10.5422 18.8634 10.9923C18.4133 11.4424 17.6835 11.4424 17.2334 10.9923L13.0055 6.76446Z" fill="#FB471F"/>
</svg>
