<svg width="318" height="318" viewBox="0 0 318 318" fill="none" xmlns="http://www.w3.org/2000/svg">
<rect opacity="0.8" x="261.263" y="57.5303" width="1" height="16" rx="0.5" transform="rotate(45 261.263 57.5303)" fill="#1C1C1C"/>
<rect x="70.3438" y="248.449" width="1" height="16" rx="0.5" transform="rotate(45 70.3438 248.449)" fill="#E3E3E3"/>
<rect opacity="0.7" x="231.567" y="34.9082" width="1" height="16" rx="0.5" transform="rotate(30 231.567 34.9082)" fill="#1C1C1C"/>
<rect x="96.5669" y="268.735" width="1" height="16" rx="0.5" transform="rotate(30 96.5669 268.735)" fill="#E3E3E3"/>
<rect opacity="0.6" x="197.028" y="20.7432" width="1" height="16" rx="0.5" transform="rotate(15 197.028 20.7432)" fill="#1C1C1C"/>
<rect x="127.146" y="281.543" width="1" height="16" rx="0.5" transform="rotate(15 127.146 281.543)" fill="#E3E3E3"/>
<rect opacity="0.4" x="123.006" y="21.002" width="1" height="16" rx="0.5" transform="rotate(-15 123.006 21.002)" fill="#1C1C1C"/>
<rect x="192.887" y="281.802" width="1" height="16" rx="0.5" transform="rotate(-15 192.887 281.802)" fill="#E3E3E3"/>
<rect opacity="0.3" x="88.5669" y="35.4082" width="1" height="16" rx="0.5" transform="rotate(-30 88.5669 35.4082)" fill="#1C1C1C"/>
<rect x="223.566" y="269.235" width="1" height="16" rx="0.5" transform="rotate(-30 223.566 269.235)" fill="#E3E3E3"/>
<rect x="36.4087" y="87.9326" width="1" height="16" rx="0.5" transform="rotate(-60 36.4087 87.9326)" fill="#E3E3E3"/>
<rect x="270.235" y="222.934" width="1" height="16" rx="0.5" transform="rotate(-60 270.235 222.934)" fill="#E3E3E3"/>
<rect x="22.2427" y="122.472" width="1" height="16" rx="0.5" transform="rotate(-75 22.2427 122.472)" fill="#E3E3E3"/>
<rect x="283.042" y="192.354" width="1" height="16" rx="0.5" transform="rotate(-75 283.042 192.354)" fill="#E3E3E3"/>
<rect x="22.502" y="196.494" width="1" height="16" rx="0.5" transform="rotate(-105 22.502 196.494)" fill="#E3E3E3"/>
<rect x="283.301" y="126.613" width="1" height="16" rx="0.5" transform="rotate(-105 283.301 126.613)" fill="#1C1C1C"/>
<rect x="36.9082" y="230.933" width="1" height="16" rx="0.5" transform="rotate(-120 36.9082 230.933)" fill="#E3E3E3"/>
<rect opacity="0.9" x="270.734" y="95.9336" width="1" height="16" rx="0.5" transform="rotate(-120 270.734 95.9336)" fill="#1C1C1C"/>
<rect x="59.0303" y="58.2373" width="1" height="16" rx="0.5" transform="rotate(-45 59.0303 58.2373)" fill="#E3E3E3"/>
<rect x="249.949" y="249.156" width="1" height="16" rx="0.5" transform="rotate(-45 249.949 249.156)" fill="#E3E3E3"/>
<rect x="49" y="158.5" width="1" height="32" rx="0.5" transform="rotate(90 49 158.5)" fill="#E3E3E3"/>
<rect opacity="0.5" x="159" y="32" width="1" height="16" rx="0.500001" transform="rotate(-180 159 32)" fill="#1C1C1C"/>
<circle cx="294" cy="159" r="8" fill="#1C1C1C"/>
<rect x="159.5" y="302" width="1" height="16" rx="0.500001" transform="rotate(-180 159.5 302)" fill="#E3E3E3"/>
<circle cx="159" cy="159" r="48" fill="#1C1C1C"/>
</svg>
