<svg width="24" height="24" viewBox="0 0 24 24" fill="none" xmlns="http://www.w3.org/2000/svg">
<path d="M7.73535 3C8.10833 3 8.43288 2.99558 8.75195 3.06055C9.01469 3.11408 9.26958 3.20211 9.50879 3.32324C9.79919 3.47033 10.0504 3.67578 10.3428 3.90723L11.7549 5.02441C12.1095 5.30516 12.1818 5.35756 12.251 5.39258C12.3306 5.43286 12.4155 5.46166 12.5029 5.47949C12.5789 5.49496 12.6677 5.5 13.1201 5.5H18.2803C18.8238 5.5 19.2921 5.49893 19.6758 5.53027C20.071 5.56258 20.4645 5.63442 20.8428 5.82715C21.407 6.11471 21.8657 6.57352 22.1533 7.1377C22.3461 7.51595 22.4179 7.90947 22.4502 8.30469C22.4815 8.68833 22.4805 9.1567 22.4805 9.7002V10.2324C23.2671 10.9162 23.6871 11.9972 23.4512 13.1182L22.293 18.6182C22.0006 20.0063 20.776 21 19.3574 21H3.48047C3.46967 21 3.45896 20.9984 3.44824 20.998C3.43653 20.9982 3.42482 21 3.41309 21C1.79351 21 0.480245 19.687 0.480469 18.0674V7.2002C0.480469 6.6567 0.479397 6.18833 0.510742 5.80469C0.543058 5.40947 0.614886 5.01595 0.807617 4.6377C1.09519 4.07352 1.55397 3.61471 2.11816 3.32715C2.49645 3.13441 2.88991 3.06258 3.28516 3.03027C3.66882 2.99893 4.13712 3 4.68066 3H7.73535ZM4.68066 5C4.10412 5 3.73158 5.00126 3.44824 5.02441C3.17674 5.0466 3.07582 5.08419 3.02637 5.10938C2.83843 5.2052 2.68569 5.35797 2.58984 5.5459C2.56466 5.59533 2.52708 5.69628 2.50488 5.96777C2.48173 6.25109 2.48047 6.62371 2.48047 7.2002V7.95898C2.48102 7.97258 2.48242 7.98627 2.48242 8L2.48047 18.0674C2.48039 18.5823 2.89819 19 3.41309 19C3.85381 18.9999 4.23432 18.691 4.3252 18.2598L5.66895 11.8818C5.96144 10.494 7.18619 9.50013 8.60449 9.5H20.4795C20.479 9.03502 20.4764 8.71686 20.4561 8.46777C20.4339 8.19628 20.3963 8.09533 20.3711 8.0459C20.2752 7.85798 20.1225 7.7052 19.9346 7.60938C19.8851 7.58419 19.7842 7.5466 19.5127 7.52441C19.2294 7.50127 18.8568 7.5 18.2803 7.5H13.1201C12.7471 7.5 12.4226 7.50443 12.1035 7.43945C11.841 7.38594 11.5867 7.29776 11.3477 7.17676C11.0572 7.02965 10.8051 6.82428 10.5127 6.59277L9.10156 5.47559C8.74689 5.19481 8.67364 5.14244 8.60449 5.10742C8.52487 5.06716 8.43997 5.03831 8.35254 5.02051C8.2766 5.00505 8.18772 5 7.73535 5H4.68066ZM8.60449 11.5C8.13183 11.5001 7.72349 11.8314 7.62598 12.2939L6.28223 18.6729C6.2586 18.7849 6.22608 18.8935 6.19043 19H19.3574C19.8303 19 20.2385 18.6687 20.3359 18.2061L21.4941 12.7061C21.6249 12.0846 21.1507 11.5 20.5156 11.5H8.60449ZM15.9805 14.2793C16.5327 14.2793 16.9804 14.727 16.9805 15.2793C16.9805 15.8316 16.5328 16.2793 15.9805 16.2793H11.9805C11.4282 16.2793 10.9805 15.8316 10.9805 15.2793C10.9805 14.727 11.4282 14.2793 11.9805 14.2793H15.9805Z" fill="#1C1C1C"/>
</svg>
