<svg width="24" height="24" viewBox="0 0 24 24" fill="none" xmlns="http://www.w3.org/2000/svg">
<path d="M17.5 11C18.0523 11 18.5 11.4477 18.5 12V13.126C18.8677 13.2206 19.2144 13.3671 19.5332 13.5557L20.332 12.7578C20.7226 12.3673 21.3556 12.3673 21.7461 12.7578C22.1366 13.1483 22.1366 13.7814 21.7461 14.1719L20.9463 14.9707C21.1338 15.2885 21.2798 15.6338 21.374 16H22.5C23.0523 16 23.5 16.4477 23.5 17C23.5 17.5523 23.0523 18 22.5 18H21.374C21.2793 18.3679 21.1321 18.7143 20.9434 19.0332L21.7383 19.8281C22.1288 20.2186 22.1288 20.8517 21.7383 21.2422C21.3478 21.6327 20.7147 21.6327 20.3242 21.2422L19.5283 20.4463C19.2108 20.6336 18.866 20.7798 18.5 20.874V22C18.5 22.5523 18.0523 23 17.5 23C16.9477 23 16.5 22.5523 16.5 22V20.874C16.1338 20.7798 15.7885 20.6338 15.4707 20.4463L14.6758 21.2422C14.2853 21.6327 13.6522 21.6327 13.2617 21.2422C12.8712 20.8517 12.8712 20.2186 13.2617 19.8281L14.0557 19.0332C13.8671 18.7144 13.7206 18.3677 13.626 18H12.5C11.9477 18 11.5 17.5523 11.5 17C11.5 16.4477 11.9477 16 12.5 16H13.626C13.7202 15.6339 13.8653 15.2883 14.0527 14.9707L13.2539 14.1719C12.8634 13.7814 12.8634 13.1483 13.2539 12.7578C13.6444 12.3673 14.2774 12.3673 14.668 12.7578L15.4658 13.5557C15.7848 13.3669 16.132 13.2207 16.5 13.126V12C16.5 11.4477 16.9477 11 17.5 11ZM18.5 1C20.7091 1 22.5 2.79086 22.5 5V9.75C22.5 10.3023 22.0523 10.75 21.5 10.75C20.9477 10.75 20.5 10.3023 20.5 9.75V9H2.5V17C2.5 18.1046 3.39543 19 4.5 19H6.5C7.05228 19 7.5 19.4477 7.5 20C7.5 20.5523 7.05228 21 6.5 21H4.5C2.29086 21 0.5 19.2091 0.5 17V5C0.5 2.79086 2.29086 1 4.5 1H18.5ZM17.5 15C16.3954 15 15.5 15.8954 15.5 17C15.5 17.5428 15.7173 18.0342 16.0684 18.3945C16.0754 18.4012 16.083 18.4072 16.0898 18.4141C16.0957 18.4199 16.1007 18.4266 16.1064 18.4326C16.4667 18.7831 16.9577 19 17.5 19C18.0421 19 18.5324 18.7828 18.8926 18.4326C18.8984 18.4265 18.9041 18.4201 18.9102 18.4141C18.9169 18.4074 18.9238 18.401 18.9307 18.3945C19.282 18.0341 19.5 17.5431 19.5 17C19.5 15.8954 18.6046 15 17.5 15ZM6.5 15C7.05228 15 7.5 15.4477 7.5 16C7.5 16.5523 7.05228 17 6.5 17H4.5C3.94772 17 3.5 16.5523 3.5 16C3.5 15.4477 3.94772 15 4.5 15H6.5ZM10.5 11C11.0523 11 11.5 11.4477 11.5 12C11.5 12.5523 11.0523 13 10.5 13H4.5C3.94772 13 3.5 12.5523 3.5 12C3.5 11.4477 3.94772 11 4.5 11H10.5ZM4.5 3C3.39543 3 2.5 3.89543 2.5 5V7H20.5V5C20.5 3.89543 19.6046 3 18.5 3H4.5ZM4.5 4C5.05228 4 5.5 4.44772 5.5 5C5.5 5.55228 5.05228 6 4.5 6C3.94772 6 3.5 5.55228 3.5 5C3.5 4.44772 3.94772 4 4.5 4ZM7.5 4C8.05228 4 8.5 4.44772 8.5 5C8.5 5.55228 8.05228 6 7.5 6C6.94772 6 6.5 5.55228 6.5 5C6.5 4.44772 6.94772 4 7.5 4ZM10.5 4C11.0523 4 11.5 4.44772 11.5 5C11.5 5.55228 11.0523 6 10.5 6C9.94771 6 9.5 5.55228 9.5 5C9.5 4.44772 9.94771 4 10.5 4Z" fill="#1C1C1C"/>
</svg>
