<svg width="24" height="24" viewBox="0 0 24 24" fill="none" xmlns="http://www.w3.org/2000/svg">
<path d="M17.8672 11.1562C18.2777 11.0194 18.7223 11.0194 19.1328 11.1562L22.9385 12.4258C23.5723 12.6371 24 13.2303 24 13.8984V15.2656C24 18.5396 22.0718 21.5072 19.0801 22.8369C18.7109 23.0009 18.2891 23.0009 17.9199 22.8369C14.9282 21.5072 13 18.5396 13 15.2656V13.8984C13 13.2303 13.4277 12.6371 14.0615 12.4258L17.8672 11.1562ZM17 2C19.2091 2 21 3.79086 21 6V8C21 8.55228 20.5523 9 20 9C19.4477 9 19 8.55228 19 8V6C19 4.89543 18.1046 4 17 4H6C4.89543 4 4 4.89543 4 6V18C4 19.1046 4.89543 20 6 20H10C10.5523 20 11 20.4477 11 21C11 21.5523 10.5523 22 10 22H6C3.79086 22 2 20.2091 2 18V6C2 3.79086 3.79086 2 6 2H17ZM15 14.2207V15.2656C15 17.6634 16.3635 19.8439 18.5 20.8994C20.6365 19.8439 22 17.6634 22 15.2656V14.2207L18.5 13.0537L15 14.2207ZM10 14C10.5523 14 11 14.4477 11 15C11 15.5523 10.5523 16 10 16H7C6.44772 16 6 15.5523 6 15C6 14.4477 6.44772 14 7 14H10ZM13 10C13.5523 10 14 10.4477 14 11C14 11.5523 13.5523 12 13 12H7C6.44772 12 6 11.5523 6 11C6 10.4477 6.44772 10 7 10H13ZM16 6C16.5523 6 17 6.44772 17 7C17 7.55228 16.5523 8 16 8H7C6.44772 8 6 7.55228 6 7C6 6.44772 6.44772 6 7 6H16Z" fill="#F2F2F2"/>
</svg>
