<svg width="24" height="24" viewBox="0 0 24 24" fill="none" xmlns="http://www.w3.org/2000/svg">
<path d="M2 16C2.55228 16 3 16.4477 3 17V18C3 19.6569 4.34315 21 6 21H7C7.55228 21 8 21.4477 8 22C8 22.5523 7.55228 23 7 23H6C3.23858 23 1 20.7614 1 18V17C1 16.4477 1.44772 16 2 16ZM10.25 21C10.8023 21 11.25 21.4477 11.25 22C11.25 22.5523 10.8023 23 10.25 23C9.69771 23 9.25 22.5523 9.25 22C9.25 21.4477 9.69771 21 10.25 21ZM13.75 21C14.3023 21 14.75 21.4477 14.75 22C14.75 22.5523 14.3023 23 13.75 23C13.1977 23 12.75 22.5523 12.75 22C12.75 21.4477 13.1977 21 13.75 21ZM22 16C22.5523 16 23 16.4477 23 17V18C23 20.7614 20.7614 23 18 23H17C16.4477 23 16 22.5523 16 22C16 21.4477 16.4477 21 17 21H18C19.6569 21 21 19.6569 21 18V17C21 16.4477 21.4477 16 22 16ZM12.1836 3.50488C14.0623 3.60009 15.5566 5.15334 15.5566 7.05566L15.5518 7.23828C15.4923 8.41289 14.862 9.43624 13.9336 10.0391C15.4832 10.7663 16.5566 12.3402 16.5566 14.165V19.498C16.5566 20.0502 16.1087 20.4978 15.5566 20.498C15.0044 20.498 14.5566 20.0503 14.5566 19.498V14.165C14.5566 12.7537 13.4122 11.6095 12.001 11.6094C10.5896 11.6094 9.44531 12.7536 9.44531 14.165V19.498C9.44531 20.0503 8.99751 20.4979 8.44531 20.498C7.89303 20.498 7.44531 20.0503 7.44531 19.498V14.165C7.44531 12.3392 8.51951 10.7648 10.0703 10.0381C9.14121 9.43546 8.50969 8.41347 8.4502 7.23828L8.44531 7.05566C8.44531 5.09198 10.0373 3.5 12.001 3.5L12.1836 3.50488ZM2 12.75C2.55228 12.75 3 13.1977 3 13.75C3 14.3023 2.55228 14.75 2 14.75C1.44772 14.75 1 14.3023 1 13.75C1 13.1977 1.44772 12.75 2 12.75ZM22 12.75C22.5523 12.75 23 13.1977 23 13.75C23 14.3023 22.5523 14.75 22 14.75C21.4477 14.75 21 14.3023 21 13.75C21 13.1977 21.4477 12.75 22 12.75ZM2 9.25C2.55228 9.25 3 9.69771 3 10.25C3 10.8023 2.55228 11.25 2 11.25C1.44772 11.25 1 10.8023 1 10.25C1 9.69771 1.44772 9.25 2 9.25ZM22 9.25C22.5523 9.25 23 9.69771 23 10.25C23 10.8023 22.5523 11.25 22 11.25C21.4477 11.25 21 10.8023 21 10.25C21 9.69771 21.4477 9.25 22 9.25ZM12.001 5.5C11.1419 5.5 10.4453 6.19655 10.4453 7.05566C10.4454 7.91472 11.1419 8.61133 12.001 8.61133C12.8599 8.61116 13.5566 7.91462 13.5566 7.05566C13.5566 6.19666 12.8599 5.50016 12.001 5.5ZM7 1C7.55228 1 8 1.44772 8 2C8 2.55228 7.55228 3 7 3H6C4.34315 3 3 4.34315 3 6V7C3 7.55228 2.55228 8 2 8C1.44772 8 1 7.55228 1 7V6C1 3.23858 3.23858 1 6 1H7ZM18 1C20.7614 1 23 3.23858 23 6V7C23 7.55228 22.5523 8 22 8C21.4477 8 21 7.55228 21 7V6C21 4.34315 19.6569 3 18 3H17C16.4477 3 16 2.55228 16 2C16 1.44772 16.4477 1 17 1H18ZM10.25 1C10.8023 1 11.25 1.44772 11.25 2C11.25 2.55228 10.8023 3 10.25 3C9.69771 3 9.25 2.55228 9.25 2C9.25 1.44772 9.69771 1 10.25 1ZM13.75 1C14.3023 1 14.75 1.44772 14.75 2C14.75 2.55228 14.3023 3 13.75 3C13.1977 3 12.75 2.55228 12.75 2C12.75 1.44772 13.1977 1 13.75 1Z" fill="#F2F2F2"/>
</svg>
