<svg width="24" height="24" viewBox="0 0 24 24" fill="none" xmlns="http://www.w3.org/2000/svg">
<path d="M12.7881 12.2871C15.1312 9.94397 18.9303 9.94399 21.2734 12.2871C23.6165 14.6303 23.6166 18.4293 21.2734 20.7725C18.9303 23.115 15.1311 23.1153 12.7881 20.7725C10.4451 18.4295 10.4455 14.6303 12.7881 12.2871ZM15.9609 1.45898C18.1701 1.45898 19.9609 3.24986 19.9609 5.45898V7.45898C19.9609 8.01127 19.5132 8.45898 18.9609 8.45898C18.4087 8.45898 17.9609 8.01127 17.9609 7.45898V5.45898C17.9609 4.35443 17.0655 3.45898 15.9609 3.45898H4.96094C3.85638 3.45898 2.96096 4.35443 2.96094 5.45898V17.459C2.96094 18.5636 3.85637 19.459 4.96094 19.459H7.96094C8.51321 19.459 8.96092 19.9067 8.96094 20.459C8.96094 21.0113 8.51322 21.459 7.96094 21.459H4.96094C2.7518 21.459 0.960938 19.6681 0.960938 17.459V5.45898C0.960959 3.24986 2.75181 1.45898 4.96094 1.45898H15.9609ZM14.9932 19.9717C16.5277 20.8816 18.5397 20.6768 19.8594 19.3574C21.1789 18.0378 21.3836 16.0258 20.4736 14.4912L14.9932 19.9717ZM19.0576 13.0791C17.5245 12.1772 15.5184 12.3849 14.2021 13.7012C12.8864 15.0174 12.6793 17.0227 13.5811 18.5557L19.0576 13.0791ZM5.96094 13.459C6.51321 13.459 6.96092 13.9067 6.96094 14.459C6.96094 15.0113 6.51322 15.459 5.96094 15.459C5.40865 15.459 4.96094 15.0113 4.96094 14.459C4.96096 13.9067 5.40867 13.459 5.96094 13.459ZM10.9609 9.45898C11.5132 9.45898 11.9609 9.90672 11.9609 10.459C11.9609 11.0113 11.5132 11.459 10.9609 11.459H5.96094C5.40865 11.459 4.96094 11.0113 4.96094 10.459C4.96096 9.90672 5.40867 9.45898 5.96094 9.45898H10.9609ZM12.9609 5.45898C13.5132 5.45898 13.9609 5.90672 13.9609 6.45898C13.9609 7.01127 13.5132 7.45898 12.9609 7.45898H5.96094C5.40865 7.45898 4.96094 7.01127 4.96094 6.45898C4.96096 5.90672 5.40867 5.45898 5.96094 5.45898H12.9609Z" fill="#F2F2F2"/>
</svg>
