<svg width="24" height="24" viewBox="0 0 24 24" fill="none" xmlns="http://www.w3.org/2000/svg">
<path d="M12.7773 1C13.3296 1 13.7773 1.44772 13.7773 2C13.7773 2.55228 13.3296 3 12.7773 3H6C4.34315 3 3 4.34315 3 6V18C3 19.6569 4.34315 21 6 21H7.44531V15.665C7.44531 13.8392 8.51951 12.2648 10.0703 11.5381C9.14121 10.9355 8.50969 9.91347 8.4502 8.73828L8.44531 8.55566C8.44531 6.59198 10.0373 5 12.001 5L12.1836 5.00488C14.0623 5.10009 15.5566 6.65334 15.5566 8.55566L15.5518 8.73828C15.4923 9.91289 14.862 10.9362 13.9336 11.5391C15.4832 12.2663 16.5566 13.8402 16.5566 15.665V21H18C19.6569 21 21 19.6569 21 18V10.7227C21 10.1704 21.4477 9.72266 22 9.72266C22.5523 9.72266 23 10.1704 23 10.7227V18C23 20.7614 20.7614 23 18 23H6C3.23858 23 1 20.7614 1 18V6C1 3.23858 3.23858 1 6 1H12.7773ZM12.001 13.1094C10.5896 13.1094 9.44531 14.2536 9.44531 15.665V21H14.5566V15.665C14.5566 14.2537 13.4122 13.1095 12.001 13.1094ZM12.001 7C11.1419 7 10.4453 7.69655 10.4453 8.55566C10.4454 9.41472 11.1419 10.1113 12.001 10.1113C12.8599 10.1112 13.5566 9.41462 13.5566 8.55566C13.5566 7.69666 12.8599 7.00016 12.001 7ZM19.5 1C20.0523 1 20.5 1.44772 20.5 2V3.5H22C22.5523 3.5 23 3.94772 23 4.5C23 5.05228 22.5523 5.5 22 5.5H20.5V7C20.5 7.55228 20.0523 8 19.5 8C18.9477 8 18.5 7.55228 18.5 7V5.5H17C16.4477 5.5 16 5.05228 16 4.5C16 3.94772 16.4477 3.5 17 3.5H18.5V2C18.5 1.44772 18.9477 1 19.5 1Z" fill="#F2F2F2"/>
</svg>
