<svg width="22" height="21" viewBox="0 0 22 21" fill="none" xmlns="http://www.w3.org/2000/svg">
<path d="M15.8672 9.15625C16.2777 9.01941 16.7223 9.01941 17.1328 9.15625L20.9385 10.4258C21.5723 10.6371 22 11.2303 22 11.8984V13.2656C22 16.5396 20.0718 19.5072 17.0801 20.8369C16.7109 21.0009 16.2891 21.0009 15.9199 20.8369C12.9282 19.5072 11 16.5396 11 13.2656V11.8984C11 11.2303 11.4277 10.6371 12.0615 10.4258L15.8672 9.15625ZM15 0C17.2091 0 19 1.79086 19 4V6C19 6.55228 18.5523 7 18 7C17.4477 7 17 6.55228 17 6V4C17 2.89543 16.1046 2 15 2H4C2.89543 2 2 2.89543 2 4V16C2 17.1046 2.89543 18 4 18H8C8.55229 18 9 18.4477 9 19C9 19.5523 8.55229 20 8 20H4C1.79086 20 4.83192e-08 18.2091 0 16V4C1.9328e-07 1.79086 1.79086 4.0266e-08 4 0H15ZM13 12.2207V13.2656C13 15.6634 14.3635 17.8439 16.5 18.8994C18.6365 17.8439 20 15.6634 20 13.2656V12.2207L16.5 11.0537L13 12.2207ZM16.5 15C17.0523 15 17.5 15.4477 17.5 16V17C17.5 17.5523 17.0523 18 16.5 18C15.9477 18 15.5 17.5523 15.5 17V16C15.5 15.4477 15.9477 15 16.5 15ZM8 12C8.55229 12 9 12.4477 9 13C9 13.5523 8.55229 14 8 14H5C4.44772 14 4 13.5523 4 13C4 12.4477 4.44772 12 5 12H8ZM16.5 12C17.0522 12 17.4999 12.4478 17.5 13C17.5 13.5523 17.0523 14 16.5 14C15.9477 14 15.5 13.5523 15.5 13C15.5001 12.4478 15.9478 12 16.5 12ZM11 8C11.5523 8 12 8.44771 12 9C12 9.55229 11.5523 10 11 10H5C4.44772 10 4 9.55229 4 9C4 8.44771 4.44772 8 5 8H11ZM14 4C14.5523 4 15 4.44772 15 5C15 5.55228 14.5523 6 14 6H5C4.44772 6 4 5.55228 4 5C4 4.44772 4.44772 4 5 4H14Z" fill="#F2F2F2"/>
</svg>
