<svg width="318" height="318" viewBox="0 0 318 318" fill="none" xmlns="http://www.w3.org/2000/svg">
    <path d="M158 41C158 40.4477 158.448 40 159 40C159.552 40 160 40.4477 160 41V277C160 277.552 159.552 278 159 278C158.448 278 158 277.552 158 277V41Z" fill="#1C1C1C"/>
    <g opacity="0.1">
        <circle cx="143" cy="47" r="1" fill="#1C1C1C"/>
    </g>
    <g opacity="0.1">
        <circle cx="143" cy="63" r="1" fill="#1C1C1C"/>
    </g>
    <g opacity="0.2">
        <circle cx="143" cy="79" r="1" fill="#1C1C1C"/>
    </g>
    <g opacity="0.3">
        <circle cx="143" cy="95" r="1" fill="#1C1C1C"/>
    </g>
    <g opacity="0.4">
        <circle cx="143" cy="111" r="1" fill="#1C1C1C"/>
    </g>
    <g opacity="0.5">
        <circle cx="143" cy="127" r="1" fill="#1C1C1C"/>
    </g>
    <g opacity="0.6">
        <circle cx="143" cy="143" r="1" fill="#1C1C1C"/>
    </g>
    <g opacity="0.7">
        <circle cx="143" cy="159" r="1" fill="#1C1C1C"/>
    </g>
    <g opacity="0.7">
        <circle cx="143" cy="175" r="1" fill="#1C1C1C"/>
    </g>
    <g opacity="0.6">
        <circle cx="143" cy="191" r="1" fill="#1C1C1C"/>
    </g>
    <g opacity="0.5">
        <circle cx="143" cy="207" r="1" fill="#1C1C1C"/>
    </g>
    <g opacity="0.4">
        <circle cx="143" cy="223" r="1" fill="#1C1C1C"/>
    </g>
    <g opacity="0.3">
        <circle cx="143" cy="239" r="1" fill="#1C1C1C"/>
    </g>
    <g opacity="0.2">
        <circle cx="143" cy="255" r="1" fill="#1C1C1C"/>
    </g>
    <g opacity="0.1">
        <circle cx="143" cy="271" r="1" fill="#1C1C1C"/>
    </g>
    <g opacity="0.1">
        <circle cx="143" cy="287" r="1" fill="#1C1C1C"/>
    </g>
    <g opacity="0.1">
        <circle cx="175" cy="47" r="1" fill="#1C1C1C"/>
    </g>
    <g opacity="0.1">
        <circle cx="175" cy="63" r="1" fill="#1C1C1C"/>
    </g>
    <g opacity="0.2">
        <circle cx="175" cy="79" r="1" fill="#1C1C1C"/>
    </g>
    <g opacity="0.3">
        <circle cx="175" cy="95" r="1" fill="#1C1C1C"/>
    </g>
    <g opacity="0.4">
        <circle cx="175" cy="111" r="1" fill="#1C1C1C"/>
    </g>
    <g opacity="0.5">
        <circle cx="175" cy="127" r="1" fill="#1C1C1C"/>
    </g>
    <g opacity="0.6">
        <circle cx="175" cy="143" r="1" fill="#1C1C1C"/>
    </g>
    <g opacity="0.7">
        <circle cx="175" cy="159" r="1" fill="#1C1C1C"/>
    </g>
    <g opacity="0.7">
        <circle cx="175" cy="175" r="1" fill="#1C1C1C"/>
    </g>
    <g opacity="0.6">
        <circle cx="175" cy="191" r="1" fill="#1C1C1C"/>
    </g>
    <g opacity="0.5">
        <circle cx="175" cy="207" r="1" fill="#1C1C1C"/>
    </g>
    <g opacity="0.4">
        <circle cx="175" cy="223" r="1" fill="#1C1C1C"/>
    </g>
    <g opacity="0.3">
        <circle cx="175" cy="239" r="1" fill="#1C1C1C"/>
    </g>
    <g opacity="0.2">
        <circle cx="175" cy="255" r="1" fill="#1C1C1C"/>
    </g>
    <g opacity="0.1">
        <circle cx="175" cy="271" r="1" fill="#1C1C1C"/>
    </g>
    <g opacity="0.1">
        <circle cx="175" cy="287" r="1" fill="#1C1C1C"/>
    </g>
    <g opacity="0.08">
        <circle cx="111" cy="63" r="1" fill="#1C1C1C"/>
    </g>
    <g opacity="0.1">
        <circle cx="191" cy="63" r="1" fill="#1C1C1C"/>
    </g>
    <g opacity="0.1">
        <circle cx="127" cy="63" r="1" fill="#1C1C1C"/>
    </g>
    <g opacity="0.16">
        <circle cx="111" cy="79" r="1" fill="#1C1C1C"/>
    </g>
    <g opacity="0.08">
        <circle cx="207" cy="63" r="1" fill="#1C1C1C"/>
    </g>
    <g opacity="0.2">
        <circle cx="191" cy="79" r="1" fill="#1C1C1C"/>
    </g>
    <g opacity="0.2">
        <circle cx="127" cy="79" r="1" fill="#1C1C1C"/>
    </g>
    <g opacity="0.24">
        <circle cx="111" cy="95" r="1" fill="#1C1C1C"/>
    </g>
    <g opacity="0.096">
        <circle cx="95" cy="79" r="1" fill="#1C1C1C"/>
    </g>
    <g opacity="0.096">
        <circle cx="223" cy="79" r="1" fill="#1C1C1C"/>
    </g>
    <g opacity="0.16">
        <circle cx="207" cy="79" r="1" fill="#1C1C1C"/>
    </g>
    <g opacity="0.3">
        <circle cx="191" cy="95" r="1" fill="#1C1C1C"/>
    </g>
    <g opacity="0.32">
        <circle cx="111" cy="111" r="1" fill="#1C1C1C"/>
    </g>
    <g opacity="0.3">
        <circle cx="127" cy="95" r="1" fill="#1C1C1C"/>
    </g>
    <g opacity="0.144">
        <circle cx="95" cy="95" r="1" fill="#1C1C1C"/>
    </g>
    <g opacity="0.072">
        <circle cx="79" cy="95" r="1" fill="#1C1C1C"/>
    </g>
    <g opacity="0.072">
        <circle cx="239" cy="95" r="1" fill="#1C1C1C"/>
    </g>
    <g opacity="0.144">
        <circle cx="223" cy="95" r="1" fill="#1C1C1C"/>
    </g>
    <g opacity="0.24">
        <circle cx="207" cy="95" r="1" fill="#1C1C1C"/>
    </g>
    <g opacity="0.4">
        <circle cx="111" cy="127" r="1" fill="#1C1C1C"/>
    </g>
    <g opacity="0.4">
        <circle cx="191" cy="111" r="1" fill="#1C1C1C"/>
    </g>
    <g opacity="0.4">
        <circle cx="127" cy="111" r="1" fill="#1C1C1C"/>
    </g>
    <g opacity="0.192">
        <circle cx="95" cy="111" r="1" fill="#1C1C1C"/>
    </g>
    <g opacity="0.096">
        <circle cx="79" cy="111" r="1" fill="#1C1C1C"/>
    </g>
    <g opacity="0.096">
        <circle cx="239" cy="111" r="1" fill="#1C1C1C"/>
    </g>
    <g opacity="0.0576">
        <circle cx="255" cy="111" r="1" fill="#1C1C1C"/>
    </g>
    <g opacity="0.0576">
        <circle cx="63" cy="111" r="1" fill="#1C1C1C"/>
    </g>
    <g opacity="0.0576">
        <circle cx="63" cy="111" r="1" fill="#1C1C1C"/>
    </g>
    <g opacity="0.192">
        <circle cx="223" cy="111" r="1" fill="#1C1C1C"/>
    </g>
    <g opacity="0.48">
        <circle cx="111" cy="143" r="1" fill="#1C1C1C"/>
    </g>
    <g opacity="0.32">
        <circle cx="207" cy="111" r="1" fill="#1C1C1C"/>
    </g>
    <g opacity="0.5">
        <circle cx="191" cy="127" r="1" fill="#1C1C1C"/>
    </g>
    <g opacity="0.5">
        <circle cx="127" cy="127" r="1" fill="#1C1C1C"/>
    </g>
    <g opacity="0.56">
        <circle cx="111" cy="159" r="1" fill="#1C1C1C"/>
    </g>
    <g opacity="0.24">
        <circle cx="95" cy="127" r="1" fill="#1C1C1C"/>
    </g>
    <g opacity="0.12">
        <circle cx="79" cy="127" r="1" fill="#1C1C1C"/>
    </g>
    <g opacity="0.072">
        <circle cx="255" cy="127" r="1" fill="#1C1C1C"/>
    </g>
    <g opacity="0.12">
        <circle cx="239" cy="127" r="1" fill="#1C1C1C"/>
    </g>
    <g opacity="0.072">
        <circle cx="63" cy="127" r="1" fill="#1C1C1C"/>
    </g>
    <g opacity="0.072">
        <circle cx="63" cy="127" r="1" fill="#1C1C1C"/>
    </g>
    <g opacity="0.24">
        <circle cx="223" cy="127" r="1" fill="#1C1C1C"/>
    </g>
    <g opacity="0.4">
        <circle cx="207" cy="127" r="1" fill="#1C1C1C"/>
    </g>
    <g opacity="0.6">
        <circle cx="191" cy="143" r="1" fill="#1C1C1C"/>
    </g>
    <g opacity="0.56">
        <circle cx="111" cy="175" r="1" fill="#1C1C1C"/>
    </g>
    <g opacity="0.6">
        <circle cx="127" cy="143" r="1" fill="#1C1C1C"/>
    </g>
    <g opacity="0.288">
        <circle cx="95" cy="143" r="1" fill="#1C1C1C"/>
    </g>
    <g opacity="0.0864">
        <circle cx="255" cy="143" r="1" fill="#1C1C1C"/>
    </g>
    <g opacity="0.144">
        <circle cx="79" cy="143" r="1" fill="#1C1C1C"/>
    </g>
    <g opacity="0.144">
        <circle cx="239" cy="143" r="1" fill="#1C1C1C"/>
    </g>
    <g opacity="0.0864">
        <circle cx="63" cy="143" r="1" fill="#1C1C1C"/>
    </g>
    <g opacity="0.0864">
        <circle cx="63" cy="143" r="1" fill="#1C1C1C"/>
    </g>
    <g opacity="0.288">
        <circle cx="223" cy="143" r="1" fill="#1C1C1C"/>
    </g>
    <g opacity="0.48">
        <circle cx="207" cy="143" r="1" fill="#1C1C1C"/>
    </g>
    <g opacity="0.48">
        <circle cx="111" cy="191" r="1" fill="#1C1C1C"/>
    </g>
    <g opacity="0.7">
        <circle cx="191" cy="159" r="1" fill="#1C1C1C"/>
    </g>
    <g opacity="0.7">
        <circle cx="127" cy="159" r="1" fill="#1C1C1C"/>
    </g>
    <g opacity="0.1008">
        <circle cx="255" cy="159" r="1" fill="#1C1C1C"/>
    </g>
    <g opacity="0.336">
        <circle cx="95" cy="159" r="1" fill="#1C1C1C"/>
    </g>
    <g opacity="0.168">
        <circle cx="79" cy="159" r="1" fill="#1C1C1C"/>
    </g>
    <g opacity="0.168">
        <circle cx="239" cy="159" r="1" fill="#1C1C1C"/>
    </g>
    <g opacity="0.1008">
        <circle cx="63" cy="159" r="1" fill="#1C1C1C"/>
    </g>
    <g opacity="0.1008">
        <circle cx="63" cy="159" r="1" fill="#1C1C1C"/>
    </g>
    <g opacity="0.336">
        <circle cx="223" cy="159" r="1" fill="#1C1C1C"/>
    </g>
    <g opacity="0.4">
        <circle cx="111" cy="207" r="1" fill="#1C1C1C"/>
    </g>
    <g opacity="0.56">
        <circle cx="207" cy="159" r="1" fill="#1C1C1C"/>
    </g>
    <g opacity="0.7">
        <circle cx="191" cy="175" r="1" fill="#1C1C1C"/>
    </g>
    <g opacity="0.7">
        <circle cx="127" cy="175" r="1" fill="#1C1C1C"/>
    </g>
    <g opacity="0.1008">
        <circle cx="255" cy="175" r="1" fill="#1C1C1C"/>
    </g>
    <g opacity="0.32">
        <circle cx="111" cy="223" r="1" fill="#1C1C1C"/>
    </g>
    <g opacity="0.336">
        <circle cx="95" cy="175" r="1" fill="#1C1C1C"/>
    </g>
    <g opacity="0.168">
        <circle cx="79" cy="175" r="1" fill="#1C1C1C"/>
    </g>
    <g opacity="0.168">
        <circle cx="239" cy="175" r="1" fill="#1C1C1C"/>
    </g>
    <g opacity="0.1008">
        <circle cx="63" cy="175" r="1" fill="#1C1C1C"/>
    </g>
    <g opacity="0.1008">
        <circle cx="63" cy="175" r="1" fill="#1C1C1C"/>
    </g>
    <g opacity="0.336">
        <circle cx="223" cy="175" r="1" fill="#1C1C1C"/>
    </g>
    <g opacity="0.56">
        <circle cx="207" cy="175" r="1" fill="#1C1C1C"/>
    </g>
    <g opacity="0.6">
        <circle cx="191" cy="191" r="1" fill="#1C1C1C"/>
    </g>
    <g opacity="0.0864">
        <circle cx="255" cy="191" r="1" fill="#1C1C1C"/>
    </g>
    <g opacity="0.24">
        <circle cx="111" cy="239" r="1" fill="#1C1C1C"/>
    </g>
    <g opacity="0.6">
        <circle cx="127" cy="191" r="1" fill="#1C1C1C"/>
    </g>
    <g opacity="0.288">
        <circle cx="95" cy="191" r="1" fill="#1C1C1C"/>
    </g>
    <g opacity="0.144">
        <circle cx="79" cy="191" r="1" fill="#1C1C1C"/>
    </g>
    <g opacity="0.144">
        <circle cx="239" cy="191" r="1" fill="#1C1C1C"/>
    </g>
    <g opacity="0.0864">
        <circle cx="63" cy="191" r="1" fill="#1C1C1C"/>
    </g>
    <g opacity="0.0864">
        <circle cx="63" cy="191" r="1" fill="#1C1C1C"/>
    </g>
    <g opacity="0.288">
        <circle cx="223" cy="191" r="1" fill="#1C1C1C"/>
    </g>
    <g opacity="0.48">
        <circle cx="207" cy="191" r="1" fill="#1C1C1C"/>
    </g>
    <g opacity="0.072">
        <circle cx="255" cy="207" r="1" fill="#1C1C1C"/>
    </g>
    <g opacity="0.16">
        <circle cx="111" cy="255" r="1" fill="#1C1C1C"/>
    </g>
    <g opacity="0.5">
        <circle cx="191" cy="207" r="1" fill="#1C1C1C"/>
    </g>
    <g opacity="0.5">
        <circle cx="127" cy="207" r="1" fill="#1C1C1C"/>
    </g>
    <g opacity="0.24">
        <circle cx="95" cy="207" r="1" fill="#1C1C1C"/>
    </g>
    <g opacity="0.12">
        <circle cx="79" cy="207" r="1" fill="#1C1C1C"/>
    </g>
    <g opacity="0.12">
        <circle cx="239" cy="207" r="1" fill="#1C1C1C"/>
    </g>
    <g opacity="0.072">
        <circle cx="63" cy="207" r="1" fill="#1C1C1C"/>
    </g>
    <g opacity="0.072">
        <circle cx="63" cy="207" r="1" fill="#1C1C1C"/>
    </g>
    <g opacity="0.24">
        <circle cx="223" cy="207" r="1" fill="#1C1C1C"/>
    </g>
    <g opacity="0.08">
        <circle cx="111" cy="271" r="1" fill="#1C1C1C"/>
    </g>
    <g opacity="0.0576">
        <circle cx="255" cy="223" r="1" fill="#1C1C1C"/>
    </g>
    <g opacity="0.4">
        <circle cx="207" cy="207" r="1" fill="#1C1C1C"/>
    </g>
    <g opacity="0.4">
        <circle cx="191" cy="223" r="1" fill="#1C1C1C"/>
    </g>
    <g opacity="0.4">
        <circle cx="127" cy="223" r="1" fill="#1C1C1C"/>
    </g>
    <g opacity="0.192">
        <circle cx="95" cy="223" r="1" fill="#1C1C1C"/>
    </g>
    <g opacity="0.096">
        <circle cx="79" cy="223" r="1" fill="#1C1C1C"/>
    </g>
    <g opacity="0.096">
        <circle cx="239" cy="223" r="1" fill="#1C1C1C"/>
    </g>
    <g opacity="0.0576">
        <circle cx="63" cy="223" r="1" fill="#1C1C1C"/>
    </g>
    <g opacity="0.0576">
        <circle cx="63" cy="223" r="1" fill="#1C1C1C"/>
    </g>
    <g opacity="0.192">
        <circle cx="223" cy="223" r="1" fill="#1C1C1C"/>
    </g>
    <g opacity="0.32">
        <circle cx="207" cy="223" r="1" fill="#1C1C1C"/>
    </g>
    <g opacity="0.3">
        <circle cx="191" cy="239" r="1" fill="#1C1C1C"/>
    </g>
    <g opacity="0.3">
        <circle cx="127" cy="239" r="1" fill="#1C1C1C"/>
    </g>
    <g opacity="0.144">
        <circle cx="95" cy="239" r="1" fill="#1C1C1C"/>
    </g>
    <g opacity="0.072">
        <circle cx="79" cy="239" r="1" fill="#1C1C1C"/>
    </g>
    <g opacity="0.072">
        <circle cx="239" cy="239" r="1" fill="#1C1C1C"/>
    </g>
    <g opacity="0.144">
        <circle cx="223" cy="239" r="1" fill="#1C1C1C"/>
    </g>
    <g opacity="0.24">
        <circle cx="207" cy="239" r="1" fill="#1C1C1C"/>
    </g>
    <g opacity="0.2">
        <circle cx="191" cy="255" r="1" fill="#1C1C1C"/>
    </g>
    <g opacity="0.2">
        <circle cx="127" cy="255" r="1" fill="#1C1C1C"/>
    </g>
    <g opacity="0.096">
        <circle cx="95" cy="255" r="1" fill="#1C1C1C"/>
    </g>
    <g opacity="0.096">
        <circle cx="223" cy="255" r="1" fill="#1C1C1C"/>
    </g>
    <g opacity="0.16">
        <circle cx="207" cy="255" r="1" fill="#1C1C1C"/>
    </g>
    <g opacity="0.1">
        <circle cx="191" cy="271" r="1" fill="#1C1C1C"/>
    </g>
    <g opacity="0.1">
        <circle cx="127" cy="271" r="1" fill="#1C1C1C"/>
    </g>
    <g opacity="0.08">
        <circle cx="207" cy="271" r="1" fill="#1C1C1C"/>
    </g>
</svg>
