<svg width="24" height="24" viewBox="0 0 24 24" fill="none" xmlns="http://www.w3.org/2000/svg">
<circle cx="12" cy="12" r="2" fill="#1C1C1C"/>
<circle cx="21.5" cy="12" r="1" fill="#1C1C1C"/>
<circle cx="12" cy="2.5" r="1" transform="rotate(-180 12 2.5)" fill="#1C1C1C"/>
<circle cx="16.75" cy="3.77271" r="1" fill="#1C1C1C"/>
<circle cx="20.2266" cy="7.25" r="1" fill="#1C1C1C"/>
<circle cx="20.2266" cy="16.7502" r="1" fill="#1C1C1C"/>
<path d="M7.99924 4.45899C7.99924 4.83913 7.79335 5.18586 7.47971 5.40066C7.08016 5.6743 6.69979 5.98795 6.34495 6.34277C3.22075 9.46697 3.22075 14.533 6.34495 17.6572C6.73531 18.0478 6.73539 18.6808 6.34495 19.0713C5.95446 19.4616 5.32137 19.4616 4.93088 19.0713C1.02564 15.166 1.02564 8.83395 4.93088 4.92871C5.43929 4.42033 5.98878 3.97808 6.5687 3.60205C7.21254 3.18459 7.99924 3.69165 7.99924 4.45899Z" fill="#1C1C1C"/>
</svg>
