<svg width="24" height="24" viewBox="0 0 24 24" fill="none" xmlns="http://www.w3.org/2000/svg">
<path d="M4.93284 4.92893C8.83808 1.02369 15.1697 1.02369 19.075 4.92893C22.9802 8.83418 22.9802 15.1658 19.075 19.0711C18.6844 19.4616 18.0513 19.4616 17.6608 19.0711C17.2702 18.6805 17.2702 18.0474 17.6608 17.6569C20.785 14.5327 20.785 9.46734 17.6608 6.34315C14.5366 3.21895 9.47125 3.21895 6.34705 6.34315C3.22286 9.46734 3.22286 14.5327 6.34705 17.6569C6.73758 18.0474 6.73757 18.6805 6.34705 19.0711C5.95653 19.4616 5.32336 19.4616 4.93284 19.0711C1.0276 15.1658 1.0276 8.83417 4.93284 4.92893Z" fill="#F2F2F2"/>
<path d="M12.0015 14C13.1061 14 14.0015 13.1046 14.0015 12C14.0015 10.8954 13.1061 10 12.0015 10C10.8969 10 10.0015 10.8954 10.0015 12C10.0015 13.1046 10.8969 14 12.0015 14Z" fill="#F2F2F2"/>
</svg>
