<svg width="24" height="24" viewBox="0 0 24 24" fill="none" xmlns="http://www.w3.org/2000/svg">
<rect x="11" y="5" width="2" height="14" rx="1" fill="#1C1C1C"/>
<rect x="7" y="11" width="2" height="2" rx="1" fill="#1C1C1C"/>
<rect x="3" y="11" width="2" height="2" rx="1" fill="#1C1C1C"/>
<rect x="7" y="7" width="2" height="2" rx="1" fill="#1C1C1C"/>
<rect x="7" y="15" width="2" height="2" rx="1" fill="#1C1C1C"/>
<rect x="15" y="11" width="2" height="2" rx="1" fill="#1C1C1C"/>
<rect x="19" y="11" width="2" height="2" rx="1" fill="#1C1C1C"/>
<rect x="15" y="7" width="2" height="2" rx="1" fill="#1C1C1C"/>
<rect x="19" y="7" width="2" height="2" rx="1" fill="#1C1C1C"/>
<rect x="3" y="7" width="2" height="2" rx="1" fill="#1C1C1C"/>
<rect x="11" y="1" width="2" height="2" rx="1" fill="#1C1C1C"/>
<rect x="11" y="21" width="2" height="2" rx="1" fill="#1C1C1C"/>
<rect x="15" y="15" width="2" height="2" rx="1" fill="#1C1C1C"/>
<rect x="19" y="15" width="2" height="2" rx="1" fill="#1C1C1C"/>
<rect x="3" y="15" width="2" height="2" rx="1" fill="#1C1C1C"/>
</svg>
