<svg width="24" height="24" viewBox="0 0 24 24" fill="none" xmlns="http://www.w3.org/2000/svg">
<path fill-rule="evenodd" clip-rule="evenodd" d="M2.22485 9.90387C2.38485 9.15401 3.29894 8.95579 3.84111 9.49796C4.1094 9.76625 4.20889 10.1563 4.13948 10.5293C3.67335 13.0343 4.40921 15.719 6.34705 17.6569C6.73758 18.0474 6.73758 18.6805 6.34705 19.0711C5.95653 19.4616 5.32336 19.4616 4.93284 19.0711C2.44392 16.5822 1.54126 13.1077 2.22485 9.90387ZM19.8673 13.4765C19.7975 13.8497 19.8969 14.2401 20.1654 14.5086C20.7073 15.0505 21.621 14.8527 21.7814 14.1033C22.4679 10.8975 21.5657 7.4197 19.075 4.92893C16.5842 2.43817 13.1064 1.53601 9.90063 2.22247C9.15126 2.38293 8.95345 3.29659 9.49535 3.8385C9.76383 4.10697 10.1542 4.20639 10.5274 4.13665C13.0341 3.66831 15.7214 4.40381 17.6608 6.34315C19.6001 8.28249 20.3356 10.9698 19.8673 13.4765ZM4.70711 3.29289C4.31658 2.90237 3.68342 2.90237 3.29289 3.29289C2.90237 3.68342 2.90237 4.31658 3.29289 4.70711L19.2929 20.7071C19.6834 21.0976 20.3166 21.0976 20.7071 20.7071C21.0976 20.3166 21.0976 19.6834 20.7071 19.2929L4.70711 3.29289Z" fill="#F2F2F2"/>
</svg>
