<svg width="24" height="24" viewBox="0 0 24 24" fill="none" xmlns="http://www.w3.org/2000/svg">
<path fill-rule="evenodd" clip-rule="evenodd" d="M11 2C11 1.44772 11.4477 1 12 1C12.5523 1 13 1.44772 13 2C13 2.55228 12.5523 3 12 3C11.4477 3 11 2.55228 11 2ZM1 12C1 12.5523 1.44772 13 2 13C2.55228 13 3 12.5523 3 12C3 11.4477 2.55228 11 2 11C1.44772 11 1 11.4477 1 12ZM21 12C21 12.5523 21.4477 13 22 13C22.5523 13 23 12.5523 23 12C23 11.4477 22.5523 11 22 11C21.4477 11 21 11.4477 21 12ZM17.5012 2.47352C17.0229 2.19737 16.4113 2.36125 16.1351 2.83954C15.859 3.31783 16.0229 3.92942 16.5012 4.20557C16.9795 4.48171 17.591 4.31783 17.8672 3.83954C18.1433 3.36125 17.9795 2.74966 17.5012 2.47352ZM2.84259 16.1342C3.32088 15.858 3.93247 16.0219 4.20861 16.5002C4.48476 16.9785 4.32088 17.5901 3.84259 17.8662C3.3643 18.1424 2.7527 17.9785 2.47656 17.5002C2.20042 17.0219 2.3643 16.4103 2.84259 16.1342ZM21.5289 6.4997C21.2528 6.0214 20.6412 5.85753 20.1629 6.13367C19.6846 6.40981 19.5207 7.0214 19.7969 7.4997C20.073 7.97799 20.6846 8.14187 21.1629 7.86572C21.6412 7.58958 21.8051 6.97799 21.5289 6.4997ZM3.84259 6.13416C4.32088 6.4103 4.48476 7.02189 4.20861 7.50019C3.93247 7.97848 3.32088 8.14235 2.84259 7.86621C2.3643 7.59007 2.20042 6.97848 2.47656 6.50019C2.7527 6.02189 3.3643 5.85802 3.84259 6.13416ZM21.5289 17.4997C21.8051 17.0214 21.6412 16.4098 21.1629 16.1337C20.6846 15.8575 20.073 16.0214 19.7969 16.4997C19.5207 16.978 19.6846 17.5896 20.1629 17.8657C20.6412 18.1419 21.2528 17.978 21.5289 17.4997ZM7.86877 2.84015C8.14491 3.31844 7.98104 3.93003 7.50274 4.20617C7.02445 4.48231 6.41286 4.31844 6.13672 3.84015C5.86058 3.36185 6.02445 2.75026 6.50274 2.47412C6.98104 2.19798 7.59263 2.36185 7.86877 2.84015ZM12 14C13.1046 14 14 13.1046 14 12C14 10.8954 13.1046 10 12 10C10.8954 10 10 10.8954 10 12C10 13.1046 10.8954 14 12 14Z" fill="#F2F2F2"/>
</svg>
