<svg width="24" height="24" viewBox="0 0 24 24" fill="none" xmlns="http://www.w3.org/2000/svg">
    <path d="M5 16C5.55228 16 6 16.4477 6 17C6 17.5523 5.55228 18 5 18C4.44772 18 4 17.5523 4 17C4 16.4477 4.44772 16 5 16ZM19 16C19.5523 16 20 16.4477 20 17C20 17.5523 19.5523 18 19 18C18.4477 18 18 17.5523 18 17C18 16.4477 18.4477 16 19 16ZM16 13C16.5523 13 17 13.4477 17 14C17 14.5523 16.5523 15 16 15H8C7.44772 15 7 14.5523 7 14C7 13.4477 7.44772 13 8 13H16ZM3 11C3.55228 11 4 11.4477 4 12C4 12.5523 3.55228 13 3 13C2.44772 13 2 12.5523 2 12C2 11.4477 2.44772 11 3 11ZM21 11C21.5523 11 22 11.4477 22 12C22 12.5523 21.5523 13 21 13C20.4477 13 20 12.5523 20 12C20 11.4477 20.4477 11 21 11ZM16 9C16.5523 9 17 9.44772 17 10C17 10.5523 16.5523 11 16 11H8C7.44772 11 7 10.5523 7 10C7 9.44772 7.44772 9 8 9H16ZM5 6C5.55228 6 6 6.44772 6 7C6 7.55228 5.55228 8 5 8C4.44772 8 4 7.55228 4 7C4 6.44772 4.44772 6 5 6ZM19 6C19.5523 6 20 6.44772 20 7C20 7.55228 19.5523 8 19 8C18.4477 8 18 7.55228 18 7C18 6.44772 18.4477 6 19 6Z" fill="#1C1C1C"/>
</svg>

