<svg width="24" height="24" viewBox="0 0 24 24" fill="none" xmlns="http://www.w3.org/2000/svg">
<path d="M17.5 17V18.1331C17.5 19.7164 16.2164 21 14.6331 21V21C13.367 21 12.2509 20.1695 11.8871 18.9569L11.5135 17.7115C11.1831 16.6104 10.4536 15.6721 9.46775 15.0807L8.96922 14.7815C7.12712 13.6763 6 11.6856 6 9.53732V8.75C6 5.57436 8.57436 3 11.75 3H12.5C15.2614 3 17.5 5.23858 17.5 8V8" stroke="#1C1C1C" stroke-width="2" stroke-linecap="round"/>
<circle cx="12" cy="9" r="2.5" stroke="#1C1C1C" stroke-width="2"/>
<path fill-rule="evenodd" clip-rule="evenodd" d="M3.5 4C4.05228 4 4.5 3.55228 4.5 3C4.5 2.44772 4.05228 2 3.5 2C2.94772 2 2.5 2.44772 2.5 3C2.5 3.55228 2.94772 4 3.5 4ZM3.25 6C3.25 6.55228 2.80228 7 2.25 7C1.69772 7 1.25 6.55228 1.25 6C1.25 5.44772 1.69772 5 2.25 5C2.80228 5 3.25 5.44772 3.25 6ZM2.5 9C2.5 9.55228 2.05228 10 1.5 10C0.947715 10 0.5 9.55228 0.5 9C0.5 8.44772 0.947715 8 1.5 8C2.05228 8 2.5 8.44772 2.5 9ZM4.5 15C4.5 15.5523 4.05228 16 3.5 16C2.94772 16 2.5 15.5523 2.5 15C2.5 14.4477 2.94772 14 3.5 14C4.05228 14 4.5 14.4477 4.5 15ZM2.25 13C2.80228 13 3.25 12.5523 3.25 12C3.25 11.4477 2.80228 11 2.25 11C1.69772 11 1.25 11.4477 1.25 12C1.25 12.5523 1.69772 13 2.25 13Z" fill="#1C1C1C"/>
<path fill-rule="evenodd" clip-rule="evenodd" d="M20.75 6C20.75 6.55228 21.1977 7 21.75 7C22.3023 7 22.75 6.55228 22.75 6C22.75 5.44772 22.3023 5 21.75 5C21.1977 5 20.75 5.44772 20.75 6ZM21.5 9C21.5 9.55228 21.9477 10 22.5 10C23.0523 10 23.5 9.55228 23.5 9C23.5 8.44772 23.0523 8 22.5 8C21.9477 8 21.5 8.44772 21.5 9ZM21.75 13C21.1977 13 20.75 12.5523 20.75 12C20.75 11.4477 21.1977 11 21.75 11C22.3023 11 22.75 11.4477 22.75 12C22.75 12.5523 22.3023 13 21.75 13Z" fill="#1C1C1C"/>
</svg>
