<svg width="24" height="24" viewBox="0 0 24 24" fill="none" xmlns="http://www.w3.org/2000/svg">
<path d="M12.5 17V18.1331C12.5 19.7164 11.2164 21 9.63308 21V21C8.36702 21 7.25086 20.1695 6.88706 18.9569L6.51346 17.7115C6.18311 16.6104 5.45358 15.6721 4.46775 15.0807L3.96922 14.7815C2.12712 13.6763 1 11.6856 1 9.53732V8.75C1 5.57436 3.57436 3 6.75 3H7.5C10.2614 3 12.5 5.23858 12.5 8V8" stroke="#1C1C1C" stroke-width="2" stroke-linecap="round"/>
<circle cx="8.5" cy="12" r="1" fill="#1C1C1C"/>
<circle cx="12.5" cy="12" r="1" fill="#1C1C1C"/>
<circle cx="16.5" cy="12" r="1.5" fill="#1C1C1C"/>
<circle cx="22" cy="12" r="2" fill="#1C1C1C"/>
</svg>
