<svg width="48" height="48" viewBox="0 0 48 48" fill="none" xmlns="http://www.w3.org/2000/svg">
<path d="M0 24C0 10.7452 10.7452 0 24 0C37.2548 0 48 10.7452 48 24C48 37.2548 37.2548 48 24 48C10.7452 48 0 37.2548 0 24Z" fill="#1C1C1C"/>
<path d="M16.9314 16.9289C20.8366 13.0237 27.1683 13.0237 31.0735 16.9289C34.9788 20.8342 34.9788 27.1658 31.0735 31.0711C30.683 31.4616 30.0498 31.4616 29.6593 31.0711C29.2688 30.6805 29.2688 30.0474 29.6593 29.6569C32.7835 26.5327 32.7835 21.4673 29.6593 18.3431C26.5351 15.219 21.4698 15.219 18.3456 18.3431C15.2214 21.4673 15.2214 26.5327 18.3456 29.6569C18.7361 30.0474 18.7361 30.6805 18.3456 31.0711C17.9551 31.4616 17.3219 31.4616 16.9314 31.0711C13.0261 27.1658 13.0261 20.8342 16.9314 16.9289Z" fill="#F2F2F2"/>
<path d="M24 26C25.1046 26 26 25.1046 26 24C26 22.8954 25.1046 22 24 22C22.8955 22 22 22.8954 22 24C22 25.1046 22.8955 26 24 26Z" fill="#F2F2F2"/>
<circle cx="14" cy="14" r="1" fill="#F2F2F2"/>
<circle cx="24" cy="34" r="1" fill="#F2F2F2"/>
<circle cx="34" cy="14" r="1" fill="#F2F2F2"/>
</svg>
