<svg width="24" height="24" viewBox="0 0 24 24" fill="none" xmlns="http://www.w3.org/2000/svg">
<g clip-path="url(#clip0_57850_32704)">
<mask id="path-1-inside-1_57850_32704" fill="white">
<path d="M24 14C24 15.1046 23.1046 16 22 16C22 17.6569 20.6569 19 19 19L3 19C1.34314 19 -5.53249e-07 17.6569 -4.80825e-07 16L-1.31134e-07 8C-5.87108e-08 6.34315 1.34315 5 3 5L19 5C20.6569 5 22 6.34315 22 8C23.1046 8 24 8.89543 24 10L24 14Z"/>
</mask>
<path d="M22 16L22 14L20 14L20 16L22 16ZM19 19L19 21V21L19 19ZM-4.80825e-07 16L-2 16L-4.80825e-07 16ZM-1.31134e-07 8L-2 8L-2 8L-1.31134e-07 8ZM3 5L3 3V3L3 5ZM22 8L20 8L20 10L22 10L22 8ZM24 14L22 14V14L22 16L22 18C24.2091 18 26 16.2091 26 14L24 14ZM22 16L20 16C20 16.5523 19.5523 17 19 17L19 19L19 21C21.7614 21 24 18.7614 24 16L22 16ZM19 19L19 17L3 17L3 19L3 21L19 21L19 19ZM3 19L3 17C2.44772 17 2 16.5523 2 16L-4.80825e-07 16L-2 16C-2 18.7614 0.238576 21 3 21L3 19ZM-4.80825e-07 16L2 16L2 8L-1.31134e-07 8L-2 8L-2 16L-4.80825e-07 16ZM-1.31134e-07 8L2 8C2 7.44771 2.44772 7 3 7L3 5L3 3C0.238577 3 -2 5.23858 -2 8L-1.31134e-07 8ZM3 5L3 7L19 7L19 5L19 3L3 3L3 5ZM19 5L19 7C19.5523 7 20 7.44772 20 8L22 8L24 8C24 5.23858 21.7614 3 19 3L19 5ZM22 8L22 10L24 10L26 10C26 7.79086 24.2091 6 22 6L22 8ZM24 10L22 10L22 14L24 14L26 14L26 10L24 10Z" fill="#1C1C1C" mask="url(#path-1-inside-1_57850_32704)"/>
<rect x="4" y="9" width="2" height="6" rx="1" fill="#1C1C1C"/>
<rect x="8" y="9" width="2" height="6" rx="1" fill="#1C1C1C"/>
<rect x="12" y="9" width="2" height="6" rx="1" fill="#1C1C1C"/>
<rect x="16" y="9" width="2" height="6" rx="1" fill="#1C1C1C"/>
</g>
<defs>
<clipPath id="clip0_57850_32704">
<rect width="24" height="24" fill="white"/>
</clipPath>
</defs>
</svg>
