<svg width="318" height="318" viewBox="0 0 318 318" fill="none" xmlns="http://www.w3.org/2000/svg">
<path d="M63 83C63 71.9543 71.9543 63 83 63H235C246.046 63 255 71.9543 255 83V235C255 246.046 246.046 255 235 255H83C71.9543 255 63 246.046 63 235V83Z" fill="white"/>
<path d="M63 83C63 71.9543 71.9543 63 83 63H235C246.046 63 255 71.9543 255 83V235C255 246.046 246.046 255 235 255H83C71.9543 255 63 246.046 63 235V83Z" stroke="#E3E3E3"/>
<rect x="148.59" y="102.325" width="6.93976" height="113.349" rx="3.46988" fill="#1C1C1C"/>
<rect x="134.711" y="105.795" width="6.93976" height="106.41" rx="3.46988" fill="#1C1C1C"/>
<rect x="176.348" y="105.795" width="6.93976" height="106.41" rx="3.46988" fill="#1C1C1C"/>
<rect x="120.832" y="115.048" width="6.93976" height="87.9036" rx="3.46988" fill="#1C1C1C"/>
<rect x="190.23" y="115.048" width="6.93976" height="87.9036" rx="3.46988" fill="#1C1C1C"/>
<rect x="106.953" y="132.397" width="6.93976" height="53.2048" rx="3.46988" fill="#1C1C1C"/>
<rect x="204.109" y="132.397" width="6.93976" height="53.2048" rx="3.46988" fill="#1C1C1C"/>
<rect x="162.469" y="102.325" width="6.93976" height="113.349" rx="3.46988" fill="#1C1C1C"/>
<circle cx="233.025" cy="84.9757" r="3.46988" fill="#D71921"/>
</svg>
