<svg width="366" height="366" viewBox="0 0 366 366" fill="none" xmlns="http://www.w3.org/2000/svg">
<g clip-path="url(#clip0_23106_44179)">
<rect x="76.1992" y="293.6" width="98.4" height="19.2" rx="7.2" fill="#E3E3E3"/>
<rect x="76.1992" y="341.6" width="98.4" height="19.2" rx="7.2" fill="#E3E3E3"/>
<circle cx="280.199" cy="303.2" r="7.2" stroke="#929292" stroke-width="1.6"/>
<path fill-rule="evenodd" clip-rule="evenodd" d="M280.2 300.4C280.642 300.4 281 300.042 281 299.6C281 299.158 280.642 298.8 280.2 298.8C279.758 298.8 279.4 299.158 279.4 299.6C279.4 300.042 279.758 300.4 280.2 300.4ZM282.2 307.6C282.642 307.6 283 307.242 283 306.8C283 306.358 282.642 306 282.2 306L281.4 306L281.4 302C281.4 301.558 281.042 301.2 280.6 301.2H279C278.558 301.2 278.2 301.558 278.2 302C278.2 302.442 278.558 302.8 279 302.8H279.8L279.8 306H279C278.558 306 278.2 306.358 278.2 306.8C278.2 307.242 278.558 307.6 279 307.6H280.6H282.2Z" fill="#929292"/>
<circle cx="280.199" cy="351.2" r="7.2" stroke="#929292" stroke-width="1.6"/>
<path fill-rule="evenodd" clip-rule="evenodd" d="M280.2 348.4C280.642 348.4 281 348.042 281 347.6C281 347.158 280.642 346.8 280.2 346.8C279.758 346.8 279.4 347.158 279.4 347.6C279.4 348.042 279.758 348.4 280.2 348.4ZM282.2 355.6C282.642 355.6 283 355.242 283 354.8C283 354.358 282.642 354 282.2 354L281.4 354L281.4 350C281.4 349.558 281.042 349.2 280.6 349.2H279C278.558 349.2 278.2 349.558 278.2 350C278.2 350.442 278.558 350.8 279 350.8H279.8L279.8 354H279C278.558 354 278.2 354.358 278.2 354.8C278.2 355.242 278.558 355.6 279 355.6H280.6H282.2Z" fill="#929292"/>
<path d="M76.1992 279.2H304.199" stroke="#E3E3E3" stroke-width="0.6"/>
<path d="M76.1992 327.2H304.199" stroke="#E3E3E3" stroke-width="0.6"/>
<rect x="62.0998" y="183.5" width="241.8" height="281.4" rx="14.1" stroke="#C8C8C8" stroke-width="0.6"/>
<rect x="35.3994" y="32" width="295.2" height="673.2" rx="48" stroke="#C8C8C8" stroke-width="0.6"/>
<rect x="39" y="35.6" width="288" height="669.6" rx="45.6" stroke="#C8C8C8" stroke-width="0.6"/>
<rect x="42.5996" y="39.2" width="280.8" height="666" rx="43.2" stroke="#C8C8C8" stroke-width="0.6"/>
<path d="M335.399 283.015C335.399 283.78 335.399 284.162 335.251 284.454C335.12 284.711 334.911 284.92 334.654 285.051C334.361 285.2 333.979 285.2 333.214 285.2L330.599 285.2L330.599 213.2L333.214 213.2C333.979 213.2 334.361 213.2 334.654 213.349C334.911 213.48 335.12 213.689 335.251 213.946C335.399 214.238 335.399 214.621 335.399 215.385L335.399 283.015Z" stroke="#C8C8C8" stroke-width="0.6"/>
<path d="M30.5996 181.785C30.5996 181.02 30.5996 180.638 30.7485 180.346C30.8794 180.089 31.0884 179.88 31.3454 179.749C31.6376 179.6 32.0201 179.6 32.7851 179.6H35.3996L35.3996 227.6H32.7851C32.0201 227.6 31.6376 227.6 31.3454 227.451C31.0884 227.32 30.8794 227.111 30.7485 226.854C30.5996 226.562 30.5996 226.179 30.5996 225.414L30.5996 181.785Z" stroke="#C8C8C8" stroke-width="0.6"/>
<path d="M30.5996 241.785C30.5996 241.02 30.5996 240.638 30.7485 240.346C30.8794 240.089 31.0884 239.88 31.3454 239.749C31.6376 239.6 32.0201 239.6 32.7851 239.6H35.3996L35.3996 287.6H32.7851C32.0201 287.6 31.6376 287.6 31.3454 287.451C31.0884 287.32 30.8794 287.111 30.7485 286.854C30.5996 286.562 30.5996 286.179 30.5996 285.414L30.5996 241.785Z" stroke="#C8C8C8" stroke-width="0.6"/>
<rect x="62.0998" y="106.7" width="241.8" height="47.4" rx="14.1" stroke="#C8C8C8" stroke-width="0.6"/>
<rect x="237" y="116" width="57.6" height="28.8" rx="14.4" fill="#1C1C1C"/>
<circle cx="280.2" cy="130.4" r="12" fill="#F2F2F2"/>
<rect x="76.2002" y="120.8" width="98.4" height="19.2" rx="7.2" fill="#E3E3E3"/>
<rect x="76.1992" y="197.6" width="98.4" height="19.2" rx="7.2" fill="#E3E3E3"/>
<rect x="76.1992" y="245.6" width="98.4" height="19.2" rx="7.2" fill="#E3E3E3"/>
<rect x="61.7998" y="164" width="67.2" height="9.6" rx="4.8" fill="#E3E3E3"/>
<rect x="83.3994" y="71.6" width="67.2" height="9.6" rx="4.8" fill="#C8C8C8"/>
<circle cx="280.199" cy="207.2" r="7.2" stroke="#929292" stroke-width="1.6"/>
<path fill-rule="evenodd" clip-rule="evenodd" d="M280.2 204.4C280.642 204.4 281 204.042 281 203.6C281 203.158 280.642 202.8 280.2 202.8C279.758 202.8 279.4 203.158 279.4 203.6C279.4 204.042 279.758 204.4 280.2 204.4ZM282.2 211.6C282.642 211.6 283 211.242 283 210.8C283 210.358 282.642 210 282.2 210L281.4 210L281.4 206C281.4 205.558 281.042 205.2 280.6 205.2H279C278.558 205.2 278.2 205.558 278.2 206C278.2 206.442 278.558 206.8 279 206.8L279.8 206.8L279.8 210H279C278.558 210 278.2 210.358 278.2 210.8C278.2 211.242 278.558 211.6 279 211.6H280.6H282.2Z" fill="#929292"/>
<circle cx="280.199" cy="255.2" r="7.2" stroke="#929292" stroke-width="1.6"/>
<path fill-rule="evenodd" clip-rule="evenodd" d="M280.2 252.4C280.642 252.4 281 252.042 281 251.6C281 251.158 280.642 250.8 280.2 250.8C279.758 250.8 279.4 251.158 279.4 251.6C279.4 252.042 279.758 252.4 280.2 252.4ZM282.2 259.6C282.642 259.6 283 259.242 283 258.8C283 258.358 282.642 258 282.2 258L281.4 258L281.4 254C281.4 253.558 281.042 253.2 280.6 253.2H279C278.558 253.2 278.2 253.558 278.2 254C278.2 254.442 278.558 254.8 279 254.8H279.8L279.8 258H279C278.558 258 278.2 258.358 278.2 258.8C278.2 259.242 278.558 259.6 279 259.6H280.6H282.2Z" fill="#929292"/>
<path d="M76.1992 231.2H304.199" stroke="#E3E3E3" stroke-width="0.6"/>
<path d="M68.9998 69.2L61.7998 76.4L68.9998 83.6" stroke="#484848" stroke-width="1.2" stroke-linecap="round"/>
<rect y="183" width="366" height="183" fill="url(#paint0_linear_23106_44179)"/>
</g>
<defs>
<linearGradient id="paint0_linear_23106_44179" x1="183" y1="183" x2="183" y2="366" gradientUnits="userSpaceOnUse">
<stop stop-color="#F2F2F2" stop-opacity="0"/>
<stop offset="0.117896" stop-color="#F2F2F2" stop-opacity="0.01"/>
<stop offset="0.213837" stop-color="#F2F2F2" stop-opacity="0.0324148"/>
<stop offset="0.2912" stop-color="#F2F2F2" stop-opacity="0.0704"/>
<stop offset="0.353363" stop-color="#F2F2F2" stop-opacity="0.120652"/>
<stop offset="0.403704" stop-color="#F2F2F2" stop-opacity="0.181481"/>
<stop offset="0.4456" stop-color="#F2F2F2" stop-opacity="0.2512"/>
<stop offset="0.48243" stop-color="#F2F2F2" stop-opacity="0.328119"/>
<stop offset="0.51757" stop-color="#F2F2F2" stop-opacity="0.410548"/>
<stop offset="0.5544" stop-color="#F2F2F2" stop-opacity="0.4968"/>
<stop offset="0.596296" stop-color="#F2F2F2" stop-opacity="0.585185"/>
<stop offset="0.646637" stop-color="#F2F2F2" stop-opacity="0.674015"/>
<stop offset="0.7088" stop-color="#F2F2F2" stop-opacity="0.7616"/>
<stop offset="0.786163" stop-color="#F2F2F2" stop-opacity="0.846252"/>
<stop offset="0.882104" stop-color="#F2F2F2" stop-opacity="0.926281"/>
<stop offset="1" stop-color="#F2F2F2"/>
</linearGradient>
<clipPath id="clip0_23106_44179">
<rect width="366" height="366" fill="white"/>
</clipPath>
</defs>
</svg>
