<svg width="16" height="16" viewBox="0 0 16 16" fill="none" xmlns="http://www.w3.org/2000/svg">
<path d="M11.5002 13C11.7763 13.0001 12.0002 13.2239 12.0002 13.5C12.0002 13.7761 11.7763 13.9999 11.5002 14H4.50024C4.2241 14 4.00024 13.7761 4.00024 13.5C4.00024 13.2239 4.2241 13 4.50024 13H11.5002ZM7.99927 2C8.2752 2.00006 8.49901 2.22412 8.49927 2.5V9.7959L11.6477 6.64746C11.843 6.4522 12.1595 6.4522 12.3547 6.64746C12.5494 6.84277 12.5498 7.15945 12.3547 7.35449L8.35474 11.3545C8.26108 11.448 8.13356 11.5009 8.00122 11.501C7.90206 11.501 7.80527 11.4711 7.72388 11.417L7.64771 11.3545L3.64771 7.35449C3.45255 7.15934 3.45277 6.84275 3.64771 6.64746C3.84297 6.4522 4.15947 6.4522 4.35474 6.64746L7.49927 9.79199V2.5C7.49952 2.22421 7.72347 2.00022 7.99927 2Z" fill="#484848"/>
</svg>
