<svg width="24" height="24" viewBox="0 0 24 24" fill="none" xmlns="http://www.w3.org/2000/svg">
<path d="M6.36719 2C6.91912 2.00026 7.36698 2.44806 7.36719 3V14.5205C7.36719 15.0407 7.36826 15.3712 7.38867 15.6211C7.40815 15.8591 7.44079 15.9358 7.45508 15.9639C7.5318 16.114 7.65444 16.2369 7.80469 16.3135C7.83344 16.328 7.91089 16.3596 8.14648 16.3789C8.39641 16.3993 8.72786 16.4004 9.24805 16.4004H20.7676C21.3196 16.4007 21.7676 16.8483 21.7676 17.4004C21.7674 17.9523 21.3195 18.4001 20.7676 18.4004H18.167V21C18.1668 21.5521 17.7191 22 17.167 22C16.6149 21.9999 16.1672 21.552 16.167 21V18.4004H9.24805C8.76093 18.4004 8.33452 18.4006 7.98438 18.3721C7.62256 18.3425 7.25331 18.2764 6.89648 18.0947C6.36985 17.8264 5.94129 17.3977 5.67285 16.8711C5.49118 16.5144 5.4251 16.1459 5.39551 15.7842C5.3669 15.434 5.36719 15.0079 5.36719 14.5205V7.83203H2.98828C2.43618 7.83182 1.98828 7.38419 1.98828 6.83203C1.98828 6.27988 2.43618 5.83224 2.98828 5.83203H5.36719V3C5.3674 2.44802 5.81521 2.00021 6.36719 2ZM14.2881 5.59961C14.7753 5.59961 15.2016 5.59932 15.5518 5.62793C15.9135 5.65754 16.282 5.72352 16.6387 5.90527C17.1654 6.17371 17.5939 6.60217 17.8623 7.12891C18.044 7.48566 18.1101 7.85406 18.1396 8.21582C18.1683 8.56603 18.168 8.99215 18.168 9.47949V14.6992C18.168 15.2513 17.7199 15.6988 17.168 15.6992C16.6157 15.6992 16.168 15.2515 16.168 14.6992V9.47949C16.168 8.95929 16.1669 8.6288 16.1465 8.37891C16.127 8.14085 16.0953 8.06417 16.0811 8.03613C16.0044 7.88583 15.8817 7.76322 15.7314 7.68652C15.7034 7.67224 15.6265 7.64057 15.3887 7.62109C15.1388 7.60068 14.8082 7.59961 14.2881 7.59961H9.96777C9.41549 7.59961 8.96777 7.15189 8.96777 6.59961C8.96797 6.04749 9.41561 5.59961 9.96777 5.59961H14.2881Z" fill="#1C1C1C"/>
</svg>
