<svg width="192" height="192" viewBox="0 0 192 192" fill="none" xmlns="http://www.w3.org/2000/svg">
<path d="M0 20C0 8.95431 8.9543 0 20 0H172C183.046 0 192 8.9543 192 20V172C192 183.046 183.046 192 172 192H20C8.95431 192 0 183.046 0 172V20Z" fill="white"/>
<path d="M0 20C0 8.95431 8.9543 0 20 0H172C183.046 0 192 8.9543 192 20V172C192 183.046 183.046 192 172 192H20C8.95431 192 0 183.046 0 172V20Z" stroke="#E3E3E3"/>
<rect x="85.5898" y="39.3252" width="6.93976" height="113.349" rx="3.46988" fill="#1C1C1C"/>
<rect x="71.7109" y="42.7949" width="6.93976" height="106.41" rx="3.46988" fill="#1C1C1C"/>
<rect x="113.348" y="42.7949" width="6.93976" height="106.41" rx="3.46988" fill="#1C1C1C"/>
<rect x="57.832" y="52.0479" width="6.93976" height="87.9036" rx="3.46988" fill="#1C1C1C"/>
<rect x="127.23" y="52.0479" width="6.93976" height="87.9036" rx="3.46988" fill="#1C1C1C"/>
<rect x="43.9531" y="69.3975" width="6.93976" height="53.2048" rx="3.46988" fill="#1C1C1C"/>
<rect x="141.109" y="69.3975" width="6.93976" height="53.2048" rx="3.46988" fill="#1C1C1C"/>
<rect x="99.4688" y="39.3252" width="6.93976" height="113.349" rx="3.46988" fill="#1C1C1C"/>
<circle cx="170.025" cy="21.9757" r="3.46988" fill="#D71921"/>
</svg>
