<svg width="48" height="48" viewBox="0 0 48 48" fill="none" xmlns="http://www.w3.org/2000/svg">
<path d="M0 24C0 10.7452 10.7452 0 24 0C37.2548 0 48 10.7452 48 24C48 37.2548 37.2548 48 24 48C10.7452 48 0 37.2548 0 24Z" fill="#1C1C1C"/>
<rect x="13" y="31" width="6" height="2" rx="1" fill="#F2F2F2"/>
<rect x="13" y="27" width="6" height="2" rx="1" fill="#F2F2F2"/>
<rect x="13" y="23" width="6" height="2" rx="1" fill="#F2F2F2"/>
<rect x="21" y="31" width="6" height="2" rx="1" fill="#F2F2F2"/>
<rect x="21" y="27" width="6" height="2" rx="1" fill="#F2F2F2"/>
<rect x="25" y="23" width="2" height="2" rx="1" fill="#F2F2F2"/>
<rect x="21" y="19" width="2" height="2" rx="1" fill="#F2F2F2"/>
<rect x="21" y="23" width="2" height="2" rx="1" fill="#F2F2F2"/>
<rect x="25" y="19" width="2" height="2" rx="1" fill="#F2F2F2"/>
<rect x="23" y="17" width="2" height="2" rx="1" fill="#F2F2F2"/>
<rect x="23" y="21" width="2" height="2" rx="1" fill="#F2F2F2"/>
<rect x="21" y="15" width="2" height="2" rx="1" fill="#F2F2F2"/>
<rect x="25" y="15" width="2" height="2" rx="1" fill="#F2F2F2"/>
<rect x="29" y="31" width="6" height="2" rx="1" fill="#F2F2F2"/>
<rect x="29" y="27" width="6" height="2" rx="1" fill="#F2F2F2"/>
<rect x="29" y="23" width="6" height="2" rx="1" fill="#F2F2F2"/>
<rect x="29" y="19" width="6" height="2" rx="1" fill="#F2F2F2"/>
<rect x="29" y="15" width="6" height="2" rx="1" fill="#F2F2F2"/>
</svg>
