<svg width="318" height="318" viewBox="0 0 318 318" fill="none" xmlns="http://www.w3.org/2000/svg">
<path fill-rule="evenodd" clip-rule="evenodd" d="M119.25 273.991L119.25 275L118.75 275L118.75 273.991L119.25 273.991ZM119.25 263.904L119.25 265.922L118.75 265.922L118.75 263.904L119.25 263.904ZM119.25 253.817L119.25 255.835L118.75 255.835L118.75 253.817L119.25 253.817ZM119.25 243.73L119.25 245.748L118.75 245.748L118.75 243.73L119.25 243.73ZM119.25 233.643L119.25 235.661L118.75 235.661L118.75 233.643L119.25 233.643ZM119.25 223.557L119.25 225.574L118.75 225.574L118.75 223.557L119.25 223.557ZM119.25 213.47L119.25 215.487L118.75 215.487L118.75 213.47L119.25 213.47ZM119.25 203.383L119.25 205.4L118.75 205.4L118.75 203.383L119.25 203.383ZM119.25 193.296L119.25 195.313L118.75 195.313L118.75 193.296L119.25 193.296ZM119.25 183.209L119.25 185.226L118.75 185.226L118.75 183.209L119.25 183.209ZM119.25 173.122L119.25 175.139L118.75 175.139L118.75 173.122L119.25 173.122ZM119.25 163.035L119.25 165.052L118.75 165.052L118.75 163.035L119.25 163.035ZM119.25 152.948L119.25 154.965L118.75 154.965L118.75 152.948L119.25 152.948ZM119.25 142.861L119.25 144.878L118.75 144.878L118.75 142.861L119.25 142.861ZM119.25 132.774L119.25 134.791L118.75 134.791L118.75 132.774L119.25 132.774ZM119.25 122.687L119.25 124.704L118.75 124.704L118.75 122.687L119.25 122.687ZM119.25 112.6L119.25 114.617L118.75 114.617L118.75 112.6L119.25 112.6ZM119.25 102.513L119.25 104.53L118.75 104.53L118.75 102.513L119.25 102.513ZM119.25 92.4261L119.25 94.4435L118.75 94.4435L118.75 92.4261L119.25 92.4261ZM119.25 82.3391L119.25 84.3565L118.75 84.3565L118.75 82.3391L119.25 82.3391ZM119.25 72.2521L119.25 74.2695L118.75 74.2695L118.75 72.2521L119.25 72.2521ZM119.25 62.1652L119.25 64.1826L118.75 64.1826L118.75 62.1652L119.25 62.1652ZM119.25 52.0782L119.25 54.0956L118.75 54.0956L118.75 52.0782L119.25 52.0782ZM119.25 43L119.25 44.0087L118.75 44.0087L118.75 43L119.25 43Z" fill="#484848"/>
<path fill-rule="evenodd" clip-rule="evenodd" d="M273.991 158.75L275 158.75L275 159.25L273.991 159.25L273.991 158.75ZM263.904 158.75L265.922 158.75L265.922 159.25L263.904 159.25L263.904 158.75ZM253.817 158.75L255.835 158.75L255.835 159.25L253.817 159.25L253.817 158.75ZM243.73 158.75L245.748 158.75L245.748 159.25L243.73 159.25L243.73 158.75ZM233.643 158.75L235.661 158.75L235.661 159.25L233.643 159.25L233.643 158.75ZM223.557 158.75L225.574 158.75L225.574 159.25L223.557 159.25L223.557 158.75ZM213.47 158.75L215.487 158.75L215.487 159.25L213.47 159.25L213.47 158.75ZM203.383 158.75L205.4 158.75L205.4 159.25L203.383 159.25L203.383 158.75ZM193.296 158.75L195.313 158.75L195.313 159.25L193.296 159.25L193.296 158.75ZM183.209 158.75L185.226 158.75L185.226 159.25L183.209 159.25L183.209 158.75ZM173.122 158.75L175.139 158.75L175.139 159.25L173.122 159.25L173.122 158.75ZM163.035 158.75L165.052 158.75L165.052 159.25L163.035 159.25L163.035 158.75ZM152.948 158.75L154.965 158.75L154.965 159.25L152.948 159.25L152.948 158.75ZM142.861 158.75L144.878 158.75L144.878 159.25L142.861 159.25L142.861 158.75ZM132.774 158.75L134.791 158.75L134.791 159.25L132.774 159.25L132.774 158.75ZM122.687 158.75L124.704 158.75L124.704 159.25L122.687 159.25L122.687 158.75ZM112.6 158.75L114.617 158.75L114.617 159.25L112.6 159.25L112.6 158.75ZM102.513 158.75L104.53 158.75L104.53 159.25L102.513 159.25L102.513 158.75ZM92.4261 158.75L94.4435 158.75L94.4435 159.25L92.4261 159.25L92.4261 158.75ZM82.3391 158.75L84.3565 158.75L84.3565 159.25L82.3391 159.25L82.3391 158.75ZM72.2521 158.75L74.2695 158.75L74.2695 159.25L72.2521 159.25L72.2521 158.75ZM62.1652 158.75L64.1826 158.75L64.1826 159.25L62.1652 159.25L62.1652 158.75ZM52.0782 158.75L54.0956 158.75L54.0956 159.25L52.0782 159.25L52.0782 158.75ZM43 158.75L44.0087 158.75L44.0087 159.25L43 159.25L43 158.75Z" fill="#484848"/>
<path fill-rule="evenodd" clip-rule="evenodd" d="M159.25 273.991L159.25 275L158.75 275L158.75 273.991L159.25 273.991ZM159.25 263.904L159.25 265.922L158.75 265.922L158.75 263.904L159.25 263.904ZM159.25 253.817L159.25 255.835L158.75 255.835L158.75 253.817L159.25 253.817ZM159.25 243.73L159.25 245.748L158.75 245.748L158.75 243.73L159.25 243.73ZM159.25 233.643L159.25 235.661L158.75 235.661L158.75 233.643L159.25 233.643ZM159.25 223.557L159.25 225.574L158.75 225.574L158.75 223.557L159.25 223.557ZM159.25 213.47L159.25 215.487L158.75 215.487L158.75 213.47L159.25 213.47ZM159.25 203.383L159.25 205.4L158.75 205.4L158.75 203.383L159.25 203.383ZM159.25 193.296L159.25 195.313L158.75 195.313L158.75 193.296L159.25 193.296ZM159.25 183.209L159.25 185.226L158.75 185.226L158.75 183.209L159.25 183.209ZM159.25 173.122L159.25 175.139L158.75 175.139L158.75 173.122L159.25 173.122ZM159.25 163.035L159.25 165.052L158.75 165.052L158.75 163.035L159.25 163.035ZM159.25 152.948L159.25 154.965L158.75 154.965L158.75 152.948L159.25 152.948ZM159.25 142.861L159.25 144.878L158.75 144.878L158.75 142.861L159.25 142.861ZM159.25 132.774L159.25 134.791L158.75 134.791L158.75 132.774L159.25 132.774ZM159.25 122.687L159.25 124.704L158.75 124.704L158.75 122.687L159.25 122.687ZM159.25 112.6L159.25 114.617L158.75 114.617L158.75 112.6L159.25 112.6ZM159.25 102.513L159.25 104.53L158.75 104.53L158.75 102.513L159.25 102.513ZM159.25 92.4261L159.25 94.4435L158.75 94.4435L158.75 92.4261L159.25 92.4261ZM159.25 82.3391L159.25 84.3565L158.75 84.3565L158.75 82.3391L159.25 82.3391ZM159.25 72.2521L159.25 74.2695L158.75 74.2695L158.75 72.2521L159.25 72.2521ZM159.25 62.1652L159.25 64.1826L158.75 64.1826L158.75 62.1652L159.25 62.1652ZM159.25 52.0782L159.25 54.0956L158.75 54.0956L158.75 52.0782L159.25 52.0782ZM159.25 43L159.25 44.0087L158.75 44.0087L158.75 43L159.25 43Z" fill="#484848"/>
<path fill-rule="evenodd" clip-rule="evenodd" d="M199.25 273.991L199.25 275L198.75 275L198.75 273.991L199.25 273.991ZM199.25 263.904L199.25 265.922L198.75 265.922L198.75 263.904L199.25 263.904ZM199.25 253.817L199.25 255.835L198.75 255.835L198.75 253.817L199.25 253.817ZM199.25 243.73L199.25 245.748L198.75 245.748L198.75 243.73L199.25 243.73ZM199.25 233.643L199.25 235.661L198.75 235.661L198.75 233.643L199.25 233.643ZM199.25 223.557L199.25 225.574L198.75 225.574L198.75 223.557L199.25 223.557ZM199.25 213.47L199.25 215.487L198.75 215.487L198.75 213.47L199.25 213.47ZM199.25 203.383L199.25 205.4L198.75 205.4L198.75 203.383L199.25 203.383ZM199.25 193.296L199.25 195.313L198.75 195.313L198.75 193.296L199.25 193.296ZM199.25 183.209L199.25 185.226L198.75 185.226L198.75 183.209L199.25 183.209ZM199.25 173.122L199.25 175.139L198.75 175.139L198.75 173.122L199.25 173.122ZM199.25 163.035L199.25 165.052L198.75 165.052L198.75 163.035L199.25 163.035ZM199.25 152.948L199.25 154.965L198.75 154.965L198.75 152.948L199.25 152.948ZM199.25 142.861L199.25 144.878L198.75 144.878L198.75 142.861L199.25 142.861ZM199.25 132.774L199.25 134.791L198.75 134.791L198.75 132.774L199.25 132.774ZM199.25 122.687L199.25 124.704L198.75 124.704L198.75 122.687L199.25 122.687ZM199.25 112.6L199.25 114.617L198.75 114.617L198.75 112.6L199.25 112.6ZM199.25 102.513L199.25 104.53L198.75 104.53L198.75 102.513L199.25 102.513ZM199.25 92.4261L199.25 94.4435L198.75 94.4435L198.75 92.4261L199.25 92.4261ZM199.25 82.3391L199.25 84.3565L198.75 84.3565L198.75 82.3391L199.25 82.3391ZM199.25 72.2521L199.25 74.2695L198.75 74.2695L198.75 72.2521L199.25 72.2521ZM199.25 62.1652L199.25 64.1826L198.75 64.1826L198.75 62.1652L199.25 62.1652ZM199.25 52.0782L199.25 54.0956L198.75 54.0956L198.75 52.0782L199.25 52.0782ZM199.25 43L199.25 44.0087L198.75 44.0087L198.75 43L199.25 43Z" fill="#484848"/>
<path fill-rule="evenodd" clip-rule="evenodd" d="M44.0087 119.25L43 119.25L43 118.75L44.0087 118.75L44.0087 119.25ZM54.0957 119.25L52.0783 119.25L52.0783 118.75L54.0957 118.75L54.0957 119.25ZM64.1826 119.25L62.1652 119.25L62.1652 118.75L64.1826 118.75L64.1826 119.25ZM74.2696 119.25L72.2522 119.25L72.2522 118.75L74.2696 118.75L74.2696 119.25ZM84.3565 119.25L82.3391 119.25L82.3391 118.75L84.3565 118.75L84.3565 119.25ZM94.4435 119.25L92.4261 119.25L92.4261 118.75L94.4435 118.75L94.4435 119.25ZM104.53 119.25L102.513 119.25L102.513 118.75L104.53 118.75L104.53 119.25ZM114.617 119.25L112.6 119.25L112.6 118.75L114.617 118.75L114.617 119.25ZM124.704 119.25L122.687 119.25L122.687 118.75L124.704 118.75L124.704 119.25ZM134.791 119.25L132.774 119.25L132.774 118.75L134.791 118.75L134.791 119.25ZM144.878 119.25L142.861 119.25L142.861 118.75L144.878 118.75L144.878 119.25ZM154.965 119.25L152.948 119.25L152.948 118.75L154.965 118.75L154.965 119.25ZM165.052 119.25L163.035 119.25L163.035 118.75L165.052 118.75L165.052 119.25ZM175.139 119.25L173.122 119.25L173.122 118.75L175.139 118.75L175.139 119.25ZM185.226 119.25L183.209 119.25L183.209 118.75L185.226 118.75L185.226 119.25ZM195.313 119.25L193.296 119.25L193.296 118.75L195.313 118.75L195.313 119.25ZM205.4 119.25L203.383 119.25L203.383 118.75L205.4 118.75L205.4 119.25ZM215.487 119.25L213.47 119.25L213.47 118.75L215.487 118.75L215.487 119.25ZM225.574 119.25L223.557 119.25L223.557 118.75L225.574 118.75L225.574 119.25ZM235.661 119.25L233.644 119.25L233.644 118.75L235.661 118.75L235.661 119.25ZM245.748 119.25L243.73 119.25L243.73 118.75L245.748 118.75L245.748 119.25ZM255.835 119.25L253.817 119.25L253.817 118.75L255.835 118.75L255.835 119.25ZM265.922 119.25L263.904 119.25L263.904 118.75L265.922 118.75L265.922 119.25ZM275 119.25L273.991 119.25L273.991 118.75L275 118.75L275 119.25Z" fill="#484848"/>
<path fill-rule="evenodd" clip-rule="evenodd" d="M44.0087 199.25L43 199.25L43 198.75L44.0087 198.75L44.0087 199.25ZM54.0957 199.25L52.0783 199.25L52.0783 198.75L54.0957 198.75L54.0957 199.25ZM64.1826 199.25L62.1652 199.25L62.1652 198.75L64.1826 198.75L64.1826 199.25ZM74.2696 199.25L72.2522 199.25L72.2522 198.75L74.2696 198.75L74.2696 199.25ZM84.3565 199.25L82.3391 199.25L82.3391 198.75L84.3565 198.75L84.3565 199.25ZM94.4435 199.25L92.4261 199.25L92.4261 198.75L94.4435 198.75L94.4435 199.25ZM104.53 199.25L102.513 199.25L102.513 198.75L104.53 198.75L104.53 199.25ZM114.617 199.25L112.6 199.25L112.6 198.75L114.617 198.75L114.617 199.25ZM124.704 199.25L122.687 199.25L122.687 198.75L124.704 198.75L124.704 199.25ZM134.791 199.25L132.774 199.25L132.774 198.75L134.791 198.75L134.791 199.25ZM144.878 199.25L142.861 199.25L142.861 198.75L144.878 198.75L144.878 199.25ZM154.965 199.25L152.948 199.25L152.948 198.75L154.965 198.75L154.965 199.25ZM165.052 199.25L163.035 199.25L163.035 198.75L165.052 198.75L165.052 199.25ZM175.139 199.25L173.122 199.25L173.122 198.75L175.139 198.75L175.139 199.25ZM185.226 199.25L183.209 199.25L183.209 198.75L185.226 198.75L185.226 199.25ZM195.313 199.25L193.296 199.25L193.296 198.75L195.313 198.75L195.313 199.25ZM205.4 199.25L203.383 199.25L203.383 198.75L205.4 198.75L205.4 199.25ZM215.487 199.25L213.47 199.25L213.47 198.75L215.487 198.75L215.487 199.25ZM225.574 199.25L223.557 199.25L223.557 198.75L225.574 198.75L225.574 199.25ZM235.661 199.25L233.644 199.25L233.644 198.75L235.661 198.75L235.661 199.25ZM245.748 199.25L243.73 199.25L243.73 198.75L245.748 198.75L245.748 199.25ZM255.835 199.25L253.817 199.25L253.817 198.75L255.835 198.75L255.835 199.25ZM265.922 199.25L263.904 199.25L263.904 198.75L265.922 198.75L265.922 199.25ZM275 199.25L273.991 199.25L273.991 198.75L275 198.75L275 199.25Z" fill="#484848"/>
<path fill-rule="evenodd" clip-rule="evenodd" d="M44.0087 239.25L43 239.25L43 238.75L44.0087 238.75L44.0087 239.25ZM54.0957 239.25L52.0783 239.25L52.0783 238.75L54.0957 238.75L54.0957 239.25ZM64.1826 239.25L62.1652 239.25L62.1652 238.75L64.1826 238.75L64.1826 239.25ZM74.2696 239.25L72.2522 239.25L72.2522 238.75L74.2696 238.75L74.2696 239.25ZM84.3565 239.25L82.3391 239.25L82.3391 238.75L84.3565 238.75L84.3565 239.25ZM94.4435 239.25L92.4261 239.25L92.4261 238.75L94.4435 238.75L94.4435 239.25ZM104.53 239.25L102.513 239.25L102.513 238.75L104.53 238.75L104.53 239.25ZM114.617 239.25L112.6 239.25L112.6 238.75L114.617 238.75L114.617 239.25ZM124.704 239.25L122.687 239.25L122.687 238.75L124.704 238.75L124.704 239.25ZM134.791 239.25L132.774 239.25L132.774 238.75L134.791 238.75L134.791 239.25ZM144.878 239.25L142.861 239.25L142.861 238.75L144.878 238.75L144.878 239.25ZM154.965 239.25L152.948 239.25L152.948 238.75L154.965 238.75L154.965 239.25ZM165.052 239.25L163.035 239.25L163.035 238.75L165.052 238.75L165.052 239.25ZM175.139 239.25L173.122 239.25L173.122 238.75L175.139 238.75L175.139 239.25ZM185.226 239.25L183.209 239.25L183.209 238.75L185.226 238.75L185.226 239.25ZM195.313 239.25L193.296 239.25L193.296 238.75L195.313 238.75L195.313 239.25ZM205.4 239.25L203.383 239.25L203.383 238.75L205.4 238.75L205.4 239.25ZM215.487 239.25L213.47 239.25L213.47 238.75L215.487 238.75L215.487 239.25ZM225.574 239.25L223.557 239.25L223.557 238.75L225.574 238.75L225.574 239.25ZM235.661 239.25L233.644 239.25L233.644 238.75L235.661 238.75L235.661 239.25ZM245.748 239.25L243.73 239.25L243.73 238.75L245.748 238.75L245.748 239.25ZM255.835 239.25L253.817 239.25L253.817 238.75L255.835 238.75L255.835 239.25ZM265.922 239.25L263.904 239.25L263.904 238.75L265.922 238.75L265.922 239.25ZM275 239.25L273.991 239.25L273.991 238.75L275 238.75L275 239.25Z" fill="#484848"/>
<path fill-rule="evenodd" clip-rule="evenodd" d="M44.0087 79.25L43 79.25L43 78.75L44.0087 78.75L44.0087 79.25ZM54.0957 79.25L52.0783 79.25L52.0783 78.75L54.0957 78.75L54.0957 79.25ZM64.1826 79.25L62.1652 79.25L62.1652 78.75L64.1826 78.75L64.1826 79.25ZM74.2696 79.25L72.2522 79.25L72.2522 78.75L74.2696 78.75L74.2696 79.25ZM84.3565 79.25L82.3391 79.25L82.3391 78.75L84.3565 78.75L84.3565 79.25ZM94.4435 79.25L92.4261 79.25L92.4261 78.75L94.4435 78.75L94.4435 79.25ZM104.53 79.25L102.513 79.25L102.513 78.75L104.53 78.75L104.53 79.25ZM114.617 79.25L112.6 79.25L112.6 78.75L114.617 78.75L114.617 79.25ZM124.704 79.25L122.687 79.25L122.687 78.75L124.704 78.75L124.704 79.25ZM134.791 79.25L132.774 79.25L132.774 78.75L134.791 78.75L134.791 79.25ZM144.878 79.25L142.861 79.25L142.861 78.75L144.878 78.75L144.878 79.25ZM154.965 79.25L152.948 79.25L152.948 78.75L154.965 78.75L154.965 79.25ZM165.052 79.25L163.035 79.25L163.035 78.75L165.052 78.75L165.052 79.25ZM175.139 79.25L173.122 79.25L173.122 78.75L175.139 78.75L175.139 79.25ZM185.226 79.25L183.209 79.25L183.209 78.75L185.226 78.75L185.226 79.25ZM195.313 79.25L193.296 79.25L193.296 78.75L195.313 78.75L195.313 79.25ZM205.4 79.25L203.383 79.25L203.383 78.75L205.4 78.75L205.4 79.25ZM215.487 79.25L213.47 79.25L213.47 78.75L215.487 78.75L215.487 79.25ZM225.574 79.25L223.557 79.25L223.557 78.75L225.574 78.75L225.574 79.25ZM235.661 79.25L233.644 79.25L233.644 78.75L235.661 78.75L235.661 79.25ZM245.748 79.25L243.73 79.25L243.73 78.75L245.748 78.75L245.748 79.25ZM255.835 79.25L253.817 79.25L253.817 78.75L255.835 78.75L255.835 79.25ZM265.922 79.25L263.904 79.25L263.904 78.75L265.922 78.75L265.922 79.25ZM275 79.25L273.991 79.25L273.991 78.75L275 78.75L275 79.25Z" fill="#484848"/>
<path fill-rule="evenodd" clip-rule="evenodd" d="M78.75 44.0087L78.75 43L79.25 43L79.25 44.0087L78.75 44.0087ZM78.75 54.0957L78.75 52.0783L79.25 52.0783L79.25 54.0957L78.75 54.0957ZM78.75 64.1826L78.75 62.1652L79.25 62.1652L79.25 64.1826L78.75 64.1826ZM78.75 74.2696L78.75 72.2522L79.25 72.2522L79.25 74.2696L78.75 74.2696ZM78.75 84.3565L78.75 82.3391L79.25 82.3391L79.25 84.3565L78.75 84.3565ZM78.75 94.4435L78.75 92.4261L79.25 92.4261L79.25 94.4435L78.75 94.4435ZM78.75 104.53L78.75 102.513L79.25 102.513L79.25 104.53L78.75 104.53ZM78.75 114.617L78.75 112.6L79.25 112.6L79.25 114.617L78.75 114.617ZM78.75 124.704L78.75 122.687L79.25 122.687L79.25 124.704L78.75 124.704ZM78.75 134.791L78.75 132.774L79.25 132.774L79.25 134.791L78.75 134.791ZM78.75 144.878L78.75 142.861L79.25 142.861L79.25 144.878L78.75 144.878ZM78.75 154.965L78.75 152.948L79.25 152.948L79.25 154.965L78.75 154.965ZM78.75 165.052L78.75 163.035L79.25 163.035L79.25 165.052L78.75 165.052ZM78.75 175.139L78.75 173.122L79.25 173.122L79.25 175.139L78.75 175.139ZM78.75 185.226L78.75 183.209L79.25 183.209L79.25 185.226L78.75 185.226ZM78.75 195.313L78.75 193.296L79.25 193.296L79.25 195.313L78.75 195.313ZM78.75 205.4L78.75 203.383L79.25 203.383L79.25 205.4L78.75 205.4ZM78.75 215.487L78.75 213.47L79.25 213.47L79.25 215.487L78.75 215.487ZM78.75 225.574L78.75 223.557L79.25 223.557L79.25 225.574L78.75 225.574ZM78.75 235.661L78.75 233.644L79.25 233.644L79.25 235.661L78.75 235.661ZM78.75 245.748L78.75 243.73L79.25 243.73L79.25 245.748L78.75 245.748ZM78.75 255.835L78.75 253.817L79.25 253.817L79.25 255.835L78.75 255.835ZM78.75 265.922L78.75 263.904L79.25 263.904L79.25 265.922L78.75 265.922ZM78.75 275L78.75 273.991L79.25 273.991L79.25 275L78.75 275Z" fill="#484848"/>
<path fill-rule="evenodd" clip-rule="evenodd" d="M238.75 44.0087L238.75 43L239.25 43L239.25 44.0087L238.75 44.0087ZM238.75 54.0957L238.75 52.0783L239.25 52.0783L239.25 54.0957L238.75 54.0957ZM238.75 64.1826L238.75 62.1652L239.25 62.1652L239.25 64.1826L238.75 64.1826ZM238.75 74.2696L238.75 72.2522L239.25 72.2522L239.25 74.2696L238.75 74.2696ZM238.75 84.3565L238.75 82.3391L239.25 82.3391L239.25 84.3565L238.75 84.3565ZM238.75 94.4435L238.75 92.4261L239.25 92.4261L239.25 94.4435L238.75 94.4435ZM238.75 104.53L238.75 102.513L239.25 102.513L239.25 104.53L238.75 104.53ZM238.75 114.617L238.75 112.6L239.25 112.6L239.25 114.617L238.75 114.617ZM238.75 124.704L238.75 122.687L239.25 122.687L239.25 124.704L238.75 124.704ZM238.75 134.791L238.75 132.774L239.25 132.774L239.25 134.791L238.75 134.791ZM238.75 144.878L238.75 142.861L239.25 142.861L239.25 144.878L238.75 144.878ZM238.75 154.965L238.75 152.948L239.25 152.948L239.25 154.965L238.75 154.965ZM238.75 165.052L238.75 163.035L239.25 163.035L239.25 165.052L238.75 165.052ZM238.75 175.139L238.75 173.122L239.25 173.122L239.25 175.139L238.75 175.139ZM238.75 185.226L238.75 183.209L239.25 183.209L239.25 185.226L238.75 185.226ZM238.75 195.313L238.75 193.296L239.25 193.296L239.25 195.313L238.75 195.313ZM238.75 205.4L238.75 203.383L239.25 203.383L239.25 205.4L238.75 205.4ZM238.75 215.487L238.75 213.47L239.25 213.47L239.25 215.487L238.75 215.487ZM238.75 225.574L238.75 223.557L239.25 223.557L239.25 225.574L238.75 225.574ZM238.75 235.661L238.75 233.644L239.25 233.644L239.25 235.661L238.75 235.661ZM238.75 245.748L238.75 243.73L239.25 243.73L239.25 245.748L238.75 245.748ZM238.75 255.835L238.75 253.817L239.25 253.817L239.25 255.835L238.75 255.835ZM238.75 265.922L238.75 263.904L239.25 263.904L239.25 265.922L238.75 265.922ZM238.75 275L238.75 273.991L239.25 273.991L239.25 275L238.75 275Z" fill="#484848"/>
<rect x="43.25" y="43.25" width="231.5" height="231.5" rx="35.75" stroke="#C8C8C8" stroke-width="0.5"/>
<rect x="38.75" y="38.75" width="240.5" height="240.5" rx="40.25" stroke="#C8C8C8" stroke-width="0.5"/>
<circle cx="79" cy="79" r="40" transform="rotate(90 79 79)" fill="#F2F2F2" stroke="#F2F2F2"/>
<path d="M79 47V59" stroke="#1C1C1C" stroke-width="0.5"/>
<path d="M79 99V111" stroke="#1C1C1C" stroke-width="0.5"/>
</svg>
