<svg width="58" height="58" viewBox="0 0 58 58" fill="none" xmlns="http://www.w3.org/2000/svg">
<path fill-rule="evenodd" clip-rule="evenodd" d="M57.7071 1.70698C58.0976 1.31646 58.0976 0.683295 57.7071 0.292771C57.3166 -0.0977532 56.6834 -0.0977532 56.2929 0.292771L29 27.5857L1.70711 0.292771C1.31658 -0.0977532 0.683418 -0.0977532 0.292893 0.292771C-0.0976311 0.683295 -0.0976311 1.31646 0.292893 1.70698L27.5858 28.9999L0.292893 56.2928C-0.0976308 56.6833 -0.0976312 57.3165 0.292893 57.707C0.683417 58.0975 1.31658 58.0975 1.70711 57.707L29 30.4141L56.2929 57.707C56.6834 58.0975 57.3166 58.0975 57.7071 57.707C58.0976 57.3165 58.0976 56.6833 57.7071 56.2928L30.4142 28.9999L57.7071 1.70698Z" fill="#1C1C1C"/>
</svg>
