<svg width="175" height="175" viewBox="0 0 175 175" fill="none" xmlns="http://www.w3.org/2000/svg">
    <path d="M0.5 25.6C0.5 21.1113 0.500389 17.7749 0.716326 15.132C0.931787 12.4948 1.35935 10.5922 2.1894 8.96315C3.67544 6.04664 6.04664 3.67544 8.96315 2.1894C10.5922 1.35935 12.4948 0.931787 15.1319 0.716326C17.7749 0.500389 21.1113 0.5 25.6 0.5H149.4C153.889 0.5 157.225 0.500389 159.868 0.716326C162.505 0.931787 164.408 1.35935 166.037 2.1894C168.953 3.67544 171.325 6.04664 172.811 8.96315C173.641 10.5922 174.068 12.4948 174.284 15.1319C174.5 17.7749 174.5 21.1113 174.5 25.6V149.4C174.5 153.889 174.5 157.225 174.284 159.868C174.068 162.505 173.641 164.408 172.811 166.037C171.325 168.953 168.953 171.325 166.037 172.811C164.408 173.641 162.505 174.068 159.868 174.284C157.225 174.5 153.889 174.5 149.4 174.5H25.6C21.1113 174.5 17.7749 174.5 15.132 174.284C12.4948 174.068 10.5922 173.641 8.96315 172.811C6.04664 171.325 3.67544 168.953 2.1894 166.037C1.35935 164.408 0.931787 162.505 0.716326 159.868C0.500389 157.225 0.5 153.889 0.5 149.4V25.6Z" stroke="#E3E3E3"/>
</svg>
