<svg width="24" height="24" viewBox="0 0 24 24" fill="none" xmlns="http://www.w3.org/2000/svg">
<path d="M5.63447 5.17191C7.34743 3.97265 9.70813 4.38879 10.9075 6.1017C12.1069 7.8146 11.6905 10.1753 9.97774 11.3748L6.10037 14.0897C4.5302 15.1892 2.36615 14.8075 1.26662 13.2374C0.167136 11.6672 0.548713 9.50314 2.11894 8.40365L2.21414 8.33699C2.47673 7.6667 2.93269 7.06372 3.56659 6.61986L5.63447 5.17191Z" fill="#1C1C1C"/>
<rect x="2.21875" y="9.10138" width="7.57276" height="5.0485" rx="2.52425" transform="rotate(-35 2.21875 9.10138)" fill="#F2F2F2"/>
<path fill-rule="evenodd" clip-rule="evenodd" d="M6.89819 6.98084C7.61193 6.48107 8.59633 6.65465 9.09609 7.36839C9.49546 7.93885 9.46339 8.68073 9.07024 9.21091C8.97209 9.34326 8.92302 9.40944 8.9071 9.45765C8.89118 9.50586 8.89118 9.56522 8.89119 9.68395L8.89177 18.3494C8.89177 18.7892 8.892 19.0093 8.83781 19.1883C8.71548 19.5916 8.39981 19.9076 7.99661 20.0301C7.81746 20.0844 7.59645 20.0845 7.15611 20.0845C6.71637 20.0845 6.49622 20.0848 6.31719 20.0305C5.91397 19.9082 5.59791 19.5925 5.47544 19.1894C5.42109 19.0102 5.421 18.7892 5.421 18.3488L5.42053 11.7807C5.42051 11.5662 5.42051 11.4589 5.3784 11.3858C5.33629 11.3127 5.20446 11.2363 4.94079 11.0833C4.74956 10.9723 4.57883 10.8193 4.44357 10.6261C3.94384 9.91244 4.11673 8.92859 4.83031 8.42878L6.89819 6.98084Z" fill="#1C1C1C"/>
<ellipse cx="0.788831" cy="0.788829" rx="0.788831" ry="0.788829" transform="matrix(0.819152 -0.573576 0.573583 0.819148 4.64062 9.52756)" fill="#F2F2F2"/>
<path d="M18.3694 5.17176C16.6565 3.9725 14.2958 4.38863 13.0964 6.10154C11.897 7.81445 12.3134 10.1751 14.0262 11.3746L17.9035 14.0896C19.4737 15.189 21.6378 14.8073 22.7373 13.2372C23.8368 11.667 23.4552 9.50298 21.885 8.4035L21.7898 8.33684C21.5272 7.66655 21.0712 7.06357 20.4373 6.61971L18.3694 5.17176Z" fill="#1C1C1C"/>
<rect width="7.57276" height="5.0485" rx="2.52425" transform="matrix(-0.819152 -0.573576 -0.573576 0.819152 21.7812 9.10132)" fill="#F2F2F2"/>
<path fill-rule="evenodd" clip-rule="evenodd" d="M17.1034 6.98128C16.3896 6.48151 15.4053 6.65508 14.9055 7.36882C14.5067 7.93849 14.5381 8.67867 14.9297 9.20861C15.0273 9.3407 15.0761 9.40674 15.0919 9.45483C15.1078 9.50291 15.1078 9.5621 15.1078 9.68047L15.1076 18.3495C15.1076 18.7893 15.1074 19.0094 15.1616 19.1884C15.2839 19.5917 15.5996 19.9078 16.0028 20.0302C16.182 20.0845 16.403 20.0846 16.8433 20.0846C17.2831 20.0846 17.5032 20.0849 17.6822 20.0307C18.0855 19.9083 18.4015 19.5927 18.524 19.1895C18.5783 19.0103 18.5784 18.7893 18.5784 18.349L18.5791 11.7828C18.5791 11.5681 18.5791 11.4607 18.6213 11.3876C18.6634 11.3145 18.7954 11.2379 19.0595 11.0848C19.2513 10.9736 19.4225 10.8201 19.558 10.6266C20.0578 9.91282 19.8842 8.92843 19.1705 8.42866L17.1034 6.98128Z" fill="#1C1C1C"/>
<ellipse cx="0.788831" cy="0.788829" rx="0.788831" ry="0.788829" transform="matrix(-0.819152 -0.573576 -0.573583 0.819148 19.3672 9.52759)" fill="#F2F2F2"/>
</svg>
