<svg width="24" height="24" viewBox="0 0 24 24" fill="none" xmlns="http://www.w3.org/2000/svg">
<path fill-rule="evenodd" clip-rule="evenodd" d="M1 7C0.447715 7 0 7.44772 0 8C0 8.55228 0.447715 9 1 9C1.55228 9 2 8.55228 2 8C2 7.44772 1.55228 7 1 7ZM14 8C14 7.44772 14.4477 7 15 7H23C23.5523 7 24 7.44772 24 8C24 8.55228 23.5523 9 23 9H15C14.4477 9 14 8.55228 14 8ZM12 12C12 11.4477 12.4477 11 13 11H23C23.5523 11 24 11.4477 24 12C24 12.5523 23.5523 13 23 13H13C12.4477 13 12 12.5523 12 12ZM9 15C8.44771 15 8 15.4477 8 16C8 16.5523 8.44771 17 9 17H23C23.5523 17 24 16.5523 24 16C24 15.4477 23.5523 15 23 15H9ZM6 10C6 9.44772 6.44772 9 7 9C7.55228 9 8 9.44772 8 10C8 10.5523 7.55228 11 7 11C6.44772 11 6 10.5523 6 10ZM3 9C2.44772 9 2 9.44772 2 10C2 10.5523 2.44772 11 3 11C3.55228 11 4 10.5523 4 10C4 9.44772 3.55228 9 3 9ZM2 14C2 13.4477 2.44772 13 3 13C3.55228 13 4 13.4477 4 14C4 14.5523 3.55228 15 3 15C2.44772 15 2 14.5523 2 14ZM0 12C0 11.4477 0.447715 11 1 11C1.55228 11 2 11.4477 2 12C2 12.5523 1.55228 13 1 13C0.447715 13 0 12.5523 0 12ZM1 15C0.447715 15 0 15.4477 0 16C0 16.5523 0.447715 17 1 17C1.55228 17 2 16.5523 2 16C2 15.4477 1.55228 15 1 15ZM4 16C4 15.4477 4.44772 15 5 15C5.55228 15 6 15.4477 6 16C6 16.5523 5.55228 17 5 17C4.44772 17 4 16.5523 4 16ZM5 7C4.44772 7 4 7.44772 4 8C4 8.55228 4.44772 9 5 9C5.55228 9 6 8.55228 6 8C6 7.44772 5.55228 7 5 7ZM8 8C8 7.44772 8.44771 7 9 7C9.55229 7 10 7.44772 10 8C10 8.55228 9.55229 9 9 9C8.44771 9 8 8.55228 8 8ZM5 11C4.44772 11 4 11.4477 4 12C4 12.5523 4.44772 13 5 13C5.55228 13 6 12.5523 6 12C6 11.4477 5.55228 11 5 11Z" fill="#1C1C1C"/>
</svg>
