<svg width="366" height="366" viewBox="0 0 366 366" fill="none" xmlns="http://www.w3.org/2000/svg">
<g clip-path="url(#clip0_23106_69820)">
<rect x="76.2002" y="293.6" width="98.4" height="19.2" rx="7.2" fill="#323232"/>
<rect x="76.2002" y="341.6" width="98.4" height="19.2" rx="7.2" fill="#323232"/>
<circle cx="280.2" cy="303.2" r="7.2" stroke="#929292" stroke-width="1.6"/>
<path fill-rule="evenodd" clip-rule="evenodd" d="M280.201 300.4C280.643 300.4 281.001 300.042 281.001 299.6C281.001 299.158 280.643 298.8 280.201 298.8C279.759 298.8 279.401 299.158 279.401 299.6C279.401 300.042 279.759 300.4 280.201 300.4ZM282.201 307.6C282.643 307.6 283.001 307.242 283.001 306.8C283.001 306.358 282.643 306 282.201 306L281.401 306L281.401 302C281.401 301.558 281.043 301.2 280.601 301.2H279.001C278.559 301.2 278.201 301.558 278.201 302C278.201 302.442 278.559 302.8 279.001 302.8H279.801L279.801 306H279.001C278.559 306 278.201 306.358 278.201 306.8C278.201 307.242 278.559 307.6 279.001 307.6H280.601H282.201Z" fill="#929292"/>
<circle cx="280.2" cy="351.2" r="7.2" stroke="#929292" stroke-width="1.6"/>
<path fill-rule="evenodd" clip-rule="evenodd" d="M280.201 348.4C280.643 348.4 281.001 348.042 281.001 347.6C281.001 347.158 280.643 346.8 280.201 346.8C279.759 346.8 279.401 347.158 279.401 347.6C279.401 348.042 279.759 348.4 280.201 348.4ZM282.201 355.6C282.643 355.6 283.001 355.242 283.001 354.8C283.001 354.358 282.643 354 282.201 354L281.401 354L281.401 350C281.401 349.558 281.043 349.2 280.601 349.2H279.001C278.559 349.2 278.201 349.558 278.201 350C278.201 350.442 278.559 350.8 279.001 350.8H279.801L279.801 354H279.001C278.559 354 278.201 354.358 278.201 354.8C278.201 355.242 278.559 355.6 279.001 355.6H280.601H282.201Z" fill="#929292"/>
<path d="M76.2002 279.2H304.2" stroke="#323232" stroke-width="0.6"/>
<path d="M76.2002 327.2H304.2" stroke="#323232" stroke-width="0.6"/>
<rect x="62.1008" y="183.5" width="241.8" height="281.4" rx="14.1" stroke="#484848" stroke-width="0.6"/>
<rect x="35.4004" y="32" width="295.2" height="673.2" rx="48" stroke="#484848" stroke-width="0.6"/>
<rect x="39.001" y="35.6" width="288" height="669.6" rx="45.6" stroke="#484848" stroke-width="0.6"/>
<rect x="42.6006" y="39.2" width="280.8" height="666" rx="43.2" stroke="#484848" stroke-width="0.6"/>
<path d="M335.4 283.015C335.4 283.78 335.4 284.162 335.252 284.454C335.121 284.711 334.912 284.92 334.655 285.051C334.362 285.2 333.98 285.2 333.215 285.2L330.6 285.2L330.6 213.2L333.215 213.2C333.98 213.2 334.362 213.2 334.655 213.349C334.912 213.48 335.121 213.689 335.252 213.946C335.4 214.238 335.4 214.621 335.4 215.385L335.4 283.015Z" stroke="#484848" stroke-width="0.6"/>
<path d="M30.6006 181.785C30.6006 181.02 30.6006 180.638 30.7495 180.346C30.8804 180.089 31.0894 179.88 31.3464 179.749C31.6386 179.6 32.0211 179.6 32.7861 179.6H35.4006L35.4006 227.6H32.7861C32.0211 227.6 31.6386 227.6 31.3464 227.451C31.0894 227.32 30.8804 227.111 30.7495 226.854C30.6006 226.562 30.6006 226.179 30.6006 225.414L30.6006 181.785Z" stroke="#484848" stroke-width="0.6"/>
<path d="M30.6006 241.785C30.6006 241.02 30.6006 240.638 30.7495 240.346C30.8804 240.089 31.0894 239.88 31.3464 239.749C31.6386 239.6 32.0211 239.6 32.7861 239.6H35.4006L35.4006 287.6H32.7861C32.0211 287.6 31.6386 287.6 31.3464 287.451C31.0894 287.32 30.8804 287.111 30.7495 286.854C30.6006 286.562 30.6006 286.179 30.6006 285.414L30.6006 241.785Z" stroke="#484848" stroke-width="0.6"/>
<rect x="62.1008" y="106.7" width="241.8" height="47.4" rx="14.1" stroke="#484848" stroke-width="0.6"/>
<rect x="237.001" y="116" width="57.6" height="28.8" rx="14.4" fill="#F2F2F2"/>
<circle cx="280.201" cy="130.4" r="12" fill="black"/>
<rect x="76.2012" y="120.8" width="98.4" height="19.2" rx="7.2" fill="#323232"/>
<rect x="76.2002" y="197.6" width="98.4" height="19.2" rx="7.2" fill="#323232"/>
<rect x="76.2002" y="245.6" width="98.4" height="19.2" rx="7.2" fill="#323232"/>
<rect x="61.8008" y="164" width="67.2" height="9.6" rx="4.8" fill="#323232"/>
<rect x="83.4004" y="71.6" width="67.2" height="9.6" rx="4.8" fill="#484848"/>
<circle cx="280.2" cy="207.2" r="7.2" stroke="#929292" stroke-width="1.6"/>
<path fill-rule="evenodd" clip-rule="evenodd" d="M280.201 204.4C280.643 204.4 281.001 204.042 281.001 203.6C281.001 203.158 280.643 202.8 280.201 202.8C279.759 202.8 279.401 203.158 279.401 203.6C279.401 204.042 279.759 204.4 280.201 204.4ZM282.201 211.6C282.643 211.6 283.001 211.242 283.001 210.8C283.001 210.358 282.643 210 282.201 210L281.401 210L281.401 206C281.401 205.558 281.043 205.2 280.601 205.2H279.001C278.559 205.2 278.201 205.558 278.201 206C278.201 206.442 278.559 206.8 279.001 206.8L279.801 206.8L279.801 210H279.001C278.559 210 278.201 210.358 278.201 210.8C278.201 211.242 278.559 211.6 279.001 211.6H280.601H282.201Z" fill="#929292"/>
<circle cx="280.2" cy="255.2" r="7.2" stroke="#929292" stroke-width="1.6"/>
<path fill-rule="evenodd" clip-rule="evenodd" d="M280.201 252.4C280.643 252.4 281.001 252.042 281.001 251.6C281.001 251.158 280.643 250.8 280.201 250.8C279.759 250.8 279.401 251.158 279.401 251.6C279.401 252.042 279.759 252.4 280.201 252.4ZM282.201 259.6C282.643 259.6 283.001 259.242 283.001 258.8C283.001 258.358 282.643 258 282.201 258L281.401 258L281.401 254C281.401 253.558 281.043 253.2 280.601 253.2H279.001C278.559 253.2 278.201 253.558 278.201 254C278.201 254.442 278.559 254.8 279.001 254.8H279.801L279.801 258H279.001C278.559 258 278.201 258.358 278.201 258.8C278.201 259.242 278.559 259.6 279.001 259.6H280.601H282.201Z" fill="#929292"/>
<path d="M76.2002 231.2H304.2" stroke="#323232" stroke-width="0.6"/>
<path d="M69.0008 69.2L61.8008 76.4L69.0008 83.6" stroke="#C8C8C8" stroke-width="1.2" stroke-linecap="round"/>
<rect y="183" width="366" height="183" fill="url(#paint0_linear_23106_69820)"/>
</g>
<defs>
<linearGradient id="paint0_linear_23106_69820" x1="183" y1="183" x2="183" y2="366" gradientUnits="userSpaceOnUse">
<stop stop-opacity="0"/>
<stop offset="0.117896" stop-opacity="0.01"/>
<stop offset="0.213837" stop-opacity="0.0324148"/>
<stop offset="0.2912" stop-opacity="0.0704"/>
<stop offset="0.353363" stop-opacity="0.120652"/>
<stop offset="0.403704" stop-opacity="0.181481"/>
<stop offset="0.4456" stop-opacity="0.2512"/>
<stop offset="0.48243" stop-opacity="0.328119"/>
<stop offset="0.51757" stop-opacity="0.410548"/>
<stop offset="0.5544" stop-opacity="0.4968"/>
<stop offset="0.596296" stop-opacity="0.585185"/>
<stop offset="0.646637" stop-opacity="0.674015"/>
<stop offset="0.7088" stop-opacity="0.7616"/>
<stop offset="0.786163" stop-opacity="0.846252"/>
<stop offset="0.882104" stop-opacity="0.926281"/>
<stop offset="1"/>
</linearGradient>
<clipPath id="clip0_23106_69820">
<rect width="366" height="366" fill="white"/>
</clipPath>
</defs>
</svg>
