<svg width="24" height="24" viewBox="0 0 24 24" fill="none" xmlns="http://www.w3.org/2000/svg">
<path d="M1.78885 8.10557L11.5528 3.22361C11.8343 3.08284 12.1657 3.08284 12.4472 3.22361L22.2111 8.10557C22.9482 8.4741 22.9482 9.5259 22.2111 9.89443L12.4472 14.7764C12.1657 14.9172 11.8343 14.9172 11.5528 14.7764L1.78885 9.89443C1.05181 9.5259 1.05181 8.4741 1.78885 8.10557Z" stroke="#1C1C1C" stroke-width="2"/>
<path d="M1.78885 14.1056L11.5528 9.22361C11.8343 9.08284 12.1657 9.08284 12.4472 9.22361L22.2111 14.1056C22.9482 14.4741 22.9482 15.5259 22.2111 15.8944L12.4472 20.7764C12.1657 20.9172 11.8343 20.9172 11.5528 20.7764L1.78885 15.8944C1.05181 15.5259 1.05181 14.4741 1.78885 14.1056Z" stroke="#1C1C1C" stroke-width="2"/>
<circle cx="12" cy="18" r="1" fill="#1C1C1C"/>
<circle cx="12" cy="6" r="1" fill="#1C1C1C"/>
</svg>
