<svg width="24" height="24" viewBox="0 0 24 24" fill="none" xmlns="http://www.w3.org/2000/svg">
<path fill-rule="evenodd" clip-rule="evenodd" d="M5 4H19C20.1046 4 21 4.89543 21 6V18C21 19.1046 20.1046 20 19 20H5C3.89543 20 3 19.1046 3 18V6C3 4.89543 3.89543 4 5 4ZM1 6C1 3.79086 2.79086 2 5 2H19C21.2091 2 23 3.79086 23 6V18C23 20.2091 21.2091 22 19 22H5C2.79086 22 1 20.2091 1 18V6ZM6 5C5.44772 5 5 5.44772 5 6C5 6.55228 5.44772 7 6 7C6.55228 7 7 6.55228 7 6C7 5.44772 6.55228 5 6 5ZM17 6C17 5.44772 17.4477 5 18 5C18.5523 5 19 5.44772 19 6C19 6.55228 18.5523 7 18 7C17.4477 7 17 6.55228 17 6ZM7 12C7 11.4477 6.55228 11 6 11C5.44772 11 5 11.4477 5 12C5 12.5523 5.44772 13 6 13C6.55228 13 7 12.5523 7 12ZM18 11C18.5523 11 19 11.4477 19 12C19 12.5523 18.5523 13 18 13C17.4477 13 17 12.5523 17 12C17 11.4477 17.4477 11 18 11ZM7 9C7 8.44772 6.55228 8 6 8C5.44772 8 5 8.44772 5 9C5 9.55228 5.44772 10 6 10C6.55228 10 7 9.55228 7 9ZM18 8C18.5523 8 19 8.44772 19 9C19 9.55228 18.5523 10 18 10C17.4477 10 17 9.55228 17 9C17 8.44772 17.4477 8 18 8ZM7 15C7 14.4477 6.55228 14 6 14C5.44772 14 5 14.4477 5 15C5 15.5523 5.44772 16 6 16C6.55228 16 7 15.5523 7 15ZM18 14C18.5523 14 19 14.4477 19 15C19 15.5523 18.5523 16 18 16C17.4477 16 17 15.5523 17 15C17 14.4477 17.4477 14 18 14ZM7 18C7 17.4477 6.55228 17 6 17C5.44772 17 5 17.4477 5 18C5 18.5523 5.44772 19 6 19C6.55228 19 7 18.5523 7 18ZM18 17C18.5523 17 19 17.4477 19 18C19 18.5523 18.5523 19 18 19C17.4477 19 17 18.5523 17 18C17 17.4477 17.4477 17 18 17ZM10.7236 10.3618C10.3912 10.1956 10 10.4373 10 10.809V13.191C10 13.5627 10.3912 13.8044 10.7236 13.6382L13.1056 12.4472C13.4741 12.263 13.4741 11.737 13.1056 11.5528L10.7236 10.3618Z" fill="#1C1C1C"/>
</svg>
