<svg width="24" height="24" viewBox="0 0 24 24" fill="none" xmlns="http://www.w3.org/2000/svg">
    <path d="M3 8.55469L9.01367 4.7959L9.11816 18.0078L3 13.4951L3 8.55469Z" stroke="#1C1C1C" stroke-width="2"/>
    <rect x="4" y="6" width="10" height="2" rx="1" transform="rotate(90 4 6)" fill="#1C1C1C"/>
    <rect x="12" y="10" width="2" height="2" rx="1" fill="#1C1C1C"/>
    <rect x="16" y="12" width="2" height="2" rx="1" fill="#1C1C1C"/>
    <rect x="16" y="8" width="2" height="2" rx="1" fill="#1C1C1C"/>
    <rect x="16" y="4" width="2" height="2" rx="1" fill="#1C1C1C"/>
    <rect x="12" y="6" width="2" height="2" rx="1" fill="#1C1C1C"/>
    <rect x="12" y="2" width="2" height="2" rx="1" fill="#1C1C1C"/>
    <rect x="16" y="16" width="2" height="2" rx="1" fill="#1C1C1C"/>
    <rect x="12" y="14" width="2" height="2" rx="1" fill="#1C1C1C"/>
    <rect x="12" y="18" width="2" height="2" rx="1" fill="#1C1C1C"/>
    <rect x="20" y="10" width="2" height="2" rx="1" fill="#1C1C1C"/>
    <rect x="20" y="6" width="2" height="2" rx="1" fill="#1C1C1C"/>
    <rect x="20" y="14" width="2" height="2" rx="1" fill="#1C1C1C"/>
</svg>