<svg width="24" height="24" viewBox="0 0 24 24" fill="none" xmlns="http://www.w3.org/2000/svg">
<path fill-rule="evenodd" clip-rule="evenodd" d="M2.80762 2.80766C3.19814 2.41714 3.83116 2.41714 4.22168 2.80766L21.1924 19.7784C21.5827 20.1689 21.5829 20.802 21.1924 21.1924C20.8019 21.5829 20.1689 21.5828 19.7783 21.1924L2.80762 4.22173C2.4171 3.83121 2.41711 3.19819 2.80762 2.80766ZM11 13.8282V19C10.9999 19.5523 10.5522 20 10 20C9.44775 20 9.00006 19.5523 9 19V11.8282L11 13.8282ZM2 16C2.55228 16 3 16.4478 3 17C2.99994 17.5523 2.55225 18 2 18C1.44775 18 1.00006 17.5523 1 17C1 16.4478 1.44772 16 2 16ZM7 9.82817V15C6.99994 15.5523 6.55225 16 6 16C5.44775 16 5.00006 15.5523 5 15V9.00005C5 8.68009 5.15095 8.39598 5.38477 8.21294L7 9.82817ZM18 8.00005C18.5523 8.00005 19 8.44776 19 9.00005V15C19 15.32 18.8482 15.6032 18.6143 15.7862L17 14.1719V9.00005C17 8.44776 17.4477 8.00005 18 8.00005ZM2 12C2.55228 12 3 12.4478 3 13C2.99994 13.5523 2.55225 14 2 14C1.44775 14 1.00006 13.5523 1 13C1 12.4478 1.44772 12 2 12ZM14 4.00005C14.5523 4.00005 15 4.44776 15 5.00005V12.1719L13 10.1719V5.00005C13 4.44776 13.4477 4.00005 14 4.00005ZM22 8.00005C22.5523 8.00005 23 8.44776 23 9.00005C22.9999 9.55228 22.5522 10 22 10C21.4478 10 21.0001 9.55228 21 9.00005C21 8.44776 21.4477 8.00005 22 8.00005ZM22 4.00005C22.5523 4.00005 23 4.44776 23 5.00005C22.9999 5.55228 22.5522 6.00005 22 6.00005C21.4478 6.00005 21.0001 5.55228 21 5.00005C21 4.44776 21.4477 4.00005 22 4.00005Z" fill="#1C1C1C"/>
</svg>
