<svg width="24" height="24" viewBox="0 0 24 24" fill="none" xmlns="http://www.w3.org/2000/svg">
<path fill-rule="evenodd" clip-rule="evenodd" d="M2.80762 2.80754C3.19814 2.41702 3.83116 2.41702 4.22168 2.80754L21.1924 19.7782C21.5827 20.1688 21.5829 20.8018 21.1924 21.1923C20.8019 21.5828 20.1689 21.5827 19.7783 21.1923L2.80762 4.2216C2.4171 3.83108 2.41711 3.19807 2.80762 2.80754ZM11 13.828V18.9999C10.9999 19.5522 10.5522 19.9999 10 19.9999C9.44775 19.9999 9.00006 19.5522 9 18.9999V11.828L11 13.828ZM2 15.9999C2.55228 15.9999 3 16.4476 3 16.9999C2.99994 17.5522 2.55225 17.9999 2 17.9999C1.44775 17.9999 1.00006 17.5522 1 16.9999C1 16.4476 1.44772 15.9999 2 15.9999ZM7 9.82805V14.9999C6.99994 15.5522 6.55225 15.9999 6 15.9999C5.44775 15.9999 5.00006 15.5522 5 14.9999V8.99992C5 8.67996 5.15095 8.39586 5.38477 8.21282L7 9.82805ZM18 7.99992C18.5523 7.99992 19 8.44764 19 8.99992V14.9999C19 15.3199 18.8482 15.603 18.6143 15.7861L17 14.1718V8.99992C17 8.44764 17.4477 7.99992 18 7.99992ZM2 11.9999C2.55228 11.9999 3 12.4476 3 12.9999C2.99994 13.5522 2.55225 13.9999 2 13.9999C1.44775 13.9999 1.00006 13.5522 1 12.9999C1 12.4476 1.44772 11.9999 2 11.9999ZM14 3.99992C14.5523 3.99992 15 4.44764 15 4.99992V12.1718L13 10.1718V4.99992C13 4.44764 13.4477 3.99992 14 3.99992ZM22 7.99992C22.5523 7.99992 23 8.44764 23 8.99992C22.9999 9.55216 22.5522 9.99992 22 9.99992C21.4478 9.99992 21.0001 9.55216 21 8.99992C21 8.44764 21.4477 7.99992 22 7.99992ZM22 3.99992C22.5523 3.99992 23 4.44764 23 4.99992C22.9999 5.55216 22.5522 5.99992 22 5.99992C21.4478 5.99992 21.0001 5.55216 21 4.99992C21 4.44764 21.4477 3.99992 22 3.99992Z" fill="#F2F2F2"/>
</svg>
