<svg width="16" height="16" viewBox="0 0 16 16" fill="none" xmlns="http://www.w3.org/2000/svg">
<g clip-path="url(#clip0_2639_3892)">
<path d="M8.31737 0.00643266C3.90232 -0.169058 0.181191 3.26763 0.00643137 7.68268C-0.169059 12.0977 3.26836 15.8181 7.68268 15.9936C12.0977 16.1691 15.8181 12.7324 15.9936 8.31737C16.1684 3.90232 12.7317 0.181192 8.31737 0.00643266ZM11.6941 11.7263C11.5947 11.9018 11.4009 11.9895 11.2122 11.9632C11.1545 11.9551 11.0967 11.9361 11.0426 11.9054C9.98526 11.3036 8.83287 10.9117 7.6176 10.7406C6.40233 10.5695 5.18633 10.6287 4.00396 10.9161C3.7473 10.9782 3.48919 10.821 3.42703 10.5644C3.36488 10.3077 3.52209 10.0496 3.77875 9.98746C5.07884 9.67157 6.41549 9.6065 7.75068 9.79442C9.08587 9.98234 10.3523 10.413 11.5157 11.0748C11.7446 11.2057 11.825 11.4967 11.6948 11.7263H11.6941ZM12.7456 9.62624C12.5825 9.9275 12.2052 10.0401 11.904 9.87704C10.6667 9.20799 9.32717 8.76853 7.92252 8.5711C6.51786 8.37368 5.10955 8.42705 3.73561 8.72904C3.66102 8.74513 3.58717 8.74805 3.51551 8.73782C3.26617 8.70272 3.05265 8.51699 2.99562 8.25595C2.92177 7.92106 3.13382 7.58982 3.46871 7.51596C4.98744 7.1818 6.54418 7.12257 8.09581 7.34047C9.64671 7.55837 11.1274 8.0439 12.4948 8.78388C12.7968 8.94694 12.9086 9.32352 12.7456 9.62551V9.62624ZM13.9111 7.25858C13.7576 7.55399 13.438 7.70681 13.1265 7.66294C13.0425 7.65124 12.9598 7.62492 12.8801 7.58397C11.4396 6.83448 9.88801 6.33945 8.26838 6.11204C6.64875 5.88463 5.02034 5.93289 3.42923 6.25609C3.01536 6.34018 2.61247 6.07256 2.52838 5.65942C2.44429 5.24556 2.71191 4.84266 3.12504 4.75857C4.88726 4.40101 6.68896 4.34763 8.48116 4.59917C10.2734 4.8507 11.9902 5.39911 13.5857 6.22903C13.9601 6.42354 14.1056 6.88493 13.9111 7.25931V7.25858Z" fill="#1ED760"/>
</g>
<defs>
<clipPath id="clip0_2639_3892">
<rect width="16" height="16" fill="white"/>
</clipPath>
</defs>
</svg>
