<svg width="24" height="24" viewBox="0 0 24 24" fill="none" xmlns="http://www.w3.org/2000/svg">
<circle cx="12" cy="12" r="1.5" fill="#F2F2F2"/>
<circle cx="12" cy="5" r="1" fill="#F2F2F2"/>
<circle cx="12" cy="1" r="1" fill="#F2F2F2"/>
<circle cx="12" cy="19" r="1" fill="#F2F2F2"/>
<circle cx="12" cy="23" r="1" fill="#F2F2F2"/>
<path d="M10 7C10.5523 7 11 7.44772 11 8C11 8.55228 10.5523 9 10 9C8.34315 9 7 10.3431 7 12C7 13.6569 8.34315 15 10 15C10.5523 15 11 15.4477 11 16C11 16.5523 10.5523 17 10 17H6C3.23858 17 1 14.7614 1 12C1 9.23858 3.23858 7 6 7H10ZM18.2568 7.00684C20.8989 7.14053 23 9.32472 23 12C23 14.6753 20.8989 16.8595 18.2568 16.9932L18 17H14C13.4477 17 13 16.5523 13 16C13 15.4477 13.4477 15 14 15C15.6569 15 17 13.6569 17 12C17 10.3431 15.6569 9 14 9C13.4477 9 13 8.55228 13 8C13 7.44772 13.4477 7 14 7H18L18.2568 7.00684ZM6 9C4.34315 9 3 10.3431 3 12C3 13.6569 4.34315 15 6 15C5.37223 14.1643 5 13.1257 5 12C5 10.8743 5.37223 9.83569 6 9ZM17.999 9C18.627 9.83571 19 10.8741 19 12C19 13.1259 18.627 14.1643 17.999 15H18C19.6569 15 21 13.6569 21 12C21 10.3949 19.7394 9.08421 18.1543 9.00391L18 9H17.999Z" fill="#F2F2F2"/>
</svg>
