<svg width="24" height="24" viewBox="0 0 24 24" fill="none" xmlns="http://www.w3.org/2000/svg">
<path fill-rule="evenodd" clip-rule="evenodd" d="M8.11125 19.7783C8.8923 18.9973 10.1583 18.9972 10.9394 19.7783C11.7203 20.5593 11.7204 21.8254 10.9394 22.6064C10.1583 23.3874 8.89231 23.3874 8.11125 22.6064C7.3302 21.8253 7.3302 20.5593 8.11125 19.7783ZM20.8378 8.4648C21.2283 8.07427 21.8623 8.07427 22.2529 8.4648C22.643 8.85534 22.6432 9.48847 22.2529 9.87886L15.1816 16.9492C14.791 17.3397 14.158 17.3397 13.7675 16.9492C13.3771 16.5586 13.377 15.9256 13.7675 15.5351L20.8378 8.4648ZM8.81731 6.3437C9.20783 5.95318 9.84085 5.95318 10.2314 6.3437C10.6217 6.73425 10.6218 7.36731 10.2314 7.75777L3.16008 14.8291C2.76961 15.2192 2.13647 15.2193 1.74602 14.8291C1.35549 14.4385 1.35549 13.8045 1.74602 13.414L8.81731 6.3437ZM12.3534 1.39351C13.1345 0.612471 14.4005 0.612495 15.1816 1.39351C15.9626 2.17456 15.9626 3.44058 15.1816 4.22163C14.4005 5.0026 13.1345 5.00265 12.3534 4.22163C11.5725 3.44061 11.5725 2.17455 12.3534 1.39351Z" fill="#1C1C1C"/>
</svg>
