<svg id="vector" xmlns="http://www.w3.org/2000/svg" width="25" height="24" viewBox="0 0 25 24"><defs><clipPath id="clip_path_0"><path d="M0.5,0h24v24h-24z"/></clipPath></defs><g id="g_0"><path fill="@color/nt_1C1C1C_F2F2F2" d="M12.5,22C11.25,22 10.079,21.763 8.988,21.288C7.896,20.813 6.946,20.171 6.137,19.363C5.329,18.555 4.688,17.605 4.213,16.513C3.737,15.421 3.5,14.25 3.5,13C3.5,11.75 3.737,10.58 4.213,9.488C4.688,8.396 5.329,7.446 6.137,6.638C6.946,5.83 7.896,5.188 8.988,4.713C10.079,4.238 11.25,4 12.5,4C12.555,4 12.583,3.934 12.544,3.894L11.548,2.899C11.3,2.65 11.296,2.248 11.54,1.994L11.793,1.733C12.182,1.33 12.824,1.325 13.22,1.72L15.793,4.293C16.183,4.684 16.183,5.317 15.793,5.708L13.22,8.281C12.824,8.676 12.182,8.671 11.793,8.268L11.54,8.007C11.296,7.753 11.3,7.351 11.548,7.102L12.544,6.107C12.583,6.067 12.555,6 12.5,6C10.55,6 8.896,6.68 7.537,8.038C6.179,9.396 5.5,11.05 5.5,13C5.5,14.95 6.179,16.605 7.537,17.963C8.896,19.321 10.55,20 12.5,20C14.45,20 16.104,19.321 17.462,17.963C18.583,16.843 19.241,15.521 19.438,13.998C19.508,13.45 19.948,13 20.5,13C21.052,13 21.506,13.45 21.448,13.999C21.354,14.879 21.134,15.717 20.788,16.513C20.313,17.605 19.671,18.555 18.862,19.363C18.054,20.171 17.104,20.813 16.013,21.288C14.921,21.763 13.75,22 12.5,22Z" clip-path="url(#clip_path_0)"/></g></svg>