<svg width="24" height="24" viewBox="0 0 24 24" fill="none" xmlns="http://www.w3.org/2000/svg">
<path fill-rule="evenodd" clip-rule="evenodd" d="M4.92571 17.6563C5.3162 17.266 5.94931 17.266 6.33977 17.6563C6.73022 18.0467 6.73007 18.6798 6.33977 19.0703L3.51164 21.8994C3.12123 22.2899 2.48813 22.2896 2.09758 21.8994C1.70706 21.5089 1.70706 20.8759 2.09758 20.4854L4.92571 17.6563ZM7.75383 13.4141C8.53483 12.6331 9.80089 12.6332 10.582 13.4141C11.363 14.1951 11.363 15.4612 10.582 16.2422C9.8009 17.0232 8.53486 17.0232 7.75383 16.2422C6.97296 15.4612 6.9729 14.1951 7.75383 13.4141ZM13.4111 7.75686C14.1921 6.97618 15.4582 6.97613 16.2392 7.75686C17.0202 8.53791 17.0202 9.80492 16.2392 10.586C15.4582 11.3667 14.1921 11.3667 13.4111 10.586C12.63 9.80492 12.63 8.53791 13.4111 7.75686ZM20.4823 2.10061C20.8729 1.71013 21.5059 1.7101 21.8964 2.10061C22.2869 2.49113 22.2869 3.12416 21.8964 3.51468L19.0683 6.3428C18.6778 6.73331 18.0447 6.73329 17.6542 6.3428C17.2637 5.95228 17.2637 5.31926 17.6542 4.92874L20.4823 2.10061Z" fill="#1C1C1C"/>
</svg>
