<svg width="24" height="24" viewBox="0 0 24 24" fill="none" xmlns="http://www.w3.org/2000/svg">
    <path d="M8 11.2597C8 10.6015 7.38339 10.116 6.75722 10.3187C4.84482 10.9377 3.01859 11.9046 1.37534 13.2192C0.94408 13.5642 0.874158 14.1935 1.21917 14.6247C1.56418 15.056 2.19347 15.1259 2.62473 14.7809C4.04198 13.6471 5.61348 12.8065 7.25946 12.259C7.69344 12.1147 8 11.717 8 11.2597Z" fill="#1C1C1C"/>
    <path d="M16 11.2596C16 11.717 16.3066 12.1146 16.7405 12.259C18.3866 12.8064 19.9581 13.6471 21.3753 14.7809C21.8066 15.1259 22.4359 15.056 22.7809 14.6247C23.1259 14.1935 23.056 13.5642 22.6247 13.2192C20.9815 11.9045 19.1552 10.9377 17.2428 10.3187C16.6166 10.116 16 10.6015 16 11.2596Z" fill="#1C1C1C"/>
    <circle cx="12" cy="11" r="2" fill="#1C1C1C"/>
</svg>
